<svg xmlns="http://www.w3.org/2000/svg" xmlns:xlink="http://www.w3.org/1999/xlink" width="216" height="135.821" viewBox="0 0 216 135.821"><defs><clipPath id="a"><rect width="216" height="135.821" fill="#fff"/></clipPath></defs><path d="M0,112.307v17.781H12.521v-3.032H3.455V112.307Z" fill="#fff"/><path d="M14.525,111.805h3.357v3.332H14.525Zm0,5.16h3.357v13.123H14.525Z" fill="#fff"/><g clip-path="url(#a)"><path d="M21.837,130.088v-9.016h-1.7v-2.58h1.7v-1.626a5.882,5.882,0,0,1,1.189-3.883,3.942,3.942,0,0,1,3.194-1.428,7.461,7.461,0,0,1,3.231.775l-.676,2.53a4.233,4.233,0,0,0-.889-.338,3.685,3.685,0,0,0-.939-.137q-1.755,0-1.753,2.356v1.751h3.2v2.58h-3.2v9.016Z" fill="#fff"/><path d="M36.738,130.338a7.258,7.258,0,0,1-2.855-.539,6.432,6.432,0,0,1-3.57-3.617,6.943,6.943,0,0,1-.488-2.58,7.34,7.34,0,0,1,.477-2.645,6.423,6.423,0,0,1,1.377-2.177,6.506,6.506,0,0,1,2.19-1.488,7.288,7.288,0,0,1,2.894-.552,7.092,7.092,0,0,1,2.866.552,6.509,6.509,0,0,1,2.154,1.477,6.281,6.281,0,0,1,1.353,2.15,7.173,7.173,0,0,1,.464,2.557c0,.217,0,.426-.014.627a2.4,2.4,0,0,1-.062.5H33.381a3.9,3.9,0,0,0,.376,1.379,3.4,3.4,0,0,0,1.852,1.68,3.6,3.6,0,0,0,1.254.224,3.863,3.863,0,0,0,1.89-.49,2.562,2.562,0,0,0,1.214-1.288l2.88.8a5.838,5.838,0,0,1-2.315,2.466,7.19,7.19,0,0,1-3.794.965m3.406-7.914a3.5,3.5,0,0,0-1.09-2.367,3.507,3.507,0,0,0-3.606-.65,3.282,3.282,0,0,0-1.039.661,3.415,3.415,0,0,0-.739,1.03,3.582,3.582,0,0,0-.338,1.326Z" fill="#fff"/><path d="M53.542,129.411a14.813,14.813,0,0,1-1.666.6,7.017,7.017,0,0,1-2.067.3,4.763,4.763,0,0,1-1.314-.174,2.918,2.918,0,0,1-1.078-.563,2.744,2.744,0,0,1-.737-1,3.6,3.6,0,0,1-.275-1.489v-7.538H44.7v-2.579h1.7v-4.26H49.76v4.26h2.779v2.579H49.76v6.41a1.178,1.178,0,0,0,.376.991,1.451,1.451,0,0,0,.9.289,3.064,3.064,0,0,0,1.028-.179c.334-.114.6-.216.8-.3Z" fill="#fff"/><path d="M55.345,111.805H58.7v3.332H55.345Zm0,5.16H58.7v13.123H55.345Z" fill="#fff"/><path d="M82.191,130.088H78.836v-7.363a3.83,3.83,0,0,0-.551-2.3,1.783,1.783,0,0,0-1.5-.729,2.788,2.788,0,0,0-1.854.764,4.208,4.208,0,0,0-1.252,1.994v7.637H70.32v-7.363a3.9,3.9,0,0,0-.538-2.3,1.749,1.749,0,0,0-1.489-.729,2.857,2.857,0,0,0-1.867.752,4.087,4.087,0,0,0-1.264,1.98v7.663H61.806V116.965h3.03v2.428a5.005,5.005,0,0,1,1.99-1.964,5.949,5.949,0,0,1,2.894-.688,3.659,3.659,0,0,1,2.541.8,3.743,3.743,0,0,1,1.165,1.975,5.7,5.7,0,0,1,2.029-2.067,5.478,5.478,0,0,1,2.8-.71,3.909,3.909,0,0,1,1.979.448,3.286,3.286,0,0,1,1.2,1.178,5.026,5.026,0,0,1,.589,1.653,10.919,10.919,0,0,1,.161,1.88Z" fill="#fff"/><path d="M91.308,130.338a7.258,7.258,0,0,1-2.855-.539,6.432,6.432,0,0,1-3.57-3.617,6.943,6.943,0,0,1-.488-2.58,7.34,7.34,0,0,1,.477-2.645,6.423,6.423,0,0,1,1.377-2.177,6.506,6.506,0,0,1,2.19-1.488,7.288,7.288,0,0,1,2.894-.552,7.092,7.092,0,0,1,2.866.552,6.509,6.509,0,0,1,2.154,1.477,6.281,6.281,0,0,1,1.353,2.15,7.173,7.173,0,0,1,.464,2.557c0,.217,0,.426-.014.627a2.4,2.4,0,0,1-.062.5H87.951a3.9,3.9,0,0,0,.376,1.379,3.4,3.4,0,0,0,1.852,1.68,3.6,3.6,0,0,0,1.254.224,3.863,3.863,0,0,0,1.89-.49,2.562,2.562,0,0,0,1.214-1.288l2.88.8a5.837,5.837,0,0,1-2.315,2.466,7.19,7.19,0,0,1-3.794.965m3.406-7.914a3.5,3.5,0,0,0-1.09-2.367,3.507,3.507,0,0,0-3.606-.65,3.282,3.282,0,0,0-1.039.661,3.415,3.415,0,0,0-.739,1.03,3.582,3.582,0,0,0-.338,1.326Z" fill="#fff"/><path d="M112.069,112.356h3.18l2,5.885,2-5.885h3.206l-3.032,8.089,2.257,5.687,5.034-13.825h3.754l-7.238,17.781h-2.9l-3.082-7.462-3.081,7.462h-2.9l-7.213-17.781h3.731l5.059,13.825,2.2-5.687Z" fill="#fff"/><path d="M134.382,130.338a5.061,5.061,0,0,1-1.778-.311,4.292,4.292,0,0,1-1.428-.878,4.083,4.083,0,0,1-.939-1.314,4.012,4.012,0,0,1-.338-1.653,3.632,3.632,0,0,1,.414-1.717,3.88,3.88,0,0,1,1.151-1.338,5.691,5.691,0,0,1,1.767-.866,7.689,7.689,0,0,1,2.253-.312,9.859,9.859,0,0,1,1.717.149,7.254,7.254,0,0,1,1.49.425v-.748a2.629,2.629,0,0,0-.741-2.006,3.067,3.067,0,0,0-2.192-.7,5.793,5.793,0,0,0-2.052.376,9.332,9.332,0,0,0-2.056,1.1l-1.025-2.131a9.7,9.7,0,0,1,5.459-1.675,6.414,6.414,0,0,1,4.4,1.386,5.092,5.092,0,0,1,1.565,4.02v4.084a1.137,1.137,0,0,0,.2.753.987.987,0,0,0,.7.25v2.854a6.784,6.784,0,0,1-.889.136c-.274.027-.513.038-.714.038a2.33,2.33,0,0,1-1.452-.437,1.8,1.8,0,0,1-.627-1.117l-.072-.725a5.849,5.849,0,0,1-2.131,1.755,6.142,6.142,0,0,1-2.679.6m.95-2.454a4.372,4.372,0,0,0,1.619-.3,2.946,2.946,0,0,0,1.189-.8,1.215,1.215,0,0,0,.551-.953v-1.5a8.449,8.449,0,0,0-1.3-.365,7.079,7.079,0,0,0-1.352-.137,3.589,3.589,0,0,0-2.128.589,1.768,1.768,0,0,0-.828,1.49,1.791,1.791,0,0,0,.653,1.417,2.374,2.374,0,0,0,1.6.562" fill="#fff"/><path d="M153.189,119.871a6.645,6.645,0,0,0-2.728.585,3.454,3.454,0,0,0-1.729,1.691v7.94h-3.354V116.965h3.081v2.8a6.082,6.082,0,0,1,1.763-2.177,3.732,3.732,0,0,1,2.291-.828,3.85,3.85,0,0,1,.414.015,2.629,2.629,0,0,1,.262.035Z" fill="#fff"/><path d="M162.98,119.871a6.645,6.645,0,0,0-2.728.585,3.454,3.454,0,0,0-1.729,1.691v7.94h-3.354V116.965h3.081v2.8a6.082,6.082,0,0,1,1.763-2.177,3.732,3.732,0,0,1,2.291-.828,3.85,3.85,0,0,1,.414.015,2.629,2.629,0,0,1,.262.035Z" fill="#fff"/><path d="M168.39,130.338a5.061,5.061,0,0,1-1.778-.311,4.292,4.292,0,0,1-1.428-.878,4.083,4.083,0,0,1-.939-1.314,4.012,4.012,0,0,1-.338-1.653,3.632,3.632,0,0,1,.414-1.717,3.88,3.88,0,0,1,1.151-1.338,5.691,5.691,0,0,1,1.767-.866,7.689,7.689,0,0,1,2.253-.312,9.859,9.859,0,0,1,1.717.149,7.254,7.254,0,0,1,1.49.425v-.748a2.629,2.629,0,0,0-.741-2.006,3.067,3.067,0,0,0-2.192-.7,5.793,5.793,0,0,0-2.052.376,9.332,9.332,0,0,0-2.056,1.1l-1.025-2.131a9.7,9.7,0,0,1,5.459-1.675,6.414,6.414,0,0,1,4.4,1.386,5.092,5.092,0,0,1,1.565,4.02v4.084a1.137,1.137,0,0,0,.2.753.987.987,0,0,0,.7.25v2.854a6.784,6.784,0,0,1-.889.136c-.274.027-.513.038-.714.038a2.33,2.33,0,0,1-1.452-.437,1.8,1.8,0,0,1-.627-1.117l-.072-.725a5.848,5.848,0,0,1-2.131,1.755,6.142,6.142,0,0,1-2.679.6m.95-2.454a4.372,4.372,0,0,0,1.619-.3,2.946,2.946,0,0,0,1.189-.8,1.215,1.215,0,0,0,.551-.953v-1.5a8.449,8.449,0,0,0-1.3-.365,7.079,7.079,0,0,0-1.352-.137,3.589,3.589,0,0,0-2.128.589,1.768,1.768,0,0,0-.828,1.49,1.791,1.791,0,0,0,.653,1.417,2.374,2.374,0,0,0,1.6.562" fill="#fff"/><path d="M191.582,130.088h-3.355v-7.363a3.844,3.844,0,0,0-.551-2.3,1.808,1.808,0,0,0-1.527-.729,2.918,2.918,0,0,0-1.03.2,3.827,3.827,0,0,0-.988.563,4.7,4.7,0,0,0-.839.866,3.405,3.405,0,0,0-.551,1.1v7.663h-3.355V116.965h3.028v2.428a5,5,0,0,1,2.1-1.953,6.751,6.751,0,0,1,3.1-.7,3.97,3.97,0,0,1,2.006.448,3.28,3.28,0,0,1,1.2,1.178,4.981,4.981,0,0,1,.589,1.653,10.725,10.725,0,0,1,.163,1.88Z" fill="#fff"/><path d="M202.425,129.411a14.912,14.912,0,0,1-1.664.6,7.027,7.027,0,0,1-2.067.3,4.776,4.776,0,0,1-1.315-.174,2.93,2.93,0,0,1-1.079-.563,2.744,2.744,0,0,1-.737-1,3.637,3.637,0,0,1-.273-1.489v-7.538h-1.706v-2.579h1.706v-4.26h3.355v4.26h2.777v2.579h-2.777v6.41a1.178,1.178,0,0,0,.376.991,1.451,1.451,0,0,0,.9.289,3.061,3.061,0,0,0,1.026-.179c.334-.114.6-.216.8-.3Z" fill="#fff"/><path d="M204.328,132.641a5.781,5.781,0,0,0,.824.175,4.985,4.985,0,0,0,.654.053,1.226,1.226,0,0,0,1.064-.528,3.878,3.878,0,0,0,.475-.84,13.477,13.477,0,0,0,.513-1.413l-5.209-13.123h3.457l3.583,10.216,3.153-10.216H216l-5.536,15.729a4.61,4.61,0,0,1-1.679,2.314,4.521,4.521,0,0,1-2.679.813,6.072,6.072,0,0,1-1.778-.274Z" fill="#fff"/><path d="M106.91.25a50.635,50.635,0,1,0,50.634,50.635A50.69,50.69,0,0,0,106.91.25m0,4.762A45.871,45.871,0,1,1,61.036,50.885,45.873,45.873,0,0,1,106.91,5.012" fill="#fff"/><path d="M75.514,70.193V37.048h5.23V65.569H98.53v4.624Z" fill="#fff"/><path d="M110.154,37.185h4.9l4.062,11.254,4.111-11.254h4.946l-5.695,14.753,5,12.188L137.79,37.048h5.7L129.854,70.193h-4.529l-6.163-14.848-6.208,14.848h-4.481L94.841,37.048h5.649L110.9,64.126l4.9-12.188Z" fill="#fff"/></g></svg>