<svg xmlns="http://www.w3.org/2000/svg" width="74.965" height="42.496" viewBox="0 0 74.965 42.496"><g transform="translate(0.476 -20.067)"><g transform="translate(0.524 21.067)"><path d="M0-1H72.965a1,1,0,0,1,1,1V8.021a1,1,0,0,1-1,1H0a1,1,0,0,1-1-1V0A1,1,0,0,1,0-1ZM71.965,1H1V7.021H71.965Z"/><path d="M0-1H5.142a1,1,0,0,1,1,1V32.474a1,1,0,0,1-1,1H0a1,1,0,0,1-1-1V0A1,1,0,0,1,0-1ZM4.142,1H1V31.474H4.142Z" transform="translate(61.485 8.021)"/><path d="M0-1H5.142a1,1,0,0,1,1,1V32.474a1,1,0,0,1-1,1H0a1,1,0,0,1-1-1V0A1,1,0,0,1,0-1ZM4.142,1H1V31.474H4.142Z" transform="translate(6.343 7.963)"/></g></g></svg>