<svg xmlns="http://www.w3.org/2000/svg" width="43.57" height="52.09" viewBox="0 0 43.57 52.09"><g transform="translate(-580.215 -5308.817)"><path d="M.12.145,47.753,0l-.12,37.685L0,37.829Z" transform="matrix(0.07, -0.998, 0.998, 0.07, 581.466, 5357.362)" fill="#fff"/><path d="M45.747,2.006,2.113,2.139,2.006,35.823l43.634-.133.107-33.685M47.753,0l-.12,37.685L0,37.829.12.145Z" transform="matrix(0.07, -0.998, 0.998, 0.07, 581.466, 5357.362)" fill="#1a1818"/><path d="M0,0,47.614.239l.2,37.788L.2,37.788Z" transform="translate(586.042 5360.908) rotate(-97)" fill="#fff"/><path d="M2.011,2.01,2.187,35.8l43.614.219L45.625,2.229,2.011,2.01M0,0,47.614.239l.2,37.788L.2,37.788Z" transform="translate(586.042 5360.908) rotate(-97)" fill="#1a1818"/></g></svg>