<svg xmlns="http://www.w3.org/2000/svg" xmlns:xlink="http://www.w3.org/1999/xlink" width="45.676" height="45.676" viewBox="0 0 45.676 45.676"><defs><clipPath id="a"><rect width="45.676" height="45.676" transform="translate(0 0)" fill="none"/></clipPath></defs><g clip-path="url(#a)"><path d="M23.026,0h20.6a2.049,2.049,0,0,1,2.046,2.047v20.6a3.148,3.148,0,0,1-.928,2.241L25.34,44.3a4.7,4.7,0,0,1-6.645,0L1.377,26.982a4.7,4.7,0,0,1,0-6.645L20.785.929A3.192,3.192,0,0,1,23.026,0ZM22.017,43.677a2.682,2.682,0,0,0,1.909-.791L43.334,23.478a1.162,1.162,0,0,0,.342-.827V2.047A.047.047,0,0,0,43.63,2h-20.6a1.178,1.178,0,0,0-.827.343L2.791,21.751a2.7,2.7,0,0,0,0,3.817L20.109,42.886A2.679,2.679,0,0,0,22.017,43.677Z" fill="#1a1818"/><path d="M34.5,16.037a3.439,3.439,0,1,1,0-4.864,3.44,3.44,0,0,1,0,4.864" fill="#1a1818"/></g></svg>