<?xml version="1.0" encoding="UTF-8"?>
<svg id="Layer_1" data-name="Layer 1" xmlns="http://www.w3.org/2000/svg" viewBox="0 0 16 16">
  <defs>
    <style>
      .cls-1 {
        fill: #fff;
      }
    </style>
  </defs>
  <path class="cls-1" d="M.293000012636185.293000012636185C.683499872684479-.097381927073002,1.316500186920166-.097381927073002,1.707000017166138.293000012636185l6.292999982833862,6.29299995303154L14.293000221252441.293000012636185c.383683204650879-.397247947752476,1.016752243041992-.408244654536247,1.414000511169434-.024561822414398.397247314453125.383682817220688.408245086669922,1.016752272844315.024561882019043,1.414000302553177-.008044242858887.008328676223755-.016233444213867.016517162322998-.024561882019043.024561524391174l-6.293001174926758,6.292999982833862,6.293000221252441,6.293000221252441c.383687019348145.397243499755859.372696876525879,1.030313491821289-.02454662322998,1.414000511169434-.387527465820312.374301910400391-1.001926422119141.374301910400391-1.389453887939453,0l-6.292999267578125-6.293001174926758L1.706999778747559,15.706999778747559c-.397247672080994.383683204650879-1.030317187309265.372687339782715-1.414000272750854-.024560928344727-.374292589724064-.38752555847168-.374292485415936-1.001914024353027.000000238418579-1.389439582824707l6.293000221252441-6.292999267578125L.293000012636185,1.707000017166138C-.097381941974163,1.316500186920166-.097381941974163.683499813079834.293000012636185.293000012636185Z"/>
</svg>