<svg width="79" height="79" viewBox="0 0 79 79" fill="none" xmlns="http://www.w3.org/2000/svg">
<path d="M59.3103 58.0584C58.4707 58.0419 58.1725 57.4202 58.1725 56.8911C58.1725 56.3641 58.472 55.7446 59.3154 55.7307C65.8328 55.7281 71.1339 50.425 71.1339 43.907C71.1339 38.6906 67.7802 34.1547 62.7853 32.6114C62.6382 32.5525 62.5008 32.4925 62.4129 32.4159L62.39 32.3959L62.3655 32.3782C62.1477 32.2208 62.0197 31.9237 61.8714 31.5795C61.8334 31.4912 61.7954 31.4033 61.7559 31.317C60.1176 27.4126 56.3488 24.8904 52.151 24.8904C50.3636 24.8921 48.5975 25.3496 47.0429 26.2135C45.466 27.0899 44.1405 28.3675 43.2095 29.9083C42.9986 30.2553 42.6265 30.4634 42.2152 30.4634C42.0092 30.4634 41.8068 30.4082 41.6285 30.3038C41.1992 29.9999 41.0358 29.6573 41.0991 29.1955C41.374 27.1873 45.5268 24.1518 47.0072 23.637L47.7694 23.372L47.3568 22.6786C46.0117 20.418 44.0957 18.5337 41.816 17.2294C39.5174 15.9144 36.8987 15.2193 34.2432 15.2193L34.2048 15.2192C32.0899 15.2192 30.0354 15.6532 28.0985 16.5091C26.2317 17.334 24.5679 18.507 23.1533 19.9954C21.7558 21.4659 20.6826 23.1598 19.9636 25.0301C19.217 26.9722 18.8909 29.0109 18.9941 31.0904C18.9869 31.6596 18.5594 32.1479 17.9939 32.2295L17.9732 32.2329C14.6297 32.8247 11.9133 34.4445 10.1178 36.9169C8.51009 39.1307 7.73736 41.9173 7.94193 44.7635C8.14644 47.6094 9.30942 50.2568 11.2167 52.218C13.3465 54.4081 16.2649 55.6226 19.6563 55.7302L19.6653 55.7304C20.5144 55.7459 20.8171 56.368 20.8184 56.8961C20.8197 57.417 20.5212 58.0317 19.677 58.0581C15.7881 57.9547 12.3995 56.6117 9.87652 54.1736C7.60411 51.9777 6.12598 48.9651 5.7144 45.6907C5.3022 42.4113 5.98956 39.1178 7.64989 36.4169C9.49303 33.4186 12.4409 31.2754 16.175 30.2189L16.6259 30.0913L16.653 29.6235C16.9399 24.669 18.9736 20.4197 22.534 17.3349C24.1607 15.9255 26.0347 14.8272 28.1036 14.0704C30.1466 13.3232 32.2807 12.9443 34.4465 12.9443C37.517 12.9443 40.5034 13.7288 43.0827 15.2129C45.9147 16.8424 48.1855 19.2333 49.8318 22.3192L50.0487 22.7256L50.5047 22.6612C51.0386 22.5858 51.5862 22.5475 52.1321 22.5475C57.1518 22.5475 61.9824 25.7309 63.8794 30.2887L64.0337 30.6595L64.3389 30.6842C67.7267 32.0185 70.3287 34.2965 71.8673 37.2767C73.2705 39.9945 73.7337 43.2224 73.1716 46.366C72.608 49.518 71.0483 52.3949 68.7799 54.4666C66.2729 56.7562 62.9987 57.9981 59.3103 58.0584Z" fill="#778495"/>
<path d="M52.8362 50.883C51.0312 50.883 48.6074 49.7207 48.1913 49.4208L48.1632 49.4005L48.1331 49.3833C47.0439 48.7605 46.1032 48.2226 44.1001 48.2226C42.1073 48.2226 41.164 48.7593 40.0718 49.3807L40.0423 49.3974L40.0115 49.419C38.7626 50.3105 36.8938 50.8218 34.8842 50.8218C32.8763 50.8218 31.0072 50.3103 29.7562 49.4187L29.7295 49.3996L29.7009 49.3833C28.6117 48.7605 27.671 48.2226 25.671 48.2226C25.0376 48.2226 24.5206 47.7148 24.5059 47.0848C24.5508 46.6407 24.7042 46.3317 24.9742 46.1407C25.2408 45.9522 25.6371 45.8566 26.152 45.8566C27.9567 45.8566 30.3788 47.0194 30.7944 47.3194L30.8226 47.3398L30.8529 47.3571C31.9421 47.9799 32.8827 48.5179 34.8828 48.5179C36.8756 48.5179 37.8189 47.9812 38.911 47.3599L38.9404 47.3432L38.9715 47.3215C40.2204 46.43 42.0896 45.9187 44.1 45.9187C46.1085 45.9187 47.9771 46.43 49.2265 47.3216L49.2534 47.3407L49.2821 47.3571C50.3714 47.9799 51.312 48.5179 53.3151 48.5179C53.9486 48.5179 54.4656 49.0259 54.4802 49.6559C54.4358 50.0997 54.2828 50.4084 54.0132 50.5991C53.7469 50.7875 53.3509 50.883 52.8362 50.883Z" fill="#778495"/>
<path d="M52.8362 58.4691C51.0312 58.4691 48.6074 57.3067 48.1913 57.0068L48.1632 56.9866L48.1331 56.9694C47.044 56.3466 46.1034 55.8086 44.1001 55.8086C42.1074 55.8086 41.1641 56.3453 40.072 56.9666L40.0425 56.9834L40.0115 57.0051C38.7626 57.8965 36.8938 58.4078 34.8842 58.4078C32.8763 58.4078 31.0072 57.8964 29.7562 57.0048L29.7295 56.9857L29.7009 56.9694C28.6118 56.3466 27.6711 55.8086 25.671 55.8086C25.0376 55.8086 24.5206 55.3007 24.5059 54.6709C24.5508 54.2268 24.7042 53.9177 24.9742 53.7268C25.2408 53.5382 25.6371 53.4426 26.152 53.4426C27.9567 53.4426 30.3788 54.6054 30.7944 54.9055L30.8227 54.9259L30.8529 54.9432C31.9421 55.566 32.8828 56.1039 34.8828 56.1039C36.8757 56.1039 37.819 55.5672 38.9112 54.9459L38.9406 54.9291L38.9715 54.9075C40.2204 54.016 42.0896 53.5047 44.1 53.5047C46.1085 53.5047 47.9771 54.016 49.2265 54.9076L49.2534 54.9268L49.2821 54.9432C50.3714 55.566 51.3121 56.1039 53.3151 56.1039C53.9486 56.1039 54.4656 56.6119 54.4802 57.2419C54.4358 57.6857 54.2828 57.9944 54.0132 58.1852C53.7469 58.3736 53.3509 58.4691 52.8362 58.4691Z" fill="#778495"/>
<path d="M52.8362 66.057C51.0312 66.057 48.6074 64.8946 48.1913 64.5947L48.1632 64.5745L48.1331 64.5573C47.0439 63.9344 46.1032 63.3966 44.1001 63.3966C42.1073 63.3966 41.164 63.9332 40.0718 64.5547L40.0424 64.5714L40.0115 64.593C38.7626 65.4844 36.8937 65.9957 34.8842 65.9957C32.8762 65.9957 31.0072 65.4843 29.7562 64.5927L29.7295 64.5736L29.7009 64.5573C28.6117 63.9344 27.671 63.3966 25.671 63.3966C25.0376 63.3966 24.5206 62.8887 24.5059 62.2588C24.5508 61.8147 24.7042 61.5056 24.9742 61.3147C25.2408 61.1261 25.6371 61.0305 26.152 61.0305C27.9567 61.0305 30.3788 62.1933 30.7944 62.4934L30.8227 62.5138L30.8529 62.5311C31.9421 63.1539 32.8828 63.6918 34.8828 63.6918C36.8757 63.6918 37.819 63.1551 38.9112 62.5338L38.9406 62.517L38.9715 62.4954C40.2204 61.6039 42.0897 61.0927 44.1 61.0927C46.1086 61.0927 47.9771 61.604 49.2265 62.4955L49.2534 62.5147L49.2821 62.5311C50.3714 63.1539 51.3121 63.6918 53.3151 63.6918C53.9486 63.6918 54.4656 64.1998 54.4802 64.8298C54.4358 65.2736 54.2828 65.5823 54.0132 65.7731C53.7469 65.9615 53.3509 66.057 52.8362 66.057Z" fill="#778495"/>
</svg>
