<svg width="112" height="126" viewBox="0 0 112 126" fill="none" xmlns="http://www.w3.org/2000/svg">
<path d="M55.9697 125.471C49.889 125.471 44.1677 122.771 40.2717 118.057C36.3756 113.34 34.7665 107.165 35.853 101.125L36.635 96.7811L33.2518 99.5687C29.6269 102.559 25.055 104.207 20.3751 104.207C19.0194 104.207 17.6519 104.068 16.31 103.79C10.298 102.559 5.2094 98.6991 2.35075 93.2112C-0.50791 87.7234 -0.771164 81.3025 1.62578 75.5923C3.75357 70.3606 7.97379 66.2428 13.2078 64.2811L17.2668 62.7603L13.2117 61.2315C7.99148 59.2639 3.78698 55.148 1.67295 49.9402C-0.696491 44.2241 -0.417541 37.809 2.43522 32.3371C5.29191 26.8632 10.3687 23.0075 16.367 21.7586C17.7226 21.4767 19.1098 21.3357 20.487 21.3357C25.1356 21.3357 29.6858 22.9598 33.2989 25.9082L36.6664 28.6561L35.8923 24.3516C34.8058 18.3059 36.4169 12.1351 40.311 7.41766C44.2109 2.70418 49.9321 0 56.009 0C62.0878 0 67.8071 2.70418 71.7051 7.41964C75.5992 12.1351 77.2102 18.3059 76.1237 24.3516L75.3496 28.6521L78.7172 25.9082C82.3362 22.9598 86.8864 21.3377 91.533 21.3377C92.7865 21.3377 94.0478 21.4549 95.2836 21.6891C101.154 22.797 106.233 26.4344 109.215 31.67C112.192 36.9057 112.758 43.1698 110.766 48.8581C108.775 54.5465 104.437 59.0594 98.8633 61.2394L94.9987 62.7524L98.8593 64.2732C104.416 66.4592 108.732 70.9741 110.703 76.6565C112.679 82.3369 112.1 88.5871 109.117 93.8069C106.135 99.0167 101.066 102.642 95.205 103.754C93.9692 103.984 92.7059 104.103 91.4504 104.103C86.8216 104.103 82.2831 102.491 78.6739 99.5607L75.3143 96.8367L76.0845 101.125C77.1709 107.165 75.5618 113.34 71.6658 118.057C67.7698 122.771 62.0505 125.471 55.9697 125.471ZM41.7884 85.5136C42.1931 85.5136 42.5939 85.6188 42.9495 85.8214C43.3896 86.0755 43.7433 86.4825 43.9417 86.961C44.1382 87.4435 44.1736 87.9835 44.04 88.4839L40.8453 100.204C39.5427 104.969 40.531 110.167 43.4938 114.098C46.4605 118.037 51.1542 120.388 56.0483 120.388C60.9404 120.388 65.6342 118.037 68.6009 114.098C71.5656 110.167 72.5558 104.969 71.2512 100.196L68.0546 88.4779C67.7992 87.7056 67.8857 86.963 68.2884 86.3436C68.6853 85.732 69.3259 85.3468 70.0489 85.2853C70.8642 85.2893 71.4929 85.5315 71.9527 86.0298L80.4697 94.7162C83.403 97.7063 87.4719 99.4218 91.6351 99.4218C92.3051 99.4218 92.9829 99.3741 93.6568 99.2867C98.4861 98.6554 102.822 95.7328 105.258 91.472C107.693 87.2052 108.038 82.1363 106.209 77.5658C104.374 72.9953 100.632 69.6002 95.9398 68.2481L84.0651 65.1666C82.8706 65.123 82.0748 64.6941 81.6426 63.9357C81.2261 63.207 81.2261 62.3036 81.6407 61.577C82.0572 60.8483 82.8313 60.3976 83.6643 60.3976L95.6117 57.4373C100.321 56.1567 104.231 52.694 106.088 48.1652C107.946 43.6403 107.61 38.4007 105.194 34.1498C102.777 29.903 98.4664 26.9744 93.6588 26.3172C92.9574 26.2219 92.254 26.1743 91.5546 26.1743C87.3815 26.1743 83.4482 27.8103 80.4815 30.7805L71.988 39.4451C71.6284 39.8084 71.1471 40.0486 70.6383 40.1161C70.5813 40.1181 70.5262 40.1181 70.4712 40.1181C69.8582 40.1181 69.4909 40.0109 69.1628 39.8183C68.7089 39.5563 68.3514 39.1492 68.1529 38.6687C67.9564 38.1903 67.9211 37.6482 68.0546 37.1459L71.2512 25.4317C72.5558 20.6627 71.5656 15.4667 68.6009 11.5315C65.6381 7.59438 60.9443 5.24162 56.0483 5.24162C51.1522 5.24162 46.4585 7.59438 43.4958 11.5315C40.531 15.4667 39.5408 20.6627 40.8453 25.4337L44.04 37.1539C44.1736 37.6482 44.1382 38.1883 43.9417 38.6707C43.7433 39.1512 43.3877 39.5563 42.9437 39.8124C42.5763 40.0248 42.1715 40.136 41.7648 40.136C40.9475 40.0486 40.4662 39.8084 40.1047 39.4411L31.627 30.7924C28.6936 27.8063 24.6227 26.0929 20.4615 26.0929C19.7895 26.0929 19.1117 26.1366 18.4359 26.2259C13.6125 26.8553 9.27443 29.7739 6.83622 34.0327C4.43731 38.2816 4.1131 43.5073 5.96583 48.0183C7.81462 52.5272 11.7048 55.9859 16.3729 57.2685L28.0256 60.342C29.2241 60.3896 30.0198 60.8185 30.452 61.575C30.8686 62.3036 30.8686 63.209 30.452 63.9357C30.0375 64.6643 29.2634 65.115 28.4303 65.115L16.479 68.117C11.7362 69.3619 7.7891 72.8325 5.91673 77.403L5.85191 77.5579L5.78902 77.8835C4.01488 82.0847 4.37046 87.3641 6.79099 91.607C9.22919 95.8837 13.5752 98.8142 18.4202 99.4416C19.0901 99.529 19.7581 99.5726 20.4261 99.5726C24.609 99.5726 28.6936 97.8453 31.6309 94.8393L40.1086 86.1867C40.5408 85.7539 41.1224 85.5136 41.7452 85.5136H41.7884Z" fill="white"/>
<path d="M56.0502 81.0628C51.2091 81.0628 46.6609 79.1587 43.2403 75.7001C39.8178 72.2434 37.9355 67.6471 37.9355 62.7549C37.9355 57.8647 39.8178 53.2684 43.2403 49.8117C46.6609 46.353 51.2091 44.449 56.0502 44.449C60.8913 44.449 65.4396 46.353 68.8601 49.8117C72.2827 53.2684 74.1649 57.8647 74.1649 62.7549C74.1649 67.6471 72.2827 72.2434 68.8601 75.7001C65.4396 79.1587 60.8913 81.0628 56.0502 81.0628ZM56.0502 49.1664C52.4607 49.1664 49.0834 50.5801 46.541 53.1473C44.0399 55.6767 42.6037 59.1791 42.6037 62.7549C42.6037 66.3843 44.0026 69.7953 46.541 72.3645C49.0814 74.9297 52.4567 76.3433 56.0502 76.3433C59.6437 76.3433 63.0191 74.9297 65.5594 72.3645C68.0979 69.7973 69.4967 66.3863 69.4967 62.7549C69.4967 59.1791 68.0605 55.6767 65.5594 53.1473C63.0171 50.5801 59.6397 49.1664 56.0502 49.1664Z" fill="white"/>
</svg>
