<svg width="120" height="130" viewBox="0 0 120 130" fill="none" xmlns="http://www.w3.org/2000/svg">
<mask id="path-1-outside-1_313_4753" maskUnits="userSpaceOnUse" x="-0.400391" y="-0.399902" width="121" height="130" fill="black">
<rect fill="white" x="-0.400391" y="-0.399902" width="121" height="130"/>
<path d="M61.2149 128.438C46.6362 128.438 32.5523 122.766 21.5557 112.47L19.9728 110.994L8.62201 123.234C8.22399 123.667 7.69269 123.903 7.12123 123.903C6.54977 123.903 6.01847 123.667 5.62228 123.238C5.21696 122.801 4.99604 122.223 4.99604 121.605C4.99604 120.987 5.21696 120.408 5.6168 119.979L16.9384 107.758L15.5581 106.058C5.91258 94.1638 0.599609 78.9458 0.599609 63.2062C0.599609 45.7584 6.90031 29.3635 18.3424 17.0383C18.7477 16.5975 19.3155 16.3475 19.9052 16.3475C20.3452 16.3475 20.756 16.4834 21.0938 16.7412C21.1394 16.7766 25.4866 20.0945 30.701 25.6776L33.0288 28.1631L34.3379 24.9278C40.1036 10.7094 52.9296 1.12553 53.0593 1.0291C53.4335 0.74572 53.8553 0.600098 54.2916 0.600098C54.7317 0.600098 55.1552 0.743748 55.5131 1.01532C55.6007 1.08223 64.2786 7.70829 70.53 17.6779L71.5396 19.3014L73.2266 18.5693C78.5999 16.2196 85.2986 14.9779 92.5962 14.9779C98.3108 14.9779 102.55 15.7572 102.592 15.765C103.485 15.9284 104.182 16.6762 104.33 17.6307C104.615 19.4353 106.958 35.653 101.657 49.5172L100.945 51.3769L102.517 52.4691C112.168 59.1798 118.544 68.8384 118.81 69.2458C119.066 69.6374 119.201 70.0999 119.201 70.582C119.201 71.0622 119.066 71.5266 118.809 71.9222C118.433 72.4949 109.45 86.0736 96.6274 92.1231L93.6368 93.5341L95.9263 96.0373C101.084 101.668 104.146 106.357 104.175 106.401C104.779 107.329 104.683 108.581 103.945 109.384C92.5432 121.672 77.3675 128.438 61.2149 128.438ZM22.9506 107.778L24.8147 109.474C34.9586 118.728 47.8869 123.825 61.2186 123.825C74.8096 123.777 87.8729 118.535 98.0041 109.065L99.6582 107.518L98.267 105.7C96.0122 102.744 92.3442 98.3162 87.6721 94.0045C87.1992 93.5617 86.9253 92.9181 86.9253 92.2451C86.9253 92.0444 86.9509 91.8378 86.9984 91.6429C87.2138 90.779 87.8692 90.1256 88.6708 89.978C99.5249 87.8999 108.716 77.8988 113.227 72.1229L114.443 70.5643L113.227 69.0057C110.344 65.3099 104.407 58.489 97.0656 54.3563C96.5489 54.0651 96.1728 53.5731 96.0085 52.9709C95.8497 52.3707 95.919 51.7115 96.202 51.1703C101.256 41.4841 101.093 28.7731 100.547 22.0565L100.383 20.0374L98.508 19.8603C96.5635 19.6773 94.5789 19.5848 92.6053 19.5848C86.8048 19.5848 78.4775 20.4212 71.7459 24.4004C71.4447 24.5775 71.0996 24.67 70.7509 24.67C69.9713 24.67 69.2519 24.2193 68.874 23.4951L68.6458 23.0563C64.7204 15.6745 58.8506 9.82384 55.6993 6.99L54.2588 5.69705L52.8237 6.99591C47.4615 11.841 38.1775 21.7259 36.2513 33.4923C36.1089 34.3719 35.5045 35.0882 34.7122 35.3224C34.5351 35.3736 34.347 35.3992 34.1571 35.3992C33.5272 35.3992 32.9393 35.1079 32.545 34.6002C28.5867 29.5702 24.4751 25.5772 21.7237 23.1153L20.0276 21.6039L18.5925 23.3928C14.2545 28.783 10.8695 34.8403 8.53255 41.3975C6.05681 48.3226 4.80069 55.6512 4.80069 63.1786C4.80069 77.5623 9.60428 91.5288 18.3241 102.512L19.9016 104.496L33.3538 89.9899L32.1324 88.3014C25.9284 79.7271 23.4874 68.6928 25.4318 58.0246C25.5395 57.4145 25.8627 56.8911 26.3392 56.5447C26.6898 56.2928 27.0914 56.159 27.5022 56.159C27.6428 56.159 27.787 56.1728 27.9276 56.2043C29.0705 56.4522 29.8246 57.6763 29.6073 58.9298C27.9769 67.823 29.8593 77.1451 34.7742 84.4973L36.3134 86.8097L58.4781 62.9071L57.4155 61.2481C53.8151 55.6473 52.4531 48.6277 53.68 41.9898C53.7877 41.3837 54.1091 40.8642 54.5838 40.5198C54.9325 40.2679 55.336 40.134 55.7468 40.134C55.8892 40.134 56.0316 40.1478 56.1704 40.1773C56.7418 40.3033 57.2311 40.6575 57.5488 41.1771C57.8574 41.6828 57.9651 42.2889 57.85 42.8833C56.9773 47.7008 57.7277 52.6994 59.9606 56.9678L61.4121 59.7426L76.2537 43.7491C76.6554 43.3142 77.1867 43.0761 77.7545 43.0761C78.3205 43.0761 78.8536 43.3142 79.2553 43.7472C79.657 44.1801 79.8779 44.7607 79.8779 45.3786C79.8779 45.9966 79.657 46.5771 79.2553 47.012L64.4301 63.0094L66.9004 64.6015C69.8636 66.5045 73.2284 67.5101 76.6317 67.5101C77.8641 67.5101 79.1147 67.3762 80.3489 67.1145C80.4859 67.085 80.6228 67.0732 80.7579 67.0732C81.7767 67.0732 82.6567 67.8545 82.852 68.9309C82.8758 69.0825 82.8922 69.2399 82.8922 69.3855C82.8922 70.4856 82.1747 71.4361 81.187 71.6447C79.6953 71.9635 78.1671 72.1229 76.6426 72.1229C71.7222 72.1229 67.0136 70.4915 63.0224 67.4018L61.4724 66.2033L39.3514 90.0607L41.4383 91.7315C46.7257 95.9586 52.9899 98.1922 59.5553 98.1922C61.5436 98.1922 63.5391 97.9817 65.4872 97.5684C65.6241 97.5389 65.7574 97.5271 65.8907 97.5271C66.9077 97.5271 67.7895 98.3103 67.9885 99.3887C68.0141 99.5422 68.0305 99.6957 68.0305 99.8394C68.0305 100.939 67.313 101.89 66.3234 102.099C64.0978 102.575 61.8211 102.815 59.5517 102.815C51.7721 102.815 44.1039 99.9063 37.9584 94.6263L36.3955 93.2743L22.9506 107.778Z"/>
</mask>
<path d="M61.2149 128.438C46.6362 128.438 32.5523 122.766 21.5557 112.47L19.9728 110.994L8.62201 123.234C8.22399 123.667 7.69269 123.903 7.12123 123.903C6.54977 123.903 6.01847 123.667 5.62228 123.238C5.21696 122.801 4.99604 122.223 4.99604 121.605C4.99604 120.987 5.21696 120.408 5.6168 119.979L16.9384 107.758L15.5581 106.058C5.91258 94.1638 0.599609 78.9458 0.599609 63.2062C0.599609 45.7584 6.90031 29.3635 18.3424 17.0383C18.7477 16.5975 19.3155 16.3475 19.9052 16.3475C20.3452 16.3475 20.756 16.4834 21.0938 16.7412C21.1394 16.7766 25.4866 20.0945 30.701 25.6776L33.0288 28.1631L34.3379 24.9278C40.1036 10.7094 52.9296 1.12553 53.0593 1.0291C53.4335 0.74572 53.8553 0.600098 54.2916 0.600098C54.7317 0.600098 55.1552 0.743748 55.5131 1.01532C55.6007 1.08223 64.2786 7.70829 70.53 17.6779L71.5396 19.3014L73.2266 18.5693C78.5999 16.2196 85.2986 14.9779 92.5962 14.9779C98.3108 14.9779 102.55 15.7572 102.592 15.765C103.485 15.9284 104.182 16.6762 104.33 17.6307C104.615 19.4353 106.958 35.653 101.657 49.5172L100.945 51.3769L102.517 52.4691C112.168 59.1798 118.544 68.8384 118.81 69.2458C119.066 69.6374 119.201 70.0999 119.201 70.582C119.201 71.0622 119.066 71.5266 118.809 71.9222C118.433 72.4949 109.45 86.0736 96.6274 92.1231L93.6368 93.5341L95.9263 96.0373C101.084 101.668 104.146 106.357 104.175 106.401C104.779 107.329 104.683 108.581 103.945 109.384C92.5432 121.672 77.3675 128.438 61.2149 128.438ZM22.9506 107.778L24.8147 109.474C34.9586 118.728 47.8869 123.825 61.2186 123.825C74.8096 123.777 87.8729 118.535 98.0041 109.065L99.6582 107.518L98.267 105.7C96.0122 102.744 92.3442 98.3162 87.6721 94.0045C87.1992 93.5617 86.9253 92.9181 86.9253 92.2451C86.9253 92.0444 86.9509 91.8378 86.9984 91.6429C87.2138 90.779 87.8692 90.1256 88.6708 89.978C99.5249 87.8999 108.716 77.8988 113.227 72.1229L114.443 70.5643L113.227 69.0057C110.344 65.3099 104.407 58.489 97.0656 54.3563C96.5489 54.0651 96.1728 53.5731 96.0085 52.9709C95.8497 52.3707 95.919 51.7115 96.202 51.1703C101.256 41.4841 101.093 28.7731 100.547 22.0565L100.383 20.0374L98.508 19.8603C96.5635 19.6773 94.5789 19.5848 92.6053 19.5848C86.8048 19.5848 78.4775 20.4212 71.7459 24.4004C71.4447 24.5775 71.0996 24.67 70.7509 24.67C69.9713 24.67 69.2519 24.2193 68.874 23.4951L68.6458 23.0563C64.7204 15.6745 58.8506 9.82384 55.6993 6.99L54.2588 5.69705L52.8237 6.99591C47.4615 11.841 38.1775 21.7259 36.2513 33.4923C36.1089 34.3719 35.5045 35.0882 34.7122 35.3224C34.5351 35.3736 34.347 35.3992 34.1571 35.3992C33.5272 35.3992 32.9393 35.1079 32.545 34.6002C28.5867 29.5702 24.4751 25.5772 21.7237 23.1153L20.0276 21.6039L18.5925 23.3928C14.2545 28.783 10.8695 34.8403 8.53255 41.3975C6.05681 48.3226 4.80069 55.6512 4.80069 63.1786C4.80069 77.5623 9.60428 91.5288 18.3241 102.512L19.9016 104.496L33.3538 89.9899L32.1324 88.3014C25.9284 79.7271 23.4874 68.6928 25.4318 58.0246C25.5395 57.4145 25.8627 56.8911 26.3392 56.5447C26.6898 56.2928 27.0914 56.159 27.5022 56.159C27.6428 56.159 27.787 56.1728 27.9276 56.2043C29.0705 56.4522 29.8246 57.6763 29.6073 58.9298C27.9769 67.823 29.8593 77.1451 34.7742 84.4973L36.3134 86.8097L58.4781 62.9071L57.4155 61.2481C53.8151 55.6473 52.4531 48.6277 53.68 41.9898C53.7877 41.3837 54.1091 40.8642 54.5838 40.5198C54.9325 40.2679 55.336 40.134 55.7468 40.134C55.8892 40.134 56.0316 40.1478 56.1704 40.1773C56.7418 40.3033 57.2311 40.6575 57.5488 41.1771C57.8574 41.6828 57.9651 42.2889 57.85 42.8833C56.9773 47.7008 57.7277 52.6994 59.9606 56.9678L61.4121 59.7426L76.2537 43.7491C76.6554 43.3142 77.1867 43.0761 77.7545 43.0761C78.3205 43.0761 78.8536 43.3142 79.2553 43.7472C79.657 44.1801 79.8779 44.7607 79.8779 45.3786C79.8779 45.9966 79.657 46.5771 79.2553 47.012L64.4301 63.0094L66.9004 64.6015C69.8636 66.5045 73.2284 67.5101 76.6317 67.5101C77.8641 67.5101 79.1147 67.3762 80.3489 67.1145C80.4859 67.085 80.6228 67.0732 80.7579 67.0732C81.7767 67.0732 82.6567 67.8545 82.852 68.9309C82.8758 69.0825 82.8922 69.2399 82.8922 69.3855C82.8922 70.4856 82.1747 71.4361 81.187 71.6447C79.6953 71.9635 78.1671 72.1229 76.6426 72.1229C71.7222 72.1229 67.0136 70.4915 63.0224 67.4018L61.4724 66.2033L39.3514 90.0607L41.4383 91.7315C46.7257 95.9586 52.9899 98.1922 59.5553 98.1922C61.5436 98.1922 63.5391 97.9817 65.4872 97.5684C65.6241 97.5389 65.7574 97.5271 65.8907 97.5271C66.9077 97.5271 67.7895 98.3103 67.9885 99.3887C68.0141 99.5422 68.0305 99.6957 68.0305 99.8394C68.0305 100.939 67.313 101.89 66.3234 102.099C64.0978 102.575 61.8211 102.815 59.5517 102.815C51.7721 102.815 44.1039 99.9063 37.9584 94.6263L36.3955 93.2743L22.9506 107.778Z" fill="white"/>
<path d="M61.2149 128.438C46.6362 128.438 32.5523 122.766 21.5557 112.47L19.9728 110.994L8.62201 123.234C8.22399 123.667 7.69269 123.903 7.12123 123.903C6.54977 123.903 6.01847 123.667 5.62228 123.238C5.21696 122.801 4.99604 122.223 4.99604 121.605C4.99604 120.987 5.21696 120.408 5.6168 119.979L16.9384 107.758L15.5581 106.058C5.91258 94.1638 0.599609 78.9458 0.599609 63.2062C0.599609 45.7584 6.90031 29.3635 18.3424 17.0383C18.7477 16.5975 19.3155 16.3475 19.9052 16.3475C20.3452 16.3475 20.756 16.4834 21.0938 16.7412C21.1394 16.7766 25.4866 20.0945 30.701 25.6776L33.0288 28.1631L34.3379 24.9278C40.1036 10.7094 52.9296 1.12553 53.0593 1.0291C53.4335 0.74572 53.8553 0.600098 54.2916 0.600098C54.7317 0.600098 55.1552 0.743748 55.5131 1.01532C55.6007 1.08223 64.2786 7.70829 70.53 17.6779L71.5396 19.3014L73.2266 18.5693C78.5999 16.2196 85.2986 14.9779 92.5962 14.9779C98.3108 14.9779 102.55 15.7572 102.592 15.765C103.485 15.9284 104.182 16.6762 104.33 17.6307C104.615 19.4353 106.958 35.653 101.657 49.5172L100.945 51.3769L102.517 52.4691C112.168 59.1798 118.544 68.8384 118.81 69.2458C119.066 69.6374 119.201 70.0999 119.201 70.582C119.201 71.0622 119.066 71.5266 118.809 71.9222C118.433 72.4949 109.45 86.0736 96.6274 92.1231L93.6368 93.5341L95.9263 96.0373C101.084 101.668 104.146 106.357 104.175 106.401C104.779 107.329 104.683 108.581 103.945 109.384C92.5432 121.672 77.3675 128.438 61.2149 128.438ZM22.9506 107.778L24.8147 109.474C34.9586 118.728 47.8869 123.825 61.2186 123.825C74.8096 123.777 87.8729 118.535 98.0041 109.065L99.6582 107.518L98.267 105.7C96.0122 102.744 92.3442 98.3162 87.6721 94.0045C87.1992 93.5617 86.9253 92.9181 86.9253 92.2451C86.9253 92.0444 86.9509 91.8378 86.9984 91.6429C87.2138 90.779 87.8692 90.1256 88.6708 89.978C99.5249 87.8999 108.716 77.8988 113.227 72.1229L114.443 70.5643L113.227 69.0057C110.344 65.3099 104.407 58.489 97.0656 54.3563C96.5489 54.0651 96.1728 53.5731 96.0085 52.9709C95.8497 52.3707 95.919 51.7115 96.202 51.1703C101.256 41.4841 101.093 28.7731 100.547 22.0565L100.383 20.0374L98.508 19.8603C96.5635 19.6773 94.5789 19.5848 92.6053 19.5848C86.8048 19.5848 78.4775 20.4212 71.7459 24.4004C71.4447 24.5775 71.0996 24.67 70.7509 24.67C69.9713 24.67 69.2519 24.2193 68.874 23.4951L68.6458 23.0563C64.7204 15.6745 58.8506 9.82384 55.6993 6.99L54.2588 5.69705L52.8237 6.99591C47.4615 11.841 38.1775 21.7259 36.2513 33.4923C36.1089 34.3719 35.5045 35.0882 34.7122 35.3224C34.5351 35.3736 34.347 35.3992 34.1571 35.3992C33.5272 35.3992 32.9393 35.1079 32.545 34.6002C28.5867 29.5702 24.4751 25.5772 21.7237 23.1153L20.0276 21.6039L18.5925 23.3928C14.2545 28.783 10.8695 34.8403 8.53255 41.3975C6.05681 48.3226 4.80069 55.6512 4.80069 63.1786C4.80069 77.5623 9.60428 91.5288 18.3241 102.512L19.9016 104.496L33.3538 89.9899L32.1324 88.3014C25.9284 79.7271 23.4874 68.6928 25.4318 58.0246C25.5395 57.4145 25.8627 56.8911 26.3392 56.5447C26.6898 56.2928 27.0914 56.159 27.5022 56.159C27.6428 56.159 27.787 56.1728 27.9276 56.2043C29.0705 56.4522 29.8246 57.6763 29.6073 58.9298C27.9769 67.823 29.8593 77.1451 34.7742 84.4973L36.3134 86.8097L58.4781 62.9071L57.4155 61.2481C53.8151 55.6473 52.4531 48.6277 53.68 41.9898C53.7877 41.3837 54.1091 40.8642 54.5838 40.5198C54.9325 40.2679 55.336 40.134 55.7468 40.134C55.8892 40.134 56.0316 40.1478 56.1704 40.1773C56.7418 40.3033 57.2311 40.6575 57.5488 41.1771C57.8574 41.6828 57.9651 42.2889 57.85 42.8833C56.9773 47.7008 57.7277 52.6994 59.9606 56.9678L61.4121 59.7426L76.2537 43.7491C76.6554 43.3142 77.1867 43.0761 77.7545 43.0761C78.3205 43.0761 78.8536 43.3142 79.2553 43.7472C79.657 44.1801 79.8779 44.7607 79.8779 45.3786C79.8779 45.9966 79.657 46.5771 79.2553 47.012L64.4301 63.0094L66.9004 64.6015C69.8636 66.5045 73.2284 67.5101 76.6317 67.5101C77.8641 67.5101 79.1147 67.3762 80.3489 67.1145C80.4859 67.085 80.6228 67.0732 80.7579 67.0732C81.7767 67.0732 82.6567 67.8545 82.852 68.9309C82.8758 69.0825 82.8922 69.2399 82.8922 69.3855C82.8922 70.4856 82.1747 71.4361 81.187 71.6447C79.6953 71.9635 78.1671 72.1229 76.6426 72.1229C71.7222 72.1229 67.0136 70.4915 63.0224 67.4018L61.4724 66.2033L39.3514 90.0607L41.4383 91.7315C46.7257 95.9586 52.9899 98.1922 59.5553 98.1922C61.5436 98.1922 63.5391 97.9817 65.4872 97.5684C65.6241 97.5389 65.7574 97.5271 65.8907 97.5271C66.9077 97.5271 67.7895 98.3103 67.9885 99.3887C68.0141 99.5422 68.0305 99.6957 68.0305 99.8394C68.0305 100.939 67.313 101.89 66.3234 102.099C64.0978 102.575 61.8211 102.815 59.5517 102.815C51.7721 102.815 44.1039 99.9063 37.9584 94.6263L36.3955 93.2743L22.9506 107.778Z" stroke="white" stroke-width="1.2" mask="url(#path-1-outside-1_313_4753)"/>
</svg>
