<svg width="80" height="73" viewBox="0 0 80 73" fill="none" xmlns="http://www.w3.org/2000/svg">
<path d="M5.29626 31.6061C7.01068 31.6061 8.58574 32.3611 9.57645 33.6112H12.5099C14.3442 33.6112 15.958 32.4608 16.4224 30.812C16.9681 28.896 17.8002 27.0656 18.8875 25.3526C19.8086 23.8925 19.5725 22.0513 18.2916 20.8761L16.1824 18.9352C14.4487 19.1916 12.6956 18.6432 11.4766 17.4395C9.65382 15.6268 9.60346 12.7635 11.3876 10.9117C12.3666 9.8896 13.7173 9.30552 15.1917 9.26282C16.639 9.2272 18.0632 9.73647 19.0965 10.6837C20.3039 11.7949 20.8419 13.3654 20.5826 14.886L22.6917 16.8269C23.9688 18.0021 25.9695 18.2229 27.5562 17.3753C29.4177 16.371 31.4108 15.6161 33.4889 15.1068C35.2729 14.6688 36.5307 13.1909 36.5307 11.5064V8.80696C35.1026 7.85965 34.2822 6.33547 34.3518 4.68662C34.4525 2.21513 36.6197 0.163849 39.3054 0.0106812C39.4137 0.0106812 39.5337 0 39.6421 0C40.9888 0 42.2659 0.466522 43.2566 1.32125C44.317 2.24364 44.9207 3.52919 44.9207 4.8683C44.9207 6.44596 44.1002 7.89539 42.7418 8.80707V11.5065C42.7418 13.1945 43.9919 14.6796 45.772 15.1069C47.854 15.6091 49.8431 16.3748 51.7046 17.3754C53.2913 18.223 55.292 18.0058 56.5691 16.827L58.6783 14.8861C58.3996 13.2907 58.9956 11.6774 60.3037 10.5556C62.2735 8.87827 65.385 8.83192 67.3973 10.4737C68.508 11.3747 69.1427 12.6176 69.1891 13.9744C69.2394 15.3134 68.6744 16.6168 67.645 17.5677C66.4376 18.6788 64.7309 19.1739 63.0785 18.9352L60.9694 20.8761C59.6923 22.0514 59.4524 23.8925 60.3734 25.3526C61.4648 27.0656 62.2851 28.8997 62.8385 30.812C63.3145 32.4537 64.9206 33.6112 66.7511 33.6112H69.6845C70.6752 32.3612 72.2619 31.6062 73.9647 31.6062C75.4198 31.6062 76.8285 32.1617 77.8192 33.1375C78.8292 34.1311 79.3362 35.4167 79.2472 36.7842C79.077 39.2451 76.8479 41.25 74.166 41.3426C72.3742 41.4067 70.7178 40.6482 69.6885 39.3376H66.7551C64.9207 39.3376 63.3069 40.4879 62.8425 42.1261C62.2968 44.042 61.4648 45.8725 60.3774 47.5854C59.4563 49.0456 59.6924 50.8867 60.9733 52.0619L63.0825 54.0028C64.8162 53.7464 66.5693 54.2948 67.7883 55.4986C69.6111 57.3112 69.6614 60.1745 67.8774 62.0264C66.8983 63.0484 65.5476 63.6325 64.0732 63.6752C62.6181 63.7215 61.2017 63.2016 60.1684 62.2543C58.961 61.1432 58.423 59.5727 58.6823 58.0521L56.5732 56.1112C55.2961 54.9359 53.2954 54.708 51.7087 55.5627C49.8472 56.567 47.8541 57.322 45.7761 57.8312C43.992 58.2692 42.7459 59.7472 42.7459 61.4317V64.1311C44.1739 65.0784 44.9943 66.6026 44.9247 68.2514C44.8241 70.7229 42.6569 72.7742 39.9712 72.9274C38.4967 73.0093 37.088 72.5427 36.0083 71.6132C34.9479 70.6909 34.3443 69.4053 34.3443 68.0662C34.3443 66.4885 35.1647 65.0391 36.5231 64.1274V61.428C36.5231 59.74 35.2731 58.2549 33.4813 57.8276C31.3992 57.3254 29.4101 56.5597 27.5487 55.5591C25.962 54.7008 23.9612 54.9287 22.6841 56.1075L20.575 58.0484C20.8536 59.6438 20.2576 61.2571 18.9496 62.3789C16.9798 64.0562 13.8683 64.1026 11.8559 62.4608C10.7453 61.5598 10.1105 60.3169 10.0641 58.9601C10.0138 57.6211 10.5789 56.3177 11.6083 55.3668C12.8157 54.2557 14.5223 53.7606 16.1748 53.9993L18.2839 52.0584C19.561 50.8831 19.8009 49.042 18.8799 47.5819C17.7885 45.8689 16.9681 44.0348 16.4147 42.1225C15.9387 40.4808 14.3327 39.334 12.5022 39.334H9.56878C8.53935 40.6481 6.88305 41.396 5.09127 41.339C2.40554 41.2465 0.176448 39.2521 0.0100088 36.7806C-0.0789981 35.4238 0.427964 34.1275 1.43803 33.1339C2.44038 32.1581 3.83736 31.6026 5.29255 31.6026L5.29626 31.6061ZM5.1879 39.2202C6.33728 39.2558 7.38603 38.7003 7.93166 37.7708C8.12903 37.4253 8.52764 37.2152 8.95333 37.2152H12.5215C15.4046 37.2152 17.9316 39.0101 18.6747 41.592C19.17 43.3157 19.9247 44.9751 20.9038 46.5243C22.3589 48.8213 21.9641 51.7131 19.944 53.5721L17.3782 55.9332C17.0802 56.2074 16.6352 56.3178 16.2288 56.1967C15.1801 55.9047 14.0385 56.1682 13.2567 56.8805C12.6724 57.4182 12.355 58.1376 12.386 58.9033C12.4169 59.6689 12.773 60.3705 13.396 60.8833C14.5261 61.8057 16.2791 61.7842 17.3898 60.837C18.2335 60.1176 18.5507 59.0421 18.2218 58.0307C18.1019 57.6567 18.2102 57.2472 18.5082 56.973L21.074 54.6119C23.0941 52.7529 26.2442 52.3968 28.7326 53.7287C30.4161 54.6297 32.2194 55.3134 34.0925 55.78C36.8944 56.4637 38.8487 58.7892 38.8487 61.4423V64.7258C38.8487 65.1176 38.6126 65.4737 38.245 65.666C37.2736 66.1503 36.6699 67.0692 36.6699 68.0805C36.6699 68.8462 37.0066 69.5584 37.6103 70.0784C38.2141 70.5984 39.019 70.8618 39.8511 70.8156C41.3565 70.7337 42.5872 69.5763 42.6336 68.1802C42.6723 67.1225 42.0685 66.1574 41.0585 65.6553C40.6831 65.4737 40.4548 65.1069 40.4548 64.7151V61.4316C40.4548 58.7785 42.4052 56.453 45.2109 55.7693C47.084 55.3134 48.8874 54.6189 50.5708 53.7287C53.0669 52.3897 56.2171 52.7529 58.2295 54.6119L60.7953 56.973C61.0933 57.2472 61.2132 57.6567 61.0817 58.0307C60.7643 59.0065 61.0507 60.0463 61.8247 60.7657C62.409 61.3035 63.1908 61.5955 64.0228 61.567C64.8549 61.5385 65.6172 61.2109 66.1745 60.6376C67.1768 59.5976 67.1535 57.9844 66.1242 56.9623C65.3424 56.186 64.1737 55.894 63.0746 56.1967C62.6683 56.3071 62.2233 56.2074 61.9252 55.9331L59.3594 53.572C57.3393 51.7131 56.9524 48.8142 58.3997 46.5243C59.3788 44.9751 60.1334 43.3156 60.6288 41.592C61.3718 39.0136 63.8989 37.2152 66.782 37.2152H70.3501C70.7758 37.2152 71.1628 37.4324 71.3718 37.7708C71.9174 38.7002 72.9662 39.2558 74.1155 39.2202C75.6326 39.1668 76.8787 38.0449 76.9794 36.6596C77.0297 35.894 76.7433 35.1639 76.1783 34.5977C75.6055 34.0421 74.8392 33.7322 74.0072 33.7322C72.9082 33.7322 71.8981 34.2878 71.3834 35.1817C71.1861 35.5271 70.7874 35.7372 70.3617 35.7372H66.7936C63.9105 35.7372 61.3834 33.9423 60.6404 31.3605C60.1451 29.6368 59.3904 27.9773 58.4113 26.4281C56.9562 24.1311 57.3509 21.2394 59.3711 19.3804L61.9368 17.0193C62.2348 16.745 62.6799 16.6346 63.0862 16.7557C64.135 17.0478 65.2766 16.7842 66.0584 16.072C66.6427 15.5342 66.9601 14.8148 66.9291 14.0492C66.8981 13.2835 66.5421 12.582 65.9191 12.0692C64.789 11.1468 63.036 11.1682 61.9253 12.1155C61.0816 12.8348 60.7643 13.9103 61.0933 14.9218C61.2132 15.2957 61.1049 15.7052 60.8069 15.9795L58.2411 18.3406C56.221 20.1996 53.0786 20.5556 50.5824 19.2166C48.899 18.3156 47.0956 17.6319 45.2225 17.176C42.4206 16.4923 40.4664 14.1668 40.4664 11.5137V8.23017C40.4664 7.83844 40.7025 7.48231 41.0701 7.29C42.0415 6.80567 42.6452 5.88685 42.6452 4.87549C42.6452 4.10983 42.3085 3.39758 41.7047 2.87762C41.101 2.35765 40.3077 2.09418 39.4756 2.14044C37.9703 2.22235 36.7396 3.37971 36.6932 4.7758C36.6545 5.8335 37.2582 6.7986 38.2682 7.3007C38.6436 7.48233 38.8719 7.84914 38.8719 8.24088V11.5244C38.8719 14.1775 36.9215 16.503 34.1158 17.1867C32.2427 17.6426 30.4393 18.3371 28.7559 19.2273C27.7535 19.7651 26.6351 20.0286 25.5361 20.0286C23.9107 20.0286 22.297 19.4552 21.0972 18.3406L18.5314 15.9795C18.2335 15.7052 18.1135 15.2957 18.2451 14.9218C18.5624 13.9459 18.276 12.9061 17.502 12.1867C16.9177 11.649 16.1359 11.3569 15.3039 11.3854C14.4719 11.4139 13.7095 11.7415 13.1522 12.3149C12.1499 13.3548 12.1732 14.968 13.2026 15.9901C13.9843 16.7665 15.153 17.0584 16.2521 16.7557C16.6585 16.6454 17.1035 16.7451 17.4015 17.0193L19.9673 19.3804C21.9874 21.2394 22.3744 24.1382 20.9193 26.4281C19.9402 27.9773 19.1972 29.6368 18.6902 31.3605C17.9471 33.9389 15.4201 35.7372 12.537 35.7372H8.96885C8.54315 35.7372 8.15615 35.52 7.94718 35.1817C7.42086 34.2878 6.42239 33.7323 5.32337 33.7323C4.49134 33.7323 3.71735 34.0421 3.15231 34.5977C2.58728 35.1533 2.30096 35.8833 2.35123 36.6597C2.44024 38.045 3.69794 39.1775 5.21504 39.2202H5.1879Z" fill="#778495"/>
<path d="M35.544 40.4592C38.2375 40.4592 40.4279 42.4749 40.4279 44.9535C40.4279 47.4321 38.2375 49.4478 35.544 49.4478C32.8505 49.4478 30.6602 47.4321 30.6602 44.9535C30.6602 42.4749 32.8505 40.4592 35.544 40.4592ZM35.544 47.3146C36.9604 47.3146 38.1214 46.2463 38.1214 44.9428C38.1214 43.6393 36.9605 42.571 35.544 42.571C34.1276 42.571 32.9666 43.6393 32.9666 44.9428C32.9666 46.2463 34.1276 47.3146 35.544 47.3146Z" fill="#778495"/>
<path d="M51.7193 31.3607C55.4732 31.3607 58.5343 34.1777 58.5343 37.6321C58.5343 41.0865 55.4732 43.9035 51.7193 43.9035C47.9654 43.9035 44.9043 41.0865 44.9043 37.6321C44.9043 34.1777 47.9654 31.3607 51.7193 31.3607ZM51.7193 41.7812C54.2077 41.7812 56.2278 39.9223 56.2278 37.6324C56.2278 35.3425 54.2076 33.4836 51.7193 33.4836C49.231 33.4836 47.2108 35.3426 47.2108 37.6324C47.2108 39.9223 49.231 41.7812 51.7193 41.7812Z" fill="#778495"/>
<path d="M39.2387 30.6769C39.2387 34.3129 36.0306 37.2688 32.0754 37.2688C28.1242 37.2688 24.9121 34.3166 24.9121 30.6769C24.9121 27.0409 28.1203 24.085 32.0754 24.085C36.0266 24.085 39.2387 27.0373 39.2387 30.6769ZM32.0754 26.2111C29.4013 26.2111 27.2225 28.2162 27.2225 30.6769C27.2225 33.1377 29.4013 35.1427 32.0754 35.1427C34.7495 35.1427 36.9283 33.1377 36.9283 30.6769C36.9283 28.2162 34.7495 26.2111 32.0754 26.2111Z" fill="#778495"/>
<path d="M26.0613 38.8889C26.696 38.8889 27.2223 39.3626 27.2223 39.9573V41.5242C27.2223 42.1083 26.7076 42.5926 26.0613 42.5926C25.4189 42.5926 24.9004 42.1189 24.9004 41.5242V39.9573C24.9004 39.3732 25.4151 38.8889 26.0613 38.8889Z" fill="#778495"/>
<path d="M21.8797 33.5829C22.5144 33.5829 23.0406 34.0566 23.0406 34.6513V36.2182C23.0406 36.8023 22.5259 37.2865 21.8797 37.2865C21.2373 37.2865 20.7188 36.8129 20.7188 36.2182V34.6513C20.7188 34.0672 21.2335 33.5829 21.8797 33.5829Z" fill="#778495"/>
<path d="M40.4969 39.4732C39.8622 39.4732 39.3359 38.9995 39.3359 38.4049V36.8379C39.3359 36.2539 39.8506 35.7696 40.4969 35.7696C41.1393 35.7696 41.6578 36.2432 41.6578 36.8379V38.4049C41.6578 38.9889 41.1431 39.4732 40.4969 39.4732Z" fill="#778495"/>
<path d="M43.7045 25.6626C43.8516 25.1961 44.3082 24.897 44.8152 24.897C44.9235 24.897 45.0319 24.9148 45.1403 24.9433C45.7556 25.1071 46.1 25.6983 45.922 26.2645L45.446 27.7674C45.268 28.3336 44.6256 28.6506 44.0102 28.4867C43.3948 28.3229 43.0504 27.7318 43.2285 27.1655L43.7045 25.6626Z" fill="#778495"/>
<path d="M55.4167 26.1999C55.2387 26.7661 54.5963 27.0831 53.9809 26.9192C53.3655 26.7554 53.0212 26.1643 53.1992 25.598L53.6752 24.0952C53.8222 23.6286 54.2789 23.3295 54.7858 23.3295C54.8942 23.3295 55.0026 23.3473 55.1109 23.3758C55.7262 23.5396 56.0707 24.1308 55.8926 24.697L55.4167 26.1999Z" fill="#778495"/>
<path d="M38.9499 20.9478C38.7719 21.514 38.1295 21.831 37.5141 21.6672C36.8987 21.5034 36.5544 20.9122 36.7324 20.3459L37.2084 18.8431C37.3554 18.3766 37.8121 18.0774 38.319 18.0774C38.4274 18.0774 38.5358 18.0952 38.6441 18.1237C39.2594 18.2875 39.6039 18.8787 39.4258 19.445L38.9499 20.9478Z" fill="#778495"/>
<path d="M46.1518 46.5744C46.2988 46.1079 46.7555 45.8087 47.2624 45.8087C47.3708 45.8087 47.4792 45.8265 47.5875 45.855C48.2028 46.0188 48.5473 46.61 48.3693 47.1763L47.8932 48.6791C47.7152 49.2453 47.0728 49.5623 46.4575 49.3985C45.8421 49.2347 45.4977 48.6435 45.6757 48.0772L46.1518 46.5744Z" fill="#778495"/>
<path d="M53.6519 47.3789C53.9111 47.3789 54.1666 47.4501 54.3755 47.6175L55.6914 48.6005C56.1867 48.9637 56.2641 49.6404 55.8616 50.0962C55.4669 50.5521 54.7316 50.6233 54.2362 50.2529L52.9204 49.27C52.425 48.9067 52.3476 48.2301 52.7501 47.7742C52.9784 47.5107 53.3151 47.3825 53.6518 47.3825L53.6519 47.3789Z" fill="#778495"/>
<path d="M24.9526 22.0873C25.0996 21.6208 25.5563 21.3217 26.0632 21.3217C26.1716 21.3217 26.2799 21.3395 26.3883 21.368C27.0036 21.5318 27.348 22.123 27.17 22.6892L26.694 24.1921C26.516 24.7583 25.8736 25.0752 25.2582 24.9114C24.6429 24.7476 24.2985 24.1564 24.4765 23.5902L24.9526 22.0873Z" fill="#778495"/>
<path d="M39.4074 52.6462H39.4771L41.1721 52.7459C41.8068 52.7816 42.2905 53.2837 42.2518 53.8748C42.2131 54.4589 41.6558 54.904 41.0328 54.8684L39.3377 54.7687C38.7031 54.7331 38.2193 54.2309 38.258 53.6469C38.2967 53.0806 38.8037 52.6533 39.4074 52.6533L39.4074 52.6462Z" fill="#778495"/>
<path d="M27.4973 48.5185H27.5669L29.262 48.6182C29.8966 48.6539 30.3804 49.156 30.3417 49.7401C30.3029 50.3241 29.7457 50.7693 29.1226 50.7336L27.4276 50.6339C26.7929 50.5983 26.3092 50.0962 26.3479 49.5121C26.3866 48.9459 26.8936 48.5185 27.4973 48.5185Z" fill="#778495"/>
</svg>
