<svg width="66" height="66" viewBox="0 0 66 66" fill="none" xmlns="http://www.w3.org/2000/svg">
<path d="M12.725 41.6933C12.0392 43.1577 11.6834 44.7587 11.6834 46.3855C11.6834 52.5268 16.685 57.523 22.8313 57.523C24.8938 57.523 26.879 56.9635 28.6245 55.8988C31.1923 58.201 34.4303 59.3638 37.6736 59.3638C40.9015 59.3638 44.1345 58.2165 46.7228 55.8988C47.3029 55.378 47.8005 54.8211 48.2542 54.2565C49.2468 54.5762 50.2883 54.7618 51.3531 54.7618C56.9604 54.7618 61.521 50.2011 61.521 44.594C61.521 41.5776 60.2319 38.891 58.1694 37.0348C60.4742 32.1415 59.657 26.2894 56.014 22.2134C55.3076 21.4168 54.5058 20.7078 53.6241 20.1045C53.9593 17.119 53.026 14.1617 51.0099 11.8979C47.3541 7.82191 41.1952 7.25211 36.8821 10.4464C31.9243 6.4039 24.7854 6.52765 19.9157 10.8589C19.8332 10.9311 19.761 11.0059 19.6836 11.0806C18.6576 10.3794 17.4201 9.96945 16.0871 9.96945C12.5577 9.96945 9.68569 12.8415 9.68569 16.3682C9.68569 17.4664 9.96413 18.4977 10.4514 19.4026C10.1601 19.6192 9.8739 19.8486 9.59549 20.0961C6.98899 22.4216 5.4447 25.6264 5.2462 29.1222C5.04768 32.6207 6.22333 35.9829 8.55654 38.5921C9.73475 39.9017 11.1605 40.9613 12.728 41.6987L12.725 41.6933ZM16.0868 12.0269C18.4793 12.0269 20.4259 13.9734 20.4259 16.3633C20.4259 18.7558 18.4793 20.7023 16.0868 20.7023C13.6943 20.7023 11.7478 18.7558 11.7478 16.3633C11.7478 13.9708 13.6943 12.0269 16.0868 12.0269ZM7.30555 29.2358C7.47055 26.2916 8.77251 23.5923 10.9613 21.6381C11.2063 21.4215 11.4589 21.2204 11.7167 21.0297C12.8614 22.1022 14.3954 22.7648 16.084 22.7648C19.6135 22.7648 22.4855 19.8927 22.4855 16.3633C22.4855 14.9118 21.9931 13.5738 21.1758 12.4987C21.2145 12.4626 21.248 12.4265 21.2893 12.3904C25.5793 8.56962 31.9708 8.63408 36.1525 12.5399C36.155 12.5425 36.1576 12.5425 36.1576 12.5451C36.1602 12.5451 36.1602 12.5477 36.1628 12.5503C36.1783 12.5657 37.7071 13.9888 38.0912 16.2163C38.1789 16.7191 38.612 17.0722 39.107 17.0722C39.1637 17.0722 39.223 17.0671 39.2823 17.0568C39.8443 16.9588 40.2207 16.4277 40.1228 15.8657C39.8185 14.1023 38.991 12.7539 38.3542 11.9315C41.8088 9.55962 46.5987 10.0649 49.4713 13.267C51.2167 15.2263 51.9541 17.8354 51.4952 20.4241C51.4204 20.8418 51.6086 21.262 51.9695 21.4837C52.9054 22.0586 53.7485 22.7625 54.4729 23.5823C57.4764 26.9416 58.2163 31.719 56.4684 35.7896C55.0478 34.9697 53.4055 34.4824 51.6421 34.4335C51.062 34.4025 50.598 34.8666 50.5825 35.4364C50.567 36.0061 51.0156 36.4805 51.5854 36.496C53.3771 36.545 55.0065 37.1663 56.3162 38.1744C56.3369 38.1898 56.3523 38.2105 56.373 38.2233C56.3781 38.2259 56.3807 38.2259 56.3858 38.2285C58.2627 39.7083 59.4616 41.9977 59.4616 44.5915C59.4616 49.0619 55.8264 52.6968 51.3562 52.6968C48.7446 52.6968 46.2747 51.4232 44.7507 49.2911C44.4181 48.827 43.7736 48.7213 43.3121 49.0539C42.8481 49.3865 42.7424 50.0285 43.0749 50.4925C43.9412 51.7016 45.0549 52.6762 46.3131 53.3954C46.0192 53.7254 45.6995 54.0503 45.3514 54.3622C40.7675 58.464 33.7959 58.2449 29.4806 53.8621C29.1249 53.5011 28.5577 53.4521 28.1426 53.7486C26.5854 54.8701 24.7524 55.4605 22.8368 55.4605C17.8275 55.4605 13.7514 51.3896 13.7514 46.3855C13.7514 44.9804 14.0968 43.6063 14.7259 42.3559C15.1565 42.4281 15.7211 42.4951 16.3759 42.4951C17.103 42.4951 17.9382 42.4126 18.8071 42.1703C19.3562 42.0156 19.6759 41.4484 19.5238 40.8993C19.3716 40.3501 18.8019 40.0304 18.2528 40.1826C16.3682 40.7111 14.664 40.2444 14.5094 40.198C12.8387 39.5921 11.3099 38.5584 10.0956 37.2074C8.13108 35.0108 7.14366 32.1801 7.30866 29.2307L7.30555 29.2358Z" fill="#778495"/>
<path d="M6.25713 50.0209C8.56971 50.0209 10.4518 48.1388 10.4518 45.8262C10.4518 43.5136 8.56971 41.6316 6.25713 41.6316C3.94455 41.6316 2.0625 43.5136 2.0625 45.8262C2.0625 48.1388 3.94454 50.0209 6.25713 50.0209ZM6.25713 43.6942C7.43275 43.6942 8.38926 44.6507 8.38926 45.8263C8.38926 47.002 7.43275 47.9585 6.25713 47.9585C5.08151 47.9585 4.125 47.002 4.125 45.8263C4.125 44.6507 5.0815 43.6942 6.25713 43.6942Z" fill="#778495"/>
<path d="M59.6027 12.0603C57.2154 12.0603 55.2715 14.0042 55.2715 16.3916C55.2715 18.7789 57.2154 20.7228 59.6027 20.7228C61.9901 20.7228 63.934 18.7789 63.934 16.3916C63.934 14.0042 61.9901 12.0603 59.6027 12.0603ZM59.6027 18.6603C58.3524 18.6603 57.334 17.6419 57.334 16.3916C57.334 15.1412 58.3524 14.1228 59.6027 14.1228C60.8531 14.1228 61.8715 15.1412 61.8715 16.3916C61.8715 17.6419 60.8531 18.6603 59.6027 18.6603Z" fill="#778495"/>
<path d="M35.4388 24.216C37.0708 23.7519 38.7852 23.9505 40.2677 24.7755C41.7501 25.6005 42.8226 26.954 43.2867 28.5859C43.4156 29.0397 43.8281 29.3362 44.2767 29.3362C44.3695 29.3362 44.4649 29.3233 44.5602 29.2949C45.1068 29.1402 45.4265 28.5679 45.2693 28.0213C44.6531 25.8609 43.2325 24.0691 41.2706 22.9734C39.306 21.8803 37.0373 21.6173 34.8741 22.2309C34.3275 22.3856 34.0078 22.9579 34.1651 23.5045C34.3198 24.051 34.8921 24.3707 35.4387 24.2135L35.4388 24.216Z" fill="#778495"/>
<path d="M28.5249 44.4053C28.6048 44.4233 28.6848 44.4311 28.7621 44.4311C29.2313 44.4311 29.6541 44.1114 29.765 43.637C29.8939 43.0827 29.551 42.5284 28.9967 42.3969C27.3983 42.0205 26.0421 41.046 25.1759 39.6486C24.3096 38.2512 24.0415 36.6013 24.4179 35.0028C24.5468 34.4485 24.2039 33.8942 23.6496 33.7627C23.0953 33.6338 22.5385 33.9767 22.4095 34.531C21.9094 36.6657 22.2677 38.87 23.4228 40.7339C24.5778 42.5978 26.3902 43.9024 28.5249 44.4052L28.5249 44.4053Z" fill="#778495"/>
<path d="M16.4997 28.0774C16.0538 28.0774 15.6266 28.4695 15.6472 28.9299C15.6679 29.3918 16.0218 29.7824 16.4997 29.7824C16.9456 29.7824 17.3728 29.3903 17.3522 28.9299C17.3315 28.468 16.9776 28.0774 16.4997 28.0774Z" fill="#778495"/>
<path d="M30.3044 14.4375C29.8585 14.4375 29.4313 14.8296 29.4519 15.29C29.4726 15.7519 29.8265 16.1425 30.3044 16.1425C30.7503 16.1425 31.1775 15.7504 31.1569 15.29C31.1362 14.8281 30.7823 14.4375 30.3044 14.4375Z" fill="#778495"/>
<path d="M52.8005 39.9026C52.3546 39.9026 51.9274 40.2947 51.948 40.7551C51.9687 41.217 52.3226 41.6076 52.8005 41.6076C53.2464 41.6076 53.6736 41.2155 53.653 40.7551C53.6323 40.2932 53.2784 39.9026 52.8005 39.9026Z" fill="#778495"/>
<path d="M51.8102 45.7876C51.3643 45.7876 50.9371 46.1797 50.9577 46.6401C50.9784 47.102 51.3323 47.4926 51.8102 47.4926C52.2562 47.4926 52.6834 47.1005 52.6627 46.6401C52.6421 46.1782 52.2882 45.7876 51.8102 45.7876Z" fill="#778495"/>
<path d="M38.6657 40.3425C38.2198 40.3425 37.7926 40.7346 37.8132 41.195C37.8339 41.6569 38.1878 42.0475 38.6657 42.0475C39.1116 42.0475 39.5388 41.6554 39.5182 41.195C39.4975 40.7331 39.1436 40.3425 38.6657 40.3425Z" fill="#778495"/>
<path d="M24.4743 47.9875C24.0284 47.9875 23.6012 48.3797 23.6218 48.84C23.6425 49.3019 23.9964 49.6925 24.4743 49.6925C24.9202 49.6925 25.3474 49.3004 25.3268 48.84C25.3061 48.3782 24.9522 47.9875 24.4743 47.9875Z" fill="#778495"/>
</svg>
