<svg width="38" height="70" viewBox="0 0 38 70" fill="none" xmlns="http://www.w3.org/2000/svg">
<path d="M36.2936 51.6995L32.6636 51.5531C32.6703 48.7486 31.6545 46.0251 29.7853 43.8125L33.5541 44.2488H33.5507C34.289 44.3267 34.9594 43.8437 35.0542 43.1644C35.1456 42.4851 34.6275 41.865 33.8893 41.7746L30.4252 41.3758C31.3192 40.12 31.966 38.724 32.3283 37.2594C32.3893 37.2688 35.254 37.9917 35.2879 37.9262C35.9617 37.9138 36.5238 37.4495 36.6085 36.8356C36.6931 36.2186 36.2766 35.639 35.6265 35.4739L32.65 34.7634V34.7603C32.7279 32.068 31.8542 29.4255 30.1577 27.2285H33.72C34.4683 27.2285 35.0745 26.6707 35.0745 25.982C35.0745 25.2934 34.4683 24.7356 33.72 24.7356H30.1442C31.8237 22.5668 32.7042 19.9587 32.6567 17.2975H36.2359C36.9741 17.2851 37.5701 16.7304 37.5701 16.0511C37.5701 15.3686 36.9741 14.814 36.2359 14.8046H32.3519C31.7627 12.318 30.3676 10.0526 28.3528 8.31379L31.0415 6.2104C31.6138 5.7648 31.6815 4.97952 31.1973 4.45289C30.713 3.92939 29.8597 3.86395 29.2874 4.30955L26.1518 6.75882C24.3876 5.74917 22.3965 5.1229 20.3309 4.93277V1.24644C20.3309 0.557806 19.7214 0 18.9764 0C18.2281 0 17.6219 0.55778 17.6219 1.24644V4.93277C14.7064 5.20075 11.9636 6.32878 9.79989 8.14234L6.34599 4.44663C5.8516 3.94182 5.01181 3.89196 4.45311 4.33445C3.89441 4.77694 3.82327 5.54971 4.29057 6.07321L7.96797 10.0057H7.97136C6.82001 11.4329 6.01072 13.0688 5.59766 14.8045H1.33439C0.596176 14.817 0.00699344 15.3717 0.00699344 16.051C0.00699344 16.7303 0.596191 17.2819 1.33439 17.2974H5.29288C5.24547 20.1112 6.22751 22.8597 8.08991 25.0938L3.84362 25.6703H3.84023C3.48468 25.717 3.1596 25.8915 2.94627 26.1595C2.72955 26.4244 2.63813 26.7578 2.68892 27.0881C2.7431 27.4153 2.93611 27.7113 3.22394 27.9076C3.51515 28.1071 3.88087 28.1881 4.23644 28.1382L7.4466 27.702C6.26484 29.4158 5.55372 31.3665 5.37088 33.3858L1.16859 33.8687V33.8719C0.43377 33.9653 -0.080934 34.5824 0.0105207 35.2616C0.101947 35.9378 0.765637 36.4208 1.50385 36.3429L5.37428 35.8973L5.37089 35.9005C5.58083 37.6268 6.18019 39.2939 7.12493 40.799L3.58297 41.8242V41.8211C2.87864 42.0361 2.49259 42.731 2.7161 43.3792C2.93621 44.0273 3.68454 44.395 4.39227 44.2018L8.80449 42.9273C8.83158 42.9554 8.85528 42.9865 8.88237 43.0146L8.88576 43.0114C6.41381 45.4794 5.12709 48.7576 5.31671 52.1101L0.8571 53.6651H0.853714C0.254353 53.8863 -0.094426 54.4659 0.0241185 55.0517C0.139253 55.6375 0.687815 56.0675 1.33461 56.0769C1.02985 56.3574 5.80441 54.5656 5.72314 54.6311V54.6342C6.29541 56.6939 7.42639 58.5854 9.00778 60.1372L5.68254 64.0105V64.0074C5.23895 64.5496 5.34392 65.3162 5.92296 65.7369C6.502 66.1575 7.33841 66.0765 7.80905 65.553L11.0496 61.7794C12.9865 63.057 15.2519 63.8422 17.6222 64.0603V68.5538C17.6222 69.2424 18.2284 69.8002 18.9767 69.8002C19.7217 69.8002 20.3312 69.2424 20.3312 68.5538V64.0603C22.7862 63.836 25.1295 62.9978 27.107 61.6391L29.9277 63.8297C30.5 64.2566 31.3398 64.185 31.8172 63.6646C32.2913 63.1473 32.2304 62.3745 31.675 61.9258L29.1286 59.9471C30.7709 58.28 31.8985 56.2389 32.3929 54.0358C36.1991 54.1885 36.216 54.1916 36.2397 54.1916C32.3929 54.0358 36.1787 54.1916 36.1787 54.1916L36.1753 54.1885C36.9101 54.201 37.523 53.6744 37.5535 52.9982C37.5874 52.322 37.0286 51.7455 36.2938 51.6988L36.2936 51.6995ZM11.7135 43.947C12.2417 43.4796 12.2925 42.7161 11.8354 42.1895C9.41422 40.2326 8.02925 37.4094 8.03943 34.4463C8.04962 31.4832 9.45149 28.6659 11.8862 26.7244C12.3027 26.2258 12.2417 25.5184 11.7439 25.0853C9.36345 23.1595 7.99878 20.3862 7.99199 17.4697C8.54056 4.08929 29.4029 4.07666 29.9549 17.4697H29.9582C29.9582 20.3708 28.6038 23.1317 26.2368 25.0481C25.9659 25.2756 25.8033 25.5934 25.7932 25.93C25.7796 26.2696 25.9151 26.5968 26.169 26.843C28.5597 28.7874 29.9277 31.5888 29.9176 34.527C29.9075 37.4652 28.5225 40.2575 26.1149 42.1898C25.6713 42.6883 25.7017 43.4113 26.1826 43.8818C28.5733 45.8137 29.9481 48.5996 29.9582 51.5253C29.9582 54.9561 28.0654 58.1532 24.9331 60.017C21.8009 61.8773 17.8559 62.1484 14.4599 60.7368C11.0602 59.3253 8.6729 56.4242 8.11753 53.0309C7.56219 49.6374 8.91664 46.219 11.7137 43.9475L11.7135 43.947Z" fill="#778495"/>
<path d="M21.283 17.4687C21.2559 14.6735 18.7873 12.4237 15.7499 12.4237C12.7124 12.4237 10.2439 14.6735 10.2168 17.4687C10.2439 20.2638 12.7158 22.5137 15.7499 22.5137C18.7873 22.5137 21.2559 20.2638 21.283 17.4687ZM12.9256 17.4687C12.9493 16.0478 14.2056 14.9073 15.7497 14.9073C17.2939 14.9073 18.5535 16.0478 18.5739 17.4687C18.5535 18.8896 17.2939 20.0301 15.7497 20.0301C14.2056 20.0301 12.9493 18.8896 12.9256 17.4687Z" fill="#778495"/>
<path d="M14.3477 34.498C14.3781 36.8289 16.4404 38.7079 18.9766 38.7079C21.5094 38.7079 23.5717 36.8289 23.6021 34.498C23.5717 32.1641 21.5094 30.2882 18.9766 30.2882C16.4404 30.2882 14.3781 32.1641 14.3477 34.498ZM20.8932 34.498C20.8762 35.4609 20.0229 36.2368 18.9766 36.2368C17.9269 36.2368 17.0735 35.4609 17.0566 34.498C17.0735 33.5321 17.9269 32.7562 18.9766 32.7562C20.0229 32.7562 20.8797 33.5321 20.8932 34.498Z" fill="#778495"/>
<path d="M16.886 58.1777C20.13 58.1528 22.7442 55.7253 22.7442 52.7433C22.7442 49.7581 20.13 47.3306 16.886 47.3057C13.6454 47.3306 11.0312 49.7581 11.0312 52.7433C11.0312 55.7253 13.6454 58.1528 16.886 58.1777ZM16.886 49.7983C18.6401 49.817 20.0487 51.1289 20.0487 52.7431C20.0487 54.3541 18.6401 55.666 16.886 55.6847C15.1354 55.666 13.7267 54.3541 13.7267 52.7431C13.7267 51.1289 15.1354 49.817 16.886 49.7983Z" fill="#778495"/>
</svg>
