<svg width="429" height="56" viewBox="0 0 429 56" fill="none" xmlns="http://www.w3.org/2000/svg">
<mask id="path-1-inside-1_313_444" fill="white">
<path d="M40.2156 30.4553C39.7996 30.149 39.2525 30.0889 38.7803 30.2978L32.9337 32.8952L29.8021 31.077L35.3471 28.624C35.6945 28.4752 35.9695 28.1953 36.1132 27.8441C36.2565 27.4933 36.2565 27.0995 36.1132 26.7487C35.9695 26.3976 35.6945 26.1177 35.3471 25.9689L29.8021 23.5158L32.9337 21.6976L38.7803 24.295C38.9679 24.3693 39.1676 24.4083 39.3693 24.4104C39.6473 24.4086 39.9187 24.326 40.1507 24.172C40.3826 24.0184 40.5654 23.8005 40.6765 23.5446C40.8309 23.1944 40.8408 22.797 40.7031 22.4399C40.5657 22.0825 40.2925 21.7948 39.9438 21.6399L36.0221 19.9083L39.7858 17.7294C40.2323 17.4718 40.5079 16.9941 40.5091 16.4771C40.51 15.9597 40.2362 15.4812 39.7909 15.2217C39.3453 14.962 38.7958 14.9611 38.3493 15.2187L34.5856 17.4121L35.0453 13.0831C35.0854 12.7022 34.9735 12.321 34.7335 12.0234C34.4938 11.7255 34.146 11.5358 33.7668 11.4958C33.39 11.4552 33.0124 11.5658 32.7164 11.8039C32.4204 12.0417 32.23 12.3874 32.1867 12.7656L31.4971 19.158L28.3655 20.9762L29.0119 14.9156C29.0503 14.6321 29.0039 14.3435 28.8785 14.0865C28.7531 13.8298 28.5547 13.616 28.3081 13.4726C28.0668 13.3332 27.7903 13.267 27.5123 13.2824C27.2342 13.2977 26.9667 13.3939 26.7422 13.5592L21.8436 17.2821V13.6891L27.0007 9.89404C27.3099 9.66888 27.5173 9.32887 27.5765 8.94975C27.6358 8.57064 27.5424 8.18347 27.3167 7.87386C27.0926 7.56331 26.7541 7.35499 26.3767 7.29546C25.9993 7.23595 25.6138 7.32974 25.3056 7.5564L21.8436 10.0672V5.73824C21.8436 5.22267 21.5697 4.74647 21.1253 4.48857C20.6809 4.23094 20.1332 4.23094 19.6888 4.48857C19.2444 4.74651 18.9705 5.2227 18.9705 5.73824V10.0672L15.5085 7.51308C15.1999 7.28731 14.8148 7.19382 14.4374 7.25334C14.0603 7.31286 13.7222 7.52059 13.4974 7.83053C13.2726 8.14047 13.1795 8.52738 13.2388 8.90642C13.2981 9.28521 13.5049 9.62491 13.8134 9.85072L18.9705 13.6891V17.2821L14.0719 13.6747C13.8474 13.5093 13.5799 13.4131 13.3019 13.3978C13.0238 13.3825 12.7473 13.4486 12.5061 13.5881C12.2595 13.7315 12.061 13.9452 11.9356 14.202C11.8103 14.459 11.7639 14.7476 11.8022 15.031L12.4486 21.0916L9.31699 19.2734L8.62746 12.9531C8.5709 12.4376 8.24499 11.9915 7.77245 11.7828C7.29959 11.5742 6.75225 11.6346 6.33593 11.9416C5.91961 12.2485 5.69788 12.755 5.75444 13.2706L6.21413 17.5996L2.45045 15.4063C2.00394 15.1486 1.45446 15.1495 1.00888 15.4093C0.563555 15.6687 0.289719 16.1473 0.290617 16.6646C0.291814 17.1817 0.567446 17.6594 1.01396 17.917L4.77764 20.0959L0.855909 21.8274C0.507249 21.9823 0.234016 22.27 0.0966445 22.6274C-0.0410217 22.9846 -0.0311457 23.382 0.12328 23.7322C0.234311 23.988 0.417168 24.206 0.64911 24.3596C0.881043 24.5135 1.15249 24.5962 1.4305 24.598C1.63221 24.5959 1.83183 24.5568 2.01947 24.4825L7.86606 21.8852L10.9977 23.7033L5.45271 26.1564C5.10525 26.3052 4.83022 26.5851 4.68657 26.9362C4.54321 27.2871 4.54321 27.6809 4.68657 28.0317C4.83022 28.3828 5.10525 28.6627 5.45271 28.8115L10.9977 31.2646L7.86606 33.0827L2.03396 30.3844C1.68352 30.2302 1.28637 30.2223 0.930564 30.3633C0.574427 30.504 0.289218 30.7818 0.137757 31.1347C-0.0166636 31.4849 -0.0265397 31.8823 0.111122 32.2394C0.248494 32.5969 0.521731 32.8846 0.870386 33.0394L4.79212 34.771L1.02844 36.9499C0.581923 37.2075 0.306286 37.6852 0.305094 38.2023C0.304196 38.7196 0.578032 39.1982 1.02335 39.4576C1.46897 39.7174 2.01842 39.7183 2.46493 39.4606L6.2286 37.2673L5.76892 41.5962C5.72881 41.9771 5.84074 42.3583 6.08076 42.656C6.32048 42.9539 6.66824 43.1436 7.0474 43.1836H7.20542C7.56066 43.1857 7.90393 43.0558 8.16908 42.8186C8.43453 42.5814 8.60273 42.2537 8.64193 41.8993L9.33146 35.5069L12.4631 33.6888L11.7879 39.7205C11.7496 40.0039 11.796 40.2925 11.9214 40.5495C12.0468 40.8063 12.2452 41.02 12.4918 41.1634C12.733 41.3029 13.0095 41.369 13.2876 41.3537C13.5656 41.3384 13.8332 41.2422 14.0576 41.0768L18.9705 37.4838V41.1201L13.8135 44.9151C13.3978 45.2193 13.1751 45.7232 13.2296 46.237C13.2841 46.7504 13.607 47.1963 14.0771 47.4058C14.5473 47.6154 15.0928 47.557 15.5086 47.2528L18.9706 44.6987V49.0276C18.9706 49.5432 19.2444 50.0194 19.6889 50.2773C20.1333 50.5349 20.6809 50.5349 21.1254 50.2773C21.5698 50.0194 21.8436 49.5432 21.8436 49.0276V44.6987L25.3057 47.2528C25.5523 47.432 25.8489 47.5282 26.1532 47.527C26.5611 47.5285 26.9504 47.3556 27.224 47.0514C27.4976 46.7475 27.6296 46.3407 27.587 45.9334C27.5446 45.5258 27.3312 45.1554 27.0008 44.9152L21.8437 41.0769V37.4838L26.7423 41.0913C26.9889 41.2705 27.2855 41.3666 27.5898 41.3654C27.8415 41.3673 28.089 41.3026 28.308 41.1779C28.5547 41.0345 28.7531 40.8207 28.8785 40.564C29.0039 40.307 29.0502 40.0184 29.0119 39.7349L28.3655 33.6744L31.4971 35.4925L32.1866 41.8128C32.2258 42.1672 32.394 42.4949 32.6595 42.7321C32.9246 42.9693 33.2679 43.0991 33.6231 43.097H33.7668C34.146 43.0571 34.4937 42.8674 34.7334 42.5694C34.9735 42.2718 35.0854 41.8906 35.0453 41.5097L34.5856 37.1808L38.3493 39.3741C38.7958 39.6317 39.3453 39.6308 39.7909 39.3711C40.2362 39.1116 40.51 38.6331 40.5091 38.1157C40.5079 37.5986 40.2323 37.1209 39.7858 36.8634L36.0221 34.6845L39.9438 32.9529C40.4161 32.744 40.7414 32.2982 40.7974 31.7829C40.8536 31.2679 40.6319 30.7616 40.2156 30.4553ZM18.9705 20.8754V24.8581L15.5372 22.8668L15.0057 17.9895L18.9705 20.8754ZM9.60437 27.3831L14.1007 25.3918L17.534 27.3831L14.1007 29.3744L9.60437 27.3831ZM18.9705 33.8619L14.9626 36.7768L15.4941 31.8706L18.9705 29.8793V33.8619ZM21.8435 20.9043L25.8083 17.9895L25.2768 22.8956L21.8435 24.8869V20.9043ZM21.8004 33.8908V29.8793L25.2337 31.8706L25.7652 36.7768L21.8004 33.8908ZM26.7133 29.3744L23.28 27.3831L26.7133 25.3918L31.2096 27.3831L26.7133 29.3744Z"/>
</mask>
<path d="M40.2156 30.4553C39.7996 30.149 39.2525 30.0889 38.7803 30.2978L32.9337 32.8952L29.8021 31.077L35.3471 28.624C35.6945 28.4752 35.9695 28.1953 36.1132 27.8441C36.2565 27.4933 36.2565 27.0995 36.1132 26.7487C35.9695 26.3976 35.6945 26.1177 35.3471 25.9689L29.8021 23.5158L32.9337 21.6976L38.7803 24.295C38.9679 24.3693 39.1676 24.4083 39.3693 24.4104C39.6473 24.4086 39.9187 24.326 40.1507 24.172C40.3826 24.0184 40.5654 23.8005 40.6765 23.5446C40.8309 23.1944 40.8408 22.797 40.7031 22.4399C40.5657 22.0825 40.2925 21.7948 39.9438 21.6399L36.0221 19.9083L39.7858 17.7294C40.2323 17.4718 40.5079 16.9941 40.5091 16.4771C40.51 15.9597 40.2362 15.4812 39.7909 15.2217C39.3453 14.962 38.7958 14.9611 38.3493 15.2187L34.5856 17.4121L35.0453 13.0831C35.0854 12.7022 34.9735 12.321 34.7335 12.0234C34.4938 11.7255 34.146 11.5358 33.7668 11.4958C33.39 11.4552 33.0124 11.5658 32.7164 11.8039C32.4204 12.0417 32.23 12.3874 32.1867 12.7656L31.4971 19.158L28.3655 20.9762L29.0119 14.9156C29.0503 14.6321 29.0039 14.3435 28.8785 14.0865C28.7531 13.8298 28.5547 13.616 28.3081 13.4726C28.0668 13.3332 27.7903 13.267 27.5123 13.2824C27.2342 13.2977 26.9667 13.3939 26.7422 13.5592L21.8436 17.2821V13.6891L27.0007 9.89404C27.3099 9.66888 27.5173 9.32887 27.5765 8.94975C27.6358 8.57064 27.5424 8.18347 27.3167 7.87386C27.0926 7.56331 26.7541 7.35499 26.3767 7.29546C25.9993 7.23595 25.6138 7.32974 25.3056 7.5564L21.8436 10.0672V5.73824C21.8436 5.22267 21.5697 4.74647 21.1253 4.48857C20.6809 4.23094 20.1332 4.23094 19.6888 4.48857C19.2444 4.74651 18.9705 5.2227 18.9705 5.73824V10.0672L15.5085 7.51308C15.1999 7.28731 14.8148 7.19382 14.4374 7.25334C14.0603 7.31286 13.7222 7.52059 13.4974 7.83053C13.2726 8.14047 13.1795 8.52738 13.2388 8.90642C13.2981 9.28521 13.5049 9.62491 13.8134 9.85072L18.9705 13.6891V17.2821L14.0719 13.6747C13.8474 13.5093 13.5799 13.4131 13.3019 13.3978C13.0238 13.3825 12.7473 13.4486 12.5061 13.5881C12.2595 13.7315 12.061 13.9452 11.9356 14.202C11.8103 14.459 11.7639 14.7476 11.8022 15.031L12.4486 21.0916L9.31699 19.2734L8.62746 12.9531C8.5709 12.4376 8.24499 11.9915 7.77245 11.7828C7.29959 11.5742 6.75225 11.6346 6.33593 11.9416C5.91961 12.2485 5.69788 12.755 5.75444 13.2706L6.21413 17.5996L2.45045 15.4063C2.00394 15.1486 1.45446 15.1495 1.00888 15.4093C0.563555 15.6687 0.289719 16.1473 0.290617 16.6646C0.291814 17.1817 0.567446 17.6594 1.01396 17.917L4.77764 20.0959L0.855909 21.8274C0.507249 21.9823 0.234016 22.27 0.0966445 22.6274C-0.0410217 22.9846 -0.0311457 23.382 0.12328 23.7322C0.234311 23.988 0.417168 24.206 0.64911 24.3596C0.881043 24.5135 1.15249 24.5962 1.4305 24.598C1.63221 24.5959 1.83183 24.5568 2.01947 24.4825L7.86606 21.8852L10.9977 23.7033L5.45271 26.1564C5.10525 26.3052 4.83022 26.5851 4.68657 26.9362C4.54321 27.2871 4.54321 27.6809 4.68657 28.0317C4.83022 28.3828 5.10525 28.6627 5.45271 28.8115L10.9977 31.2646L7.86606 33.0827L2.03396 30.3844C1.68352 30.2302 1.28637 30.2223 0.930564 30.3633C0.574427 30.504 0.289218 30.7818 0.137757 31.1347C-0.0166636 31.4849 -0.0265397 31.8823 0.111122 32.2394C0.248494 32.5969 0.521731 32.8846 0.870386 33.0394L4.79212 34.771L1.02844 36.9499C0.581923 37.2075 0.306286 37.6852 0.305094 38.2023C0.304196 38.7196 0.578032 39.1982 1.02335 39.4576C1.46897 39.7174 2.01842 39.7183 2.46493 39.4606L6.2286 37.2673L5.76892 41.5962C5.72881 41.9771 5.84074 42.3583 6.08076 42.656C6.32048 42.9539 6.66824 43.1436 7.0474 43.1836H7.20542C7.56066 43.1857 7.90393 43.0558 8.16908 42.8186C8.43453 42.5814 8.60273 42.2537 8.64193 41.8993L9.33146 35.5069L12.4631 33.6888L11.7879 39.7205C11.7496 40.0039 11.796 40.2925 11.9214 40.5495C12.0468 40.8063 12.2452 41.02 12.4918 41.1634C12.733 41.3029 13.0095 41.369 13.2876 41.3537C13.5656 41.3384 13.8332 41.2422 14.0576 41.0768L18.9705 37.4838V41.1201L13.8135 44.9151C13.3978 45.2193 13.1751 45.7232 13.2296 46.237C13.2841 46.7504 13.607 47.1963 14.0771 47.4058C14.5473 47.6154 15.0928 47.557 15.5086 47.2528L18.9706 44.6987V49.0276C18.9706 49.5432 19.2444 50.0194 19.6889 50.2773C20.1333 50.5349 20.6809 50.5349 21.1254 50.2773C21.5698 50.0194 21.8436 49.5432 21.8436 49.0276V44.6987L25.3057 47.2528C25.5523 47.432 25.8489 47.5282 26.1532 47.527C26.5611 47.5285 26.9504 47.3556 27.224 47.0514C27.4976 46.7475 27.6296 46.3407 27.587 45.9334C27.5446 45.5258 27.3312 45.1554 27.0008 44.9152L21.8437 41.0769V37.4838L26.7423 41.0913C26.9889 41.2705 27.2855 41.3666 27.5898 41.3654C27.8415 41.3673 28.089 41.3026 28.308 41.1779C28.5547 41.0345 28.7531 40.8207 28.8785 40.564C29.0039 40.307 29.0502 40.0184 29.0119 39.7349L28.3655 33.6744L31.4971 35.4925L32.1866 41.8128C32.2258 42.1672 32.394 42.4949 32.6595 42.7321C32.9246 42.9693 33.2679 43.0991 33.6231 43.097H33.7668C34.146 43.0571 34.4937 42.8674 34.7334 42.5694C34.9735 42.2718 35.0854 41.8906 35.0453 41.5097L34.5856 37.1808L38.3493 39.3741C38.7958 39.6317 39.3453 39.6308 39.7909 39.3711C40.2362 39.1116 40.51 38.6331 40.5091 38.1157C40.5079 37.5986 40.2323 37.1209 39.7858 36.8634L36.0221 34.6845L39.9438 32.9529C40.4161 32.744 40.7414 32.2982 40.7974 31.7829C40.8536 31.2679 40.6319 30.7616 40.2156 30.4553ZM18.9705 20.8754V24.8581L15.5372 22.8668L15.0057 17.9895L18.9705 20.8754ZM9.60437 27.3831L14.1007 25.3918L17.534 27.3831L14.1007 29.3744L9.60437 27.3831ZM18.9705 33.8619L14.9626 36.7768L15.4941 31.8706L18.9705 29.8793V33.8619ZM21.8435 20.9043L25.8083 17.9895L25.2768 22.8956L21.8435 24.8869V20.9043ZM21.8004 33.8908V29.8793L25.2337 31.8706L25.7652 36.7768L21.8004 33.8908ZM26.7133 29.3744L23.28 27.3831L26.7133 25.3918L31.2096 27.3831L26.7133 29.3744Z" fill="#778495" stroke="white" stroke-width="0.801869" mask="url(#path-1-inside-1_313_444)"/>
<path d="M149.43 20.5979C151.175 20.5979 152.855 21.2482 154.143 22.4143L154.395 22.6545C155.711 23.9713 156.451 25.7574 156.451 27.6194C156.451 29.3651 155.801 31.0442 154.635 32.3323L154.395 32.5842C153.078 33.9007 151.292 34.6409 149.43 34.6409C147.684 34.6409 146.005 33.9905 144.717 32.8245L144.465 32.5842C143.148 31.2675 142.408 29.4814 142.408 27.6194C142.408 25.7573 143.148 23.9713 144.465 22.6545C145.782 21.3381 147.568 20.5979 149.43 20.5979ZM149.43 23.0862C148.228 23.0862 147.075 23.5633 146.225 24.4133C145.374 25.2633 144.896 26.4171 144.896 27.6194C144.896 28.8215 145.374 29.9745 146.224 30.8245C147.074 31.6749 148.227 32.1526 149.43 32.1526C150.632 32.1526 151.785 31.6748 152.635 30.8245C153.485 29.9745 153.963 28.8217 153.963 27.6194C153.963 26.4171 153.485 25.2644 152.635 24.4143C151.785 23.5639 150.632 23.0862 149.43 23.0862Z" fill="#778495" stroke="white" stroke-width="0.400934"/>
<path d="M149.415 4.49554C151.749 4.49567 153.963 5.53183 155.459 7.32367C156.955 9.11585 157.578 11.4793 157.161 13.7758L157.064 14.3061L157.484 13.9682C159.273 12.5252 161.605 11.9373 163.864 12.3598C166.123 12.7824 168.084 14.1733 169.23 16.1655C170.375 18.1572 170.594 20.5496 169.827 22.7153C169.061 24.8813 167.387 26.6044 165.244 27.433L164.763 27.6186L165.244 27.8061C167.38 28.6385 169.047 30.3634 169.806 32.5268C170.565 34.6901 170.342 37.0771 169.194 39.062C168.047 41.0468 166.089 42.432 163.836 42.8539C161.582 43.2757 159.257 42.6916 157.47 41.2563L157.051 40.9203L157.146 41.4487C157.564 43.7453 156.94 46.1095 155.444 47.9018C153.948 49.6936 151.735 50.7289 149.4 50.7289C147.066 50.7289 144.851 49.6937 143.355 47.9018C141.86 46.1095 141.236 43.7453 141.653 41.4487L141.751 40.9135L141.329 41.2582C139.506 42.7466 137.11 43.3375 134.804 42.8676C132.641 42.4272 130.771 41.0982 129.643 39.2172L129.427 38.8334C128.331 36.7503 128.228 34.2847 129.147 32.1176L129.148 32.1157C129.969 30.1195 131.588 28.558 133.611 27.808L134.116 27.6205L133.611 27.4321C131.593 26.6789 129.981 25.1174 129.163 23.1245L129.162 23.1225C128.254 20.9559 128.363 18.4963 129.459 16.4184C130.555 14.3406 132.522 12.8613 134.823 12.3871C137.124 11.9128 139.516 12.4929 141.345 13.9682L141.765 14.3061L141.668 13.7758C141.251 11.4793 141.874 9.11583 143.37 7.32367C144.866 5.53165 147.08 4.49554 149.415 4.49554ZM149.429 7.17328C147.747 7.17338 146.161 7.9598 145.143 9.29828C144.124 10.6369 143.79 12.3746 144.238 13.9955L145.408 18.2416C145.48 18.5072 145.462 18.7895 145.356 19.0434C145.25 19.2979 145.063 19.5094 144.823 19.6459L144.822 19.6469C144.585 19.7845 144.308 19.8391 144.036 19.8032C143.798 19.7716 143.575 19.672 143.393 19.517L143.317 19.4477L140.212 16.3139C139.034 15.1269 137.37 14.5563 135.711 14.7709C134.052 14.9857 132.587 15.9606 131.75 17.4086V17.4096C130.926 18.8528 130.816 20.5972 131.453 22.1323C132.09 23.6671 133.402 24.8206 135.006 25.2563L135.008 25.2573L139.269 26.3696L139.293 26.3754H139.318C139.763 26.3754 140.173 26.6129 140.396 26.9975C140.618 27.3823 140.618 27.8568 140.396 28.2416C140.173 28.6264 139.763 28.8637 139.318 28.8637H139.294L139.27 28.8696L135.038 29.9389H135.036C133.411 30.3619 132.078 31.5228 131.436 33.0746L131.42 33.1118V33.1577C130.789 34.6944 130.903 36.4372 131.733 37.8784C132.571 39.3318 134.039 40.311 135.703 40.5248C137.367 40.7386 139.035 40.1628 140.213 38.9682L140.212 38.9672L143.316 35.8354C143.551 35.6029 143.869 35.4733 144.199 35.475H144.202C144.42 35.4735 144.635 35.5296 144.824 35.6371V35.6362C145.063 35.7726 145.249 35.9847 145.355 36.2387V36.2397C145.461 36.4937 145.48 36.7758 145.408 37.0414L144.238 41.2875C143.79 42.9086 144.124 44.6463 145.143 45.9848C146.161 47.3234 147.747 48.1087 149.429 48.1088C151.111 48.1088 152.696 47.3233 153.715 45.9848C154.67 44.7297 155.024 43.1239 154.694 41.5922L154.619 41.2875L153.45 37.0414L153.446 37.0307L153.409 36.893C153.34 36.57 153.403 36.2302 153.586 35.9506C153.796 35.6317 154.14 35.4262 154.521 35.394C154.901 35.3619 155.276 35.5068 155.536 35.7866L155.541 35.7914L158.646 38.9252C159.824 40.1123 161.488 40.6829 163.147 40.4682C164.806 40.2534 166.27 39.2785 167.107 37.8305H167.108C167.934 36.3974 168.053 34.6637 167.432 33.1313C166.81 31.5986 165.518 30.4365 163.928 29.9828L163.922 29.9819L159.589 28.8696L159.564 28.8637H159.539C159.095 28.8636 158.684 28.6264 158.462 28.2416C158.24 27.8568 158.24 27.3823 158.462 26.9975C158.684 26.6127 159.095 26.3755 159.539 26.3754H159.563L159.588 26.3696L163.819 25.3159L163.823 25.3149C165.433 24.8817 166.751 23.725 167.39 22.185C168.028 20.6451 167.915 18.8958 167.084 17.4506C166.253 16.0053 164.798 15.028 163.146 14.8051C161.493 14.5823 159.832 15.1396 158.647 16.3129L158.646 16.3139L155.54 19.4477C155.346 19.6421 155.094 19.7672 154.822 19.8032C154.55 19.8392 154.274 19.7844 154.036 19.6469L154.034 19.6459C153.795 19.5094 153.608 19.2977 153.502 19.0434C153.396 18.7895 153.378 18.5072 153.45 18.2416L154.62 13.9955C155.069 12.3745 154.733 10.6368 153.715 9.29828C152.696 7.95966 151.111 7.17328 149.429 7.17328Z" fill="#778495" stroke="white" stroke-width="0.400934"/>
<rect x="-0.200467" y="0.200467" width="54.9019" height="54.9019" transform="matrix(-1 0 0 1 305.644 0)" stroke="white" stroke-width="0.400934"/>
<path d="M269.148 18.4067C271.6 15.9548 274.925 14.5776 278.393 14.5776C281.86 14.5776 285.186 15.9551 287.638 18.4067C290.09 20.8584 291.467 24.184 291.467 27.6515C291.467 31.1187 290.089 34.4444 287.638 36.8963C285.186 39.3482 281.86 40.7255 278.393 40.7255C274.925 40.7255 271.6 39.3479 269.148 36.8963C266.696 34.4446 265.319 31.1191 265.319 27.6515C265.319 24.184 266.696 20.8587 269.148 18.4067ZM271.46 34.585C273.299 36.4238 275.793 37.4567 278.393 37.4567C280.994 37.4567 283.488 36.4237 285.327 34.585C287.165 32.7461 288.198 30.2519 288.198 27.6515C288.198 25.0511 287.165 22.5569 285.327 20.7181C283.488 18.8792 280.994 17.8463 278.393 17.8463C275.793 17.8463 273.299 18.8793 271.46 20.7181C269.621 22.5569 268.588 25.0511 268.588 27.6515C268.588 30.2519 269.621 32.7461 271.46 34.585Z" fill="#778495"/>
<path d="M279.21 11.0904C278.705 11.3822 278.082 11.3822 277.576 11.0904C277.07 10.7983 276.759 10.259 276.759 9.67516V3.13837C276.759 2.55448 277.07 2.01517 277.576 1.7231C278.082 1.43133 278.705 1.43133 279.21 1.7231C279.716 2.01522 280.027 2.55451 280.027 3.13837V9.67516C280.027 10.259 279.716 10.7984 279.21 11.0904Z" fill="#778495"/>
<path d="M277.576 44.2124C278.082 43.9206 278.705 43.9206 279.21 44.2124C279.716 44.5045 280.027 45.0438 280.027 45.6277V52.1645C280.027 52.7484 279.716 53.2877 279.21 53.5797C278.705 53.8715 278.082 53.8715 277.576 53.5797C277.07 53.2876 276.759 52.7483 276.759 52.1645V45.6277C276.759 45.0438 277.07 44.5045 277.576 44.2124Z" fill="#778495"/>
<path d="M292.267 16.0979C291.959 16.4037 291.541 16.5742 291.107 16.5719C290.672 16.5742 290.255 16.4037 289.947 16.0979C289.637 15.7912 289.463 15.3735 289.463 14.9377C289.463 14.502 289.637 14.0842 289.947 13.7775L294.571 9.16896C294.992 8.80876 295.566 8.68585 296.098 8.84315C296.629 9.0001 297.044 9.41546 297.201 9.94691C297.359 10.478 297.236 11.0524 296.876 11.4732L292.267 16.0979Z" fill="#778495"/>
<path d="M264.519 39.2049C264.826 38.8955 265.244 38.7215 265.679 38.7215C266.115 38.7215 266.533 38.8955 266.84 39.2049L266.84 39.205C267.149 39.5118 267.323 39.9295 267.323 40.3653C267.323 40.801 267.149 41.2188 266.84 41.5255L262.215 46.134C261.909 46.4383 261.495 46.6092 261.063 46.6092C260.631 46.6092 260.217 46.4383 259.911 46.134C259.606 45.8279 259.436 45.4135 259.436 44.9818C259.436 44.5501 259.606 44.1358 259.911 43.8297L264.519 39.2049Z" fill="#778495"/>
<path d="M294.955 28.4686C294.663 27.963 294.663 27.34 294.955 26.8344C295.247 26.3288 295.786 26.0173 296.37 26.0173H302.907C303.34 26.0173 303.756 26.1896 304.062 26.496C304.369 26.8024 304.541 27.2181 304.541 27.6515C304.541 28.0849 304.369 28.5006 304.062 28.807C303.756 29.1134 303.34 29.2857 302.907 29.2857H296.37C295.786 29.2857 295.247 28.9742 294.955 28.4686Z" fill="#778495"/>
<path d="M253.881 26.0173H260.418C261.002 26.0173 261.541 26.3288 261.833 26.8344C262.125 27.34 262.125 27.963 261.833 28.4686C261.541 28.9742 261.002 29.2857 260.418 29.2857H253.881C253.447 29.2857 253.032 29.1134 252.725 28.807C252.419 28.5006 252.247 28.0849 252.247 27.6515C252.247 27.2181 252.419 26.8024 252.725 26.496C253.032 26.1895 253.447 26.0173 253.881 26.0173Z" fill="#778495"/>
<path d="M290.683 38.7805C291.249 38.6287 291.853 38.7904 292.268 39.2051L296.876 43.8298C297.181 44.1359 297.352 44.5502 297.352 44.9819C297.352 45.4137 297.181 45.828 296.876 46.1341C296.57 46.4384 296.156 46.6094 295.724 46.6094C295.292 46.6094 294.878 46.4385 294.572 46.1341L289.947 41.5256C289.533 41.111 289.371 40.5069 289.523 39.9408C289.674 39.3742 290.116 38.932 290.683 38.7805Z" fill="#778495"/>
<path d="M265.68 16.5716C265.245 16.574 264.828 16.4035 264.519 16.0977L259.911 11.473C259.565 11.1768 259.358 10.7499 259.341 10.2946C259.323 9.83976 259.496 9.39821 259.818 9.07616C260.14 8.75411 260.582 8.58113 261.037 8.59883C261.492 8.61619 261.919 8.82285 262.215 9.16876L262.215 9.16881L266.84 13.7772C267.149 14.084 267.323 14.5017 267.323 14.9375C267.323 15.3732 267.149 15.791 266.84 16.0977C266.531 16.4035 266.114 16.574 265.68 16.5716Z" fill="#778495"/>
<path d="M404.507 6.88531C404.964 6.56228 405.585 6.56204 406.047 6.88824V6.88922H406.048C406.048 6.88958 406.049 6.89053 406.05 6.89117C406.052 6.89244 406.054 6.89377 406.058 6.89606C406.064 6.90074 406.074 6.90774 406.086 6.91656C406.111 6.93449 406.147 6.96127 406.193 6.99567C406.286 7.06465 406.42 7.16644 406.588 7.2984C406.923 7.56236 407.391 7.94743 407.93 8.43805C409.007 9.41999 410.364 10.819 411.501 12.5025L411.592 12.6373L411.742 12.5767C416.526 10.6363 422.195 11.5811 422.44 11.6236H422.441C423.002 11.7182 423.443 12.1595 423.537 12.7203C423.642 13.3426 424.485 18.8169 422.557 23.4966L422.493 23.6509L422.634 23.7408C426.142 26.0044 428.455 29.257 428.553 29.3961C428.714 29.6264 428.8 29.8953 428.8 30.1754C428.8 30.4556 428.715 30.7248 428.554 30.9547C428.412 31.1565 425.154 35.7278 420.469 37.7789L420.201 37.8961L420.406 38.1031C421.34 39.0494 422.082 39.9154 422.593 40.5464C422.848 40.8619 423.045 41.119 423.179 41.2974C423.245 41.3865 423.297 41.4558 423.331 41.5035C423.348 41.5271 423.361 41.5456 423.37 41.5582C423.375 41.5644 423.379 41.5695 423.381 41.5728C423.382 41.5745 423.383 41.5758 423.384 41.5767V41.5777L423.385 41.5787C423.739 42.0825 423.707 42.7547 423.319 43.2203L423.236 43.3101C418.967 47.5797 413.35 49.7327 407.72 49.733C402.594 49.7332 397.46 47.9493 393.318 44.355L393.177 44.233L393.045 44.3648L389.558 47.8541H389.557C389.033 48.3784 388.182 48.3788 387.658 47.8541C387.134 47.3288 387.134 46.4723 387.657 45.9468L387.658 45.9478L391.135 42.4693L391.267 42.3365L391.144 42.1959C387.637 38.1846 385.71 33.0723 385.71 27.7584C385.71 21.8814 387.998 16.3585 392.152 12.2056V12.2047C392.587 11.7691 393.272 11.6835 393.787 11.98L393.888 12.0445H393.889L393.893 12.0484C393.896 12.0507 393.901 12.0538 393.907 12.0582C393.92 12.0671 393.938 12.0809 393.962 12.0982C394.009 12.1327 394.078 12.1838 394.167 12.2505C394.345 12.3845 394.601 12.5824 394.916 12.8384C395.546 13.3507 396.41 14.0968 397.356 15.0357L397.564 15.2418L397.682 14.9732C398.725 12.5845 400.417 10.571 401.86 9.14703C402.581 8.43596 403.238 7.87378 403.717 7.48785C403.956 7.29493 404.152 7.14589 404.288 7.04449C404.356 6.99403 404.409 6.95573 404.446 6.92926C404.465 6.91599 404.479 6.90507 404.489 6.89801L404.504 6.88824L404.507 6.88531ZM405.136 9.78668C404.313 10.4768 403.068 11.6208 401.945 13.0582C400.824 14.4939 399.816 16.2359 399.482 18.1207V18.1216C399.394 18.6332 399.011 19.053 398.511 19.189C398.008 19.3256 397.468 19.1566 397.136 18.7613L396.608 18.1578C395.379 16.7921 394.165 15.7165 393.388 15.0718L393.236 14.9468L393.108 15.0953C391.622 16.8086 390.462 18.7333 389.658 20.8218C388.81 23.0255 388.381 25.3561 388.381 27.7486C388.381 32.3358 390.023 36.7614 393.015 40.2564L393.156 40.4214L393.31 40.2681L396.961 36.6129L397.087 36.4879L396.978 36.3482C394.748 33.489 393.83 29.8607 394.433 26.2906L394.495 25.9449C394.564 25.5905 394.766 25.2841 395.066 25.0826C395.366 24.8817 395.723 24.8101 396.075 24.8814V24.8824C396.793 25.0272 397.269 25.7352 397.135 26.4625C396.584 29.2438 397.212 32.107 398.857 34.3912L398.995 34.5826L399.162 34.4156L405.867 27.7086L405.985 27.5904L405.89 27.4527C404.524 25.4822 404.01 23.0355 404.477 20.688V20.6871C404.545 20.3356 404.747 20.0316 405.047 19.8306C405.346 19.6298 405.704 19.5582 406.056 19.6295C406.413 19.7017 406.72 19.9077 406.919 20.2105C407.115 20.509 407.183 20.8661 407.11 21.2164L407.109 21.2183C406.827 22.6653 407.07 24.142 407.793 25.4224L407.923 25.6529L408.109 25.4654L412.614 20.9605C413.137 20.436 413.989 20.4358 414.513 20.9605V20.9615C414.767 21.2162 414.907 21.5541 414.907 21.9146C414.907 22.275 414.767 22.613 414.513 22.8677L409.993 27.3922L409.811 27.5748L410.032 27.7066C411.343 28.4878 412.864 28.7534 414.365 28.4566C415.096 28.3144 415.804 28.793 415.945 29.5211C415.964 29.6265 415.972 29.71 415.972 29.7838C415.972 30.4264 415.515 30.9816 414.89 31.105C412.481 31.58 409.994 31.0374 408.013 29.6148L407.875 29.5162L407.754 29.6363L401.062 36.3297L400.898 36.4947L401.085 36.6324C403.242 38.2317 405.928 38.91 408.585 38.5298L409.115 38.44C409.839 38.2997 410.546 38.7737 410.693 39.4986V39.4996L410.695 39.5093C410.713 39.6084 410.721 39.692 410.721 39.7662C410.721 40.4089 410.264 40.965 409.639 41.0884C405.914 41.8262 402.106 40.8904 399.134 38.5191L398.994 38.4078L398.867 38.5347L395.229 42.1754L395.075 42.3297L395.241 42.4703C398.723 45.4186 403.137 47.0357 407.722 47.0357C407.744 47.0357 407.766 47.0358 407.788 47.0357C412.417 47.0198 416.857 45.3554 420.331 42.3414L420.479 42.2134L420.354 42.0621C419.712 41.2832 418.642 40.0676 417.283 38.8326L416.684 38.3033C416.382 38.0427 416.211 37.6682 416.211 37.2759C416.211 37.1591 416.227 37.0366 416.258 36.9234L416.259 36.9224C416.395 36.4196 416.812 36.0371 417.319 35.9488H417.32C419.193 35.6162 420.93 34.6087 422.365 33.4888C423.802 32.3674 424.951 31.1232 425.645 30.2994L425.753 30.1705L425.645 30.0406C424.638 28.8438 422.821 26.9269 420.567 25.6314L420.111 25.3814C419.826 25.2312 419.61 24.9927 419.49 24.6998L419.444 24.5709C419.357 24.2583 419.38 23.9277 419.505 23.6422L419.565 23.522C421.31 20.421 421.196 16.2488 421.026 14.3218L421.012 14.1539L420.844 14.1392C418.997 13.9787 415.069 13.8696 412.018 15.4029L411.726 15.5562C411.084 15.9069 410.269 15.6715 409.91 15.0308L409.829 14.8863L409.828 14.8843C408.518 12.5995 406.58 10.7772 405.393 9.78668L405.264 9.67926L405.136 9.78668Z" fill="#778495" stroke="white" stroke-width="0.400934"/>
</svg>
