<svg width="111" height="126" viewBox="0 0 111 126" fill="none" xmlns="http://www.w3.org/2000/svg">
<g clip-path="url(#clip0_313_4804)">
<path d="M55.0186 124.595C54.6732 124.595 54.333 124.503 54.0348 124.33C53.4281 123.976 53.051 123.317 53.051 122.609V106.635L40.3078 116.069C39.9722 116.316 39.5717 116.447 39.1511 116.447C38.8747 116.447 38.6053 116.39 38.3504 116.276C37.7081 115.989 37.262 115.37 37.1873 114.663C37.1127 113.956 37.4203 113.257 37.9904 112.838L53.0509 101.717V86.6643L36.3082 98.9513C35.9961 99.1825 35.6308 99.3148 35.2493 99.3358C35.214 99.3378 35.1783 99.3388 35.1429 99.3388C34.7986 99.3388 34.4589 99.2474 34.1607 99.0745C33.8251 98.8786 33.5554 98.5865 33.3824 98.2309C33.21 97.8765 33.1467 97.4816 33.1996 97.0892L35.5118 76.3658L22.5571 83.9134L20.5442 102.64C20.4905 103.126 20.2603 103.575 19.8961 103.902C19.5356 104.225 19.0709 104.403 18.5876 104.403H18.2513C17.7644 104.33 17.3268 104.078 17.0156 103.69C16.6832 103.276 16.5309 102.757 16.5865 102.228L18.2733 86.2877L4.47082 94.3593C4.17717 94.5296 3.83797 94.6203 3.49243 94.6203C3.14395 94.6203 2.80052 94.5273 2.49955 94.3511C1.88801 93.9938 1.50928 93.329 1.51058 92.6161C1.51221 91.9035 1.89355 91.2406 2.50573 90.886L16.3168 82.8622L1.87777 76.4651C1.4063 76.2548 1.02806 75.8543 0.840966 75.3657C0.650461 74.8702 0.663638 74.3292 0.877733 73.8419C1.08988 73.3464 1.48748 72.9554 1.97098 72.7635C2.20249 72.6715 2.44473 72.6249 2.69168 72.6249C2.965 72.6249 3.23083 72.6813 3.48153 72.7923L20.4935 80.6906L33.4434 73.146L14.5321 64.7502C14.0291 64.5337 13.6603 64.1597 13.4591 63.6662C13.2612 63.1805 13.2614 62.6448 13.4596 62.1578C13.6579 61.6718 14.0311 61.2906 14.5103 61.0846L33.4433 52.6795L20.5102 45.1442L3.46314 52.744C3.20691 52.8426 2.90562 52.9005 2.59798 52.9038C2.2482 52.9014 1.87711 52.7854 1.56459 52.5773C1.2441 52.3643 0.994705 52.0659 0.842593 51.7141C0.624919 51.2186 0.610603 50.6756 0.800457 50.1811C0.990637 49.6845 1.36026 49.2931 1.84165 49.0786L16.2768 42.6828L2.46815 34.6606C1.85401 34.3052 1.47219 33.6415 1.47056 32.9284C1.46926 32.2161 1.84799 31.5515 2.45872 31.1945C2.7605 31.018 3.10377 30.9248 3.45192 30.9248C3.79746 30.9248 4.13861 31.0167 4.43845 31.1903L18.2333 39.2576L16.5464 23.3155C16.4679 22.5981 16.7753 21.8908 17.3482 21.4672C17.692 21.2125 18.099 21.0781 18.5254 21.0781C18.8023 21.0781 19.0717 21.1351 19.3259 21.2476C19.975 21.5353 20.4268 22.1565 20.5047 22.8688L22.5186 41.393L35.4495 48.9268L33.2412 28.1549C33.1861 27.7439 33.2495 27.3488 33.4221 26.9935C33.5947 26.6388 33.8654 26.3467 34.2043 26.1489C34.4991 25.9778 34.8373 25.8869 35.1811 25.8869C35.2164 25.8869 35.2519 25.8879 35.2873 25.8899C35.6703 25.911 36.0344 26.0423 36.3417 26.2696L53.0505 38.6177V23.6756L38.0029 12.4364C37.5718 12.1197 37.2807 11.6425 37.1999 11.1236C37.1177 10.5965 37.2439 10.069 37.5555 9.63799C37.862 9.21373 38.332 8.92374 38.8453 8.84252C38.9458 8.82664 39.0491 8.81862 39.1514 8.81862C39.5718 8.81862 39.9738 8.95059 40.314 9.20014L53.0509 18.6298V2.65678C53.0509 1.94908 53.4285 1.28968 54.0361 0.935668C54.3341 0.762427 54.6738 0.670731 55.0184 0.670731C55.3631 0.670731 55.7028 0.762427 56.0012 0.935995C56.6086 1.28968 56.9861 1.94908 56.9861 2.65678V18.59L69.716 9.32508C70.0628 9.06931 70.4663 8.93537 70.8866 8.93537C70.9885 8.93537 71.091 8.94339 71.1915 8.95944C71.7046 9.04049 72.1738 9.33048 72.479 9.75474C72.7901 10.1828 72.9212 10.7246 72.8405 11.2433C72.7595 11.7624 72.4719 12.2364 72.0511 12.5441L56.9861 23.6687V38.6932L73.7193 25.9318C74.004 25.7215 74.3724 25.5909 74.7478 25.5701C74.7846 25.568 74.8197 25.567 74.8549 25.567C75.1994 25.567 75.5388 25.6583 75.8369 25.8313C76.1723 26.0273 76.4417 26.3189 76.6142 26.6737C76.7873 27.0289 76.8507 27.4243 76.798 27.8176L74.5868 48.607L87.5193 41.0724L89.5321 22.3455C89.591 21.8315 89.849 21.3643 90.258 21.0347C90.6052 20.7541 91.0409 20.5998 91.485 20.5998C91.5549 20.5998 91.6252 20.6036 91.6945 20.6111C92.2203 20.6666 92.6915 20.9244 93.0227 21.3368C93.3542 21.7498 93.5062 22.2685 93.4506 22.7976L91.7645 38.738L105.566 30.6661C105.86 30.4958 106.2 30.4051 106.545 30.4051C106.893 30.4051 107.236 30.4983 107.538 30.6743C108.149 31.0319 108.528 31.6966 108.527 32.4093C108.525 33.1223 108.144 33.7853 107.532 34.1395L93.72 42.1632L108.16 48.5608C108.638 48.7739 109.007 49.1647 109.197 49.6607C109.387 50.1555 109.373 50.6966 109.16 51.1839C109.003 51.5438 108.753 51.8447 108.434 52.0571C108.116 52.2685 107.746 52.3816 107.365 52.3841C107.088 52.381 106.786 52.3214 106.505 52.2122L89.4865 44.6248L76.5533 52.1598L95.4656 60.5554C95.968 60.7717 96.3366 61.1457 96.5387 61.6402C96.7362 62.1254 96.7362 62.6611 96.538 63.1481C96.3395 63.6335 95.966 64.015 95.4867 64.2213L76.5533 72.6259L89.4865 80.1608L106.562 72.5493C106.814 72.4376 107.082 72.3806 107.358 72.3806C107.784 72.3806 108.19 72.5146 108.533 72.7681C109.105 73.1905 109.412 73.8949 109.334 74.6059C109.257 75.3176 108.807 75.9378 108.158 76.2253L93.72 82.6225L107.529 90.6453C108.143 91.0006 108.525 91.6644 108.527 92.378C108.528 93.09 108.149 93.7548 107.538 94.1117C107.237 94.2876 106.894 94.3806 106.546 94.3806C106.2 94.3806 105.858 94.2889 105.559 94.115L91.7645 86.048L93.4509 101.99C93.5062 102.518 93.3542 103.036 93.023 103.448C92.7107 103.838 92.2727 104.091 91.7856 104.163H91.5117C91.0064 104.163 90.5466 103.99 90.1812 103.662C89.8161 103.335 89.5858 102.885 89.5318 102.395L87.518 83.8725L74.5868 76.3387L76.7961 97.1099C76.8507 97.5215 76.7876 97.9161 76.6151 98.2698C76.442 98.6265 76.1717 98.9192 75.8326 99.1167C75.5502 99.2782 75.2186 99.365 74.8799 99.365H74.8464C74.4247 99.365 74.0229 99.2346 73.6845 98.988L56.9864 86.648V101.59L72.0342 112.83C72.5005 113.17 72.7975 113.683 72.8558 114.244C72.9144 114.805 72.7331 115.367 72.3576 115.785C71.9857 116.2 71.4547 116.438 70.901 116.438H70.8668C70.4536 116.438 70.0563 116.308 69.7172 116.061L56.9861 106.635V122.609C56.9861 123.316 56.6083 123.977 55.9999 124.331C55.7035 124.503 55.3638 124.595 55.0186 124.595ZM56.867 81.6911L72.2883 92.9554L70.2242 73.837L56.867 66.0621V81.6911ZM39.5754 73.8301L37.5106 92.9534L53.0507 81.6122V66.0837L39.5754 73.8301ZM58.9582 62.6333L72.3101 70.4046L89.796 62.6333L72.3101 54.8619L58.9582 62.6333ZM20.2402 62.6333L37.7263 70.4046L51.0783 62.6333L37.7263 54.8619L20.2402 62.6333ZM56.9861 43.6611V59.2042L70.3433 51.43L72.41 32.2816L56.9861 43.6611ZM39.6942 51.3504L53.0507 59.1243V43.575L37.6261 32.3083L39.6942 51.3504Z" fill="white"/>
</g>
<defs>
<clipPath id="clip0_313_4804">
<rect width="110.012" height="125.265" fill="white"/>
</clipPath>
</defs>
</svg>
