<svg width="59" height="59" viewBox="0 0 59 59" fill="none" xmlns="http://www.w3.org/2000/svg">
<g clip-path="url(#clip0_313_4087)">
<path d="M48.7114 19.5042C47.2978 19.5042 46.1121 20.4447 45.709 21.7297H36.9353C36.76 20.281 36.1935 18.961 35.3348 17.8627L41.5383 11.6592C41.9939 11.8988 42.4963 12.033 42.9986 12.033C43.8047 12.033 44.6166 11.7235 45.23 11.1101C45.8257 10.5144 46.153 9.71989 46.153 8.87869C46.153 8.03179 45.8259 7.24302 45.23 6.6473C43.9975 5.41478 41.9939 5.41478 40.7614 6.6473C39.7625 7.64617 39.5872 9.15323 40.2122 10.3449L34.0087 16.5367C32.9106 15.678 31.5963 15.1114 30.1417 14.9362V6.16257C31.4267 5.75946 32.3672 4.57368 32.3672 3.16013C32.3674 1.41932 30.948 -0.00012207 29.2072 -0.00012207C27.4664 -0.00012207 26.0469 1.41932 26.0469 3.16013C26.0469 4.57368 26.9874 5.75942 28.2724 6.16257V14.9421C26.8237 15.1174 25.5037 15.6781 24.4054 16.5426L18.2024 10.3332C18.4361 9.88353 18.5762 9.39277 18.5762 8.87289C18.5762 8.0317 18.2492 7.23723 17.6533 6.64151C16.4207 5.40899 14.4172 5.40899 13.1846 6.64151C11.9521 7.87403 11.9521 9.8776 13.1846 11.1102C13.798 11.7236 14.6099 12.0331 15.416 12.0331C15.9183 12.0331 16.4207 11.8987 16.8763 11.6593L23.0798 17.8628C22.2211 18.9609 21.6545 20.2752 21.4793 21.7298L12.7057 21.7294C12.3026 20.4444 11.1168 19.5039 9.70322 19.5039C7.96241 19.5039 6.54297 20.9234 6.54297 22.6642C6.54297 24.405 7.96241 25.8244 9.70322 25.8244C11.1168 25.8244 12.3025 24.884 12.7057 23.5989H21.4852C21.6605 25.0477 22.2212 26.3677 23.0856 27.4659L16.8763 33.6689C15.6847 33.0439 14.1835 33.2192 13.1846 34.2181C11.9521 35.4506 11.9521 37.4542 13.1846 38.6867C13.798 39.3002 14.6099 39.6097 15.416 39.6097C16.222 39.6097 17.0339 39.3002 17.6474 38.6867C18.2431 38.091 18.5703 37.2965 18.5703 36.4553C18.5703 35.9355 18.4302 35.439 18.1965 34.9891L24.4 28.7856C25.4865 29.6444 26.8008 30.2051 28.2378 30.3861C27.9398 46.5666 19.248 56.7597 19.1545 56.8648C18.8157 57.2562 18.8565 57.8462 19.2422 58.185C19.4175 58.3426 19.6394 58.4187 19.8556 58.4187C20.1184 58.4187 20.3755 58.3136 20.5624 58.0974C20.948 57.6593 29.815 47.2909 30.1071 30.392C31.5674 30.2225 32.8992 29.6559 34.0032 28.7915L40.2067 34.995C39.5817 36.1866 39.757 37.6878 40.7558 38.6926C41.3693 39.306 42.1812 39.6156 42.9872 39.6156C43.7933 39.6156 44.6052 39.306 45.2186 38.6926C45.8143 38.0969 46.1416 37.3024 46.1416 36.4612C46.1416 35.6143 45.8145 34.8255 45.2186 34.2298C44.2197 33.2309 42.7127 33.0557 41.521 33.6807L35.3292 27.4655C36.1879 26.3674 36.7545 25.0531 36.9297 23.5985H45.7092C46.1123 24.8835 47.2981 25.824 48.7116 25.824C50.4524 25.824 51.8719 24.4046 51.8719 22.6638C51.8719 20.9233 50.4524 19.5039 48.7116 19.5039L48.7114 19.5042ZM35.1537 22.6702C35.1478 25.9471 32.4842 28.6108 29.2072 28.6108C25.9302 28.6108 23.2666 25.9472 23.2607 22.6702V22.6643V22.6584C23.2666 19.3814 25.9302 16.7236 29.2014 16.7177H29.2073H29.2132C32.4843 16.7236 35.1479 19.3813 35.1538 22.6584V22.6643V22.67L35.1537 22.6702ZM42.0873 7.96171C42.3326 7.71642 42.654 7.58199 42.9985 7.58199C43.3431 7.58199 43.6644 7.71642 43.9097 7.96171C44.155 8.207 44.2895 8.52837 44.2895 8.87291C44.2895 9.21745 44.155 9.53882 43.9097 9.78411C43.4074 10.2865 42.5895 10.2865 42.0872 9.78411C41.585 9.28195 41.585 8.46411 42.0873 7.96171ZM29.2072 1.86921C29.9199 1.86921 30.4981 2.44746 30.4981 3.16015C30.4981 3.87284 29.9199 4.44533 29.2072 4.44533C28.4945 4.44533 27.9163 3.86709 27.9163 3.1544C27.9163 2.44171 28.4945 1.86921 29.2072 1.86921ZM14.5046 9.7842C14.0023 9.28185 14.0023 8.46402 14.5046 7.96166C14.7499 7.71637 15.0713 7.58194 15.4158 7.58194C15.7604 7.58194 16.0817 7.71637 16.327 7.96166C16.5723 8.20695 16.7067 8.52832 16.7067 8.87286C16.7067 9.2174 16.5723 9.53877 16.327 9.78406C15.8246 10.2866 15.007 10.2866 14.5046 9.7842ZM9.70299 23.9494C8.9903 23.9494 8.41206 23.3712 8.41206 22.6585C8.41206 21.9458 8.9903 21.3675 9.70299 21.3675C10.4157 21.3675 10.9939 21.9458 10.9939 22.6585C10.9939 23.3769 10.4157 23.9494 9.70299 23.9494ZM16.3271 37.3669C15.8247 37.8693 15.0069 37.8693 14.5045 37.3669C14.0022 36.8646 14.0022 36.0467 14.5045 35.5444C14.9894 35.0595 15.8422 35.0595 16.3271 35.5444C16.5723 35.7897 16.7068 36.111 16.7068 36.4556C16.7068 36.8003 16.5725 37.1217 16.3271 37.367V37.3669ZM43.9098 35.5444C44.1551 35.7897 44.2895 36.111 44.2895 36.4556C44.2895 36.8001 44.1551 37.1215 43.9098 37.3668C43.4074 37.8691 42.5896 37.8691 42.0872 37.3668C41.5849 36.8644 41.5849 36.0466 42.0872 35.5442C42.3325 35.2989 42.6539 35.1645 42.9984 35.1645C43.3432 35.1647 43.6645 35.2991 43.9098 35.5444L43.9098 35.5444ZM48.7114 23.9494C47.9987 23.9494 47.4205 23.3711 47.4205 22.6584C47.4205 21.9457 47.9987 21.3675 48.7114 21.3675C49.4241 21.3675 50.0023 21.9457 50.0023 22.6584C50.0023 23.3768 49.4241 23.9494 48.7114 23.9494Z" fill="#778495"/>
</g>
<defs>
<clipPath id="clip0_313_4087">
<rect width="58.4132" height="58.4132" fill="white"/>
</clipPath>
</defs>
</svg>
