<svg width="195" height="17" viewBox="0 0 195 17" fill="none" xmlns="http://www.w3.org/2000/svg">
<g clip-path="url(#clip0_1_567)">
<path d="M0.457418 13.0259C0.722348 13.2249 1.08042 13.4017 1.53163 13.5575C1.98283 13.7133 2.49407 13.7912 3.06429 13.7912C3.7411 13.7912 4.2782 13.6636 4.67663 13.4088C5.07403 13.1536 5.37621 12.7745 5.58216 12.2718C5.78706 11.769 5.92367 11.149 5.9899 10.4125C6.05613 9.676 6.08925 8.82567 6.08925 7.86262V0.191406H7.88063V7.86262C7.88063 9.00966 7.83096 10.055 7.73057 10.9965C7.63122 11.9391 7.41286 12.7431 7.07446 13.4088C6.73605 14.0746 6.25173 14.5918 5.62148 14.9598C4.99124 15.3283 4.13953 15.5123 3.06429 15.5123C1.87003 15.5123 0.848604 15.2007 0 14.5774L0.457418 13.0259Z" fill="#231F20"/>
<path d="M21.691 13.6636C22.5127 13.6636 23.1957 13.4934 23.7401 13.1536C24.2844 12.8138 24.7191 12.3712 25.044 11.8253C25.369 11.2805 25.5977 10.6567 25.7302 9.95558C25.8626 9.25443 25.9299 8.54222 25.9299 7.82008V0.191406H27.7202V7.82008C27.7202 8.84003 27.6105 9.80695 27.3922 10.7203C27.1728 11.6341 26.8251 12.4386 26.347 13.1326C25.8699 13.8265 25.2489 14.3752 24.4862 14.7791C23.7235 15.183 22.7983 15.3847 21.7107 15.3847C20.5827 15.3847 19.6337 15.1725 18.8648 14.7476C18.0948 14.3222 17.4749 13.7591 17.004 13.058C16.5332 12.3568 16.1948 11.5491 15.9888 10.6357C15.7829 9.72186 15.6804 8.78368 15.6804 7.82008V0.191406H17.4718V7.82008C17.4718 8.57096 17.5411 9.29697 17.6808 9.99812C17.8195 10.6993 18.0524 11.3192 18.3773 11.8574C18.7023 12.3961 19.1338 12.8315 19.6709 13.1641C20.208 13.4972 20.8807 13.6636 21.691 13.6636Z" fill="#231F20"/>
<path d="M37.472 3.76125V15.2786H35.6816V0.191406H37.0746L45.8307 11.9424V0.212402H47.6211V15.2786H46.1091L37.472 3.76125Z" fill="#231F20"/>
<path d="M65.3716 13.5785V15.2786H55.7803V0.191406H65.1925V1.89096H57.5706V6.77857H64.198V8.3726H57.5706V13.5785H65.3716Z" fill="#231F20"/>
<path d="M81.6304 15.2789C81.6304 14.2877 81.709 13.4302 81.8684 12.7075C82.0278 11.9853 82.2668 11.3549 82.5856 10.8162C82.9033 10.278 83.2986 9.81058 83.7695 9.41387C84.2403 9.01771 84.7868 8.65636 85.4108 8.33038C85.8486 8.10384 86.307 7.88062 86.7841 7.66072C87.2622 7.44137 87.6927 7.19328 88.0777 6.91702C88.4627 6.64076 88.7804 6.30814 89.0329 5.91806C89.2844 5.52909 89.4106 5.03624 89.4106 4.44172C89.4106 4.07319 89.3547 3.72621 89.2419 3.40022C89.1291 3.07423 88.9594 2.78747 88.7348 2.53939C88.5082 2.29186 88.2267 2.09682 87.8883 1.95538C87.5499 1.81393 87.1484 1.74265 86.6847 1.74265C86.2201 1.74265 85.7896 1.81006 85.3911 1.94433C84.9927 2.07914 84.6346 2.24932 84.3169 2.45486C83.9982 2.66039 83.7157 2.87975 83.4704 3.11346C83.2251 3.34718 83.0233 3.5704 82.864 3.78257L81.7297 2.57144C81.8353 2.42999 82.0247 2.21727 82.2968 1.93383C82.568 1.65094 82.9198 1.36362 83.3514 1.07355C83.7819 0.782924 84.29 0.531526 84.8737 0.318805C85.4574 0.106637 86.1207 0 86.8638 0C87.6068 0 88.2567 0.117135 88.8135 0.350852C89.3713 0.584568 89.8391 0.900059 90.2168 1.29622C90.5956 1.69348 90.8802 2.16091 91.0726 2.69907C91.2651 3.23778 91.3614 3.80411 91.3614 4.39918C91.3614 5.10751 91.2424 5.71308 91.0033 6.21587C90.7642 6.71867 90.4558 7.15461 90.0781 7.52259C89.6994 7.89112 89.2719 8.21324 88.7938 8.4895C88.3167 8.76576 87.8324 9.02434 87.3409 9.26524C86.6651 9.60504 86.1042 9.93103 85.6602 10.2427C85.2152 10.5543 84.8571 10.8769 84.585 11.2096C84.3128 11.5427 84.1244 11.9002 84.0178 12.2826C83.9113 12.6649 83.8585 13.0975 83.8585 13.5788H91.381V15.2789H81.6304Z" fill="#231F20"/>
<path d="M102.825 15.4701C102.214 15.4701 101.647 15.3922 101.122 15.2364C100.599 15.0805 100.131 14.8573 99.7202 14.5672C99.3083 14.2766 98.9668 13.9263 98.6946 13.5152C98.4224 13.1042 98.2403 12.6439 98.1482 12.1339L99.1427 11.0079C99.1696 11.3195 99.2752 11.6383 99.4615 11.9638C99.6467 12.2898 99.8951 12.5837 100.208 12.8456C100.519 13.108 100.894 13.3208 101.331 13.4832C101.769 13.6462 102.261 13.7274 102.804 13.7274C103.255 13.7274 103.68 13.6639 104.078 13.5362C104.477 13.4092 104.824 13.2318 105.123 13.0053C105.421 12.7787 105.653 12.5025 105.82 12.1765C105.985 11.8505 106.068 11.4897 106.068 11.0924C106.068 10.2145 105.677 9.53819 104.894 9.06357C104.111 8.58896 103.036 8.35137 101.67 8.35137H100.993V6.7579H101.67C102.903 6.7579 103.882 6.55236 104.606 6.14128C105.328 5.73076 105.69 5.10033 105.69 4.25C105.69 3.85384 105.611 3.49249 105.451 3.1665C105.292 2.84052 105.077 2.56812 104.805 2.34822C104.532 2.12887 104.221 1.95869 103.869 1.83824C103.517 1.71834 103.156 1.65757 102.784 1.65757C102.36 1.65757 101.965 1.71061 101.601 1.81725C101.235 1.92333 100.907 2.06864 100.615 2.25263C100.324 2.43718 100.075 2.65321 99.8692 2.90074C99.6633 3.14882 99.5008 3.4074 99.3818 3.67648L98.2072 2.38027C98.4069 2.01173 98.6687 1.67911 98.9937 1.38131C99.3186 1.08405 99.6798 0.832651 100.078 0.627113C100.476 0.422127 100.904 0.265763 101.362 0.159679C101.819 0.0535947 102.287 0 102.765 0C103.454 0 104.092 0.106637 104.675 0.318805C105.259 0.531526 105.763 0.825468 106.187 1.20063C106.611 1.57635 106.944 2.0156 107.183 2.5184C107.422 3.02119 107.541 3.5704 107.541 4.16546C107.541 5.02961 107.302 5.74126 106.825 6.30096C106.347 6.86067 105.67 7.25351 104.794 7.48004C105.259 7.56513 105.68 7.72813 106.058 7.96903C106.437 8.20993 106.762 8.5 107.034 8.84035C107.305 9.18016 107.514 9.5625 107.66 9.98794C107.806 10.4128 107.879 10.8587 107.879 11.3262C107.879 11.9925 107.739 12.5804 107.461 13.0904C107.183 13.6003 106.811 14.0324 106.347 14.3866C105.882 14.7407 105.345 15.0098 104.735 15.1938C104.125 15.3778 103.487 15.4701 102.825 15.4701Z" fill="#231F20"/>
<path d="M115.123 17.0002L115.521 15.109H114.924V12.8994H116.576V15.109L115.978 17.0002H115.123Z" fill="#231F20"/>
<path d="M133.352 15.2789C133.352 14.2877 133.43 13.4302 133.59 12.7075C133.749 11.9853 133.988 11.3549 134.307 10.8162C134.625 10.278 135.02 9.81058 135.491 9.41387C135.962 9.01771 136.508 8.65636 137.132 8.33038C137.57 8.10384 138.028 7.88062 138.506 7.66072C138.984 7.44137 139.414 7.19328 139.799 6.91702C140.184 6.64076 140.502 6.30814 140.754 5.91806C141.006 5.52909 141.132 5.03624 141.132 4.44172C141.132 4.07319 141.076 3.72621 140.963 3.40022C140.851 3.07423 140.681 2.78747 140.456 2.53939C140.23 2.29186 139.948 2.09682 139.61 1.95538C139.271 1.81393 138.87 1.74265 138.406 1.74265C137.942 1.74265 137.511 1.81006 137.113 1.94433C136.714 2.07914 136.356 2.24932 136.038 2.45486C135.72 2.66039 135.437 2.87975 135.192 3.11346C134.947 3.34718 134.745 3.5704 134.585 3.78257L133.451 2.57144C133.557 2.42999 133.746 2.21727 134.018 1.93383C134.289 1.65094 134.641 1.36362 135.073 1.07355C135.503 0.782924 136.011 0.531526 136.595 0.318805C137.179 0.106637 137.842 0 138.585 0C139.328 0 139.978 0.117135 140.535 0.350852C141.093 0.584568 141.56 0.900059 141.938 1.29622C142.317 1.69348 142.602 2.16091 142.794 2.69907C142.987 3.23778 143.083 3.80411 143.083 4.39918C143.083 5.10751 142.964 5.71308 142.725 6.21587C142.486 6.71867 142.177 7.15461 141.8 7.52259C141.421 7.89112 140.993 8.21324 140.515 8.4895C140.038 8.76576 139.554 9.02434 139.062 9.26524C138.387 9.60504 137.826 9.93103 137.382 10.2427C136.937 10.5543 136.579 10.8769 136.306 11.2096C136.034 11.5427 135.846 11.9002 135.739 12.2826C135.633 12.6649 135.58 13.0975 135.58 13.5788H143.102V15.2789H133.352Z" fill="#231F20"/>
<path d="M155.818 15.4913C154.836 15.4769 153.977 15.2288 153.241 14.7476C152.504 14.2658 151.888 13.6531 151.391 12.9094C150.893 12.1657 150.518 11.3474 150.266 10.4551C150.013 9.56218 149.888 8.69085 149.888 7.84107C149.888 6.93494 150.024 6.02438 150.296 5.11051C150.568 4.19664 150.962 3.37559 151.48 2.64571C151.997 1.91583 152.621 1.32463 153.351 0.871008C154.08 0.41794 154.903 0.191406 155.818 0.191406C156.8 0.191406 157.659 0.435621 158.395 0.92405C159.132 1.41303 159.749 2.03296 160.246 2.78384C160.744 3.53472 161.119 4.35963 161.37 5.25914C161.623 6.1592 161.749 7.01947 161.749 7.84107C161.749 8.76213 161.612 9.676 161.34 10.5821C161.069 11.4894 160.674 12.3038 160.156 13.0259C159.639 13.7486 159.016 14.3365 158.286 14.7896C157.557 15.2432 156.734 15.4769 155.818 15.4913ZM151.699 7.84107C151.712 8.53559 151.808 9.23288 151.988 9.93403C152.167 10.6357 152.429 11.2695 152.773 11.8364C153.118 12.4027 153.542 12.8668 154.047 13.2282C154.551 13.589 155.141 13.7696 155.818 13.7696C156.522 13.7696 157.131 13.5785 157.649 13.1961C158.166 12.8138 158.595 12.332 158.933 11.7513C159.271 11.1706 159.523 10.5291 159.689 9.82794C159.855 9.12679 159.938 8.46487 159.938 7.84107C159.938 7.14711 159.845 6.44927 159.66 5.74812C159.473 5.04697 159.208 4.41267 158.863 3.84634C158.518 3.27945 158.087 2.81533 157.569 2.45454C157.052 2.09319 156.468 1.91251 155.818 1.91251C155.115 1.91251 154.505 2.10368 153.987 2.48603C153.47 2.86838 153.043 3.35404 152.704 3.94193C152.366 4.52981 152.113 5.17074 151.948 5.8647C151.782 6.55922 151.699 7.21783 151.699 7.84107Z" fill="#231F20"/>
<path d="M168.376 15.2789C168.376 14.2877 168.455 13.4302 168.614 12.7075C168.774 11.9853 169.013 11.3549 169.332 10.8162C169.649 10.278 170.045 9.81058 170.516 9.41387C170.986 9.01771 171.533 8.65636 172.157 8.33038C172.595 8.10384 173.053 7.88062 173.53 7.66072C174.008 7.44137 174.439 7.19328 174.824 6.91702C175.209 6.64076 175.526 6.30814 175.779 5.91806C176.03 5.52909 176.157 5.03624 176.157 4.44172C176.157 4.07319 176.101 3.72621 175.988 3.40022C175.875 3.07423 175.706 2.78747 175.481 2.53939C175.254 2.29186 174.973 2.09682 174.634 1.95538C174.296 1.81393 173.894 1.74265 173.431 1.74265C172.966 1.74265 172.536 1.81006 172.137 1.94433C171.739 2.07914 171.381 2.24932 171.063 2.45486C170.744 2.66039 170.462 2.87975 170.216 3.11346C169.971 3.34718 169.769 3.5704 169.61 3.78257L168.476 2.57144C168.581 2.42999 168.771 2.21727 169.043 1.93383C169.314 1.65094 169.666 1.36362 170.097 1.07355C170.528 0.782924 171.036 0.531526 171.62 0.318805C172.203 0.106637 172.867 0 173.61 0C174.353 0 175.003 0.117135 175.56 0.350852C176.117 0.584568 176.585 0.900059 176.963 1.29622C177.342 1.69348 177.626 2.16091 177.819 2.69907C178.011 3.23778 178.107 3.80411 178.107 4.39918C178.107 5.10751 177.988 5.71308 177.749 6.21587C177.51 6.71867 177.202 7.15461 176.824 7.52259C176.445 7.89112 176.018 8.21324 175.54 8.4895C175.063 8.76576 174.579 9.02434 174.087 9.26524C173.411 9.60504 172.85 9.93103 172.406 10.2427C171.961 10.5543 171.603 10.8769 171.331 11.2096C171.059 11.5427 170.871 11.9002 170.764 12.2826C170.657 12.6649 170.605 13.0975 170.605 13.5788H178.127V15.2789H168.376Z" fill="#231F20"/>
<path d="M189.669 5.65253C190.319 5.65253 190.926 5.76912 191.49 6.00283C192.054 6.23655 192.541 6.56585 192.953 6.9913C193.364 7.41618 193.689 7.92285 193.928 8.51073C194.167 9.09861 194.286 9.74672 194.286 10.4551C194.286 11.2059 194.156 11.8894 193.898 12.5055C193.639 13.1215 193.287 13.6531 192.843 14.0989C192.398 14.5454 191.871 14.889 191.261 15.1299C190.65 15.3703 189.994 15.4913 189.29 15.4913C188.282 15.4913 187.377 15.236 186.574 14.7261C185.772 14.2161 185.158 13.5293 184.734 12.6646L185.828 11.6446C186.199 12.311 186.694 12.8386 187.311 13.2282C187.928 13.6177 188.594 13.8122 189.311 13.8122C189.761 13.8122 190.183 13.731 190.575 13.568C190.966 13.4055 191.304 13.1784 191.589 12.8878C191.875 12.5977 192.097 12.2502 192.256 11.8469C192.415 11.443 192.494 10.9932 192.494 10.4976C192.494 10.0296 192.415 9.59809 192.256 9.20138C192.097 8.80467 191.881 8.461 191.61 8.17038C191.337 7.8803 191.016 7.65708 190.644 7.50127C190.273 7.34546 189.874 7.26756 189.45 7.26756C188.893 7.26756 188.362 7.40237 187.858 7.6709C187.353 7.94053 186.95 8.32287 186.644 8.81849H185.052C185.065 8.74776 185.098 8.56709 185.152 8.27701C185.205 7.98639 185.271 7.63222 185.351 7.21451C185.43 6.79681 185.516 6.33214 185.609 5.82216C185.702 5.31218 185.795 4.79557 185.888 4.27123C186.113 3.05292 186.366 1.69316 186.644 0.191406H193.51V1.91251H187.938L187.082 6.71503C187.679 6.0067 188.541 5.65253 189.669 5.65253Z" fill="#231F20"/>
</g>
<defs>
<clipPath id="clip0_1_567">
<rect width="194.286" height="17" fill="white"/>
</clipPath>
</defs>
</svg>
