<svg width="544" height="192" viewBox="0 0 544 192" fill="none" xmlns="http://www.w3.org/2000/svg">
<g clip-path="url(#clip0_1_167)">
<path d="M305.151 56.2589C304.161 58.8341 304.359 61.8055 305.349 62.9941C307.328 62.9941 312.275 60.8151 314.65 57.6456C317.024 54.6742 315.837 52.4951 313.066 52.4951C309.307 52.4951 306.338 53.2875 305.151 56.2589Z" fill="#231F20"/>
<path d="M535.491 0C529.356 0 520.846 3.76379 513.92 8.51805C496.11 20.4037 476.519 39.2226 463.853 54.4759C459.896 59.032 455.938 64.1825 451.782 69.1348C448.418 70.1253 443.668 70.3234 440.106 69.9272C431.993 68.9368 426.056 64.1825 425.66 58.4378C425.264 54.0797 427.639 50.9102 428.826 49.7216C429.618 48.9292 429.618 48.7312 429.42 48.5331C429.222 48.335 428.629 48.7312 428.233 49.1273C427.045 50.1178 423.879 53.4854 423.879 58.834C423.879 65.173 428.431 71.7101 439.711 72.3044C443.668 72.7005 448.022 72.1063 450.199 71.3139C450.199 71.3139 443.668 79.4357 440.7 83.3976C436.485 86.883 429.729 92.743 428.123 94.2207C428.095 94.2448 428.066 94.2687 428.038 94.2928C425.861 96.2737 422.694 99.0471 418.539 102.415C415.372 104.99 411.612 107.565 409.634 108.556C408.05 109.348 406.071 110.14 405.082 109.348C404.29 108.754 404.29 107.169 405.676 104.792C407.457 101.622 410.029 98.2547 412.602 95.0852C416.758 89.9347 421.111 84.9824 423.684 82.011C425.663 79.6338 425.267 78.6434 421.111 78.8415C417.945 78.8415 414.581 81.4167 409.831 86.369C411.019 83.0014 409.633 79.4357 405.676 78.8415C400.53 78.0491 393.604 80.4262 385.886 84.3881C382.126 86.369 378.762 88.5481 376.783 89.9347C375.454 90.8663 373.502 92.4217 372.182 93.5238C371.914 93.7237 371.606 93.9758 371.244 94.2928C369.067 96.2737 365.11 99.8394 361.745 102.415C357.392 105.782 354.621 107.367 352.247 108.556C350.663 109.348 348.487 110.14 347.497 109.348C346.706 108.754 346.706 107.565 348.289 104.99C349.278 103.405 351.653 100.038 354.819 96.2737C357.985 92.3119 362.141 87.7557 362.735 84.19C363.131 80.8224 360.756 78.8415 356.6 78.8415C350.663 78.8415 341.956 84.3881 335.03 89.5385C328.104 94.689 321.573 100.434 316.824 104.396L316.626 104.197C318.803 101.028 322.958 95.6795 325.927 91.7176C328.499 88.1519 330.083 85.5767 330.083 83.1995C330.083 81.0205 328.895 78.8415 325.135 78.8415C320.979 78.8415 317.022 81.2186 311.679 85.3786C308.116 88.1519 303.763 92.3119 301.388 94.4909C300.7 95.1225 300.132 95.6516 299.676 96.1029C297.351 98.2512 295.536 99.8198 292.09 102.613C288.726 105.386 285.361 107.565 283.383 108.556C281.404 109.546 279.623 109.942 278.633 109.15C277.842 108.357 278.039 106.971 279.227 104.792C280.414 102.811 282.789 99.2452 286.153 95.0852C290.111 90.1328 293.277 86.369 296.839 82.4072C299.214 79.8319 298.818 79.2376 294.662 79.2376C290.902 79.2376 288.33 80.03 283.185 83.5957C279.238 86.2297 273.653 90.777 270.629 93.3761C270.289 93.6449 269.922 93.9683 269.533 94.2928C267.356 96.2737 264.19 99.0471 260.034 102.415C256.867 104.99 253.107 107.565 251.129 108.556C249.545 109.348 247.566 110.14 246.577 109.348C245.785 108.754 245.785 107.169 247.171 104.792C248.952 101.622 257.461 89.9347 263.596 82.011C275.074 67.352 281.802 59.2301 288.333 51.7026C295.655 43.1845 305.549 32.2893 310.892 27.1389C310.694 26.3465 309.903 25.7522 307.924 25.7522C305.153 25.7522 302.779 26.9408 300.602 29.1198C292.093 37.0436 283.979 45.5616 277.053 53.6835C266.96 65.3711 257.857 76.6624 251.722 85.5767H251.524C252.316 82.6052 250.931 79.4357 247.171 78.8415C241.63 78.0491 234.308 80.8224 227.381 84.3881C223.424 86.369 220.257 88.5481 218.278 89.9347C216.299 91.3214 213.331 93.6985 212.737 94.2928C212.408 94.5929 212.099 94.8825 211.809 95.1624C208.157 98.3879 203.855 101.743 200.271 104.197C191.563 110.14 184.835 111.527 182.262 111.527C179.294 111.527 177.711 109.942 177.711 106.971C177.711 105.782 178.107 103.999 178.898 102.415C183.45 101.226 190.178 98.849 195.917 96.0756C201.854 93.1042 208.186 89.1423 208.582 83.9919C208.78 81.4167 207.197 78.6434 202.645 78.6434C197.302 78.6434 191.366 81.2186 185.627 84.19C181.867 86.1709 178.107 88.5481 175.93 90.1328C172.962 92.3119 171.18 93.6985 168.608 96.0756C168.554 96.1294 168.501 96.1831 168.447 96.2368C166.411 98.042 163.815 100.273 160.893 102.613C154.56 107.763 149.019 110.735 145.853 110.735C144.27 110.735 143.28 109.744 143.28 108.159C143.478 100.83 154.164 86.7652 164.455 73.8891C173.756 62.2015 188.004 46.7502 197.503 36.8455C202.054 32.2893 203.835 29.516 205.023 26.9408C206.012 24.7618 205.814 21.5923 204.429 21.9884C203.439 22.3846 204.825 23.5732 202.252 26.7427C199.877 29.9122 195.722 33.0817 188.993 35.855C182.067 38.6284 174.151 39.4207 168.61 39.4207C164.85 39.4207 159.112 39.2226 154.164 38.4303L156.935 35.2608C159.705 32.0912 160.101 30.5065 157.133 30.1103C155.154 29.9122 152.581 32.0912 150.8 33.676L147.04 37.2417C138.135 35.855 122.897 32.6855 106.472 32.0912C75.6008 30.9027 57.5925 42.9864 55.6136 61.4092C54.6241 71.9082 60.5609 82.011 72.0387 85.3786C74.2155 85.9728 75.6008 85.7747 75.7987 85.1805C75.9966 84.5862 75.0071 84.7843 73.4239 84.19C60.7588 79.8319 58.3841 69.9272 59.9672 62.0035C63.7272 44.175 84.5059 36.0531 106.076 36.0531C123.293 36.0531 135.76 37.4398 145.259 39.2226C125.668 57.4473 108.253 75.2758 90.0469 88.5481C69.2682 103.999 42.5527 116.281 25.5339 116.281C15.6393 116.281 10.494 113.31 11.2856 109.348C11.6814 107.169 13.2645 105.98 15.0456 104.396C17.0245 102.613 19.0034 100.83 19.3992 97.6604C19.795 93.6985 16.4308 90.9252 11.8793 90.9252C4.75516 90.9252 -0.192163 97.8585 0.00572973 104.396C0.599408 115.687 12.473 118.658 23.555 118.658C44.1358 118.658 71.445 105.188 91.0364 90.529C108.649 77.6529 134.375 52.0988 141.697 44.9674L141.895 45.1655C131.209 58.4378 111.419 91.5195 99.9416 107.565C98.7542 109.15 97.7648 111.725 99.3479 112.914C101.129 114.3 102.118 112.517 104.493 110.338C115.773 99.6413 127.251 89.3404 142.291 76.2662C155.352 64.9749 168.808 53.8816 182.067 43.9769L182.265 44.175C172.172 52.693 157.33 68.7387 149.415 79.0396C140.905 89.9347 134.573 99.2452 134.771 106.377C134.969 112.121 138.729 113.904 143.676 113.706C149.217 113.508 155.945 108.952 159.903 105.782C164.85 101.82 168.412 98.6509 170.985 96.2737C171.127 96.1315 171.261 95.997 171.39 95.8669L173.357 94.0947L173.555 94.2928C169.597 99.0471 167.816 102.613 167.618 106.575C167.42 111.725 170.785 114.498 178.107 114.498C184.835 114.498 192.157 111.923 200.469 106.377C204.031 103.999 210.363 98.849 212.936 96.4718C213.231 96.1768 213.501 95.9063 213.735 95.6571L213.925 95.4814L214.123 95.6795C210.561 99.8394 208.977 103.009 208.582 105.98C207.79 112.319 212.342 114.102 216.695 113.904C224.215 113.508 233.318 106.971 238.463 102.415L238.661 102.613C236.88 104.792 235.693 107.565 235.891 109.744C236.089 112.121 237.87 113.904 241.63 113.904C248.16 113.904 254.691 109.15 258.648 105.98C262.409 103.009 267.158 98.849 269.731 96.4718C270.028 96.2012 270.301 95.9506 270.553 95.7154C272.369 94.1125 274.391 92.4603 277.05 90.3309C280.018 87.9538 284.174 84.9824 285.559 84.3881C282.393 87.1614 274.675 95.2833 270.717 101.424C269.134 103.801 267.749 106.377 267.749 108.952C267.749 112.121 269.53 114.102 273.686 114.102C280.216 114.102 286.945 109.15 290.902 105.98C294.635 102.991 299.245 98.9471 301.75 96.5023C301.762 96.4918 301.772 96.4824 301.784 96.4718L310.293 88.9443C312.668 86.9633 315.636 84.7843 318.011 83.5957C319.198 83.0014 320.386 82.6052 320.979 83.3976C321.375 83.9919 320.979 84.9824 319.594 86.7652L311.679 97.0661C308.512 101.226 304.356 107.763 302.971 110.338C301.388 113.112 302.773 113.508 305.544 113.508C307.721 113.508 308.908 113.112 310.689 111.725C319.396 104.99 324.146 100.434 332.853 93.6985C339.186 88.7462 344.727 85.3786 348.289 83.5957C350.268 82.6052 352.444 81.8129 353.434 82.4072C354.423 83.0014 354.028 84.19 353.236 85.1805L344.924 94.8871C341.165 99.4432 336.811 104.396 336.613 108.754C336.415 112.121 338.79 113.904 342.55 113.904C348.684 113.904 356.402 108.952 360.36 105.98C364.516 102.811 370.453 97.4623 372.234 95.6795C372.301 95.6116 372.366 95.5464 372.43 95.4814L372.628 95.6795C369.065 99.8394 367.482 103.009 367.087 105.98C366.295 112.319 370.847 114.102 375.2 113.904C382.72 113.508 391.823 106.971 396.968 102.415L397.166 102.613C395.385 104.792 394.198 107.565 394.396 109.744C394.594 112.121 396.375 113.904 400.135 113.904C406.665 113.904 413.196 109.15 417.153 105.98C420.913 103.009 425.663 98.849 428.235 96.4718C428.997 95.7788 429.609 95.2093 430.063 94.7333C431.96 93.0056 434.04 91.117 436.544 88.9443V89.1423C434.169 92.1138 432.191 94.689 430.607 97.0661C427.243 102.018 424.473 106.575 422.494 110.338C421.109 113.112 422.296 113.508 425.066 113.508C427.243 113.508 428.431 113.112 430.212 111.725C438.919 104.99 443.668 100.434 452.376 93.6985C458.708 88.7462 464.249 85.3786 467.811 83.5957C469.79 82.6052 471.967 81.8129 472.956 82.4072C473.946 83.0014 473.55 84.19 472.759 85.1805C470.384 87.9538 467.415 91.3214 464.447 94.8871C461.083 99.0471 457.323 104.396 457.917 109.348C458.51 114.102 461.874 116.083 467.218 116.479C476.123 117.074 483.643 114.3 489.184 111.131C495.12 107.763 502.442 101.226 506.4 93.8966C508.379 90.1328 509.369 86.1709 509.567 82.8033C509.567 81.8129 509.369 80.03 508.775 80.03C508.379 80.03 508.775 80.8224 508.379 82.8033C507.983 85.7747 506.4 89.7366 504.421 93.1042C500.068 100.434 492.944 106.178 488.194 108.952C482.455 112.121 476.716 114.102 471.373 113.706C469.79 113.508 468.405 112.914 467.613 111.527C467.02 110.338 467.02 108.952 467.613 106.971C468.603 103.801 471.373 100.038 474.342 96.2737C477.508 92.3119 481.664 87.7557 482.257 84.19C482.653 80.8224 480.279 78.8415 476.123 78.8415C470.186 78.8415 461.479 84.3881 454.552 89.5385C447.626 94.689 441.096 100.434 436.346 104.396L436.148 104.197C440.898 97.2642 452.771 79.2376 460.885 69.531C478.497 62.5977 496.11 53.6835 510.16 43.5807C531.731 28.3275 544 16.4418 544 7.52758C544 2.97141 540.636 0 535.491 0ZM190.574 86.9633C194.532 83.1995 197.5 81.2186 199.281 81.2186C201.062 81.2186 201.854 82.2091 201.656 83.9919C201.458 86.7652 198.49 90.9252 193.542 94.2928C189.387 97.0661 184.043 99.2451 180.086 100.236C182.46 96.2737 187.408 89.9347 190.574 86.9633ZM156.341 61.8054C142.686 72.8986 126.855 86.7652 119.137 93.6985C128.834 80.8224 143.082 54.2778 152.779 40.4112C157.726 41.0055 163.465 41.4017 168.017 41.4017C173.953 41.2036 181.276 40.4112 187.014 38.2322V38.4303C176.724 45.5616 167.225 52.8911 156.341 61.8054ZM236.287 101.622C230.943 106.575 223.424 110.933 219.664 110.933C218.278 110.933 217.289 110.338 217.091 108.952C216.695 106.377 220.059 101.226 228.173 93.3023C235.297 86.1709 242.421 80.8224 246.379 80.8224C248.556 80.8224 250.139 81.8129 249.941 84.3881C249.743 87.5576 242.619 96.0756 236.287 101.622ZM394.792 101.622C389.448 106.575 381.929 110.933 378.169 110.933C376.783 110.933 375.794 110.338 375.596 108.952C375.2 106.377 378.564 101.226 386.678 93.3023C393.802 86.1709 400.926 80.8224 404.884 80.8224C407.061 80.8224 408.644 81.8129 408.446 84.3881C408.248 87.5576 401.124 96.0756 394.792 101.622ZM515.701 35.855C497.891 50.3159 478.102 60.6168 462.666 66.5596C471.373 56.0606 479.487 46.354 487.798 37.0436C498.485 25.158 510.754 14.2628 518.67 8.51805C525.2 3.76379 530.543 2.17904 534.501 2.57522C536.282 2.77332 537.865 3.96188 537.865 6.53711C537.865 12.678 533.116 21.5923 515.701 35.855Z" fill="#231F20"/>
<path d="M56.5953 179.176C56.2011 179.176 56.0697 179.438 55.9383 180.162C55.7412 181.346 54.8872 184.24 53.5073 185.686C50.8795 188.383 47.0032 188.975 42.0755 188.975C28.0157 188.975 18.3576 177.465 18.3576 164.904C18.3576 158.196 19.4746 152.342 24.2706 147.739C26.5701 145.503 30.6436 142.938 39.3818 142.938C45.1634 142.938 50.2224 144.713 52.5219 146.686C54.2301 148.133 55.2814 150.83 55.2814 153.395C55.2814 154.315 55.3471 154.776 55.8069 154.776C56.2011 154.776 56.3325 154.381 56.3982 153.395C56.4639 152.408 56.4639 148.791 56.5953 146.621C56.7268 144.253 56.9239 143.464 56.9239 142.938C56.9239 142.543 56.7925 142.28 56.3325 142.214C53.9016 141.885 51.8649 141.688 49.3682 141.228C46.149 140.636 42.4698 140.438 39.8417 140.438C29.7239 140.438 23.7451 143.529 19.8029 147.476C13.9556 153.329 12.4446 161.024 12.4446 165.43C12.4446 171.678 14.0213 179.176 20.3943 184.897C25.5847 189.567 32.2205 192 42.0755 192C46.2804 192 51.2737 191.54 53.9016 190.487C55.0843 189.961 55.2157 189.83 55.6097 188.58C56.2668 186.344 57.0553 180.622 57.0553 180.162C57.0553 179.636 56.9239 179.176 56.5953 179.176Z" fill="#231F20"/>
<path d="M87.7368 148.002C71.5088 148.002 64.7416 161.09 64.7416 169.837C64.7416 179.833 71.3117 191.803 87.4084 191.803C101.403 191.803 110.666 181.543 110.666 168.982C110.666 155.763 100.746 148.002 87.7368 148.002ZM89.0509 189.567C78.0131 189.567 70.8517 181.017 70.8517 168.127C70.8517 155.697 78.2103 150.041 87.3427 150.041C96.3435 150.041 104.49 157.407 104.49 170.626C104.49 187.331 93.4528 189.567 89.0509 189.567Z" fill="#231F20"/>
<path d="M160.532 148.791C158.693 148.791 155.868 148.988 155.539 148.988C155.276 148.988 151.991 148.791 149.166 148.791C148.575 148.791 148.246 148.923 148.246 149.317C148.246 149.515 148.509 149.712 148.903 149.712C149.495 149.712 150.283 149.778 150.743 149.843C152.845 150.172 153.042 151.159 153.174 153.066C153.305 154.842 153.305 156.354 153.305 164.97V171.941C153.305 177.663 152.714 182.661 150.086 185.686C147.589 188.58 144.501 189.501 141.085 189.501C138.391 189.501 135.238 188.975 132.412 186.476C129.916 184.24 128.405 180.82 128.405 172.796V164.97C128.405 156.288 128.405 154.776 128.47 153C128.602 151.159 128.865 150.041 130.441 149.843C130.967 149.778 131.493 149.712 131.887 149.712C132.215 149.712 132.675 149.58 132.675 149.251C132.675 148.923 132.478 148.791 131.756 148.791C129.982 148.791 126.105 148.988 125.58 148.988C125.12 148.988 121.572 148.791 118.747 148.791C118.024 148.791 117.761 148.923 117.761 149.317C117.761 149.515 118.024 149.712 118.484 149.712C119.01 149.712 119.798 149.778 120.192 149.843C122.229 150.106 122.557 151.224 122.623 153C122.82 154.776 122.82 156.288 122.82 164.97V173.125C122.82 181.28 124.857 185.226 127.682 187.857C131.953 191.803 138.129 191.803 139.968 191.803C143.516 191.803 147.721 191.474 151.991 187.857C156.656 183.845 157.313 176.742 157.313 170.823V164.97C157.313 156.354 157.313 154.842 157.379 153.066C157.51 151.159 157.773 149.975 159.612 149.778C160.27 149.712 160.401 149.712 160.795 149.712C161.189 149.712 161.452 149.515 161.452 149.251C161.452 148.923 161.189 148.791 160.532 148.791Z" fill="#231F20"/>
<path d="M213.683 148.791C211.121 148.791 209.084 148.989 208.427 148.989C207.836 148.989 205.076 148.791 202.251 148.791C201.594 148.791 201.069 148.857 201.069 149.186C201.069 149.449 201.2 149.712 201.857 149.712C202.317 149.712 203.302 149.778 204.419 149.975C206.193 150.435 206.588 151.619 206.653 155.171L207.376 182.53C205.668 180.952 199.098 174.177 193.973 169.179C184.775 159.774 175.643 150.435 175.051 149.778C174.591 149.317 173.474 148.002 173.015 148.002C172.489 148.002 172.292 148.66 172.292 150.698C172.358 161.616 172.292 151.488 172.292 182.859C172.292 187.66 171.963 189.436 170.518 189.896C169.664 190.159 168.941 190.159 168.481 190.159C167.824 190.159 167.561 190.356 167.561 190.619C167.561 191.014 167.956 191.08 168.547 191.08C171.372 191.08 173.803 190.882 174.263 190.882C174.723 190.882 177.088 191.08 180.636 191.08C181.359 191.08 181.687 190.948 181.687 190.619C181.687 190.356 181.424 190.159 180.899 190.159C180.373 190.159 179.256 190.159 178.205 189.896C176.562 189.501 176.168 187.791 176.037 183.253L175.183 157.538C176.825 159.248 183.395 166.088 190.228 173.191C195.944 178.781 205.076 187.857 205.339 187.989C208.559 191.014 209.215 191.474 209.675 191.474C210.135 191.474 210.267 191.145 210.267 187.857L210.398 154.842C210.398 150.896 210.858 150.238 212.369 149.909C213.092 149.778 213.617 149.778 214.012 149.712C214.406 149.646 214.603 149.449 214.603 149.186C214.603 148.857 214.406 148.791 213.683 148.791Z" fill="#231F20"/>
<path d="M256.913 148.396C256.716 148.396 256.519 148.462 255.665 148.659C254.745 148.856 252.774 148.988 250.935 148.988H229.385C229.319 148.988 227.48 148.922 225.18 148.659C223.998 148.528 222.749 147.936 222.289 147.936C222.092 147.936 221.895 148.199 221.698 148.988C221.304 150.764 220.318 155.104 220.384 155.499C220.384 155.828 220.45 156.091 220.712 156.091C220.975 156.091 221.107 156.025 221.304 155.565C221.435 155.236 221.698 154.447 222.289 153.526C223.209 152.145 224.129 151.487 228.334 151.421C230.962 151.356 234.444 151.356 236.612 151.356V174.835C236.612 179.767 236.612 184.502 236.349 186.87C236.086 189.106 235.889 189.895 234.641 190.092C234.115 190.158 233.721 190.158 233.196 190.158C232.67 190.158 232.473 190.421 232.473 190.619C232.473 190.947 232.736 191.079 233.458 191.079C235.167 191.079 239.043 190.882 239.306 190.882C239.568 190.882 243.445 191.079 246.796 191.079C247.452 191.079 247.65 190.882 247.65 190.553C247.65 190.356 247.387 190.158 246.861 190.158C246.336 190.158 245.087 190.092 244.299 189.895C242.656 189.501 242.525 188.58 242.328 187.001C242.065 184.568 241.999 179.899 241.999 174.835V151.356C243.905 151.356 245.941 151.421 248.438 151.421C255.074 151.487 255.928 152.145 256.191 154.775C256.256 155.433 256.256 155.499 256.256 155.696C256.256 156.222 256.388 156.485 256.716 156.485C256.913 156.485 257.176 156.288 257.176 155.696C257.176 155.17 257.308 150.829 257.308 148.988C257.308 148.725 257.176 148.396 256.913 148.396Z" fill="#231F20"/>
<path d="M307.569 190.159C307.372 190.159 305.992 190.093 305.532 190.027C303.692 189.764 301.722 189.238 298.568 186.015C295.217 182.53 291.275 177.663 286.479 171.744C291.669 167.535 293.443 162.931 293.443 159.314C293.443 154.842 290.749 152.211 289.501 151.29C286.413 149.12 282.405 148.791 278.726 148.791C276.887 148.791 272.419 148.988 271.828 148.988C271.696 148.988 267.689 148.791 264.864 148.791C264.272 148.791 264.075 148.988 264.075 149.251C264.075 149.515 264.338 149.646 264.798 149.646C265.323 149.646 265.98 149.712 266.375 149.778C268.411 150.172 268.871 151.159 269.003 152.934C269.134 154.71 269.134 156.288 269.134 164.97V174.835C269.134 179.767 269.2 185.16 268.871 187.528C268.674 189.106 268.28 189.83 267.163 190.027C266.637 190.159 266.177 190.159 265.717 190.159C265.323 190.159 264.929 190.356 264.929 190.553C264.929 190.948 265.192 191.079 265.849 191.079C267.623 191.079 270.514 190.882 271.565 190.882C271.828 190.882 275.507 191.079 278.923 191.079C279.58 191.079 279.843 190.882 279.843 190.553C279.843 190.356 279.58 190.159 278.989 190.159C278.463 190.159 277.741 190.093 277.084 190.027C274.916 189.764 274.719 188.449 274.521 186.87C274.193 184.503 274.193 179.702 274.193 174.44V173.519C274.193 173.256 274.259 173.191 274.521 173.191L281.289 173.256C281.683 173.256 281.814 173.388 282.077 173.651C283.194 175.032 285.822 178.584 288.384 181.74C291.801 186.147 293.772 189.106 296.531 190.29C297.977 190.882 299.422 191.079 302.51 191.079H307.109C308.029 191.079 308.291 190.948 308.291 190.619C308.291 190.356 308.094 190.159 307.569 190.159ZM284.771 170.297C283.391 171.218 281.749 171.283 280.369 171.283C278.003 171.283 275.376 170.889 274.521 170.429C274.259 170.297 274.193 169.968 274.193 169.639V151.751C274.193 151.422 274.39 151.224 274.587 151.159C275.376 150.961 276.755 150.83 278.398 150.83C284.245 150.83 288.056 154.776 288.056 161.945C288.056 166.154 286.742 169.047 284.771 170.297Z" fill="#231F20"/>
<path d="M341.076 148.791C339.959 148.791 336.148 148.988 335.294 148.988C334.243 148.988 332.863 148.791 331.287 148.791C330.63 148.791 330.498 148.988 330.498 149.186C330.498 149.449 330.695 149.646 331.221 149.712C331.944 149.843 332.732 149.843 332.732 150.698C332.732 151.422 332.469 152.014 331.221 154.184C330.301 155.828 322.943 167.864 321.891 170.165C320.906 168.521 312.233 154.578 311.379 152.934C310.919 152.079 310.525 151.422 310.525 150.764C310.525 150.238 310.657 149.909 311.577 149.712C312.102 149.58 312.299 149.449 312.299 149.186C312.299 148.988 312.102 148.791 311.445 148.791C309.014 148.791 306.846 148.988 306.452 148.988C306.32 148.988 301.327 148.791 300.276 148.791C299.75 148.791 299.487 148.988 299.487 149.186C299.487 149.515 299.816 149.712 300.21 149.712C301.524 149.778 302.378 150.041 303.298 150.698C304.218 151.422 304.875 152.211 306.649 154.71C308.685 157.538 316.307 169.968 316.701 170.692C317.686 172.402 318.146 173.585 318.146 176.742V181.543C318.146 182.069 318.146 184.437 317.949 186.805C317.818 188.383 317.358 189.764 316.241 189.961C315.716 190.093 315.124 190.159 314.599 190.159C314.139 190.159 313.942 190.356 313.942 190.553C313.942 190.882 314.204 191.079 314.861 191.079C316.701 191.079 320.643 190.882 320.774 190.882C320.971 190.882 325.045 191.079 328.33 191.079C328.922 191.079 329.118 190.882 329.118 190.553C329.118 190.356 328.922 190.159 328.396 190.159C327.936 190.159 326.819 190.093 325.965 189.896C323.928 189.501 323.797 188.383 323.665 186.805C323.534 184.437 323.534 182.004 323.534 181.543V176.742C323.534 175.032 323.403 173.585 324.191 171.546C325.176 169.245 331.549 158.525 335.36 153.263C336.411 151.816 336.806 151.224 337.791 150.567C338.711 149.909 339.696 149.778 341.076 149.712C341.536 149.712 341.864 149.515 341.864 149.186C341.864 148.988 341.667 148.791 341.076 148.791Z" fill="#231F20"/>
<path d="M409.338 179.176C408.944 179.176 408.813 179.438 408.681 180.162C408.484 181.346 407.63 184.24 406.25 185.686C403.622 188.383 399.746 188.975 394.818 188.975C380.758 188.975 371.1 177.465 371.1 164.904C371.1 158.196 372.217 152.342 377.013 147.739C379.313 145.503 383.386 142.938 392.125 142.938C397.906 142.938 402.965 144.713 405.264 146.686C406.973 148.133 408.024 150.83 408.024 153.395C408.024 154.315 408.09 154.776 408.55 154.776C408.944 154.776 409.075 154.381 409.141 153.395C409.207 152.408 409.207 148.791 409.338 146.621C409.469 144.253 409.666 143.464 409.666 142.938C409.666 142.543 409.535 142.28 409.075 142.214C406.644 141.885 404.608 141.688 402.111 141.228C398.892 140.636 395.212 140.438 392.584 140.438C382.467 140.438 376.488 143.529 372.546 147.476C366.699 153.329 365.187 161.024 365.187 165.43C365.187 171.678 366.764 179.176 373.137 184.897C378.327 189.567 384.963 192 394.818 192C399.023 192 404.016 191.54 406.644 190.487C407.827 189.961 407.958 189.83 408.353 188.58C409.01 186.344 409.798 180.622 409.798 180.162C409.798 179.636 409.666 179.176 409.338 179.176Z" fill="#231F20"/>
<path d="M445.473 182.793C445.144 182.793 445.013 183.056 444.947 183.582C444.815 184.568 444.356 185.884 443.699 186.87C442.253 188.712 439.625 188.712 436.734 188.712C432.201 188.712 430.887 188.317 429.836 187.397C428.719 186.344 428.456 182.53 428.456 174.967V164.97C428.456 156.288 428.39 154.842 428.522 153.066C428.653 151.159 429.047 150.106 430.887 149.843C431.544 149.778 432.201 149.712 432.661 149.712C433.055 149.712 433.384 149.515 433.384 149.251C433.384 148.988 433.187 148.791 432.53 148.791C430.69 148.791 426.682 148.988 425.763 148.988C425.631 148.988 421.689 148.791 418.93 148.791C418.273 148.791 417.944 148.923 417.944 149.251C417.944 149.515 418.207 149.712 418.667 149.712C419.192 149.712 419.915 149.712 420.309 149.778C422.543 150.041 422.806 151.224 422.938 153.066C423.069 154.842 423.069 156.288 423.069 164.97V174.835C423.069 179.899 423.2 184.437 422.806 186.936C422.609 188.514 422.215 189.83 421.098 190.027C420.572 190.159 420.046 190.159 419.521 190.159C418.996 190.159 418.798 190.356 418.798 190.553C418.798 190.948 419.192 191.079 419.849 191.079C422.149 191.079 423.463 190.882 425.631 190.882C432.201 190.882 437.129 191.211 441.596 191.211C444.75 191.211 444.684 190.882 445.078 189.567C445.473 188.054 445.867 184.305 445.867 183.648C445.867 182.99 445.735 182.793 445.473 182.793Z" fill="#231F20"/>
<path d="M491.397 148.791C489.557 148.791 486.732 148.988 486.404 148.988C486.141 148.988 482.856 148.791 480.031 148.791C479.439 148.791 479.111 148.923 479.111 149.317C479.111 149.515 479.374 149.712 479.768 149.712C480.359 149.712 481.148 149.778 481.608 149.843C483.71 150.172 483.907 151.159 484.038 153.066C484.17 154.842 484.17 156.354 484.17 164.97V171.941C484.17 177.663 483.579 182.661 480.951 185.686C478.454 188.58 475.366 189.501 471.95 189.501C469.256 189.501 466.102 188.975 463.277 186.476C460.781 184.24 459.269 180.82 459.269 172.796V164.97C459.269 156.288 459.269 154.776 459.335 153C459.467 151.159 459.729 150.041 461.306 149.843C461.832 149.778 462.357 149.712 462.751 149.712C463.08 149.712 463.54 149.58 463.54 149.251C463.54 148.923 463.343 148.791 462.62 148.791C460.846 148.791 456.97 148.988 456.444 148.988C455.984 148.988 452.437 148.791 449.611 148.791C448.889 148.791 448.626 148.923 448.626 149.317C448.626 149.515 448.889 149.712 449.348 149.712C449.874 149.712 450.663 149.778 451.057 149.843C453.094 150.106 453.422 151.224 453.488 153C453.685 154.776 453.685 156.288 453.685 164.97V173.125C453.685 181.28 455.722 185.226 458.547 187.857C462.817 191.803 468.993 191.803 470.833 191.803C474.38 191.803 478.585 191.474 482.856 187.857C487.521 183.845 488.178 176.742 488.178 170.823V164.97C488.178 156.354 488.178 154.842 488.243 153.066C488.375 151.159 488.638 149.975 490.477 149.778C491.134 149.712 491.265 149.712 491.66 149.712C492.054 149.712 492.317 149.515 492.317 149.251C492.317 148.923 492.054 148.791 491.397 148.791Z" fill="#231F20"/>
<path d="M520.239 167.206C522.998 165.036 525.758 161.945 525.758 157.078C525.758 154.25 523.787 148.791 513.932 148.791C511.369 148.791 509.201 148.988 507.624 148.988C507.493 148.988 503.551 148.791 500.792 148.791C500.2 148.791 499.806 148.923 499.806 149.251C499.806 149.515 500.069 149.712 500.66 149.712C500.792 149.712 501.711 149.778 502.237 149.843C504.208 150.238 504.668 151.159 504.799 152.934C504.931 154.71 504.931 156.354 504.931 164.97V174.835C504.931 179.965 504.931 184.437 504.602 186.87C504.405 188.449 504.011 189.83 502.894 190.027C502.368 190.159 502.171 190.159 501.711 190.159C500.857 190.159 500.792 190.487 500.792 190.685C500.792 190.948 501.12 191.079 501.711 191.079C503.88 191.079 505.588 190.882 507.624 190.882C507.887 190.882 509.464 190.948 511.304 191.079C513.012 191.079 514.326 191.211 515.377 191.211C525.364 191.211 530.291 185.095 530.291 178.978C530.291 172.533 524.641 168.521 520.239 167.206ZM510.055 151.488C510.055 151.159 510.252 151.027 510.844 150.896C511.435 150.698 512.815 150.567 513.341 150.567C518.925 150.567 520.962 155.631 520.962 160.169C520.962 162.339 520.305 164.181 519.253 165.43C518.005 166.811 517.02 167.009 513.669 167.009C511.501 167.009 510.778 166.877 510.384 166.811C510.187 166.68 510.055 166.614 510.055 166.154V151.488ZM517.085 189.172C516.428 189.172 513.8 189.106 512.224 188.317C510.252 187.462 510.318 186.607 510.121 183.713C510.055 183.187 510.055 175.953 510.055 171.81V169.245C510.055 168.916 510.187 168.85 510.384 168.85C511.304 168.719 513.603 168.719 514.72 168.85C516.034 168.982 517.217 169.113 519.188 170.297C523.655 173.322 524.838 178.386 524.838 181.74C524.838 187.791 519.91 189.172 517.085 189.172Z" fill="#231F20"/>
</g>
<defs>
<clipPath id="clip0_1_167">
<rect width="544" height="192" fill="white"/>
</clipPath>
</defs>
</svg>
