<?xml version="1.0" encoding="UTF-8"?>
<svg id="Layer_1" xmlns="http://www.w3.org/2000/svg" version="1.1" viewBox="0 0 588.5 73.5">
  <!-- Generator: Adobe Illustrator 29.3.1, SVG Export Plug-In . SVG Version: 2.1.0 Build 151)  -->
  <defs>
    <style>
      .st0 {
        fill: #4498d8;
      }

      .st1 {
        isolation: isolate;
      }
    </style>
  </defs>
  <g>
    <path class="st0" d="M271.2,73.5c-.2,0-.4,0-.5-.2-17.8-14-20.9-39.8-6.9-57.7,14-17.8,39.8-20.9,57.7-6.9,2.3,1.8,4.4,3.9,6.3,6.2.3.4.2.9-.1,1.2-.4.3-.9.2-1.2-.1h0c-13.8-16.8-38.6-19.2-55.4-5.3-16.8,13.8-19.2,38.6-5.3,55.4,1.8,2.2,3.8,4.2,6,5.9.4.3.4.8.1,1.2-.2.2-.4.3-.7.3h0Z"/>
    <path class="st0" d="M272.6,65.9c-.2,0-.4,0-.6-.2-13.6-13.3-13.7-35.1-.4-48.7,11.9-12.1,30.8-13.7,44.6-3.9.4.3.5.8.2,1.2-.3.4-.8.5-1.2.2h0c-14.7-10.5-35.2-7.1-45.7,7.7-9.3,13.1-7.8,31,3.7,42.3.3.3.3.9,0,1.2-.2.2-.4.3-.6.3Z"/>
    <path class="st0" d="M274.3,57.8c-.3,0-.5-.1-.7-.4-8.7-11.9-6.6-28.5,4.8-37.9.4-.3.9-.2,1.2.1.3.4.2.9-.1,1.2h0c-10.7,8.8-12.7,24.4-4.5,35.6.3.4.2.9-.2,1.2-.1.1-.3.2-.5.2Z"/>
  </g>
  <g>
    <path d="M238.7,59.1c-.1,0-.3,0-.4,0h-.2v.7h.3c.1,0,.3,0,.4,0,0,0,.1-.2.1-.3,0-.1,0-.3-.2-.3M237.5,61.1v-2.5c.2,0,.4,0,.7,0h.5c.2,0,.4,0,.5.1.2.1.3.4.3.6,0,.2,0,.3-.2.5-.1,0-.3.2-.4.2.1,0,.3,0,.4.1.2.1.2.4.2.6v.2h0c0,0,0,.1,0,.2h0c0,0-.6,0-.6,0,0-.1,0-.2,0-.3,0-.1,0-.2,0-.3,0,0-.1-.2-.2-.2,0,0-.1,0-.2,0h-.2s-.1,0-.1,0v.9h-.7ZM237.2,58.5c-.7.7-.7,1.9,0,2.7.7.7,1.9.7,2.6,0,0,0,0,0,0,0,.4-.4.6-.8.5-1.3,0-1-.8-1.9-1.9-1.9-.5,0-1,.2-1.3.6M240.1,61.5c-.9.9-2.4.9-3.3,0s-.9-2.4,0-3.3c.9-.9,2.4-.9,3.3,0,.4.4.7,1,.7,1.6,0,.6-.2,1.2-.7,1.6"/>
    <path d="M19.8,23.8l-1.5,8.6h12.5s-1.6,9.5-1.6,9.5h-12.5s-3.3,19-3.3,19H0S8.1,14,8.1,14h29.6c0,0-1.6,9.7-1.6,9.7h-16.2ZM40.8,47.1c-.7,4.5,1.3,6.9,6,6.9,2.4,0,4.7-1,6.3-2.9h10.6c-3.7,7.3-11.4,10.7-18.1,10.7-10.6,0-17.7-5.8-15.9-16.5,1.7-10.4,10-16.6,20.5-16.7,11.2,0,16.7,6.6,15,17.3l-.2,1.1h-24.2ZM55.3,41.1c0-2.9-2.3-5.3-5.3-5.3-.1,0-.3,0-.4,0-3.5,0-6.6,2.1-7.8,5.4h13.5ZM188.1,46.8c-.7,4.5,1.3,6.9,6,6.9,2.4,0,4.8-1,6.3-2.9h10.6c-3.7,7.3-11.4,10.7-18.1,10.7-10.6,0-17.7-5.8-15.9-16.5,1.7-10.4,10-16.6,20.5-16.6,11.1,0,16.7,6.6,15,17.3l-.2,1.1h-24.2ZM202.6,40.8c0-2.9-2.3-5.3-5.3-5.3-.1,0-.3,0-.4,0-3.5,0-6.6,2.1-7.8,5.4h13.5ZM64.7,60.7l7.5-48h10.5s-7.5,47.9-7.5,47.9h-10.5ZM77.9,67.7l7.5-48h10.5s-7.5,47.9-7.5,47.9h-10.5ZM130.4,45.1c-1.6,10.6-11.1,16.6-20.9,16.6-9.7,0-17.4-5.9-15.8-16.5,1.6-10.6,11.1-16.6,20.9-16.6s17.4,6,15.8,16.6M105.1,45.1c-.9,4.6,1,7.8,5.4,7.8s7.5-2.6,8.4-7.8c.8-4.3-1-7.9-5.4-7.8s-7.6,2.9-8.5,7.9M235.1,37.3c-1.7-1-3.7-1.5-5.7-1.5-1.3,0-3.5.6-3.8,2.1-.3,2.1,3.1,2.4,4.5,2.7,5,1,8.5,3.4,7.6,9.2-1.3,8.2-9.3,11.6-16.5,11.6-4.1.1-8.1-1-11.6-3.3l3.6-6.8c2,1.6,6.6,2,9.4,2,1.4,0,3.6-.7,3.8-2.4.4-2.4-3.1-2.5-6.4-3.4s-6.5-2.6-5.6-8.2c1.2-7.6,8.6-11,15.4-11.1,3.4-.1,6.8.6,9.9,2l-4.8,7ZM144.7,46.5l6.7-17h9s2.3,17,2.3,17l7.5-17h11.8s-16.1,31.1-16.1,31.1h-10s-2.1-17-2.1-17h-.2l-6.7,17.1h-10.2s-7-31.1-7-31.1h11.9s3.1,17,3.1,17Z"/>
  </g>
  <g class="st1">
    <g class="st1">
      <path d="M298.8,18.7h3.1l15.6,37.6h-3.9l-4.9-11.8h-16.9l-4.8,11.8h-4l15.7-37.6ZM308,41.7l-7.6-18.6-7.7,18.6h15.3Z"/>
      <path d="M336.1,31.9c-2.4,0-4.6.7-6.4,2-1.8,1.3-3.1,3-3.8,5.2v17.2h-3.6v-27.6h3.4v6.6c1-2.1,2.4-3.8,4.1-5,1.7-1.2,3.6-1.8,5.6-1.8s.5,0,.7,0v3.3Z"/>
      <path d="M354.7,31.9c-2.4,0-4.6.7-6.4,2-1.8,1.3-3.1,3-3.8,5.2v17.2h-3.6v-27.6h3.4v6.6c1-2.1,2.4-3.8,4.1-5s3.6-1.8,5.6-1.8.5,0,.7,0v3.3Z"/>
      <path d="M366,56.9c-1.3,0-2.5-.2-3.6-.7-1.1-.4-2.1-1.1-2.9-1.8-.8-.8-1.5-1.7-1.9-2.7-.5-1-.7-2.2-.7-3.4s.3-2.3.8-3.3c.6-1,1.4-1.9,2.4-2.7,1-.7,2.2-1.3,3.7-1.7,1.4-.4,3-.6,4.7-.6s2.8.1,4.3.4c1.4.2,2.7.6,3.9,1.1v-2.5c0-2.4-.7-4.4-2.1-5.8-1.4-1.4-3.3-2.1-5.7-2.1s-2.9.3-4.3.8c-1.5.6-3,1.4-4.5,2.4l-1.3-2.4c3.6-2.4,7-3.6,10.4-3.6s6.2,1,8.2,2.9c2,1.9,3,4.6,3,8.1v12.5c0,1,.4,1.5,1.3,1.5v3.2c-.6.1-1.1.2-1.4.2-.9,0-1.6-.2-2.1-.7-.5-.5-.8-1.1-.8-1.9v-2.2c-1.4,1.7-3,2.9-4.9,3.8s-4,1.3-6.2,1.3ZM366.9,54.1c1.9,0,3.6-.4,5.2-1.1s2.8-1.6,3.6-2.8c.3-.3.6-.7.7-1,.2-.4.2-.7.2-1v-4.5c-1.2-.5-2.4-.8-3.7-1.1-1.3-.2-2.6-.4-3.9-.4-2.5,0-4.6.5-6.2,1.6s-2.4,2.5-2.4,4.2.2,1.6.5,2.4.8,1.4,1.4,1.9c.6.5,1.3,1,2.1,1.3s1.7.5,2.6.5Z"/>
      <path d="M388.9,64.8c.3,0,.6,0,.8,0,.3,0,.5,0,.8,0,.6,0,1.1,0,1.5-.3.4-.2.7-.6,1.1-1.2.4-.6.8-1.5,1.2-2.6.4-1.1,1.1-2.7,1.9-4.6l-12-27.6h3.7l10.2,24.3,9.5-24.3h3.4l-14.3,35.6c-.4,1-1,1.9-1.9,2.7-.9.8-2.1,1.1-3.7,1.1s-.7,0-1,0c-.3,0-.7,0-1.2-.1v-3.2Z"/>
    </g>
    <g class="st1">
      <path d="M424.9,38.9c-1.6,0-3.2-.3-4.5-.9-1.4-.6-2.6-1.4-3.6-2.4-1-1-1.8-2.2-2.4-3.5-.6-1.4-.9-2.8-.9-4.5s.3-3.1.9-4.4c.6-1.4,1.4-2.5,2.4-3.5,1-1,2.2-1.8,3.6-2.3,1.4-.6,2.9-.9,4.5-.9s3.1.3,4.5.9c1.4.6,2.6,1.3,3.6,2.3s1.8,2.2,2.4,3.5.9,2.8.9,4.4-.3,3.1-.9,4.5-1.4,2.5-2.4,3.5c-1,1-2.2,1.8-3.6,2.4-1.4.6-2.9.9-4.5.9ZM424.9,37.9c1.4,0,2.8-.2,4-.7,1.2-.5,2.3-1.2,3.3-2.1s1.7-2,2.2-3.2c.5-1.2.8-2.6.8-4.2s-.3-2.8-.8-4c-.5-1.2-1.2-2.3-2.1-3.2-.9-.9-2-1.6-3.2-2.1-1.2-.5-2.6-.8-4.1-.8s-2.9.3-4.1.8c-1.3.5-2.3,1.2-3.2,2.1-.9.9-1.6,2-2.1,3.2-.5,1.2-.8,2.6-.8,4s.3,2.8.8,4c.5,1.2,1.2,2.3,2.1,3.2.9.9,2,1.6,3.2,2.1,1.3.5,2.6.8,4.1.8ZM420.2,20.8h5.9c.6,0,1.2.1,1.7.4.5.3,1,.6,1.3,1,.4.4.7.9.9,1.4.2.5.3,1.1.3,1.6,0,1-.3,1.9-.9,2.7-.6.8-1.4,1.3-2.3,1.5l3.4,5.4h-1.8l-3.3-5.2h-3.6v5.2h-1.6v-14ZM426.1,28.1c.8,0,1.5-.3,1.9-.9.4-.6.6-1.3.6-2.1s-.3-1.6-.8-2.1c-.5-.5-1.1-.8-1.9-.8h-4.1v5.9h4.3Z"/>
    </g>
    <g class="st1">
      <path d="M456,56.4V18.7h15.9c1.6,0,3.1.3,4.5,1,1.4.7,2.5,1.6,3.5,2.7,1,1.1,1.8,2.4,2.3,3.8s.8,2.8.8,4.3-.2,2.7-.6,3.9c-.4,1.3-1,2.4-1.7,3.4-.7,1-1.6,1.9-2.6,2.5s-2.2,1.2-3.4,1.4l9.2,14.5h-4.2l-8.9-13.9h-11.1v13.9h-3.7ZM459.7,39.2h12.3c1.1,0,2.1-.2,3-.7.9-.5,1.7-1.1,2.3-1.9.6-.8,1.1-1.7,1.5-2.8.4-1,.5-2.1.5-3.2s-.2-2.2-.6-3.3c-.4-1-1-2-1.6-2.7-.7-.8-1.5-1.4-2.4-1.9-.9-.5-1.9-.7-2.9-.7h-12v17.2Z"/>
      <path d="M501,56.9c-2,0-3.9-.4-5.5-1.1s-3.1-1.8-4.4-3.1c-1.2-1.3-2.2-2.9-2.9-4.6-.7-1.7-1-3.6-1-5.6s.3-3.8,1-5.5c.7-1.7,1.6-3.2,2.9-4.5,1.2-1.3,2.7-2.3,4.4-3.1,1.7-.8,3.5-1.1,5.5-1.1s3.9.4,5.5,1.1c1.7.8,3.1,1.8,4.3,3.1s2.1,2.8,2.8,4.5c.7,1.7,1,3.5,1,5.4v.8c0,.3,0,.5,0,.6h-23.6c.1,1.5.5,2.9,1,4.1.6,1.3,1.3,2.3,2.3,3.3.9.9,2,1.6,3.2,2.1,1.2.5,2.4.8,3.8.8s1.8-.1,2.6-.4c.9-.2,1.7-.6,2.4-1s1.4-.9,2-1.6c.6-.6,1.1-1.3,1.4-2l3.1.8c-.4,1-1,2-1.8,2.8-.8.8-1.7,1.6-2.7,2.2-1,.6-2.2,1.1-3.4,1.4-1.2.3-2.5.5-3.9.5ZM511.2,41.1c-.1-1.5-.5-2.8-1-4.1-.6-1.2-1.3-2.3-2.2-3.2-.9-.9-1.9-1.6-3.1-2.1-1.2-.5-2.4-.7-3.8-.7s-2.6.2-3.8.7c-1.2.5-2.3,1.2-3.2,2.1s-1.6,1.9-2.2,3.2c-.5,1.2-.9,2.6-1,4h20.3Z"/>
      <path d="M520.3,17.7h3.6v32.4c0,1,.3,1.8.8,2.4.6.6,1.4.9,2.4.9s.8,0,1.4-.2c.5-.1,1-.2,1.5-.4l.6,2.9c-.7.3-1.5.5-2.5.7-1,.2-1.8.3-2.5.3-1.7,0-3-.5-3.9-1.4-1-.9-1.4-2.3-1.4-3.9V17.7Z"/>
      <path d="M541.5,56.9c-1.3,0-2.5-.2-3.6-.7s-2.1-1.1-2.9-1.8c-.8-.8-1.5-1.7-1.9-2.7s-.7-2.2-.7-3.4.3-2.3.8-3.3c.6-1,1.4-1.9,2.4-2.7,1-.7,2.2-1.3,3.7-1.7,1.4-.4,3-.6,4.7-.6s2.8.1,4.3.4c1.4.2,2.7.6,3.9,1.1v-2.5c0-2.4-.7-4.4-2.1-5.8-1.4-1.4-3.3-2.1-5.7-2.1s-2.9.3-4.3.8c-1.5.6-3,1.4-4.5,2.4l-1.3-2.4c3.6-2.4,7-3.6,10.4-3.6s6.2,1,8.2,2.9c2,1.9,3,4.6,3,8.1v12.5c0,1,.4,1.5,1.3,1.5v3.2c-.6.1-1.1.2-1.4.2-.9,0-1.6-.2-2.1-.7-.5-.5-.8-1.1-.8-1.9v-2.2c-1.4,1.7-3,2.9-4.9,3.8-1.9.9-4,1.3-6.2,1.3ZM542.4,54.1c1.9,0,3.6-.4,5.2-1.1,1.6-.7,2.8-1.6,3.6-2.8.3-.3.6-.7.7-1,.2-.4.2-.7.2-1v-4.5c-1.2-.5-2.4-.8-3.7-1.1-1.3-.2-2.6-.4-3.9-.4-2.5,0-4.6.5-6.2,1.6-1.6,1.1-2.4,2.5-2.4,4.2s.2,1.6.5,2.4c.3.7.8,1.4,1.4,1.9.6.5,1.3,1,2.1,1.3.8.3,1.7.5,2.6.5Z"/>
      <path d="M564.4,64.8c.3,0,.6,0,.8,0,.3,0,.5,0,.8,0,.6,0,1.1,0,1.5-.3.4-.2.7-.6,1.1-1.2.4-.6.8-1.5,1.2-2.6.4-1.1,1.1-2.7,1.9-4.6l-12-27.6h3.7l10.2,24.3,9.5-24.3h3.4l-14.3,35.6c-.4,1-1,1.9-1.9,2.7-.9.8-2.1,1.1-3.7,1.1s-.7,0-1,0c-.3,0-.7,0-1.2-.1v-3.2Z"/>
    </g>
  </g>
</svg>