<svg xmlns="http://www.w3.org/2000/svg" width="588.469" height="73.514" viewBox="0 0 588.469 73.514"><g transform="translate(255.049)"><path d="M314.942,73.514a.849.849,0,0,1-.528-.184A41.065,41.065,0,1,1,371.5,14.943a.854.854,0,0,1-1.317,1.088,39.358,39.358,0,1,0-54.714,55.96.853.853,0,0,1-.529,1.524Z" transform="translate(-298.752)" fill="#4498d8"/><g transform="translate(6.622 6.623)"><path d="M317.4,67a.852.852,0,0,1-.6-.245,34.442,34.442,0,0,1,44.153-52.595.853.853,0,0,1-.992,1.389A32.735,32.735,0,0,0,318,65.538.854.854,0,0,1,317.4,67Z" transform="translate(-306.509 -7.758)" fill="#4498d8"/></g><g transform="translate(13.197 19.366)"><path d="M320.229,61.124a.853.853,0,0,1-.691-.351,27.874,27.874,0,0,1,4.812-37.895.854.854,0,1,1,1.088,1.317,26.165,26.165,0,0,0-4.519,35.573.853.853,0,0,1-.69,1.356Z" transform="translate(-314.21 -22.684)" fill="#4498d8"/></g></g><g transform="translate(0 12.769)"><g transform="translate(236.23 44.796)"><path d="M279.174,68.936a1.311,1.311,0,0,0-.388-.043h-.155v.734h.252a.6.6,0,0,0,.366-.1.33.33,0,0,0,.128-.3.3.3,0,0,0-.2-.3m-1.193,2.046,0-2.527c.157,0,.39,0,.7.006h.514a1.076,1.076,0,0,1,.509.122.639.639,0,0,1,.332.6.55.55,0,0,1-.178.462.85.85,0,0,1-.44.165.959.959,0,0,1,.371.149.683.683,0,0,1,.229.57v.224c0,.024,0,.052,0,.062a.181.181,0,0,0,.015.09l.015.072h-.633a1.462,1.462,0,0,1-.036-.347,2.109,2.109,0,0,0-.041-.312.342.342,0,0,0-.193-.19,1.01,1.01,0,0,0-.226-.04l-.159-.009h-.129l0,.9Zm-.342-2.581a1.882,1.882,0,0,0,.02,2.658,1.857,1.857,0,0,0,2.646-.009,1.84,1.84,0,0,0,.547-1.342,1.87,1.87,0,0,0-3.213-1.306m2.933,2.94a2.306,2.306,0,1,1,.672-1.635,2.206,2.206,0,0,1-.672,1.635" transform="translate(-276.708 -67.429)"/></g><path d="M19.809,25.99l-1.462,8.578,12.515-.023-1.646,9.513-12.525.023L13.38,63.03,0,63.055,8.064,16.215l29.553-.055-1.631,9.8Zm21.04,23.255c-.721,4.5,1.33,6.924,6.028,6.914a7.751,7.751,0,0,0,6.273-2.872l10.6-.02C60.023,60.553,52.37,63.983,45.67,64c-10.649.02-17.662-5.8-15.925-16.546C31.423,37.084,39.758,30.824,50.219,30.8c11.156-.02,16.748,6.638,15.028,17.256l-.184,1.14ZM55.3,43.284a5.3,5.3,0,0,0-5.674-5.327,8.1,8.1,0,0,0-7.807,5.353Zm132.833,5.685c-.727,4.5,1.33,6.923,6.023,6.914a7.751,7.751,0,0,0,6.283-2.872l10.592-.02c-3.733,7.285-11.383,10.715-18.073,10.728-10.639.02-17.662-5.8-15.929-16.546,1.676-10.367,10.018-16.626,20.48-16.646,11.148-.02,16.74,6.638,15.025,17.256l-.193,1.14Zm14.449-5.961a5.3,5.3,0,0,0-5.664-5.327,8.1,8.1,0,0,0-7.811,5.353ZM64.656,62.933l7.495-47.957,10.514-.02-7.5,47.957Zm13.251,6.906,7.5-47.964,10.508-.02-7.5,47.964Zm52.474-22.578c-1.625,10.566-11.1,16.6-20.881,16.616-9.734.018-17.431-5.921-15.8-16.547,1.625-10.609,11.084-16.628,20.877-16.647s17.417,5.968,15.806,16.577m-25.294.048c-.862,4.588,1.044,7.794,5.437,7.786s7.485-2.627,8.445-7.812c.8-4.333-.989-7.858-5.386-7.85s-7.557,2.917-8.5,7.876m130.05-7.819a12.151,12.151,0,0,0-5.7-1.506c-1.275,0-3.537.551-3.784,2.127-.333,2.121,3.072,2.419,4.542,2.719,4.987,1.027,8.487,3.443,7.587,9.206-1.287,8.205-9.267,11.617-16.476,11.631a19.706,19.706,0,0,1-11.556-3.324l3.629-6.833c2,1.578,6.65,2.018,9.376,2.013,1.4,0,3.572-.673,3.831-2.375.373-2.431-3.06-2.543-6.374-3.447s-6.5-2.6-5.629-8.175c1.2-7.639,8.634-11.046,15.421-11.058a22.594,22.594,0,0,1,9.939,1.983ZM144.69,48.656l6.687-17.016,9.025-.017,2.257,17.024L170.136,31.6l11.844-.023L165.91,62.736l-10.017.019-2.129-17.064h-.157l-6.673,17.081-10.175.019L129.714,31.68l11.883-.022Z" transform="translate(0 -14.957)"/></g><text transform="translate(282.469 56.354)" font-size="53" font-family="Raleway-Regular, Raleway"><tspan x="0" y="0">Array</tspan><tspan y="0" font-size="30.915" baseline-shift="17.664899900604148">®</tspan><tspan y="0" xml:space="preserve"> Relay</tspan></text></svg>