<?xml version="1.0" encoding="UTF-8"?>
<svg id="Layer_1" xmlns="http://www.w3.org/2000/svg" version="1.1" viewBox="0 0 70 65">
  <!-- Generator: Adobe Illustrator 29.3.1, SVG Export Plug-In . SVG Version: 2.1.0 Build 151)  -->
  <defs>
    <style>
      .st0 {
        fill: #fff;
      }
    </style>
  </defs>
  <path class="st0" d="M9.7,57.4l5-12.1v-.2c0-8.1.9-14.8,2.5-20.1,2.4-7.8,9.6-13,17.8-13,5.5,0,8.3,1.7,11,3.1v4.7c-3-2.7-7-4-11-3.8-6.4,0-12.1,4.1-14,10.2-1.6,5-2.4,11.5-2.4,19.5v.4l-3,7.4h38.7l-3-7.4v-.4c0-5.5-.3-11-1-16.5h4c.6,5.3,1,10.6.9,15.9v.2l5,12.1H9.7Z"/>
  <rect class="st0" x="48.8" y="22.8" width="3.1" height="2.9"/>
  <rect class="st0" x="48.8" y="7.6" width="3.1" height="12"/>
</svg>