<?xml version="1.0" encoding="UTF-8"?>
<svg id="Layer_1" xmlns="http://www.w3.org/2000/svg" version="1.1" viewBox="0 0 70 65">
  <!-- Generator: Adobe Illustrator 29.3.1, SVG Export Plug-In . SVG Version: 2.1.0 Build 151)  -->
  <defs>
    <style>
      .st0 {
        fill: #fff;
      }
    </style>
  </defs>
  <path class="st0" d="M4.8,39.9v-14h6c.7,0,1.3.1,1.9.4.6.3,1.1.6,1.5,1.1.4.5.7,1,1,1.6.2.6.4,1.2.4,1.8,0,1.2-.5,2.4-1.3,3.4-.4.5-.9.8-1.5,1.1-.6.3-1.2.4-1.9.4h-2.3v4.3h-3.8ZM8.6,32.3h2c.3,0,.5-.1.7-.3.2-.3.3-.8.3-1.2,0-.4,0-.9-.4-1.2-.2-.2-.4-.3-.7-.3h-1.9v3Z"/>
  <path class="st0" d="M27.7,39.9v-7.4l-2.3,5.2h-2.1l-2.3-5.2v7.4h-3.8v-14h4.2l3,6.6,3-6.6h4.2v14h-3.8Z"/>
  <path class="st0" d="M37.9,39.9c0-.8,0-1.6.1-2.4,0-.6.2-1.2.5-1.8.2-.5.6-1,1-1.4.5-.5,1.2-.8,1.8-1.1.4-.2.8-.4,1.2-.6.3-.2.7-.4,1-.6.3-.2.5-.5.7-.7.2-.3.3-.6.2-.9,0-.4-.1-.7-.4-1-.3-.2-.6-.3-.9-.3-.5,0-1.1.2-1.5.4-.5.3-.9.6-1.4,1l-2.3-2.5c.3-.3.6-.6,1-.8.4-.3.9-.5,1.3-.7.5-.2,1.1-.4,1.6-.5.6-.1,1.2-.2,1.8-.2,1.3,0,2.7.3,3.7,1.2.9.9,1.4,2.1,1.3,3.3,0,.5,0,1-.2,1.4-.1.4-.3.8-.5,1.1-.2.3-.5.6-.9.9-.4.3-.8.5-1.2.8l-.8.5c-.3.2-.5.3-.8.5-.2.2-.4.3-.6.5-.1.2-.2.4-.2.6h5.2v3.4h-10.8Z"/>
  <path class="st0" d="M60.7,30.7c.6,0,1.3.1,1.9.3.5.2,1,.5,1.5.9.4.4.7.9,1,1.4.5,1.2.5,2.6,0,3.8-.3.6-.6,1.1-1.1,1.5-.5.4-1.1.8-1.7,1-1.6.5-3.4.5-5-.2-.8-.3-1.4-.9-1.9-1.6l2.1-2.4c.4.4.8.7,1.3,1,.4.2.9.3,1.4.3.4,0,.8-.1,1.1-.4.3-.3.4-.7.4-1.1,0-.4-.1-.8-.4-1-.3-.3-.6-.4-1-.4-.3,0-.5,0-.8.2-.2.1-.4.3-.5.5h-3.2l1.7-8.7h7v3.4h-4.3l-.2,1.5c0,0,.1,0,.2,0,0,0,.2,0,.3,0,.1,0,.3,0,.4,0"/>
  <path class="st0" d="M10,17.2c0,1.5-1.2,2.8-2.8,2.8-1.5,0-2.8-1.2-2.8-2.8s1.2-2.8,2.8-2.8c0,0,0,0,0,0,1.5,0,2.7,1.2,2.7,2.8"/>
  <path class="st0" d="M20.3,17.2c0,1.5-1.2,2.8-2.8,2.8-1.5,0-2.8-1.2-2.8-2.8,0-1.5,1.2-2.8,2.8-2.8s2.8,1.2,2.8,2.8"/>
  <path class="st0" d="M15.3,11.4c0,1.5-1.2,2.8-2.8,2.8s-2.8-1.2-2.8-2.8,1.2-2.8,2.8-2.8h0c1.5,0,2.8,1.2,2.8,2.8"/>
  <path class="st0" d="M60,47.8c0-1.5,1.2-2.8,2.8-2.8,1.5,0,2.8,1.2,2.8,2.8,0,1.5-1.2,2.8-2.8,2.8h0c-1.5,0-2.8-1.2-2.8-2.8"/>
  <path class="st0" d="M49.7,47.8c0-1.5,1.2-2.8,2.8-2.8,1.5,0,2.8,1.2,2.8,2.8,0,1.5-1.2,2.8-2.8,2.8h0c-1.5,0-2.8-1.2-2.8-2.8"/>
  <path class="st0" d="M54.7,53.6c0-1.5,1.2-2.8,2.8-2.8,1.5,0,2.8,1.2,2.8,2.8,0,1.5-1.2,2.8-2.8,2.8h0c-1.5,0-2.8-1.2-2.8-2.8"/>
</svg>