<?xml version="1.0" encoding="UTF-8"?>
<svg id="Layer_1" xmlns="http://www.w3.org/2000/svg" version="1.1" viewBox="0 0 70 65">
  <!-- Generator: Adobe Illustrator 29.3.1, SVG Export Plug-In . SVG Version: 2.1.0 Build 151)  -->
  <defs>
    <style>
      .st0 {
        fill: #fff;
      }
    </style>
  </defs>
  <path class="st0" d="M40,41.7V7.8c0-2.8-2.3-5-5-5-2.8,0-5,2.3-5,5v33.9c-5.3,2.8-7.4,9.4-4.6,14.7,2.8,5.3,9.4,7.4,14.7,4.6,5.3-2.8,7.4-9.4,4.6-14.7-1-2-2.6-3.6-4.6-4.6Z"/>
  <path class="st0" d="M35,63.6c-6.8,0-12.3-5.5-12.3-12.3,0-4.3,2.2-8.2,5.8-10.5V7.8c0-3.6,2.9-6.4,6.4-6.4s6.4,2.9,6.4,6.4v33.1c5.8,3.6,7.6,11.1,4,16.9-2.2,3.6-6.2,5.8-10.5,5.8h0ZM35,4.2c-2,0-3.6,1.6-3.6,3.6v34.8l-.8.4c-4.6,2.4-6.4,8.2-4,12.8,2.4,4.6,8.2,6.4,12.8,4,4.6-2.4,6.4-8.2,4-12.8-.9-1.7-2.3-3.1-4-4l-.8-.4V7.8c0-2-1.6-3.6-3.6-3.6Z"/>
</svg>