<?xml version="1.0" encoding="UTF-8"?>
<svg id="Layer_1" xmlns="http://www.w3.org/2000/svg" version="1.1" viewBox="0 0 70 65">
  <!-- Generator: Adobe Illustrator 29.3.1, SVG Export Plug-In . SVG Version: 2.1.0 Build 151)  -->
  <defs>
    <style>
      .st0 {
        fill: #fff;
      }
    </style>
  </defs>
  <path class="st0" d="M20.4,35.3c-5.5,10.7,1.8,23.8,13.8,24.3.2,0,.5,0,.7,0s.5,0,.7,0c12.1-.5,19.4-13.6,13.8-24.3l-14.6-28.3-14.6,28.3Z"/>
  <path class="st0" d="M35,61.1c-.3,0-.6,0-.8,0-3.1-.1-6-1-8.6-2.7-7.9-5.1-10.7-15.3-6.4-23.7L35,3.9l15.8,30.7c4.3,8.4,1.5,18.6-6.4,23.7-2.6,1.6-5.6,2.5-8.6,2.7-.2,0-.5,0-.8,0ZM35,10.1l-13.3,25.9c-2.4,4.7-2.3,10.3.4,14.9,2.5,4.4,7.1,7.3,12.2,7.4.2,0,.4,0,.7,0s.5,0,.7,0c5.1-.2,9.7-3,12.2-7.4,2.7-4.6,2.8-10.2.4-14.9l-13.3-25.9Z"/>
</svg>