<?xml version="1.0" encoding="UTF-8"?>
<svg id="Layer_1" xmlns="http://www.w3.org/2000/svg" version="1.1" viewBox="0 0 70 65">
  <!-- Generator: Adobe Illustrator 29.3.1, SVG Export Plug-In . SVG Version: 2.1.0 Build 151)  -->
  <defs>
    <style>
      .st0 {
        fill: #fff;
      }
    </style>
  </defs>
  <path class="st0" d="M52.9,23.8c-1.1-9.9-10.1-17-20-15.9-8.3,1-14.9,7.5-15.9,15.9-9.2.8-16,9-15.2,18.2.8,8.7,8.1,15.3,16.8,15.3h32.8c9.3,0,16.8-7.4,16.8-16.7,0-8.7-6.6-16-15.3-16.8Z"/>
  <path class="st0" d="M35,6.4c9.5,0,17.5,6.8,19.1,16.1,9.9,1.5,16.7,10.7,15.2,20.6-1.3,8.9-9,15.4-17.9,15.4H18.6c-10,0-18.1-8.1-18.1-18.1,0-8.9,6.5-16.5,15.4-17.9,1.6-9.3,9.7-16.1,19.1-16.1ZM51.4,55.9c8.5,0,15.4-6.9,15.4-15.4,0-8-6.1-14.6-14-15.4h-1.1c0,0-.1-1.2-.1-1.2-1-9.2-9.3-15.8-18.5-14.7-7.7.9-13.8,7-14.7,14.7v1.1c-.1,0-1.2,0-1.2,0-8.5.8-14.8,8.3-14,16.8.7,8,7.4,14.1,15.4,14.1h32.8Z"/>
</svg>