<?xml version="1.0" encoding="UTF-8"?>
<svg id="Layer_1" xmlns="http://www.w3.org/2000/svg" version="1.1" viewBox="0 0 70 65">
  <!-- Generator: Adobe Illustrator 29.3.1, SVG Export Plug-In . SVG Version: 2.1.0 Build 151)  -->
  <defs>
    <style>
      .st0 {
        fill: #fff;
      }
    </style>
  </defs>
  <path class="st0" d="M32.8,1.7v10.4h-2l4.1,7.2,4.1-7.2h-2V1.7h-4.4Z"/>
  <path class="st0" d="M51,1.7v10.4h-2l4.1,7.2,4.1-7.2h-1.9V1.7h-4.4Z"/>
  <path class="st0" d="M14.6,1.7v10.4h-2l4.1,7.2,4.1-7.2h-1.9V1.7h-4.4Z"/>
  <path class="st0" d="M6,29.7v5.4c19.4-10.9,38.7,10.9,58.1,0v-5.5c-19.4,10.9-38.7-10.9-58.1,0"/>
  <path class="st0" d="M6,42.2v5.5c19.4-10.9,38.7,10.9,58.1,0v-5.5c-19.4,10.9-38.7-10.9-58.1,0"/>
  <path class="st0" d="M6,54.7v5.5c19.4-10.9,38.7,10.9,58.1,0v-5.5c-19.4,10.9-38.7-10.9-58.1,0"/>
</svg>