<?xml version="1.0" encoding="UTF-8"?>
<svg id="Layer_1" xmlns="http://www.w3.org/2000/svg" version="1.1" viewBox="0 0 70 65">
  <!-- Generator: Adobe Illustrator 29.3.1, SVG Export Plug-In . SVG Version: 2.1.0 Build 151)  -->
  <defs>
    <style>
      .st0 {
        fill: #fff;
      }
    </style>
  </defs>
  <path class="st0" d="M48.9,61.4h-27.7v-2.8h27.7v2.8Z"/>
  <path class="st0" d="M45,50v-.2c0-5,1.8-9.8,5.1-13.6,3.7-4.2,5.6-9.7,5.3-15.3,0,0,.6-15.8-20.3-16h-.4c-20.8.2-20.3,16-20.3,16-.3,5.6,1.6,11.1,5.3,15.3,3.3,3.8,5.1,8.6,5.1,13.6v.2h20Z"/>
  <path class="st0" d="M46.4,51.4h-22.8v-1.6c0-4.6-1.7-9.1-4.8-12.6-1.7-2-3.1-4.2-4.1-6.6-1.2-3-1.8-6.3-1.6-9.5,0-4.2,1.7-8.3,4.6-11.3,3.8-4,9.5-6,17.1-6.1h.4c7.5,0,13.3,2.1,17.1,6.1,2.9,3.1,4.5,7.1,4.6,11.3.2,3.3-.4,6.5-1.6,9.5-1,2.4-2.4,4.7-4.1,6.6-3.1,3.5-4.7,8-4.8,12.6v1.6ZM26.4,48.6h17.3c.3-4.9,2.2-9.5,5.4-13.2,3.5-3.9,5.2-9.1,5-14.3h0c0-1.2-.2-2.3-.4-3.3-.6-2.3-1.8-4.5-3.4-6.2-3.2-3.4-8.3-5.1-15-5.2h-.4c-6.7,0-11.8,1.8-15.1,5.2-2.4,2.5-3.7,5.9-3.8,9.4h0c-.2,5.3,1.6,10.5,5,14.4,3.2,3.7,5.1,8.4,5.4,13.2Z"/>
</svg>