<?xml version="1.0" encoding="UTF-8"?>
<svg id="Layer_1" xmlns="http://www.w3.org/2000/svg" version="1.1" viewBox="0 0 70 65">
  <!-- Generator: Adobe Illustrator 29.3.1, SVG Export Plug-In . SVG Version: 2.1.0 Build 151)  -->
  <defs>
    <style>
      .st0 {
        fill: #fff;
      }
    </style>
  </defs>
  <path class="st0" d="M44.6,28.7c5.5-5.3,5.6-14.1.3-19.5-5.3-5.5-14.1-5.6-19.5-.3-5.5,5.3-5.6,14.1-.3,19.5,0,0,.2.2.3.3.8.8.8,2.1,0,2.9-.1.1-.3.3-.5.4-6.7,3.7-10.9,10.7-10.9,18.4v9.7h41.9v-9.7c0-7.7-4.2-14.7-10.9-18.4-1-.5-1.4-1.8-.8-2.8,0-.2.2-.3.4-.5Z"/>
  <path class="st0" d="M35,3.6c.3,0,.6,0,1,0,8.4.5,14.7,7.8,14.2,16.1-.2,3.8-1.9,7.3-4.6,10-.1.1-.2.3-.2.5,0,.2.2.4.3.5,7.2,3.9,11.6,11.4,11.6,19.6v11.1H12.7v-11.1c0-8.2,4.4-15.7,11.6-19.6.3-.2.4-.6.3-.9,0,0,0-.1-.1-.2-6-5.9-6.2-15.5-.3-21.5,2.9-2.9,6.8-4.6,10.9-4.6ZM54.5,58.6v-8.3c0-7.1-3.9-13.7-10.2-17.1-1.7-.9-2.3-3-1.4-4.7.2-.3.4-.6.6-.8,4.9-4.8,5-12.6.3-17.6-2.1-2.2-5-3.6-8.1-3.7-.3,0-.5,0-.8,0-6.9,0-12.4,5.6-12.4,12.4,0,3.4,1.4,6.6,3.8,8.9,1.4,1.3,1.4,3.5,0,4.9-.2.2-.5.5-.8.6-6.3,3.4-10.1,10-10.1,17.1v8.3h39.1Z"/>
</svg>