<?xml version="1.0" encoding="UTF-8"?>
<svg id="Layer_1" xmlns="http://www.w3.org/2000/svg" version="1.1" xmlns:xlink="http://www.w3.org/1999/xlink" viewBox="0 0 149.4 52.1">
  <!-- Generator: Adobe Illustrator 30.2.1, SVG Export Plug-In . SVG Version: 2.1.1 Build 1)  -->
  <defs>
    <style>
      .st0 {
        clip-path: url(#clippath-4);
      }

      .st1 {
        font-size: 4.7px;
      }

      .st1, .st2, .st3 {
        isolation: isolate;
      }

      .st1, .st3 {
        fill: #778495;
        font-family: Raleway, Raleway;
      }

      .st4 {
        fill: #fff;
      }

      .st5 {
        fill: url(#linear-gradient1);
      }

      .st6 {
        fill: none;
      }

      .st7 {
        fill: #9281a8;
      }

      .st8 {
        clip-path: url(#clippath-1);
      }

      .st9 {
        fill: #004c93;
      }

      .st10 {
        clip-path: url(#clippath-5);
      }

      .st11 {
        clip-path: url(#clippath-3);
      }

      .st3 {
        font-size: 8px;
      }

      .st12 {
        fill-rule: evenodd;
      }

      .st13 {
        clip-path: url(#clippath-2);
      }

      .st14 {
        fill: url(#linear-gradient);
      }

      .st15 {
        clip-path: url(#clippath);
      }
    </style>
    <clipPath id="clippath">
      <path class="st6" d="M90.7,13.1c.5,0,2.2.2,2.3,2.7h-4.6c-.2-1.3.7-2.5,2.1-2.7,0,0,.2,0,.3,0M85.2,16.9c0,1.1.2,2.2.7,3.2.8,1.7,2.5,2.7,4.4,2.8h1.1c2.1,0,3.9-1.4,4.5-3.4l-3.1-.5c-.2.9-1,1.6-2,1.6-1.8,0-2.5-1.5-2.5-2.8h7.7c0-3.4-1.1-7-5.5-7s-5.3,3-5.3,6.2M75.2,12.7h0v-1.7h-2.9v11.6h3.1v-5.3c0-1,0-2,.3-2.9.4-.9,1.3-1.4,2.2-1.4,1.9,0,1.9,1.7,1.9,3.6v5.9h3.1v-7.2c0-1.1,0-2.9-1.2-3.8-.8-.6-1.7-.9-2.7-.9-1.5,0-3,.7-3.8,2M98.7,8.7v2.3h-1.4v2.4h1.4v5.1c0,1.8,0,2.5.4,3.2.5.7,1.2,1.1,2.1,1.2h1.2c.6,0,1.2-.2,1.8-.4v-.2l-.3-2.2h0c-.4.2-.7.3-1.1.3-.9,0-.9-.5-.9-2.2v-4.7h2.1v-2.4h-2.1v-4.1l-3.1,1.8ZM28.7,15.7h2.6c2.3,0,4.3,0,4.3,2.2,0,.8-.5,1.6-1.3,1.9-.8.2-1.7.2-2.6.2h-3v-4.2ZM28.7,9.3h0ZM28.7,9.3h1.9c1.1,0,2.1,0,3.2.1.8.2,1.3.9,1.2,1.7,0,1.7-1.7,1.8-2.8,1.8h-3.5v-3.7ZM25.5,6.6v16h5.5c3.4,0,4.4,0,5.4-.5,1.6-.8,2.6-2.4,2.6-4.2,0-1.9-1.2-3.5-3-3.9,1.4-.6,2.3-2,2.3-3.5,0-1.3-.7-2.5-1.7-3.2-1-.7-2.3-.8-4.5-.8h-6.4ZM47.3,10.3l2.2,6h-4.4l2.2-6ZM45.6,6.6l-6.2,16.1h3.5l1.3-3.6h6.4l1.4,3.6h3.5l-6.4-16.1h-3.5ZM62.6,6.3c-4.8.3-6.9,4.1-6.9,8.4s2.7,7.9,6.8,8.1h1.2c3,0,5.5-2.2,6.1-5.2l-3.1-1c-.4,1.8-1.4,3.4-3.5,3.4-1.2,0-2.4-.6-3.1-1.6-.6-1.2-.9-2.6-.9-4,0-1,0-5.4,4-5.4,1.6,0,3.1,1.1,3.4,2.7l3.2-.8c-.2-1.1-.8-2.1-1.5-2.9-1.2-1.1-2.7-1.8-4.3-1.8h-1.2Z"/>
    </clipPath>
    <linearGradient id="linear-gradient" x1="-873.7" y1="538.7" x2="-872.7" y2="538.7" gradientTransform="translate(68733.3 8945) scale(78.6 -16.6)" gradientUnits="userSpaceOnUse">
      <stop offset="0" stop-color="#0071b9"/>
      <stop offset=".3" stop-color="#008cc7"/>
      <stop offset=".5" stop-color="#00a0d1"/>
      <stop offset=".6" stop-color="#06a1c9"/>
      <stop offset=".7" stop-color="#17a5b3"/>
      <stop offset=".7" stop-color="#32aa90"/>
      <stop offset=".9" stop-color="#58b25e"/>
      <stop offset="1" stop-color="#88bb20"/>
      <stop offset="1" stop-color="#97be0d"/>
    </linearGradient>
    <clipPath id="clippath-1">
      <rect class="st6" y="6.3" width="108.6" height="20.3"/>
    </clipPath>
    <clipPath id="clippath-2">
      <rect class="st6" y="6.3" width="108.6" height="20.3"/>
    </clipPath>
    <clipPath id="clippath-3">
      <rect class="st6" y="6.3" width="108.6" height="20.3"/>
    </clipPath>
    <clipPath id="clippath-4">
      <path class="st6" d="M9.2,6.3c-.3,0-.7.2-.8.5l-2.1,3.6h1.1l1.7-3c0,0,0-.1.1-.1,0,0,.1,0,.2,0h6.9c0,0,.1,0,.2,0,0,0,.1,0,.1.1l3.5,6c0,0,0,.1,0,.2,0,0,0,.1,0,.2l-3.5,6c0,0,0,.1-.1.1,0,0-.1,0-.2,0h-6.9c0,0-.1,0-.2,0,0,0-.1,0-.1-.1l-1.8-3h-1l2.1,3.7c.1.2.4.4.6.5h7.7c.3,0,.5-.2.6-.5l3.7-6.3c.2-.3.2-.7,0-1l-3.7-6.3c-.2-.3-.5-.5-.8-.5h-7.3Z"/>
    </clipPath>
    <linearGradient id="linear-gradient1" x1="-825.6" y1="534.4" x2="-824.6" y2="534.4" gradientTransform="translate(12319.2 7809.5) scale(14.9 -14.6)" gradientUnits="userSpaceOnUse">
      <stop offset="0" stop-color="#0071b9"/>
      <stop offset=".4" stop-color="#0090c9"/>
      <stop offset=".6" stop-color="#00a0d1"/>
      <stop offset=".7" stop-color="#03a1ce"/>
      <stop offset=".7" stop-color="#0ba2c3"/>
      <stop offset=".8" stop-color="#19a5b1"/>
      <stop offset=".8" stop-color="#2ca998"/>
      <stop offset=".9" stop-color="#45ae77"/>
      <stop offset=".9" stop-color="#64b44f"/>
      <stop offset="1" stop-color="#88bb20"/>
      <stop offset="1" stop-color="#97be0d"/>
    </linearGradient>
    <clipPath id="clippath-5">
      <rect class="st6" y="6.3" width="108.6" height="20.3"/>
    </clipPath>
  </defs>
  <g>
    <g>
      <path class="st7" d="M46.3,17.5v8.1h-14.6v-4.5h-1v4.5H13.1v-4.6h-1v5.6h89.2v-4.9h-1v3.9h-9.3v-4h-1v4h-8.6v-4.4h-1v4.4h-17v-4.3h-1v4.3h-15v-8.1h-1Z"/>
      <path class="st6" d="M0,6.3h108.6v20.3H0V6.3Z"/>
      <g class="st15">
        <rect class="st14" x="25.5" y="6.3" width="78.6" height="16.6"/>
      </g>
      <g class="st8">
        <g>
          <path class="st6" d="M16.5,7.3"/>
          <path class="st4" d="M16.5,7.3"/>
        </g>
      </g>
      <g class="st13">
        <g>
          <path class="st6" d="M16.5,20"/>
          <path class="st4" d="M16.5,20"/>
        </g>
      </g>
      <g class="st11">
        <g>
          <path class="st6" d="M20.1,13.6"/>
          <path class="st4" d="M20.1,13.6"/>
        </g>
      </g>
      <g class="st0">
        <rect class="st5" x="6.2" y="6.3" width="14.9" height="14.6"/>
      </g>
      <path class="st9" d="M1.5,12.4l.3,2.1h-.6l.3-2.1ZM1,11.1l-1,4.9h.9v-.8h1v.8h1l-.9-4.9H1Z"/>
      <g class="st10">
        <g>
          <path class="st9" d="M3,14.3h.9v.6c0,.3,0,.6.4.6s.5-.3.5-.7c0-.3,0-.5-.3-.7l-.9-.6c-.4-.2-.6-.7-.6-1.1,0-.4,0-.7.4-1,.3-.2.6-.3,1-.3.5,0,1.2.2,1.2,1v.5h-.9v-.4c0-.2,0-.5-.4-.5s-.4,0-.4.5,0,.5.3.6l.9.6c.2.1.3.3.5.5.1.2.2.5.1.8,0,.3,0,.7-.2,1-.3.3-.7.5-1.2.5-.8,0-1.4-.3-1.4-1.1v-.7h0Z"/>
          <path class="st9" d="M6.1,11.1h.9v1.9h.8v-1.9h.9v4.9h-.9v-2.2h-.8v2.2h-.9v-4.9Z"/>
          <path class="st9" d="M9.2,11.1h1.8c.9,0,.9.6.9,1v.5c0,.6-.2.7-.6.8.4,0,.7.4.7.9v1c0,.2,0,.5.2.7h-1c0-.2-.1-.4-.1-.5v-1c0-.3,0-.6-.5-.6h-.4v2.2h-.9v-4.9ZM10.1,13.2h.5c.4,0,.4-.2.4-.5v-.5c0-.4-.2-.4-.4-.4h-.5v1.3Z"/>
          <path class="st9" d="M13,11.1h1l.9,4.9h-.9v-.8h-1v.8h-1l1-4.9ZM13.1,14.5h.6l-.3-2.1-.3,2.1Z"/>
          <path class="st9" d="M15.1,11.1h2.4v.7h-1.5v1.2h1.4v.7h-1.4v1.5h1.5v.7h-2.4v-4.9Z"/>
          <path class="st9" d="M106.8,11.2c-1,0-1.8-.8-1.8-1.8,0-1,.8-1.8,1.8-1.8,1,0,1.8.8,1.8,1.8h0c0,1-.8,1.8-1.8,1.8,0,0,0,0,0,0M106.8,7.7c-.9,0-1.6.7-1.6,1.6,0,.9.7,1.6,1.6,1.6.9,0,1.6-.7,1.6-1.6,0-.9-.7-1.6-1.6-1.6,0,0,0,0,0,0M106.8,8.2c.2,0,.4,0,.5,0,.3.1.4.4.3.7,0,.2-.2.3-.4.4.2,0,.3.3.3.5,0,.2,0,.5.2.7h-.5c0-.2-.1-.3-.1-.5,0-.5-.1-.5-.7-.5v1h-.4v-2.3h.7ZM106.4,9.2h.3c.2,0,.5,0,.5-.3,0-.1,0-.2-.2-.3-.1,0-.3,0-.4,0h-.3v.6Z"/>
        </g>
      </g>
    </g>
    <g class="st2">
      <text class="st3" transform="translate(17.6 50.3)"><tspan x="0" y="0">BACnet</tspan></text>
      <text class="st1" transform="translate(45.7 47.6)"><tspan x="0" y="0">®</tspan></text>
      <text class="st3" transform="translate(49.6 50.3)"><tspan x="0" y="0" xml:space="preserve"> is a trademark of ASHRAE.</tspan></text>
    </g>
  </g>
  <g>
    <g>
      <path class="st12" d="M116.3,16.6c0-9.1,7.4-16.6,16.6-16.6s16.6,7.4,16.6,16.6-7.4,16.6-16.6,16.6-16.6-7.4-16.6-16.6M117.1,16.6c0-8.7,7.1-15.8,15.8-15.8s15.8,7.1,15.8,15.8-7.1,15.8-15.8,15.8c-8.7,0-15.8-7.1-15.8-15.8"/>
      <path class="st12" d="M124.4,17.2v2.5h2.4c.6,0,1.5,0,1.5-1.4s-.8-1.1-1.1-1.1h-2.7ZM126.3,21.4v3.1h6.3v-3.1h-.6v-11.9h-2.9v-1.7h7.8v1.7h-2.8v11.9h-.6v3.1h6.3v-3.1h-2.9v-9.7h2v8.1h4.7v1.7h-2.9v3.9h-14.9v-3.9h-3.1v-9.7h4c3.3,0,3.5,2.1,3.5,2.6,0,.6-.2,1.4-.9,2,.6.4,1.2,1.3,1.2,2.5s-.1,1.3-1,2.1c-.7.6-1.7.7-2.4.7h-.5s0,0,0,0ZM124.4,13.3v2.2h2.3c.9,0,1.3-.3,1.3-1.1s-.5-1.1-1.2-1.1h-2.4Z"/>
      <path class="st12" d="M124.6,4.5l.4-.2c.1,0,.3-.1.4,0,0,.2,0,.3,0,.4l-.4.3-.3-.4ZM125.2,6.2l.9-.5c.3-.2.5-.6.3-.9-.1-.2-.4-.3-.6-.2.1-.2.1-.4,0-.5-.2-.3-.5-.3-.8,0l-.8.5,1.1,1.8ZM125.1,5.2l.4-.3c.2-.1.3-.1.4,0s0,.3-.1.4l-.4.3-.3-.5Z"/>
      <path class="st12" d="M128.4,2.8h0l.5.6-.5.2v-.8ZM127.9,4.6h.4c0-.1,0-.6,0-.6l.7-.2.3.4.5-.2-1.4-1.8h-.5c0,.1-.1,2.4-.1,2.4Z"/>
      <path d="M133,2.3c0-.5-.5-.7-1-.7-.6,0-1,.6-1,1.2,0,.6.5,1.1,1.1,1,.5,0,.8-.4.9-.9h-.4c0,.3-.2.5-.4.5-.4,0-.6-.3-.6-.7,0-.4.1-.7.5-.8.2,0,.4.1.5.3h.5Z"/>
      <path d="M134.7,3.8h.4c0,0,.2-.7.2-.7,0-.3.2-.4.4-.4.2,0,.2.2.2.4l-.2.8h.4c0,0,.2-.8.2-.8,0-.4,0-.6-.4-.7-.2,0-.4,0-.5.2h0v-.2s-.4,0-.4,0l-.3,1.5Z"/>
      <path class="st12" d="M138.3,3.9c0,0,.2-.3.5-.2.2,0,.2.2.2.4l-.6-.3ZM139.1,4.6c.2-.4.2-.9-.3-1.1-.4-.2-.8,0-1,.4-.2.4,0,.9.4,1,.3.1.6.1.9-.2l-.3-.2c0,0-.2.1-.4,0-.2,0-.3-.3-.2-.5l1,.5Z"/>
      <path d="M141.7,4.6l-.3-.2-.3.4-.2-.2-.2.2.2.2-.5.7c-.2.2,0,.4.2.6,0,0,.1,0,.2.1l.2-.3s0,0-.1,0c-.1,0-.1-.1,0-.2l.4-.6.2.2.2-.2-.2-.2.3-.4Z"/>
      <polygon points="120.2 9 120 9.4 121.5 10.3 121.1 10.9 121.5 11 122.4 9.6 122 9.4 121.7 9.9 120.2 9"/>
      <polygon points="119 11.5 118.5 13 118.9 13.1 119.2 12 119.7 12.2 119.4 13.2 119.8 13.3 120.1 12.3 120.5 12.5 120.2 13.5 120.5 13.6 121 12.1 119 11.5"/>
      <path d="M118.9,14.6c-.5,0-.8.4-.8.8,0,.6.2.9.6.9.5,0,.6-.4.7-.6.2-.5.2-.6.4-.6.2,0,.2.2.2.3,0,.2-.1.4-.4.4v.4c.4,0,.7-.3.7-.8,0-.4-.1-.8-.5-.8-.4,0-.5.3-.7.6-.1.3-.2.6-.4.6-.2,0-.2-.3-.2-.4,0-.2.2-.5.4-.4v-.4Z"/>
      <polygon points="118.2 18.5 118.2 18.9 119.9 18.7 120 19.3 120.4 19.3 120.2 17.6 119.8 17.6 119.9 18.2 118.2 18.5"/>
      <polygon points="118.7 21 118.8 21.5 120.8 20.8 120.7 20.4 118.7 21"/>
      <polygon points="119.5 23.1 119.7 23.5 120.9 22.8 120.9 22.8 120.1 24.3 120.3 24.7 122.2 23.6 122 23.3 120.7 24 120.7 24 121.5 22.5 121.3 22.1 119.5 23.1"/>
      <path d="M122.5,27.3l.2.2.8-.8-.6-.6-.3.2.3.3c-.2.2-.5.2-.7,0-.3-.3-.1-.7.1-.9.3-.3.6-.4.9,0,.1.2.2.4,0,.6l.3.3c.3-.4.2-.8,0-1.2-.4-.5-1.1-.4-1.5,0-.4.4-.5,1,0,1.5.1.2.3.3.6.2v.2Z"/>
      <polygon points="126.4 30.1 127.8 30.7 127.9 30.3 127 29.9 127.7 28.3 127.3 28.2 126.4 30.1"/>
      <path class="st12" d="M130.5,29.7h0v.8c.1,0-.4,0-.4,0l.4-.7ZM129.2,31.1h.5c0,0,.2-.4.2-.4h.8c0,.1,0,.6,0,.6h.5c0,0-.4-2.1-.4-2.1h-.5c0,0-1.2,1.8-1.2,1.8Z"/>
      <path class="st12" d="M133.2,29.8h.4c.2,0,.3,0,.3.2,0,.2-.1.3-.3.3h-.5s0-.5,0-.5h0ZM132.8,31.5h1c.4,0,.7-.3.7-.7,0-.3-.2-.5-.4-.5.2,0,.3-.2.3-.5,0-.4-.3-.5-.7-.5h-1c0,0,.1,2.2.1,2.2h0ZM133.2,30.6h.5c.2,0,.3,0,.3.3,0,.2-.1.3-.3.3h-.5s0-.5,0-.5h0Z"/>
      <path class="st12" d="M136.4,30c-.1-.4,0-.7.3-.9.4-.1.6.2.8.5.1.3,0,.7-.3.8-.4.1-.7-.2-.8-.5M135.9,30.2c.2.6.7.9,1.3.7.6-.2.8-.8.6-1.4-.2-.6-.7-.9-1.3-.7-.6.2-.8.8-.6,1.4"/>
      <path class="st12" d="M139.3,28.1l.4-.3c.2-.1.3,0,.4,0,.1.2,0,.3-.1.4l-.4.3-.3-.5ZM139.8,29.8l.4-.2-.4-.7.4-.2c.2-.1.3,0,.5,0,.1.1.2.3.3.4l.4-.2c-.1,0-.3-.3-.3-.4-.1-.2-.3-.3-.5-.3h0c.1-.2.1-.4,0-.6-.2-.3-.5-.4-.8-.2l-1,.6,1.1,1.8Z"/>
      <path class="st12" d="M142.2,26.1h0l.7.4-.4.4-.4-.7ZM142.6,27.9l.3-.3-.2-.5.6-.6.4.2.3-.3-2-.9-.3.3.9,2.1Z"/>
      <polygon points="145.1 25 145.3 24.7 143.9 23.7 144.3 23.2 144 23 143 24.4 143.3 24.6 143.7 24.1 145.1 25"/>
      <path class="st12" d="M145.6,21.9c-.3-.1-.6-.4-.5-.8s.5-.4.9-.3c.3.1.6.4.5.8-.1.4-.5.4-.9.3M145.4,22.3c.6.2,1.2,0,1.4-.6.2-.6-.1-1.1-.7-1.3-.6-.2-1.2,0-1.4.6-.2.6.1,1.1.7,1.4"/>
      <path class="st12" d="M145.8,18.4v-.5c0-.2.2-.3.4-.3.2,0,.3.1.3.4v.5c0,0-.6,0-.6,0ZM147.5,19v-.5c0,0-.8,0-.8,0v-.5c0-.2.2-.3.4-.3.2,0,.4,0,.5,0v-.5c0,0-.3,0-.5,0-.2,0-.4,0-.5.3h0c0-.2-.2-.4-.5-.4-.3,0-.6.2-.6.5v1.1c-.1,0,2,.2,2,.2Z"/>
      <polygon points="147.6 15.5 147.5 15.1 145.5 15.3 145.5 15.8 147.6 15.5"/>
      <polygon points="147.3 13.4 146.8 11.9 146.5 12 146.8 13 146.3 13.2 146 12.2 145.7 12.3 145.9 13.3 145.5 13.4 145.2 12.3 144.8 12.5 145.3 14 147.3 13.4"/>
      <path d="M145.6,10.7c.5-.2.4-.7.2-1.1-.3-.5-.7-.6-1-.4-.4.2-.3.7-.2.8.1.5.2.6,0,.7-.2,0-.3,0-.4-.2-.1-.2-.1-.4,0-.5l-.2-.4c-.4.2-.4.7-.2,1.1.2.3.6.6.9.4.4-.2.3-.5.2-.8,0-.3-.2-.6,0-.7.2,0,.4,0,.4.2.1.2.1.5-.1.6l.2.4Z"/>
      <path d="M122.4,7.3c0-.2.1-.3.3-.3s.3.1.3.3-.1.3-.3.3c-.2,0-.3-.1-.3-.3"/>
      <path d="M142.8,7.3c0-.2.1-.3.3-.3s.3.1.3.3-.1.3-.3.3c-.2,0-.3-.1-.3-.3"/>
    </g>
    <path d="M145.3,3.6c0-.2,0-.5.2-.7.1-.2.3-.4.5-.5.2-.1.4-.2.7-.2s.5,0,.7.2.4.3.5.5c.1.2.2.4.2.7s0,.5-.2.7c-.1.2-.3.4-.5.5-.2.1-.4.2-.7.2s-.5,0-.7-.2c-.2-.1-.4-.3-.5-.5-.1-.2-.2-.4-.2-.7ZM145.5,3.6c0,.2,0,.4.2.6.1.2.3.3.4.4s.4.2.6.2.4,0,.6-.2c.2-.1.3-.3.4-.4s.2-.4.2-.6,0-.4-.2-.6c-.1-.2-.3-.3-.4-.4-.2-.1-.4-.2-.6-.2s-.4,0-.6.2c-.2.1-.3.3-.4.4s-.2.4-.2.6ZM147.3,3.2c0,0,0,.2,0,.3,0,0-.1.1-.2.2l.4.7h-.3l-.4-.7h-.2v.7h-.3v-1.6h.5c.2,0,.4,0,.4.1,0,0,.1.2.1.4ZM146.5,3.5h.2c0,0,.2,0,.2,0,0,0,0-.1,0-.2s0-.2,0-.2-.1,0-.2,0h-.2v.5Z"/>
  </g>
</svg>