<svg xmlns="http://www.w3.org/2000/svg" xmlns:xlink="http://www.w3.org/1999/xlink" width="441.562" height="108.722" viewBox="0 0 441.562 108.722"><defs><clipPath id="a"><path d="M406.135,27.692c1.913,0,9.051.737,9.271,11.038h-18.69c-.074-6.181,3.458-11.038,9.418-11.038M383.692,43.145a32.1,32.1,0,0,0,2.8,13.1c4.246,9.118,12.787,10.921,17.748,11.258h4.426c13.878-.966,17.462-11.178,18.443-13.981L414.6,51.386c-.662,2.207-2.134,6.549-7.947,6.549-7.137,0-10.081-5.96-10.3-11.552h31.346c.294-13.907-4.636-28.255-22.442-28.255-14.79,0-21.559,12.214-21.559,25.018m-40.617-17h-.147V19.231h-11.7V66.4h12.509V44.985c0-3.826.074-9.051,1.4-11.773a9.733,9.733,0,0,1,9.05-5.593c7.652,0,7.652,6.844,7.652,14.57V66.323h12.509V36.964c-.074-4.636.074-11.625-4.93-15.451A17.935,17.935,0,0,0,358.6,18.054a18.757,18.757,0,0,0-15.526,8.094M438.363,9.886V19.3h-5.739v9.933h5.739v20.6c0,7.211.221,10.007,1.766,12.95,1.493,2.867,5.021,4.279,8.344,4.71h4.908a25.268,25.268,0,0,0,7.131-1.735v-.673l-1.03-9-.368.074a11.57,11.57,0,0,1-4.636,1.1c-3.458,0-3.458-2.207-3.458-8.9V29.312h8.462V19.378h-8.462V2.6ZM153.9,38.214h10.669c9.2,0,17.292,0,17.292,8.9a7.644,7.644,0,0,1-5.371,7.579c-1.987.736-7.579.736-10.375.736H153.9Zm.074-25.974h0Zm0,0h7.579c9.492,0,11.037,0,12.95.515a6.823,6.823,0,0,1,4.93,6.916c0,6.917-6.769,7.506-11.184,7.506H153.971ZM140.8,1.277V66.47h22.222c13.833,0,18.027-.294,21.854-1.913,6.99-3.091,10.6-10.6,10.6-17,0-3.678-1.177-12.508-12.362-15.746a15.3,15.3,0,0,0,9.2-14.128,15.947,15.947,0,0,0-6.99-13.023c-4.194-3.017-9.418-3.385-18.4-3.385Zm88.518,15.157,9.051,24.209h-17.88ZM222.475,1.2,197.09,66.47h14.054l5.371-14.79h26.048l5.666,14.79h14.422L236.529,1.2ZM291.757.1c-19.621,1.2-28.149,16.788-28.149,34.289,0,19.42,11.035,32.044,27.442,33.112h4.742c19.221-1.174,23.279-16.094,24.621-20.971l-12.73-4.047c-1.619,7.137-5.666,13.76-14.422,13.76-5.813,0-10.228-2.723-12.582-6.4-2.722-4.194-3.458-10.3-3.458-16.409,0-4.194,0-22.074,16.188-22.074,6.769,0,12.141,3.826,13.76,10.963l13.024-3.09c-1.251-4.562-2.943-8.388-6.181-11.7A26.925,26.925,0,0,0,296.517.1Z" transform="translate(-140.8 -0.1)" fill="none"/></clipPath><linearGradient id="b" y1="0.67" x2="0.994" y2="0.714" gradientUnits="objectBoundingBox"><stop offset="0" stop-color="#0071b9"/><stop offset="0.28" stop-color="#008cc7"/><stop offset="0.532" stop-color="#00a0d1"/><stop offset="0.581" stop-color="#06a1c9"/><stop offset="0.655" stop-color="#17a5b3"/><stop offset="0.747" stop-color="#32aa90"/><stop offset="0.852" stop-color="#58b25e"/><stop offset="0.967" stop-color="#88bb20"/><stop offset="1" stop-color="#97be0d"/></linearGradient><clipPath id="c"><rect width="441.562" height="82.568" fill="none"/></clipPath><clipPath id="d"><path d="M91.1,5.5" transform="translate(-91.1 -5.5)" fill="none"/></clipPath><clipPath id="f"><path d="M91.1,75.4" transform="translate(-91.1 -75.4)" fill="none"/></clipPath><clipPath id="h"><path d="M111.3,40.4" transform="translate(-111.3 -40.4)" fill="none"/></clipPath><clipPath id="i"><path d="M46.394.1a3.81,3.81,0,0,0-3.385,1.987L34.621,16.656h4.341L45.879,4.588A2.24,2.24,0,0,1,46.467,4a1.478,1.478,0,0,1,.809-.221H75.385A1.484,1.484,0,0,1,76.194,4a1.506,1.506,0,0,1,.589.589L90.837,28.943a1.488,1.488,0,0,1,.221.81,1.679,1.679,0,0,1-.221.809L76.783,54.918a1.506,1.506,0,0,1-.589.589,1.483,1.483,0,0,1-.809.221H47.2a1.677,1.677,0,0,1-.809-.221,1.506,1.506,0,0,1-.589-.589L38.668,42.63H34.4l8.535,14.863a3.937,3.937,0,0,0,2.626,1.912h31.25a3.764,3.764,0,0,0,2.62-1.912L94.3,31.74a3.72,3.72,0,0,0,0-3.9L79.432,2.087A3.9,3.9,0,0,0,76.047.1Z" transform="translate(-34.4 -0.1)" fill="none"/></clipPath><linearGradient id="j" y1="1.385" x2="1" y2="1.4" gradientUnits="objectBoundingBox"><stop offset="0" stop-color="#0071b9"/><stop offset="0.376" stop-color="#0090c9"/><stop offset="0.632" stop-color="#00a0d1"/><stop offset="0.693" stop-color="#03a1ce"/><stop offset="0.746" stop-color="#0ba2c3"/><stop offset="0.796" stop-color="#19a5b1"/><stop offset="0.845" stop-color="#2ca998"/><stop offset="0.892" stop-color="#45ae77"/><stop offset="0.938" stop-color="#64b44f"/><stop offset="0.983" stop-color="#88bb20"/><stop offset="1" stop-color="#97be0d"/></linearGradient></defs><g transform="translate(-620.219 -19.278)"><g transform="translate(620.219 19.278)"><path d="M139.059,0V32.892H79.839V14.459h-4.15V32.892H4.15V14.163H0V37.043H362.6V16.967h-4.15V32.892H320.776V16.672h-4.15V32.892h-34.8V15.123h-4.151V32.892H208.423v-17.4h-4.151v17.4H143.21V0Z" transform="translate(49.298 45.62)" fill="#9281a8"/><path d="M0,0H441.562V82.568H0Z" fill="none"/><g transform="translate(103.604 0.074)" clip-path="url(#a)"><rect width="319.711" height="67.401" transform="translate(0 0)" fill="url(#b)"/></g><g clip-path="url(#c)"><g transform="translate(67.033 4.047)"><g clip-path="url(#d)"><path d="M91.1,5.5Z" transform="translate(-91.1 -5.5)" fill="#fff"/></g></g></g><g clip-path="url(#c)"><g transform="translate(67.033 55.48)"><g clip-path="url(#f)"><path d="M91.1,75.4Z" transform="translate(-91.1 -75.4)" fill="#fff"/></g></g></g><g clip-path="url(#c)"><g transform="translate(81.896 29.727)"><g clip-path="url(#h)"><path d="M111.3,40.4Z" transform="translate(-111.3 -40.4)" fill="#fff"/></g></g></g><g transform="translate(25.31 0.074)" clip-path="url(#i)"><rect width="60.631" height="59.306" transform="translate(0 0)" fill="url(#j)"/></g><path d="M6.034,31.777l1.177,8.535h-2.5ZM3.9,26.7,0,46.567H3.679l.515-3.238H7.579l.515,3.238h3.679L8.094,26.7Z" transform="translate(0 -7.054)" fill="#004c93"/><g clip-path="url(#c)"><path d="M16.7,39.418h3.679V41.7c0,1.177,0,2.281,1.766,2.281,1.84,0,1.84-1.177,1.84-2.943a2.638,2.638,0,0,0-1.251-2.649l-3.458-2.355A4.934,4.934,0,0,1,16.921,31.4c0-1.545.147-3.017,1.4-4.121A6.355,6.355,0,0,1,22.292,26.1c2.134,0,5.077.883,5.077,4.268v1.987H23.764V30.883c0-.957,0-2.06-1.619-2.06-.957,0-1.692.368-1.692,1.987,0,1.692.368,2.06,1.177,2.575l3.605,2.428a6.766,6.766,0,0,1,1.913,1.913c.515.883.515,1.545.515,3.09,0,1.766,0,2.87-.662,3.9-1.1,1.766-3.385,1.987-4.709,1.987-3.09,0-5.519-1.177-5.519-4.562V39.418Z" transform="translate(-4.412 -6.895)" fill="#004c93"/><path d="M33.5,26.7h3.679v7.873H40.49V26.7h3.679V46.567H40.49V37.516H37.179v9.051H33.5Z" transform="translate(-8.85 -7.054)" fill="#004c93"/><path d="M50.7,26.7h7.285c3.605,0,3.605,2.428,3.605,4.194v2.134c0,2.5-.809,3.017-2.575,3.385a3.178,3.178,0,0,1,2.723,3.458v4.047a3.029,3.029,0,0,0,.883,2.649H58.573a4.367,4.367,0,0,1-.515-2.207V40.092c0-1.324,0-2.281-1.913-2.281H54.379v8.756H50.7Zm3.679,8.315h1.913c1.692,0,1.692-.883,1.692-1.913V31.188c0-1.619-.883-1.619-1.692-1.619H54.379Z" transform="translate(-13.394 -7.054)" fill="#004c93"/><path d="M70.2,26.7h4.194l3.679,19.867H74.394l-.515-3.238H70.494l-.515,3.238H66.3Zm.736,13.613h2.5L72.26,31.777Z" transform="translate(-17.516 -7.054)" fill="#004c93"/><path d="M83.4,26.7h9.639v3.017h-5.96v4.709h5.592v3.017H87.079V43.55H93.26v3.017H83.4Z" transform="translate(-22.033 -7.054)" fill="#004c93"/><path d="M587.485,21.569a7.285,7.285,0,1,1,7.358-7.211,7.252,7.252,0,0,1-7.358,7.211m0-13.98a6.659,6.659,0,1,0,6.7,6.7,6.658,6.658,0,0,0-6.7-6.7m-.074,1.987a5.72,5.72,0,0,1,2.134.221,2.174,2.174,0,0,1,1.471,2.134,2.177,2.177,0,0,1-1.913,2.207,2.019,2.019,0,0,1,1.324,1.913,10.549,10.549,0,0,0,.662,2.723h-1.839a6.184,6.184,0,0,1-.515-1.987c-.295-1.913-.442-2.134-2.723-2.134v4.121h-1.619v-9.2ZM586.087,13.4h1.324c.662,0,1.987,0,1.987-1.251a1.159,1.159,0,0,0-.662-1.1,3.73,3.73,0,0,0-1.619-.147h-1.03Z" transform="translate(-153.281 -1.849)" fill="#004c93"/></g></g><text transform="translate(841 126)" fill="#778495" font-size="8" font-family="Raleway-Regular, Raleway"><tspan x="-65.069" y="0">BACnet</tspan><tspan y="0" font-size="4.666" baseline-shift="2.66639997471509">®</tspan><tspan y="0" xml:space="preserve"> is a trademark of ASHRAE.</tspan></text></g></svg>