<svg xmlns="http://www.w3.org/2000/svg" xmlns:xlink="http://www.w3.org/1999/xlink" width="147.714" height="46" viewBox="0 0 147.714 46"><defs><clipPath id="a"><path d="M206.061,6.887c.471,0,2.226.181,2.28,2.715h-4.6a2.4,2.4,0,0,1,2.317-2.715m-5.52,3.8a7.894,7.894,0,0,0,.688,3.221,4.919,4.919,0,0,0,4.365,2.769h1.089a4.828,4.828,0,0,0,4.536-3.439l-3.077-.525a1.929,1.929,0,0,1-1.955,1.611c-1.756,0-2.479-1.466-2.534-2.841h7.71c.072-3.421-1.14-6.95-5.52-6.95-3.638,0-5.3,3-5.3,6.153m-9.99-4.181h-.036v-1.7h-2.878v11.6h3.077V11.14a8.011,8.011,0,0,1,.344-2.9,2.394,2.394,0,0,1,2.226-1.376c1.882,0,1.882,1.683,1.882,3.584v5.936h3.077V9.167c-.018-1.14.018-2.859-1.213-3.8a4.411,4.411,0,0,0-2.66-.851,4.614,4.614,0,0,0-3.819,1.991m23.437-4V4.824h-1.412V7.267h1.412v5.067c0,1.774.054,2.461.434,3.185a2.629,2.629,0,0,0,2.052,1.158h1.207a6.215,6.215,0,0,0,1.754-.427v-.166l-.253-2.213-.09.018a2.846,2.846,0,0,1-1.14.272c-.851,0-.851-.543-.851-2.19V7.285h2.081V4.842H217.1V.715ZM144.021,9.475h2.624c2.262,0,4.253,0,4.253,2.19a1.88,1.88,0,0,1-1.321,1.864,11.213,11.213,0,0,1-2.552.181h-3Zm.018-6.388h0Zm0,0H145.9a13.711,13.711,0,0,1,3.185.127,1.678,1.678,0,0,1,1.213,1.7c0,1.7-1.665,1.846-2.751,1.846H144.04ZM140.8.39V16.424h5.466c3.4,0,4.434-.072,5.375-.471a4.631,4.631,0,0,0,2.606-4.181,3.87,3.87,0,0,0-3.04-3.873,3.764,3.764,0,0,0,2.262-3.475,3.922,3.922,0,0,0-1.719-3.2C150.718.48,149.433.39,147.225.39Zm21.772,3.728,2.226,5.954h-4.4ZM160.889.371l-6.244,16.053H158.1l1.321-3.638h6.407l1.394,3.638h3.547L164.345.371ZM177.929.1c-4.826.294-6.924,4.129-6.924,8.434,0,4.776,2.714,7.881,6.75,8.144h1.166a6.3,6.3,0,0,0,6.056-5.158l-3.131-1c-.4,1.756-1.394,3.384-3.547,3.384a3.578,3.578,0,0,1-3.095-1.575,7.654,7.654,0,0,1-.851-4.036c0-1.032,0-5.429,3.982-5.429a3.291,3.291,0,0,1,3.384,2.7l3.2-.76a6.239,6.239,0,0,0-1.52-2.878A6.622,6.622,0,0,0,179.1.1Z" transform="translate(-140.8 -0.1)" fill="none"/></clipPath><linearGradient id="b" y1="0.67" x2="0.994" y2="0.714" gradientUnits="objectBoundingBox"><stop offset="0" stop-color="#0071b9"/><stop offset="0.28" stop-color="#008cc7"/><stop offset="0.532" stop-color="#00a0d1"/><stop offset="0.581" stop-color="#06a1c9"/><stop offset="0.655" stop-color="#17a5b3"/><stop offset="0.747" stop-color="#32aa90"/><stop offset="0.852" stop-color="#58b25e"/><stop offset="0.967" stop-color="#88bb20"/><stop offset="1" stop-color="#97be0d"/></linearGradient><clipPath id="c"><rect width="108.606" height="20.308" fill="none"/></clipPath><clipPath id="d"><path d="M91.1,5.5" transform="translate(-91.1 -5.5)" fill="none"/></clipPath><clipPath id="f"><path d="M91.1,75.4" transform="translate(-91.1 -75.4)" fill="none"/></clipPath><clipPath id="h"><path d="M111.3,40.4" transform="translate(-111.3 -40.4)" fill="none"/></clipPath><clipPath id="i"><path d="M37.35.1a.937.937,0,0,0-.833.489L34.454,4.172h1.068l1.7-2.968a.551.551,0,0,1,.145-.145.363.363,0,0,1,.2-.054h6.913a.365.365,0,0,1,.2.054.37.37,0,0,1,.145.145l3.457,5.99a.366.366,0,0,1,.054.2.413.413,0,0,1-.054.2l-3.457,5.99a.37.37,0,0,1-.145.145.365.365,0,0,1-.2.054H37.549a.413.413,0,0,1-.2-.054.37.37,0,0,1-.145-.145L35.45,10.561H34.4l2.1,3.656a.968.968,0,0,0,.646.47h7.686a.926.926,0,0,0,.644-.47l3.656-6.334a.915.915,0,0,0,0-.959L45.476.589A.958.958,0,0,0,44.643.1Z" transform="translate(-34.4 -0.1)" fill="none"/></clipPath><linearGradient id="j" y1="1.385" x2="1" y2="1.4" gradientUnits="objectBoundingBox"><stop offset="0" stop-color="#0071b9"/><stop offset="0.376" stop-color="#0090c9"/><stop offset="0.632" stop-color="#00a0d1"/><stop offset="0.693" stop-color="#03a1ce"/><stop offset="0.746" stop-color="#0ba2c3"/><stop offset="0.796" stop-color="#19a5b1"/><stop offset="0.845" stop-color="#2ca998"/><stop offset="0.892" stop-color="#45ae77"/><stop offset="0.938" stop-color="#64b44f"/><stop offset="0.983" stop-color="#88bb20"/><stop offset="1" stop-color="#97be0d"/></linearGradient></defs><g transform="translate(-763.355 -1744.638)"><g transform="translate(-43.931 70.638)"><g transform="translate(-4494 3049.084)"><path d="M34.2,0V8.09H19.637V3.556H18.616V8.09H1.02V3.484H0V9.111H89.185V4.173H88.165V8.09H78.9V4.1H77.877V8.09H69.317V3.72H68.3V8.09H51.263V3.81H50.242V8.09H35.223V0Z" transform="translate(5313.411 -1363.864)" fill="#9281a8"/><path d="M0,0H108.606V20.308H0Z" transform="translate(5301.286 -1375.084)" fill="none"/><g transform="translate(5326.768 -1375.066)" clip-path="url(#a)"><rect width="78.636" height="16.578" transform="translate(0 0)" fill="url(#b)"/></g><g transform="translate(5301.286 -1375.084)" clip-path="url(#c)"><g transform="translate(16.487 0.995)"><g clip-path="url(#d)"><path d="M91.1,5.5Z" transform="translate(-91.1 -5.5)" fill="#fff"/></g></g></g><g transform="translate(5301.286 -1375.084)" clip-path="url(#c)"><g transform="translate(16.487 13.646)"><g clip-path="url(#f)"><path d="M91.1,75.4Z" transform="translate(-91.1 -75.4)" fill="#fff"/></g></g></g><g transform="translate(5301.286 -1375.084)" clip-path="url(#c)"><g transform="translate(20.143 7.312)"><g clip-path="url(#h)"><path d="M111.3,40.4Z" transform="translate(-111.3 -40.4)" fill="#fff"/></g></g></g><g transform="translate(5307.511 -1375.066)" clip-path="url(#i)"><rect width="14.913" height="14.587" transform="translate(0 0)" fill="url(#j)"/></g><path d="M1.484,27.949l.29,2.1H1.158ZM.959,26.7,0,31.586H.9l.127-.8h.833l.127.8h.9l-.9-4.886Z" transform="translate(5301.286 -1396.952)" fill="#004c93"/><g transform="translate(5301.286 -1375.084)" clip-path="url(#c)"><path d="M16.7,29.376h.9v.561c0,.29,0,.561.434.561.452,0,.452-.29.452-.724a.649.649,0,0,0-.308-.652l-.851-.579a1.214,1.214,0,0,1-.579-1.14A1.231,1.231,0,0,1,17.1,26.39a1.563,1.563,0,0,1,.977-.29c.525,0,1.249.217,1.249,1.05v.489h-.887v-.362c0-.235,0-.507-.4-.507-.235,0-.416.09-.416.489,0,.416.09.507.29.633l.887.6a1.664,1.664,0,0,1,.471.471,1.31,1.31,0,0,1,.127.76,1.667,1.667,0,0,1-.163.959,1.324,1.324,0,0,1-1.158.489c-.76,0-1.357-.29-1.357-1.122v-.67Z" transform="translate(-13.678 -21.376)" fill="#004c93"/><path d="M33.5,26.7h.9v1.936h.814V26.7h.9v4.886h-.9V29.36H34.4v2.226h-.9Z" transform="translate(-27.437 -21.868)" fill="#004c93"/><path d="M50.7,26.7h1.792c.887,0,.887.6.887,1.032v.525c0,.615-.2.742-.633.833a.782.782,0,0,1,.67.851v1a.745.745,0,0,0,.217.652h-1a1.074,1.074,0,0,1-.127-.543v-1.05c0-.326,0-.561-.471-.561H51.6v2.154h-.9Zm.9,2.045h.471c.416,0,.416-.217.416-.471V27.8c0-.4-.217-.4-.416-.4H51.6Z" transform="translate(-41.524 -21.868)" fill="#004c93"/><path d="M67.259,26.7h1.032l.9,4.886h-.9l-.127-.8h-.833l-.127.8h-.9Zm.181,3.348h.615l-.29-2.1Z" transform="translate(-54.301 -21.868)" fill="#004c93"/><path d="M83.4,26.7h2.371v.742H84.3V28.6H85.68v.742H84.3v1.5h1.52v.742H83.4Z" transform="translate(-68.306 -21.868)" fill="#004c93"/><path d="M581.992,10.583A1.792,1.792,0,1,1,583.8,8.81a1.784,1.784,0,0,1-1.81,1.774m0-3.439a1.638,1.638,0,1,0,1.647,1.647,1.638,1.638,0,0,0-1.647-1.647m-.018.489a1.407,1.407,0,0,1,.525.054.554.554,0,0,1-.109,1.068.5.5,0,0,1,.326.471,2.6,2.6,0,0,0,.163.67h-.452a1.522,1.522,0,0,1-.127-.489c-.073-.471-.109-.525-.67-.525V9.9h-.4V7.633Zm-.326.941h.326c.163,0,.489,0,.489-.308A.285.285,0,0,0,582.3,8a.917.917,0,0,0-.4-.036h-.253Z" transform="translate(-475.196 -5.733)" fill="#004c93"/></g></g></g><text transform="translate(911.069 1788.638)" fill="#778495" font-size="8" font-family="Raleway-Regular, Raleway"><tspan x="-130.138" y="0">BACnet</tspan><tspan y="0" font-size="4.666" baseline-shift="2.66639997471509">®</tspan><tspan y="0" xml:space="preserve"> is a trademark of ASHRAE.</tspan></text></g></svg>