<?xml version="1.0" encoding="UTF-8"?>
<svg id="Layer_1" xmlns="http://www.w3.org/2000/svg" version="1.1" xmlns:xlink="http://www.w3.org/1999/xlink" viewBox="0 0 441.6 298">
  <!-- Generator: Adobe Illustrator 30.2.1, SVG Export Plug-In . SVG Version: 2.1.1 Build 1)  -->
  <defs>
    <style>
      .st0 {
        clip-path: url(#clippath-4);
      }

      .st1 {
        font-size: 4.7px;
      }

      .st1, .st2, .st3 {
        isolation: isolate;
      }

      .st1, .st3 {
        fill: #778495;
        font-family: Raleway, Raleway;
      }

      .st4 {
        fill: #fff;
      }

      .st5 {
        fill: url(#linear-gradient1);
      }

      .st6 {
        fill: none;
      }

      .st7 {
        fill: #9281a8;
      }

      .st8 {
        clip-path: url(#clippath-1);
      }

      .st9 {
        fill: #004c93;
      }

      .st10 {
        clip-path: url(#clippath-5);
      }

      .st11 {
        clip-path: url(#clippath-3);
      }

      .st3 {
        font-size: 8px;
      }

      .st12 {
        fill-rule: evenodd;
      }

      .st13 {
        clip-path: url(#clippath-2);
      }

      .st14 {
        fill: url(#linear-gradient);
      }

      .st15 {
        clip-path: url(#clippath);
      }
    </style>
    <clipPath id="clippath">
      <path class="st6" d="M368.9,27.7c1.9,0,9.1.7,9.3,11h-18.7c0-6.2,3.5-11,9.4-11M346.5,43.1c0,4.5,1,9,2.8,13.1,4.2,9.1,12.8,10.9,17.7,11.3h4.4c13.9-1,17.5-11.2,18.4-14l-12.5-2.1c-.7,2.2-2.1,6.5-7.9,6.5s-10.1-6-10.3-11.6h31.3c.3-13.9-4.6-28.3-22.4-28.3s-21.6,12.2-21.6,25M305.9,26.1h-.1v-6.9h-11.7v47.2h12.5v-21.4c0-3.8,0-9.1,1.4-11.8,1.6-3.5,5.2-5.7,9-5.6,7.7,0,7.7,6.8,7.7,14.6v24.1h12.5v-29.4c0-4.6,0-11.6-4.9-15.5-3.1-2.3-6.9-3.5-10.8-3.5-6.2,0-12,3-15.5,8.1M401.2,9.9v9.4h-5.7v9.9h5.7v20.6c0,7.2.2,10,1.8,13,1.5,2.9,5,4.3,8.3,4.7h4.9c2.4-.2,4.9-.8,7.1-1.7v-.7l-1-9h-.4c-1.5.8-3,1.1-4.6,1.2-3.5,0-3.5-2.2-3.5-8.9v-19h8.5v-9.9h-8.5V2.6l-12.7,7.3ZM116.7,38.2h10.7c9.2,0,17.3,0,17.3,8.9.1,3.4-2.1,6.6-5.4,7.6-2,.7-7.6.7-10.4.7h-12.2v-17.2ZM116.8,12.2h0ZM116.8,12.2h7.6c9.5,0,11,0,12.9.5,3.1.9,5.1,3.7,4.9,6.9,0,6.9-6.8,7.5-11.2,7.5h-14.3v-14.9ZM103.6,1.3v65.2h22.2c13.8,0,18-.3,21.9-1.9,7-3.1,10.6-10.6,10.6-17s-1.2-12.5-12.4-15.7c5.6-2.4,9.2-8,9.2-14.1,0-5.2-2.7-10.1-7-13-4.2-3-9.4-3.4-18.4-3.4h-26.1ZM192.1,16.4l9.1,24.2h-17.9l8.8-24.2ZM185.3,1.2l-25.4,65.3h14.1l5.4-14.8h26l5.7,14.8h14.4L199.3,1.2h-14.1ZM254.6,0c-19.6,1.2-28.1,16.8-28.1,34.3s11,32,27.4,33.1h4.7c19.2-1.2,23.3-16.1,24.6-21l-12.7-4c-1.6,7.1-5.7,13.8-14.4,13.8s-10.2-2.7-12.6-6.4c-2.7-4.2-3.5-10.3-3.5-16.4s0-22.1,16.2-22.1,12.1,3.8,13.8,11l13-3.1c-1.3-4.6-2.9-8.4-6.2-11.7-4.7-4.5-11-7.2-17.5-7.4h-4.8Z"/>
    </clipPath>
    <linearGradient id="linear-gradient" x1="-735.7" y1="587.3" x2="-734.7" y2="587.3" gradientTransform="translate(235312.3 39618.7) scale(319.7 -67.4)" gradientUnits="userSpaceOnUse">
      <stop offset="0" stop-color="#0071b9"/>
      <stop offset=".3" stop-color="#008cc7"/>
      <stop offset=".5" stop-color="#00a0d1"/>
      <stop offset=".6" stop-color="#06a1c9"/>
      <stop offset=".7" stop-color="#17a5b3"/>
      <stop offset=".7" stop-color="#32aa90"/>
      <stop offset=".9" stop-color="#58b25e"/>
      <stop offset="1" stop-color="#88bb20"/>
      <stop offset="1" stop-color="#97be0d"/>
    </linearGradient>
    <clipPath id="clippath-1">
      <rect class="st6" width="441.6" height="82.6"/>
    </clipPath>
    <clipPath id="clippath-2">
      <rect class="st6" width="441.6" height="82.6"/>
    </clipPath>
    <clipPath id="clippath-3">
      <rect class="st6" width="441.6" height="82.6"/>
    </clipPath>
    <clipPath id="clippath-4">
      <path class="st6" d="M37.3,0c-1.4,0-2.7.7-3.4,2l-8.4,14.6h4.3l6.9-12.1c.2-.2.4-.4.6-.6.2-.2.5-.2.8-.2h28.1c.3,0,.6,0,.8.2.2.1.5.3.6.6l14.1,24.4c.1.2.2.5.2.8,0,.3,0,.6-.2.8l-14.1,24.4c-.1.2-.3.5-.6.6-.2.2-.5.2-.8.2h-28.2c-.3,0-.6,0-.8-.2-.2-.1-.5-.3-.6-.6l-7.1-12.3h-4.3l8.5,14.9c.6,1,1.5,1.7,2.6,1.9h31.2c1.1-.2,2.1-.9,2.6-1.9l14.9-25.8c.7-1.2.7-2.7,0-3.9l-14.9-25.8c-.7-1.2-2-2-3.4-2h-29.7Z"/>
    </clipPath>
    <linearGradient id="linear-gradient1" x1="-725.8" y1="586.3" x2="-724.8" y2="586.3" gradientTransform="translate(44033 34802.1) scale(60.6 -59.3)" gradientUnits="userSpaceOnUse">
      <stop offset="0" stop-color="#0071b9"/>
      <stop offset=".4" stop-color="#0090c9"/>
      <stop offset=".6" stop-color="#00a0d1"/>
      <stop offset=".7" stop-color="#03a1ce"/>
      <stop offset=".7" stop-color="#0ba2c3"/>
      <stop offset=".8" stop-color="#19a5b1"/>
      <stop offset=".8" stop-color="#2ca998"/>
      <stop offset=".9" stop-color="#45ae77"/>
      <stop offset=".9" stop-color="#64b44f"/>
      <stop offset="1" stop-color="#88bb20"/>
      <stop offset="1" stop-color="#97be0d"/>
    </linearGradient>
    <clipPath id="clippath-5">
      <rect class="st6" width="441.6" height="82.6"/>
    </clipPath>
  </defs>
  <g>
    <g>
      <path class="st7" d="M188.4,45.6v32.9h-59.2v-18.4h-4.2v18.4H53.4v-18.7h-4.2v22.9h362.6v-20.1h-4.1v15.9h-37.7v-16.2h-4.1v16.2h-34.8v-17.8h-4.2v17.8h-69.3v-17.4h-4.2v17.4h-61.1v-32.9h-4.2Z"/>
      <path class="st6" d="M0,0h441.6v82.6H0V0Z"/>
      <g class="st15">
        <rect class="st14" x="103.6" y="0" width="319.7" height="67.4"/>
      </g>
      <g class="st8">
        <g>
          <path class="st6" d="M67,4"/>
          <path class="st4" d="M67,4"/>
        </g>
      </g>
      <g class="st13">
        <g>
          <path class="st6" d="M67,55.5"/>
          <path class="st4" d="M67,55.5"/>
        </g>
      </g>
      <g class="st11">
        <g>
          <path class="st6" d="M81.9,29.7"/>
          <path class="st4" d="M81.9,29.7"/>
        </g>
      </g>
      <g class="st0">
        <rect class="st5" x="25.3" y="0" width="60.6" height="59.3"/>
      </g>
      <path class="st9" d="M6,24.7l1.2,8.5h-2.5l1.3-8.5ZM3.9,19.6L0,39.5h3.7l.5-3.2h3.4l.5,3.2h3.7l-3.7-19.9H3.9Z"/>
      <g class="st10">
        <g>
          <path class="st9" d="M12.3,32.5h3.7v2.3c0,1.2,0,2.3,1.8,2.3s1.8-1.2,1.8-2.9c.2-1.1-.3-2.1-1.3-2.6l-3.5-2.4c-1.6-1-2.5-2.8-2.4-4.6,0-1.5.1-3,1.4-4.1,1.2-.8,2.6-1.2,4-1.2,2.1,0,5.1.9,5.1,4.3v2h-3.6v-1.5c0-1,0-2.1-1.6-2.1s-1.7.4-1.7,2,.4,2.1,1.2,2.6l3.6,2.4c.8.5,1.4,1.2,1.9,1.9.5.9.5,1.5.5,3.1s0,2.9-.7,3.9c-1.1,1.8-3.4,2-4.7,2-3.1,0-5.5-1.2-5.5-4.6v-2.7h0Z"/>
          <path class="st9" d="M24.6,19.6h3.7v7.9h3.3v-7.9h3.7v19.9h-3.7v-9.1h-3.3v9.1h-3.7v-19.9Z"/>
          <path class="st9" d="M37.3,19.6h7.3c3.6,0,3.6,2.4,3.6,4.2v2.1c0,2.5-.8,3-2.6,3.4,1.7.2,2.9,1.8,2.7,3.5v4c-.2,1,.2,2,.9,2.6h-4c-.4-.7-.5-1.4-.5-2.2v-4.3c0-1.3,0-2.3-1.9-2.3h-1.8v8.8h-3.7v-19.9ZM41,28h1.9c1.7,0,1.7-.9,1.7-1.9v-1.9c0-1.6-.9-1.6-1.7-1.6h-1.9v5.4Z"/>
          <path class="st9" d="M52.7,19.6h4.2l3.7,19.9h-3.7l-.5-3.2h-3.4l-.5,3.2h-3.7l3.9-19.9ZM53.4,33.3h2.5l-1.2-8.5-1.3,8.5Z"/>
          <path class="st9" d="M61.4,19.6h9.6v3h-6v4.7h5.6v3h-5.6v6.1h6.2v3h-9.9v-19.9Z"/>
          <path class="st9" d="M434.2,19.7c-4,0-7.3-3.3-7.2-7.4,0-4,3.3-7.3,7.4-7.2s7.3,3.3,7.2,7.4h0c0,4-3.3,7.2-7.3,7.2,0,0,0,0,0,0M434.2,5.7c-3.7,0-6.6,3-6.6,6.7,0,3.7,3,6.6,6.7,6.6,3.6,0,6.6-3,6.6-6.6,0-3.7-2.9-6.7-6.6-6.7,0,0,0,0,0,0M434.1,7.7c.7,0,1.4,0,2.1.2.9.3,1.5,1.2,1.5,2.1,0,1.1-.8,2.1-1.9,2.2.8.3,1.3,1.1,1.3,1.9,0,.9.3,1.8.7,2.7h-1.8c-.3-.6-.5-1.3-.5-2-.3-1.9-.4-2.1-2.7-2.1v4.1h-1.6V7.7h3ZM432.8,11.6h1.3c.7,0,2,0,2-1.3,0-.5-.2-.9-.7-1.1-.5-.2-1.1-.2-1.6-.1h-1v2.5Z"/>
        </g>
      </g>
    </g>
    <g class="st2">
      <text class="st3" transform="translate(155.7 106.7)"><tspan x="0" y="0">BACnet</tspan></text>
      <text class="st1" transform="translate(183.8 104.1)"><tspan x="0" y="0">®</tspan></text>
      <text class="st3" transform="translate(187.7 106.7)"><tspan x="0" y="0" xml:space="preserve"> is a trademark of ASHRAE.</tspan></text>
    </g>
  </g>
  <g>
    <g>
      <path class="st12" d="M142.9,222c0-42,34-76,76-76s76,34,76,76-34,76-76,76-76-34.1-76-76M146.4,222c0-40,32.4-72.5,72.5-72.5s72.5,32.5,72.5,72.5-32.5,72.5-72.5,72.5c-40,0-72.5-32.5-72.5-72.5"/>
      <path class="st12" d="M180,224.8v11.5h10.8c2.8,0,6.9-.1,6.9-6.2s-3.5-5.3-5.2-5.3h-12.5ZM188.6,244.2v14.4h28.9v-14.4h-2.8v-54.6h-13.5v-7.7h35.8v7.7h-13.1v54.6h-2.8v14.4h28.9v-14.4h-13.5v-44.7h9.2v37h21.4v7.7h-13.5v17.9h-68.4v-17.9h-14.3v-44.7h18.5c15.3,0,16.1,9.9,16.1,11.7,0,2.7-1,6.5-4.2,9.2,2.6,2,5.3,6,5.3,11.3s-.7,6-4.7,9.5c-3.1,2.6-8,3.1-10.9,3.1h-2.3s0,0,0,0ZM180,207v10.2h10.4c3.9,0,6.2-1.5,6.2-5.1s-2.5-5.1-5.7-5.1h-10.9Z"/>
      <path class="st12" d="M181,166.6l1.7-1.1c.6-.4,1.3-.6,1.8.2.4.7.2,1.2-.5,1.7l-1.8,1.2-1.2-1.9ZM183.6,174.4l3.9-2.5c1.5-.9,2.4-2.6,1.3-4.2-.6-1-1.6-1.4-2.8-1.1.5-.8.5-1.6,0-2.4-1-1.5-2.3-1.3-3.9-.3l-3.8,2.5,5.2,8.1ZM183,169.7l1.9-1.2c.8-.5,1.5-.5,2,.3s0,1.5-.6,1.9l-1.9,1.2-1.4-2.3Z"/>
      <path class="st12" d="M198.2,159h0l2.3,3-2.4.8v-3.7ZM196,167.3l2-.7v-2.3c0,0,3.5-1.1,3.5-1.1l1.4,1.8,2.1-.7-6.4-8.1-2.1.7-.5,10.3Z"/>
      <path d="M219.6,156.4c-.4-2.2-2.3-3.3-4.4-3.2-3,.2-4.6,2.6-4.4,5.4.2,2.8,2.1,4.9,5.1,4.7,2.4-.2,3.9-1.8,4-4.2l-2,.2c0,1.3-.8,2.2-2,2.3-1.9.1-2.7-1.4-2.9-3,0-1.7.5-3.3,2.4-3.5,1.1,0,2,.6,2.2,1.5l2.1-.2Z"/>
      <path d="M227.1,163.5l1.9.4.7-3.6c.3-1.4.8-1.9,1.8-1.7.9.2,1.1.8.9,1.9l-.7,3.9,1.9.4.8-4.2c.3-1.7,0-2.9-2-3.3-.8-.2-1.7,0-2.3.7h0l.2-.9-1.8-.4-1.3,6.9Z"/>
      <path class="st12" d="M243.6,163.8c.2-.5.9-1.2,2.1-.7.9.4,1,1,.8,2l-2.9-1.3ZM247.7,166.9c1-1.9.8-4.2-1.4-5.2-1.9-.9-3.9,0-4.7,1.9-.9,2-.3,3.9,1.8,4.8,1.4.6,2.8.5,3.9-.8l-1.6-.7c-.3.3-1.1.5-1.7.2-1-.4-1.3-1.2-.9-2.3l4.6,2.1Z"/>
      <path d="M259.6,167.3l-1.6-1.1-1.2,1.7-.9-.7-.8,1,.9.7-2.4,3.3c-.8,1.1-.2,1.9.8,2.6.3.2.7.5.9.6l.9-1.2c-.2,0-.4-.2-.5-.3-.5-.4-.6-.6-.2-1.1l2-2.8,1.1.8.8-1-1.1-.8,1.2-1.7Z"/>
      <polygon points="160.9 187.4 159.8 189.3 166.5 193.3 165 195.8 166.5 196.7 170.6 189.9 169.1 189 167.6 191.5 160.9 187.4"/>
      <polygon points="155.3 198.7 153 205.7 154.7 206.2 156.3 201.3 158.6 202 157.1 206.5 158.7 207 160.2 202.5 162.1 203.2 160.5 208 162.2 208.6 164.4 201.7 155.3 198.7"/>
      <path d="M154.8,213c-2.3-.3-3.6,1.6-3.8,3.7-.3,2.6.9,4.1,2.6,4.3,2.2.2,2.9-1.9,3.1-2.6.9-2.3,1-2.8,1.8-2.7.8,0,1,.9.9,1.6,0,1-.5,1.8-1.6,1.7l-.2,2c2.2.2,3.3-1.5,3.5-3.5.2-1.7-.5-3.7-2.5-3.9-1.8-.2-2.5,1.2-3,2.6-.5,1.4-.9,2.8-1.9,2.7-1-.1-1.1-1.2-1-2,.1-1.1.7-2.1,2-1.9l.2-2Z"/>
      <polygon points="151.5 230.9 151.7 233 159.5 231.9 159.9 234.7 161.7 234.5 160.6 226.6 158.8 226.9 159.2 229.8 151.5 230.9"/>
      <polygon points="153.9 242.6 154.5 244.6 163.7 241.6 163 239.6 153.9 242.6"/>
      <polygon points="157.4 252.1 158.4 253.9 164 250.7 164 250.8 160.3 257.4 161.4 259.2 169.8 254.6 168.8 252.8 163.2 256 163.2 256 166.9 249.3 165.9 247.4 157.4 252.1"/>
      <path d="M171.3,271.4l.9,1,3.8-3.6-2.8-2.9-1.2,1.1,1.5,1.6c-1.1.8-2.1.7-3.1-.3-1.3-1.4-.6-3,.6-4.1,1.2-1.2,2.9-1.7,4.2-.3.7.7.8,1.7.2,2.6l1.4,1.5c1.5-1.7,1.1-3.9-.3-5.3-2-2.2-4.9-1.9-7,0-2,1.9-2.5,4.7-.4,6.9.6.7,1.6,1.2,2.8,1l-.6.9Z"/>
      <polygon points="189.3 284.1 195.6 286.8 196.3 285.2 192 283.3 195.1 276.1 193.1 275.3 189.3 284.1"/>
      <path class="st12" d="M207.9,282.4h0l.6,3.7-2.5-.4,1.9-3.3ZM202,288.8l2.1.4,1.1-2,3.6.6.4,2.3,2.2.4-1.9-10.1-2.1-.4-5.3,8.9Z"/>
      <path class="st12" d="M220.3,282.7h2c.8-.1,1.5,0,1.5.9,0,.8-.5,1.2-1.2,1.2h-2.1c0,.1-.2-2.1-.2-2.1h0ZM218.6,290.8l4.7-.2c1.7,0,3.4-1,3.3-3,0-1.2-.7-2.1-1.9-2.4.8-.5,1.2-1.1,1.2-2.1,0-1.8-1.4-2.3-3.2-2.2l-4.5.2.5,9.6h0ZM220.5,286.4h2.3c.9-.2,1.6.2,1.6,1.2,0,1-.6,1.3-1.5,1.3h-2.3c0,.1-.2-2.5-.2-2.5h0Z"/>
      <path class="st12" d="M235,283.9c-.5-1.6-.3-3.4,1.5-4,1.8-.6,3,.7,3.5,2.4.5,1.5.3,3.3-1.5,3.9-1.8.6-3-.7-3.5-2.3M233,284.5c.9,2.6,3.2,4.2,6.1,3.3,2.8-.9,3.8-3.6,2.9-6.2-.9-2.7-3.2-4.3-6.1-3.4-2.8.9-3.8,3.6-2.9,6.3"/>
      <path class="st12" d="M248.5,274.9l2-1.2c.8-.5,1.4-.4,1.9.4.5.8.3,1.4-.5,1.9l-2,1.2-1.4-2.3ZM250.9,282.8l1.8-1.1-2-3.2,1.8-1.1c.9-.6,1.5-.4,2.1.4.5.6,1,1.4,1.5,1.8l1.8-1.1c-.6-.3-1.2-1.2-1.6-1.7-.6-.8-1.4-1.5-2.4-1.2h0c.7-.9.6-1.9,0-2.9-.8-1.2-2.3-1.7-3.8-.8l-4.4,2.7,5.1,8.2Z"/>
      <path class="st12" d="M261.7,265.7h0l3.4,1.6-1.8,1.8-1.6-3.4ZM263.5,274.1l1.5-1.5-1-2.1,2.6-2.6,2,1,1.6-1.6-9.4-4.3-1.6,1.5,4.3,9.4Z"/>
      <polygon points="275 261 276.2 259.2 269.7 254.8 271.3 252.5 269.8 251.5 265.4 258 266.9 259 268.5 256.6 275 261"/>
      <path class="st12" d="M277.3,246.6c-1.6-.6-2.9-1.8-2.2-3.6.6-1.8,2.4-1.9,4-1.3,1.5.5,2.8,1.8,2.1,3.6-.6,1.8-2.4,1.9-3.9,1.4M276.6,248.6c2.6.9,5.3,0,6.3-2.7,1-2.8-.5-5.2-3.1-6.2-2.7-1-5.4,0-6.4,2.7-1,2.8.5,5.2,3.2,6.2"/>
      <path class="st12" d="M278.3,230.4l.2-2.3c0-.9.6-1.4,1.5-1.3,1,0,1.3.7,1.2,1.6l-.2,2.3-2.7-.3ZM286,233.3l.2-2.1-3.8-.4.2-2.1c.1-1.1.6-1.4,1.6-1.5.8,0,1.7,0,2.3,0l.2-2.1c-.6.3-1.7.2-2.3.2-1,0-2,.2-2.4,1.2h0c-.3-1.1-1.1-1.6-2.3-1.8-1.5-.2-2.8.8-2.9,2.5l-.5,5.2,9.6,1Z"/>
      <polygon points="286.5 217.3 286.3 215.2 276.7 216.2 276.9 218.3 286.5 217.3"/>
      <polygon points="285.1 207.5 283.1 200.4 281.4 200.9 282.8 205.9 280.5 206.5 279.2 202 277.6 202.5 278.9 207 276.9 207.6 275.5 202.7 273.8 203.2 275.8 210.1 285.1 207.5"/>
      <path d="M277.5,195.2c2.1-1.1,2-3.4,1-5.3-1.2-2.3-3.1-2.9-4.6-2-1.9,1.1-1.3,3.2-1.1,3.9.6,2.4.8,2.9,0,3.2-.7.4-1.3-.2-1.7-.8-.5-.9-.6-1.8.4-2.4l-1-1.8c-1.9,1.1-1.8,3.1-.8,4.9.9,1.5,2.6,2.7,4.3,1.7,1.6-.9,1.4-2.4,1-3.8-.4-1.4-.9-2.8,0-3.3.9-.5,1.6.4,1.9,1.1.5,1,.6,2.1-.5,2.7l1,1.9Z"/>
      <path d="M170.8,179.6c0-.8.6-1.4,1.4-1.4s1.4.6,1.4,1.4-.6,1.4-1.4,1.4c-.8,0-1.4-.6-1.4-1.4"/>
      <path d="M264.3,179.6c0-.8.6-1.4,1.4-1.4s1.4.6,1.4,1.4-.6,1.4-1.4,1.4c-.8,0-1.4-.6-1.4-1.4"/>
    </g>
    <path d="M276.1,162.4c0-1.1.3-2.2.8-3.2.6-1,1.3-1.8,2.3-2.3,1-.6,2-.9,3.2-.9s2.2.3,3.2.8,1.8,1.3,2.3,2.3c.6,1,.9,2,.9,3.2s-.3,2.1-.8,3.1c-.5,1-1.3,1.8-2.3,2.3-1,.6-2.1.9-3.2.9s-2.2-.3-3.2-.9c-1-.6-1.8-1.4-2.3-2.3-.5-1-.8-2-.8-3.1ZM277,162.4c0,1,.2,1.9.7,2.7.5.8,1.2,1.5,2,2s1.8.7,2.7.7,1.9-.2,2.7-.7c.8-.5,1.5-1.2,2-2s.7-1.7.7-2.7-.2-1.9-.7-2.7c-.5-.8-1.2-1.5-2-2-.8-.5-1.7-.7-2.7-.7s-1.9.2-2.7.7c-.8.5-1.5,1.2-2,2s-.7,1.7-.7,2.7ZM285,160.9c0,.5-.1.8-.4,1.2-.2.3-.6.6-1,.8l2,3.3h-1.4l-1.7-3h-1.1v3h-1.2v-7.5h2.2c.9,0,1.6.2,2.1.5.4.4.7.9.7,1.7ZM281.3,162.1h.9c.4,0,.8-.1,1.1-.4.3-.2.4-.5.4-.9s-.1-.7-.4-.9-.6-.3-1.1-.3h-.9v2.4Z"/>
  </g>
</svg>