<?xml version="1.0" encoding="UTF-8"?>
<svg id="Layer_1" data-name="Layer 1" xmlns="http://www.w3.org/2000/svg" xmlns:xlink="http://www.w3.org/1999/xlink" viewBox="0 0 603 53.798999786376953">
  <defs>
    <style>
      .cls-1 {
        fill: #4498d8;
      }

      .cls-2 {
        fill: none;
      }

      .cls-3 {
        fill: #221f20;
      }

      .cls-4 {
        isolation: isolate;
      }

      .cls-5 {
        fill: #58595b;
      }

      .cls-6 {
        clip-path: url(#clippath);
      }
    </style>
    <clipPath id="clippath">
      <rect class="cls-2" width="305.43798828125" height="53.798004150390625"/>
    </clipPath>
  </defs>
  <g class="cls-6">
    <g>
      <path class="cls-1" d="M192.680015563964844,52.222000122070312c-.136138916015625.000461578369141-.26837158203125-.045383453369141-.375-.130001068115234-12.6563720703125-9.968494415283203-14.8353271484375-28.3095703125-4.8668212890625-40.965941429138184,9.968475341796875-12.656371235847473,28.3095703125-14.835326671600342,40.9659423828125-4.866833209991455,1.636199951171875,1.288722515106201,3.129669189453125,2.748974323272705,4.45489501953125,4.355773448944092.204376220703125.265729904174805.154632568359375.646829605102539-.111083984375.851210594177246-.253021240234375.194610595703125-.613555908203125.159992218017578-.824920654296875-.07921028137207-9.824798583984375-11.911789000034332-27.44580078125-13.603620052337646-39.35760498046875-3.778810501098633-11.911773681640625,9.824809074401855-13.603607177734375,27.445805549621582-3.77880859375,39.35759449005127,1.270050048828125,1.539817810058594,2.701324462890625,2.939201354980469,4.269378662109375,4.174217224121094.263427734375.206428527832031.309661865234375.587329864501953.103240966796875.850772857666016-.1153564453125.147212982177734-.292236328125.232917785644531-.479248046875.232227325439453"/>
      <path class="cls-1" d="M193.620002746582031,46.789005279541016c-.15911865234375.000652313232422-.31201171875-.061935424804688-.42498779296875-.173999786376953-9.6329345703125-9.476345062255859-9.759857177734375-24.967470169067383-.28350830078125-34.600399971008301,8.4361572265625-8.575554370880127,21.85455322265625-9.746424674987793,31.64849853515625-2.761599540710449.272552490234375.194676399230957.335693359375.573440551757812.1409912109375.845993041992188-.194671630859375.272552490234375-.57342529296875.33568286895752-.845977783203125.141006469726562h0c-10.459991455078125-7.451615333557129-24.980255126953125-5.012834548950195-32.431854248046875,5.447170257568359-6.627960205078125,9.303810119628906-5.516754150390625,22.043960571289062,2.621826171875,30.059829711914062.2391357421875.234149932861328.243194580078125.617824554443359.009033203125.856964111328125-.114227294921875.116680145263672-.270721435546875.18231201171875-.43402099609375.182037353515625"/>
      <path class="cls-1" d="M194.828987121582031,41.063999176025391c-.19403076171875.000095367431641-.376434326171875-.092414855957031-.490997314453125-.249000549316406-6.154571533203125-8.466220855712891-4.6566162109375-20.260171890258789,3.41900634765625-26.919000625610352.260650634765625-.210821151733398.642852783203125-.170429229736328.853668212890625.090219497680664.207794189453125.256893157958984.17193603515625.632795333862305-.080657958984375.845781326293945-7.581451416015625,6.250165939331055-8.9879150390625,17.321756362915039-3.209991455078125,25.268999099731445.197723388671875.270038604736328.13909912109375.64923095703125-.130950927734375.846950531005859-.104156494140625.076263427734375-.229949951171875.117271423339844-.359039306640625.117050170898438"/>
      <path class="cls-5" d="M211.849014282226562,13.476005554199219h1.29998779296875l13.20001220703125,30.716999053955078h-1.600006103515625l-4.5419921875-10.600002288818359h-15.399993896484375l-4.542999267578125,10.599998474121094h-1.64300537109375l13.227996826171875-30.716995239257812ZM219.723007202148438,32.296005249023438l-7.225006103515625-16.916999816894531-7.26800537109375,16.916999816894531h14.493011474609375Z"/>
      <path class="cls-5" d="M240.704986572265625,23.080997467041016c-1.96942138671875.047607421875-3.868988037109375.739223480224609-5.407989501953125,1.969001770019531-1.567657470703125,1.287143707275391-2.68780517578125,3.037361145019531-3.20001220703125,5v14.142997741699219h-1.47100830078125v-22.5h1.428009033203125v5.71099853515625c.72607421875-1.519645690917969,1.7918701171875-2.851978302001953,3.114990234375-3.894001007080078,1.193389892578125-.964893341064453,2.631683349609375-1.578777313232422,4.15399169921875-1.772998809814453.2869873046875-.028999328613281.55499267578125-.043998718261719.79998779296875-.043998718261719h.584014892578125l-.001983642578125,1.38800048828125Z"/>
      <path class="cls-5" d="M255.024993896484375,23.080997467041016c-1.96942138671875.047607421875-3.868988037109375.739223480224609-5.407989501953125,1.969001770019531-1.567657470703125,1.287143707275391-2.68780517578125,3.037361145019531-3.20001220703125,5v14.142997741699219h-1.470001220703125v-22.5h1.428009033203125v5.71099853515625c.726043701171875-1.519664764404297,1.791839599609375-2.852005004882812,3.114990234375-3.894001007080078,1.193389892578125-.964893341064453,2.631683349609375-1.578777313232422,4.15399169921875-1.772998809814453.2869873046875-.028999328613281.55499267578125-.043998718261719.79998779296875-.043998718261719h.584014892578125l-.00299072265625,1.38800048828125Z"/>
      <path class="cls-5" d="M264.415008544921875,44.626003265380859c-.992523193359375.008712768554688-1.97735595703125-.175010681152344-2.899993896484375-.541000366210938-.86358642578125-.340980529785156-1.656097412109375-.839820861816406-2.337005615234375-1.471000671386719-.6610107421875-.616306304931641-1.19061279296875-1.35986328125-1.5570068359375-2.186000823974609-.3798828125-.857776641845703-.57183837890625-1.786907196044922-.56298828125-2.724998474121094-.00897216796875-.918834686279297.23046875-1.823024749755859.6929931640625-2.617000579833984.483367919921875-.817756652832031,1.140533447265625-1.519302368164062,1.92498779296875-2.055000305175781.8970947265625-.611339569091797,1.89208984375-1.064865112304688,2.941986083984375-1.340999603271484,1.219940185546875-.327793121337891,2.478851318359375-.487934112548828,3.74200439453125-.476001739501953,1.282196044921875.000331878662109,2.562408447265625.100635528564453,3.829010009765625.299999237060547,1.190155029296875.17706298828125,2.357879638671875.481475830078125,3.483001708984375.908000946044922v-2.418994903564453c.0989990234375-1.980026245117188-.593536376953125-3.918132781982422-1.92498779296875-5.387001037597656-1.360687255859375-1.37310791015625-3.240081787109375-2.104373931884766-5.170989990234375-2.012001037597656-1.200592041015625.021274566650391-2.38702392578125.2633056640625-3.5.714000701904297-1.323760986328125.521697998046875-2.574462890625,1.212429046630859-3.72100830078125,2.055000305175781l-.691986083984375-1.081001281738281c2.883331298828125-1.961334228515625,5.54998779296875-2.942333221435547,8-2.943000793457031,2.30499267578125-.122745513916016,4.556182861328125.724708557128906,6.2080078125,2.337001800537109,1.58282470703125,1.743549346923828,2.400787353515625,4.048744201660156,2.27099609375,6.400001525878906v11.770999908447266c0,.634666442871094.259674072265625.951999664306641.77899169921875.951999664306641v1.384998321533203c-.076507568359375.027153015136719-.156829833984375.042003631591797-.238006591796875.043998718261719h-.197021484375c-.47076416015625.00927734375-.921875-.188491821289062-1.2340087890625-.541000366210938-.332061767578125-.358184814453125-.51141357421875-.831703186035156-.5-1.319999694824219v-1.990001678466797c-1.0548095703125,1.368782043457031-2.439208984375,2.448020935058594-4.02398681640625,3.137001037597656-1.67523193359375.740959167480469-3.489288330078125,1.115970611572266-5.321014404296875,1.099998474121094M264.579986572265625,43.368999481201172c1.088653564453125-.002559661865234,2.172271728515625-.148136138916016,3.222991943359375-.432998657226562,1.02264404296875-.263389587402344,2.005126953125-.663314819335938,2.920989990234375-1.188999176025391.80462646484375-.454174041748047,1.522369384765625-1.047344207763672,2.1199951171875-1.751998901367188.51837158203125-.586219787597656.8099365234375-1.338546752929688.821990966796875-2.120998382568359v-4.240001678466797c-2.29302978515625-.873634338378906-4.72821044921875-1.314418792724609-7.1820068359375-1.299999237060547-1.09393310546875-.011024475097656-2.184661865234375.119728088378906-3.2449951171875.388999938964844-.89593505859375.223045349121094-1.750396728515625.587993621826172-2.531005859375,1.081001281738281-.668121337890625.422409057617188-1.23052978515625.992336273193359-1.644012451171875,1.666000366210938-.392333984375.66058349609375-.594451904296875,1.416759490966797-.584014892578125,2.185001373291016-.006988525390625.775707244873047.15545654296875,1.543586730957031.47601318359375,2.25.3116455078125.684089660644531.753143310546875,1.301170349121094,1.29998779296875,1.817001342773438.557525634765625.528064727783203,1.213287353515625.941551208496094,1.930084228515625,1.216995239257812.7655029296875.294460296630859,1.579833984375.441379547119141,2.399993896484375.432998657226562"/>
      <path class="cls-5" d="M283.06298828125,52.412994384765625c.6917724609375.049919128417969,1.386077880859375-.052490234375,2.03399658203125-.300003051757812.1787109375-.121238708496094.332763671875-.275299072265625.454010009765625-.454002380371094.24200439453125-.371406555175781.45111083984375-.763221740722656.625-1.170989990234375.2586669921875-.562667846679688.604644775390625-1.341335296630859,1.037994384765625-2.33599853515625.433319091796875-.994667053222656.99566650390625-2.314327239990234,1.68701171875-3.958999633789062l-10.25299072265625-22.5h1.5570068359375l9.475006103515625,20.94000244140625,8.9119873046875-20.94000244140625h1.47100830078125l-12.847015380859375,30.114997863769531c-.41717529296875.990715026855469-1.317840576171875,1.694587707519531-2.3800048828125,1.860000610351562-.2852783203125.057464599609375-.574371337890625.093894958496094-.864990234375.109001159667969-.288665771484375.014671325683594-.59130859375.022003173828125-.907989501953125.022003173828125l-.000030517578125-1.386009216308594Z"/>
      <path class="cls-3" d="M169.56298828125,41.964004516601562c-.089599609375-.023880004882812-.182342529296875-.03399658203125-.274993896484375-.029998779296875h-.1099853515625v.522003173828125h.17999267578125c.091766357421875.006202697753906.18304443359375-.017669677734375.260009765625-.068000793457031.06597900390625-.049827575683594.100616455078125-.130882263183594.09100341796875-.212997436523438.002899169921875-.094749450683594-.056304931640625-.180320739746094-.14599609375-.21099853515625M168.716033935546875,43.418014526367188v-1.800003051757812h.864990234375c.125701904296875-.001419067382812.249755859375.028480529785156.360992431640625.086997985839844.155487060546875.084358215332031.247650146484375.251495361328125.235992431640625.428001403808594.01226806640625.123115539550781-.03448486328125.244758605957031-.126007080078125.3280029296875-.09088134765625.067680358886719-.19903564453125.108238220214844-.31201171875.116996765136719.094573974609375.016090393066406.1845703125.052230834960938.264007568359375.106002807617188.115447998046875.101531982421875.175933837890625.251792907714844.162994384765625.404998779296875v.157997131347656c-.000732421875.014656066894531-.000732421875.029342651367188,0,.043998718261719-.002288818359375.021842956542969.00115966796875.043907165527344.010009765625.064002990722656l.010009765625.050003051757812h-.449005126953125c-.018096923828125-.080711364746094-.0264892578125-.163299560546875-.024993896484375-.246002197265625-.004150390625-.074287414550781-.013824462890625-.148155212402344-.02899169921875-.221000671386719-.025360107421875-.061790466308594-.0748291015625-.110557556152344-.136993408203125-.135002136230469-.052398681640625-.015785217285156-.106414794921875-.0255126953125-.1610107421875-.028999328613281l-.113006591796875-.007003784179688h-.092010498046875v.638999938964844l-.4649658203125.012008666992188ZM168.4730224609375,41.584014892578125c-.51641845703125.525657653808594-.510162353515625,1.370063781738281.014007568359375,1.88800048828125.512725830078125.516685485839844,1.34722900390625.5198974609375,1.863922119140625.007164001464844.00506591796875-.005020141601562.01007080078125-.010078430175781.015045166015625-.015174865722656.25457763671875-.251083374023438.3951416015625-.595497131347656.389007568359375-.9530029296875.0023193359375-.733428955078125-.590362548828125-1.329872131347656-1.32379150390625-1.332183837890625-.361083984375-.001136779785156-.70703125.144798278808594-.958221435546875.404182434082031M170.555999755859375,43.6719970703125c-.638153076171875.641204833984375-1.675262451171875.6436767578125-2.31646728515625.005523681640625-.641204833984375-.638145446777344-.6436767578125-1.675270080566406-.005523681640625-2.316474914550781.638153076171875-.641197204589844,1.675262451171875-.6436767578125,2.31646728515625-.005523681640625.307525634765625.306053161621094.481048583984375.721611022949219.482513427734375,1.155471801757812.00970458984375.436553955078125-.163177490234375.857368469238281-.47698974609375,1.161003112792969"/>
      <path class="cls-3" d="M14.071999549865723,16.907999038696289l-1.039000511169434,6.093999862670898,8.89000129699707-.017000198364258-1.170000076293945,6.759000778198242-8.899999618530273.015998840332031-2.353000640869141,13.459999084472656-9.5.018001556396484L5.729000091552734,9.963998794555664l20.993999481201172-.038999557495117-1.159999847412109,6.961999893188477-11.491000175476074.020999908447266ZM29.017999649047852,33.428001403808594c-.511999130249023,3.194999694824219.944999694824219,4.917999267578125,4.281999588012695,4.911998748779297,1.722763061523438.054954528808594,3.371852874755859-.700016021728516,4.456001281738281-2.040000915527344l7.527999877929688-.013999938964844c-2.539608001708984,4.721954345703125-7.48052978515625,7.654109954833984-12.841999053955078,7.620998382568359-7.565000534057617.013999938964844-12.545999526977539-4.119998931884766-11.312999725341797-11.753997802734375,1.191999435424805-7.36400032043457,7.11400032043457-11.810001373291016,14.545001983642578-11.824001312255859,7.924999237060547-.014999389648438,11.900001525878906,4.715000152587891,10.674999237060547,12.257999420166016l-.130001068115234.808998107910156-17.20100212097168.032005310058594ZM39.280998229980469,29.194000244140625c.016841888427734-2.078178405761719-1.654205322265625-3.776529312133789-3.732383728027344-3.793369293212891-.099288940429688-.000804901123047-.198574066162109.002321243286133-.297615051269531.009368896484375-2.4732666015625-.057037353515625-4.706253051757812,1.472957611083984-5.545999526977539,3.799999237060547l9.575998306274414-.015998840332031ZM133.641998291015625,33.232002258300781c-.516006469726562,3.194999694824219.94500732421875,4.917999267578125,4.279006958007812,4.911998748779297,1.725189208984375.057170867919922,3.377349853515625-.698017120361328,4.462997436523438-2.040000915527344l7.524002075195312-.013999938964844c-2.539627075195312,4.72039794921875-7.477859497070312,7.653022766113281-12.837997436523438,7.623996734619141-7.557998657226562.013999938964844-12.545997619628906-4.119998931884766-11.316001892089844-11.753997802734375,1.19000244140625-7.36400032043457,7.116996765136719-11.810001373291016,14.547996520996094-11.824001312255859,7.91900634765625-.014999389648438,11.891998291015625,4.715000152587891,10.673995971679688,12.257999420166016l-.136993408203125.808998107910156-17.197006225585938.029006958007812ZM143.906005859375,28.997001647949219c.017791748046875-2.077068328857422-1.651580810546875-3.775285720825195-3.7286376953125-3.793079376220703-.098541259765625-.000843048095703-.197067260742188.00218391418457-.295364379882812.009078979492188-2.47454833984375-.058965682983398-4.70941162109375,1.471492767333984-5.548995971679688,3.799999237060547l9.572998046875-.015998840332031ZM45.930000305175781,43.151996612548828l5.324001312255859-34.067001342773438,7.467998504638672-.013999938964844-5.328998565673828,34.067001342773438-7.463001251220703.013999938964844ZM55.343002319335938,48.057998657226562l5.326995849609375-34.072999954223633,7.464996337890625-.013999938964844-5.324993133544922,34.072999954223633-7.466999053955078.013999938964844ZM92.619003295898438,32.013999938964844c-1.154998779296875,7.506000518798828-7.882003784179688,11.790000915527344-14.833000183105469,11.799999237060547-6.915000915527344.020999908447266-12.386001586914062-4.200000762939453-11.225006103515625-11.746002197265625s7.874000549316406-11.812000274658203,14.830001831054688-11.825000762939453,12.373001098632812,4.239002227783203,11.228004455566406,11.771003723144531M74.6510009765625,32.048000335693359c-.612998962402344,3.258998870849609.741996765136719,5.535999298095703,3.862998962402344,5.531002044677734s5.317001342773438-1.867000579833984,6-5.549999237060547c.569999694824219-3.077999114990234-.699996948242188-5.582000732421875-3.825996398925781-5.576000213623047s-5.367996215820312,2.071998596191406-6.035003662109375,5.599998474121094M167.0360107421875,26.498001098632812c-1.241668701171875-.683792114257812-2.63262939453125-1.051279067993164-4.050003051757812-1.069999694824219-.904998779296875,0-2.51300048828125.391000747680664-2.688003540039062,1.511001586914062-.23699951171875,1.506999969482422,2.1820068359375,1.719001770019531,3.225997924804688,1.930999755859375,3.542999267578125.729999542236328,6.029006958007812,2.445999145507812,5.389999389648438,6.540000915527344-.914993286132812,5.827999114990234-6.5830078125,8.252998352050781-11.699996948242188,8.262001037597656-2.916839599609375.089286804199219-5.788681030273438-.735137939453125-8.214004516601562-2.358005523681641l2.5780029296875-4.854000091552734c1.421005249023438,1.120998382568359,4.7239990234375,1.433998107910156,6.660995483398438,1.430000305175781.992996215820312,0,2.537002563476562-.478000640869141,2.720993041992188-1.687000274658203.264999389648438-1.727001190185547-2.173995971679688-1.806999206542969-4.527999877929688-2.449001312255859s-4.615997314453125-1.844001770019531-4-5.807998657226562c.850997924804688-5.426000595092773,6.13299560546875-7.846000671386719,10.955001831054688-7.854999542236328,2.429611206054688-.070365905761719,4.843521118164062.41139030456543,7.05999755859375,1.409000396728516l-3.410980224609375,4.998001098632812ZM102.78399658203125,33.013999938964844l4.75-12.088001251220703,6.411003112792969-.011999130249023,1.599998474121094,12.093000411987305,5.310997009277344-12.105998992919922,8.413993835449219-.016000747680664-11.4119873046875,22.128999710083008-7.115997314453125.01300048828125-1.512001037597656-12.124000549316406h-.11199951171875l-4.739997863769531,12.133998870849609-7.227996826171875.01300048828125-5.004997253417969-22.100000381469727,8.441001892089844-.016000747680664,2.197982788085938,12.080001831054688Z"/>
      <path class="cls-5" d="M303.541000366210938,15.358001708984375c-.11578369140625-.030298233032227-.235443115234375-.043107986450195-.355010986328125-.038000106811523h-.1409912109375v.673999786376953h.230010986328125c.118255615234375.007726669311523.235809326171875-.023155212402344.334991455078125-.08799934387207.08551025390625-.064102172851562.130462646484375-.168855667114258.118011474609375-.274999618530273.002960205078125-.12183952331543-.072967529296875-.231693267822266-.18798828125-.271999359130859M302.447036743164062,17.235002517700195v-2.315999984741211h1.114013671875c.162200927734375-.001853942871094.322357177734375.036632537841797.46600341796875.11199951171875.1995849609375.109748840332031.31683349609375.325845718383789.29998779296875.552999496459961.016387939453125.158945083618164-.044189453125.316144943237305-.162994384765625.423000335693359-.116302490234375.087440490722656-.254974365234375.140142440795898-.399993896484375.152000427246094.12164306640625.020845413208008.237518310546875.067193984985352.339996337890625.13599967956543.148529052734375.131061553955078.22637939453125.32459831237793.209991455078125.521999359130859v.256999969482422c-.0030517578125.028327941894531.001434326171875.056957244873047.01300048828125.083000183105469l.01300048828125.065000534057617h-.579986572265625c-.023468017578125-.104333877563477-.0345458984375-.21107292175293-.032989501953125-.318000793457031-.005767822265625-.095792770385742-.018463134765625-.191041946411133-.037994384765625-.284999847412109-.032806396484375-.079713821411133-.09674072265625-.142568588256836-.177001953125-.173999786376953-.067474365234375-.019691467285156-.136871337890625-.032096862792969-.207000732421875-.03700065612793l-.14599609375-.007999420166016h-.118011474609375v.828998565673828l-.594024658203125.006002426147461ZM302.133041381835938,14.870002746582031c-.666900634765625.677978515625-.658843994140625,1.767955780029297.01800537109375,2.436000823974609.660552978515625.667200088500977,1.7369384765625.672576904296875,2.404144287109375.012008666992188.006988525390625-.006942749023438.013946533203125-.013946533203125.020843505859375-.02100944519043.327392578125-.324684143066406.50799560546875-.768978118896484.5-1.229999542236328.004852294921875-.946050643920898-.75811767578125-1.7169189453125-1.70416259765625-1.721780776977539-.467132568359375-.002399444580078-.915008544921875.186077117919922-1.239837646484375.521780014038086M304.819046020507812,17.561002731323242c-.823150634765625.825654983520508-2.159759521484375.82769775390625-2.98541259765625.004560470581055s-.82769775390625-2.159746170043945-.004547119140625-2.985401153564453c.8231201171875-.825654983520508,2.15972900390625-.82769775390625,2.98541259765625-.004560470581055.394927978515625.393730163574219.618011474609375.927736282348633.62054443359375,1.485401153564453.0133056640625.564111709594727-.2100830078125,1.108047485351562-.615997314453125,1.5"/>
    </g>
  </g>
  <g class="cls-4">
    <g class="cls-4">
      <path class="cls-5" d="M316.720703125,12.65673828125l12.8564453125,29.45458984375,12.8134765625-29.45458984375h.9462890625l-13.287109375,30.53076171875h-.9462890625l-13.287109375-30.53076171875h.904296875Z"/>
      <path class="cls-5" d="M347.765625,15.10791015625v-3.310546875h.8603515625v3.310546875h-.8603515625ZM347.765625,43.1875v-22.31787109375h.8603515625v22.31787109375h-.8603515625Z"/>
      <path class="cls-5" d="M364.96484375,43.6171875c-1.4609375,0-2.8447265625-.30859375-4.1484375-.923828125-1.3046875-.6171875-2.4453125-1.462890625-3.4189453125-2.537109375-.9755859375-1.076171875-1.7490234375-2.322265625-2.322265625-3.7421875-.5732421875-1.41796875-.8603515625-2.9296875-.8603515625-4.53515625,0-1.576171875.2724609375-3.0546875.8173828125-4.43017578125.5439453125-1.3759765625,1.296875-2.580078125,2.2578125-3.611328125.9599609375-1.0322265625,2.0771484375-1.841796875,3.3544921875-2.4296875,1.2744140625-.587890625,2.6435546875-.8818359375,4.10546875-.8818359375,1.490234375,0,2.888671875.30078125,4.193359375.9033203125,1.3037109375.6015625,2.435546875,1.4189453125,3.396484375,2.451171875.9599609375,1.03125,1.7265625,2.25,2.30078125,3.654296875.572265625,1.40478515625.859375,2.91064453125.859375,4.51611328125v.47265625h-20.4248046875c.1142578125,1.43359375.4521484375,2.7734375,1.0107421875,4.01953125.55859375,1.248046875,1.283203125,2.330078125,2.171875,3.24609375.8876953125.91796875,1.9130859375,1.642578125,3.07421875,2.171875,1.16015625.53125,2.38671875.796875,3.67578125.796875.8603515625,0,1.69921875-.115234375,2.515625-.345703125.8173828125-.228515625,1.583984375-.55078125,2.30078125-.966796875.716796875-.4140625,1.34765625-.91015625,1.892578125-1.482421875.5439453125-.57421875.9736328125-1.205078125,1.2890625-1.892578125l.8173828125.21484375c-.3154296875.7734375-.7666015625,1.482421875-1.3544921875,2.12890625-.587890625.64453125-1.275390625,1.203125-2.064453125,1.67578125-.7880859375.474609375-1.6484375.845703125-2.580078125,1.119140625-.931640625.271484375-1.884765625.408203125-2.859375.408203125ZM374.59765625,31.662109375c-.0859375-1.490234375-.40234375-2.865234375-.9462890625-4.12744140625-.544921875-1.2607421875-1.2548828125-2.3427734375-2.1279296875-3.24609375-.875-.9033203125-1.8857421875-1.6123046875-3.0322265625-2.12890625-1.1474609375-.515625-2.3798828125-.7734375-3.6982421875-.7734375s-2.55078125.2578125-3.697265625.7734375c-1.1474609375.5166015625-2.158203125,1.2333984375-3.03125,2.150390625-.875.91796875-1.5703125,2.0068359375-2.0859375,3.267578125-.515625,1.26220703125-.8173828125,2.62353515625-.9033203125,4.08447265625h19.5224609375Z"/>
      <path class="cls-5" d="M408.5244140625,20.86962890625h.9462890625l-9.76171875,22.31787109375h-.7734375l-5.4609375-12.513671875-5.4609375,12.513671875h-.7744140625l-9.7607421875-22.31787109375h.9453125l9.203125,21.06982421875,5.375-12.33984375-3.7421875-8.68701171875h.9033203125l3.3115234375,7.56787109375,3.310546875-7.56787109375h.9033203125l-3.7412109375,8.68701171875,5.375,12.33984375,9.2021484375-21.06982421875Z"/>
      <path class="cls-5" d="M424.1328125,43.6171875c-1.00390625,0-1.94921875-.150390625-2.837890625-.451171875s-1.720703125-.703125-2.494140625-1.205078125c-.7734375-.5-1.4765625-1.087890625-2.107421875-1.76171875s-1.189453125-1.3828125-1.67578125-2.12890625v14.275390625h-.861328125v-31.47607421875h.861328125v4.73046875c.45703125-.7451171875,1.0166015625-1.42578125,1.67578125-2.04296875.66015625-.6162109375,1.369140625-1.1533203125,2.12890625-1.6123046875.759765625-.4580078125,1.5546875-.8095703125,2.38671875-1.0537109375.8310546875-.2431640625,1.6767578125-.365234375,2.537109375-.365234375,1.576171875,0,3.0234375.337890625,4.3427734375,1.0107421875,1.318359375.673828125,2.451171875,1.5556640625,3.3974609375,2.64453125.9453125,1.08984375,1.68359375,2.322265625,2.2138671875,3.6982421875.5302734375,1.37646484375.7958984375,2.78076171875.7958984375,4.21435546875,0,1.51953125-.251953125,2.974609375-.751953125,4.36328125-.501953125,1.390625-1.205078125,2.6171875-2.107421875,3.677734375-.9033203125,1.060546875-1.9931640625,1.90625-3.267578125,2.537109375-1.2763671875.62890625-2.6875.9453125-4.236328125.9453125ZM424.1328125,42.7578125c1.4619140625,0,2.7734375-.30859375,3.9345703125-.92578125,1.1611328125-.615234375,2.1572265625-1.42578125,2.9892578125-2.4296875.830078125-1.001953125,1.4677734375-2.142578125,1.912109375-3.41796875.4453125-1.275390625.6669921875-2.572265625.6669921875-3.890625,0-1.404296875-.2578125-2.751953125-.7744140625-4.04296875-.515625-1.28955078125-1.21875-2.42919921875-2.1064453125-3.41845703125-.888671875-.9892578125-1.9345703125-1.77734375-3.1396484375-2.365234375-1.203125-.5869140625-2.4931640625-.880859375-3.869140625-.880859375-.8603515625,0-1.7919921875.1865234375-2.794921875.55859375-1.00390625.373046875-1.935546875.875-2.794921875,1.5048828125-.8603515625.630859375-1.583984375,1.3623046875-2.171875,2.193359375-.587890625.83203125-.91015625,1.69140625-.966796875,2.57958984375v8.041015625c.400390625.91796875.916015625,1.771484375,1.546875,2.55859375.630859375.7890625,1.33984375,1.46875,2.12890625,2.04296875.7880859375.57421875,1.640625,1.03125,2.55859375,1.375.9169921875.345703125,1.876953125.517578125,2.880859375.517578125Z"/>
      <path class="cls-5" d="M449.072265625,43.6171875c-1.4609375,0-2.837890625-.30859375-4.126953125-.923828125-1.291015625-.6171875-2.416015625-1.447265625-3.3759765625-2.494140625-.9609375-1.046875-1.7197265625-2.271484375-2.279296875-3.677734375-.5595703125-1.404296875-.8388671875-2.880859375-.8388671875-4.427734375,0-1.576171875.279296875-3.060546875.8388671875-4.45166015625.5595703125-1.3896484375,1.3251953125-2.615234375,2.30078125-3.67578125.9736328125-1.060546875,2.1064453125-1.8994140625,3.3974609375-2.515625,1.2890625-.6162109375,2.650390625-.9248046875,4.083984375-.9248046875s2.794921875.30859375,4.0859375.9248046875c1.2890625.6162109375,2.4140625,1.455078125,3.375,2.515625.9599609375,1.060546875,1.7265625,2.2861328125,2.30078125,3.67578125.572265625,1.39111328125.859375,2.87548828125.859375,4.45166015625,0,1.546875-.279296875,3.0234375-.837890625,4.427734375-.5595703125,1.40625-1.3193359375,2.630859375-2.279296875,3.677734375-.9609375,1.046875-2.0859375,1.876953125-3.375,2.494140625-1.291015625.615234375-2.666015625.923828125-4.12890625.923828125ZM439.3115234375,32.1796875c0,1.43359375.2587890625,2.794921875.7744140625,4.083984375.515625,1.291015625,1.2109375,2.416015625,2.0849609375,3.375.8740234375.9609375,1.8994140625,1.720703125,3.0751953125,2.279296875,1.1748046875.55859375,2.435546875.83984375,3.783203125.83984375,1.318359375,0,2.572265625-.287109375,3.7626953125-.861328125,1.189453125-.572265625,2.236328125-1.345703125,3.1396484375-2.322265625.90234375-.97265625,1.611328125-2.10546875,2.1279296875-3.396484375.5166015625-1.2890625.7744140625-2.666015625.7744140625-4.126953125,0-1.43359375-.2578125-2.794921875-.7744140625-4.08544921875-.5166015625-1.2900390625-1.21875-2.4228515625-2.1064453125-3.3974609375-.888671875-.9736328125-1.9287109375-1.748046875-3.1181640625-2.322265625-1.1904296875-.572265625-2.4443359375-.859375-3.7626953125-.859375s-2.572265625.287109375-3.76171875.859375c-1.1904296875.57421875-2.2294921875,1.3544921875-3.1171875,2.34375-.8896484375.9892578125-1.591796875,2.1357421875-2.107421875,3.43994140625-.515625,1.3046875-.7744140625,2.6875-.7744140625,4.150390625Z"/>
      <path class="cls-5" d="M465.283203125,15.10791015625v-3.310546875h.8603515625v3.310546875h-.8603515625ZM465.283203125,43.1875v-22.31787109375h.8603515625v22.31787109375h-.8603515625Z"/>
      <path class="cls-5" d="M490.6953125,43.1875h-.859375v-12.427734375c0-3.26806640625-.451171875-5.64697265625-1.3544921875-7.13818359375-.9033203125-1.490234375-2.3583984375-2.2353515625-4.3642578125-2.2353515625-1.08984375,0-2.158203125.193359375-3.203125.580078125-1.046875.38671875-2.015625.9248046875-2.9033203125,1.6123046875-.888671875.6884765625-1.6630859375,1.505859375-2.3212890625,2.451171875-.66015625.9462890625-1.1474609375,1.9638671875-1.462890625,3.05419921875v14.103515625h-.859375v-22.31787109375h.859375v5.7626953125c.458984375-.888671875,1.046875-1.712890625,1.763671875-2.47265625.7158203125-.759765625,1.5048828125-1.404296875,2.365234375-1.935546875.859375-.529296875,1.7763671875-.9453125,2.751953125-1.2470703125.9736328125-.30078125,1.962890625-.451171875,2.966796875-.451171875,2.29296875,0,3.9697265625.82421875,5.03125,2.47265625,1.0595703125,1.6484375,1.58984375,4.2353515625,1.58984375,7.76123046875v12.427734375Z"/>
      <path class="cls-5" d="M506.1328125,42.154296875c-.4296875.287109375-.82421875.501953125-1.181640625.646484375-.359375.142578125-.7822265625.279296875-1.26953125.408203125s-1.03125.193359375-1.6337890625.193359375c-1.0322265625,0-1.9345703125-.31640625-2.708984375-.947265625-.7744140625-.62890625-1.1611328125-1.4609375-1.1611328125-2.4921875v-18.23291015625h-3.224609375v-.8603515625h3.224609375v-7.7822265625h.8603515625v7.7822265625h5.375v.8603515625h-5.375v18.23291015625c.0576171875.830078125.38671875,1.46875.9892578125,1.912109375.6015625.4453125,1.275390625.66796875,2.0205078125.66796875.4873046875,0,.9462890625-.05078125,1.3759765625-.15234375.4296875-.099609375.8095703125-.21484375,1.1396484375-.34375.3291015625-.12890625.5869140625-.25.7744140625-.365234375.185546875-.11328125.29296875-.185546875.322265625-.21484375l.47265625.6875Z"/>
      <path class="cls-5" d="M521.9990234375,43.1875V12.65673828125h12.4267578125c1.232421875,0,2.37890625.265625,3.4404296875.7958984375,1.0595703125.5302734375,1.970703125,1.232421875,2.73046875,2.1064453125.7587890625.875,1.3544921875,1.8642578125,1.7841796875,2.9677734375.4306640625,1.103515625.6455078125,2.228515625.6455078125,3.375,0,1.2041015625-.201171875,2.365234375-.6025390625,3.4833984375s-.966796875,2.1064453125-1.6982421875,2.96630859375c-.7314453125.861328125-1.60546875,1.548828125-2.623046875,2.064453125s-2.1435546875.7734375-3.3759765625.7734375h-11.8671875v11.998046875h-.8603515625ZM522.859375,30.330078125h11.8671875c1.146484375,0,2.185546875-.244140625,3.1181640625-.73046875.9306640625-.48828125,1.7119140625-1.1328125,2.3427734375-1.93603515625.630859375-.8017578125,1.119140625-1.705078125,1.462890625-2.708984375.34375-1.0029296875.515625-2.0205078125.515625-3.052734375,0-1.0888671875-.201171875-2.134765625-.6015625-3.138671875-.40234375-1.0029296875-.953125-1.892578125-1.65625-2.666015625-.7021484375-.7744140625-1.525390625-1.3974609375-2.47265625-1.87109375-.9453125-.47265625-1.94921875-.708984375-3.009765625-.708984375h-11.56640625v16.81298828125Z"/>
      <path class="cls-5" d="M548.228515625,11.79736328125h.8603515625v28.07958984375c0,.830078125.2578125,1.490234375.7734375,1.9765625.515625.48828125,1.2041015625.732421875,2.064453125.732421875.314453125,0,.6943359375-.037109375,1.138671875-.109375.4443359375-.0703125.853515625-.1640625,1.2255859375-.279296875l.3017578125.689453125c-.40234375.142578125-.896484375.265625-1.4833984375.365234375-.587890625.099609375-1.0830078125.150390625-1.484375.150390625-1.0029296875,0-1.8203125-.322265625-2.4501953125-.96875-.630859375-.64453125-.9462890625-1.49609375-.9462890625-2.556640625V11.79736328125Z"/>
      <path class="cls-5" d="M565.1279296875,43.6171875c-4.7880859375,0-7.181640625-3.412109375-7.181640625-10.234375v-12.51318359375h.8603515625v12.51318359375c0,6.25,2.107421875,9.375,6.3212890625,9.375,1.060546875,0,2.1064453125-.193359375,3.138671875-.58203125,1.0322265625-.38671875,1.978515625-.916015625,2.837890625-1.58984375.8603515625-.673828125,1.6123046875-1.484375,2.2578125-2.4296875.64453125-.9453125,1.1396484375-1.978515625,1.4833984375-3.095703125v-14.19091796875h.8603515625v20.59716796875c0,.57421875.228515625.859375.6875.859375v.861328125c-.3154296875,0-.515625-.029296875-.6015625-.0859375-.287109375-.115234375-.5166015625-.322265625-.6884765625-.625-.171875-.30078125-.2578125-.63671875-.2578125-1.009765625v-3.955078125c-.974609375,1.890625-2.3369140625,3.3828125-4.0849609375,4.470703125-1.7490234375,1.08984375-3.626953125,1.634765625-5.6328125,1.634765625Z"/>
      <path class="cls-5" d="M589.46484375,43.6171875c-3.4697265625,0-6.3076171875-1.205078125-8.5146484375-3.611328125l.6455078125-.560546875c1.1455078125,1.119140625,2.3427734375,1.951171875,3.58984375,2.494140625,1.2470703125.544921875,2.6728515625.818359375,4.279296875.818359375,2.20703125,0,3.998046875-.474609375,5.375-1.419921875,1.3759765625-.9453125,2.0634765625-2.279296875,2.0634765625-3.998046875,0-.802734375-.171875-1.46875-.515625-2-.3447265625-.53125-.8466796875-.990234375-1.5048828125-1.376953125-.66015625-.38671875-1.4775390625-.71484375-2.451171875-.98828125-.9755859375-.271484375-2.0791015625-.55078125-3.3115234375-.837890625-1.2041015625-.287109375-2.2509765625-.552734375-3.138671875-.796875-.888671875-.2421875-1.626953125-.55078125-2.21484375-.923828125s-1.03125-.837890625-1.3330078125-1.3984375c-.30078125-.55859375-.451171875-1.28173828125-.451171875-2.17041015625,0-1.1181640625.21484375-2.0712890625.64453125-2.859375.4306640625-.7880859375,1.00390625-1.4404296875,1.720703125-1.95703125.7158203125-.515625,1.5478515625-.8955078125,2.494140625-1.1396484375.9453125-.2431640625,1.9482421875-.365234375,3.009765625-.365234375,1.8056640625,0,3.3466796875.30859375,4.6220703125.9248046875s2.1572265625,1.3828125,2.64453125,2.30078125l-.7734375.34375c-.544921875-.888671875-1.4345703125-1.5625-2.666015625-2.021484375-1.2333984375-.4580078125-2.56640625-.6875-3.9990234375-.6875-.91796875,0-1.7919921875.1005859375-2.623046875.30078125-.83203125.201171875-1.5634765625.515625-2.193359375.9462890625-.630859375.4296875-1.125.982421875-1.4833984375,1.6552734375-.3583984375.673828125-.537109375,1.4833984375-.537109375,2.4296875,0,.7451171875.12109375,1.35400390625.365234375,1.82666015625.2431640625.47265625.623046875.8671875,1.1396484375,1.18359375.515625.314453125,1.1748046875.587890625,1.9775390625.81640625.802734375.23046875,1.748046875.47265625,2.837890625.73046875,1.318359375.31640625,2.515625.6171875,3.5908203125.904296875s1.9775390625.64453125,2.708984375,1.07421875,1.296875.953125,1.6982421875,1.5703125c.4013671875.615234375.6025390625,1.412109375.6025390625,2.38671875s-.201171875,1.85546875-.6025390625,2.64453125c-.4013671875.787109375-.9609375,1.4609375-1.6767578125,2.01953125-.716796875.55859375-1.5908203125.990234375-2.623046875,1.291015625s-2.1650390625.451171875-3.396484375.451171875Z"/>
    </g>
  </g>
</svg>