<svg xmlns="http://www.w3.org/2000/svg" xmlns:xlink="http://www.w3.org/1999/xlink" width="509" height="53.799" viewBox="0 0 509 53.799"><defs><clipPath id="a"><rect width="305.438" height="53.798" fill="none"/></clipPath></defs><g transform="translate(-526 -1286)"><g transform="translate(526 1286)"><g transform="translate(0 0)" clip-path="url(#a)"><path d="M310.252,52.222a.6.6,0,0,1-.375-.13,29.171,29.171,0,1,1,40.554-41.477.607.607,0,0,1-.936.772A27.958,27.958,0,1,0,310.628,51.14a.606.606,0,0,1-.376,1.083" transform="translate(-117.572 0)" fill="#4498d8"/><path d="M314.246,49.842a.6.6,0,0,1-.425-.174,24.467,24.467,0,0,1,31.365-37.362.606.606,0,0,1-.705.987A23.254,23.254,0,0,0,314.671,48.8a.606.606,0,0,1-.425,1.039" transform="translate(-120.626 -3.053)" fill="#4498d8"/><path d="M318.485,49.991a.608.608,0,0,1-.491-.249,19.8,19.8,0,0,1,3.419-26.919.607.607,0,0,1,.773.936,18.585,18.585,0,0,0-3.21,25.269.606.606,0,0,1-.49.964" transform="translate(-123.656 -8.927)" fill="#4498d8"/><path d="M340.734,22.221h1.3l13.2,30.717h-1.6l-4.542-10.6h-15.4l-4.543,10.6h-1.643Zm7.874,18.82-7.225-16.917-7.268,16.917Z" transform="translate(-128.885 -8.745)" fill="#58595b"/><path d="M390.365,37.161a9.012,9.012,0,0,0-5.408,1.969,9.609,9.609,0,0,0-3.2,5V58.273h-1.471v-22.5h1.428v5.711a10.984,10.984,0,0,1,3.115-3.894,8.272,8.272,0,0,1,4.154-1.773c.287-.029.555-.044.8-.044h.584Z" transform="translate(-149.66 -14.08)" fill="#58595b"/><path d="M413.978,37.161a9.012,9.012,0,0,0-5.408,1.969,9.609,9.609,0,0,0-3.2,5V58.273H403.9v-22.5h1.428v5.711a10.983,10.983,0,0,1,3.115-3.894,8.272,8.272,0,0,1,4.154-1.773c.287-.029.555-.044.8-.044h.584Z" transform="translate(-158.953 -14.08)" fill="#58595b"/><path d="M431.229,58.481a7.682,7.682,0,0,1-2.9-.541,7.477,7.477,0,0,1-2.337-1.471,6.706,6.706,0,0,1-1.557-2.186,6.576,6.576,0,0,1-.563-2.725,5.1,5.1,0,0,1,.693-2.617,6.483,6.483,0,0,1,1.925-2.055,9.528,9.528,0,0,1,2.942-1.341,13.914,13.914,0,0,1,3.742-.476,24.667,24.667,0,0,1,3.829.3,16.8,16.8,0,0,1,3.483.908V43.858a7.466,7.466,0,0,0-1.925-5.387,6.821,6.821,0,0,0-5.171-2.012,9.787,9.787,0,0,0-3.5.714,16.5,16.5,0,0,0-3.721,2.055l-.692-1.081q4.325-2.942,8-2.943a8.259,8.259,0,0,1,6.208,2.337,8.8,8.8,0,0,1,2.271,6.4V55.712q0,.952.779.952v1.385a.768.768,0,0,1-.238.044H442.3a1.606,1.606,0,0,1-1.234-.541,1.877,1.877,0,0,1-.5-1.32v-1.99a10.229,10.229,0,0,1-4.024,3.137,12.877,12.877,0,0,1-5.321,1.1m.173-1.255a12.429,12.429,0,0,0,3.223-.433,11.76,11.76,0,0,0,2.921-1.189,7.82,7.82,0,0,0,2.12-1.752,3.278,3.278,0,0,0,.822-2.121v-4.24a19.845,19.845,0,0,0-7.182-1.3,12.665,12.665,0,0,0-3.245.389,8.656,8.656,0,0,0-2.531,1.081,5.172,5.172,0,0,0-1.644,1.666,4.168,4.168,0,0,0-.584,2.185,5.329,5.329,0,0,0,.476,2.25,5.808,5.808,0,0,0,1.3,1.817A5.867,5.867,0,0,0,429,56.794a6.5,6.5,0,0,0,2.4.433" transform="translate(-166.814 -13.855)" fill="#58595b"/><path d="M463.887,66.493a4.743,4.743,0,0,0,2.034-.3,1.706,1.706,0,0,0,.454-.454A7.62,7.62,0,0,0,467,64.568q.388-.844,1.038-2.336t1.687-3.959l-10.253-22.5h1.557l9.475,20.94,8.912-20.94h1.471L468.04,65.888a3.1,3.1,0,0,1-2.38,1.86,5.943,5.943,0,0,1-.865.109q-.433.022-.908.022Z" transform="translate(-180.824 -14.08)" fill="#58595b"/><path d="M278.46,68.5a.915.915,0,0,0-.275-.03h-.11v.522h.18a.423.423,0,0,0,.26-.068.233.233,0,0,0,.091-.213.216.216,0,0,0-.146-.211m-.847,1.454,0-1.8c.112,0,.277,0,.5,0h.365a.757.757,0,0,1,.361.087.453.453,0,0,1,.236.428.391.391,0,0,1-.126.328.6.6,0,0,1-.312.117.672.672,0,0,1,.264.106.485.485,0,0,1,.163.405v.158a.44.44,0,0,0,0,.044.126.126,0,0,0,.01.064l.01.05h-.449a1.039,1.039,0,0,1-.025-.246,1.494,1.494,0,0,0-.029-.221.245.245,0,0,0-.137-.135.716.716,0,0,0-.161-.029l-.113-.007h-.092v.639Zm-.243-1.834a1.337,1.337,0,0,0,.014,1.888A1.318,1.318,0,0,0,279.263,70a1.307,1.307,0,0,0,.389-.953,1.328,1.328,0,0,0-2.282-.928m2.083,2.089a1.638,1.638,0,1,1,.477-1.161,1.567,1.567,0,0,1-.477,1.161" transform="translate(-108.897 -26.536)" fill="#221f20"/><path d="M14.072,22.794l-1.039,6.094,8.89-.017L20.753,35.63l-8.9.016L9.5,49.106,0,49.124,5.729,15.85l20.994-.039-1.16,6.962Zm14.946,16.52c-.512,3.195.945,4.918,4.282,4.912a5.506,5.506,0,0,0,4.456-2.04l7.528-.014a14.48,14.48,0,0,1-12.842,7.621c-7.565.014-12.546-4.12-11.313-11.754,1.192-7.364,7.114-11.81,14.545-11.824,7.925-.015,11.9,4.715,10.675,12.258l-.13.809ZM39.281,35.08a3.763,3.763,0,0,0-4.03-3.784,5.755,5.755,0,0,0-5.546,3.8Zm94.361,4.038c-.516,3.195.945,4.918,4.279,4.912a5.506,5.506,0,0,0,4.463-2.04l7.524-.014A14.489,14.489,0,0,1,137.07,49.6c-7.558.014-12.546-4.12-11.316-11.754,1.19-7.364,7.117-11.81,14.548-11.824,7.919-.015,11.892,4.715,10.674,12.258l-.137.809Zm10.264-4.235a3.761,3.761,0,0,0-4.024-3.784,5.753,5.753,0,0,0-5.549,3.8ZM45.93,49.038l5.324-34.067,7.468-.014L53.393,49.024Zm9.413,4.906L60.67,19.871l7.465-.014L62.81,53.93ZM92.619,37.9c-1.155,7.506-7.882,11.79-14.833,11.8C70.871,49.721,65.4,45.5,66.561,37.954s7.874-11.812,14.83-11.825S93.764,30.368,92.619,37.9m-17.968.034c-.613,3.259.742,5.536,3.863,5.531s5.317-1.867,6-5.55c.57-3.078-.7-5.582-3.826-5.576s-5.368,2.072-6.035,5.6m92.383-5.555a8.632,8.632,0,0,0-4.05-1.07c-.905,0-2.513.391-2.688,1.511-.237,1.507,2.182,1.719,3.226,1.931,3.543.73,6.029,2.446,5.39,6.54-.915,5.828-6.583,8.253-11.7,8.262A14,14,0,0,1,149,47.2l2.578-4.854c1.421,1.121,4.724,1.434,6.661,1.43.993,0,2.537-.478,2.721-1.687.265-1.727-2.174-1.807-4.528-2.449s-4.616-1.844-4-5.808c.851-5.426,6.133-7.846,10.955-7.855a16.068,16.068,0,0,1,7.06,1.409ZM102.784,38.9l4.75-12.088,6.411-.012,1.6,12.093,5.311-12.106,8.414-.016L117.858,48.9l-7.116.013L109.23,36.789h-.112l-4.74,12.134-7.228.013-5.005-22.1,8.441-.016Z" transform="translate(0 -5.886)" fill="#221f20"/><path d="M499.051,24.429a1.2,1.2,0,0,0-.355-.038h-.141v.674h.23a.547.547,0,0,0,.335-.088.3.3,0,0,0,.118-.275.281.281,0,0,0-.188-.272m-1.093,1.876,0-2.316c.144,0,.357,0,.643,0h.471a.979.979,0,0,1,.466.112.582.582,0,0,1,.3.553.5.5,0,0,1-.163.423.77.77,0,0,1-.4.152.875.875,0,0,1,.34.136.627.627,0,0,1,.21.522v.2c0,.022,0,.048,0,.057a.162.162,0,0,0,.013.083l.013.065h-.58a1.36,1.36,0,0,1-.033-.318,1.987,1.987,0,0,0-.038-.285.316.316,0,0,0-.177-.174.984.984,0,0,0-.207-.037l-.146-.008h-.118V26.3Zm-.314-2.365a1.724,1.724,0,0,0,.018,2.436,1.7,1.7,0,0,0,2.425-.009,1.691,1.691,0,0,0,.5-1.23,1.713,1.713,0,0,0-2.944-1.2m2.687,2.694a2.111,2.111,0,1,1,.616-1.5,2.019,2.019,0,0,1-.616,1.5" transform="translate(-195.51 -9.071)" fill="#58595b"/></g></g><text transform="translate(841 1329.187)" fill="#58595b" font-size="43" font-family="Raleway-ExtraLight, Raleway" font-weight="200"><tspan x="0" y="0">Viewpoint</tspan></text></g></svg>