<?xml version="1.0" encoding="UTF-8"?>
<svg id="Layer_1" xmlns="http://www.w3.org/2000/svg" version="1.1" xmlns:xlink="http://www.w3.org/1999/xlink" viewBox="0 0 509 53.8">
  <!-- Generator: Adobe Illustrator 29.7.1, SVG Export Plug-In . SVG Version: 2.1.1 Build 8)  -->
  <defs>
    <style>
      .st0 {
        fill: #4498d8;
      }

      .st1 {
        fill: none;
      }

      .st2 {
        fill: #221f20;
      }

      .st3 {
        isolation: isolate;
      }

      .st4 {
        fill: #58595b;
      }

      .st5 {
        clip-path: url(#clippath);
      }
    </style>
    <clipPath id="clippath">
      <rect class="st1" width="305.4" height="53.8"/>
    </clipPath>
  </defs>
  <g class="st5">
    <g>
      <path class="st0" d="M192.7,52.2c-.1,0-.3,0-.4-.1-12.7-10-14.8-28.3-4.9-41,10-12.7,28.3-14.8,41-4.9,1.6,1.3,3.1,2.7,4.5,4.4.2.3.2.6-.1.9-.3.2-.6.2-.8,0-9.8-11.9-27.4-13.6-39.4-3.8-11.9,9.8-13.6,27.4-3.8,39.4,1.3,1.5,2.7,2.9,4.3,4.2.3.2.3.6.1.9-.1.1-.3.2-.5.2"/>
      <path class="st0" d="M193.6,46.8c-.2,0-.3,0-.4-.2-9.6-9.5-9.8-25-.3-34.6,8.4-8.6,21.9-9.7,31.6-2.8.3.2.3.6.1.8-.2.3-.6.3-.8.1h0c-10.5-7.5-25-5-32.4,5.4-6.6,9.3-5.5,22,2.6,30.1.2.2.2.6,0,.9-.1.1-.3.2-.4.2"/>
      <path class="st0" d="M194.8,41.1c-.2,0-.4,0-.5-.2-6.2-8.5-4.7-20.3,3.4-26.9.3-.2.6-.2.9,0,.2.3.2.6,0,.8-7.6,6.3-9,17.3-3.2,25.3.2.3.1.6-.1.8-.1,0-.2.1-.4.1"/>
      <path class="st4" d="M211.8,13.5h1.3l13.2,30.7h-1.6l-4.5-10.6h-15.4l-4.5,10.6h-1.6l13.2-30.7ZM219.7,32.3l-7.2-16.9-7.3,16.9h14.5Z"/>
      <path class="st4" d="M240.7,23.1c-2,0-3.9.7-5.4,2-1.6,1.3-2.7,3-3.2,5v14.1h-1.5v-22.5h1.4v5.7c.7-1.5,1.8-2.9,3.1-3.9,1.2-1,2.6-1.6,4.2-1.8.3,0,.6,0,.8,0h.6v1.4Z"/>
      <path class="st4" d="M255,23.1c-2,0-3.9.7-5.4,2-1.6,1.3-2.7,3-3.2,5v14.1h-1.5v-22.5h1.4v5.7c.7-1.5,1.8-2.9,3.1-3.9,1.2-1,2.6-1.6,4.2-1.8.3,0,.6,0,.8,0h.6v1.4Z"/>
      <path class="st4" d="M264.4,44.6c-1,0-2-.2-2.9-.5-.9-.3-1.7-.8-2.3-1.5-.7-.6-1.2-1.4-1.6-2.2-.4-.9-.6-1.8-.6-2.7,0-.9.2-1.8.7-2.6.5-.8,1.1-1.5,1.9-2.1.9-.6,1.9-1.1,2.9-1.3,1.2-.3,2.5-.5,3.7-.5,1.3,0,2.6.1,3.8.3,1.2.2,2.4.5,3.5.9v-2.4c0-2-.6-3.9-1.9-5.4-1.4-1.4-3.2-2.1-5.2-2-1.2,0-2.4.3-3.5.7-1.3.5-2.6,1.2-3.7,2.1l-.7-1.1c2.9-2,5.5-2.9,8-2.9,2.3-.1,4.6.7,6.2,2.3,1.6,1.7,2.4,4,2.3,6.4v11.8c0,.6.3,1,.8,1v1.4c0,0-.2,0-.2,0h-.2c-.5,0-.9-.2-1.2-.5-.3-.4-.5-.8-.5-1.3v-2c-1.1,1.4-2.4,2.4-4,3.1-1.7.7-3.5,1.1-5.3,1.1M264.6,43.4c1.1,0,2.2-.1,3.2-.4,1-.3,2-.7,2.9-1.2.8-.5,1.5-1,2.1-1.8.5-.6.8-1.3.8-2.1v-4.2c-2.3-.9-4.7-1.3-7.2-1.3-1.1,0-2.2.1-3.2.4-.9.2-1.8.6-2.5,1.1-.7.4-1.2,1-1.6,1.7-.4.7-.6,1.4-.6,2.2,0,.8.2,1.5.5,2.2.3.7.8,1.3,1.3,1.8.6.5,1.2.9,1.9,1.2.8.3,1.6.4,2.4.4"/>
      <path class="st4" d="M283.1,52.4c.7,0,1.4,0,2-.3.2-.1.3-.3.5-.5.2-.4.5-.8.6-1.2.3-.6.6-1.3,1-2.3.4-1,1-2.3,1.7-4l-10.3-22.5h1.6l9.5,20.9,8.9-20.9h1.5l-12.8,30.1c-.4,1-1.3,1.7-2.4,1.9-.3,0-.6,0-.9.1-.3,0-.6,0-.9,0v-1.4Z"/>
      <path class="st2" d="M169.6,42c0,0-.2,0-.3,0h-.1v.5h.2c0,0,.2,0,.3,0,0,0,.1-.1,0-.2,0,0,0-.2-.1-.2M168.7,43.4v-1.8h.9c.1,0,.2,0,.4,0,.2,0,.2.3.2.4,0,.1,0,.2-.1.3,0,0-.2.1-.3.1,0,0,.2,0,.3.1.1.1.2.3.2.4v.2s0,0,0,0c0,0,0,0,0,0h0c0,0-.4,0-.4,0,0,0,0-.2,0-.2,0,0,0-.1,0-.2,0,0,0-.1-.1-.1,0,0-.1,0-.2,0h-.1s0,0,0,0v.6h-.5ZM168.5,41.6c-.5.5-.5,1.4,0,1.9.5.5,1.3.5,1.9,0,0,0,0,0,0,0,.3-.3.4-.6.4-1,0-.7-.6-1.3-1.3-1.3-.4,0-.7.1-1,.4M170.6,43.7c-.6.6-1.7.6-2.3,0-.6-.6-.6-1.7,0-2.3.6-.6,1.7-.6,2.3,0,.3.3.5.7.5,1.2,0,.4-.2.9-.5,1.2"/>
      <path class="st2" d="M14.1,16.9l-1,6.1h8.9s-1.2,6.7-1.2,6.7h-8.9s-2.4,13.5-2.4,13.5H0S5.7,10,5.7,10h21s-1.2,6.9-1.2,6.9h-11.5ZM29,33.4c-.5,3.2.9,4.9,4.3,4.9,1.7,0,3.4-.7,4.5-2h7.5c-2.5,4.7-7.5,7.6-12.8,7.6-7.6,0-12.5-4.1-11.3-11.8,1.2-7.4,7.1-11.8,14.5-11.8,7.9,0,11.9,4.7,10.7,12.3v.8c-.1,0-17.3,0-17.3,0ZM39.3,29.2c0-2.1-1.7-3.8-3.7-3.8,0,0-.2,0-.3,0-2.5,0-4.7,1.5-5.5,3.8h9.6ZM133.6,33.2c-.5,3.2.9,4.9,4.3,4.9,1.7,0,3.4-.7,4.5-2h7.5c-2.5,4.7-7.5,7.6-12.8,7.6-7.6,0-12.5-4.1-11.3-11.8,1.2-7.4,7.1-11.8,14.5-11.8,7.9,0,11.9,4.7,10.7,12.3v.8c-.1,0-17.3,0-17.3,0ZM143.9,29c0-2.1-1.7-3.8-3.7-3.8,0,0-.2,0-.3,0-2.5,0-4.7,1.5-5.5,3.8h9.6ZM45.9,43.2l5.3-34.1h7.5s-5.3,34.1-5.3,34.1h-7.5ZM55.3,48.1l5.3-34.1h7.5s-5.3,34.1-5.3,34.1h-7.5ZM92.6,32c-1.2,7.5-7.9,11.8-14.8,11.8-6.9,0-12.4-4.2-11.2-11.7s7.9-11.8,14.8-11.8,12.4,4.2,11.2,11.8M74.7,32c-.6,3.3.7,5.5,3.9,5.5s5.3-1.9,6-5.5c.6-3.1-.7-5.6-3.8-5.6s-5.4,2.1-6,5.6M167,26.5c-1.2-.7-2.6-1.1-4.1-1.1-.9,0-2.5.4-2.7,1.5-.2,1.5,2.2,1.7,3.2,1.9,3.5.7,6,2.4,5.4,6.5-.9,5.8-6.6,8.3-11.7,8.3-2.9,0-5.8-.7-8.2-2.4l2.6-4.9c1.4,1.1,4.7,1.4,6.7,1.4,1,0,2.5-.5,2.7-1.7.3-1.7-2.2-1.8-4.5-2.4s-4.6-1.8-4-5.8c.9-5.4,6.1-7.8,11-7.9,2.4,0,4.8.4,7.1,1.4l-3.4,5ZM102.8,33l4.8-12.1h6.4s1.6,12.1,1.6,12.1l5.3-12.1h8.4s-11.4,22.1-11.4,22.1h-7.1s-1.5-12.1-1.5-12.1h-.1l-4.7,12.1h-7.2s-5-22.1-5-22.1h8.4s2.2,12.1,2.2,12.1Z"/>
      <path class="st4" d="M303.5,15.4c-.1,0-.2,0-.4,0h-.1v.7h.2c.1,0,.2,0,.3,0,0,0,.1-.2.1-.3,0-.1,0-.2-.2-.3M302.4,17.2v-2.3h1.1c.2,0,.3,0,.5.1.2.1.3.3.3.6,0,.2,0,.3-.2.4-.1,0-.3.1-.4.2.1,0,.2,0,.3.1.1.1.2.3.2.5v.2h0c0,0,0,.1,0,.1h0c0,0-.6,0-.6,0,0-.1,0-.2,0-.3,0,0,0-.2,0-.3,0,0,0-.1-.2-.2,0,0-.1,0-.2,0h-.1s-.1,0-.1,0v.8h-.6ZM302.1,14.9c-.7.7-.7,1.8,0,2.4.7.7,1.7.7,2.4,0,0,0,0,0,0,0,.3-.3.5-.8.5-1.2,0-.9-.8-1.7-1.7-1.7-.5,0-.9.2-1.2.5M304.8,17.6c-.8.8-2.2.8-3,0s-.8-2.2,0-3c.8-.8,2.2-.8,3,0,.4.4.6.9.6,1.5,0,.6-.2,1.1-.6,1.5"/>
    </g>
  </g>
  <g class="st3">
    <g class="st3">
      <path class="st4" d="M316.7,12.7l12.9,29.5,12.8-29.5h.9l-13.3,30.5h-.9l-13.3-30.5h.9Z"/>
      <path class="st4" d="M347.8,15.1v-3.3h.9v3.3h-.9ZM347.8,43.2v-22.3h.9v22.3h-.9Z"/>
      <path class="st4" d="M365,43.6c-1.5,0-2.8-.3-4.1-.9-1.3-.6-2.4-1.5-3.4-2.5-1-1.1-1.7-2.3-2.3-3.7-.6-1.4-.9-2.9-.9-4.5s.3-3.1.8-4.4c.5-1.4,1.3-2.6,2.3-3.6,1-1,2.1-1.8,3.4-2.4,1.3-.6,2.6-.9,4.1-.9s2.9.3,4.2.9c1.3.6,2.4,1.4,3.4,2.5,1,1,1.7,2.2,2.3,3.7.6,1.4.9,2.9.9,4.5v.5h-20.4c.1,1.4.5,2.8,1,4,.6,1.2,1.3,2.3,2.2,3.2.9.9,1.9,1.6,3.1,2.2,1.2.5,2.4.8,3.7.8s1.7-.1,2.5-.3c.8-.2,1.6-.6,2.3-1,.7-.4,1.3-.9,1.9-1.5.5-.6,1-1.2,1.3-1.9l.8.2c-.3.8-.8,1.5-1.4,2.1-.6.6-1.3,1.2-2.1,1.7-.8.5-1.6.8-2.6,1.1-.9.3-1.9.4-2.9.4ZM374.6,31.7c0-1.5-.4-2.9-.9-4.1-.5-1.3-1.3-2.3-2.1-3.2-.9-.9-1.9-1.6-3-2.1-1.1-.5-2.4-.8-3.7-.8s-2.6.3-3.7.8c-1.1.5-2.2,1.2-3,2.2-.9.9-1.6,2-2.1,3.3-.5,1.3-.8,2.6-.9,4.1h19.5Z"/>
      <path class="st4" d="M408.5,20.9h.9l-9.8,22.3h-.8l-5.5-12.5-5.5,12.5h-.8l-9.8-22.3h.9l9.2,21.1,5.4-12.3-3.7-8.7h.9l3.3,7.6,3.3-7.6h.9l-3.7,8.7,5.4,12.3,9.2-21.1Z"/>
      <path class="st4" d="M424.1,43.6c-1,0-1.9-.2-2.8-.5s-1.7-.7-2.5-1.2c-.8-.5-1.5-1.1-2.1-1.8s-1.2-1.4-1.7-2.1v14.3h-.9v-31.5h.9v4.7c.5-.7,1-1.4,1.7-2,.7-.6,1.4-1.2,2.1-1.6.8-.5,1.6-.8,2.4-1.1.8-.2,1.7-.4,2.5-.4,1.6,0,3,.3,4.3,1,1.3.7,2.5,1.6,3.4,2.6.9,1.1,1.7,2.3,2.2,3.7.5,1.4.8,2.8.8,4.2s-.3,3-.8,4.4c-.5,1.4-1.2,2.6-2.1,3.7-.9,1.1-2,1.9-3.3,2.5-1.3.6-2.7.9-4.2.9ZM424.1,42.8c1.5,0,2.8-.3,3.9-.9,1.2-.6,2.2-1.4,3-2.4.8-1,1.5-2.1,1.9-3.4.4-1.3.7-2.6.7-3.9s-.3-2.8-.8-4c-.5-1.3-1.2-2.4-2.1-3.4-.9-1-1.9-1.8-3.1-2.4-1.2-.6-2.5-.9-3.9-.9s-1.8.2-2.8.6c-1,.4-1.9.9-2.8,1.5-.9.6-1.6,1.4-2.2,2.2-.6.8-.9,1.7-1,2.6v8c.4.9.9,1.8,1.5,2.6.6.8,1.3,1.5,2.1,2,.8.6,1.6,1,2.6,1.4.9.3,1.9.5,2.9.5Z"/>
      <path class="st4" d="M449.1,43.6c-1.5,0-2.8-.3-4.1-.9-1.3-.6-2.4-1.4-3.4-2.5-1-1-1.7-2.3-2.3-3.7-.6-1.4-.8-2.9-.8-4.4s.3-3.1.8-4.5c.6-1.4,1.3-2.6,2.3-3.7,1-1.1,2.1-1.9,3.4-2.5,1.3-.6,2.7-.9,4.1-.9s2.8.3,4.1.9c1.3.6,2.4,1.5,3.4,2.5,1,1.1,1.7,2.3,2.3,3.7.6,1.4.9,2.9.9,4.5s-.3,3-.8,4.4c-.6,1.4-1.3,2.6-2.3,3.7-1,1-2.1,1.9-3.4,2.5-1.3.6-2.7.9-4.1.9ZM439.3,32.2c0,1.4.3,2.8.8,4.1.5,1.3,1.2,2.4,2.1,3.4.9,1,1.9,1.7,3.1,2.3,1.2.6,2.4.8,3.8.8s2.6-.3,3.8-.9c1.2-.6,2.2-1.3,3.1-2.3.9-1,1.6-2.1,2.1-3.4.5-1.3.8-2.7.8-4.1s-.3-2.8-.8-4.1c-.5-1.3-1.2-2.4-2.1-3.4-.9-1-1.9-1.7-3.1-2.3-1.2-.6-2.4-.9-3.8-.9s-2.6.3-3.8.9c-1.2.6-2.2,1.4-3.1,2.3-.9,1-1.6,2.1-2.1,3.4-.5,1.3-.8,2.7-.8,4.2Z"/>
      <path class="st4" d="M465.3,15.1v-3.3h.9v3.3h-.9ZM465.3,43.2v-22.3h.9v22.3h-.9Z"/>
      <path class="st4" d="M490.7,43.2h-.9v-12.4c0-3.3-.5-5.6-1.4-7.1-.9-1.5-2.4-2.2-4.4-2.2s-2.2.2-3.2.6c-1,.4-2,.9-2.9,1.6-.9.7-1.7,1.5-2.3,2.5-.7.9-1.1,2-1.5,3.1v14.1h-.9v-22.3h.9v5.8c.5-.9,1-1.7,1.8-2.5.7-.8,1.5-1.4,2.4-1.9.9-.5,1.8-.9,2.8-1.2,1-.3,2-.5,3-.5,2.3,0,4,.8,5,2.5,1.1,1.6,1.6,4.2,1.6,7.8v12.4Z"/>
      <path class="st4" d="M506.1,42.2c-.4.3-.8.5-1.2.6-.4.1-.8.3-1.3.4s-1,.2-1.6.2c-1,0-1.9-.3-2.7-.9-.8-.6-1.2-1.5-1.2-2.5v-18.2h-3.2v-.9h3.2v-7.8h.9v7.8h5.4v.9h-5.4v18.2c0,.8.4,1.5,1,1.9.6.4,1.3.7,2,.7s.9,0,1.4-.2c.4,0,.8-.2,1.1-.3.3-.1.6-.2.8-.4.2-.1.3-.2.3-.2l.5.7Z"/>
    </g>
  </g>
</svg>