<svg width="64" height="68" viewBox="0 0 64 68" fill="none" xmlns="http://www.w3.org/2000/svg">
<g clip-path="url(#clip0_313_655)">
<path d="M27.7806 36.5654C27.4591 36.2061 26.909 36.177 26.5518 36.5003C26.1945 36.8237 26.1656 37.3771 26.487 37.7364L30.8413 41.8331C31.0057 42.0181 31.2407 42.1237 31.4874 42.1235C31.5175 42.1239 31.5476 42.1221 31.5774 42.118C31.8533 42.0886 32.0984 41.928 32.2367 41.6861L38.1678 31.3557C38.4079 30.9371 38.2653 30.4019 37.8492 30.1603C37.4331 29.9187 36.9011 30.0622 36.6609 30.4807L31.3288 39.7684L27.7806 36.5654Z" fill="#AEBED3" stroke="#AEBED3" stroke-width="0.5"/>
<path d="M16.4805 36.0834C16.4805 44.855 23.5493 51.9657 32.269 51.9657C40.9888 51.9657 48.0576 44.855 48.0576 36.0834C48.0576 27.3119 40.9888 20.2012 32.269 20.2012C23.5538 20.2123 16.4915 27.3165 16.4805 36.0834ZM46.3437 36.0834C46.3433 43.9013 40.0428 50.2385 32.2711 50.2381C24.4994 50.2378 18.1995 43.8999 18.1999 36.082C18.2003 28.2645 24.5004 21.9273 32.2718 21.9273C40.0399 21.9361 46.3349 28.2686 46.3437 36.0827" fill="#AEBED3"/>
<path d="M46.3437 36.0834C46.3433 43.9013 40.0428 50.2385 32.2711 50.2381C24.4994 50.2378 18.1995 43.8999 18.1999 36.082C18.2003 28.2645 24.5004 21.9273 32.2718 21.9273C40.0399 21.9361 46.3349 28.2686 46.3437 36.0827M16.4805 36.0834C16.4805 44.855 23.5493 51.9657 32.269 51.9657C40.9888 51.9657 48.0576 44.855 48.0576 36.0834C48.0576 27.3119 40.9888 20.2012 32.269 20.2012C23.5538 20.2123 16.4915 27.3165 16.4805 36.0834Z" stroke="#AEBED3" stroke-width="0.5"/>
<path d="M32.2718 10.58C35.1282 10.58 37.4439 8.25059 37.4439 5.37715C37.4439 2.5037 35.1282 0.174316 32.2718 0.174316C29.4155 0.174317 27.1 2.50328 27.0996 5.37645C27.1027 8.24874 29.4164 10.5765 32.2718 10.58ZM32.2718 1.90325C34.179 1.90287 35.7255 3.45787 35.7259 5.37645C35.7262 7.29503 34.1804 8.85066 32.2731 8.85105C30.3659 8.85143 28.8194 7.29643 28.819 5.37785V5.37645C28.8217 3.45937 30.366 1.90594 32.2718 1.90325Z" fill="#AEBED3" stroke="#AEBED3" stroke-width="0.5"/>
<path d="M10.5171 51.1032C10.5171 48.2298 8.20149 45.9004 5.345 45.9004C2.4885 45.9004 0.172854 48.2298 0.172852 51.1032C0.172849 53.9767 2.48849 56.3061 5.34499 56.3061C8.20006 56.3026 10.5137 53.9752 10.5171 51.1032ZM5.34499 54.5764C3.43773 54.5768 1.89128 53.0218 1.8909 51.1032C1.89051 49.1846 3.43635 47.629 5.34361 47.6286C7.25087 47.6283 8.79732 49.1832 8.7977 51.1018V51.1032C8.79541 53.0205 7.25092 54.5741 5.34499 54.5764Z" fill="#AEBED3" stroke="#AEBED3" stroke-width="0.5"/>
<path d="M58.5384 45.9004C55.6819 45.9004 53.3662 48.2298 53.3662 51.1032C53.3662 53.9767 55.6819 56.3061 58.5383 56.3061C61.3948 56.3061 63.7105 53.9767 63.7105 51.1032C63.7071 48.2312 61.3934 45.9038 58.5384 45.9004ZM58.5384 54.5771C56.6311 54.5771 55.085 53.0218 55.085 51.1032C55.085 49.1846 56.6311 47.6293 58.5384 47.6293C60.4456 47.6293 61.9918 49.1846 61.9918 51.1032V51.1039C61.9895 53.0214 60.4446 54.5752 58.5384 54.5771Z" fill="#AEBED3" stroke="#AEBED3" stroke-width="0.5"/>
<path d="M2.68061 45.1824C3.15599 45.1829 3.54178 44.7956 3.54228 44.3174C3.54237 44.2397 3.53204 44.1623 3.51159 44.0873C2.79738 41.4801 2.43588 38.7879 2.43686 36.0835C2.4108 29.2852 4.70517 22.6839 8.93648 17.3828C13.0741 12.1722 18.8121 8.48835 25.2527 6.90752C25.7143 6.79557 25.9983 6.32838 25.887 5.86403C25.7757 5.39967 25.3113 5.114 24.8497 5.22595C18.037 6.89804 11.9675 10.7948 7.59099 16.3066C3.11598 21.9127 0.689146 28.8938 0.716041 36.0835C0.714983 38.9433 1.09721 41.7901 1.8524 44.5471C1.95567 44.9228 2.29591 45.1826 2.68338 45.1817" fill="#AEBED3"/>
<path d="M2.68061 45.1824C3.15599 45.1829 3.54178 44.7956 3.54228 44.3174C3.54237 44.2397 3.53204 44.1623 3.51159 44.0873C2.79738 41.4801 2.43588 38.7879 2.43686 36.0835C2.4108 29.2852 4.70517 22.6839 8.93648 17.3828C13.0741 12.1722 18.8121 8.48835 25.2527 6.90752C25.7143 6.79557 25.9983 6.32838 25.887 5.86403C25.7757 5.39967 25.3113 5.114 24.8497 5.22595C18.037 6.89804 11.9675 10.7948 7.59099 16.3066C3.11598 21.9127 0.689146 28.8938 0.716041 36.0835C0.714983 38.9433 1.09721 41.7901 1.8524 44.5471C1.95567 44.9228 2.29591 45.1826 2.68338 45.1817" stroke="#AEBED3" stroke-width="0.5"/>
<path d="M39.29 6.90705C45.7313 8.4875 51.4701 12.1714 55.6083 17.3824C59.8396 22.6834 62.1339 29.2847 62.1079 36.083C62.1097 38.8773 61.7243 41.6582 60.9625 44.3453C60.8321 44.8045 61.0964 45.283 61.5529 45.4142C62.0093 45.5454 62.4851 45.2795 62.6155 44.8204C63.4209 41.9787 63.8286 39.038 63.8266 36.083C63.8535 28.8934 61.4267 21.9122 56.9517 16.3061C52.5745 10.7961 46.5051 6.90105 39.693 5.23035C39.2316 5.1184 38.7673 5.40392 38.656 5.86808C38.5447 6.33224 38.8285 6.79927 39.29 6.91123" fill="#AEBED3"/>
<path d="M39.29 6.90705C45.7313 8.4875 51.4701 12.1714 55.6083 17.3824C59.8396 22.6834 62.1339 29.2847 62.1079 36.083C62.1097 38.8773 61.7243 41.6582 60.9625 44.3453C60.8321 44.8045 61.0964 45.283 61.5529 45.4142C62.0093 45.5454 62.4851 45.2795 62.6155 44.8204C63.4209 41.9787 63.8286 39.038 63.8266 36.083C63.8535 28.8934 61.4267 21.9122 56.9517 16.3061C52.5745 10.7961 46.5051 6.90105 39.693 5.23035C39.2316 5.1184 38.7673 5.40392 38.656 5.86808C38.5447 6.33224 38.8285 6.79927 39.29 6.91123" stroke="#AEBED3" stroke-width="0.5"/>
<path d="M53.9968 56.6529C48.3787 62.7071 40.5048 66.1298 32.2716 66.0966C23.9192 66.0858 15.9514 62.5634 10.2951 56.3813C9.97399 56.0296 9.43035 56.0064 9.08079 56.3294C8.73124 56.6523 8.70814 57.1992 9.0292 57.5508C15.0116 64.0887 23.4382 67.8138 32.2716 67.8255C40.979 67.8606 49.3064 64.2407 55.2482 57.8378C55.5634 57.4809 55.5312 56.9345 55.1764 56.6174C54.8358 56.3131 54.3183 56.3283 53.9968 56.6529Z" fill="#AEBED3" stroke="#AEBED3" stroke-width="0.5"/>
</g>
<defs>
<clipPath id="clip0_313_655">
<rect width="64" height="68" fill="white"/>
</clipPath>
</defs>
</svg>
