<svg width="40" height="42" viewBox="0 0 40 42" fill="none" xmlns="http://www.w3.org/2000/svg">
<path d="M39.6101 17.4593C39.4674 17.2187 39.2114 17.0593 38.9292 17.043L38.9377 17.0419C37.3495 16.9589 34.7541 16.4842 34.2291 15.7395C34.1914 15.6858 34.1668 15.6354 34.175 15.5639C34.8296 14.5281 38.9213 7.78035 38.0173 2.62754C37.9582 2.28284 37.6809 2.01129 37.3331 1.94951C32.1339 1.05034 25.3253 5.10877 24.2802 5.75749C24.2048 5.76237 24.1588 5.74123 24.103 5.70383C23.3516 5.17863 22.8759 2.61124 22.7889 1.03733C22.7725 0.757665 22.6166 0.504013 22.3689 0.362562C22.1212 0.221107 21.8226 0.212973 21.5716 0.338173C17.5095 2.36902 15.3223 6.72343 14.3889 9.10853L11.667 5.15903C11.5194 4.94277 11.2766 4.80945 11.0124 4.79644C10.7483 4.78343 10.4956 4.89562 10.3283 5.09562C1.8562 15.2188 0.267895 25.8123 6.14474 32.3599L0.496094 37.9581C0.167969 38.2833 0.167969 38.8117 0.496094 39.1353C0.660156 39.2979 0.873429 39.3809 1.08836 39.3809C1.3033 39.3809 1.51655 39.2979 1.68063 39.1353L7.32928 33.5371C9.9707 35.8639 13.2635 37.0135 16.9172 37.0135C17.813 37.0135 18.7307 36.9444 19.666 36.8071C20.1138 36.7413 20.4274 36.3352 20.3727 35.8898C20.3721 35.8842 20.3714 35.8787 20.3707 35.8731C20.3158 35.4136 19.8873 35.0894 19.4253 35.1568C15.2044 35.772 11.4124 34.8624 8.52185 32.3603L11.2732 29.6335H20.4348C20.904 29.6335 21.3012 29.253 21.2939 28.788C21.2869 28.3355 20.9123 27.9685 20.454 27.9685H12.9532L20.2146 20.7719H29.3762C29.8455 20.7719 30.2426 20.3914 30.2354 19.9264C30.2283 19.4739 29.8538 19.107 29.3955 19.107H21.8946L29.0511 12.0144C29.3792 11.6892 29.3792 11.1608 29.0511 10.8372C28.7229 10.512 28.1898 10.512 27.8632 10.8372L20.7068 17.9297V10.5149C20.7068 10.0499 20.3228 9.65629 19.8537 9.66348C19.397 9.67047 19.0268 10.0417 19.0268 10.4959V19.5947L11.7653 26.7913V19.3765C11.7653 18.9115 11.3814 18.5179 10.9122 18.5251C10.4556 18.5321 10.0853 18.9033 10.0853 19.3575V28.4563L7.33402 31.1831C2.28562 25.4513 3.65902 16.1558 10.9173 7.02779L13.9492 11.4275C14.1346 11.6942 14.4578 11.8308 14.7843 11.7771C15.1075 11.7235 15.3683 11.4861 15.4569 11.1739C15.4733 11.1121 17.0992 5.30893 21.2403 2.47011C21.4421 3.98553 21.9376 6.23266 23.1353 7.06515C23.6471 7.42285 24.2394 7.51394 24.8481 7.33506C24.9236 7.31392 24.9958 7.2814 25.063 7.23913C25.1303 7.19686 31.6024 3.10578 36.4408 3.51405C36.8559 8.30577 32.728 14.7236 32.6822 14.7902C32.6395 14.8569 32.6067 14.9268 32.5854 15.0032C32.4049 15.6065 32.4968 16.1934 32.8577 16.7008C33.6977 17.8877 35.97 18.3788 37.4942 18.5788C36.1228 20.5435 34.0672 21.9368 32.2893 22.8574C31.9107 23.0534 31.7431 23.5012 31.9009 23.8946L31.9089 23.9145C32.0919 24.3708 32.6329 24.5681 33.0719 24.3407C35.383 23.1435 38.1365 21.1928 39.6347 18.2495C39.761 17.9991 39.7528 17.6999 39.6101 17.4593Z" fill="#778495" stroke="#778495" stroke-width="0.5"/>
<path d="M29.4839 24.2164C29.2966 23.9019 28.9513 23.7064 28.5827 23.7063C28.2143 23.7063 27.869 23.9018 27.6816 24.2164C27.2097 25.009 25.9946 27.0865 24.907 29.254C24.3866 30.2913 22.8027 33.4479 22.8027 35.1597C22.8027 38.3184 25.3956 40.8881 28.5827 40.8881C31.7698 40.8881 34.3628 38.3184 34.3628 35.1597C34.3628 34.7364 34.3628 33.448 32.2585 29.254C31.1705 27.0856 29.9557 25.0087 29.4839 24.2164ZM32.7856 35.1597C32.7856 37.4565 30.9002 39.325 28.5827 39.325C26.2653 39.325 24.3799 37.4565 24.3799 35.1597C24.3799 34.4689 24.8232 33.1428 25.6618 31.3247C26.3612 29.8083 27.3391 27.9447 28.4152 26.0772L28.5827 25.7865L28.7503 26.0772C29.8264 27.9445 30.8043 29.8081 31.5038 31.3246C32.3424 33.1427 32.7856 34.4688 32.7856 35.1597Z" fill="#778495" stroke="#778495" stroke-width="0.5"/>
</svg>
