<svg width="42" height="55" viewBox="0 0 42 55" fill="none" xmlns="http://www.w3.org/2000/svg">
<g clip-path="url(#clip0_313_996)">
<path fill-rule="evenodd" clip-rule="evenodd" d="M20.9721 52.453C31.1813 52.453 39.7031 44.4707 39.7031 34.3083C39.7031 25.4017 27.6993 11.2837 20.9721 2.91959C14.2449 11.2851 2.24108 25.3968 2.24108 34.3083C2.24108 44.4683 10.7629 52.453 20.9721 52.453ZM13.179 28.4034C14.5993 26.1595 18.045 28.2299 16.7137 30.5445C15.4921 32.6742 11.8181 31.2521 13.179 28.4034ZM11.2427 27.2871C13.2064 24.0367 18.1088 24.7557 19.084 28.3965C20.0681 32.067 16.1018 35.155 12.7747 33.2357C10.5712 31.9643 10.0323 29.0516 11.2425 27.2869L11.2427 27.2871ZM23.3566 37.6161C25.3431 34.3885 30.2114 35.144 31.1798 38.7575C32.2165 42.6242 27.8666 45.537 24.7907 43.551C22.5278 42.0924 22.183 39.214 23.3567 37.6164L23.3566 37.6161ZM26.4849 37.8786C26.9963 37.7417 27.5603 37.7987 28.0513 38.0818C30.4009 39.4354 28.3458 43.0167 25.9871 41.6609L25.9893 41.6587C24.407 40.7479 24.7038 38.3557 26.4849 37.8786ZM17.0292 43.7519C16.2963 45.0279 14.3576 43.9117 15.0906 42.6379L24.9165 25.6278C25.6517 24.3518 27.5881 25.4681 26.8551 26.7418L17.0292 43.7519ZM35.7924 48.7325C27.5994 56.6827 14.3461 56.6827 6.15607 48.7325C2.3519 45.0415 0.000244141 39.9399 0.000244141 34.3058C0.000244141 25.2366 10.8349 11.8743 17.5276 3.62221L20.2836 0.239329C20.77 -0.141871 21.4756 -0.0596959 21.8569 0.428787C28.9719 9.46828 41.9509 24.1634 41.9509 34.3078C41.9486 39.9415 39.5967 45.0405 35.7926 48.7321L35.7924 48.7325Z" fill="#778495"/>
</g>
<defs>
<clipPath id="clip0_313_996">
<rect width="41.9507" height="54.6952" fill="white"/>
</clipPath>
</defs>
</svg>
