<svg width="49" height="49" viewBox="0 0 49 49" fill="none" xmlns="http://www.w3.org/2000/svg">
<path d="M48.4133 45.982H42.3616V1.21441C42.3616 0.544552 41.8192 0 41.152 0H7.26122C6.59404 0 6.05166 0.544552 6.05166 1.21441V45.982H0V48.4131H20.5681C20.5707 48.4131 20.5733 48.4133 20.5759 48.4133H27.8379C27.8404 48.4133 27.843 48.4131 27.8456 48.4131H48.4133V45.982ZM8.47311 2.43111H39.9403V45.982H29.0474V37.4764C29.0474 36.8043 28.5073 36.262 27.8379 36.262H20.5759C19.9064 36.262 19.3663 36.8043 19.3663 37.4764V45.982H8.47311V2.43111ZM26.6282 45.982H21.7855V38.6908H26.6282V45.982Z" fill="#778495"/>
<path d="M23.9157 31.2667C23.9193 31.2669 23.9229 31.2669 23.9264 31.2669C23.9304 31.2669 23.9343 31.2668 23.9383 31.2667C25.5017 31.2631 27.0265 30.9574 28.4704 30.358C29.9182 29.757 31.2141 28.8901 32.3219 27.7814C33.4304 26.6732 34.297 25.3769 34.8978 23.9284C35.4986 22.4803 35.8041 20.9508 35.8061 19.3826C35.8061 19.3774 35.806 19.3722 35.8057 19.367C35.5903 15.5861 34.1807 12.4677 31.7295 10.3491C29.5633 8.47697 26.6981 7.49021 23.6613 7.56895C20.6456 7.64773 17.826 8.75905 15.7218 10.6982C13.3714 12.8642 12.1203 15.8663 12.1038 19.3813C12.1038 24.8795 15.8001 30.9441 23.9157 31.2667ZM30.3559 26.8267C28.6509 28.303 26.4109 29.1073 24.0206 29.1072C23.9258 29.1072 23.8304 29.1059 23.7351 29.1034C21.2451 29.0369 18.9171 28.1192 17.1798 26.5193C15.2465 24.7389 14.2175 22.2702 14.2042 19.3813C14.2042 14.8565 17.2485 9.8659 23.9331 9.59885C25.2209 9.6017 26.4769 9.85349 27.6664 10.3472C28.8587 10.8421 29.9256 11.5558 30.8375 12.4685C31.7502 13.3809 32.4638 14.448 32.9584 15.6401C33.4521 16.83 33.7036 18.0864 33.7061 19.3746C33.5223 22.5112 32.364 25.0881 30.3559 26.8267Z" fill="#778495"/>
<path d="M27.9286 21.8609L24.8759 18.8447L24.8758 12.6619C24.8677 12.0758 24.3784 11.5989 23.785 11.5989C23.1916 11.5989 22.7023 12.0757 22.6941 12.6657V19.2917C22.6941 19.5758 22.8104 19.8537 23.0133 20.0542L26.3863 23.3858C26.5918 23.5888 26.8641 23.701 27.1536 23.7022C27.1551 23.7022 27.1565 23.7022 27.1579 23.7022C27.1594 23.7022 27.1608 23.7022 27.1623 23.7022C27.5992 23.6954 27.9899 23.4326 28.1574 23.033C28.3228 22.6398 28.2397 22.1898 27.9463 21.8802C27.9408 21.8735 27.9349 21.8671 27.9286 21.8609Z" fill="#778495"/>
</svg>
