<svg width="58" height="53" viewBox="0 0 58 53" fill="none" xmlns="http://www.w3.org/2000/svg">
<path d="M20.6298 19.7957L20.6163 19.7816C19.3538 18.4595 18.1614 17.2107 16.0764 17.2107C14.323 17.2107 13.1507 18.3284 12.476 19.2661C11.6997 20.3449 11.121 21.8238 10.9282 23.2216C10.2319 28.3005 11.4052 32.164 14.1468 33.8209C15.015 34.3438 15.9794 34.6089 17.0134 34.6089C18.5284 34.6089 20.1539 34.0337 21.7146 32.9452C23.1187 31.9689 23.7977 31.4795 24.7421 30.7631L25.3127 31.2429C24.5742 32.6166 23.563 33.5604 22.6719 34.392L22.6515 34.4112C21.3223 35.6612 20.0668 36.8419 20.0668 38.9052C20.0668 40.6429 21.1946 41.8047 22.1407 42.4734C23.2293 43.2427 24.7214 43.8162 26.1313 44.0073C27.1058 44.1373 28.0366 44.2032 28.898 44.2032C32.6681 44.2032 35.484 43.0006 36.8272 40.8169C38.1361 38.6906 37.8139 35.9557 35.9432 33.3136C34.958 31.9219 34.4642 31.2489 33.7415 30.3131L34.2256 29.7476C35.6116 30.4794 36.5639 31.4817 37.4041 32.366C38.668 33.6968 39.8617 34.9538 41.9534 34.9538C43.7068 34.9538 44.8791 33.8361 45.5538 32.8984C46.3301 31.8196 46.9087 30.3408 47.1017 28.9427C47.8014 23.8602 46.6282 19.9957 43.8828 18.3401L43.8563 18.3241C42.9988 17.8119 42.0442 17.5522 41.0185 17.5522C39.5057 17.5522 37.8779 18.1275 36.3113 19.2157C34.907 20.1922 34.2279 20.6816 33.2838 21.3978L32.7132 20.918C33.4517 19.5443 34.4629 18.6005 35.3547 17.7682L35.363 17.7605C36.7017 16.5082 37.9663 15.3253 37.9663 13.2558C37.9663 11.5181 36.8385 10.3562 35.8924 9.68758C34.8038 8.91821 33.3117 8.34473 31.9013 8.15357C30.9429 8.02461 30.0122 7.95923 29.1352 7.95923C25.3651 7.95923 22.5491 9.16128 21.206 11.344C19.8971 13.4704 20.2193 16.2053 22.09 18.8474C23.0753 20.2392 23.5692 20.9122 24.2917 21.8478L23.8077 22.4134C22.4215 21.6814 21.4693 20.6793 20.6298 19.7957ZM34.0225 23.465C35.2827 22.4995 35.9368 22.0241 37.5221 20.9217C38.7222 20.0873 39.9284 19.6462 41.0103 19.6462C41.6676 19.6462 42.2654 19.8064 42.7871 20.1222C43.7736 20.7184 44.496 21.8338 44.8761 23.3476C45.2169 24.7053 45.2822 26.3847 45.0679 28.2273H45.0727L45.0133 28.6582C44.8892 29.5571 44.5317 30.5584 44.057 31.3369C43.4478 32.3359 42.7201 32.8639 41.9526 32.8639C40.7775 32.8639 40.005 32.0546 38.935 30.9337C37.889 29.8319 36.5872 28.4606 34.4877 27.5531L34.2009 27.4292L34.2663 27.126C34.3393 26.7872 34.3763 26.4356 34.3763 26.0811C34.3763 25.3371 34.2184 24.61 33.9071 23.9202L33.7842 23.6476L34.0225 23.465ZM34.2222 34.5108C35.558 36.3978 35.869 38.2574 35.0849 39.6343V39.6378L35.0291 39.7287C34.0841 41.2676 31.9112 42.1151 28.9108 42.1151C28.1239 42.1151 27.2847 42.0557 26.416 41.9386C25.5091 41.8157 24.4987 41.4614 23.7132 40.9909C22.7052 40.3872 22.1724 39.666 22.1724 38.9053C22.1724 37.7407 22.989 36.9751 24.1199 35.9146C25.2317 34.878 26.6154 33.5879 27.5311 31.507L27.6549 31.2256L27.9585 31.2869C28.3072 31.3574 28.6631 31.3931 29.0163 31.3931C29.7671 31.3931 30.5007 31.2366 31.1967 30.9281L31.4717 30.8062L31.656 31.0424C32.6298 32.2909 33.1095 32.9392 34.2222 34.5108ZM25.7621 26.0803C25.7621 24.3019 27.222 22.8549 29.0165 22.8549C30.8111 22.8549 32.271 24.3019 32.271 26.0803C32.271 27.8588 30.8111 29.3057 29.0165 29.3057C27.222 29.3057 25.7621 27.8588 25.7621 26.0803ZM23.8106 17.6502C22.4749 15.7633 22.1638 13.9037 22.9479 12.5268V12.5233L23.0037 12.4324C23.9488 10.8935 26.1217 10.046 29.1221 10.046C29.9089 10.046 30.7482 10.1054 31.617 10.2225C32.5228 10.3455 33.5326 10.6998 34.3182 11.1701C35.3272 11.774 35.8605 12.4953 35.8605 13.2558C35.8605 14.4203 35.0439 15.186 33.9129 16.2465C32.8011 17.2831 31.4175 18.5732 30.5018 20.654L30.3779 20.9355L30.0743 20.8742C29.7256 20.8037 29.3697 20.768 29.0165 20.768C28.2658 20.768 27.5322 20.9244 26.8361 21.2329L26.5611 21.3548L26.3769 21.1186C25.403 19.8702 24.9233 19.2219 23.8106 17.6502ZM24.1256 28.2416L24.2486 28.5142L24.0103 28.6968C22.7502 29.6622 22.0961 30.1376 20.5106 31.2401L20.4114 31.3089H20.4101C19.2432 32.0988 18.0741 32.5156 17.0223 32.5156C16.365 32.5156 15.7671 32.3554 15.2458 32.0398C14.258 31.444 13.5349 30.3286 13.1547 28.8142C12.7879 27.3531 12.7399 25.5168 13.0159 23.5035C13.1401 22.6058 13.4975 21.605 13.9721 20.8263C14.5815 19.8264 15.3092 19.2979 16.0766 19.2979C17.2516 19.2979 18.0242 20.1072 19.0942 21.2281C20.1401 22.3299 21.4418 23.7012 23.5415 24.6087L23.8255 24.7315L23.7636 25.0323C23.6925 25.378 23.6564 25.7307 23.6564 26.0807C23.6564 26.8247 23.8143 27.5518 24.1256 28.2416Z" fill="#778495"/>
<path d="M57.6774 22.6284C57.4736 22.4265 57.203 22.3152 56.9155 22.3152C56.6279 22.3152 56.3573 22.4265 56.1536 22.6284L55.1762 23.597C54.5814 17.311 51.7164 11.4875 47.0494 7.11744C42.1478 2.5277 35.737 0 28.9978 0C26.0033 1.85267e-05 23.0651 0.496038 20.2647 1.47433C17.5583 2.41979 15.0365 3.79445 12.7695 5.56018C10.5249 7.30848 8.5914 9.39169 7.02276 11.7519C5.4278 14.1518 4.25354 16.7742 3.53226 19.5475C3.38582 20.1183 3.7336 20.7014 4.30641 20.8471C4.88104 20.9951 5.47007 20.6511 5.61995 20.0796C6.28131 17.535 7.35898 15.1279 8.823 12.9249C10.2632 10.7578 12.0386 8.84507 14.0998 7.23986C16.1812 5.61899 18.4964 4.35718 20.9811 3.48944C23.5518 2.59167 26.2496 2.13645 28.9995 2.13645C35.1543 2.13662 41.0172 4.43636 45.5082 8.61209C49.7096 12.5185 52.3389 17.7119 52.9844 23.3327L52.2737 22.6284C51.8535 22.212 51.17 22.212 50.7498 22.6284C50.3298 23.0447 50.3298 23.7222 50.7498 24.1386L53.4517 26.8163C53.6549 27.0177 53.9255 27.1286 54.2136 27.1286C54.5018 27.1286 54.7724 27.0177 54.9755 26.8163L57.6774 24.1386C57.8811 23.9366 57.9933 23.6685 57.9933 23.3835C57.9933 23.0985 57.8811 22.8303 57.6774 22.6284Z" fill="#778495"/>
<path d="M53.687 31.2773C53.4081 31.2054 53.1178 31.2459 52.8695 31.3912C52.6222 31.5361 52.4461 31.7679 52.3735 32.0447C51.7117 34.5889 50.6338 36.9958 49.1698 39.1987C47.7294 41.3658 45.9541 43.2785 43.8931 44.8836C41.8119 46.5046 39.497 47.7663 37.0128 48.634C34.4435 49.5312 31.7475 49.9862 28.9993 49.9862H28.9956C22.8409 49.986 16.9779 47.6863 12.4869 43.5106C8.28548 39.6041 5.65627 34.411 5.01078 28.7901L5.71967 29.4927C5.92343 29.6946 6.194 29.8058 6.48157 29.8058C6.76912 29.8058 7.0397 29.6946 7.24346 29.4927C7.66354 29.0763 7.66356 28.3988 7.24346 27.9825L4.54163 25.3048C4.33837 25.1034 4.0678 24.9924 3.7797 24.9924C3.49161 24.9924 3.22104 25.1034 3.01778 25.3048L0.315968 27.9825C0.112209 28.1844 0 28.4526 0 28.7376C0 29.0226 0.112209 29.2908 0.315968 29.4927C0.519708 29.6946 0.790284 29.8058 1.07785 29.8058C1.3654 29.8058 1.63598 29.6946 1.83974 29.4927L2.81722 28.5239C3.41277 34.8105 6.2783 40.6347 10.9453 45.0052C15.8466 49.5952 22.257 52.1235 28.9956 52.1243C31.9901 52.1243 34.9283 51.6283 37.7287 50.65C40.4351 49.7045 42.9569 48.3299 45.2239 46.5642C47.4685 44.8158 49.402 42.7326 50.9706 40.3724C52.5656 37.9725 53.7399 35.3502 54.4611 32.5769C54.6076 32.006 54.2598 31.4229 53.687 31.2773Z" fill="#778495"/>
</svg>
