<svg width="43" height="47" viewBox="0 0 43 47" fill="none" xmlns="http://www.w3.org/2000/svg">
<path d="M21.1055 16.3026C22.8512 16.3026 24.5303 16.9529 25.8184 18.119L26.0703 18.3592C27.3868 19.676 28.127 21.462 28.127 23.324C28.1269 25.0697 27.4766 26.7489 26.3105 28.0369L26.0703 28.2889C24.7536 29.6053 22.9675 30.3455 21.1055 30.3455C19.3598 30.3455 17.6806 29.6952 16.3926 28.5291L16.1406 28.2889C14.8241 26.9721 14.084 25.1861 14.084 23.324C14.084 21.462 14.8242 19.676 16.1406 18.3592C17.4574 17.0427 19.2434 16.3026 21.1055 16.3026ZM21.1055 18.7908C19.9034 18.7908 18.7504 19.2679 17.9004 20.118C17.05 20.968 16.5723 22.1217 16.5723 23.324C16.5723 24.5261 17.0493 25.6791 17.8994 26.5291C18.7494 27.3795 19.9032 27.8572 21.1055 27.8572C22.3078 27.8572 23.4605 27.3795 24.3105 26.5291C25.1609 25.6791 25.6387 24.5263 25.6387 23.324C25.6387 22.1218 25.1609 20.969 24.3105 20.119C23.4606 19.2686 22.3078 18.7908 21.1055 18.7908Z" fill="#778495" stroke="white" stroke-width="0.400934"/>
<path d="M21.0908 0.200195C23.4252 0.20032 25.6389 1.23648 27.1348 3.02832C28.6306 4.8205 29.2541 7.18391 28.8369 9.48047L28.7402 10.0107L29.1602 9.67285C30.9492 8.22983 33.2807 7.64193 35.54 8.06445C37.7992 8.48706 39.7599 9.87796 40.9062 11.8701C42.0511 13.8618 42.2693 16.2543 41.5029 18.4199C40.7368 20.5859 39.0627 22.3091 36.9199 23.1377L36.4385 23.3232L36.9199 23.5107C39.056 24.3432 40.7224 26.0681 41.4814 28.2314C42.2407 30.3947 42.0173 32.7817 40.8701 34.7666C39.7226 36.7515 37.7651 38.1367 35.5117 38.5586C33.2581 38.9803 30.9332 38.3962 29.1455 36.9609L28.7266 36.625L28.8223 37.1533C29.2396 39.45 28.616 41.8142 27.1201 43.6064C25.6243 45.3982 23.4105 46.4335 21.0762 46.4336C18.7417 46.4336 16.5272 45.3984 15.0312 43.6064C13.5353 41.8142 12.9118 39.45 13.3291 37.1533L13.4268 36.6182L13.0049 36.9629C11.1815 38.4513 8.78592 39.0421 6.47949 38.5723C4.31726 38.1319 2.44665 36.8029 1.31836 34.9219L1.10254 34.5381C0.00643721 32.455 -0.0959537 29.9893 0.823242 27.8223L0.824219 27.8203C1.64519 25.8242 3.26339 24.2626 5.28711 23.5127L5.79199 23.3252L5.28711 23.1367C3.26885 22.3836 1.65664 20.8221 0.838867 18.8291L0.837891 18.8271C-0.0701621 16.6606 0.0388719 14.201 1.13477 12.123C2.23043 10.0452 4.19818 8.56593 6.49902 8.0918C8.79998 7.61742 11.1923 8.19757 13.0205 9.67285L13.4404 10.0107L13.3438 9.48047C12.9266 7.18395 13.5501 4.82048 15.0459 3.02832C16.5418 1.2363 18.7563 0.200195 21.0908 0.200195ZM21.1045 2.87793C19.4226 2.87803 17.8368 3.66445 16.8184 5.00293C15.8 6.34152 15.4656 8.07924 15.9141 9.7002L17.084 13.9463C17.1557 14.2119 17.1378 14.4942 17.0322 14.748C16.9262 15.0026 16.7384 15.214 16.499 15.3506L16.498 15.3516C16.2605 15.4891 15.9842 15.5438 15.7119 15.5078C15.4738 15.4763 15.2504 15.3767 15.0684 15.2217L14.9932 15.1523L11.8877 12.0186C10.7094 10.8316 9.04565 10.261 7.38672 10.4756C5.72802 10.6903 4.26318 11.6652 3.42578 13.1133V13.1143C2.60153 14.5574 2.49222 16.3019 3.12891 17.8369C3.7659 19.3718 5.07796 20.5252 6.68164 20.9609L6.68359 20.9619L10.9443 22.0742L10.9688 22.0801H10.9941C11.4383 22.0801 11.8488 22.3176 12.0713 22.7021C12.2934 23.087 12.2934 23.5615 12.0713 23.9463C11.8489 24.3311 11.4385 24.5684 10.9941 24.5684H10.9697L10.9453 24.5742L6.71387 25.6436H6.71191C5.08634 26.0666 3.75374 27.2275 3.11133 28.7793L3.0957 28.8164V28.8623C2.46455 30.3991 2.57919 32.1419 3.40918 33.583C4.24649 35.0365 5.71511 36.0157 7.37891 36.2295C9.04264 36.4432 10.7109 35.8675 11.8887 34.6729L11.8877 34.6719L14.9922 31.54C15.2269 31.3075 15.5445 31.1779 15.875 31.1797H15.8779C16.0958 31.1782 16.3104 31.2343 16.5 31.3418V31.3408C16.7389 31.4772 16.9252 31.6894 17.0312 31.9434V31.9443C17.1369 32.1984 17.1558 32.4804 17.084 32.7461L15.9141 36.9922C15.4657 38.6132 15.7999 40.351 16.8184 41.6895C17.8368 43.028 19.4226 43.8134 21.1045 43.8135C22.7865 43.8135 24.3721 43.0279 25.3906 41.6895C26.3456 40.4344 26.6993 38.8285 26.3701 37.2969L26.2949 36.9922L25.126 32.7461L25.1221 32.7354L25.085 32.5977C25.0161 32.2747 25.0783 31.9348 25.2617 31.6553C25.4713 31.3364 25.8158 31.1308 26.1963 31.0986C26.577 31.0665 26.9518 31.2114 27.2119 31.4912L27.2168 31.4961L30.3213 34.6299C31.4997 35.817 33.1642 36.3876 34.8232 36.1729C36.4819 35.9581 37.9458 34.9832 38.7832 33.5352H38.7842C39.6099 32.1021 39.7287 30.3684 39.1074 28.8359C38.4861 27.3033 37.1937 26.1411 35.6035 25.6875L35.5977 25.6865L31.2646 24.5742L31.2402 24.5684H31.2148C30.7706 24.5683 30.3601 24.3311 30.1377 23.9463C29.9156 23.5614 29.9156 23.087 30.1377 22.7021C30.36 22.3174 30.7706 22.0802 31.2148 22.0801H31.2393L31.2637 22.0742L35.4951 21.0205L35.499 21.0195C37.109 20.5863 38.4268 19.4297 39.0654 17.8896C39.7039 16.3498 39.5907 14.6004 38.7598 13.1553C37.9289 11.71 36.4736 10.7326 34.8213 10.5098C33.169 10.2869 31.5075 10.8442 30.3232 12.0176L30.3213 12.0186L27.2158 15.1523C27.022 15.3468 26.7699 15.4718 26.498 15.5078C26.2259 15.5438 25.9495 15.4891 25.7119 15.3516L25.71 15.3506C25.4708 15.2141 25.2837 15.0024 25.1777 14.748C25.0721 14.4941 25.0542 14.2119 25.126 13.9463L26.2959 9.7002C26.7443 8.07912 26.4091 6.34149 25.3906 5.00293C24.3721 3.66431 22.7865 2.87793 21.1045 2.87793Z" fill="#778495" stroke="white" stroke-width="0.400934"/>
</svg>
