<svg width="38" height="51" viewBox="0 0 38 51" fill="none" xmlns="http://www.w3.org/2000/svg">
<path d="M22.0354 50.9053C21.5799 50.9053 21.1464 50.6708 20.9032 50.2741C20.6068 49.7898 20.6555 49.1717 21.0248 48.7399L22.7497 46.7236C23.809 45.4874 24.4835 43.7648 24.6493 41.8736C24.9523 38.4348 22.7608 35.4277 20.6488 33.37C20.0296 35.8576 18.4374 37.6087 17.283 38.8755C17.011 39.1758 16.781 39.4278 16.5687 39.6777C14.7752 41.7949 13.7447 43.4869 15.6996 47.5524L16.3829 48.9792C16.5908 49.4109 16.5443 49.9194 16.2635 50.3073C15.9826 50.6953 15.5094 50.9079 15.0361 50.8509L13.4527 50.6734C9.81713 50.2679 6.55725 48.7118 4.02335 46.1716C1.42933 43.5723 -0.0368492 40.2214 0.000704108 36.9775C0.0360873 33.7513 1.17057 31.3275 2.17012 29.1879C3.43065 26.4965 4.26216 24.7212 2.78932 22.2755L1.79416 20.6229C1.52879 20.1802 1.54869 19.6257 1.84281 19.2005C2.13914 18.7775 2.6544 18.5627 3.16968 18.6548L5.08037 18.9967C7.84913 19.492 10.202 21.3308 11.6154 23.9542C11.925 22.6721 12.0732 20.9669 11.8012 18.7512C11.1488 13.4032 11.4429 6.57401 19.5944 1.19143L21.065 0.220492C21.483 -0.0556592 22.0204 -0.0731926 22.4582 0.172277C22.8939 0.41994 23.1527 0.888956 23.1261 1.38649L23.0288 3.13545C22.7015 9.08565 24.2583 13.3727 28.407 17.9291C31.9542 21.826 35.6186 25.8543 36.941 31.941C37.987 36.7625 37.171 41.0917 34.5725 44.4581C32.392 47.2854 28.9664 49.3521 24.9261 50.2769L22.3277 50.8709C22.2348 50.895 22.1353 50.9059 22.0358 50.9059L22.0354 50.9053ZM5.54921 21.8304C7.03087 25.0566 5.78805 27.7152 4.58061 30.2947C3.60536 32.379 2.68318 34.3472 2.65445 37.008C2.6257 39.5547 3.81105 42.2199 5.9097 44.3239C7.82926 46.246 10.2574 47.4909 12.9689 47.9512C10.8503 42.9824 12.5708 40.3018 14.5368 37.9855C14.7668 37.7138 15.0167 37.4398 15.2732 37.1571C16.7725 35.5089 18.4311 33.6876 18.2365 30.766C18.2033 30.2487 18.4775 29.76 18.9419 29.5167C19.4041 29.2756 19.968 29.3238 20.3794 29.646C23.1769 31.8245 27.7966 36.3396 27.2881 42.1014C27.1156 44.0585 26.503 45.8952 25.5344 47.3965C28.4425 46.511 30.873 44.9265 32.4648 42.8641C34.5745 40.1288 35.2247 36.5431 34.3445 32.4973C33.1724 27.0969 29.7469 23.334 26.4338 19.6936C21.9688 14.7865 20.1691 10.1506 20.3413 3.88015C14.1511 8.32054 13.8308 13.4932 14.4342 18.4372C15.0622 23.5832 13.7552 26.6097 12.5478 28.2448C12.236 28.6656 11.7031 28.8607 11.1922 28.7511C10.6792 28.6393 10.2811 28.236 10.1771 27.7253C9.73264 25.5052 8.2598 22.7785 5.5486 21.8294L5.54921 21.8304Z" fill="#778495"/>
</svg>
