<?xml version="1.0" encoding="UTF-8"?>
<svg id="Layer_1" xmlns="http://www.w3.org/2000/svg" version="1.1" xmlns:xlink="http://www.w3.org/1999/xlink" viewBox="0 0 786 91">
  <!-- Generator: Adobe Illustrator 29.6.1, SVG Export Plug-In . SVG Version: 2.1.1 Build 9)  -->
  <defs>
    <style>
      .st0 {
        fill: #4498d8;
      }

      .st1 {
        fill: none;
      }

      .st2 {
        fill: #221f20;
      }

      .st3 {
        isolation: isolate;
      }

      .st4 {
        fill: #58595b;
      }

      .st5 {
        clip-path: url(#clippath);
      }
    </style>
    <clipPath id="clippath">
      <rect class="st1" width="503.6" height="88.7"/>
    </clipPath>
  </defs>
  <g class="st5">
    <path class="st0" d="M317.7,86.1c-.2,0-.4,0-.6-.2-20.9-16.4-24.4-46.7-8-67.6,16.4-20.9,46.7-24.4,67.6-8,2.7,2.1,5.1,4.5,7.3,7.2.4.4.3,1.1-.1,1.4-.4.4-1.1.3-1.4-.1-16.2-19.6-45.3-22.4-64.9-6.2-19.6,16.2-22.4,45.3-6.2,64.9,2.1,2.5,4.5,4.8,7,6.9.4.3.5,1,.2,1.4-.2.2-.5.4-.8.4"/>
    <path class="st0" d="M319.3,77.2c-.3,0-.5-.1-.7-.3-15.9-15.6-16.1-41.2-.5-57.1,13.9-14.1,36-16.1,52.2-4.6.4.3.5,1,.2,1.4-.3.4-.9.5-1.4.2-17.2-12.3-41.2-8.3-53.5,9-10.9,15.3-9.1,36.4,4.3,49.6.4.4.4,1,0,1.4-.2.2-.4.3-.7.3"/>
    <path class="st0" d="M321.3,67.7c-.3,0-.6-.2-.8-.4-10.1-14-7.7-33.4,5.6-44.4.4-.4,1.1-.3,1.4.1.4.4.3,1.1-.1,1.4h0c-12.5,10.3-14.8,28.6-5.3,41.7.3.4.2,1.1-.2,1.4-.2.1-.4.2-.6.2"/>
    <path class="st4" d="M349.3,22.2h2.1l21.8,50.7h-2.6l-7.5-17.5h-25.4l-7.5,17.5h-2.7l21.8-50.7ZM362.3,53.3l-11.9-27.9-12,27.9h23.9Z"/>
    <path class="st4" d="M396.9,38.1c-3.2,0-6.4,1.2-8.9,3.2-2.6,2.1-4.4,5-5.3,8.2v23.3h-2.4v-37.1h2.4v9.4c1.2-2.5,3-4.7,5.1-6.4,2-1.6,4.3-2.6,6.8-2.9.5,0,.9,0,1.3,0h1v2.3Z"/>
    <path class="st4" d="M420.5,38.1c-3.2,0-6.4,1.2-8.9,3.2-2.6,2.1-4.4,5-5.3,8.2v23.3h-2.4v-37.1h2.4v9.4c1.2-2.5,3-4.7,5.1-6.4,2-1.6,4.3-2.6,6.8-2.9.5,0,.9,0,1.3,0h1v2.3Z"/>
    <path class="st4" d="M436,73.6c-1.6,0-3.3-.3-4.8-.9-1.4-.6-2.7-1.4-3.9-2.4-1.1-1-2-2.2-2.6-3.6-.6-1.4-.9-2.9-.9-4.5,0-1.5.4-3,1.1-4.3.8-1.3,1.9-2.5,3.2-3.4,1.5-1,3.1-1.8,4.9-2.2,2-.5,4.1-.8,6.2-.8,2.1,0,4.2.2,6.3.5,2,.3,3.9.8,5.7,1.5v-4c.2-3.3-1-6.5-3.2-8.9-2.2-2.3-5.3-3.5-8.5-3.3-2,0-3.9.4-5.8,1.2-2.2.9-4.2,2-6.1,3.4l-1.1-1.8c4.8-3.2,9.2-4.9,13.2-4.9,4.3,0,7.7,1.3,10.2,3.9,2.5,2.6,3.7,6.1,3.7,10.6v19.4c0,1,.4,1.6,1.3,1.6v2.3c-.1,0-.3,0-.4,0h-.3c-.8,0-1.5-.3-2-.9-.5-.6-.8-1.4-.8-2.2v-3.3c-1.7,2.3-4,4-6.6,5.2-2.8,1.2-5.8,1.8-8.8,1.8M436.3,71.5c1.8,0,3.6-.2,5.3-.7,1.7-.4,3.3-1.1,4.8-2,1.3-.7,2.5-1.7,3.5-2.9.9-1,1.3-2.2,1.4-3.5v-7c-3.8-1.4-7.8-2.2-11.8-2.1-1.8,0-3.6.2-5.4.6-1.5.4-2.9,1-4.2,1.8-1.1.7-2,1.6-2.7,2.7-.6,1.1-1,2.3-1,3.6,0,1.3.3,2.5.8,3.7.5,1.1,1.2,2.1,2.1,3,.9.9,2,1.5,3.2,2,1.3.5,2.6.7,4,.7"/>
    <path class="st4" d="M466.8,86.4c1.1,0,2.3,0,3.4-.5.3-.2.5-.5.7-.7.4-.6.7-1.3,1-1.9.4-.9,1-2.2,1.7-3.9s1.6-3.8,2.8-6.5l-16.9-37.1h2.6l15.6,34.5,14.7-34.5h2.4l-21.2,49.7c-.7,1.6-2.2,2.8-3.9,3.1-.5,0-.9.2-1.4.2-.5,0-1,0-1.5,0v-2.3Z"/>
    <path class="st2" d="M279.6,69.2c-.1,0-.3,0-.5,0h-.2v.9h.3c.2,0,.3,0,.4-.1.1,0,.2-.2.1-.4,0-.2,0-.3-.2-.3M278.2,71.6v-3c.2,0,.5,0,.8,0h.6c.2,0,.4,0,.6.1.3.1.4.4.4.7,0,.2,0,.4-.2.5-.1.1-.3.2-.5.2.2,0,.3,0,.4.2.2.2.3.4.3.7v.3s0,0,0,0c0,0,0,0,0,.1h0c0,0-.7,0-.7,0,0-.1,0-.3,0-.4,0-.1,0-.2,0-.4,0-.1-.1-.2-.2-.2,0,0-.2,0-.3,0h-.2s-.2,0-.2,0v1.1h-.8ZM277.8,68.6c-.9.9-.8,2.3,0,3.1,0,0,0,0,0,0,.8.9,2.2.9,3.1,0,0,0,0,0,0,0,.4-.4.7-1,.6-1.6,0-1.2-1-2.2-2.2-2.2-.6,0-1.2.2-1.6.7M281.2,72c-1.1,1.1-2.8,1.1-3.8,0s-1.1-2.8,0-3.8,2.8-1.1,3.8,0c.5.5.8,1.2.8,1.9,0,.7-.3,1.4-.8,1.9"/>
    <path class="st2" d="M23.2,27.9l-1.7,10h14.7s-1.9,11.1-1.9,11.1h-14.7s-3.9,22.2-3.9,22.2H0S9.4,16.4,9.4,16.4h34.6c0,0-1.9,11.4-1.9,11.4h-19ZM47.8,55.1c-.8,5.3,1.6,8.1,7.1,8.1,2.8,0,5.6-1.2,7.3-3.4h12.4c-4.4,8.5-13.3,12.5-21.2,12.5-12.5,0-20.7-6.8-18.7-19.4,2-12.1,11.7-19.5,24-19.5,13.1,0,19.6,7.8,17.6,20.2l-.2,1.3h-28.4ZM64.8,48.1c-.1-4-3-6.2-6.6-6.2-4.1,0-7.8,2.4-9.1,6.3h15.8ZM220.4,54.8c-.9,5.3,1.6,8.1,7.1,8.1,2.8,0,5.6-1.2,7.4-3.4h12.4c-4.4,8.5-13.3,12.5-21.2,12.5-12.5,0-20.7-6.8-18.7-19.4,2-12.1,11.7-19.5,24-19.5,13.1,0,19.6,7.8,17.6,20.2l-.2,1.3h-28.4ZM237.3,47.8c-.1-4-3-6.2-6.6-6.2-4.1,0-7.8,2.4-9.1,6.3h15.8ZM75.7,71.2l8.8-56.2h12.3s-8.8,56.2-8.8,56.2h-12.3ZM91.3,79.2l8.8-56.2h12.3s-8.8,56.2-8.8,56.2h-12.3ZM152.7,52.8c-1.9,12.4-13,19.4-24.5,19.5-11.4,0-20.4-6.9-18.5-19.4,1.9-12.4,13-19.5,24.5-19.5s20.4,7,18.5,19.4M123.1,52.9c-1,5.4,1.2,9.1,6.4,9.1s8.8-3.1,9.9-9.2c.9-5.1-1.2-9.2-6.3-9.2s-8.9,3.4-10,9.2M275.4,43.7c-2-1.1-4.3-1.7-6.7-1.8-1.5,0-4.1.6-4.4,2.5-.4,2.5,3.6,2.8,5.3,3.2,5.8,1.2,9.9,4,8.9,10.8-1.5,9.6-10.9,13.6-19.3,13.6-4.8.1-9.5-1.2-13.5-3.9l4.3-8c2.3,1.8,7.8,2.4,11,2.4,1.6,0,4.2-.8,4.5-2.8.4-2.8-3.6-3-7.5-4s-7.6-3-6.6-9.6c1.4-8.9,10.1-12.9,18.1-13,4-.1,8,.7,11.6,2.3l-5.6,8.2ZM169.5,54.4l7.8-19.9h10.6s2.6,19.9,2.6,19.9l8.8-20h13.9s-18.8,36.5-18.8,36.5h-11.7s-2.5-20-2.5-20h-.2l-7.8,20h-11.9s-8.3-36.4-8.3-36.4h13.9s3.6,19.9,3.6,19.9Z"/>
    <path class="st4" d="M500.5,25.3c-.2,0-.4,0-.6,0h-.2v1.1h.4c.2,0,.4,0,.6-.1.1-.1.2-.3.2-.5,0-.2-.1-.4-.3-.4M498.7,28.4v-3.8c.2,0,.6,0,1.1,0h.8c.3,0,.5,0,.8.2.3.2.5.5.5.9,0,.3,0,.5-.3.7-.2.1-.4.2-.7.2.2,0,.4.1.6.2.2.2.4.5.3.9v.3s0,0,0,0c0,0,0,0,0,.1h0c0,.1-1,.1-1,.1,0-.2,0-.3,0-.5,0-.2,0-.3,0-.5,0-.1-.2-.2-.3-.3-.1,0-.2,0-.3,0h-.2s-.2,0-.2,0v1.4h-1ZM498.2,24.5c-1.1,1.1-1.1,2.9,0,4,1.1,1.1,2.9,1.1,4,0,0,0,0,0,0,0,.5-.5.8-1.3.8-2,0-1.6-1.3-2.8-2.8-2.8-.8,0-1.5.3-2,.9M502.6,29c-1.4,1.4-3.6,1.4-4.9,0-1.4-1.4-1.4-3.6,0-4.9,1.4-1.4,3.6-1.4,4.9,0,.7.7,1,1.5,1,2.5,0,.9-.3,1.8-1,2.5"/>
  </g>
  <g class="st3">
    <path class="st4" d="M526.1,74V22.9h1.4v49.7h32.1v1.4h-33.6Z"/>
    <path class="st4" d="M580.3,74.7c-2.4,0-4.8-.5-6.9-1.5-2.2-1-4-2.4-5.7-4.2-1.6-1.8-2.9-3.8-3.8-6.2-.9-2.4-1.4-4.8-1.4-7.4s.5-5.1,1.4-7.5c.9-2.3,2.2-4.4,3.9-6.2,1.6-1.8,3.5-3.2,5.7-4.2,2.2-1,4.4-1.5,6.8-1.5s4.7.5,6.8,1.5c2.2,1,4,2.4,5.7,4.2,1.6,1.8,2.9,3.8,3.9,6.2,1,2.3,1.4,4.8,1.4,7.5s-.5,5.1-1.4,7.4c-.9,2.4-2.2,4.4-3.8,6.2-1.6,1.8-3.5,3.1-5.7,4.2-2.2,1-4.5,1.5-6.9,1.5ZM563.9,55.6c0,2.4.4,4.7,1.3,6.8s2,4,3.5,5.7c1.5,1.6,3.2,2.9,5.1,3.8s4.1,1.4,6.3,1.4,4.3-.5,6.3-1.4c2-1,3.7-2.3,5.3-3.9s2.7-3.5,3.6-5.7c.9-2.2,1.3-4.5,1.3-6.9s-.4-4.7-1.3-6.8c-.9-2.2-2-4.1-3.5-5.7-1.5-1.6-3.2-2.9-5.2-3.9-2-1-4.1-1.4-6.3-1.4s-4.3.5-6.3,1.4c-2,1-3.7,2.3-5.2,3.9-1.5,1.7-2.7,3.6-3.5,5.8-.9,2.2-1.3,4.5-1.3,6.9Z"/>
    <path class="st4" d="M622.5,74.7c-2.4,0-4.8-.5-6.9-1.5-2.2-1-4-2.4-5.7-4.2-1.6-1.8-2.9-3.8-3.8-6.2-.9-2.4-1.4-4.8-1.4-7.4s.5-5.1,1.4-7.5c.9-2.3,2.2-4.4,3.9-6.2,1.6-1.8,3.5-3.2,5.7-4.2,2.2-1,4.4-1.5,6.8-1.5s4.7.5,6.8,1.5c2.2,1,4,2.4,5.7,4.2,1.6,1.8,2.9,3.8,3.9,6.2,1,2.3,1.4,4.8,1.4,7.5s-.5,5.1-1.4,7.4c-.9,2.4-2.2,4.4-3.8,6.2-1.6,1.8-3.5,3.1-5.7,4.2-2.2,1-4.5,1.5-6.9,1.5ZM606.1,55.6c0,2.4.4,4.7,1.3,6.8.9,2.2,2,4,3.5,5.7,1.5,1.6,3.2,2.9,5.1,3.8,2,.9,4.1,1.4,6.3,1.4s4.3-.5,6.3-1.4c2-1,3.7-2.3,5.3-3.9s2.7-3.5,3.6-5.7c.9-2.2,1.3-4.5,1.3-6.9s-.4-4.7-1.3-6.8c-.9-2.2-2-4.1-3.5-5.7-1.5-1.6-3.2-2.9-5.2-3.9-2-1-4.1-1.4-6.3-1.4s-4.3.5-6.3,1.4c-2,1-3.7,2.3-5.2,3.9-1.5,1.7-2.7,3.6-3.5,5.8-.9,2.2-1.3,4.5-1.3,6.9Z"/>
    <path class="st4" d="M677.1,74l-15.9-21.4-10.2,9.2v12.2h-1.4V21.4h1.4v38.4l25.5-23.1h1.9l-16.2,14.8,16.6,22.4h-1.7Z"/>
    <path class="st4" d="M699.3,74.7c-2.4,0-4.8-.5-6.9-1.5-2.2-1-4-2.4-5.7-4.2-1.6-1.8-2.9-3.8-3.8-6.2-.9-2.4-1.4-4.8-1.4-7.4s.5-5.1,1.4-7.5c.9-2.3,2.2-4.4,3.9-6.2,1.6-1.8,3.5-3.2,5.7-4.2,2.2-1,4.4-1.5,6.8-1.5s4.7.5,6.8,1.5c2.2,1,4,2.4,5.7,4.2,1.6,1.8,2.9,3.8,3.9,6.2,1,2.3,1.4,4.8,1.4,7.5s-.5,5.1-1.4,7.4c-.9,2.4-2.2,4.4-3.8,6.2-1.6,1.8-3.5,3.1-5.7,4.2-2.2,1-4.5,1.5-6.9,1.5ZM682.9,55.6c0,2.4.4,4.7,1.3,6.8.9,2.2,2,4,3.5,5.7,1.5,1.6,3.2,2.9,5.1,3.8,2,.9,4.1,1.4,6.3,1.4s4.3-.5,6.3-1.4c2-1,3.7-2.3,5.3-3.9s2.7-3.5,3.6-5.7c.9-2.2,1.3-4.5,1.3-6.9s-.4-4.7-1.3-6.8c-.9-2.2-2-4.1-3.5-5.7-1.5-1.6-3.2-2.9-5.2-3.9-2-1-4.1-1.4-6.3-1.4s-4.3.5-6.3,1.4c-2,1-3.7,2.3-5.2,3.9-1.5,1.7-2.7,3.6-3.5,5.8-.9,2.2-1.3,4.5-1.3,6.9Z"/>
    <path class="st4" d="M738,74.7c-8,0-12-5.7-12-17.1v-21h1.4v21c0,10.5,3.5,15.7,10.6,15.7s3.5-.3,5.3-1c1.7-.6,3.3-1.5,4.8-2.7,1.4-1.1,2.7-2.5,3.8-4.1s1.9-3.3,2.5-5.2v-23.8h1.4v34.5c0,1,.4,1.4,1.2,1.4v1.4c-.5,0-.9,0-1-.1-.5-.2-.9-.5-1.2-1-.3-.5-.4-1.1-.4-1.7v-6.6c-1.6,3.2-3.9,5.7-6.8,7.5-2.9,1.8-6.1,2.7-9.4,2.7Z"/>
    <path class="st4" d="M782.4,72.3c-.7.5-1.4.8-2,1.1-.6.2-1.3.5-2.1.7-.8.2-1.7.3-2.7.3-1.7,0-3.2-.5-4.5-1.6s-1.9-2.4-1.9-4.2v-30.5h-5.4v-1.4h5.4v-13h1.4v13h9v1.4h-9v30.5c0,1.4.6,2.5,1.7,3.2,1,.7,2.1,1.1,3.4,1.1s1.6,0,2.3-.3c.7-.2,1.4-.4,1.9-.6s1-.4,1.3-.6c.3-.2.5-.3.5-.4l.8,1.2Z"/>
  </g>
</svg>