<?xml version="1.0" encoding="UTF-8"?>
<svg id="Layer_1" xmlns="http://www.w3.org/2000/svg" version="1.1" viewBox="0 0 112 85">
  <!-- Generator: Adobe Illustrator 29.5.1, SVG Export Plug-In . SVG Version: 2.1.0 Build 141)  -->
  <defs>
    <style>
      .st0 {
        fill: #778495;
      }

      .st1 {
        fill: #aebed3;
      }
    </style>
  </defs>
  <path class="st0" d="M7.8,54.3v-22.3h9.6c1,0,2.1.2,3,.7.9.4,1.7,1,2.4,1.8.7.7,1.2,1.6,1.6,2.5.4.9.6,1.8.6,2.8,0,2-.7,3.9-2,5.4-.6.7-1.4,1.3-2.3,1.7-.9.4-2,.7-3,.6h-3.6v6.9h-6.3ZM14,42.1h3.2c.4,0,.8-.2,1.1-.5.4-.6.5-1.2.5-1.9,0-.7-.2-1.4-.6-1.9-.3-.3-.7-.5-1.1-.5h-3.1v4.8Z"/>
  <path class="st0" d="M44.3,54.3v-11.8l-3.7,8.3h-3.3l-3.7-8.3v11.8h-6.1v-22.3h6.7l4.8,10.5,4.8-10.5h6.7v22.3h-6.2Z"/>
  <path class="st0" d="M60.6,54.3c0-1.3,0-2.5.2-3.8.1-1,.4-2,.8-2.9.4-.9,1-1.6,1.7-2.2.9-.7,1.9-1.3,2.9-1.8.7-.3,1.3-.6,1.9-.9.6-.3,1.1-.6,1.6-1,.4-.3.8-.7,1.1-1.2.3-.5.4-1,.4-1.5,0-.6-.2-1.2-.6-1.6-.4-.3-.9-.4-1.4-.4-.9,0-1.7.3-2.5.7-.8.4-1.5,1-2.2,1.6l-3.7-4c.5-.5,1-1,1.6-1.3.7-.4,1.4-.8,2.1-1.2.8-.3,1.7-.6,2.6-.8,1-.2,1.9-.3,2.9-.3,2.1-.1,4.2.5,5.9,1.8,1.5,1.4,2.2,3.3,2.1,5.3,0,.8,0,1.6-.3,2.3-.2.6-.5,1.2-.9,1.7-.4.5-.9,1-1.4,1.4-.6.5-1.2.9-1.9,1.2l-1.4.8c-.4.2-.8.5-1.2.8-.3.2-.7.6-.9.9-.2.3-.3.6-.3,1h8.3v5.3h-17.4Z"/>
  <rect class="st0" x="80.8" y="48.5" width="4.8" height="5.8"/>
  <path class="st0" d="M97,39.8c1,0,2,.2,3,.5.9.3,1.7.8,2.3,1.5.7.6,1.2,1.4,1.5,2.3.8,2,.8,4.1,0,6.1-.4.9-1,1.8-1.8,2.4-.8.7-1.7,1.2-2.7,1.6-2.6.9-5.4.7-7.9-.3-1.2-.6-2.2-1.5-3-2.6l3.3-3.8c.6.6,1.3,1.1,2,1.5.7.4,1.4.6,2.2.6.7,0,1.3-.2,1.8-.6.5-.4.7-1.1.7-1.7,0-.6-.2-1.2-.6-1.7-.4-.4-1-.7-1.6-.6-.4,0-.8,0-1.2.3-.3.2-.6.5-.8.8h-5.1l2.6-13.9h11.2v5.4h-6.9l-.3,2.4h1.4"/>
  <path class="st1" d="M16.2,18.1c0,2.4-2,4.4-4.4,4.4-2.4,0-4.4-2-4.4-4.4s2-4.4,4.4-4.4h0c2.4,0,4.4,2,4.4,4.4"/>
  <path class="st1" d="M32.5,18.1c0,2.4-2,4.4-4.4,4.4-2.4,0-4.4-2-4.4-4.4,0-2.4,2-4.4,4.4-4.4h0c2.4,0,4.4,2,4.4,4.4h0"/>
  <path class="st1" d="M24.5,8.9c0,2.4-2,4.4-4.4,4.4s-4.4-2-4.4-4.4,2-4.4,4.4-4.4h0c2.4,0,4.4,2,4.4,4.4"/>
  <path class="st1" d="M95.8,67c0-2.4,2-4.4,4.4-4.4s4.4,2,4.4,4.4-2,4.4-4.4,4.4c-2.4,0-4.4-2-4.4-4.4h0"/>
  <path class="st1" d="M79.4,67c0-2.4,2-4.4,4.4-4.4s4.4,2,4.4,4.4-2,4.4-4.4,4.4c-2.4,0-4.4-2-4.4-4.4h0"/>
  <path class="st1" d="M87.4,76.1c0-2.4,2-4.4,4.4-4.4s4.4,2,4.4,4.4-2,4.4-4.4,4.4c-2.4,0-4.4-2-4.4-4.4h0"/>
</svg>