<?xml version="1.0" encoding="UTF-8"?>
<svg id="Layer_1" xmlns="http://www.w3.org/2000/svg" version="1.1" viewBox="0 0 112 85">
  <!-- Generator: Adobe Illustrator 29.5.1, SVG Export Plug-In . SVG Version: 2.1.0 Build 141)  -->
  <defs>
    <style>
      .st0 {
        fill: #778495;
      }

      .st1 {
        fill: #aebed3;
      }
    </style>
  </defs>
  <path class="st1" d="M60,26.9h-4c-.8,0-1.4-.6-1.4-1.4,0-.8.6-1.4,1.4-1.4h4c.8,0,1.4.6,1.4,1.4,0,.8-.6,1.4-1.4,1.4"/>
  <path class="st1" d="M60,34h-4c-.8,0-1.4-.6-1.4-1.4,0-.8.6-1.4,1.4-1.4h4c.8,0,1.4.6,1.4,1.4,0,.8-.6,1.4-1.4,1.4"/>
  <path class="st1" d="M60,41.1h-4c-.8,0-1.4-.6-1.4-1.4,0-.8.6-1.4,1.4-1.4h4c.8,0,1.4.6,1.4,1.4,0,.8-.6,1.4-1.4,1.4"/>
  <path class="st0" d="M56,73.6c-6.8,0-12.3-5.5-12.3-12.3,0,0,0,0,0,0,0-1.3.2-2.5.6-3.7.9-2.8,2.8-5.2,5.3-6.8V17.8c0-3.5,2.8-6.4,6.4-6.4,0,0,0,0,0,0h0c3.5,0,6.4,2.8,6.4,6.4,0,0,0,0,0,0v33.1c5.8,3.5,7.6,11.1,4,16.9-2.2,3.6-6.2,5.8-10.4,5.8M56,14.2h0c-2,0-3.6,1.6-3.6,3.6,0,0,0,0,0,0v34.8l-.7.4c-4.6,2.5-6.4,8.2-3.9,12.8,2.4,4.6,8.1,6.3,12.7,4,2.2-1.2,3.9-3.2,4.7-5.6,1.4-4.4-.6-9.1-4.7-11.2l-.8-.4V17.8c0-2-1.6-3.6-3.6-3.6,0,0,0,0,0,0"/>
</svg>