<?xml version="1.0" encoding="UTF-8"?>
<svg id="Layer_1" xmlns="http://www.w3.org/2000/svg" version="1.1" viewBox="0 0 112 85">
  <!-- Generator: Adobe Illustrator 29.5.1, SVG Export Plug-In . SVG Version: 2.1.0 Build 141)  -->
  <defs>
    <style>
      .st0 {
        fill: #778495;
      }

      .st1 {
        fill: #aebed3;
      }
    </style>
  </defs>
  <path class="st1" d="M87,26.4C84.1,9.3,67.8-2.2,50.7.7c-13.1,2.2-23.5,12.5-25.7,25.7C9,28.8-2.1,43.7.3,59.7c2.1,14.4,14.5,25,29,25h53.4c16.2,0,29.3-13.1,29.3-29.3,0-14.5-10.6-26.9-25-29M100.3,73.2c-4.7,4.7-11.1,7.3-17.7,7.3H29.3c-13.8,0-25-11.3-25-25.1,0-12.9,9.9-23.7,22.8-24.9l1.7-.2.2-1.7c1.4-12.6,11.3-22.5,23.9-23.9,1,0,2.1-.2,3.1-.2,13.8,0,25.3,10.3,26.9,24l.2,1.7,1.7.2c13.8,1.2,23.9,13.4,22.7,27.2,0,0,0,0,0,0-.5,5.9-3.1,11.4-7.3,15.5"/>
  <path class="st0" d="M43,53.6c-.3.4-.7.7-1.2.9-.4.2-.9.4-1.4.5-.5,0-.9,0-1.4.2-.8,0-1.6-.2-2.3-.5-.7-.3-1.3-.8-1.7-1.4-.5-.6-.8-1.3-1.1-2-.2-.8-.4-1.6-.4-2.4,0-.7,0-1.5.3-2.2.2-.7.5-1.4,1-2,.4-.6,1-1.1,1.7-1.4.7-.4,1.6-.6,2.4-.6.5,0,.9,0,1.4,0,.5,0,1,.2,1.4.5.5.2.9.5,1.2.9.4.4.7.9.9,1.4l5-3.5c-.9-1.6-2.2-2.9-3.8-3.8-1.8-1-3.9-1.5-6-1.4-3.4-.1-6.6,1.2-8.9,3.7-2.1,2.2-3.2,5.1-3.2,8.1h0c0,1.5.3,3.1.9,4.5.6,1.5,1.4,2.8,2.5,3.9,1.1,1.2,2.4,2.1,3.8,2.8,1.5.7,3.1,1.1,4.8,1.1,1,0,2.1-.1,3.1-.4,1-.2,2.1-.6,3-1.1.9-.5,1.7-1,2.5-1.7.7-.6,1.2-1.4,1.6-2.3l-5.3-3.2c-.2.5-.5,1-.8,1.4"/>
  <path class="st0" d="M69.4,41c-.9-1.2-2.1-2.2-3.4-2.9-2.9-1.5-6.3-1.5-9.2,0-1.3.7-2.5,1.6-3.4,2.8-1.8,2.3-2.9,5.2-2.9,8.2,0,1.4.2,2.8.7,4.1.4,1.4,1.1,2.7,2,3.9.9,1.2,2.1,2.2,3.4,2.9,1.4.8,3.1,1.2,4.7,1.1h0c1.6,0,3.1-.3,4.5-1.1,1.3-.7,2.5-1.7,3.4-2.8,2.8-3.5,3.6-8.1,2.2-12.3-.5-1.4-1.1-2.7-2-3.9M65.3,51.1c-.1.7-.4,1.4-.7,2-.3.6-.7,1.1-1.3,1.5-1.1.8-2.7.8-3.8,0-.5-.4-1-.9-1.3-1.5-.3-.6-.6-1.3-.7-2-.2-.7-.2-1.5-.2-2.2h0c0-.7,0-1.4.2-2.1.1-.7.4-1.4.7-2,.3-.6.7-1.1,1.3-1.5,1.1-.8,2.7-.8,3.8,0,.5.4,1,.9,1.3,1.5.3.6.6,1.3.7,2,.3,1.4.3,2.9,0,4.3"/>
  <path class="st0" d="M83.1,64.5c.4-.2.9-.5,1.3-.8.4-.2.7-.5,1-.8.3-.3.6-.6.8-.9.5-.7.8-1.6.7-2.5,0-1.3-.5-2.5-1.5-3.3-1.3-.9-2.8-1.3-4.4-1.2-.7,0-1.4,0-2.1.2-.6.1-1.3.3-1.9.5-.6.2-1.2.5-1.7.8-.5.3-.9.6-1.2,1l3,3.5c.5-.5,1-1,1.5-1.4.5-.3,1-.4,1.6-.4.4,0,.8,0,1.1.3.3.2.4.6.4.9,0,.1,0,.3,0,.4,0,.2-.3.3-.5.5-.3.2-.7.4-1.2.7s-1.2.7-2.1,1.2c-.6.3-1.2.7-1.8,1.2-.5.4-.9.8-1.2,1.4-.3.5-.5,1.1-.7,1.7-.1.7-.2,1.5-.2,2.2h13.2v-4.3h-5.5c.5-.3.9-.6,1.4-.9"/>
</svg>