<?xml version="1.0" encoding="UTF-8"?>
<svg id="Layer_1" xmlns="http://www.w3.org/2000/svg" version="1.1" viewBox="0 0 112 85">
  <!-- Generator: Adobe Illustrator 29.5.1, SVG Export Plug-In . SVG Version: 2.1.0 Build 141)  -->
  <defs>
    <style>
      .st0 {
        fill: #778495;
      }

      .st1 {
        fill: #aebed3;
      }
    </style>
  </defs>
  <path class="st1" d="M74,28.8c-6.1,0-12.2-1.7-18.2-3.4-10.4-2.9-20.3-5.7-30.3,0-.5.2-1.1,0-1.4-.4-.3-.5,0-1,.4-1.3,0,0,0,0,0,0,10.7-6,21.4-3,31.8,0,10.4,2.9,20.3,5.7,30.3,0,.5-.2,1.1,0,1.4.4.3.5,0,1-.4,1.3,0,0,0,0,0,0-4.2,2.3-8.8,3.5-13.6,3.5"/>
  <path class="st1" d="M74,29.3c-6.2,0-12.4-1.7-18.3-3.4-6.1-1.7-11.8-3.3-17.5-3.3-4.3,0-8.6,1.1-12.4,3.2-.7.4-1.6.1-2-.6-.4-.7-.1-1.6.6-2,4.2-2.4,9-3.6,13.9-3.6,6.2,0,12.4,1.7,18.3,3.4,6.1,1.7,11.8,3.3,17.5,3.3,4.3,0,8.6-1.1,12.4-3.2.7-.4,1.6-.1,2,.6.4.7.2,1.5-.5,1.9,0,0,0,0-.1,0h0c-4.2,2.4-9,3.6-13.9,3.6ZM38.1,21.5c5.9,0,11.7,1.6,17.8,3.4,5.9,1.7,12,3.4,18.1,3.4,4.7,0,9.3-1.1,13.4-3.4.2-.1.3-.5.2-.7-.1-.2-.4-.3-.7-.2h0c-3.9,2.2-8.4,3.4-12.9,3.3-5.9,0-11.7-1.6-17.8-3.4-5.9-1.7-12-3.4-18.1-3.4-4.7,0-9.3,1.1-13.4,3.4-.2.2-.3.4-.2.7.2.2.4.3.7.2h0c3.9-2.2,8.4-3.4,12.9-3.3Z"/>
  <path class="st0" d="M74,46.8c-6.1,0-12.2-1.7-18.2-3.4-10.4-2.9-20.3-5.7-30.3,0-.5.2-1.1,0-1.4-.4-.3-.5,0-1,.4-1.3,0,0,0,0,0,0,10.7-6,21.4-3,31.8,0,10.4,2.9,20.3,5.7,30.3,0,.5-.2,1.1,0,1.4.4.3.5,0,1-.4,1.3,0,0,0,0,0,0-4.2,2.3-8.8,3.5-13.6,3.5"/>
  <path class="st0" d="M74,47.3c-6.2,0-12.4-1.7-18.3-3.4-6.1-1.7-11.8-3.3-17.5-3.3-4.3,0-8.6,1.1-12.4,3.2-.7.4-1.6.1-2-.6-.4-.7-.1-1.6.6-2,4.2-2.4,9-3.6,13.9-3.6,6.2,0,12.4,1.7,18.3,3.4,6.1,1.7,11.8,3.3,17.5,3.3,4.3,0,8.6-1.1,12.4-3.2.7-.4,1.6-.1,2,.6.4.7.2,1.5-.5,1.9,0,0,0,0-.1,0h0c-4.2,2.4-9,3.6-13.9,3.6ZM38.1,39.5c5.9,0,11.7,1.6,17.8,3.4,5.9,1.7,12,3.4,18.1,3.4,4.7,0,9.3-1.1,13.4-3.4.2-.1.3-.5.2-.7-.1-.2-.4-.3-.7-.2h0c-3.9,2.2-8.4,3.4-12.9,3.3-5.9,0-11.7-1.6-17.8-3.4-5.9-1.7-12-3.4-18.1-3.4-4.7,0-9.3,1.1-13.4,3.4-.2.2-.3.4-.2.7,0,.3.4.3.7.2h0c3.9-2.2,8.4-3.4,12.9-3.3Z"/>
  <path class="st0" d="M74,63.9c-6.1,0-12.2-1.7-18.2-3.4-10.4-2.9-20.3-5.7-30.3,0-.5.2-1.1,0-1.4-.4-.3-.5,0-1,.4-1.3,0,0,0,0,0,0,10.7-6,21.4-3,31.8,0,10.4,2.9,20.3,5.7,30.3,0,.5-.2,1.1,0,1.4.4.3.5,0,1-.4,1.3,0,0,0,0,0,0-4.2,2.3-8.8,3.5-13.6,3.5"/>
  <path class="st0" d="M74,64.4c-6.2,0-12.4-1.7-18.3-3.4h0c-6.1-1.7-11.8-3.3-17.5-3.3-4.3,0-8.6,1.1-12.4,3.2-.7.4-1.6.1-2-.6h0c-.4-.7-.1-1.6.6-2,4.2-2.4,9-3.6,13.9-3.6,6.2,0,12.4,1.7,18.3,3.4,6.1,1.7,11.8,3.3,17.5,3.3,4.3,0,8.6-1.1,12.4-3.2.7-.4,1.6-.1,2,.6.4.7.2,1.5-.5,1.9,0,0,0,0-.1,0h0c-4.2,2.4-9,3.6-13.9,3.5h0ZM38.1,56.5c5.9,0,11.7,1.6,17.8,3.4h0c5.9,1.7,12,3.4,18.1,3.4,4.7,0,9.3-1.1,13.4-3.4.2-.1.3-.5.2-.7-.1-.2-.4-.3-.7-.2h0c-3.9,2.2-8.4,3.4-12.9,3.3-5.9,0-11.7-1.6-17.8-3.4-5.9-1.7-12-3.4-18.1-3.4-4.7,0-9.3,1.1-13.4,3.4-.2.2-.3.4-.2.7,0,.3.4.3.7.2h0c3.9-2.2,8.4-3.4,12.9-3.3Z"/>
</svg>