<?xml version="1.0" encoding="UTF-8"?>
<svg id="Layer_1" xmlns="http://www.w3.org/2000/svg" version="1.1" viewBox="0 0 112 85">
  <!-- Generator: Adobe Illustrator 29.5.1, SVG Export Plug-In . SVG Version: 2.1.0 Build 141)  -->
  <defs>
    <style>
      .st0 {
        fill: #778495;
      }

      .st1 {
        fill: #aebed3;
      }
    </style>
  </defs>
  <path class="st0" d="M56,82.4h-1.1c-8.4-.3-16.1-5-20.3-12.3-4.4-7.5-4.7-16.7-.7-24.5L56,2.7l22,42.8c4,7.7,3.8,17-.7,24.5-4.2,7.3-11.9,12-20.3,12.3h-1.1M56,11.2l-18.7,36.1c-3.4,6.5-3.2,14.4.6,20.7,3.5,6.2,10,10.1,17.1,10.4h1.9c7.1-.2,13.6-4.2,17.2-10.4,3.7-6.4,4-14.2.6-20.7L56,11.2Z"/>
  <path class="st1" d="M55.8,74.5c-1.1,0-2-.9-2-2,0-.9.6-1.6,1.4-1.9,7.3-2.3,12.8-8.3,14.4-15.8.2-1.1,1.3-1.7,2.4-1.5,1,.2,1.7,1.3,1.5,2.3h0c-1.9,8.9-8.4,16-17.1,18.7h-.6"/>
</svg>