<svg xmlns="http://www.w3.org/2000/svg" width="317.473" height="595.1" viewBox="0 0 317.473 595.1"><path d="M57.792,918.75v276.792l-28.825-28.859V918.75H.1v219.081h0l-.1,40.7L86.536,1265.1v-.2l.1.1v-40.6h0V918.75Z" transform="translate(0 -742.021)" fill="rgba(193,187,183,0.44)"/><path d="M657.807,918.75H600.116v182.739h57.691v180.6l-14.416,14.443v.2l-14.422-14.463v-74.984H600.123l-.054,86.61,43.315,43.227,43.267-43.227v-1h0V1072.615H628.961V947.6h28.845v57.711h28.845V918.75Z" transform="translate(-484.641 -742.021)" fill="rgba(193,187,183,0.44)"/><path d="M1257.837,918.75h-57.691V1265l28.846-28.852v-134.66h28.845v105.795l28.845-28.852V918.75Zm0,153.886h-28.845V947.6h28.845Z" transform="translate(-969.29 -742.021)" fill="rgba(193,187,183,0.44)"/><path d="M46.032,96.048,31.5,83.45,50.667,81.8l7.477-17.656L65.622,81.8l19.165,1.65-14.53,12.59,4.358,18.72-16.47-9.916-16.47,9.923ZM246.5,93.515l-14.53-12.59,19.165-1.65,7.477-17.656,7.477,17.656,19.165,1.65-14.524,12.59,4.358,18.72-16.47-9.923-16.47,9.923Zm-104.751.269L121.042,75.838l27.309-2.351,10.657-25.16,10.657,25.16,27.309,2.351L176.267,93.784l6.2,26.676L159,106.314l-23.47,14.146ZM159.1,0,.4,43.281V147.157H317.8V43.281Z" transform="translate(-0.326)" fill="rgba(193,187,183,0.44)"/></svg>