<svg xmlns="http://www.w3.org/2000/svg" xmlns:xlink="http://www.w3.org/1999/xlink" width="416.74" height="73" viewBox="0 0 416.74 73"><defs><clipPath id="a"><path d="M8,37.5c7.7-2.3,12.1-1.5,16.7-.7a37.227,37.227,0,0,0,16.6-.3,12.09,12.09,0,0,0,1.8-.5,13.355,13.355,0,0,1-1.8.7C29.2,41.6,25,40.3,19,39.1A45.478,45.478,0,0,0,7.9,38a9.7,9.7,0,0,0-1.7.1A18.879,18.879,0,0,0,8,37.5m2.4-7.9c6.3-1.5,10.2-.8,14.4-.1a35.819,35.819,0,0,0,14.4.1,38.481,38.481,0,0,0,4.1-.9c-1.3.6-2.6,1.1-3.7,1.5-15.6,5.8-17.2.7-29.9.5-1.1,0-2.2,0-3.5.1q2.25-.75,4.2-1.2M0,38.1A25.457,25.457,0,0,0,2.6,49.2H4.9a85.882,85.882,0,0,0,18.2-1.9c-3.8-.6-7.3-1.8-13.5-1.9-1,0-2.2,0-3.4.1a24.324,24.324,0,0,1,3-.9c7-1.9,11.1-1.1,15.4-.4a50.524,50.524,0,0,0,6.8.8c7.3-2.6,13.4-6.2,17.7-10.5A24.675,24.675,0,0,0,0,38.1" fill="#778495"/></clipPath><clipPath id="b"><rect width="301.74" height="36.48" fill="#778495"/></clipPath></defs><path d="M24.7,13.4A24.7,24.7,0,1,0,49.4,38.1h0A24.625,24.625,0,0,0,24.7,13.4M10.4,29.6c12.3-3,15.4,2.5,28.8,0a38.481,38.481,0,0,0,4.1-.9c-1.3.6-2.6,1.1-3.7,1.5-15.6,5.8-17.2.7-29.9.5-1.1,0-2.2,0-3.5.1q2.25-.75,4.2-1.2M40.1,44.5c-16.2,6.3-17.5,1-30.5.8-1,0-2.2,0-3.4.1a24.324,24.324,0,0,1,3-.9c13.6-3.6,16.3,2.6,31.1-.5.9-.2,1.8-.4,2.8-.7l-3,1.2m1.3-7.8C23.4,44,22.9,37.7,8,38a9.7,9.7,0,0,0-1.7.1l1.8-.6c15-4.5,17.2,2.7,33.3-1.1a12.09,12.09,0,0,0,1.8-.5,14.167,14.167,0,0,1-1.8.8" fill="#778495"/><g clip-path="url(#a)"><path d="M-16.4,24.2,34-9.2,65.3,38.1,14.9,71.5Z" fill="#778495"/></g><path d="M73.9,73l-3.6-3.7a46.294,46.294,0,0,0,.5-65.5l-.1-.1L74.4,0a51.545,51.545,0,0,1-.5,73h0" fill="#778495"/><path d="M63.2,67.2l-3.6-3.7A37.875,37.875,0,0,0,60.1,10L60,9.9l3.7-3.7a43.126,43.126,0,0,1-.5,61h0" fill="#778495"/><path d="M53,60l-3.6-3.7A27.794,27.794,0,0,0,49.8,17l-.1-.1,3.7-3.7A33.227,33.227,0,0,1,53,60h0" fill="#778495"/><g transform="translate(115 18.638)"><path d="M472.451,2.81l-1.709,3.716L469.053,2.81h-1.312V8.493h.954V4.181l1.669,3.478h.8l1.669-3.478V8.493h.954V2.81ZM462.1,2.77v.953h1.889v4.77h.954V3.723h1.887V2.77Z" transform="translate(-172.042 -1.031)" fill="#778495"/><path d="M0,1.571v35H23.515V33.515H3.451V20.156H20.557V17.247H3.451V4.628h19.62V1.571Z" transform="translate(0 -0.585)" fill="#778495"/><g transform="translate(0 0)"><g clip-path="url(#b)"><path d="M65.887,41.836H62.534V27.49q0-4.584-1.355-6.655a4.633,4.633,0,0,0-4.166-2.071,8.529,8.529,0,0,0-2.958.543,10,10,0,0,0-2.736,1.528,11.738,11.738,0,0,0-2.243,2.341,9.192,9.192,0,0,0-1.43,2.934V41.836H44.295V16.152h3.056v5.817a12.064,12.064,0,0,1,4.511-4.535,12.37,12.37,0,0,1,6.384-1.726,7.57,7.57,0,0,1,3.6.789,6.134,6.134,0,0,1,2.366,2.218,10.216,10.216,0,0,1,1.282,3.5,24.561,24.561,0,0,1,.395,4.585Z" transform="translate(-16.491 -5.848)" fill="#778495"/><path d="M93.228,42.1,82.777,16.415h3.451l8.824,22.579,8.873-22.579h3.254L96.728,42.1Z" transform="translate(-30.819 -6.111)" fill="#778495"/><path d="M127.072,0h3.352V4.93h-3.352Zm0,10.3h3.352V35.987h-3.352Z" transform="translate(-47.31 0)" fill="#778495"/><path d="M151.119,19.285a10.558,10.558,0,0,0-5.916,1.873,9.445,9.445,0,0,0-3.549,4.881V42.011H138.3V16.327h3.154V22.49a11.684,11.684,0,0,1,3.845-4.634,8.916,8.916,0,0,1,5.177-1.676,3.412,3.412,0,0,1,.641.049Z" transform="translate(-51.491 -6.024)" fill="#778495"/><path d="M172.932,42.327a12.176,12.176,0,0,1-5.127-1.06,12.563,12.563,0,0,1-4.018-2.884,13.086,13.086,0,0,1-2.638-4.239,13.916,13.916,0,0,1-.937-5.078,13.745,13.745,0,0,1,.962-5.127,13.471,13.471,0,0,1,2.661-4.239,12.951,12.951,0,0,1,4.018-2.908,11.822,11.822,0,0,1,5.077-1.085,11.99,11.99,0,0,1,5.1,1.085,12.865,12.865,0,0,1,4.042,2.908,13.463,13.463,0,0,1,2.663,4.239,13.757,13.757,0,0,1,.961,5.127,13.929,13.929,0,0,1-.937,5.078,13.1,13.1,0,0,1-2.638,4.239,12.5,12.5,0,0,1-4.042,2.884,12.347,12.347,0,0,1-5.151,1.06m-9.317-13.211a10.716,10.716,0,0,0,.74,4.018,10.9,10.9,0,0,0,2,3.253,9.031,9.031,0,0,0,2.958,2.194,8.517,8.517,0,0,0,3.624.788,8.289,8.289,0,0,0,3.623-.813,9.626,9.626,0,0,0,2.983-2.219,10.561,10.561,0,0,0,2.021-3.278,11.342,11.342,0,0,0,0-8.06,10.5,10.5,0,0,0-2.021-3.3,9.636,9.636,0,0,0-2.983-2.219,8.288,8.288,0,0,0-3.623-.813,8.135,8.135,0,0,0-3.6.813,9.552,9.552,0,0,0-2.958,2.243,10.827,10.827,0,0,0-2.021,3.327,11.1,11.1,0,0,0-.74,4.067" transform="translate(-59.649 -5.848)" fill="#778495"/><path d="M229.023,10.595a8.352,8.352,0,0,0-1.258-.937A15.3,15.3,0,0,0,225.548,8.5a19.142,19.142,0,0,0-2.835-.961,12.377,12.377,0,0,0-3.105-.395,6.961,6.961,0,0,0-4.19,1.035,3.426,3.426,0,0,0-1.38,2.909,2.985,2.985,0,0,0,.518,1.8,4.465,4.465,0,0,0,1.5,1.257,12.562,12.562,0,0,0,2.489.986q1.5.443,3.476.937,2.563.69,4.658,1.479a12.661,12.661,0,0,1,3.55,1.972,8.145,8.145,0,0,1,2.243,2.835,9.4,9.4,0,0,1,.789,4.067,10.137,10.137,0,0,1-1.06,4.807,8.912,8.912,0,0,1-2.859,3.228,12.418,12.418,0,0,1-4.141,1.8,20.815,20.815,0,0,1-4.9.566,26.337,26.337,0,0,1-7.789-1.183,24.032,24.032,0,0,1-6.9-3.353l3.007-5.866a9.428,9.428,0,0,0,1.6,1.158,24.265,24.265,0,0,0,2.735,1.43,21.252,21.252,0,0,0,3.5,1.208,15.8,15.8,0,0,0,3.944.493q5.62,0,5.62-3.6a2.951,2.951,0,0,0-.641-1.922,5.44,5.44,0,0,0-1.824-1.381,17.51,17.51,0,0,0-2.859-1.085q-1.676-.492-3.746-1.084a31.726,31.726,0,0,1-4.363-1.5A11.459,11.459,0,0,1,209.5,18.21a7.191,7.191,0,0,1-1.848-2.563,8.854,8.854,0,0,1-.617-3.476,10.873,10.873,0,0,1,.986-4.732,9.569,9.569,0,0,1,2.736-3.451,12.422,12.422,0,0,1,4.067-2.1,16.828,16.828,0,0,1,4.979-.715,19.34,19.34,0,0,1,6.8,1.159,25.41,25.41,0,0,1,5.423,2.736Z" transform="translate(-76.549 -0.438)" fill="#778495"/><path d="M294.975,41.748H288.37V27.255a7.693,7.693,0,0,0-1.06-4.535,3.449,3.449,0,0,0-2.934-1.429,5.542,5.542,0,0,0-3.7,1.5,8.288,8.288,0,0,0-2.464,3.919V41.748h-6.606V27.255a7.679,7.679,0,0,0-1.06-4.535,3.449,3.449,0,0,0-2.934-1.429,5.624,5.624,0,0,0-3.672,1.478,8.036,8.036,0,0,0-2.489,3.894V41.748h-6.606V15.917h5.966V20.7a9.859,9.859,0,0,1,3.919-3.87,11.712,11.712,0,0,1,5.693-1.355,7.318,7.318,0,0,1,5.028,1.577,7.05,7.05,0,0,1,2.268,3.895,11.15,11.15,0,0,1,3.992-4.067,10.784,10.784,0,0,1,5.521-1.4,7.686,7.686,0,0,1,3.9.887,6.444,6.444,0,0,1,2.366,2.317,9.73,9.73,0,0,1,1.159,3.254,21.417,21.417,0,0,1,.32,3.7Z" transform="translate(-94.882 -5.761)" fill="#778495"/><path d="M332,42.241a9.8,9.8,0,0,1-3.5-.616,8.4,8.4,0,0,1-2.81-1.725,8.044,8.044,0,0,1-1.849-2.588,7.838,7.838,0,0,1-.665-3.254,7.156,7.156,0,0,1,.814-3.376,7.743,7.743,0,0,1,2.267-2.638,11.276,11.276,0,0,1,3.476-1.7,15.173,15.173,0,0,1,4.437-.616,19.089,19.089,0,0,1,3.378.3,13.808,13.808,0,0,1,2.933.837V25.381a5.183,5.183,0,0,0-1.454-3.944,6.055,6.055,0,0,0-4.314-1.38,11.428,11.428,0,0,0-4.042.739,18.794,18.794,0,0,0-4.042,2.17l-2.022-4.19a19.073,19.073,0,0,1,10.747-3.3q5.57,0,8.651,2.735t3.081,7.912v8.035a2.322,2.322,0,0,0,.37,1.479,1.619,1.619,0,0,0,1.208.493v5.62a14.785,14.785,0,0,1-2.908.345,4.41,4.41,0,0,1-2.885-.837,3.6,3.6,0,0,1-1.257-2.219l-.148-1.43a11.429,11.429,0,0,1-4.19,3.451A12.035,12.035,0,0,1,332,42.241m1.873-4.831a8.611,8.611,0,0,0,3.179-.591,5.777,5.777,0,0,0,2.341-1.577,2.374,2.374,0,0,0,1.085-1.874V30.41a16.219,16.219,0,0,0-2.564-.715,13.857,13.857,0,0,0-2.662-.271,7.061,7.061,0,0,0-4.19,1.159,3.479,3.479,0,0,0-1.626,2.933,3.528,3.528,0,0,0,1.281,2.786,4.652,4.652,0,0,0,3.155,1.109" transform="translate(-120.32 -5.761)" fill="#778495"/><path d="M384.5,21.693a13.032,13.032,0,0,0-5.374,1.159,6.784,6.784,0,0,0-3.4,3.327V41.806h-6.606V15.974h6.064V21.5a11.737,11.737,0,0,1,1.626-2.391,12.52,12.52,0,0,1,2.021-1.849,9.319,9.319,0,0,1,2.194-1.208,6.055,6.055,0,0,1,2.144-.419h.813a2.708,2.708,0,0,1,.517.049Z" transform="translate(-137.426 -5.819)" fill="#778495"/><path d="M414.635,35.709a29.5,29.5,0,0,1-3.254,1.183,13.654,13.654,0,0,1-4.042.592,9.367,9.367,0,0,1-2.588-.346,5.651,5.651,0,0,1-2.12-1.109,5.387,5.387,0,0,1-1.455-1.972,7.121,7.121,0,0,1-.542-2.933V16.286h-3.4V11.209h3.4V2.828h6.606v8.381h5.423v5.077h-5.423v12.62a2.347,2.347,0,0,0,.715,1.947,2.729,2.729,0,0,0,1.75.567,6.048,6.048,0,0,0,2.021-.346q.987-.344,1.578-.591Z" transform="translate(-147.893 -1.053)" fill="#778495"/><path d="M449.531,20.321h-6.895V13.427a1.278,1.278,0,1,0-2.557,0v6.895h-6.895a1.278,1.278,0,1,0,0,2.557h6.895v6.895a1.278,1.278,0,1,0,2.557,0V22.878h6.895a1.278,1.278,0,1,0,0-2.557" transform="translate(-160.803 -4.523)" fill="#778495"/></g></g></g></svg>