<?xml version="1.0" encoding="UTF-8"?>
<svg id="Layer_1" data-name="Layer 1" xmlns="http://www.w3.org/2000/svg" viewBox="0 0 90.044998168945312 94.018997192382812">
  <defs>
    <style>
      .cls-1 {
        fill: #aebed3;
      }
    </style>
  </defs>
  <path class="cls-1" d="M52.868995666503906,42.60601806640625c.666061401367188.00054931640625,1.206451416015625-.5389404296875,1.207000732421875-1.205001831054688v-2.415000915527344c-.00494384765625-.664192199707031-.544784545898438-1.20001220703125-1.208999633789062-1.199996948242188-.62066650390625-.04058837890625-1.157257080078125.428482055664062-1.199996948242188,1.049003601074219-.00390625.051925659179688-.00390625.104072570800781,0,.155998229980469v2.41400146484375c-.00054931640625.666053771972656.5389404296875,1.206451416015625,1.205001831054688,1.207000732421875h.001998901367188"/>
  <path class="cls-1" d="M52.868995666503906,42.85601806640625c-.804443359375-.00054931640625-1.456451416015625-.652549743652344-1.457000732421875-1.457000732421875v-2.400001525878906c-.004379272460938-.061256408691406-.004379272460938-.12274169921875,0-.183998107910156.052291870117188-.721435546875.65167236328125-1.280708312988281,1.375-1.282997131347656h.087997436523438c.79986572265625.006011962890625,1.446182250976562.654121398925781,1.449996948242188,1.454002380371094v2.41400146484375c-.0010986328125.803665161132812-.652328491210938,1.454887390136719-1.45599365234375,1.45599365234375ZM52.788002014160156,38.02801513671875c-.461227416992188.001953125-.843063354492188.35894775390625-.876007080078125.819000244140625-.003005981445312.039947509765625-.003005981445312.080055236816406,0,.120002746582031v2.431999206542969c.017135620117188.52825927734375.459259033203125.942611694335938.987518310546875.92547607421875.504196166992188-.016349792480469.90911865234375-.421279907226562.92547607421875-.92547607421875v-2.413002014160156c-.00274658203125-.527847290039062-.431137084960938-.954460144042969-.958999633789062-.955001831054688h-.016998291015625l-.060989379882812-.002998352050781Z"/>
  <path class="cls-1" d="M46.952995300292969,42.60601806640625c.666061401367188.00054931640625,1.206451416015625-.5389404296875,1.207000732421875-1.205001831054688v-2.415000915527344c-.048294067382812-.645095825195312-.563568115234375-1.156517028808594-1.208999633789062-1.199996948242188-.622802734375-.039939880371094-1.160064697265625.432571411132812-1.199996948242188,1.055374145507812-.003082275390625.04815673828125-.003082275390625.096466064453125,0,.144622802734375v2.41400146484375c0,.666610717773438.540390014648438,1.207000732421875,1.207000732421875,1.207000732421875h0"/>
  <path class="cls-1" d="M46.952995300292969,42.85601806640625c-.804443359375-.00054931640625-1.456451416015625-.652549743652344-1.457000732421875-1.457000732421875v-2.404998779296875c-.047500610351562-.760673522949219.5306396484375-1.415824890136719,1.29132080078125-1.46331787109375.028182983398438-.001762390136719.056427001953125-.002655029296875.084686279296875-.002685546875h.100006103515625c.770599365234375.054557800292969,1.384292602539062.666557312011719,1.440994262695312,1.436996459960938v2.430999755859375c.001113891601562.805229187011719-.6507568359375,1.458900451660156-1.45599365234375,1.460006713867188h-.004013061523438ZM46.872001647949219,38.02801513671875c-.486007690429688.001075744628906-.879119873046875.39593505859375-.8780517578125.881942749023438.000045776367188.019371032714844.000717163085938.038734436035156.002044677734375.058059692382812v2.430999755859375c0,.528533935546875.428466796875.957000732421875.957000732421875.957000732421875s.957000732421875-.428466796875.957000732421875-.957000732421875v-2.400001525878906c-.042160034179688-.518280029296875-.456314086914062-.928192138671875-.975006103515625-.964996337890625l-.06298828125-.006004333496094Z"/>
  <path class="cls-1" d="M40.917999267578125,42.60601806640625c.666053771972656.00054931640625,1.206451416015625-.5389404296875,1.207000732421875-1.205001831054688v-2.415000915527344c-.048301696777344-.645095825195312-.563568115234375-1.156517028808594-1.208999633789062-1.199996948242188-.62066650390625-.04058837890625-1.157249450683594.428482055664062-1.199996948242188,1.049003601074219-.003913879394531.051925659179688-.003913879394531.104072570800781,0,.155998229980469v2.41400146484375c-.00054931640625.666053771972656.5389404296875,1.206451416015625,1.205001831054688,1.207000732421875h.001998901367188"/>
  <path class="cls-1" d="M40.917999267578125,42.85601806640625c-.804450988769531-.00054931640625-1.456451416015625-.652549743652344-1.457000732421875-1.457000732421875v-2.400001525878906c-.004371643066406-.061256408691406-.004371643066406-.12274169921875,0-.183998107910156.052299499511719-.721435546875.651679992675781-1.280708312988281,1.375-1.282997131347656h.099998474121094c.770599365234375.054550170898438,1.384307861328125.666549682617188,1.441001892089844,1.436996459960938v2.430999755859375c-.001106262207031.804840087890625-.654159545898438,1.456550598144531-1.458999633789062,1.456001281738281ZM40.836997985839844,38.02801513671875c-.461227416992188.001960754394531-.843055725097656.35894775390625-.875999450683594.819000244140625-.003005981445312.039947509765625-.003005981445312.080055236816406,0,.120002746582031v2.431999206542969c.017066955566406.52825927734375.459144592285156.942665100097656.987403869628906.92559814453125.504287719726562-.016288757324219.909309387207031-.421302795410156.92559814453125-.92559814453125v-2.400001525878906c-.042152404785156-.518280029296875-.456314086914062-.928192138671875-.974998474121094-.964996337890625l-.062004089355469-.006004333496094Z"/>
  <path class="cls-1" d="M52.868995666503906,52.625c.666061401367188.00054931640625,1.206451416015625-.5389404296875,1.207000732421875-1.205001831054688v-2.416000366210938c.04058837890625-.62066650390625-.428482055664062-1.157241821289062-1.048995971679688-1.199996948242188-.053268432617188-.00390625-.106735229492188-.00390625-.160003662109375,0-.62066650390625-.04058837890625-1.157241821289062.428482055664062-1.199996948242188,1.048995971679688-.00390625.051925659179688-.00390625.104080200195312,0,.156005859375v2.41400146484375c0,.666610717773438.540390014648438,1.207000732421875,1.207000732421875,1.207000732421875h0"/>
  <path class="cls-1" d="M52.868995666503906,52.875c-.804443359375-.00054931640625-1.456451416015625-.652557373046875-1.457000732421875-1.457000732421875v-2.399993896484375c-.004364013671875-.061264038085938-.004364013671875-.12274169921875,0-.184005737304688.052291870117188-.721435546875.65167236328125-1.280715942382812,1.375-1.283004760742188h.078994750976562c.059600830078125-.00396728515625.119400024414062-.00396728515625.179000854492188,0,.75628662109375.052902221679688,1.328033447265625.706390380859375,1.279998779296875,1.462997436523438v2.404998779296875c-.0010986328125.803665161132812-.652328491210938,1.454910278320312-1.45599365234375,1.456008911132812ZM52.788002014160156,48.0469970703125c-.461227416992188.001953125-.843063354492188.35894775390625-.876007080078125.819000244140625-.003005981445312.039947509765625-.003005981445312.080047607421875,0,.1199951171875v2.4320068359375c.017135620117188.52825927734375.459259033203125.942611694335938.987518310546875.92547607421875.504196166992188-.016342163085938.90911865234375-.421279907226562.92547607421875-.92547607421875v-2.430999755859375c.03375244140625-.484283447265625-.33148193359375-.90423583984375-.815765380859375-.93798828125-.000076293945312,0-.000152587890625-.000015258789062-.000228881835938-.000015258789062-.041610717773438-.00311279296875-.083389282226562-.00311279296875-.125,0h-.035003662109375l-.060989379882812-.001998901367188Z"/>
  <path class="cls-1" d="M46.952995300292969,52.625c.666061401367188.00054931640625,1.206451416015625-.5389404296875,1.207000732421875-1.205001831054688v-2.416000366210938c-.00494384765625-.664199829101562-.544784545898438-1.20001220703125-1.208999633789062-1.199996948242188-.622802734375-.039932250976562-1.160064697265625.432571411132812-1.199996948242188,1.055374145507812-.003082275390625.04815673828125-.003082275390625.096466064453125,0,.144622802734375v2.41400146484375c0,.666610717773438.540390014648438,1.207000732421875,1.207000732421875,1.207000732421875h0"/>
  <path class="cls-1" d="M46.952995300292969,52.875c-.804443359375-.00054931640625-1.456451416015625-.652557373046875-1.457000732421875-1.457000732421875v-2.40399169921875c-.047500610351562-.760665893554688.5306396484375-1.415817260742188,1.29132080078125-1.46331787109375.028182983398438-.00177001953125.056427001953125-.002655029296875.084686279296875-.002685546875h.087997436523438c.799636840820312.006546020507812,1.445648193359375.654342651367188,1.449996948242188,1.453994750976562v2.41400146484375c.00054931640625.80523681640625-.651763916015625,1.458450317382812-1.457000732421875,1.458999633789062h0ZM46.872001647949219,48.0469970703125c-.486007690429688.001068115234375-.879119873046875.39593505859375-.8780517578125.881942749023438.000045776367188.019363403320312.000717163085938.038726806640625.002044677734375.058059692382812v2.430999755859375c0,.528533935546875.428466796875.957000732421875.957000732421875.957000732421875s.957000732421875-.428466796875.957000732421875-.957000732421875h0v-2.41400146484375c-.00274658203125-.527847290039062-.431137084960938-.954452514648438-.958999633789062-.955001831054688h-.016998291015625l-.061996459960938-.001998901367188Z"/>
  <path class="cls-1" d="M40.917999267578125,52.625c.666053771972656.00054931640625,1.206451416015625-.5389404296875,1.207000732421875-1.205001831054688v-2.416000366210938c-.00494384765625-.664199829101562-.544784545898438-1.20001220703125-1.208999633789062-1.199996948242188-.62066650390625-.04058837890625-1.157249450683594.428482055664062-1.199996948242188,1.048995971679688-.003913879394531.051925659179688-.003913879394531.104080200195312,0,.156005859375v2.41400146484375c-.00054931640625.666061401367188.5389404296875,1.206451416015625,1.205001831054688,1.207000732421875h.001998901367188"/>
  <path class="cls-1" d="M40.917999267578125,52.875c-.804450988769531-.00054931640625-1.456451416015625-.652557373046875-1.457000732421875-1.457000732421875v-2.399993896484375c-.004371643066406-.061264038085938-.004371643066406-.12274169921875,0-.184005737304688.052291870117188-.721435546875.65167236328125-1.280715942382812,1.375-1.283004760742188h.087997436523438c.79986572265625.006011962890625,1.446182250976562.65411376953125,1.449996948242188,1.453994750976562v2.41400146484375c-.0010986328125.803665161132812-.652320861816406,1.454910278320312-1.45599365234375,1.456008911132812ZM40.836997985839844,48.0469970703125c-.461227416992188.001953125-.843055725097656.35894775390625-.875999450683594.819000244140625-.003005981445312.039947509765625-.003005981445312.080047607421875,0,.1199951171875v2.4320068359375c-.017066955566406.52825927734375.3973388671875.9703369140625.92559814453125.987396240234375.52825927734375.017074584960938.9703369140625-.3973388671875.987403869628906-.92559814453125.000663757324219-.020599365234375.000663757324219-.04119873046875,0-.061798095703125v-2.41400146484375c-.00274658203125-.527847290039062-.431144714355469-.954452514648438-.958999633789062-.955001831054688h-.016998291015625l-.061004638671875-.001998901367188Z"/>
  <path class="cls-1" d="M52.868995666503906,62.520004272460938c.666610717773438,0,1.207000732421875-.540390014648438,1.207000732421875-1.207000732421875h0v-2.412994384765625c-.003768920898438-.669357299804688-.5494384765625-1.20892333984375-1.218795776367188-1.205169677734375-.603851318359375.003402709960938-1.113082885742188.450790405273438-1.194198608398438,1.049163818359375-.00390625.051925659179688-.00390625.104080200195312,0,.156005859375v2.412994384765625c0,.666610717773438.540390014648438,1.207000732421875,1.207000732421875,1.207000732421875h0"/>
  <path class="cls-1" d="M52.868995666503906,62.770004272460938c-.804443359375-.00054931640625-1.456451416015625-.652557373046875-1.457000732421875-1.457000732421875v-2.399993896484375c-.004348754882812-.061264038085938-.004348754882812-.12274169921875,0-.184005737304688.05450439453125-.75152587890625.700576782226562-1.321121215820312,1.4530029296875-1.281005859375.058944702148438-.003738403320312.118057250976562-.003738403320312.177001953125,0,.757080078125.051864624023438,1.330001831054688.705657958984375,1.281997680664062,1.462997436523438v2.399993896484375c.000564575195312.804458618164062-.650543212890625,1.457366943359375-1.455001831054688,1.459014892578125ZM52.788002014160156,57.942001342773438c-.461227416992188.001953125-.843063354492188.35894775390625-.876007080078125.819000244140625-.003005981445312.039947509765625-.003005981445312.080047607421875,0,.1199951171875v2.4320068359375c-.017135620117188.52825927734375.397216796875.970382690429688.92547607421875.987518310546875s.970382690429688-.397216796875.987518310546875-.92547607421875c.00067138671875-.020675659179688.00067138671875-.041366577148438,0-.062042236328125v-2.426986694335938c.03375244140625-.484283447265625-.33148193359375-.90423583984375-.815765380859375-.93798828125-.000076293945312,0-.000152587890625-.000015258789062-.000228881835938-.000015258789062-.041610717773438-.002899169921875-.083389282226562-.002899169921875-.125,0h-.035003662109375l-.060989379882812-.006011962890625Z"/>
  <path class="cls-1" d="M46.952995300292969,62.520004272460938c.666610717773438,0,1.207000732421875-.540390014648438,1.207000732421875-1.207000732421875h0v-2.412994384765625c-.00494384765625-.664199829101562-.544784545898438-1.20001220703125-1.208999633789062-1.199996948242188-.622802734375-.039932250976562-1.160064697265625.432571411132812-1.199996948242188,1.055374145507812-.003082275390625.04815673828125-.003082275390625.096466064453125,0,.144622802734375v2.412994384765625c0,.666610717773438.540390014648438,1.207000732421875,1.207000732421875,1.207000732421875h0"/>
  <path class="cls-1" d="M46.952995300292969,62.770004272460938c-.804229736328125-.0010986328125-1.455902099609375-.65277099609375-1.457000732421875-1.457000732421875v-2.404998779296875c-.047348022460938-.76068115234375.530929565429688-1.41571044921875,1.291610717773438-1.463058471679688.057418823242188-.003570556640625.114990234375-.003555297851562.172393798828125.00006103515625.799636840820312.006546020507812,1.445648193359375.654342651367188,1.449996948242188,1.453994750976562v2.41400146484375c-.00054931640625.804443359375-.652557373046875,1.456451416015625-1.457000732421875,1.457000732421875ZM46.872001647949219,57.942001342773438c-.486007690429688.00103759765625-.879150390625.395858764648438-.878128051757812.881881713867188.000045776367188.01971435546875.000747680664062.0394287109375.002120971679688.059112548828125v2.42999267578125c0,.528533935546875.428466796875.957000732421875.957000732421875.957000732421875s.957000732421875-.428466796875.957000732421875-.957000732421875v-2.412994384765625c-.00274658203125-.527847290039062-.431137084960938-.954452514648438-.958999633789062-.955001831054688h-.016998291015625l-.061996459960938-.00299072265625Z"/>
  <path class="cls-1" d="M40.917999267578125,62.520004272460938c.666610717773438,0,1.207000732421875-.540390014648438,1.207000732421875-1.207000732421875h0v-2.412994384765625c-.00494384765625-.664199829101562-.544784545898438-1.20001220703125-1.208999633789062-1.199996948242188-.62066650390625-.04058837890625-1.157249450683594.428482055664062-1.199996948242188,1.048995971679688-.003913879394531.051925659179688-.003913879394531.104080200195312,0,.156005859375v2.412994384765625c0,.666610717773438.540390014648438,1.207000732421875,1.207000732421875,1.207000732421875h0"/>
  <path class="cls-1" d="M40.917999267578125,62.770004272460938c-.804450988769531-.00054931640625-1.456451416015625-.652557373046875-1.457000732421875-1.457000732421875v-2.399993896484375c-.004348754882812-.061264038085938-.004348754882812-.12274169921875,0-.184005737304688.055007934570312-.755233764648438.707145690917969-1.3258056640625,1.462997436523438-1.279998779296875.79986572265625.006011962890625,1.446182250976562.65411376953125,1.449996948242188,1.453994750976562v2.41400146484375c-.00274658203125.802490234375-.653495788574219,1.451904296875-1.45599365234375,1.4530029296875ZM40.836997985839844,57.942001342773438c-.461227416992188.001953125-.843055725097656.35894775390625-.875999450683594.819000244140625-.003005981445312.039947509765625-.003005981445312.080047607421875,0,.1199951171875v2.4320068359375c-.017066955566406.52825927734375.3973388671875.9703369140625.92559814453125.987396240234375.52825927734375.017074584960938.9703369140625-.3973388671875.987403869628906-.92559814453125.000663757324219-.020599365234375.000663757324219-.04119873046875,0-.061798095703125v-2.412994384765625c-.00274658203125-.527847290039062-.431144714355469-.954452514648438-.958999633789062-.955001831054688h-.016998291015625l-.061004638671875-.003005981445312Z"/>
  <path class="cls-1" d="M52.868995666503906,72.41497802734375c.666061401367188.00054931640625,1.206451416015625-.5389404296875,1.207000732421875-1.205001831054688v-2.416000366210938c-.00494384765625-.664199829101562-.544784545898438-1.20001220703125-1.208999633789062-1.199996948242188-.62066650390625-.04058837890625-1.157241821289062.428482055664062-1.199996948242188,1.048995971679688-.00390625.051925659179688-.00390625.104080200195312,0,.156005859375v2.41400146484375c0,.666610717773438.540390014648438,1.207000732421875,1.207000732421875,1.207000732421875h0"/>
  <path class="cls-1" d="M52.868995666503906,72.66497802734375c-.804443359375-.00054931640625-1.456451416015625-.652557373046875-1.457000732421875-1.457000732421875v-2.399993896484375c-.004364013671875-.061264038085938-.004364013671875-.12274169921875,0-.184005737304688.054489135742188-.7554931640625.706954956054688-1.32635498046875,1.462997436523438-1.279998779296875.79986572265625.006011962890625,1.446182250976562.65411376953125,1.449996948242188,1.453994750976562v2.41400146484375c-.00274658203125.802490234375-.653488159179688,1.451904296875-1.45599365234375,1.4530029296875ZM52.788002014160156,67.83697509765625c-.461227416992188.001953125-.843063354492188.35894775390625-.876007080078125.819000244140625-.003005981445312.039947509765625-.003005981445312.080047607421875,0,.1199951171875v2.4320068359375c.017135620117188.52825927734375.459259033203125.942611694335938.987518310546875.92547607421875.504196166992188-.016342163085938.90911865234375-.421279907226562.92547607421875-.92547607421875v-2.41400146484375c-.00274658203125-.527847290039062-.431137084960938-.954452514648438-.958999633789062-.955001831054688h-.016998291015625l-.060989379882812-.001998901367188Z"/>
  <path class="cls-1" d="M46.952995300292969,72.41497802734375c.666061401367188.00054931640625,1.206451416015625-.5389404296875,1.207000732421875-1.205001831054688v-2.416000366210938c-.048294067382812-.645095825195312-.563568115234375-1.156524658203125-1.208999633789062-1.199996948242188-.622802734375-.039932250976562-1.160064697265625.432571411132812-1.199996948242188,1.055374145507812-.003082275390625.04815673828125-.003082275390625.096466064453125,0,.144622802734375v2.41400146484375c0,.666610717773438.540390014648438,1.207000732421875,1.207000732421875,1.207000732421875h0"/>
  <path class="cls-1" d="M46.952995300292969,72.66497802734375c-.804443359375-.00054931640625-1.456451416015625-.652557373046875-1.457000732421875-1.457000732421875v-2.404998779296875c-.047637939453125-.760665893554688.5303955078125-1.415924072265625,1.291046142578125-1.463546752929688.060272216796875-.0037841796875.120712280273438-.00360107421875.180953979492188.00054931640625.770599365234375.054550170898438,1.384292602539062.666549682617188,1.440994262695312,1.436996459960938v2.430999755859375c-.00054931640625.804061889648438-.651931762695312,1.455886840820312-1.45599365234375,1.457000732421875ZM46.872001647949219,67.83697509765625c-.486007690429688.001068115234375-.879119873046875.39593505859375-.8780517578125.881942749023438.000045776367188.019363403320312.000717163085938.038726806640625.002044677734375.058059692382812v2.430999755859375c0,.528533935546875.428466796875.957000732421875.957000732421875.957000732421875s.957000732421875-.428466796875.957000732421875-.957000732421875h0v-2.399993896484375c-.042160034179688-.518280029296875-.456314086914062-.928192138671875-.975006103515625-.964996337890625l-.06298828125-.006011962890625Z"/>
  <path class="cls-1" d="M40.917999267578125,72.41497802734375c.666053771972656.00054931640625,1.206451416015625-.5389404296875,1.207000732421875-1.205001831054688v-2.416000366210938c-.048301696777344-.645095825195312-.563568115234375-1.156524658203125-1.208999633789062-1.199996948242188-.62066650390625-.04058837890625-1.157249450683594.428482055664062-1.199996948242188,1.048995971679688-.003913879394531.051925659179688-.003913879394531.104080200195312,0,.156005859375v2.41400146484375c-.00054931640625.666061401367188.5389404296875,1.206451416015625,1.205001831054688,1.207000732421875h.001998901367188"/>
  <path class="cls-1" d="M40.917999267578125,72.66497802734375c-.804450988769531-.00054931640625-1.456451416015625-.652557373046875-1.457000732421875-1.457000732421875v-2.399993896484375c-.004371643066406-.061264038085938-.004371643066406-.12274169921875,0-.184005737304688.054962158203125-.7584228515625.712295532226562-1.329971313476562,1.471000671386719-1.279006958007812.771034240722656.053543090820312,1.385711669921875.665237426757812,1.443000793457031,1.436004638671875v2.430999755859375c-.002754211425781.802886962890625-.654106140136719,1.45245361328125-1.457000732421875,1.4530029296875ZM40.836997985839844,67.83697509765625c-.461227416992188.001953125-.843055725097656.35894775390625-.875999450683594.819000244140625-.003005981445312.039947509765625-.003005981445312.080047607421875,0,.1199951171875v2.4320068359375c.017066955566406.52825927734375.459144592285156.942672729492188.987403869628906.92559814453125.504287719726562-.01629638671875.909309387207031-.421310424804688.92559814453125-.92559814453125v-2.399993896484375c-.042152404785156-.518280029296875-.456314086914062-.928192138671875-.974998474121094-.964996337890625l-.062004089355469-.006011962890625Z"/>
  <path class="cls-1" d="M52.868995666503906,82.426010131835938c.666610717773438,0,1.207000732421875-.540390014648438,1.207000732421875-1.207000732421875h0v-2.41400146484375c-.003768920898438-.669357299804688-.5494384765625-1.20892333984375-1.218795776367188-1.205169677734375-.603851318359375.003402709960938-1.113082885742188.450790405273438-1.194198608398438,1.049163818359375-.00390625.051925659179688-.00390625.104080200195312,0,.156005859375v2.421005249023438c0,.666610717773438.540390014648438,1.207000732421875,1.207000732421875,1.207000732421875h0"/>
  <path class="cls-1" d="M52.868995666503906,82.681015014648438c-.804443359375-.00054931640625-1.456451416015625-.652557373046875-1.457000732421875-1.457000732421875v-2.399993896484375c-.004348754882812-.061264038085938-.004348754882812-.12274169921875,0-.184005737304688.050537109375-.804397583007812.74359130859375-1.41552734375,1.548004150390625-1.365005493164062.804397583007812.050537109375,1.41552734375.743606567382812,1.364990234375,1.548004150390625v2.402999877929688c-.00164794921875.80328369140625-.6527099609375,1.453903198242188-1.45599365234375,1.455001831054688ZM52.788002014160156,77.853012084960938c-.461227416992188.001953125-.843063354492188.35894775390625-.876007080078125.819000244140625-.003005981445312.039947509765625-.003005981445312.080047607421875,0,.1199951171875v2.434005737304688c.017135620117188.52825927734375.459259033203125.942611694335938.987518310546875.92547607421875.504196166992188-.016342163085938.90911865234375-.421279907226562.92547607421875-.92547607421875v-2.430999755859375c.0343017578125-.484237670898438-.330459594726562-.90460205078125-.814697265625-.93890380859375-.000442504882812-.000030517578125-.000869750976562-.00006103515625-.001296997070312-.000091552734375-.041275024414062-.002899169921875-.082717895507812-.002899169921875-.123992919921875,0h-.035995483398438l-.061004638671875-.003005981445312Z"/>
  <path class="cls-1" d="M46.952995300292969,82.430007934570312c.666610717773438,0,1.207000732421875-.540390014648438,1.207000732421875-1.207000732421875h0v-2.41400146484375c-.00494384765625-.664199829101562-.544784545898438-1.20001220703125-1.208999633789062-1.199996948242188-.622802734375-.039932250976562-1.160064697265625.432571411132812-1.199996948242188,1.055374145507812-.003082275390625.04815673828125-.003082275390625.096466064453125,0,.144622802734375v2.416000366210938c0,.666610717773438.540390014648438,1.207000732421875,1.207000732421875,1.207000732421875h0"/>
  <path class="cls-1" d="M46.952995300292969,82.680007934570312c-.804443359375-.00054931640625-1.456451416015625-.652557373046875-1.457000732421875-1.457000732421875v-2.404998779296875c-.047348022460938-.76068115234375.530929565429688-1.41571044921875,1.291610717773438-1.463058471679688.057418823242188-.003570556640625.114990234375-.003555297851562.172393798828125.00006103515625.799636840820312.006546020507812,1.445648193359375.654342651367188,1.449996948242188,1.453994750976562v2.416000366210938c-.00164794921875.803665161132812-.653335571289062,1.454452514648438-1.457000732421875,1.455001831054688ZM46.872001647949219,77.852005004882812c-.486007690429688.001068115234375-.879119873046875.39593505859375-.8780517578125.881942749023438.000045776367188.019363403320312.000717163085938.038726806640625.002044677734375.058059692382812v2.432998657226562c0,.528533935546875.428466796875.957000732421875.957000732421875.957000732421875s.957000732421875-.428466796875.957000732421875-.957000732421875v-2.41400146484375c-.00274658203125-.527847290039062-.431137084960938-.954452514648438-.958999633789062-.955001831054688h-.016998291015625l-.061996459960938-.003997802734375Z"/>
  <path class="cls-1" d="M40.917999267578125,82.430007934570312c.666610717773438,0,1.207000732421875-.540390014648438,1.207000732421875-1.207000732421875h0v-2.41400146484375c-.004402160644531-.6644287109375-.544563293457031-1.2005615234375-1.208999633789062-1.199996948242188-.62066650390625-.04058837890625-1.157249450683594.428482055664062-1.199996948242188,1.048995971679688-.003913879394531.051925659179688-.003913879394531.104080200195312,0,.156005859375v2.410995483398438c0,.666610717773438.540390014648438,1.207000732421875,1.207000732421875,1.207000732421875h0"/>
  <path class="cls-1" d="M40.917999267578125,82.680007934570312c-.804450988769531-.00054931640625-1.456451416015625-.652557373046875-1.457000732421875-1.457000732421875v-2.399993896484375c-.004371643066406-.061264038085938-.004371643066406-.12274169921875,0-.184005737304688.055007934570312-.755233764648438.707145690917969-1.3258056640625,1.462997436523438-1.279998779296875.79986572265625.006011962890625,1.446182250976562.65411376953125,1.449996948242188,1.453994750976562v2.412002563476562c-.00164794921875.80328369140625-.652717590332031,1.453903198242188-1.45599365234375,1.455001831054688ZM40.836997985839844,77.852005004882812c-.461227416992188.001953125-.843055725097656.35894775390625-.875999450683594.819000244140625-.003005981445312.039947509765625-.003005981445312.080047607421875,0,.1199951171875v2.434005737304688c-.017066955566406.52825927734375.3973388671875.9703369140625.92559814453125.987396240234375.52825927734375.017074584960938.9703369140625-.3973388671875.987403869628906-.92559814453125.000663757324219-.020599365234375.000663757324219-.04119873046875,0-.061798095703125v-2.41400146484375c-.00274658203125-.527847290039062-.431144714355469-.954452514648438-.958999633789062-.955001831054688h-.016998291015625l-.061004638671875-.003997802734375Z"/>
  <path class="cls-1" d="M26.318996429443359,7.252994537353516c-.62066650390625-.040584564208984-1.157249450683594.428478240966797-1.199996948242188,1.048999786376953-.003929138183594.051925659179688-.003929138183594.104074478149414,0,.156000137329102v2.534000396728516c-.0191650390625.666332244873047.505462646484375,1.222038269042969,1.171798706054688,1.241205215454102.666328430175781.019166946411133,1.222038269042969-.505464553833008,1.241203308105469-1.171794891357422.000663757324219-.02313232421875.000663757324219-.04627799987793,0-.06941032409668v-2.534000396728516c-.004402160644531-.664424896240234-.544563293457031-1.200565338134766-1.208999633789062-1.200000762939453"/>
  <path class="cls-1" d="M26.321002960205078,12.448995590209961c-.804450988769531-.000551223754883-1.456451416015625-.652549743652344-1.457000732421875-1.457000732421875v-2.524999618530273c-.004386901855469-.061254501342773-.004386901855469-.122745513916016,0-.184000015258789.051826477050781-.721658706665039.651481628417969-1.281192779541016,1.375-1.282999038696289h.087997436523438c.79986572265625.006015777587891,1.446189880371094.654121398925781,1.449996948242188,1.454000473022461v2.534999847412109c.001106262207031.805229187011719-.650764465332031,1.458890914916992-1.45599365234375,1.459999084472656ZM26.240001678466797,7.500995635986328c-.461418151855469.001474380493164-.843528747558594.358722686767578-.875999450683594.819000244140625-.003036499023438.039941787719727-.003036499023438.080059051513672,0,.120000839233398v2.552999496459961c-.017066955566406.528261184692383.3973388671875.970335006713867.92559814453125.987401962280273.52825927734375.017065048217773.9703369140625-.3973388671875.987403869628906-.925600051879883.000663757324219-.020595550537109.000663757324219-.041206359863281,0-.061801910400391v-2.535001754760742c-.00274658203125-.527849197387695-.431144714355469-.954456329345703-.958999633789062-.954999923706055h-.016998291015625l-.061004638671875-.001998901367188Z"/>
  <path class="cls-1" d="M20.285999298095703,7.252994537353516c-.622211456298828-.040531158447266-1.159469604492188.431013107299805-1.200000762939453,1.053224563598633-.003185272216797.048873901367188-.003185272216797.097902297973633,0,.14677619934082v2.534000396728516c0,.666608810424805.540393829345703,1.207000732421875,1.207000732421875,1.207000732421875s1.207000732421875-.54039192199707,1.207000732421875-1.207000732421875h0v-2.529001235961914c-.00494384765625-.664194107055664-.544784545898438-1.200019836425781-1.208999633789062-1.200000762939453"/>
  <path class="cls-1" d="M20.287998199462891,12.448995590209961c-.804450988769531-.000551223754883-1.456451416015625-.652549743652344-1.457000732421875-1.457000732421875v-2.525999069213867c-.047496795654297-.760671615600586.530647277832031-1.415821075439453,1.291316986083984-1.46331787109375.028194427490234-.001760482788086.056434631347656-.002655029296875.084682464599609-.002681732177734h.088001251220703c.799869537353516.006013870239258,1.446189880371094.654119491577148,1.450000762939453,1.454000473022461v2.534999847412109c.001102447509766.805231094360352-.650768280029297,1.458892822265625-1.455997467041016,1.459997177124023-.000335693359375.000001907348633-.000667572021484.000001907348633-.001003265380859.000001907348633ZM20.206996917724609,7.500995635986328c-.485458374023438.000486373901367-.878604888916016.39442253112793-.878116607666016.879880905151367.000019073486328.020057678222656.000724792480469.040109634399414.002117156982422.06011962890625v2.552000045776367c0,.528537750244141.428462982177734.957000732421875.957000732421875.957000732421875s.957000732421875-.428462982177734.957000732421875-.957000732421875v-2.535001754760742c-.002750396728516-.527849197387695-.431144714355469-.954456329345703-.958999633789062-.954999923706055h-.017002105712891l-.062000274658203-.001998901367188Z"/>
  <path class="cls-1" d="M26.479999542236328,17.750007629394531c-.652595520019531-.038570404052734-1.234298706054688.408462524414062-1.364997863769531,1.048999786376953-.003616333007812.051937103271484-.003616333007812.104061126708984,0,.155998229980469v2.534000396728516c0,.666606903076172.540390014648438,1.207000732421875,1.207000732421875,1.207000732421875s1.207000732421875-.540393829345703,1.207000732421875-1.207000732421875v-2.53399658203125c.040023803710938-.620479583740234-.428741455078125-1.156723022460938-1.049003601074219-1.200000762939453"/>
  <path class="cls-1" d="M26.319995880126953,22.94500732421875c-.804222106933594-.001102447509766-1.455902099609375-.652778625488281-1.457000732421875-1.457000732421875v-2.522998809814453c-.048049926757812-.760082244873047.529167175292969-1.415203094482422,1.289253234863281-1.463253021240234.028877258300781-.001823425292969.057807922363281-.002742767333984.086746215820312-.00274658203125h.079002380371094c.058944702148438-.003734588623047.118057250976562-.003734588623047.177001953125,0,.759529113769531.050262451171875,1.334686279296875.706432342529297,1.285003662109375,1.465999603271484v2.5260009765625c-.002204895019531.804450988769531-.655555725097656,1.455108642578125-1.460006713867188,1.453998565673828ZM26.238994598388672,17.99700927734375c-.485458374023438.00048828125-.878608703613281.394424438476562-.878120422363281.8798828125.000022888183594.020053863525391.000732421875.040107727050781.002120971679688.060115814208984v2.550998687744141c0,.528537750244141.428466796875.957000732421875.957000732421875.957000732421875s.957000732421875-.428462982177734.957000732421875-.957000732421875h0v-2.550998687744141c.033187866210938-.484188079833984-.331878662109375-.903839111328125-.816001892089844-.937999725341797-.041282653808594-.002876281738281-.082717895507812-.002876281738281-.124000549316406,0h-.036003112792969l-.061996459960938-.001998901367188Z"/>
  <path class="cls-1" d="M32.589004516601562,7.254993438720703c-.666053771972656-.000553131103516-1.206451416015625.538942337036133-1.207000732421875,1.204998016357422v2.536003112792969c-.038383483886719.666608810424805.470893859863281,1.238117218017578,1.137504577636719,1.276500701904297.666603088378906.038383483886719,1.238113403320312-.470891952514648,1.276496887207031-1.137500762939453.002662658691406-.046295166015625.002662658691406-.092704772949219,0-.138999938964844v-2.534002304077148c0-.666606903076172-.540390014648438-1.207000732421875-1.207000732421875-1.207000732421875h0"/>
  <path class="cls-1" d="M32.509002685546875,12.45399284362793h-.099998474121094c-.757080078125-.051860809326172-1.329994201660156-.705663681030273-1.281997680664062-1.46299934387207v-2.529001235961914c0-.804679870605469.652320861816406-1.457000732421875,1.457000732421875-1.457000732421875s1.457000732421875.652320861816406,1.457000732421875,1.457000732421875v2.525999069213867c.047492980957031.760671615600586-.530647277832031,1.415821075439453-1.29132080078125,1.46331787109375-.028190612792969.001760482788086-.056427001953125.002655029296875-.084678649902344.002681732177734h-.079002380371094l-.077003479003906.000001907348633ZM32.589004516601562,7.504993438720703c-.528305053710938.000551223754883-.956451416015625.428691864013672-.957000732421875.957000732421875v2.551000595092773c-.03375244140625.484283447265625.33148193359375.904233932495117.815765380859375.937982559204102.000076293945312.000005722045898.000160217285156.000011444091797.000236511230469.000017166137695.041282653808594.002851486206055.082717895507812.002851486206055.124000549316406,0h.036003112792969c.484878540039062.033166885375977.904838562011719-.333015441894531.938003540039062-.817893981933594.002731323242188-.039987564086914.002738952636719-.080116271972656,0-.120105743408203v-2.551002502441406c-.00054931640625-.528310775756836-.428695678710938-.956451416015625-.957008361816406-.956998825073242Z"/>
  <path class="cls-1" d="M32.588996887207031,17.756004333496094c-.664108276367188-.000560760498047-1.203697204589844.535900115966797-1.207000732421875,1.200000762939453v2.534000396728516c.004402160644531.664424896240234.544563293457031,1.200565338134766,1.208999633789062,1.200000762939453.622802734375.039936065673828,1.160057067871094-.432567596435547,1.199996948242188-1.055370330810547.003089904785156-.048160552978516.003089904785156-.096469879150391,0-.144630432128906v-2.534000396728516c-.003829956054688-.66192626953125-.540061950683594-1.197265625-1.201995849609375-1.200000762939453"/>
  <path class="cls-1" d="M32.669998168945312,22.950004577636719h-.087997436523438c-.79986572265625-.006015777587891-1.446189880371094-.654117584228516-1.449996948242188-1.453998565673828v-2.540000915527344c.021141052246094-.804401397705078.69036865234375-1.439361572265625,1.494773864746094-1.418224334716797.774673461914062.020359039306641,1.397865295410156.643550872802734,1.418220520019531,1.418224334716797v2.5260009765625c.047492980957031.760669708251953-.530647277832031,1.415821075439453-1.29132080078125,1.46331787109375-.028190612792969.001758575439453-.056427001953125.002655029296875-.084678649902344.002681732177734l.000999450683594.001998901367188ZM32.588996887207031,18.002006530761719c-.528305053710938.00054931640625-.956451416015625.428691864013672-.957000732421875.957000732421875v2.534000396728516c.00274658203125.527851104736328.431144714355469.954460144042969.958999633789062.955001831054688h.016998291015625c.484878540039062.033168792724609.904838562011719-.333015441894531.938003540039062-.817893981933594.002731323242188-.039989471435547.002738952636719-.080116271972656,0-.120105743408203v-2.554004669189453c-.002204895019531-.527133941650391-.429862976074219-.953453063964844-.957000732421875-.953998565673828Z"/>
  <path class="cls-1" d="M20.446998596191406,17.750007629394531c-.652599334716797-.03857421875-1.234298706054688.408462524414062-1.365001678466797,1.048999786376953-.003273010253906.051948547363281-.003273010253906.104049682617188,0,.155998229980469v2.534000396728516c0,.666606903076172.540393829345703,1.207000732421875,1.207000732421875,1.207000732421875s1.207000732421875-.540393829345703,1.207000732421875-1.207000732421875v-2.53399658203125c.040023803710938-.620479583740234-.428741455078125-1.156719207763672-1.048999786376953-1.200000762939453"/>
  <path class="cls-1" d="M20.288997650146484,22.94500732421875c-.804222106933594-.001102447509766-1.455898284912109-.652778625488281-1.457000732421875-1.457000732421875v-2.522998809814453c-.003582000732422-.059612274169922-.003582000732422-.119388580322266,0-.179000854492188.051277160644531-.722393035888672.650794982910156-1.283107757568359,1.375-1.285999298095703h.078998565673828c.058940887451172-.003734588623047.118057250976562-.003734588623047.176998138427734,0,.757915496826172.051841735839844,1.331153869628906.706905364990234,1.282005310058594,1.465000152587891v2.5260009765625c-.002201080322266.802886962890625-.653110504150391,1.452899932861328-1.456001281738281,1.453998565673828ZM20.207996368408203,17.99700927734375c-.461227416992188.001960754394531-.843059539794922.35894775390625-.875999450683594.819000244140625-.0025634765625.040962219238281-.0025634765625.082038879394531,0,.123001098632812v2.549999237060547c0,.528537750244141.428462982177734.957000732421875.957000732421875.957000732421875s.957000732421875-.428462982177734.957000732421875-.957000732421875v-2.552001953125c.033191680908203-.484184265136719-.331878662109375-.903839111328125-.815998077392578-.937999725341797-.041282653808594-.002876281738281-.082717895507812-.002876281738281-.124000549316406,0h-.035999298095703l-.062004089355469-.001998901367188Z"/>
  <path class="cls-1" d="M26.318996429443359,28.12701416015625c-.62066650390625-.04058837890625-1.157249450683594.428482055664062-1.199996948242188,1.049003601074219-.003929138183594.051925659179688-.003929138183594.104072570800781,0,.155998229980469v2.532997131347656c-.0191650390625.666328430175781.505462646484375,1.222038269042969,1.171798706054688,1.241203308105469.666328430175781.019172668457031,1.222038269042969-.505462646484375,1.241203308105469-1.171791076660156.000663757324219-.02313232421875.000663757324219-.046279907226562,0-.069412231445312v-2.532997131347656c-.004402160644531-.664421081542969-.544563293457031-1.2005615234375-1.208999633789062-1.199996948242188"/>
  <path class="cls-1" d="M26.321002960205078,33.323013305664062c-.804840087890625-.00054931640625-1.457000732421875-.653160095214844-1.457000732421875-1.458000183105469v-2.524002075195312c-.004386901855469-.061256408691406-.004386901855469-.12274169921875,0-.183998107910156.051826477050781-.721656799316406.6514892578125-1.28118896484375,1.375-1.282997131347656h.087997436523438c.79986572265625.006011962890625,1.446189880371094.654121398925781,1.449996948242188,1.454002380371094v2.536994934082031c0,.804450988769531-.651542663574219,1.456893920898438-1.45599365234375,1.458000183105469ZM26.240001678466797,28.375015258789062c-.461418151855469.001472473144531-.843528747558594.358726501464844-.875999450683594.819000244140625-.003044128417969.039939880371094-.003044128417969.080062866210938,0,.120002746582031v2.550994873046875c-.017066955566406.52825927734375.3973388671875.9703369140625.92559814453125.987403869628906s.9703369140625-.3973388671875.987403869628906-.925605773925781c.000663757324219-.020591735839844.000663757324219-.041206359863281,0-.061798095703125v-2.532997131347656c-.00274658203125-.527847290039062-.431144714355469-.954460144042969-.958999633789062-.955001831054688h-.016998291015625l-.061004638671875-.001998901367188Z"/>
  <path class="cls-1" d="M20.285999298095703,28.12701416015625c-.622211456298828-.040534973144531-1.159469604492188.431015014648438-1.200000762939453,1.05322265625-.003181457519531.048873901367188-.003185272216797.097900390625,0,.146774291992188v2.538002014160156c0,.666610717773438.540393829345703,1.207000732421875,1.207000732421875,1.207000732421875s1.207000732421875-.540390014648438,1.207000732421875-1.207000732421875h0v-2.532997131347656c-.004947662353516-.664192199707031-.544788360595703-1.20001220703125-1.208999633789062-1.199996948242188"/>
  <path class="cls-1" d="M20.287998199462891,33.323013305664062c-.804840087890625-.00054931640625-1.457000732421875-.653160095214844-1.457000732421875-1.458000183105469v-2.525001525878906c-.047500610351562-.760673522949219.530643463134766-1.415824890136719,1.291313171386719-1.46331787109375.028194427490234-.001762390136719.056438446044922-.002655029296875.084686279296875-.002685546875h.088001251220703c.799869537353516.006011962890625,1.446193695068359.654121398925781,1.450000762939453,1.454002380371094v2.537002563476562c-.00054931640625.804611206054688-.652389526367188,1.456901550292969-1.457000732421875,1.458000183105469ZM20.206996917724609,28.375015258789062c-.485458374023438.00048828125-.878604888916016.394424438476562-.878116607666016.8798828125.000019073486328.020057678222656.000724792480469.040107727050781.002117156982422.06011962890625v2.549995422363281c0,.528533935546875.428462982177734.957000732421875.957000732421875.957000732421875s.957000732421875-.428466796875.957000732421875-.957000732421875h0v-2.532997131347656c-.00274658203125-.527847290039062-.431140899658203-.954460144042969-.958999633789062-.955001831054688h-.017002105712891l-.062000274658203-.001998901367188Z"/>
  <path class="cls-1" d="M26.479999542236328,38.628005981445312c-.652595520019531-.03857421875-1.234298706054688.408462524414062-1.364997863769531,1.049003601074219-.003616333007812.051933288574219-.003616333007812.10406494140625,0,.155998229980469v2.53399658203125c0,.666610717773438.540390014648438,1.207000732421875,1.207000732421875,1.207000732421875s1.207000732421875-.540390014648438,1.207000732421875-1.207000732421875v-2.53399658203125c.040023803710938-.620475769042969-.428741455078125-1.156723022460938-1.049003601074219-1.199996948242188"/>
  <path class="cls-1" d="M26.319995880126953,43.823005676269531c-.804222106933594-.0010986328125-1.455902099609375-.652778625488281-1.457000732421875-1.457000732421875v-2.5260009765625c-.048049926757812-.760086059570312.529167175292969-1.415206909179688,1.28924560546875-1.4632568359375.028884887695312-.001823425292969.057815551757812-.002738952636719.086753845214844-.00274658203125h.079002380371094c.058944702148438-.003730773925781.118057250976562-.003730773925781.177001953125,0,.756294250488281.053443908691406,1.328323364257812.706230163574219,1.281997680664062,1.462997436523438v2.5260009765625c.001106262207031.805229187011719-.650764465332031,1.458900451660156-1.45599365234375,1.460006713867188h-.001007080078125ZM26.238994598388672,38.875007629394531c-.485458374023438.00048828125-.878608703613281.394424438476562-.878120422363281.8798828125.000022888183594.020057678222656.000732421875.040107727050781.002120971679688.06011962890625v2.551002502441406c0,.528533935546875.428466796875.957000732421875.957000732421875.957000732421875s.957000732421875-.428466796875.957000732421875-.957000732421875v-2.551002502441406c.032615661621094-.484359741210938-.332748413085938-.903831481933594-.817001342773438-.938003540039062-.041282653808594-.00286865234375-.082717895507812-.00286865234375-.124000549316406,0h-.036003112792969l-.060997009277344-.001998901367188Z"/>
  <path class="cls-1" d="M20.446998596191406,38.628005981445312c-.652599334716797-.03857421875-1.234298706054688.408462524414062-1.365001678466797,1.049003601074219-.003273010253906.051948547363281-.003273010253906.104049682617188,0,.155998229980469v2.53399658203125c0,.666610717773438.540393829345703,1.207000732421875,1.207000732421875,1.207000732421875s1.207000732421875-.540390014648438,1.207000732421875-1.207000732421875v-2.53399658203125c.040023803710938-.620475769042969-.428741455078125-1.156715393066406-1.048999786376953-1.199996948242188"/>
  <path class="cls-1" d="M20.288997650146484,43.823005676269531c-.804222106933594-.0010986328125-1.455898284912109-.652778625488281-1.457000732421875-1.457000732421875v-2.5260009765625c-.003582000732422-.059616088867188-.003582000732422-.119384765625,0-.179000854492188.051273345947266-.722396850585938.650794982910156-1.283111572265625,1.375-1.286003112792969h.078998565673828c.760231018066406-.045684814453125,1.413547515869141.533576965332031,1.459232330322266,1.293800354003906.003383636474609.056350708007812.003307342529297.11285400390625-.000232696533203.169197082519531v2.5260009765625c.000556945800781.804840087890625-.651153564453125,1.457901000976562-1.455997467041016,1.459007263183594ZM20.207996368408203,38.875007629394531c-.461227416992188.001960754394531-.843059539794922.35894775390625-.875999450683594.819000244140625-.0025634765625.040962219238281-.0025634765625.082038879394531,0,.123001098632812v2.550003051757812c0,.528533935546875.428462982177734.957000732421875.957000732421875.957000732421875s.957000732421875-.428466796875.957000732421875-.957000732421875v-2.551002502441406c.032615661621094-.484359741210938-.332744598388672-.903831481933594-.817001342773438-.938003540039062-.041282653808594-.00286865234375-.082717895507812-.00286865234375-.124000549316406,0h-.035999298095703l-.061000823974609-.002998352050781Z"/>
  <path class="cls-1" d="M26.318996429443359,49.008010864257812c-.62066650390625-.04058837890625-1.157249450683594.428482055664062-1.199996948242188,1.048995971679688-.003936767578125.051925659179688-.003936767578125.104080200195312,0,.156005859375v2.53399658203125c-.0191650390625.666336059570312.505462646484375,1.2220458984375,1.171798706054688,1.2412109375.666328430175781.0191650390625,1.222038269042969-.505462646484375,1.241203308105469-1.171798706054688.000663757324219-.02313232421875.000663757324219-.046279907226562,0-.069412231445312v-2.53900146484375c-.004402160644531-.6644287109375-.544563293457031-1.2005615234375-1.208999633789062-1.199996948242188"/>
  <path class="cls-1" d="M26.321002960205078,54.201004028320312c-.804450988769531-.00054931640625-1.456451416015625-.652557373046875-1.457000732421875-1.457000732421875v-2.524993896484375c-.004386901855469-.061264038085938-.004386901855469-.12274169921875,0-.184005737304688.051826477050781-.721664428710938.651481628417969-1.281204223632812,1.375-1.283004760742188h.087997436523438c.80181884765625.004379272460938,1.450279235839844.6541748046875,1.4530029296875,1.456008911132812v2.535003662109375c-.000007629394531.80523681640625-.652778625488281,1.457992553710938-1.4580078125,1.457992553710938h-.000991821289062ZM26.240001678466797,49.253005981445312c-.461418151855469.001480102539062-.843528747558594.358718872070312-.875999450683594.819000244140625-.003044128417969.039947509765625-.003044128417969.080047607421875,0,.1199951171875v2.552993774414062c-.017066955566406.52825927734375.3973388671875.9703369140625.92559814453125.987396240234375.52825927734375.017074584960938.9703369140625-.3973388671875.987403869628906-.92559814453125.000663757324219-.020599365234375.000663757324219-.04119873046875,0-.061798095703125v-2.5369873046875c-.00274658203125-.527847290039062-.431144714355469-.954452514648438-.958999633789062-.955001831054688h-.0780029296875Z"/>
  <path class="cls-1" d="M20.285999298095703,49.008010864257812c-.622211456298828-.04052734375-1.159469604492188.431015014648438-1.200000762939453,1.05322265625-.003181457519531.048873901367188-.003185272216797.097900390625,0,.146774291992188v2.53399658203125c0,.666610717773438.540393829345703,1.207000732421875,1.207000732421875,1.207000732421875s1.207000732421875-.540390014648438,1.207000732421875-1.207000732421875v-2.53399658203125c-.004947662353516-.664199829101562-.544788360595703-1.20001220703125-1.208999633789062-1.199996948242188"/>
  <path class="cls-1" d="M20.287998199462891,54.201004028320312c-.804450988769531-.00054931640625-1.456451416015625-.652557373046875-1.457000732421875-1.457000732421875v-2.5260009765625c-.047500610351562-.760665893554688.530643463134766-1.415817260742188,1.291313171386719-1.46331787109375.028194427490234-.00177001953125.056438446044922-.002655029296875.084686279296875-.002685546875h.088001251220703c.79986572265625.006011962890625,1.446189880371094.65411376953125,1.450000762939453,1.453994750976562v2.535003662109375c.000556945800781.805389404296875-.651603698730469,1.458908081054688-1.457000732421875,1.460006713867188ZM20.206996917724609,49.253005981445312c-.485458374023438.00048828125-.878604888916016.394424438476562-.878116607666016.8798828125.000019073486328.020050048828125.000724792480469.040115356445312.002117156982422.06011962890625v2.550994873046875c0,.528533935546875.428462982177734.957000732421875.957000732421875.957000732421875s.957000732421875-.428466796875.957000732421875-.957000732421875v-2.535995483398438c-.00274658203125-.527847290039062-.431140899658203-.954452514648438-.958999633789062-.955001831054688h-.079002380371094Z"/>
  <path class="cls-1" d="M89.791999816894531,92.56500244140625h0c.039939880371094-.622802734375-.432571411132812-1.160057067871094-1.055374145507812-1.199996948242188-.04815673828125-.003089904785156-.096466064453125-.003089904785156-.144622802734375,0h-2.900001525878906v-41.396003723144531c.04058837890625-.620670318603516-.428482055664062-1.157253265380859-1.049003601074219-1.200000762939453-.051925659179688-.003917694091797-.104072570800781-.003917694091797-.155998229980469,0h-5.550003051757812V7.131999969482422c.039939880371094-.622802257537842-.432563781738281-1.160060405731201-1.055366516113281-1.199999809265137-.048164367675781-.003088474273682-.096473693847656-.003088474273682-.144630432128906,0h-25.099998474121094c-.622211456298828-.040531158447266-1.159469604492188.431013107299805-1.200000762939453,1.053223609924316-.003185272216797.048873424530029-.003185272216797.097902774810791,0,.14677619934082v14.718000411987305l-10.5,5.55000114440918V1.45799994468689c.044246673583984-.622511148452759-.424526214599609-1.163026332855225-1.047039031982422-1.207274407031946-.003650665283203-.000259610882495-.007305145263672-.000501467773574-.010959625244141-.000725537654944-.053260803222656-.003919650800526-.106739044189453-.003919638693333-.159999847412109,0H13.170000076293945c-.622210502624512-.040530830621719-1.159468650817871.431013941764832-1.199999809265137,1.053224682807922-.003183364868164.04887330532074-.003183364868164.097902059555054,0,.146775364875793v57.45000147819519h-5.920000076293945c-.619213581085205-.040645599365234-1.15516185760498.426074981689453-1.200000286102295,1.044998168945312-.003740787506104.053268432617188-.003740787506104.106731414794922,0,.159999847412109v31.251003265380859H1.457000017166138c-.666608095169067,0-1.207000732421875.540390014648438-1.207000732421875,1.207000732421875s.540392637252808,1.207000732421875,1.207000732421875,1.207000732421875h87.251000165939331c.623077392578125-.023849487304688,1.109077453613281-.547889709472656,1.08599853515625-1.170997619628906v-.032997131347656M19.393997192382812,73.939010620117188c2.998722076416016-.155899047851562,5.556051254272461,2.148658752441406,5.711954116821289,5.147377014160156.009759902954102.187744140625.009777069091797.375869750976562.000049591064453.563613891601562v11.709999084472656h-10.856000900268555v-11.709999084472656c-.157680511474609-2.998626708984375,2.145364761352539-5.557327270507812,5.143993377685547-5.715003967285156h.000007629394531M31.868000030517578,91.360000610351562h-4.344999313354492v-11.709999084472656c.167854309082031-4.330528259277344-3.206657409667969-7.977188110351562-7.53718376159668-8.145042419433594-4.330527305603027-.167854309082031-7.97718620300293,3.206657409667969-8.145040512084961,7.537185668945312-.00157356262207.040611267089844-.002832412719727.081230163574219-.003775596618652.121856689453125-.004667282104492.161994934082031-.004667282104492.323997497558594,0,.486000061035156v11.709999084472656h-4.706000804901123v-30.046001434326172h24.736999988555908v30.046001434326172ZM31.992000579833984,32.833000183105469v26.067001342773438H14.375V2.666000366210938h24.131000518798828v25.947000503540039l-5.910999298095703,3.136999130249023c-.375518798828125.231817245483398-.602945327758789.6427001953125-.600000381469727,1.083999633789062M58.536998748779297,91.360000610351562h-24.134998321533203v-57.799999237060547l24.134998321533203-12.549001693725586v70.349000930786133ZM60.227996826171875,17.874000549316406c-.364776611328125-.237394332885742-.835224151611328-.237394332885742-1.200000762939453,0l-5.193996429443359,2.775999069213867v-12.312000274658203h22.681999206542969v40.426000595092773h-15.685997009277344v-29.805000305175781c-.025959014892578-.43342399597168-.246501922607422-.831869125366211-.599998474121094-1.083999633789062M83.394996643066406,91.367996215820312h-22.444995880126953v-6.400001525878906h22.444995880126953v6.400001525878906ZM83.394996643066406,82.436996459960938h-22.444995880126953v-6.276992797851562h22.444995880126953v6.276992797851562ZM83.394996643066406,73.746994018554688h-22.444995880126953v-6.276992797851562h22.444995880126953v6.276992797851562ZM83.394996643066406,65.056991577148438h-22.444995880126953v-5.911991119384766h22.444995880126953v5.911991119384766ZM83.394996643066406,56.720993041992188l-.120002746582031.007999420166016h-22.324993133544922v-5.549999237060547h22.444995880126953v5.541999816894531Z"/>
  <path class="cls-1" d="M88.711997985839844,94.019996643066406H1.457000017166138C.652320742607117,94.019996643066406-.000000715255737,93.36767578125-.000000715255737,92.562995910644531s.652321457862854-1.457000732421875,1.457000732421875-1.457000732421875h3.137999773025513v-30.992996215820312c-.045838832855225-.760772705078125.533730506896973-1.414661407470703,1.294503688812256-1.460498809814453.027134895324707-.001636505126953.054312229156494-.002468109130859.081496715545654-.002498626708984h5.74399995803833V1.465999960899353c-.047496795654297-.760118156671524.530197143554688-1.414819210767746,1.290315628051758-1.462315708398819.028526306152344-.00178250670433.057101249694824-.00267767906189.085683822631836-.002684250473976h26.618999481201172c.062259674072266-.004338458180428.124740600585938-.00433848798275.187000274658203,0,.756019592285156.053433373570442,1.327468872070312.706581398844719,1.279998779296875,1.463000103831291v25.525999665260315l10-5.285999298095703V7.140999794006348c-.048049926757812-.760083198547363.529167175292969-1.415205478668213,1.289249420166016-1.463255882263184.027881622314453-.001762866973877.055812835693359-.002677917480469.083751678466797-.002743721008301h25.173999786376953c.76068115234375-.047307968139648,1.415687561035156.530996799468994,1.462997436523438,1.291680335998535.003547668457031.057051658630371.003547668457031.11426830291748,0,.171319961547852v41.375999450683594h5.291000366210938c.061256408691406-.004344940185547.12274169921875-.004344940185547.183998107910156,0,.755348205566406.053966522216797,1.326339721679688.706150054931641,1.279998779296875,1.462001800537109v41.137996673583984h2.637001037597656c.760665893554688-.047569274902344,1.415870666503906.530509948730469,1.46343994140625,1.291183471679688.003387451171875.054214477539062.003578186035156.10858154296875.000556945800781.162818908691406v.024002075195312c.026451110839844.760238647460938-.566871643066406,1.398719787597656-1.327003479003906,1.428001403808594l-.003990173339844-.000007629394531ZM1.457000017166138,91.606002807617188c-.528536915779114,0-.957000732421875.428466796875-.957000732421875.957000732421875s.428463816642761.957000732421875.957000732421875.957000732421875h87.246002912521362c.483383178710938-.021102905273438.859062194824219-.428497314453125.84100341796875-.912002563476562v-.0260009765625l.136001586914062-.009002685546875h-.136001586914062l.162002563476562-.005996704101562-.161003112792969-.011001586914062h0c.032608032226562-.484916687011719-.334060668945312-.904449462890625-.818977355957031-.937057495117188-.039627075195312-.002670288085938-.079399108886719-.002647399902344-.119026184082031.00006103515625h-3.165000915527344v-41.669002532958984c.033180236816406-.484550476074219-.332481384277344-.904365539550781-.817001342773438-.937999725341797-.039939880371094-.003093719482422-.080062866210938-.003093719482422-.120002746582031,0h-5.818000793457031V7.114999771118164c.033714294433594-.484286308288574-.331550598144531-.904207229614258-.815834045410156-.937920093536377l-.001167297363281-.000080108642578c-.040618896484375-.00279712677002-.081382751464844-.00279712677002-.122001647949219,0h-25.131992340087891c-.484283447265625-.033760070800781-.904239654541016.331460952758789-.937999725341797.815743923187256-.002838134765625.040702819824219-.002838134765625.08155345916748,0,.122256278991699v14.89000129699707l-11,5.813999176025391V1.440999984741211c.033191680908203-.484187304973602-.331882476806641-.903841078281403-.816001892089844-.938000023365021-.041275024414062-.003091901540756-.082725524902344-.003091886639595-.124000549316406,0H13.149999618530273c-.484283447265625-.033759951591492-.904239654541016.331461131572723-.937999725341797.81574410200119-.002837181091309.04070258140564-.002837181091309.081553339958191,0,.122255921363831v57.709001541137695h-6.176000118255615c-.484758377075195-.034870147705078-.905998706817627.329837799072266-.94086742401123.814598083496094-.002978801727295.041412353515625-.003023147583008.082981109619141-.00013256072998.124401092529297v31.517002105712891H1.457000017166138ZM83.645004272460938,91.61700439453125h-22.944004058837891v-6.900001525878906h22.943996429443359l.000007629394531,6.900001525878906ZM61.201004028320312,91.11700439453125h21.943992614746094v-5.900001525878906h-21.943996429443359l.000003814697266,5.900001525878906ZM34.152004241943359,91.61700439453125v-58.208003997802734l24.634994506835938-12.809999465942383v71.01099967956543l-24.634994506835938.007003784179688ZM34.652004241943359,33.717002868652344v57.400001525878906h23.634998321533203V21.423000335693359l-23.634998321533203,12.294002532958984ZM32.118003845214844,91.61700439453125h-4.845003128051758v-11.967002868652344c.1251220703125-4.191734313964844-3.166553497314453-7.69366455078125-7.357999801635742-7.8280029296875h-.23900032043457c-4.110199928283691-.016647338867188-7.480855941772461,3.253189086914062-7.589000701904297,7.36199951171875v12.426002502441406h-5.205999851226807v-30.546001434326172h25.236999988555908l.000003814697266,30.553005218505859ZM27.773004531860352,91.11700439453125h3.844999313354492v-29.553005218505859H7.38100004196167v29.546001434326172h4.2069993019104v-11.952003479003906c.137092590332031-4.369743347167969,3.717105865478516-7.842208862304688,8.088998794555664-7.846000671386719h.254999160766602c4.465795516967773.143592834472656,7.973289489746094,3.873825073242188,7.842000961303711,8.339996337890625l-.000993728637695,11.465011596679688ZM25.35600471496582,91.61700439453125h-11.359004974365234v-11.956001281738281c-.161625862121582-3.134109497070312,2.246076583862305-5.806755065917969,5.379999160766602-5.972000122070312.100000381469727-.004997253417969.200000762939453-.008003234863281.299999237060547-.008003234863281,3.140842437744141.002456665039062,5.685007095336914,2.550605773925781,5.682550430297852,5.691444396972656-.00007438659668.096237182617188-.002593994140625.192451477050781-.007551193237305.288558959960938l.004007339477539,11.956001281738281ZM14.497004508972168,91.11700439453125h10.358996391296387v-11.476005554199219c.150774002075195-2.860733032226562-2.046077728271484-5.302040100097656-4.906808853149414-5.452812194824219-.089321136474609-.004707336425781-.178747177124023-.007102966308594-.268192291259766-.007186889648438-.091999053955078,0-.184999465942383,0-.277999877929688.007003784179688-2.8604736328125.150680541992188-5.057310104370117,2.591506958007812-4.906999588012695,5.452003479003906v11.469993591308594l.001004219055176.007003784179688ZM83.645004272460938,82.693008422851562h-22.944004058837891v-6.783004760742188h22.943996429443359l.000007629394531,6.783004760742188ZM61.201004028320312,82.193008422851562h21.943992614746094v-5.783004760742188h-21.943996429443359l.000003814697266,5.783004760742188ZM83.645004272460938,74.003005981445312h-22.944004058837891v-6.783004760742188h22.943996429443359l.000007629394531,6.783004760742188ZM61.201004028320312,73.503005981445312h21.943992614746094v-5.783004760742188h-21.943996429443359l.000003814697266,5.783004760742188ZM83.645004272460938,65.313003540039062h-22.944004058837891v-6.418003082275391h22.943996429443359l.000007629394531,6.418003082275391ZM61.201004028320312,64.813003540039062h21.943992614746094v-5.418003082275391h-21.943996429443359l.000003814697266,5.418003082275391ZM32.242000579833984,59.150001525878906H14.125V2.416000366210938h24.631000518798828v26.347000122070312l-6.036998748779297,3.200000762939453c-.297626495361328.187166213989258-.477876663208008.514415740966797-.476999282836914.866001129150391l-.000001907348633,26.320999145507812ZM14.625,58.650001525878906h17.117000579833984v-25.816001892089844c-.001615524291992-.529361724853516.271760940551758-1.021591186523438.722000122070312-1.299999237060547l.013999938964844-.007999420166016,5.777999877929688-3.065999984741211V2.91700005531311H14.621000289916992l.003999710083008,55.733001470565796ZM83.281997680664062,56.977001190185547h-22.580997467041016v-6.049999237060547h22.943996429443359v6.027000427246094l-.362998962402344.022998809814453ZM61.199996948242188,56.477001190185547h21.944999694824219v-5.049999237060547h-21.943996429443359l-.001003265380859,5.049999237060547ZM76.764999389648438,49.01300048828125h-16.18499755859375v-30.046001434326172c-.023124694824219-.354572296142578-.204532623291016-.679929733276367-.493999481201172-.88599967956543-.281192779541016-.184181213378906-.644805908203125-.184181213378906-.925998687744141,0l-.020000457763672.011999130249023-5.555999755859375,2.972000122070312v-12.979000091552734h23.181995391845703l-.000999450683594,40.927001953125ZM61.078998565673828,48.51300048828125h15.187000274658203V8.586999893188477h-22.18499755859375v11.645000457763672l4.811000823974609-2.572999954223633c.448047637939453-.289331436157227,1.024730682373047-.286584854125977,1.470001220703125.006999969482422h.006999969482422c.416984558105469.294744491577148.677177429199219.763233184814453.707000732421875,1.273000717163086v29.57499885559082l.002994537353516-.000999450683594Z"/>
</svg>