<svg xmlns="http://www.w3.org/2000/svg" width="68.961" height="68.962" viewBox="0 0 68.961 68.962"><path d="M34.481,66.542H5.444A5.449,5.449,0,0,1,0,61.1V5.444A5.449,5.449,0,0,1,5.444,0H53.838a5.449,5.449,0,0,1,5.444,5.444v32.17a1.815,1.815,0,0,1-3.63,0V5.444A1.816,1.816,0,0,0,53.838,3.63H5.444A1.816,1.816,0,0,0,3.63,5.444V61.1a1.816,1.816,0,0,0,1.815,1.815H34.481a1.815,1.815,0,1,1,0,3.63" fill="#fff"/><path d="M154.842,162.667H133.065a1.816,1.816,0,0,1-1.815-1.815V133.025a1.815,1.815,0,1,1,3.63,0v26.012h19.962a1.815,1.815,0,1,1,0,3.63Z" transform="translate(-122.781 -122.744)" fill="#fff"/><path d="M133.071,224.363a1.813,1.813,0,0,1-1.364-3.01l8.47-9.679a1.815,1.815,0,0,1,1.3-.62,1.773,1.773,0,0,1,1.343.532l7.053,7.051,9.618-11.757a1.813,1.813,0,0,1,2.686-.133l4.616,4.616,3.575-4.467a1.814,1.814,0,1,1,2.831,2.269l-4.839,6.049a1.8,1.8,0,0,1-1.316.678,1.848,1.848,0,0,1-1.382-.529l-4.631-4.631-9.618,11.757a1.817,1.817,0,0,1-2.689.133l-7.1-7.1-7.189,8.218a1.809,1.809,0,0,1-1.367.62Z" transform="translate(-122.787 -192.908)" fill="#fff"/><path d="M152.422,697.36H133.065a1.815,1.815,0,1,1,0-3.63h19.358a1.815,1.815,0,1,1,0,3.63" transform="translate(-122.781 -648.967)" fill="#fff"/><path d="M143.953,809.86H133.065a1.815,1.815,0,1,1,0-3.63h10.888a1.815,1.815,0,0,1,0,3.63" transform="translate(-122.781 -754.208)" fill="#fff"/><path d="M555.244,572.369a17.119,17.119,0,1,1,17.119-17.119,17.139,17.139,0,0,1-17.119,17.119m0-30.609a13.49,13.49,0,1,0,13.49,13.49,13.506,13.506,0,0,0-13.49-13.49" transform="translate(-503.402 -503.407)" fill="#fff"/><path d="M783.855,655.4a1.806,1.806,0,0,1-1.228-.478l-6.73-6.188a1.825,1.825,0,0,1-.587-1.337v-8.947a1.815,1.815,0,0,1,3.63,0V646.6l6.143,5.65a1.812,1.812,0,0,1-1.228,3.149Z" transform="translate(-725.283 -595.555)" fill="#fff"/></svg>