<svg xmlns="http://www.w3.org/2000/svg" width="68.775" height="80.514" viewBox="0 0 68.775 80.514"><g transform="translate(-113.549 -29.005)"><path d="M151.911,96.795v5.366H138.7V36.28h13.209v8.834a6.24,6.24,0,0,1,1.156.908c1.734,1.4,3.055,1.4,4.789,0,.083-.083.248-.165.33-.248V33.143a3.136,3.136,0,0,0-3.137-3.137H135.564a3.136,3.136,0,0,0-3.137,3.137v15.6a10.991,10.991,0,0,0-1.569,1.156,8.248,8.248,0,0,1-11.145,0,3.166,3.166,0,1,0-4.045,4.871,15.264,15.264,0,0,0,9.577,3.633,14.29,14.29,0,0,0,7.183-1.981v9.247a10.992,10.992,0,0,0-1.569,1.156,8.248,8.248,0,0,1-11.145,0,3.166,3.166,0,1,0-4.045,4.871,15.264,15.264,0,0,0,9.577,3.633,14.29,14.29,0,0,0,7.183-1.981V82.6a10.992,10.992,0,0,0-1.569,1.156,8.248,8.248,0,0,1-11.145,0,3.166,3.166,0,1,0-4.045,4.871,15.264,15.264,0,0,0,9.577,3.633,14.29,14.29,0,0,0,7.183-1.981v15.108a3.136,3.136,0,0,0,3.137,3.137h19.484a3.136,3.136,0,0,0,3.137-3.137V96.96a17.866,17.866,0,0,1-6.274-.165Z" transform="translate(0)" fill="#778495"/><path d="M155.047,109.519H135.564a4.142,4.142,0,0,1-4.137-4.137V91.9a15,15,0,0,1-6.183,1.351,16.279,16.279,0,0,1-10.2-3.854l-.031-.026a4.251,4.251,0,0,1-1.442-2.83,4.157,4.157,0,0,1,.911-3.011l.024-.028a4.268,4.268,0,0,1,3.211-1.459,4.18,4.18,0,0,1,2.63.928,7.255,7.255,0,0,0,9.879,0c.379-.316.767-.639,1.2-.936V74.979a15,15,0,0,1-6.183,1.351,16.279,16.279,0,0,1-10.2-3.854l-.031-.026a4.251,4.251,0,0,1-1.442-2.83,4.157,4.157,0,0,1,.911-3.011l.024-.028a4.268,4.268,0,0,1,3.211-1.459,4.18,4.18,0,0,1,2.63.928,7.255,7.255,0,0,0,9.879,0c.379-.316.767-.639,1.2-.936V58.055a15,15,0,0,1-6.183,1.351,16.279,16.279,0,0,1-10.2-3.854l-.031-.026a4.251,4.251,0,0,1-1.442-2.83,4.157,4.157,0,0,1,.911-3.011l.024-.028a4.268,4.268,0,0,1,3.211-1.459,4.18,4.18,0,0,1,2.63.928,7.255,7.255,0,0,0,9.879,0c.379-.316.768-.64,1.2-.937V33.143a4.142,4.142,0,0,1,4.137-4.137h19.484a4.142,4.142,0,0,1,4.137,4.137V46.187l-.292.293a1.991,1.991,0,0,1-.319.251l-.042.028-.008.008-.041.033a4.222,4.222,0,0,1-6.047,0l-.041-.033-.037-.037a5.249,5.249,0,0,0-.963-.758l-.485-.291v-8.4H139.7v63.881h11.209V94.673l1.438,1.186a18.121,18.121,0,0,0,3.246.3,15.445,15.445,0,0,0,2.433-.191l1.158-.185v9.595A4.142,4.142,0,0,1,155.047,109.519ZM133.426,88.55v16.831a2.14,2.14,0,0,0,2.137,2.137h19.484a2.14,2.14,0,0,0,2.137-2.137v-7.29c-.526.048-1.058.072-1.591.072a19.455,19.455,0,0,1-2.684-.19v5.187H137.7V35.28h15.209v9.3a7.373,7.373,0,0,1,.823.7,2.265,2.265,0,0,0,3.452,0V33.143a2.14,2.14,0,0,0-2.137-2.137H135.564a2.14,2.14,0,0,0-2.137,2.137V49.327l-.5.288A10.137,10.137,0,0,0,131.5,50.67l-.009.007a9.243,9.243,0,0,1-12.408,0,2.174,2.174,0,0,0-1.368-.48,2.144,2.144,0,0,0-1.4,3.811,14.3,14.3,0,0,0,8.932,3.4,13.368,13.368,0,0,0,6.686-1.85l1.5-.855v11.55l-.5.288a10.136,10.136,0,0,0-1.425,1.056l-.009.007a9.243,9.243,0,0,1-12.408,0,2.174,2.174,0,0,0-1.368-.48,2.144,2.144,0,0,0-1.4,3.811,14.3,14.3,0,0,0,8.932,3.4,13.368,13.368,0,0,0,6.686-1.85l1.5-.855v11.55l-.5.288A10.136,10.136,0,0,0,131.5,84.52l-.009.007a9.243,9.243,0,0,1-12.408,0,2.174,2.174,0,0,0-1.368-.48,2.144,2.144,0,0,0-1.4,3.811,14.3,14.3,0,0,0,8.932,3.4,13.368,13.368,0,0,0,6.686-1.85Z" transform="translate(0)" fill="#f7f7f7"/><path d="M551.7,270.59a16,16,0,0,0-5.7-3.055v6.77a10.554,10.554,0,0,1,1.734,1.156c5.862,4.871,13.209,4.871,19.071,0a8.249,8.249,0,0,1,11.145,0,3.127,3.127,0,0,0,4.376-.413,3.235,3.235,0,0,0-.413-4.458,14.454,14.454,0,0,0-19.071,0A8.248,8.248,0,0,1,551.7,270.59Z" transform="translate(-401.766 -220.688)" fill="#778495"/><path d="M572.376,266a16.023,16.023,0,0,1,10.168,3.817l.026.022a4.251,4.251,0,0,1,1.442,2.83,4.157,4.157,0,0,1-.911,3.011,4.047,4.047,0,0,1-3.159,1.487,4.17,4.17,0,0,1-2.623-.929,7.255,7.255,0,0,0-9.879,0,15.268,15.268,0,0,1-20.345,0l-.012-.01a9.667,9.667,0,0,0-1.577-1.046l-.5-.288,0-.581v-8.1l1.28.373a17.107,17.107,0,0,1,6.05,3.241,7.255,7.255,0,0,0,9.881,0A16.022,16.022,0,0,1,572.376,266Zm8.889,5.354a13.456,13.456,0,0,0-17.792.012,9.242,9.242,0,0,1-12.409,0A15.308,15.308,0,0,0,547,268.935v4.794a9.574,9.574,0,0,1,1.378.968,13.274,13.274,0,0,0,17.787,0l.008-.006a9.243,9.243,0,0,1,12.408,0,2.163,2.163,0,0,0,1.361.48,2.055,2.055,0,0,0,1.607-.748A2.245,2.245,0,0,0,581.265,271.353Z" transform="translate(-401.766 -220.688)" fill="#f7f7f7"/><path d="M562.841,515.753a8.248,8.248,0,0,1-11.145,0A16,16,0,0,0,546,512.7v6.77a10.555,10.555,0,0,1,1.734,1.156,14.455,14.455,0,0,0,19.071,0,8.248,8.248,0,0,1,11.145,0,3.127,3.127,0,0,0,4.376-.413,3.235,3.235,0,0,0-.413-4.458C576.05,510.881,568.785,510.881,562.841,515.753Z" transform="translate(-401.766 -448.926)" fill="#778495"/><path d="M572.407,511.1a15.835,15.835,0,0,1,10.144,3.884l.019.017a4.251,4.251,0,0,1,1.442,2.83,4.157,4.157,0,0,1-.911,3.011,4.047,4.047,0,0,1-3.159,1.487,4.17,4.17,0,0,1-2.623-.928,7.256,7.256,0,0,0-9.883,0,15.452,15.452,0,0,1-20.335,0l-.018-.015a9.655,9.655,0,0,0-1.575-1.045l-.5-.288,0-.583v-8.1l1.28.373a17.106,17.106,0,0,1,6.05,3.241,7.255,7.255,0,0,0,9.881,0A16.075,16.075,0,0,1,572.407,511.1Zm8.855,5.414a13.86,13.86,0,0,0-8.855-3.414,14.105,14.105,0,0,0-8.933,3.427,9.243,9.243,0,0,1-12.41,0A15.3,15.3,0,0,0,547,514.1v4.794a9.577,9.577,0,0,1,1.375.965,13.456,13.456,0,0,0,17.8-.007,9.243,9.243,0,0,1,12.409,0,2.164,2.164,0,0,0,1.361.48,2.055,2.055,0,0,0,1.607-.748A2.245,2.245,0,0,0,581.262,516.513Z" transform="translate(-401.766 -448.926)" fill="#f7f7f7"/><path d="M581.912,761.39a14.455,14.455,0,0,0-19.071,0,8.248,8.248,0,0,1-11.145,0,16,16,0,0,0-5.7-3.055v6.77a10.552,10.552,0,0,1,1.734,1.156,14.455,14.455,0,0,0,19.071,0,8.248,8.248,0,0,1,11.145,0,3.127,3.127,0,0,0,4.376-.413A3.074,3.074,0,0,0,581.912,761.39Z" transform="translate(-401.766 -677.722)" fill="#778495"/><path d="M572.376,756.8a16.019,16.019,0,0,1,10.156,3.807,3.956,3.956,0,0,1,1.531,2.7,4.214,4.214,0,0,1-.964,3.174,4.047,4.047,0,0,1-3.158,1.485,4.17,4.17,0,0,1-2.623-.928,7.256,7.256,0,0,0-9.883,0,15.452,15.452,0,0,1-20.335,0l-.018-.015a9.662,9.662,0,0,0-1.577-1.046l-.5-.288,0-.581V757l1.28.373a17.109,17.109,0,0,1,6.05,3.241,7.255,7.255,0,0,0,9.881,0A16.022,16.022,0,0,1,572.376,756.8Zm7.565,9.167a2.055,2.055,0,0,0,1.607-.748l0-.005a2.232,2.232,0,0,0,.524-1.678,1.973,1.973,0,0,0-.773-1.35l-.025-.02a13.457,13.457,0,0,0-17.806,0,9.242,9.242,0,0,1-12.409,0A15.307,15.307,0,0,0,547,759.735v4.794a9.58,9.58,0,0,1,1.375.965,13.457,13.457,0,0,0,17.8-.007,9.242,9.242,0,0,1,12.409,0A2.164,2.164,0,0,0,579.941,765.966Z" transform="translate(-401.766 -677.722)" fill="#f7f7f7"/></g></svg>