<svg width="495" height="89" viewBox="0 0 495 89" fill="none" xmlns="http://www.w3.org/2000/svg">
<g clip-path="url(#clip0_313_560)">
<path d="M317.717 86.1108C317.5 86.1108 317.282 86.0405 317.099 85.896C305.439 76.7046 298.752 62.9292 298.752 48.1006C298.752 21.5776 320.329 0 346.852 0C361.259 0 374.787 6.3799 383.969 17.5034C384.32 17.9297 384.26 18.56 383.834 18.9111C383.406 19.2632 382.777 19.2016 382.426 18.7768C373.626 8.1147 360.66 1.9999 346.852 1.9999C321.433 1.9999 300.752 22.6806 300.752 48.1005C300.752 62.3129 307.161 75.516 318.337 84.3256C318.771 84.6674 318.845 85.2963 318.503 85.7299C318.306 85.9799 318.013 86.1108 317.717 86.1108Z" fill="#4498D8"/>
<path d="M319.268 77.1519C319.015 77.1519 318.761 77.0562 318.566 76.8648C310.792 69.2183 306.51 59.0035 306.51 48.1006C306.51 25.856 324.607 7.7583 346.852 7.7583C355.317 7.7583 363.42 10.3516 370.284 15.2583C370.734 15.5796 370.838 16.2041 370.517 16.6533C370.196 17.102 369.571 17.207 369.122 16.8852C362.599 12.2226 354.897 9.7582 346.852 9.7582C325.71 9.7582 308.51 26.9584 308.51 48.1005C308.51 58.4623 312.579 68.1713 319.969 75.4389C320.362 75.8256 320.368 76.4594 319.98 76.853C319.785 77.0523 319.526 77.1519 319.268 77.1519Z" fill="#4498D8"/>
<path d="M321.261 67.7113C320.952 67.7113 320.647 67.5687 320.451 67.3002C316.368 61.6947 314.21 55.0561 314.21 48.1005C314.21 38.3232 318.539 29.142 326.088 22.912C326.516 22.5609 327.144 22.622 327.496 23.0468C327.848 23.4731 327.787 24.1034 327.361 24.455C320.274 30.3036 316.21 38.9218 316.21 48.1005C316.21 54.6298 318.235 60.8617 322.068 66.1225C322.393 66.5688 322.295 67.1948 321.849 67.52C321.671 67.6488 321.465 67.7113 321.261 67.7113Z" fill="#4498D8"/>
<path d="M349.325 22.2214H351.465L373.224 72.8723H370.584L363.094 55.3938H337.696L330.206 72.8723H327.495L349.325 22.2214ZM362.309 53.2546L350.395 25.3601L338.41 53.2546H362.309Z" fill="#58595B"/>
<path d="M396.907 38.0588C393.483 38.2014 390.511 39.2839 387.99 41.3049C385.469 43.3269 383.71 46.0735 382.711 49.5446V72.8722H380.285V35.7761H382.64V45.1926C383.924 42.5779 385.636 40.4377 387.776 38.7722C389.916 37.1081 392.199 36.1326 394.625 35.8474C395.1 35.8005 395.54 35.7761 395.944 35.7761C396.348 35.7761 396.669 35.7761 396.907 35.7761L396.907 38.0588Z" fill="#58595B"/>
<path d="M420.521 38.0588C417.097 38.2014 414.124 39.2839 411.604 41.3049C409.082 43.3269 407.323 46.0735 406.324 49.5446V72.8722H403.898V35.7761H406.253V45.1926C407.537 42.5779 409.249 40.4377 411.39 38.7722C413.529 37.1081 415.813 36.1326 418.238 35.8474C418.713 35.8005 419.153 35.7761 419.558 35.7761C419.961 35.7761 420.282 35.7761 420.52 35.7761L420.521 38.0588Z" fill="#58595B"/>
<path d="M436.002 73.5862C434.29 73.5862 432.695 73.2883 431.222 72.6936C429.747 72.0998 428.463 71.2913 427.369 70.2688C426.275 69.2463 425.419 68.0461 424.802 66.6653C424.183 65.2864 423.874 63.7883 423.874 62.1712C423.874 60.6019 424.254 59.1644 425.016 57.8558C425.775 56.5482 426.835 55.4183 428.19 54.4676C429.546 53.5164 431.162 52.7791 433.041 52.2557C434.919 51.7332 436.976 51.4705 439.212 51.4705C441.305 51.4705 443.409 51.6385 445.525 51.9705C447.642 52.3035 449.557 52.8025 451.269 53.4685V49.4734C451.269 45.7634 450.21 42.803 448.094 40.5916C445.978 38.3802 443.136 37.2742 439.568 37.2742C437.761 37.2742 435.835 37.6663 433.79 38.4514C431.745 39.2361 429.699 40.3664 427.655 41.8401L426.514 40.0564C431.269 36.8225 435.669 35.2053 439.712 35.2053C444.039 35.2053 447.452 36.4895 449.949 39.0578C452.445 41.6257 453.694 45.1462 453.694 49.6159V69.0197C453.694 70.0666 454.122 70.589 454.979 70.589V72.8722C454.836 72.9191 454.704 72.9435 454.586 72.9435C454.467 72.9435 454.359 72.9435 454.265 72.9435C453.455 72.9435 452.777 72.6466 452.231 72.0519C451.685 71.4581 451.411 70.7316 451.411 69.8761V66.5939C449.699 68.8302 447.487 70.5539 444.776 71.7668C442.065 72.9797 439.141 73.5862 436.002 73.5862ZM436.287 71.5169C438.046 71.5169 439.818 71.2796 441.602 70.803C443.386 70.3284 444.99 69.6741 446.417 68.8421C447.844 68.0101 449.009 67.0472 449.913 65.9525C450.816 64.8587 451.269 63.6937 451.269 62.4564V55.4652C447.559 54.0389 443.61 53.326 439.426 53.326C437.476 53.326 435.691 53.5399 434.075 53.9676C432.458 54.3953 431.067 54.991 429.902 55.7503C428.736 56.512 427.833 57.4271 427.191 58.4974C426.549 59.5677 426.229 60.7689 426.229 62.0999C426.229 63.4319 426.489 64.6683 427.013 65.8099C427.536 66.9515 428.249 67.9495 429.153 68.806C430.056 69.6624 431.115 70.3285 432.328 70.8031C433.541 71.2795 434.86 71.5169 436.287 71.5169Z" fill="#58595B"/>
<path d="M466.75 86.4269C468.366 86.4269 469.484 86.2599 470.104 85.9279C470.341 85.7843 470.591 85.5353 470.853 85.1789C471.113 84.8215 471.459 84.1799 471.887 83.2521C472.315 82.3243 472.886 81.0402 473.599 79.3996C474.313 77.759 475.24 75.5832 476.381 72.8723L459.474 35.7761H462.042L477.665 70.3039L492.361 35.7761H494.787L473.599 85.428C472.933 87.0442 471.625 88.0676 469.675 88.4954C469.199 88.5901 468.724 88.6497 468.248 88.6741C467.772 88.6975 467.273 88.7102 466.75 88.7102V86.4269Z" fill="#58595B"/>
<path d="M279.597 69.1936C279.5 69.1604 279.346 69.1439 279.143 69.1443L278.962 69.1446L278.964 70.0051L279.259 70.0045C279.454 70.0041 279.582 69.9677 279.688 69.8923C279.79 69.8281 279.838 69.7054 279.837 69.5411C279.837 69.377 279.756 69.2629 279.597 69.1936ZM278.201 71.5913L278.195 68.6309C278.379 68.6306 278.652 68.63 279.017 68.6377L279.618 68.6366C279.869 68.6417 280.047 68.6915 280.215 68.7803C280.474 68.9246 280.602 69.1583 280.603 69.4869C280.603 69.7348 280.54 69.9131 280.395 70.0276C280.259 70.1365 280.089 70.1953 279.88 70.2207C280.075 70.2621 280.217 70.3231 280.315 70.3953C280.494 70.5342 280.583 70.7596 280.584 71.0632L280.584 71.325C280.584 71.3528 280.59 71.3863 280.59 71.3974C280.59 71.4531 280.59 71.467 280.607 71.5032L280.624 71.5867L279.883 71.5881C279.858 71.4879 279.841 71.3515 279.84 71.1816C279.823 70.995 279.809 70.8725 279.792 70.8169C279.745 70.7084 279.672 70.6389 279.566 70.5945C279.502 70.5751 279.413 70.5558 279.302 70.5476L279.115 70.5368L278.965 70.5371L278.967 71.5898L278.201 71.5913ZM277.8 68.5676C277.383 69 277.166 69.5184 277.168 70.1061C277.169 70.7271 277.387 71.2475 277.822 71.6811C278.249 72.112 278.765 72.3254 279.369 72.3243C279.979 72.3232 280.488 72.105 280.922 71.6697C281.347 71.24 281.563 70.7105 281.562 70.0978C281.561 69.5102 281.351 68.9954 280.924 68.5617C280.481 68.1197 279.971 67.9007 279.361 67.9018C278.756 67.903 278.233 68.124 277.8 68.5676ZM281.234 72.0117C280.723 72.5139 280.094 72.7686 279.37 72.7699C278.623 72.7713 277.994 72.5135 277.475 71.9965C276.967 71.4878 276.709 70.8561 276.708 70.107C276.707 69.33 276.987 68.675 277.534 68.156C278.046 67.676 278.658 67.4298 279.36 67.4285C280.092 67.4271 280.73 67.6905 281.244 68.2103C281.76 68.7245 282.02 69.3562 282.021 70.097C282.023 70.8572 281.76 71.4899 281.234 72.0117Z" fill="#221F20"/>
<path d="M23.2031 27.8806L21.4898 37.929L36.1495 37.9015L34.221 49.0448L19.5501 49.0724L15.6734 71.2671L0 71.2965L9.4464 16.4298L44.0627 16.3648L42.1515 27.845L23.2031 27.8806ZM47.8478 55.1209C47.0027 60.3888 49.4059 63.2304 54.9088 63.2201C57.7661 63.2147 60.1204 62.3108 62.2574 59.856L74.6697 59.8327C70.3079 68.3655 61.3424 72.3843 53.4946 72.399C41.021 72.4224 32.8067 65.6065 34.8411 53.0176C36.8067 40.8745 46.5708 33.5429 58.8243 33.5199C71.8911 33.4954 78.4419 41.2947 76.4267 53.7332L76.212 55.0676L47.8478 55.1209ZM64.7725 48.138C64.6312 44.1001 61.728 41.8916 58.1271 41.8984C54.2394 41.9057 50.6145 43.9344 48.9821 48.1677L64.7725 48.138ZM220.367 54.7969C219.516 60.0648 221.925 62.9064 227.422 62.8961C230.296 62.8907 232.645 61.9868 234.782 59.532L247.189 59.5087C242.816 68.0415 233.856 72.0603 226.019 72.075C213.557 72.0984 205.331 65.2825 207.36 52.6936C209.323 40.5505 219.095 33.2189 231.349 33.1959C244.407 33.1714 250.958 40.9708 248.949 53.4092L248.723 54.7436L220.367 54.7969ZM237.292 47.814C237.153 43.7761 234.247 41.5676 230.657 41.5743C226.764 41.5816 223.134 43.6103 221.507 47.8436L237.292 47.814ZM75.7354 71.1542L84.5138 14.9799L96.8286 14.9568L88.0419 71.1311L75.7354 71.1542ZM91.257 79.2431L100.041 23.0604L112.35 23.0373L103.569 79.22L91.257 79.2431ZM152.723 52.7963C150.819 65.1733 139.726 72.2371 128.264 72.2587C116.862 72.2801 107.846 65.3236 109.755 52.877C111.659 40.4499 122.738 33.4 134.209 33.3784C145.674 33.3569 154.61 40.3692 152.723 52.7963ZM123.095 52.8519C122.085 58.2259 124.318 61.9813 129.464 61.9717C134.605 61.962 138.231 58.8946 139.356 52.8214C140.296 47.7455 138.197 43.6166 133.047 43.6263C127.909 43.636 124.195 47.0433 123.095 52.8519ZM275.429 43.6931C273.617 42.6271 270.953 41.9247 268.75 41.9289C267.257 41.9317 264.607 42.5744 264.318 44.4214C263.928 46.9063 267.916 47.2553 269.638 47.6057C275.48 48.809 279.579 51.6391 278.525 58.3889C277.017 67.9997 267.67 71.9969 259.227 72.0127C254.047 72.0224 249.672 70.8192 245.69 68.1197L249.941 60.1162C252.284 61.9638 257.73 62.4799 260.924 62.4739C262.562 62.4708 265.108 61.6863 265.411 59.6917C265.848 56.8447 261.827 56.713 257.945 55.6537C254.061 54.5944 250.334 52.6129 251.352 46.0776C252.756 37.1298 261.465 33.1394 269.416 33.1244C273.54 33.1167 277.554 33.7469 281.058 35.4474L275.429 43.6931ZM169.483 54.4302L177.316 34.4978L187.887 34.4779L190.531 54.4185L199.289 34.4565L213.163 34.4304L194.339 70.9231L182.606 70.9451L180.112 50.9569L179.928 50.9572L172.113 70.9648L160.193 70.9872L151.94 34.5454L165.859 34.5193L169.483 54.4302Z" fill="#221F20"/>
</g>
<defs>
<clipPath id="clip0_313_560">
<rect width="494.787" height="88.7103" fill="white"/>
</clipPath>
</defs>
</svg>
