<svg width="64" height="64" viewBox="0 0 64 64" fill="none" xmlns="http://www.w3.org/2000/svg">
<path d="M48.0492 47.0347C47.369 47.0213 47.1275 46.5176 47.1275 46.089C47.1275 45.6621 47.3701 45.1602 48.0533 45.1489C53.3332 45.1469 57.6278 40.8507 57.6278 35.5702C57.6278 31.3443 54.9109 27.6697 50.8644 26.4194C50.7452 26.3717 50.6339 26.3231 50.5627 26.261L50.5442 26.2448L50.5243 26.2305C50.3478 26.103 50.2441 25.8622 50.124 25.5834C50.0932 25.5119 50.0625 25.4407 50.0304 25.3708C48.7032 22.2077 45.65 20.1644 42.2492 20.1644C40.8013 20.1658 39.3705 20.5364 38.1111 21.2363C36.8336 21.9462 35.7597 22.9813 35.0055 24.2295C34.8347 24.5106 34.5332 24.6792 34.2 24.6792C34.0331 24.6792 33.8691 24.6345 33.7247 24.5499C33.3769 24.3037 33.2445 24.0262 33.2958 23.6521C33.5186 22.0252 36.8828 19.566 38.0821 19.149L38.6996 18.9343L38.3653 18.3726C37.2756 16.5412 35.7235 15.0147 33.8766 13.9581C32.0144 12.8927 29.893 12.3295 27.7417 12.3295L27.7105 12.3295C25.9972 12.3295 24.3329 12.6811 22.7637 13.3745C21.2513 14.0428 19.9035 14.9931 18.7574 16.1988C17.6253 17.3901 16.7559 18.7624 16.1734 20.2776C15.5686 21.8509 15.3043 23.5026 15.388 25.1872C15.3822 25.6483 15.0358 26.0439 14.5777 26.11L14.5609 26.1127C11.8522 26.5922 9.65166 27.9044 8.19705 29.9074C6.8946 31.7008 6.26858 33.9584 6.43431 36.2642C6.59999 38.5697 7.54215 40.7144 9.08726 42.3032C10.8127 44.0775 13.1769 45.0614 15.9245 45.1486L15.9317 45.1487C16.6196 45.1612 16.8649 45.6652 16.8659 46.0931C16.8669 46.5151 16.6251 47.0131 15.9412 47.0345C12.7907 46.9507 10.0455 45.8626 8.00158 43.8875C6.16064 42.1086 4.96317 39.668 4.62973 37.0153C4.2958 34.3585 4.85265 31.6904 6.19772 29.5023C7.6909 27.0733 10.0791 25.3371 13.1041 24.4812L13.4694 24.3778L13.4913 23.9988C13.7238 19.985 15.3713 16.5425 18.2557 14.0435C19.5736 12.9017 21.0917 12.0119 22.7679 11.3988C24.4229 10.7935 26.1518 10.4866 27.9063 10.4866C30.3938 10.4866 32.8132 11.1221 34.9028 12.3244C37.1971 13.6445 39.0367 15.5814 40.3704 18.0814L40.5461 18.4107L40.9156 18.3585C41.3481 18.2974 41.7917 18.2664 42.234 18.2664C46.3005 18.2664 50.214 20.8453 51.7507 24.5377L51.8757 24.8381L52.123 24.8581C54.8675 25.939 56.9755 27.7845 58.222 30.1989C59.3587 32.4006 59.734 35.0157 59.2786 37.5623C58.822 40.1159 57.5585 42.4465 55.7207 44.1248C53.6898 45.9797 51.0373 46.9858 48.0492 47.0347Z" fill="#778495" stroke="#778495" stroke-width="0.5"/>
<path d="M42.8047 41.2217C41.3424 41.2217 39.3788 40.2801 39.0417 40.0371L39.019 40.0207L38.9946 40.0068C38.1122 39.5022 37.3501 39.0665 35.7274 39.0665C34.1129 39.0665 33.3487 39.5012 32.4639 40.0047L32.44 40.0182L32.415 40.0357C31.4033 40.7579 29.8893 41.1721 28.2613 41.1721C26.6346 41.1721 25.1204 40.7578 24.107 40.0354L24.0853 40.02L24.0622 40.0068C23.1797 39.5022 22.4177 39.0665 20.7974 39.0665C20.2843 39.0665 19.8655 38.655 19.8535 38.1447C19.8899 37.7849 20.0142 37.5346 20.2329 37.3799C20.4489 37.2271 20.77 37.1497 21.1871 37.1497C22.6492 37.1497 24.6113 38.0917 24.948 38.3348L24.9709 38.3513L24.9954 38.3653C25.8778 38.8699 26.6398 39.3056 28.2602 39.3056C29.8746 39.3056 30.6387 38.8709 31.5235 38.3675L31.5473 38.354L31.5726 38.3364C32.5843 37.6142 34.0986 37.2 35.7272 37.2C37.3544 37.2 38.8682 37.6142 39.8803 38.3365L39.9022 38.352L39.9254 38.3653C40.8078 38.8699 41.5699 39.3056 43.1927 39.3056C43.7059 39.3056 44.1247 39.7172 44.1365 40.2276C44.1005 40.5871 43.9766 40.8372 43.7582 40.9917C43.5425 41.1443 43.2216 41.2217 42.8047 41.2217Z" fill="#778495" stroke="#778495" stroke-width="0.5"/>
<path d="M42.8047 47.3674C41.3424 47.3674 39.3788 46.4257 39.0417 46.1827L39.019 46.1663L38.9946 46.1524C38.1123 45.6478 37.3502 45.2121 35.7274 45.2121C34.113 45.2121 33.3488 45.6468 32.464 46.1502L32.4402 46.1637L32.415 46.1813C31.4033 46.9035 29.8893 47.3177 28.2613 47.3177C26.6346 47.3177 25.1204 46.9034 24.107 46.1811L24.0853 46.1657L24.0622 46.1524C23.1798 45.6478 22.4178 45.2121 20.7974 45.2121C20.2843 45.2121 19.8655 44.8006 19.8535 44.2903C19.8899 43.9305 20.0142 43.6802 20.2329 43.5255C20.4489 43.3727 20.77 43.2953 21.1871 43.2953C22.6492 43.2953 24.6113 44.2373 24.948 44.4804L24.9709 44.4969L24.9954 44.5109C25.8778 45.0155 26.6399 45.4512 28.2602 45.4512C29.8747 45.4512 30.6388 45.0165 31.5236 44.5131L31.5475 44.4995L31.5726 44.482C32.5843 43.7598 34.0986 43.3456 35.7272 43.3456C37.3544 43.3456 38.8682 43.7598 39.8803 44.4821L39.9022 44.4976L39.9254 44.511C40.8078 45.0155 41.57 45.4512 43.1927 45.4512C43.7059 45.4512 44.1247 45.8628 44.1365 46.3732C44.1005 46.7327 43.9766 46.9828 43.7582 47.1374C43.5425 47.29 43.2216 47.3674 42.8047 47.3674Z" fill="#778495" stroke="#778495" stroke-width="0.5"/>
<path d="M42.8047 53.5146C41.3424 53.5146 39.3788 52.5729 39.0417 52.33L39.019 52.3135L38.9946 52.2996C38.1122 51.7951 37.3501 51.3593 35.7274 51.3593C34.1129 51.3593 33.3487 51.7941 32.4639 52.2975L32.4401 52.311L32.415 52.3285C31.4033 53.0507 29.8893 53.4649 28.2613 53.4649C26.6346 53.4649 25.1204 53.0506 24.107 52.3283L24.0853 52.3128L24.0622 52.2996C23.1797 51.7951 22.4177 51.3593 20.7974 51.3593C20.2843 51.3593 19.8655 50.9479 19.8535 50.4376C19.8899 50.0778 20.0142 49.8274 20.2329 49.6727C20.4489 49.52 20.77 49.4425 21.1871 49.4425C22.6492 49.4425 24.6113 50.3845 24.948 50.6276L24.9709 50.6441L24.9954 50.6581C25.8778 51.1627 26.6399 51.5984 28.2602 51.5984C29.8747 51.5984 30.6388 51.1637 31.5236 50.6603L31.5475 50.6467L31.5726 50.6293C32.5843 49.907 34.0986 49.4929 35.7273 49.4929C37.3545 49.4929 38.8682 49.9071 39.8803 50.6293L39.9022 50.6448L39.9254 50.6582C40.8078 51.1627 41.57 51.5984 43.1927 51.5984C43.7059 51.5984 44.1247 52.01 44.1365 52.5204C44.1005 52.88 43.9766 53.1301 43.7582 53.2846C43.5425 53.4372 43.2216 53.5146 42.8047 53.5146Z" fill="#778495" stroke="#778495" stroke-width="0.5"/>
</svg>
