<svg width="67" height="70" viewBox="0 0 67 70" fill="none" xmlns="http://www.w3.org/2000/svg">
<g clip-path="url(#clip0_313_620)">
<path d="M39.338 31.7221C39.8336 31.7226 40.2356 31.3209 40.2361 30.825V29.0271C40.2324 28.5326 39.8307 28.1336 39.3365 28.1337C38.8747 28.1034 38.4754 28.4527 38.4436 28.9146C38.4407 28.9533 38.4407 28.9921 38.4436 29.0308V30.828C38.4432 31.3239 38.8446 31.7262 39.3402 31.7266H39.3417" fill="#AEBED3"/>
<path d="M39.338 31.7221C39.8336 31.7226 40.2356 31.3209 40.2361 30.825V29.0271C40.2324 28.5326 39.8307 28.1336 39.3365 28.1337C38.8747 28.1034 38.4754 28.4527 38.4436 28.9146C38.4407 28.9533 38.4407 28.9921 38.4436 29.0308V30.828C38.4432 31.3239 38.8446 31.7262 39.3402 31.7266H39.3417" stroke="#AEBED3" stroke-width="0.5"/>
<path d="M34.9361 31.7221C35.4317 31.7225 35.8338 31.3208 35.8342 30.825V29.027C35.7983 28.5467 35.4149 28.166 34.9346 28.1336C34.4712 28.1039 34.0715 28.4556 34.0418 28.9193C34.0395 28.9552 34.0395 28.9911 34.0418 29.027V30.8242C34.0418 31.3205 34.4438 31.7228 34.9399 31.7228" fill="#AEBED3"/>
<path d="M34.9361 31.7221C35.4317 31.7225 35.8338 31.3208 35.8342 30.825V29.027C35.7983 28.5467 35.4149 28.166 34.9346 28.1336C34.4712 28.1039 34.0715 28.4556 34.0418 28.9193C34.0395 28.9552 34.0395 28.9911 34.0418 29.027V30.8242C34.0418 31.3205 34.4438 31.7228 34.9399 31.7228" stroke="#AEBED3" stroke-width="0.5"/>
<path d="M30.4454 31.7221C30.941 31.7226 31.3431 31.3209 31.3435 30.825V29.0271C31.3075 28.5468 30.9241 28.166 30.4439 28.1337C29.9821 28.1034 29.5828 28.4527 29.551 28.9146C29.5481 28.9533 29.5481 28.9921 29.551 29.0308V30.828C29.5506 31.3239 29.952 31.7262 30.4476 31.7266H30.4491" fill="#AEBED3"/>
<path d="M30.4454 31.7221C30.941 31.7226 31.3431 31.3209 31.3435 30.825V29.0271C31.3075 28.5468 30.9241 28.166 30.4439 28.1337C29.9821 28.1034 29.5828 28.4527 29.551 28.9146C29.5481 28.9533 29.5481 28.9921 29.551 29.0308V30.828C29.5506 31.3239 29.952 31.7262 30.4476 31.7266H30.4491" stroke="#AEBED3" stroke-width="0.5"/>
<path d="M39.338 39.1813C39.8336 39.1817 40.2356 38.78 40.2361 38.2841V36.4854C40.2663 36.0233 39.9172 35.6239 39.4555 35.592C39.4159 35.5891 39.3761 35.5891 39.3365 35.592C38.8747 35.5618 38.4754 35.911 38.4436 36.373C38.4407 36.4117 38.4407 36.4505 38.4436 36.4891V38.2864C38.4436 38.7827 38.8457 39.185 39.3417 39.185" fill="#AEBED3"/>
<path d="M39.338 39.1813C39.8336 39.1817 40.2356 38.78 40.2361 38.2841V36.4854C40.2663 36.0233 39.9172 35.6239 39.4555 35.592C39.4159 35.5891 39.3761 35.5891 39.3365 35.592C38.8747 35.5618 38.4754 35.911 38.4436 36.373C38.4407 36.4117 38.4407 36.4505 38.4436 36.4891V38.2864C38.4436 38.7827 38.8457 39.185 39.3417 39.185" stroke="#AEBED3" stroke-width="0.5"/>
<path d="M34.9361 39.1813C35.4317 39.1817 35.8338 38.7801 35.8342 38.2842V36.4855C35.8306 35.991 35.4289 35.5921 34.9346 35.5921C34.4712 35.5624 34.0715 35.9141 34.0418 36.3778C34.0395 36.4137 34.0395 36.4496 34.0418 36.4855V38.2827C34.0418 38.779 34.4438 39.1813 34.9399 39.1813" fill="#AEBED3"/>
<path d="M34.9361 39.1813C35.4317 39.1817 35.8338 38.7801 35.8342 38.2842V36.4855C35.8306 35.991 35.4289 35.5921 34.9346 35.5921C34.4712 35.5624 34.0715 35.9141 34.0418 36.3778C34.0395 36.4137 34.0395 36.4496 34.0418 36.4855V38.2827C34.0418 38.779 34.4438 39.1813 34.9399 39.1813" stroke="#AEBED3" stroke-width="0.5"/>
<path d="M30.4454 39.1814C30.941 39.1818 31.3431 38.7801 31.3435 38.2843V36.4856C31.3398 35.9911 30.9381 35.5921 30.4439 35.5922C29.9821 35.5619 29.5828 35.9112 29.551 36.3731C29.5481 36.4118 29.5481 36.4506 29.551 36.4893V38.2865C29.5506 38.7824 29.952 39.1847 30.4476 39.1851H30.4491" fill="#AEBED3"/>
<path d="M30.4454 39.1814C30.941 39.1818 31.3431 38.7801 31.3435 38.2843V36.4856C31.3398 35.9911 30.9381 35.5921 30.4439 35.5922C29.9821 35.5619 29.5828 35.9112 29.551 36.3731C29.5481 36.4118 29.5481 36.4506 29.551 36.4893V38.2865C29.5506 38.7824 29.952 39.1847 30.4476 39.1851H30.4491" stroke="#AEBED3" stroke-width="0.5"/>
<path d="M39.338 46.5484C39.834 46.5484 40.2361 46.1461 40.2361 45.6498V43.8533C40.2333 43.355 39.8273 42.9533 39.3292 42.9561C38.8799 42.9586 38.501 43.2917 38.4407 43.7372C38.4377 43.7758 38.4377 43.8147 38.4407 43.8533V45.6498C38.4407 46.1461 38.8427 46.5484 39.3388 46.5484" fill="#AEBED3"/>
<path d="M39.338 46.5484C39.834 46.5484 40.2361 46.1461 40.2361 45.6498V43.8533C40.2333 43.355 39.8273 42.9533 39.3292 42.9561C38.8799 42.9586 38.501 43.2917 38.4407 43.7372C38.4377 43.7758 38.4377 43.8147 38.4407 43.8533V45.6498C38.4407 46.1461 38.8427 46.5484 39.3388 46.5484" stroke="#AEBED3" stroke-width="0.5"/>
<path d="M34.9361 46.5482C35.4321 46.5482 35.8342 46.1459 35.8342 45.6496V43.8532C35.8306 43.3587 35.4289 42.9598 34.9346 42.9598C34.4712 42.93 34.0715 43.2818 34.0418 43.7455C34.0395 43.7813 34.0395 43.8173 34.0418 43.8532V45.6496C34.0418 46.1459 34.4438 46.5482 34.9399 46.5482" fill="#AEBED3"/>
<path d="M34.9361 46.5482C35.4321 46.5482 35.8342 46.1459 35.8342 45.6496V43.8532C35.8306 43.3587 35.4289 42.9598 34.9346 42.9598C34.4712 42.93 34.0715 43.2818 34.0418 43.7455C34.0395 43.7813 34.0395 43.8173 34.0418 43.8532V45.6496C34.0418 46.1459 34.4438 46.5482 34.9399 46.5482" stroke="#AEBED3" stroke-width="0.5"/>
<path d="M30.4454 46.5483C30.9414 46.5483 31.3435 46.146 31.3435 45.6497V43.8532C31.3398 43.3587 30.9381 42.9598 30.4439 42.9598C29.9821 42.9296 29.5828 43.2788 29.551 43.7408C29.5481 43.7795 29.5481 43.8183 29.551 43.857V45.6534C29.551 46.1497 29.9531 46.552 30.4491 46.552" fill="#AEBED3"/>
<path d="M30.4454 46.5483C30.9414 46.5483 31.3435 46.146 31.3435 45.6497V43.8532C31.3398 43.3587 30.9381 42.9598 30.4439 42.9598C29.9821 42.9296 29.5828 43.2788 29.551 43.7408C29.5481 43.7795 29.5481 43.8183 29.551 43.857V45.6534C29.551 46.1497 29.9531 46.552 30.4491 46.552" stroke="#AEBED3" stroke-width="0.5"/>
<path d="M39.338 53.9148C39.8336 53.9152 40.2356 53.5135 40.2361 53.0177V51.2189C40.2324 50.7245 39.8307 50.3255 39.3365 50.3256C38.8747 50.2953 38.4754 50.6446 38.4436 51.1065C38.4407 51.1452 38.4407 51.184 38.4436 51.2227V53.0199C38.4436 53.5162 38.8457 53.9185 39.3417 53.9185" fill="#AEBED3"/>
<path d="M39.338 53.9148C39.8336 53.9152 40.2356 53.5135 40.2361 53.0177V51.2189C40.2324 50.7245 39.8307 50.3255 39.3365 50.3256C38.8747 50.2953 38.4754 50.6446 38.4436 51.1065C38.4407 51.1452 38.4407 51.184 38.4436 51.2227V53.0199C38.4436 53.5162 38.8457 53.9185 39.3417 53.9185" stroke="#AEBED3" stroke-width="0.5"/>
<path d="M34.9361 53.9152C35.4317 53.9156 35.8338 53.514 35.8342 53.0181V51.2194C35.7983 50.7391 35.4149 50.3583 34.9346 50.326C34.4712 50.2962 34.0715 50.648 34.0418 51.1117C34.0395 51.1476 34.0395 51.1835 34.0418 51.2194V53.0166C34.0418 53.5129 34.4438 53.9152 34.9399 53.9152" fill="#AEBED3"/>
<path d="M34.9361 53.9152C35.4317 53.9156 35.8338 53.514 35.8342 53.0181V51.2194C35.7983 50.7391 35.4149 50.3583 34.9346 50.326C34.4712 50.2962 34.0715 50.648 34.0418 51.1117C34.0395 51.1476 34.0395 51.1835 34.0418 51.2194V53.0166C34.0418 53.5129 34.4438 53.9152 34.9399 53.9152" stroke="#AEBED3" stroke-width="0.5"/>
<path d="M30.4454 53.9148C30.941 53.9152 31.3431 53.5135 31.3435 53.0177V51.2189C31.3075 50.7387 30.9241 50.3579 30.4439 50.3256C29.9821 50.2953 29.5828 50.6446 29.551 51.1065C29.5481 51.1452 29.5481 51.184 29.551 51.2227V53.0199C29.5506 53.5158 29.952 53.9181 30.4476 53.9185H30.4491" fill="#AEBED3"/>
<path d="M30.4454 53.9148C30.941 53.9152 31.3431 53.5135 31.3435 53.0177V51.2189C31.3075 50.7387 30.9241 50.3579 30.4439 50.3256C29.9821 50.2953 29.5828 50.6446 29.551 51.1065C29.5481 51.1452 29.5481 51.184 29.551 51.2227V53.0199C29.5506 53.5158 29.952 53.9181 30.4476 53.9185H30.4491" stroke="#AEBED3" stroke-width="0.5"/>
<path d="M39.338 61.368C39.834 61.368 40.2361 60.9657 40.2361 60.4694V58.6722C40.2333 58.1738 39.8273 57.7721 39.3292 57.7749C38.8799 57.7775 38.501 58.1105 38.4407 58.556C38.4377 58.5947 38.4377 58.6335 38.4407 58.6722V60.4746C38.4407 60.9709 38.8427 61.3732 39.3388 61.3732" fill="#AEBED3"/>
<path d="M39.338 61.368C39.834 61.368 40.2361 60.9657 40.2361 60.4694V58.6722C40.2333 58.1738 39.8273 57.7721 39.3292 57.7749C38.8799 57.7775 38.501 58.1105 38.4407 58.556C38.4377 58.5947 38.4377 58.6335 38.4407 58.6722V60.4746C38.4407 60.9709 38.8427 61.3732 39.3388 61.3732" stroke="#AEBED3" stroke-width="0.5"/>
<path d="M34.9361 61.3713C35.4321 61.3713 35.8342 60.9689 35.8342 60.4726V58.6754C35.8306 58.1809 35.4289 57.782 34.9346 57.782C34.4712 57.7523 34.0715 58.1041 34.0418 58.5678C34.0395 58.6036 34.0395 58.6396 34.0418 58.6754V60.4741C34.0418 60.9704 34.4438 61.3727 34.9399 61.3727" fill="#AEBED3"/>
<path d="M34.9361 61.3713C35.4321 61.3713 35.8342 60.9689 35.8342 60.4726V58.6754C35.8306 58.1809 35.4289 57.782 34.9346 57.782C34.4712 57.7523 34.0715 58.1041 34.0418 58.5678C34.0395 58.6036 34.0395 58.6396 34.0418 58.6754V60.4741C34.0418 60.9704 34.4438 61.3727 34.9399 61.3727" stroke="#AEBED3" stroke-width="0.5"/>
<path d="M30.4454 61.3713C30.9414 61.3713 31.3435 60.969 31.3435 60.4727V58.6755C31.3402 58.1808 30.9383 57.7817 30.4439 57.7821C29.9821 57.7519 29.5828 58.1011 29.551 58.5631C29.5481 58.6017 29.5481 58.6406 29.551 58.6792V60.4742C29.551 60.9705 29.9531 61.3728 30.4491 61.3728" fill="#AEBED3"/>
<path d="M30.4454 61.3713C30.9414 61.3713 31.3435 60.969 31.3435 60.4727V58.6755C31.3402 58.1808 30.9383 57.7817 30.4439 57.7821C29.9821 57.7519 29.5828 58.1011 29.551 58.5631C29.5481 58.6017 29.5481 58.6406 29.551 58.6792V60.4742C29.551 60.9705 29.9531 61.3728 30.4491 61.3728" stroke="#AEBED3" stroke-width="0.5"/>
<path d="M19.5826 5.40221C19.1208 5.372 18.7215 5.72121 18.6897 6.18319C18.6868 6.22185 18.6868 6.26068 18.6897 6.29933V8.1859C18.6754 8.68198 19.0658 9.0957 19.5616 9.10997C20.0574 9.12424 20.4709 8.73365 20.4851 8.23757C20.4856 8.22035 20.4856 8.20312 20.4851 8.1859V6.29933C20.4819 5.80467 20.0799 5.40551 19.5856 5.40593" fill="#AEBED3"/>
<path d="M19.5826 5.40221C19.1208 5.372 18.7215 5.72121 18.6897 6.18319C18.6868 6.22185 18.6868 6.26068 18.6897 6.29933V8.1859C18.6754 8.68198 19.0658 9.0957 19.5616 9.10997C20.0574 9.12424 20.4709 8.73365 20.4851 8.23757C20.4856 8.22035 20.4856 8.20312 20.4851 8.1859V6.29933C20.4819 5.80467 20.0799 5.40551 19.5856 5.40593" stroke="#AEBED3" stroke-width="0.5"/>
<path d="M15.0939 5.4022C14.6309 5.37202 14.2312 5.72309 14.201 6.18632C14.1986 6.22271 14.1986 6.25921 14.201 6.2956V8.18216C14.201 8.67845 14.6031 9.08077 15.0991 9.08077C15.5951 9.08077 15.9972 8.67845 15.9972 8.18216V6.29932C15.9935 5.80483 15.5918 5.40591 15.0976 5.40592" fill="#AEBED3"/>
<path d="M15.0939 5.4022C14.6309 5.37202 14.2312 5.72309 14.201 6.18632C14.1986 6.22271 14.1986 6.25921 14.201 6.2956V8.18216C14.201 8.67845 14.6031 9.08077 15.0991 9.08077C15.5951 9.08077 15.9972 8.67845 15.9972 8.18216V6.29932C15.9935 5.80483 15.5918 5.40591 15.0976 5.40592" stroke="#AEBED3" stroke-width="0.5"/>
<path d="M19.7022 13.2171C19.2167 13.1883 18.7838 13.5212 18.6866 13.998C18.6839 14.0367 18.6839 14.0755 18.6866 14.1142V16.0007C18.6866 16.497 19.0887 16.8993 19.5847 16.8993C20.0807 16.8993 20.4828 16.497 20.4828 16.0007V14.1142C20.5126 13.6522 20.1638 13.253 19.7022 13.2208" fill="#AEBED3"/>
<path d="M19.7022 13.2171C19.2167 13.1883 18.7838 13.5212 18.6866 13.998C18.6839 14.0367 18.6839 14.0755 18.6866 14.1142V16.0007C18.6866 16.497 19.0887 16.8993 19.5847 16.8993C20.0807 16.8993 20.4828 16.497 20.4828 16.0007V14.1142C20.5126 13.6522 20.1638 13.253 19.7022 13.2208" stroke="#AEBED3" stroke-width="0.5"/>
<path d="M24.2482 5.40332C23.7527 5.40291 23.3506 5.80456 23.3501 6.30044V8.18849C23.3216 8.68478 23.7005 9.11027 24.1965 9.13885C24.6925 9.16742 25.1178 8.78827 25.1463 8.29198C25.1483 8.25751 25.1483 8.22296 25.1463 8.18849V6.30193C25.1463 5.80564 24.7443 5.40332 24.2482 5.40332Z" fill="#AEBED3" stroke="#AEBED3" stroke-width="0.5"/>
<path d="M24.2477 13.2212C23.7536 13.2208 23.3521 13.6202 23.3496 14.1146V16.0012C23.3529 16.4958 23.7548 16.895 24.2492 16.8946C24.7126 16.9243 25.1124 16.5725 25.1421 16.1088C25.1444 16.073 25.1444 16.037 25.1421 16.0012V14.1146C25.1392 13.6218 24.7402 13.2232 24.2477 13.2212Z" fill="#AEBED3" stroke="#AEBED3" stroke-width="0.5"/>
<path d="M15.2138 13.2171C14.7282 13.1883 14.2954 13.5212 14.1981 13.998C14.1957 14.0367 14.1957 14.0755 14.1981 14.1142V16.0007C14.1981 16.497 14.6002 16.8993 15.0962 16.8993C15.5922 16.8993 15.9943 16.497 15.9943 16.0007V14.1142C16.0241 13.6522 15.6753 13.253 15.2138 13.2208" fill="#AEBED3"/>
<path d="M15.2138 13.2171C14.7282 13.1883 14.2954 13.5212 14.1981 13.998C14.1957 14.0367 14.1957 14.0755 14.1981 14.1142V16.0007C14.1981 16.497 14.6002 16.8993 15.0962 16.8993C15.5922 16.8993 15.9943 16.497 15.9943 16.0007V14.1142C16.0241 13.6522 15.6753 13.253 15.2138 13.2208" stroke="#AEBED3" stroke-width="0.5"/>
<path d="M19.5826 20.9427C19.1208 20.9125 18.7215 21.2617 18.6897 21.7237C18.6868 21.7624 18.6868 21.8012 18.6897 21.8399V23.7257C18.6754 24.2218 19.0658 24.6355 19.5616 24.6498C20.0574 24.664 20.4709 24.2734 20.4851 23.7774C20.4856 23.7601 20.4856 23.7429 20.4851 23.7257V21.8399C20.4819 21.3452 20.0799 20.946 19.5856 20.9465" fill="#AEBED3"/>
<path d="M19.5826 20.9427C19.1208 20.9125 18.7215 21.2617 18.6897 21.7237C18.6868 21.7624 18.6868 21.8012 18.6897 21.8399V23.7257C18.6754 24.2218 19.0658 24.6355 19.5616 24.6498C20.0574 24.664 20.4709 24.2734 20.4851 23.7774C20.4856 23.7601 20.4856 23.7429 20.4851 23.7257V21.8399C20.4819 21.3452 20.0799 20.946 19.5856 20.9465" stroke="#AEBED3" stroke-width="0.5"/>
<path d="M15.0939 20.9427C14.6309 20.9125 14.2312 21.2636 14.201 21.7268C14.1986 21.7632 14.1986 21.7997 14.201 21.8361V23.7257C14.201 24.222 14.6031 24.6243 15.0991 24.6243C15.5951 24.6243 15.9972 24.222 15.9972 23.7257V21.8398C15.9935 21.3454 15.5918 20.9464 15.0976 20.9465" fill="#AEBED3"/>
<path d="M15.0939 20.9427C14.6309 20.9125 14.2312 21.2636 14.201 21.7268C14.1986 21.7632 14.1986 21.7997 14.201 21.8361V23.7257C14.201 24.222 14.6031 24.6243 15.0991 24.6243C15.5951 24.6243 15.9972 24.222 15.9972 23.7257V21.8398C15.9935 21.3454 15.5918 20.9464 15.0976 20.9465" stroke="#AEBED3" stroke-width="0.5"/>
<path d="M19.7022 28.7605C19.2167 28.7318 18.7838 29.0646 18.6866 29.5415C18.6839 29.5802 18.6839 29.619 18.6866 29.6576V31.5442C18.6866 32.0405 19.0887 32.4428 19.5847 32.4428C20.0807 32.4428 20.4828 32.0405 20.4828 31.5442V29.6576C20.5126 29.1957 20.1638 28.7965 19.7022 28.7642" fill="#AEBED3"/>
<path d="M19.7022 28.7605C19.2167 28.7318 18.7838 29.0646 18.6866 29.5415C18.6839 29.5802 18.6839 29.619 18.6866 29.6576V31.5442C18.6866 32.0405 19.0887 32.4428 19.5847 32.4428C20.0807 32.4428 20.4828 32.0405 20.4828 31.5442V29.6576C20.5126 29.1957 20.1638 28.7965 19.7022 28.7642" stroke="#AEBED3" stroke-width="0.5"/>
<path d="M15.2138 28.7605C14.7282 28.7318 14.2954 29.0646 14.1981 29.5415C14.1957 29.5802 14.1957 29.619 14.1981 29.6576V31.5442C14.1981 32.0405 14.6002 32.4428 15.0962 32.4428C15.5922 32.4428 15.9943 32.0405 15.9943 31.5442V29.6576C16.0241 29.1957 15.6753 28.7965 15.2138 28.7642" fill="#AEBED3"/>
<path d="M15.2138 28.7605C14.7282 28.7318 14.2954 29.0646 14.1981 29.5415C14.1957 29.5802 14.1957 29.619 14.1981 29.6576V31.5442C14.1981 32.0405 14.6002 32.4428 15.0962 32.4428C15.5922 32.4428 15.9943 32.0405 15.9943 31.5442V29.6576C16.0241 29.1957 15.6753 28.7965 15.2138 28.7642" stroke="#AEBED3" stroke-width="0.5"/>
<path d="M19.5826 36.4886C19.1208 36.4584 18.7215 36.8076 18.6897 37.2696C18.6868 37.3083 18.6868 37.3471 18.6897 37.3858V39.2723C18.6754 39.7684 19.0658 40.1821 19.5616 40.1964C20.0574 40.2107 20.4709 39.8201 20.4851 39.324C20.4856 39.3068 20.4856 39.2895 20.4851 39.2723V37.382C20.4819 36.8874 20.08 36.4882 19.5856 36.4886" fill="#AEBED3"/>
<path d="M19.5826 36.4886C19.1208 36.4584 18.7215 36.8076 18.6897 37.2696C18.6868 37.3083 18.6868 37.3471 18.6897 37.3858V39.2723C18.6754 39.7684 19.0658 40.1821 19.5616 40.1964C20.0574 40.2107 20.4709 39.8201 20.4851 39.324C20.4856 39.3068 20.4856 39.2895 20.4851 39.2723V37.382C20.4819 36.8874 20.08 36.4882 19.5856 36.4886" stroke="#AEBED3" stroke-width="0.5"/>
<path d="M15.0939 36.4886C14.6309 36.4585 14.2312 36.8095 14.201 37.2727C14.1986 37.3091 14.1986 37.3456 14.201 37.382V39.2686C14.201 39.7649 14.6031 40.1672 15.0991 40.1672C15.5951 40.1672 15.9972 39.7649 15.9972 39.2686V37.382C15.9935 36.8875 15.5918 36.4886 15.0976 36.4886" fill="#AEBED3"/>
<path d="M15.0939 36.4886C14.6309 36.4585 14.2312 36.8095 14.201 37.2727C14.1986 37.3091 14.1986 37.3456 14.201 37.382V39.2686C14.201 39.7649 14.6031 40.1672 15.0991 40.1672C15.5951 40.1672 15.9972 39.7649 15.9972 39.2686V37.382C15.9935 36.8875 15.5918 36.4886 15.0976 36.4886" stroke="#AEBED3" stroke-width="0.5"/>
<path d="M66.8114 68.9167C66.8412 68.453 66.4896 68.053 66.0262 68.0233C65.9903 68.021 65.9544 68.021 65.9185 68.0233H63.7607V37.204C63.7909 36.7419 63.4419 36.3424 62.9802 36.3106C62.9416 36.3077 62.9028 36.3077 62.8641 36.3106H58.7345V5.31187C58.7642 4.84819 58.4126 4.4482 57.9492 4.41847C57.9134 4.41617 57.8775 4.41617 57.8416 4.41847H39.1654C38.7024 4.38829 38.3026 4.73936 38.2725 5.20259C38.2701 5.23898 38.2701 5.27548 38.2725 5.31187V16.2694L30.4597 20.4014V1.08758C30.4926 0.62412 30.1438 0.221707 29.6806 0.188764C29.6779 0.188571 29.6752 0.188391 29.6725 0.188224C29.6328 0.185306 29.593 0.185306 29.5534 0.188224H9.79899C9.33601 0.158049 8.93626 0.509113 8.9061 0.972349C8.90373 1.00873 8.90373 1.04524 8.9061 1.08162V43.8531H4.50118C4.04044 43.8228 3.64165 44.1703 3.60829 44.6311C3.6055 44.6708 3.6055 44.7106 3.60829 44.7502V68.0166H1.08364C0.587639 68.0166 0.185547 68.4189 0.185547 68.9152C0.185547 69.4115 0.587639 69.8138 1.08364 69.8138H66.0049C66.4685 69.796 66.8301 69.4059 66.8129 68.942V68.9174M14.4301 55.0496C16.6614 54.9336 18.5642 56.6493 18.6802 58.8819C18.6875 59.0216 18.6875 59.1617 18.6803 59.3015V68.0195H10.6026V59.3015C10.4853 57.069 12.1989 55.164 14.4301 55.0466M23.7117 68.0195H20.4787V59.3015C20.6036 56.0774 18.0927 53.3624 14.8705 53.2375C11.6482 53.1125 8.93484 55.6248 8.80995 58.8489C8.80877 58.8791 8.80784 58.9094 8.80714 58.9396C8.80366 59.0602 8.80366 59.1809 8.80714 59.3015V68.0195H5.30552V45.6503H23.7117V68.0195ZM23.8039 24.4462V43.8531H10.6956V1.98693H28.6508V21.3045L24.2526 23.6399C23.9732 23.8125 23.804 24.1184 23.8062 24.447M43.5554 68.0195H25.5972V24.9875L43.5554 15.6448V68.0195ZM44.8136 13.3093C44.5422 13.1325 44.1922 13.1325 43.9207 13.3093L40.056 15.376V6.20973H56.9331V36.3069H45.2616V14.1171C45.2422 13.7944 45.0781 13.4977 44.8151 13.31M62.0516 68.0255H45.3508V63.2607H62.0516V68.0255ZM62.0516 61.3764H45.3508V56.7032H62.0516V61.3764ZM62.0516 54.9067H45.3508V50.2335H62.0516V54.9067ZM62.0516 48.437H45.3508V44.0355H62.0516V48.437ZM62.0516 42.2308L61.9623 42.2368H45.3508V38.1048H62.0516V42.2308Z" fill="#AEBED3"/>
<path d="M66.8114 68.9167C66.8412 68.453 66.4896 68.053 66.0262 68.0233C65.9903 68.021 65.9544 68.021 65.9185 68.0233H63.7607V37.204C63.7909 36.7419 63.4419 36.3424 62.9802 36.3106C62.9416 36.3077 62.9028 36.3077 62.8641 36.3106H58.7345V5.31187C58.7642 4.84819 58.4126 4.4482 57.9492 4.41847C57.9134 4.41617 57.8775 4.41617 57.8416 4.41847H39.1654C38.7024 4.38829 38.3026 4.73936 38.2725 5.20259C38.2701 5.23898 38.2701 5.27548 38.2725 5.31187V16.2694L30.4597 20.4014V1.08758C30.4926 0.62412 30.1438 0.221707 29.6806 0.188764C29.6779 0.188571 29.6752 0.188391 29.6725 0.188224C29.6328 0.185306 29.593 0.185306 29.5534 0.188224H9.79899C9.33602 0.158049 8.93626 0.509113 8.9061 0.972349C8.90373 1.00873 8.90373 1.04524 8.9061 1.08162V43.8531H4.50118C4.04044 43.8228 3.64165 44.1703 3.60829 44.6311C3.6055 44.6708 3.6055 44.7106 3.60829 44.7502V68.0166H1.08364C0.587639 68.0166 0.185547 68.4189 0.185547 68.9152C0.185547 69.4115 0.587639 69.8138 1.08364 69.8138H66.0049C66.4685 69.796 66.8301 69.4059 66.8129 68.942V68.9174M14.4301 55.0496C16.6614 54.9336 18.5642 56.6493 18.6802 58.8819C18.6875 59.0216 18.6875 59.1617 18.6803 59.3015V68.0195H10.6026V59.3015C10.4853 57.069 12.1989 55.164 14.4301 55.0466M23.8039 24.4462V43.8531H10.6956V1.98693H28.6508V21.3045L24.2526 23.6399C23.9732 23.8125 23.804 24.1184 23.8062 24.447M44.8136 13.3093C44.5422 13.1325 44.1922 13.1325 43.9207 13.3093L40.056 15.376V6.20973H56.9331V36.3069H45.2616V14.1171C45.2422 13.7944 45.0781 13.4977 44.8151 13.31M23.7117 68.0195H20.4787V59.3015C20.6036 56.0774 18.0927 53.3624 14.8705 53.2375C11.6482 53.1125 8.93484 55.6248 8.80994 58.8489C8.80877 58.8791 8.80784 58.9094 8.80714 58.9396C8.80366 59.0602 8.80366 59.1808 8.80714 59.3015V68.0195H5.30552V45.6503H23.7117V68.0195ZM43.5554 68.0195H25.5972V24.9875L43.5554 15.6448V68.0195ZM62.0516 68.0255H45.3508V63.2607H62.0516V68.0255ZM62.0516 61.3764H45.3508V56.7032H62.0516V61.3764ZM62.0516 54.9067H45.3508V50.2335H62.0516V54.9067ZM62.0516 48.437H45.3508V44.0355H62.0516V48.437ZM62.0516 42.2308L61.9623 42.2368H45.3508V38.1048H62.0516V42.2308Z" stroke="#AEBED3" stroke-width="0.5"/>
</g>
<defs>
<clipPath id="clip0_313_620">
<rect width="67" height="70" fill="white"/>
</clipPath>
</defs>
</svg>
