<svg width="44" height="44" viewBox="0 0 44 44" fill="none" xmlns="http://www.w3.org/2000/svg">
<path d="M18.9971 0.442383C19.4541 0.119347 20.0754 0.119106 20.5371 0.445312V0.446289H20.5381C20.5386 0.446647 20.5391 0.447599 20.54 0.448242C20.5418 0.449505 20.5446 0.450837 20.5479 0.453125C20.5544 0.45781 20.564 0.464804 20.5762 0.473633C20.601 0.491555 20.6373 0.518342 20.6836 0.552734C20.7765 0.621718 20.9107 0.723508 21.0781 0.855469C21.413 1.11943 21.8814 1.50449 22.4199 1.99512C23.4977 2.97706 24.8541 4.37612 25.9912 6.05957L26.082 6.19434L26.2324 6.13379C31.0161 4.19339 36.6848 5.13819 36.9307 5.18066H36.9316C37.4926 5.27531 37.9333 5.71661 38.0273 6.27734C38.1326 6.89964 38.9757 12.374 37.0469 17.0537L36.9834 17.208L37.124 17.2979C40.6326 19.5615 42.9451 22.8141 43.043 22.9531C43.2047 23.1835 43.29 23.4524 43.29 23.7324C43.29 24.0126 43.2054 24.2819 43.0439 24.5117C42.9019 24.7136 39.6439 29.2849 34.959 31.3359L34.6914 31.4531L34.8965 31.6602C35.8301 32.6065 36.5726 33.4724 37.083 34.1035C37.3382 34.419 37.5353 34.676 37.6689 34.8545C37.7356 34.9435 37.7868 35.0129 37.8213 35.0605C37.8384 35.0842 37.8514 35.1027 37.8604 35.1152C37.8648 35.1215 37.8687 35.1266 37.8711 35.1299C37.8723 35.1315 37.8734 35.1329 37.874 35.1338V35.1348L37.875 35.1357C38.2296 35.6396 38.1977 36.3118 37.8096 36.7773L37.7266 36.8672C33.4574 41.1368 27.8402 43.2897 22.21 43.29C17.0846 43.2903 11.9499 41.5064 7.80859 37.9121L7.66699 37.79L7.53516 37.9219L4.04785 41.4111H4.04688C3.52363 41.9355 2.67194 41.9359 2.14844 41.4111C1.62464 40.8858 1.62378 40.0294 2.14746 39.5039L2.14844 39.5049L5.625 36.0264L5.75684 35.8936L5.63379 35.7529C2.12719 31.7417 0.200283 26.6293 0.200195 21.3154C0.200195 15.4385 2.48814 9.91558 6.64258 5.7627V5.76172C7.07696 5.32615 7.76226 5.24059 8.27734 5.53711L8.37793 5.60156H8.37891L8.38281 5.60547C8.38605 5.60777 8.39136 5.61087 8.39746 5.61523C8.40991 5.62415 8.42843 5.63801 8.45215 5.65527C8.49954 5.68977 8.56861 5.74086 8.65723 5.80762C8.83505 5.94158 9.09146 6.13942 9.40625 6.39551C10.0359 6.90776 10.9006 7.65385 11.8467 8.59277L12.0547 8.79883L12.1719 8.53027C13.2157 6.14161 14.9073 4.12803 16.3506 2.7041C17.0713 1.99303 17.728 1.43085 18.207 1.04492C18.4465 0.851999 18.6421 0.702955 18.7783 0.601562C18.8461 0.551096 18.8996 0.512801 18.9365 0.486328C18.955 0.473062 18.9695 0.462133 18.9795 0.455078L18.9941 0.445312L18.9971 0.442383ZM19.626 3.34375C18.8028 4.03392 17.5577 5.17785 16.4355 6.61523C15.3147 8.051 14.3058 9.79295 13.9727 11.6777V11.6787C13.8841 12.1903 13.5017 12.6101 13.001 12.7461C12.4978 12.8827 11.9579 12.7137 11.626 12.3184L11.0986 11.7148C9.86923 10.3492 8.65564 9.27357 7.87793 8.62891L7.72656 8.50391L7.59863 8.65234C6.11216 10.3656 4.95199 12.2904 4.14844 14.3789C3.30058 16.5825 2.87111 18.9132 2.87109 21.3057C2.87109 25.8929 4.51355 30.3185 7.50488 33.8135L7.64648 33.9785L7.7998 33.8252L11.4512 30.1699L11.5771 30.0449L11.4678 29.9053C9.23818 27.0461 8.32048 23.4178 8.92285 19.8477L8.98535 19.502C9.05395 19.1476 9.25668 18.8412 9.55664 18.6396C9.8558 18.4387 10.2135 18.3672 10.5654 18.4385V18.4395C11.2828 18.5843 11.7595 19.2923 11.625 20.0195C11.0745 22.8009 11.7025 25.6641 13.3477 27.9482L13.4854 28.1396L13.6523 27.9727L20.3574 21.2656L20.4756 21.1475L20.3799 21.0098C19.0145 19.0393 18.5005 16.5926 18.9668 14.2451V14.2441C19.0354 13.8926 19.2375 13.5886 19.5371 13.3877C19.8366 13.1868 20.1939 13.1153 20.5459 13.1865C20.9037 13.2588 21.2099 13.4647 21.4092 13.7676C21.6056 14.0661 21.6734 14.4232 21.6006 14.7734L21.5996 14.7754C21.3174 16.2224 21.5605 17.699 22.2832 18.9795L22.4131 19.21L22.5996 19.0225L27.1045 14.5176C27.6276 13.9931 28.4794 13.9929 29.0029 14.5176V14.5186C29.257 14.7733 29.3975 15.1112 29.3975 15.4717C29.3973 15.8321 29.257 16.1701 29.0029 16.4248L24.4834 20.9492L24.3008 21.1318L24.5225 21.2637C25.8329 22.0449 27.3547 22.3104 28.8555 22.0137C29.5863 21.8715 30.2944 22.35 30.4355 23.0781C30.4541 23.1836 30.4619 23.267 30.4619 23.3408C30.4619 23.9835 30.0056 24.5387 29.3799 24.6621C26.9715 25.1371 24.4842 24.5945 22.5029 23.1719L22.3652 23.0732L22.2441 23.1934L15.5527 29.8867L15.3887 30.0518L15.5752 30.1895C17.7327 31.7888 20.4186 32.4671 23.0752 32.0869L23.6055 31.9971C24.3288 31.8567 25.0358 32.3307 25.1836 33.0557V33.0566L25.1855 33.0664C25.2029 33.1655 25.2109 33.2491 25.2109 33.3232C25.2109 33.9659 24.7547 34.522 24.1289 34.6455C20.4047 35.3832 16.5964 34.4474 13.624 32.0762L13.4844 31.9648L13.3574 32.0918L9.71875 35.7324L9.56543 35.8867L9.73145 36.0273C13.2135 38.9756 17.6269 40.5928 22.2119 40.5928C22.2342 40.5928 22.2565 40.5928 22.2783 40.5928C26.9074 40.5769 31.3472 38.9125 34.8213 35.8984L34.9688 35.7705L34.8438 35.6191C34.2019 34.8402 33.1319 33.6247 31.7734 32.3896L31.1738 31.8604C30.8725 31.5997 30.7012 31.2253 30.7012 30.833C30.7012 30.7162 30.7173 30.5937 30.748 30.4805L30.749 30.4795C30.8851 29.9767 31.3022 29.5942 31.8096 29.5059H31.8105C33.6831 29.1732 35.4203 28.1657 36.8555 27.0459C38.2926 25.9245 39.441 24.6803 40.1348 23.8564L40.2432 23.7275L40.1348 23.5977C39.1284 22.4009 37.3108 20.4839 35.0576 19.1885L34.6016 18.9385C34.3162 18.7883 34.1002 18.5498 33.9805 18.2568L33.9346 18.1279C33.8468 17.8154 33.8705 17.4848 33.9951 17.1992L34.0557 17.0791C35.8 13.978 35.6863 9.80586 35.5166 7.87891L35.502 7.71094L35.334 7.69629C33.4872 7.53572 29.5595 7.42666 26.5078 8.95996L26.2158 9.11328C25.574 9.46393 24.7591 9.22856 24.4004 8.58789L24.3193 8.44336L24.3184 8.44141C23.0081 6.15656 21.0701 4.33427 19.8828 3.34375L19.7539 3.23633L19.626 3.34375Z" fill="#778495" stroke="white" stroke-width="0.400934"/>
</svg>
