<svg width="62" height="62" viewBox="0 0 62 62" fill="none" xmlns="http://www.w3.org/2000/svg">
<path d="M43.5232 44.0567L40.927 43.9429C40.9318 41.7632 40.2052 39.6465 38.8684 37.9268L41.5639 38.2659H41.5615C42.0895 38.3265 42.569 37.9511 42.6368 37.4231C42.7022 36.8951 42.3316 36.4132 41.8036 36.343L39.3261 36.033C39.9655 35.0569 40.428 33.9719 40.6872 32.8337C40.7308 32.8409 42.7797 33.4028 42.8039 33.3519C43.2859 33.3423 43.6879 32.9814 43.7484 32.5043C43.809 32.0248 43.5111 31.5743 43.0461 31.446L40.9173 30.8937V30.8913C40.973 28.7988 40.3481 26.7451 39.1348 25.0375H41.6825C42.2178 25.0375 42.6513 24.604 42.6513 24.0687C42.6513 23.5335 42.2178 23.1 41.6825 23.1H39.125C40.3263 21.4144 40.956 19.3873 40.9221 17.319H43.482C44.01 17.3093 44.4362 16.8782 44.4362 16.3503C44.4362 15.8198 44.01 15.3888 43.482 15.3815H40.7041C40.2827 13.4489 39.2848 11.6882 37.8439 10.3367L39.7668 8.70194C40.1761 8.35561 40.2246 7.74528 39.8782 7.33597C39.5319 6.9291 38.9216 6.87824 38.5123 7.22457L36.2696 9.12818C35.0078 8.34346 33.5838 7.85671 32.1064 7.70894V4.84387C32.1064 4.30866 31.6705 3.87512 31.1377 3.87512C30.6025 3.87512 30.1689 4.30864 30.1689 4.84387V7.70894C28.0837 7.91722 26.122 8.79394 24.5745 10.2035L22.1042 7.33111C21.7506 6.93876 21.15 6.90001 20.7504 7.24392C20.3508 7.58783 20.2999 8.18844 20.6341 8.59531L23.2643 11.6517H23.2667C22.4432 12.7609 21.8644 14.0324 21.569 15.3814H18.5198C17.9918 15.3911 17.5704 15.8222 17.5704 16.3502C17.5704 16.8781 17.9918 17.3068 18.5198 17.3189H21.351C21.3171 19.5059 22.0194 21.642 23.3515 23.3784L20.3144 23.8264H20.312C20.0577 23.8628 19.8252 23.9984 19.6727 24.2067C19.5177 24.4125 19.4523 24.6717 19.4886 24.9284C19.5273 25.1827 19.6654 25.4128 19.8712 25.5653C20.0795 25.7203 20.3411 25.7833 20.5954 25.7446L22.8914 25.4055C22.0462 26.7375 21.5375 28.2536 21.4068 29.823L18.4012 30.1984V30.2008C17.8757 30.2735 17.5075 30.753 17.573 31.281C17.6383 31.8065 18.113 32.1819 18.641 32.1214L21.4092 31.775L21.4068 31.7775C21.5569 33.1192 21.9856 34.4149 22.6613 35.5847L20.128 36.3815V36.3791C19.6243 36.5462 19.3482 37.0863 19.508 37.59C19.6655 38.0938 20.2007 38.3795 20.7069 38.2294L23.8626 37.2388C23.8819 37.2606 23.8989 37.2849 23.9183 37.3067L23.9207 37.3042C22.1527 39.2224 21.2324 41.7702 21.368 44.3759L18.1784 45.5844H18.176C17.7473 45.7563 17.4979 46.2068 17.5827 46.6621C17.665 47.1174 18.0574 47.4516 18.52 47.4589C18.302 47.6769 21.7168 46.2843 21.6587 46.3352V46.3376C22.068 47.9384 22.8769 49.4085 24.0079 50.6146L21.6297 53.625V53.6226C21.3124 54.044 21.3875 54.6398 21.8016 54.9667C22.2158 55.2937 22.814 55.2307 23.1506 54.8239L25.4683 51.8909C26.8536 52.8839 28.4739 53.4942 30.1692 53.6637V57.1561C30.1692 57.6913 30.6027 58.1248 31.1379 58.1248C31.6707 58.1248 32.1067 57.6913 32.1067 57.1561V53.6637C33.8625 53.4894 35.5385 52.8379 36.9528 51.7819L38.9703 53.4845C39.3796 53.8163 39.9802 53.7606 40.3217 53.3561C40.6607 52.9541 40.6171 52.3535 40.2199 52.0047L38.3987 50.4668C39.5733 49.1711 40.3798 47.5848 40.7334 45.8725C43.4556 45.9912 43.4677 45.9936 43.4846 45.9936C40.7334 45.8725 43.441 45.9936 43.441 45.9936L43.4386 45.9912C43.9642 46.0009 44.4025 45.5916 44.4243 45.0661C44.4485 44.5405 44.0489 44.0925 43.5234 44.0561L43.5232 44.0567ZM25.9431 38.0314C26.3209 37.6681 26.3572 37.0747 26.0303 36.6654C24.2986 35.1444 23.3081 32.9503 23.3154 30.6473C23.3227 28.3443 24.3253 26.1547 26.0666 24.6457C26.3645 24.2582 26.3209 23.7084 25.9649 23.3718C24.2623 21.875 23.2863 19.7196 23.2814 17.4528C23.6738 7.05338 38.5949 7.04356 38.9896 17.4528H38.9921C38.9921 19.7076 38.0233 21.8534 36.3304 23.3428C36.1367 23.5196 36.0204 23.7667 36.0131 24.0283C36.0035 24.2922 36.1003 24.5465 36.282 24.7378C37.9918 26.2491 38.9702 28.4264 38.963 30.71C38.9558 32.9936 37.9652 35.1638 36.2432 36.6656C35.926 37.0531 35.9478 37.615 36.2917 37.9807C38.0015 39.4822 38.9848 41.6474 38.9921 43.9213C38.9921 46.5878 37.6383 49.0726 35.398 50.5212C33.1578 51.9671 30.3363 52.1778 27.9074 51.0807C25.4759 49.9836 23.7684 47.7288 23.3712 45.0915C22.974 42.454 23.9428 39.7972 25.9432 38.0317L25.9431 38.0314Z" fill="#778495"/>
<path d="M32.7878 17.4519C32.7684 15.2795 31.0028 13.5309 28.8304 13.5309C26.658 13.5309 24.8924 15.2795 24.873 17.4519C24.8924 19.6243 26.6604 21.373 28.8304 21.373C31.0028 21.373 32.7684 19.6243 32.7878 17.4519ZM26.8104 17.4519C26.8274 16.3475 27.7259 15.4611 28.8303 15.4611C29.9347 15.4611 30.8356 16.3475 30.8502 17.4519C30.8356 18.5563 29.9347 19.4427 28.8303 19.4427C27.7259 19.4427 26.8274 18.5563 26.8104 17.4519Z" fill="#778495"/>
<path d="M27.8281 30.6875C27.8499 32.499 29.3249 33.9594 31.1388 33.9594C32.9504 33.9594 34.4253 32.499 34.4471 30.6875C34.4253 28.8735 32.9504 27.4155 31.1388 27.4155C29.3249 27.4155 27.8499 28.8735 27.8281 30.6875ZM32.5096 30.6875C32.4975 31.4358 31.8872 32.0389 31.1388 32.0389C30.388 32.0389 29.7777 31.4358 29.7656 30.6875C29.7777 29.9367 30.388 29.3337 31.1388 29.3337C31.8872 29.3337 32.4999 29.9367 32.5096 30.6875Z" fill="#778495"/>
<path d="M29.6435 49.0917C31.9636 49.0723 33.8333 47.1856 33.8333 44.8679C33.8333 42.5478 31.9636 40.6611 29.6435 40.6417C27.3258 40.6611 25.4561 42.5478 25.4561 44.8679C25.4561 47.1856 27.3258 49.0723 29.6435 49.0917ZM29.6435 42.5791C30.898 42.5936 31.9055 43.6132 31.9055 44.8677C31.9055 46.1198 30.898 47.1395 29.6435 47.154C28.3914 47.1395 27.3839 46.1198 27.3839 44.8677C27.3839 43.6132 28.3914 42.5936 29.6435 42.5791Z" fill="#778495"/>
</svg>
