<svg width="27" height="47" viewBox="0 0 27 47" fill="none" xmlns="http://www.w3.org/2000/svg">
<path d="M20.6009 12.2046C19.0527 8.20077 15.5636 7.07306 15.412 7.02289C15.2854 6.98543 15.3614 6.99376 13.9312 6.99376V2.44862C13.9312 2.10318 13.6486 1.82434 13.2984 1.82434H9.55641C9.20625 1.82434 8.92362 2.10319 8.92362 2.44862V6.99775C7.49766 6.99775 7.56939 6.98943 7.44285 7.02689C7.29097 7.07267 3.80208 8.20472 2.2539 12.2042C1.14861 12.2125 0.25 13.099 0.25 14.1936V44.4558C0.25 45.5545 1.15702 46.4494 2.27077 46.4494H20.5885C21.7022 46.4494 22.6092 45.5545 22.6092 44.4558V14.1936C22.6092 13.099 21.7106 12.2125 20.6053 12.2042L20.6009 12.2046ZM21.3392 44.4601C21.3392 44.868 21.0017 45.2051 20.5841 45.2051H2.26636C1.85292 45.2051 1.51122 44.8721 1.51122 44.4601V14.194C1.51122 13.7861 1.84872 13.4531 2.26218 13.4531H20.5844C20.9978 13.4531 21.3395 13.7861 21.3395 14.1981V18.5557H8.70847C8.35832 18.5557 8.07568 18.8346 8.07568 19.18V39.4782C8.07568 39.8236 8.35833 40.1025 8.70847 40.1025H21.3395L21.3392 44.4601ZM10.1846 3.07309H12.661V6.99785H10.1846V3.07309ZM15.1121 8.24641C15.6015 8.42121 17.9598 9.3993 19.2381 12.2045H3.60777C4.88604 9.39925 7.24854 8.42119 7.73373 8.24641H15.1164H15.1121ZM9.33681 19.8001H21.3347V38.8495H9.33681V19.8001Z" fill="#778495" stroke="#778495" stroke-width="0.5"/>
<path d="M25.7095 4.08423H18.8159C17.9806 4.08423 17.9806 5.33283 18.8159 5.33283H25.7095C26.5448 5.33283 26.5448 4.08423 25.7095 4.08423Z" fill="#778495" stroke="#778495" stroke-width="0.5"/>
<path d="M25.8617 7.93417L18.9681 6.26519C18.1539 6.06958 17.8544 7.28072 18.6686 7.47633L25.5622 9.1453C26.3764 9.34092 26.6759 8.12977 25.8617 7.93417Z" fill="#778495" stroke="#778495" stroke-width="0.5"/>
<path d="M18.812 3.16886C18.9343 3.16886 18.8204 3.18551 25.8572 1.48323C26.6714 1.28762 26.3677 0.0723219 25.5577 0.272098L18.6641 1.94108C17.9427 2.11588 18.0693 3.17303 18.816 3.17303L18.812 3.16886Z" fill="#778495" stroke="#778495" stroke-width="0.5"/>
</svg>
