<svg width="52" height="52" viewBox="0 0 52 52" fill="none" xmlns="http://www.w3.org/2000/svg">
<g clip-path="url(#clip0_313_1508)">
<path d="M43.3639 17.3628C42.1056 17.3628 41.05 18.2 40.6911 19.344H32.8807C32.7247 18.0543 32.2204 16.8792 31.456 15.9015L36.9784 10.3791C37.3839 10.5924 37.8312 10.7119 38.2784 10.7119C38.9959 10.7119 39.7187 10.4363 40.2648 9.89028C40.7951 9.35996 41.0864 8.65272 41.0864 7.90388C41.0864 7.14996 40.7953 6.44779 40.2648 5.91748C39.1676 4.82028 37.384 4.82028 36.2867 5.91748C35.3975 6.80668 35.2415 8.14828 35.7979 9.20912L30.2755 14.7211C29.2979 13.9567 28.1279 13.4523 26.833 13.2964V5.48596C27.9769 5.12711 28.8142 4.07152 28.8142 2.81316C28.8144 1.26348 27.5508 -0.00012207 26.0011 -0.00012207C24.4514 -0.00012207 23.1878 1.26348 23.1878 2.81316C23.1878 4.07152 24.025 5.12708 25.1689 5.48596V13.3016C23.8793 13.4576 22.7042 13.9568 21.7265 14.7263L16.2045 9.19872C16.4126 8.79839 16.5373 8.36152 16.5373 7.89872C16.5373 7.14988 16.2462 6.44263 15.7157 5.91232C14.6185 4.81512 12.8349 4.81512 11.7376 5.91232C10.6404 7.00952 10.6404 8.79312 11.7376 9.89036C12.2837 10.4365 13.0065 10.712 13.724 10.712C14.1712 10.712 14.6185 10.5923 15.024 10.3792L20.5464 15.9016C19.782 16.8792 19.2776 18.0492 19.1217 19.3441L11.3113 19.3437C10.9524 18.1998 9.89684 17.3626 8.63848 17.3626C7.0888 17.3626 5.8252 18.6262 5.8252 20.1759C5.8252 21.7255 7.0888 22.9891 8.63848 22.9891C9.89684 22.9891 10.9524 22.1519 11.3113 21.008H19.1269C19.283 22.2977 19.7821 23.4727 20.5516 24.4504L15.024 29.9724C13.9632 29.416 12.6268 29.5721 11.7376 30.4612C10.6404 31.5584 10.6404 33.342 11.7376 34.4393C12.2837 34.9854 13.0065 35.2609 13.724 35.2609C14.4416 35.2609 15.1644 34.9853 15.7104 34.4393C16.2408 33.909 16.5321 33.2017 16.5321 32.4529C16.5321 31.9901 16.4073 31.5481 16.1993 31.1476L21.7217 25.6252C22.6889 26.3897 23.8589 26.8888 25.1381 27.05C24.8728 41.454 17.1353 50.528 17.0521 50.6216C16.7505 50.97 16.7868 51.4952 17.1301 51.7968C17.2862 51.9372 17.4837 52.0049 17.6762 52.0049C17.9101 52.0049 18.139 51.9113 18.3054 51.7188C18.6487 51.3288 26.5422 42.0988 26.8022 27.0552C28.1022 26.9044 29.2878 26.4 30.2706 25.6304L35.793 31.1528C35.2366 32.2136 35.3926 33.55 36.2818 34.4445C36.8279 34.9906 37.5507 35.2661 38.2682 35.2661C38.9858 35.2661 39.7085 34.9906 40.2546 34.4445C40.7849 33.9142 41.0763 33.2069 41.0763 32.4581C41.0763 31.7042 40.7851 31.002 40.2546 30.4717C39.3654 29.5825 38.0238 29.4264 36.963 29.9828L31.451 24.45C32.2154 23.4725 32.7198 22.3025 32.8757 21.0076H40.6913C41.0502 22.1515 42.1058 22.9888 43.3641 22.9888C44.9138 22.9888 46.1774 21.7252 46.1774 20.1755C46.1774 18.6261 44.9138 17.3625 43.3641 17.3625L43.3639 17.3628ZM31.2947 20.1812C31.2895 23.0984 28.9183 25.4696 26.0011 25.4696C23.0839 25.4696 20.7127 23.0984 20.7075 20.1812V20.1759V20.1707C20.7128 17.2535 23.0839 14.8875 25.9959 14.8823H26.0012H26.0064C28.9184 14.8875 31.2896 17.2534 31.2948 20.1707V20.1759V20.181L31.2947 20.1812ZM37.4671 7.08758C37.6855 6.86922 37.9716 6.74954 38.2783 6.74954C38.585 6.74954 38.8711 6.86922 39.0894 7.08758C39.3078 7.30594 39.4275 7.59202 39.4275 7.89873C39.4275 8.20545 39.3078 8.49153 39.0894 8.70989C38.6422 9.15709 37.9142 9.15709 37.467 8.70989C37.02 8.26286 37.0199 7.53482 37.4671 7.08758ZM26.0011 1.66398C26.6356 1.66398 27.1503 2.17873 27.1503 2.81318C27.1503 3.44762 26.6356 3.95726 26.0011 3.95726C25.3667 3.95726 24.8519 3.44251 24.8519 2.80806C24.8519 2.17362 25.3667 1.66398 26.0011 1.66398ZM12.9127 8.70998C12.4655 8.26278 12.4655 7.53473 12.9127 7.08753C13.1311 6.86917 13.4172 6.7495 13.7239 6.7495C14.0306 6.7495 14.3167 6.86917 14.535 7.08753C14.7534 7.30589 14.8731 7.59198 14.8731 7.89869C14.8731 8.2054 14.7534 8.49149 14.535 8.70985C14.0878 9.15722 13.36 9.15718 12.9127 8.70998ZM8.63828 21.32C8.00383 21.32 7.48908 20.8052 7.48908 20.1708C7.48908 19.5363 8.00383 19.0216 8.63828 19.0216C9.27272 19.0216 9.78748 19.5363 9.78748 20.1708C9.78748 20.8103 9.27272 21.32 8.63828 21.32ZM14.5351 33.2644C14.0879 33.7116 13.3598 33.7116 12.9126 33.2644C12.4654 32.8172 12.4654 32.0891 12.9126 31.6419C13.3443 31.2103 14.1034 31.2103 14.5351 31.6419C14.7534 31.8603 14.8731 32.1464 14.8731 32.4531C14.8731 32.76 14.7536 33.0461 14.5351 33.2644V33.2644ZM39.0895 31.6419C39.3078 31.8603 39.4275 32.1464 39.4275 32.4531C39.4275 32.7598 39.3078 33.0459 39.0895 33.2642C38.6423 33.7114 37.9142 33.7114 37.467 33.2642C37.0198 32.817 37.0198 32.089 37.467 31.6418C37.6854 31.4234 37.9715 31.3038 38.2782 31.3038C38.5851 31.3039 38.8712 31.4236 39.0895 31.642L39.0895 31.6419ZM43.3639 21.3199C42.7295 21.3199 42.2147 20.8052 42.2147 20.1707C42.2147 19.5363 42.7295 19.0215 43.3639 19.0215C43.9984 19.0215 44.5131 19.5363 44.5131 20.1707C44.5131 20.8102 43.9984 21.3199 43.3639 21.3199Z" fill="#778495" stroke="#778495" stroke-width="0.5"/>
</g>
<defs>
<clipPath id="clip0_313_1508">
<rect width="52" height="52" fill="white"/>
</clipPath>
</defs>
</svg>
