<svg width="56" height="56" viewBox="0 0 56 56" fill="none" xmlns="http://www.w3.org/2000/svg">
<rect x="-0.200467" y="0.200467" width="54.9019" height="54.9019" transform="matrix(-1 0 0 1 54.9018 0)" stroke="white" stroke-width="0.400934"/>
<path d="M18.4059 18.4067C20.8575 15.9548 24.1831 14.5776 27.6507 14.5776C31.1182 14.5776 34.4435 15.9551 36.8954 18.4067C39.3474 20.8584 40.7246 24.184 40.7246 27.6515C40.7246 31.1187 39.3471 34.4444 36.8954 36.8963C34.4438 39.3482 31.1182 40.7255 27.6507 40.7255C24.1831 40.7255 20.8578 39.3479 18.4059 36.8963C15.954 34.4446 14.5767 31.1191 14.5767 27.6515C14.5767 24.184 15.9542 20.8587 18.4059 18.4067ZM20.7176 34.585C22.5564 36.4238 25.0506 37.4567 27.651 37.4567C30.2514 37.4567 32.7456 36.4237 34.5845 34.585C36.4233 32.7461 37.4562 30.2519 37.4562 27.6515C37.4562 25.0511 36.4232 22.5569 34.5845 20.7181C32.7456 18.8792 30.2514 17.8463 27.651 17.8463C25.0506 17.8463 22.5564 18.8793 20.7176 20.7181C18.8787 22.5569 17.8458 25.0511 17.8458 27.6515C17.8458 30.2519 18.8788 32.7461 20.7176 34.585Z" fill="#778495"/>
<path d="M28.4681 11.0904C27.9625 11.3822 27.3395 11.3822 26.8339 11.0904C26.3283 10.7983 26.0168 10.259 26.0168 9.67516V3.13837C26.0168 2.55448 26.3283 2.01517 26.8339 1.7231C27.3394 1.43133 27.9625 1.43133 28.4681 1.7231C28.9736 2.01522 29.2852 2.55451 29.2852 3.13837V9.67516C29.2852 10.259 28.9736 10.7984 28.4681 11.0904Z" fill="#778495"/>
<path d="M26.8339 44.2124C27.3394 43.9206 27.9625 43.9206 28.4681 44.2124C28.9736 44.5045 29.2852 45.0438 29.2852 45.6277V52.1645C29.2852 52.7484 28.9736 53.2877 28.4681 53.5797C27.9625 53.8715 27.3395 53.8715 26.8339 53.5797C26.3283 53.2876 26.0168 52.7483 26.0168 52.1645V45.6277C26.0168 45.0438 26.3283 44.5045 26.8339 44.2124Z" fill="#778495"/>
<path d="M41.5249 16.0979C41.2164 16.4037 40.799 16.5742 40.3647 16.5719C39.9302 16.5742 39.5128 16.4037 39.2044 16.0979C38.8949 15.7912 38.721 15.3735 38.721 14.9377C38.721 14.502 38.8949 14.0842 39.2044 13.7775L43.8291 9.16896C44.2499 8.80876 44.8243 8.68585 45.3554 8.84315C45.8869 9.0001 46.3022 9.41546 46.4592 9.94691C46.6165 10.478 46.4935 11.0524 46.1333 11.4732L41.5249 16.0979Z" fill="#778495"/>
<path d="M13.777 39.2049C14.0838 38.8955 14.5015 38.7215 14.9373 38.7215C15.373 38.7215 15.7908 38.8955 16.0975 39.2049L16.0976 39.205C16.4071 39.5118 16.5811 39.9295 16.5811 40.3653C16.5811 40.801 16.4071 41.2188 16.0976 41.5255L11.4729 46.134C11.1668 46.4383 10.7525 46.6092 10.3207 46.6092C9.88901 46.6092 9.4747 46.4383 9.1686 46.134C8.86423 45.8279 8.69332 45.4135 8.69332 44.9818C8.69332 44.5501 8.86422 44.1358 9.1686 43.8297L13.777 39.2049Z" fill="#778495"/>
<path d="M44.2126 28.4686C43.9208 27.963 43.9208 27.34 44.2126 26.8344C44.5047 26.3288 45.044 26.0173 45.6278 26.0173H52.1646C52.598 26.0173 53.0137 26.1896 53.3201 26.496C53.6265 26.8024 53.7988 27.2181 53.7988 27.6515C53.7988 28.0849 53.6265 28.5006 53.3201 28.807C53.0137 29.1134 52.598 29.2857 52.1646 29.2857H45.6278C45.0439 29.2857 44.5046 28.9742 44.2126 28.4686Z" fill="#778495"/>
<path d="M3.13868 26.0173H9.67548C10.2594 26.0173 10.7987 26.3288 11.0907 26.8344C11.3825 27.34 11.3825 27.963 11.0907 28.4686C10.7986 28.9742 10.2593 29.2857 9.67548 29.2857H3.13868C2.70528 29.2857 2.28958 29.1134 1.98315 28.807C1.67674 28.5006 1.50447 28.0849 1.50447 27.6515C1.50447 27.2181 1.67675 26.8024 1.98315 26.496C2.28956 26.1895 2.70527 26.0173 3.13868 26.0173Z" fill="#778495"/>
<path d="M39.9408 38.7805C40.507 38.6287 41.111 38.7904 41.5256 39.2051L46.1341 43.8298C46.4385 44.1359 46.6094 44.5502 46.6094 44.9819C46.6094 45.4137 46.4385 45.828 46.1341 46.1341C45.828 46.4384 45.4137 46.6094 44.982 46.6094C44.5502 46.6094 44.1359 46.4385 43.8298 46.1341L39.2051 41.5256C38.7904 41.111 38.6287 40.5069 38.7805 39.9408C38.932 39.3742 39.3743 38.932 39.9408 38.7805Z" fill="#778495"/>
<path d="M14.9374 16.5716C14.5029 16.574 14.0855 16.4035 13.7771 16.0977L9.16868 11.473C8.82277 11.1768 8.61612 10.7499 8.59875 10.2946C8.58105 9.83976 8.75399 9.39821 9.07608 9.07616C9.39816 8.75411 9.83973 8.58113 10.2945 8.59883C10.7497 8.61619 11.1767 8.82285 11.4729 9.16876L11.4729 9.16881L16.0976 13.7772C16.4071 14.084 16.5811 14.5017 16.5811 14.9375C16.5811 15.3732 16.4071 15.791 16.0976 16.0977C15.7891 16.4035 15.3717 16.574 14.9374 16.5716Z" fill="#778495"/>
</svg>
