<svg xmlns="http://www.w3.org/2000/svg" width="26" height="26" viewBox="0 0 26 26"><g transform="translate(-625 -405)"><path d="M13,1A12,12,0,0,0,4.515,21.485,12,12,0,1,0,21.485,4.515,11.921,11.921,0,0,0,13,1m0-1A13,13,0,1,1,0,13,13,13,0,0,1,13,0Z" transform="translate(625 405)" fill="#707070"/><g transform="translate(632.8 412.8)"><path d="M10,10.5a.5.5,0,0,1-.354-.146l-10-10a.5.5,0,0,1,0-.707.5.5,0,0,1,.707,0l10,10A.5.5,0,0,1,10,10.5Z" transform="translate(0.2 0.2)" fill="#707070"/><path d="M9.477,9.977a.5.5,0,0,1-.354-.146L-.354.354a.5.5,0,0,1,0-.707.5.5,0,0,1,.707,0L9.83,9.123a.5.5,0,0,1-.354.854Z" transform="translate(9.938 0.461) rotate(90)" fill="#707070"/></g></g></svg>