<?xml version="1.0" encoding="UTF-8"?>
<svg id="a" xmlns="http://www.w3.org/2000/svg" version="1.1" viewBox="0 0 26 26">
  <!-- Generator: Adobe Illustrator 29.6.1, SVG Export Plug-In . SVG Version: 2.1.1 Build 9)  -->
  <defs>
    <style>
      .st0 {
        fill: #707070;
      }
    </style>
  </defs>
  <path class="st0" d="M24.7,25.5c-.2,0-.4,0-.6-.2l-9.3-9.3-.4.3c-1.5,1.1-3.3,1.7-5.1,1.7C4.4,17.9.5,14,.5,9.2S4.4.5,9.2.5s8.7,3.9,8.7,8.7-.6,3.6-1.7,5.1l-.3.4,9.3,9.3c.3.3.3.8,0,1.2s-.4.2-.6.2h0ZM9.2,2.1c-3.9,0-7.1,3.2-7.1,7.1s3.2,7.1,7.1,7.1,7.1-3.2,7.1-7.1-3.2-7.1-7.1-7.1Z"/>
</svg>