<?xml version="1.0" encoding="UTF-8"?>
<svg id="Layer_1" data-name="Layer 1" xmlns="http://www.w3.org/2000/svg" viewBox="0 0 33.53838062286377 24.00008750206689">
  <defs>
    <style>
      .cls-1 {
        fill: #778495;
      }
    </style>
  </defs>
  <path class="cls-1" d="M9.269190311431885,3.500043751033445c-.552284717559814,0-1,.447715282440186-1,1v15c0,.552284240722656.447715282440186,1,1,1h15c.552284240722656,0,1-.447715759277344,1-1V4.500043751033445c0-.552284717559814-.447715759277344-1-1-1h-15M9.269190311431885,1.500043751033445h15c1.656854629516602,0,3,1.343145728111267,3,3v15c0,1.656854629516602-1.343145370483398,3-3,3h-15c-1.656854271888733,0-3-1.343145370483398-3-3V4.500043751033445c0-1.656854271888733,1.343145728111267-3,3-3Z"/>
</svg>