<?xml version="1.0" encoding="UTF-8"?>
<svg id="Layer_1" data-name="Layer 1" xmlns="http://www.w3.org/2000/svg" viewBox="0 0 33.53838062286377 24.00008750206689">
  <defs>
    <style>
      .cls-1 {
        fill: #778495;
      }

      .cls-2 {
        fill: #f2f2f2;
      }
    </style>
  </defs>
  <path class="cls-1" d="M9.269190311431885,3.500043751033445c-.552284717559814,0-1,.447715282440186-1,1v15c0,.552284240722656.447715282440186,1,1,1h15c.552284240722656,0,1-.447715759277344,1-1V4.500043751033445c0-.552284717559814-.447715759277344-1-1-1h-15M9.269190311431885,1.500043751033445h15c1.656854629516602,0,3,1.343145728111267,3,3v15c0,1.656854629516602-1.343145370483398,3-3,3h-15c-1.656854271888733,0-3-1.343145370483398-3-3V4.500043751033445c0-1.656854271888733,1.343145728111267-3,3-3Z"/>
  <g>
    <path class="cls-1" d="M17.546188354492188,17.651019932063718l-7.623999923467636-7.62399959564209c-.458120167255402-.458049774169922-.458177201449871-1.200752258300781-.000127404928207-1.658872604370117l.000127404928207-.00012731552124,1.65599998831749-1.658999919891357c.458049774169922-.458120346069336,1.200752258300781-.458177089691162,1.658872604370117-.00012731552124l.00012731552124.00012731552124,5.141000270843506,5.13599967956543L29.378187656402588.845020176204343c.458049774169922-.458120301365852,1.200752258300781-.458177544176579,1.658872604370117-.000127881765366.000041961669922.000042617321014.000085830688477.000085264444351.000127792358398.000127881765366l1.658000946044922,1.656000137329102c.458120346069336.458049774169922.45817756652832,1.200752258300781.000127792358398,1.658872604370117-.000041961669922.00004243850708-.000085830688477.00008487701416-.000127792358398.00012731552124l-13.49000072479248,13.490999698638916c-.458049774169922.458120346069336-1.200752258300781.45817756652832-1.658872604370117.000127792358398-.00004243850708-.000041961669922-.00008487701416-.000085830688477-.00012731552124-.000127792358398Z"/>
    <path class="cls-2" d="M18.378188610076904,18.495019794734617c-.443950653076172.001222610473633-.869937896728516-.175220489501953-1.183000087738037-.489999771118164l-7.627000102773309-7.625c-.652258744463325-.653805732727051-.652258744463325-1.712194442749023,0-2.366000175476074l1.659000048413873-1.658999443054199c.65334141254425-.653352737426758,1.712626576423645-.653361797332764,2.365979313850403-.000020503997803l.000020503997803.000020503997803,4.785000324249268,4.782999992370605L29.024187564849854.49002031359305c.653341293334961-.653352655470371,1.712627410888672-.653361536562443,2.36598014831543-.000019932165742.000005722045898.000006647780538.00001335144043.000013295561075.000019073486328.000019932165742l1.659000396728516,1.659000001847744c.652257919311523.653805732727051.652257919311523,1.712194204330444,0,2.365999937057495l-13.489998817443848,13.486000061035156c-.31191349029541.315753936767578-.737163543701172.493631362915039-1.180999755859375.493999481201172ZM12.410188436508179,6.865020157130857c-.179036378860474.000287532806396-.350487232208252.072325706481934-.476000070571899.199999809265137l-1.655999958515167,1.65600061416626c-.262427508831024.263077735900879-.262427508831024.688921928405762,0,.951999664306641l7.621999561786652,7.627999305725098c.262758255004883.262887954711914.688878059387207.262992858886719.951766014099121.000234603881836.000077247619629-.000078201293945.000155448913574-.000156402587891.00023365020752-.000234603881836l13.49000072479248-13.489999771118164c.262428283691406-.263077974319458.262428283691406-.688922166824341,0-.952000141143799l-1.663999557495117-1.657999336719513c-.262758255004883-.262887448072433-.688879013061523-.262992233037949-.951765060424805-.000234007835388l-.000234603881836.000234007835388-11.348000526428223,11.350999653339386-5.489999771118164-5.489999771118164c-.126497030258179-.127067565917969-.298705816268921-.19804048538208-.478000402450562-.197000026702881Z"/>
  </g>
</svg>