<svg xmlns="http://www.w3.org/2000/svg" width="70.468" height="73.573" viewBox="0 0 70.468 73.573"><g transform="translate(0.25 0.25)"><path d="M158.375,118.695a.943.943,0,0,0,.943-.943v-1.886a.944.944,0,0,0-.944-.942.882.882,0,0,0-.941.82.814.814,0,0,0,0,.122v1.886a.943.943,0,0,0,.943.943" transform="translate(-117.26 -85.599)" fill="#aebed3"/><path d="M158.375,118.945a1.194,1.194,0,0,1-1.193-1.193v-1.877a1.065,1.065,0,0,1,0-.15,1.135,1.135,0,0,1,1.2-1.051,1.2,1.2,0,0,1,1.186,1.191v1.887A1.194,1.194,0,0,1,158.375,118.945Zm-.063-3.772a.634.634,0,0,0-.63.589.566.566,0,0,0,0,.086v1.9a.693.693,0,1,0,1.386,0v-1.886a.7.7,0,0,0-.694-.692h-.017Z" transform="translate(-117.26 -85.599)" fill="#aebed3"/><path d="M140.261,118.695a.943.943,0,0,0,.943-.943v-1.886a1.015,1.015,0,0,0-.944-.942.883.883,0,0,0-.942.942v1.886a.943.943,0,0,0,.943.943" transform="translate(-103.768 -85.599)" fill="#aebed3"/><path d="M140.261,118.945a1.194,1.194,0,0,1-1.193-1.193v-1.878a1.133,1.133,0,0,1,1.209-1.2,1.27,1.27,0,0,1,1.176,1.173v1.9A1.194,1.194,0,0,1,140.261,118.945Zm-.063-3.772a.633.633,0,0,0-.63.676v1.9a.693.693,0,0,0,1.386,0v-1.876a.768.768,0,0,0-.711-.7Z" transform="translate(-103.768 -85.599)" fill="#aebed3"/><path d="M121.778,118.695a.943.943,0,0,0,.943-.943v-1.886a1.015,1.015,0,0,0-.944-.942.882.882,0,0,0-.941.82.809.809,0,0,0,0,.122v1.886a.943.943,0,0,0,.943.943" transform="translate(-90.001 -85.599)" fill="#aebed3"/><path d="M121.778,118.945a1.194,1.194,0,0,1-1.193-1.193v-1.877a1.065,1.065,0,0,1,0-.15,1.135,1.135,0,0,1,1.208-1.05,1.27,1.27,0,0,1,1.176,1.173v1.9A1.194,1.194,0,0,1,121.778,118.945Zm-.063-3.772a.634.634,0,0,0-.63.589.57.57,0,0,0,0,.086v1.9a.693.693,0,1,0,1.386,0v-1.876a.768.768,0,0,0-.711-.7Z" transform="translate(-90.001 -85.599)" fill="#aebed3"/><path d="M158.375,149.376a.943.943,0,0,0,.943-.943v-1.886a.882.882,0,0,0-.819-.942.855.855,0,0,0-.125,0,.882.882,0,0,0-.941.82.814.814,0,0,0,0,.122v1.886a.943.943,0,0,0,.943.943" transform="translate(-117.26 -108.451)" fill="#aebed3"/><path d="M158.375,149.626a1.194,1.194,0,0,1-1.193-1.193v-1.877a1.07,1.07,0,0,1,0-.149,1.134,1.134,0,0,1,1.19-1.051,1.1,1.1,0,0,1,.144,0,1.132,1.132,0,0,1,1.051,1.2v1.878A1.194,1.194,0,0,1,158.375,149.626Zm-.063-3.772a.634.634,0,0,0-.63.589.571.571,0,0,0,0,.086v1.9a.693.693,0,1,0,1.386,0v-1.9a.632.632,0,0,0-.587-.675.6.6,0,0,0-.09,0h-.035Z" transform="translate(-117.26 -108.451)" fill="#aebed3"/><path d="M140.261,149.376a.943.943,0,0,0,.943-.943v-1.886a.945.945,0,0,0-.944-.942.883.883,0,0,0-.942.942v1.886a.943.943,0,0,0,.943.943" transform="translate(-103.768 -108.452)" fill="#aebed3"/><path d="M140.261,149.626a1.194,1.194,0,0,1-1.193-1.193v-1.878a1.133,1.133,0,0,1,1.2-1.2,1.2,1.2,0,0,1,1.186,1.191v1.887A1.194,1.194,0,0,1,140.261,149.626Zm-.063-3.772a.633.633,0,0,0-.63.676v1.9a.693.693,0,0,0,1.386,0v-1.886a.7.7,0,0,0-.694-.692h-.017Z" transform="translate(-103.768 -108.452)" fill="#aebed3"/><path d="M121.778,149.376a.943.943,0,0,0,.943-.943v-1.886a.944.944,0,0,0-.944-.942.882.882,0,0,0-.941.82.809.809,0,0,0,0,.122v1.886a.943.943,0,0,0,.943.943" transform="translate(-90.001 -108.452)" fill="#aebed3"/><path d="M121.778,149.626a1.194,1.194,0,0,1-1.193-1.193v-1.877a1.065,1.065,0,0,1,0-.149,1.135,1.135,0,0,1,1.2-1.051,1.2,1.2,0,0,1,1.186,1.191v1.887A1.194,1.194,0,0,1,121.778,149.626Zm-.063-3.772a.634.634,0,0,0-.63.589.569.569,0,0,0,0,.086v1.9a.693.693,0,1,0,1.386,0v-1.886a.7.7,0,0,0-.694-.692h-.017Z" transform="translate(-90.001 -108.452)" fill="#aebed3"/><path d="M158.375,179.678a.943.943,0,0,0,.943-.943V176.85a.947.947,0,0,0-1.886-.122.813.813,0,0,0,0,.122v1.886a.943.943,0,0,0,.943.943" transform="translate(-117.26 -131.022)" fill="#aebed3"/><path d="M158.375,179.928a1.194,1.194,0,0,1-1.193-1.193v-1.877a1.071,1.071,0,0,1,0-.149,1.2,1.2,0,0,1,2.385.149v1.877A1.194,1.194,0,0,1,158.375,179.928Zm-.063-3.772a.634.634,0,0,0-.63.589.574.574,0,0,0,0,.086v1.9a.693.693,0,1,0,1.386,0v-1.9a.632.632,0,0,0-.587-.675.641.641,0,0,0-.09,0h-.035Z" transform="translate(-117.26 -131.022)" fill="#aebed3"/><path d="M140.261,179.679a.943.943,0,0,0,.943-.943V176.85a.945.945,0,0,0-.944-.942.883.883,0,0,0-.942.942v1.886a.943.943,0,0,0,.943.943" transform="translate(-103.768 -131.023)" fill="#aebed3"/><path d="M140.261,179.929a1.194,1.194,0,0,1-1.193-1.193v-1.878a1.133,1.133,0,0,1,1.2-1.2,1.2,1.2,0,0,1,1.186,1.191v1.886A1.194,1.194,0,0,1,140.261,179.929Zm-.063-3.772a.633.633,0,0,0-.63.677v1.9a.693.693,0,1,0,1.386,0V176.85a.7.7,0,0,0-.694-.692h-.017Z" transform="translate(-103.768 -131.023)" fill="#aebed3"/><path d="M121.778,179.679a.943.943,0,0,0,.943-.943V176.85a.944.944,0,0,0-.944-.942.882.882,0,0,0-.941.82.81.81,0,0,0,0,.122v1.886a.943.943,0,0,0,.943.943" transform="translate(-90.001 -131.023)" fill="#aebed3"/><path d="M121.778,179.929a1.194,1.194,0,0,1-1.193-1.193v-1.877a1.066,1.066,0,0,1,0-.149,1.135,1.135,0,0,1,1.2-1.051,1.2,1.2,0,0,1,1.186,1.191v1.886A1.194,1.194,0,0,1,121.778,179.929Zm-.063-3.772a.634.634,0,0,0-.63.589.571.571,0,0,0,0,.086v1.9a.693.693,0,1,0,1.386,0V176.85a.7.7,0,0,0-.694-.692h-.017Z" transform="translate(-90.001 -131.023)" fill="#aebed3"/><path d="M158.375,209.979a.943.943,0,0,0,.943-.943V207.15a.944.944,0,0,0-.944-.942.882.882,0,0,0-.941.82.814.814,0,0,0,0,.122v1.886a.943.943,0,0,0,.943.943" transform="translate(-117.26 -153.591)" fill="#aebed3"/><path d="M158.375,210.229a1.194,1.194,0,0,1-1.193-1.193v-1.877a1.063,1.063,0,0,1,0-.15,1.135,1.135,0,0,1,1.2-1.051,1.2,1.2,0,0,1,1.186,1.191v1.887A1.194,1.194,0,0,1,158.375,210.229Zm-.063-3.772a.634.634,0,0,0-.63.589.567.567,0,0,0,0,.086v1.9a.693.693,0,1,0,1.386,0V207.15a.7.7,0,0,0-.694-.692h-.017Z" transform="translate(-117.26 -153.591)" fill="#aebed3"/><path d="M140.261,209.979a.943.943,0,0,0,.943-.943V207.15a1.015,1.015,0,0,0-.944-.942.883.883,0,0,0-.942.942v1.886a.943.943,0,0,0,.943.943" transform="translate(-103.768 -153.591)" fill="#aebed3"/><path d="M140.261,210.229a1.194,1.194,0,0,1-1.193-1.193v-1.878a1.133,1.133,0,0,1,1.209-1.2,1.27,1.27,0,0,1,1.176,1.173v1.9A1.194,1.194,0,0,1,140.261,210.229Zm-.063-3.772a.633.633,0,0,0-.63.676v1.9a.693.693,0,0,0,1.386,0V207.16a.768.768,0,0,0-.711-.7Z" transform="translate(-103.768 -153.591)" fill="#aebed3"/><path d="M121.778,209.979a.943.943,0,0,0,.943-.943V207.15a1.015,1.015,0,0,0-.944-.942.882.882,0,0,0-.941.82.81.81,0,0,0,0,.122v1.886a.943.943,0,0,0,.943.943" transform="translate(-90.001 -153.591)" fill="#aebed3"/><path d="M121.778,210.229a1.194,1.194,0,0,1-1.193-1.193v-1.877a1.064,1.064,0,0,1,0-.15,1.135,1.135,0,0,1,1.208-1.05,1.27,1.27,0,0,1,1.176,1.173v1.9A1.194,1.194,0,0,1,121.778,210.229Zm-.063-3.772a.634.634,0,0,0-.63.589.57.57,0,0,0,0,.086v1.9a.693.693,0,1,0,1.386,0V207.16a.768.768,0,0,0-.711-.7Z" transform="translate(-90.001 -153.591)" fill="#aebed3"/><path d="M158.375,240.649a.943.943,0,0,0,.943-.943v-1.886a.947.947,0,0,0-1.886-.122.814.814,0,0,0,0,.122v1.886a.943.943,0,0,0,.943.943" transform="translate(-117.26 -176.436)" fill="#aebed3"/><path d="M158.375,240.9a1.194,1.194,0,0,1-1.193-1.193V237.83a1.07,1.07,0,0,1,0-.149,1.2,1.2,0,0,1,2.385.149v1.878A1.194,1.194,0,0,1,158.375,240.9Zm-.063-3.772a.634.634,0,0,0-.63.589.571.571,0,0,0,0,.086v1.9a.693.693,0,1,0,1.386,0v-1.9a.632.632,0,0,0-.587-.675.648.648,0,0,0-.089,0h-.036Z" transform="translate(-117.26 -176.436)" fill="#aebed3"/><path d="M140.261,240.65a.943.943,0,0,0,.943-.943v-1.886a.945.945,0,0,0-.944-.942.883.883,0,0,0-.942.942v1.886a.943.943,0,0,0,.943.943" transform="translate(-103.768 -176.436)" fill="#aebed3"/><path d="M140.261,240.9a1.194,1.194,0,0,1-1.193-1.193v-1.878a1.133,1.133,0,0,1,1.2-1.2,1.2,1.2,0,0,1,1.186,1.191v1.887A1.194,1.194,0,0,1,140.261,240.9Zm-.063-3.772a.633.633,0,0,0-.63.676v1.9a.693.693,0,0,0,1.386,0v-1.886a.7.7,0,0,0-.694-.692h-.017Z" transform="translate(-103.768 -176.436)" fill="#aebed3"/><path d="M121.778,240.65a.943.943,0,0,0,.943-.943v-1.886a.944.944,0,0,0-.944-.942.882.882,0,0,0-.941.82.809.809,0,0,0,0,.122v1.886a.943.943,0,0,0,.943.943" transform="translate(-90.001 -176.436)" fill="#aebed3"/><path d="M121.778,240.9a1.194,1.194,0,0,1-1.193-1.193V237.83a1.061,1.061,0,0,1,0-.15,1.135,1.135,0,0,1,1.2-1.051,1.2,1.2,0,0,1,1.186,1.191v1.887A1.194,1.194,0,0,1,121.778,240.9Zm-.063-3.772a.634.634,0,0,0-.63.589.569.569,0,0,0,0,.086v1.9a.693.693,0,1,0,1.386,0v-1.886a.7.7,0,0,0-.694-.692h-.017Z" transform="translate(-90.001 -176.436)" fill="#aebed3"/><path d="M77.075,21.439a.882.882,0,0,0-.941.82.808.808,0,0,0,0,.122v1.98a.943.943,0,0,0,1.886,0V22.38a.944.944,0,0,0-.944-.941" transform="translate(-56.706 -15.967)" fill="#aebed3"/><path d="M77.076,25.553a1.194,1.194,0,0,1-1.193-1.193V22.389a1.06,1.06,0,0,1,0-.149,1.134,1.134,0,0,1,1.2-1.051,1.2,1.2,0,0,1,1.186,1.191V24.36A1.194,1.194,0,0,1,77.076,25.553Zm-.063-3.867a.634.634,0,0,0-.63.589.566.566,0,0,0,0,.086v2a.693.693,0,0,0,1.386,0V22.38a.7.7,0,0,0-.694-.691h-.017Z" transform="translate(-56.706 -15.967)" fill="#aebed3"/><path d="M58.6,21.439a.883.883,0,0,0-.942.941v1.98a.943.943,0,0,0,1.886,0V22.38a.945.945,0,0,0-.944-.941" transform="translate(-42.947 -15.967)" fill="#aebed3"/><path d="M58.6,25.553a1.194,1.194,0,0,1-1.193-1.193V22.388a1.133,1.133,0,0,1,1.2-1.2,1.2,1.2,0,0,1,1.186,1.19V24.36A1.194,1.194,0,0,1,58.6,25.553Zm-.063-3.867a.633.633,0,0,0-.63.676v2a.693.693,0,0,0,1.386,0V22.38a.7.7,0,0,0-.694-.691h-.017Z" transform="translate(-42.947 -15.967)" fill="#aebed3"/><path d="M77.2,53.584a.9.9,0,0,0-1.067.942v1.98a.943.943,0,1,0,1.886,0v-1.98a.883.883,0,0,0-.819-.942" transform="translate(-56.705 -39.91)" fill="#aebed3"/><path d="M77.076,57.7a1.194,1.194,0,0,1-1.193-1.193V54.534a1.133,1.133,0,0,1,1.191-1.2,1.148,1.148,0,0,1,.142,0,1.133,1.133,0,0,1,1.053,1.2v1.972A1.194,1.194,0,0,1,77.076,57.7Zm-.063-3.867a.633.633,0,0,0-.63.676v2a.693.693,0,1,0,1.386,0v-2a.633.633,0,0,0-.587-.675.642.642,0,0,0-.089,0h-.036Z" transform="translate(-56.705 -39.91)" fill="#aebed3"/><path d="M96.273,21.45a.943.943,0,0,0-.943.943v1.98a.945.945,0,1,0,1.886,0v-1.98a.943.943,0,0,0-.943-.943" transform="translate(-71.005 -15.977)" fill="#aebed3"/><path d="M96.211,25.567l-.078,0a1.132,1.132,0,0,1-1.052-1.2V22.393a1.193,1.193,0,0,1,2.386,0v1.972a1.133,1.133,0,0,1-1.13,1.2c-.021,0-.041,0-.061,0Zm.062-3.867a.694.694,0,0,0-.693.693v2a.633.633,0,0,0,.587.675.643.643,0,0,0,.089,0h.036a.633.633,0,0,0,.675-.675v-2A.694.694,0,0,0,96.273,21.7Z" transform="translate(-71.005 -15.977)" fill="#aebed3"/><path d="M96.28,53.6a.943.943,0,0,0-.943.943v1.98a.944.944,0,0,0,.944.942.883.883,0,0,0,.942-.942v-1.98a.943.943,0,0,0-.943-.943" transform="translate(-71.011 -39.921)" fill="#aebed3"/><path d="M96.343,57.713l-.07,0a1.2,1.2,0,0,1-1.186-1.191V54.539a1.193,1.193,0,0,1,2.386,0v1.972a1.133,1.133,0,0,1-1.13,1.2Zm-.063-3.867a.694.694,0,0,0-.693.693v1.98a.7.7,0,0,0,.694.692H96.3a.633.633,0,0,0,.675-.675v-2A.694.694,0,0,0,96.28,53.846Z" transform="translate(-71.011 -39.921)" fill="#aebed3"/><path d="M58.729,53.584a1.027,1.027,0,0,0-1.067.82.968.968,0,0,0,0,.122v1.98a.943.943,0,1,0,1.886,0v-1.98a.883.883,0,0,0-.819-.942" transform="translate(-42.948 -39.91)" fill="#aebed3"/><path d="M58.605,57.7a1.194,1.194,0,0,1-1.193-1.193V54.533a1.219,1.219,0,0,1,0-.145A1.136,1.136,0,0,1,58.6,53.334a1.148,1.148,0,0,1,.142,0,1.133,1.133,0,0,1,1.053,1.2v1.972A1.194,1.194,0,0,1,58.605,57.7Zm-.063-3.867a.634.634,0,0,0-.63.589.711.711,0,0,0,0,.089v2a.693.693,0,1,0,1.386,0v-2a.633.633,0,0,0-.587-.675.643.643,0,0,0-.089,0h-.036Z" transform="translate(-42.948 -39.91)" fill="#aebed3"/><path d="M77.075,85.362a.882.882,0,0,0-.941.82.808.808,0,0,0,0,.122v1.98a.943.943,0,1,0,1.886,0V86.3a.944.944,0,0,0-.944-.941" transform="translate(-56.706 -63.579)" fill="#aebed3"/><path d="M77.076,89.476a1.194,1.194,0,0,1-1.193-1.193V86.312a1.06,1.06,0,0,1,0-.149,1.134,1.134,0,0,1,1.2-1.051,1.2,1.2,0,0,1,1.186,1.19v1.981A1.194,1.194,0,0,1,77.076,89.476Zm-.063-3.867a.634.634,0,0,0-.63.589.566.566,0,0,0,0,.086v2a.693.693,0,1,0,1.386,0V86.3a.7.7,0,0,0-.694-.691h-.017Z" transform="translate(-56.706 -63.579)" fill="#aebed3"/><path d="M58.6,85.362a.883.883,0,0,0-.942.941v1.98a.943.943,0,1,0,1.886,0V86.3a.945.945,0,0,0-.944-.941" transform="translate(-42.947 -63.579)" fill="#aebed3"/><path d="M58.6,89.476a1.194,1.194,0,0,1-1.193-1.193V86.311a1.133,1.133,0,0,1,1.2-1.2A1.2,1.2,0,0,1,59.8,86.3v1.981A1.194,1.194,0,0,1,58.6,89.476Zm-.063-3.867a.633.633,0,0,0-.63.676v2a.693.693,0,1,0,1.386,0V86.3a.7.7,0,0,0-.694-.691h-.017Z" transform="translate(-42.947 -63.579)" fill="#aebed3"/><path d="M77.2,117.518a.9.9,0,0,0-1.067.942v1.98a.943.943,0,1,0,1.886,0v-1.98a.883.883,0,0,0-.819-.942" transform="translate(-56.705 -87.531)" fill="#aebed3"/><path d="M77.076,121.633a1.194,1.194,0,0,1-1.193-1.193v-1.972a1.193,1.193,0,1,1,2.386,0v1.972A1.194,1.194,0,0,1,77.076,121.633Zm-.063-3.867a.633.633,0,0,0-.63.676v2a.693.693,0,1,0,1.386,0v-2a.634.634,0,0,0-.587-.675.643.643,0,0,0-.089,0h-.036Z" transform="translate(-56.705 -87.531)" fill="#aebed3"/><path d="M58.729,117.518a1.027,1.027,0,0,0-1.067.82.968.968,0,0,0,0,.122v1.98a.943.943,0,1,0,1.886,0v-1.98a.883.883,0,0,0-.819-.942" transform="translate(-42.948 -87.531)" fill="#aebed3"/><path d="M58.605,121.633a1.194,1.194,0,0,1-1.193-1.193v-1.973a1.219,1.219,0,0,1,0-.145,1.2,1.2,0,0,1,2.385.146v1.972A1.194,1.194,0,0,1,58.605,121.633Zm-.063-3.867a.634.634,0,0,0-.63.589.711.711,0,0,0,0,.089v2a.693.693,0,1,0,1.386,0v-2a.634.634,0,0,0-.587-.675.643.643,0,0,0-.089,0h-.036Z" transform="translate(-42.948 -87.531)" fill="#aebed3"/><path d="M77.075,149.3a.882.882,0,0,0-.941.82.808.808,0,0,0,0,.122v1.98a.943.943,0,1,0,1.886,0v-1.98a.944.944,0,0,0-.944-.941" transform="translate(-56.706 -111.201)" fill="#aebed3"/><path d="M77.076,153.411a1.194,1.194,0,0,1-1.193-1.193v-1.971a1.06,1.06,0,0,1,0-.149,1.135,1.135,0,0,1,1.2-1.051,1.2,1.2,0,0,1,1.186,1.191v1.981A1.194,1.194,0,0,1,77.076,153.411Zm-.063-3.867a.634.634,0,0,0-.63.589.566.566,0,0,0,0,.086v2a.693.693,0,1,0,1.386,0v-1.98a.7.7,0,0,0-.694-.691h-.017Z" transform="translate(-56.706 -111.201)" fill="#aebed3"/><path d="M58.6,149.3a.883.883,0,0,0-.942.941v1.98a.943.943,0,1,0,1.886,0v-1.98a.944.944,0,0,0-.944-.941" transform="translate(-42.947 -111.201)" fill="#aebed3"/><path d="M58.6,153.411a1.194,1.194,0,0,1-1.193-1.193v-1.972a1.133,1.133,0,0,1,1.2-1.2,1.2,1.2,0,0,1,1.186,1.19v1.981A1.194,1.194,0,0,1,58.6,153.411Zm-.063-3.867a.633.633,0,0,0-.63.676v2a.693.693,0,1,0,1.386,0v-1.98a.7.7,0,0,0-.694-.691h-.017Z" transform="translate(-42.947 -111.201)" fill="#aebed3"/><path d="M69.966,72.133v0a.883.883,0,0,0-.942-.942H66.762V38.849a.882.882,0,0,0-.82-.941.81.81,0,0,0-.122,0H61.484V5.378a.883.883,0,0,0-.942-.941H40.931a.882.882,0,0,0-.942.941v11.5l-8.205,4.337V.944A.883.883,0,0,0,30.965,0a.852.852,0,0,0-.125,0H10.1a.882.882,0,0,0-.941.941V45.828H4.535a.883.883,0,0,0-.944.816.893.893,0,0,0,0,.125V71.188H.943a.943.943,0,0,0,0,1.886H69.118a.883.883,0,0,0,.849-.915c0-.009,0-.018,0-.026M14.956,57.578a4.248,4.248,0,0,1,4.466,4.466v9.147H10.937V62.044a4.248,4.248,0,0,1,4.019-4.466m9.75,13.613h-3.4V62.044a6.131,6.131,0,1,0-12.256-.38q-.006.19,0,.38v9.147H5.376V47.714H24.705Zm.1-45.731V45.828H11.037l0-43.939H29.892V22.162l-4.619,2.451a.988.988,0,0,0-.471.847M45.544,71.191l-18.858,0V26.028l18.858-9.806Zm1.321-57.42a.856.856,0,0,0-.941,0L41.869,15.94l0-9.62H59.592V37.908H47.335V14.619a1.123,1.123,0,0,0-.471-.847M64.967,71.2H47.43v-5H64.967Zm0-6.979H47.43v-4.9H64.967Zm0-6.79H47.43v-4.9H64.967Zm0-6.79H47.43V46.019H64.967Zm0-6.514-.094.006H47.43V39.794H64.967Z" transform="translate(0 0)" fill="#aebed3"/><path d="M69.123,73.324H.943a1.193,1.193,0,0,1,0-2.386h2.4V46.777a1.133,1.133,0,0,1,1.2-1.2H8.9V.952a1.132,1.132,0,0,1,1.2-1.2H30.831a1.1,1.1,0,0,1,.152,0,1.133,1.133,0,0,1,1.051,1.2V20.8l7.705-4.072V5.386a1.132,1.132,0,0,1,1.2-1.2h19.6a1.133,1.133,0,0,1,1.2,1.2V37.658h4.078a1.06,1.06,0,0,1,.15,0,1.132,1.132,0,0,1,1.051,1.2V70.944h2a1.133,1.133,0,0,1,1.2,1.191c0,.006,0,.011,0,.017a1.133,1.133,0,0,1-1.089,1.172ZM.943,71.438a.693.693,0,0,0,0,1.386h68.17a.633.633,0,0,0,.6-.656c0-.008,0-.013,0-.019l.141-.009-.142,0,.164-.006-.163-.011h0a.633.633,0,0,0-.675-.674h-2.53V38.832a.632.632,0,0,0-.587-.675.551.551,0,0,0-.086,0H61.234V5.361a.633.633,0,0,0-.587-.675.638.638,0,0,0-.087,0H40.913a.632.632,0,0,0-.675.675V17.032l-8.705,4.6V.927a.633.633,0,0,0-.587-.675.594.594,0,0,0-.089,0H10.078A.632.632,0,0,0,9.4.927V46.078H4.517a.633.633,0,0,0-.677.675V71.438Zm64.274.009H47.18v-5.5H65.217Zm-17.537-.5H64.717v-4.5H47.68Zm-21.244.5V25.876L45.794,15.811v55.63Zm.5-45.264V70.944l18.358,0V16.634Zm-1.98,45.261h-3.9v-9.4a5.881,5.881,0,0,0-5.7-6.061l-.185,0a5.853,5.853,0,0,0-5.875,5.7c0,.121,0,.243,0,.364v9.4H5.126V47.464H24.955Zm-3.4-.5h2.9V47.964H5.626V70.941H8.8V62.048c0-.13,0-.261,0-.391a6.381,6.381,0,0,1,6.375-6.184c.067,0,.134,0,.2,0a6.381,6.381,0,0,1,6.181,6.572Zm-1.889.5H10.687v-9.39a4.5,4.5,0,0,1,4.256-4.722c.08,0,.161-.006.24-.006a4.5,4.5,0,0,1,4.489,4.728Zm-8.485-.5h7.985v-8.91a4,4,0,0,0-3.989-4.209c-.071,0-.143,0-.214.006a4,4,0,0,0-3.783,4.2v8.91Zm54.03-6.473H47.18v-5.4H65.217Zm-17.537-.5H64.717v-4.4H47.68Zm17.537-6.29H47.18v-5.4H65.217Zm-17.537-.5H64.717v-4.4H47.68Zm17.537-6.29H47.18V45.769H65.217Zm-17.537-.5H64.717V46.269H47.68Zm-22.627-4.31H10.787l0-44.439H30.142V22.312L25.4,24.83a.742.742,0,0,0-.345.629Zm-13.766-.5H24.553V25.46a1.245,1.245,0,0,1,.59-1.06l.014-.008,4.486-2.38V2.139H11.284Zm53.594-1.2H47.18V39.544H65.217v4.816Zm-17.2-.5H64.717V40.044H47.68Zm12.162-5.723H47.085V14.627a.869.869,0,0,0-.362-.649.606.606,0,0,0-.663,0l-.02.012-4.422,2.365,0-10.288H59.842Zm-12.257-.5H59.342V6.569H42.116l0,8.953L45.8,13.556A1.106,1.106,0,0,1,47,13.563l.007,0a1.367,1.367,0,0,1,.576,1.036V37.658Z" transform="translate(0 0)" fill="#aebed3"/></g></svg>