<svg xmlns="http://www.w3.org/2000/svg" width="80.99" height="85.54" viewBox="0 0 80.99 85.54"><g transform="translate(0.25 0.25)"><path d="M123.323,146.377h0a1.1,1.1,0,1,0-1.635,1.472l5.506,5.15a1.094,1.094,0,0,0,.817.365.762.762,0,0,0,.114-.007,1.094,1.094,0,0,0,.834-.543l7.5-12.986a1.1,1.1,0,1,0-1.906-1.1L127.812,150.4Z" transform="translate(-88.417 -100.632)" fill="#aebed3"/><path d="M128.017,153.613h-.008a1.346,1.346,0,0,1-.994-.44l-5.513-5.158a1.35,1.35,0,0,1,2-1.818l4.252,3.813,6.587-11.408a1.349,1.349,0,0,1,1.844-.494,1.35,1.35,0,0,1,.494,1.844l-7.5,12.986a1.348,1.348,0,0,1-1.02.666A1.013,1.013,0,0,1,128.017,153.613Zm-6.15-5.939,5.513,5.158a.846.846,0,0,0,.63.282h.007a.511.511,0,0,0,.072,0h.009a.847.847,0,0,0,.643-.419l7.5-12.986a.851.851,0,0,0-.735-1.275.853.853,0,0,0-.737.425l-6.895,11.942-4.647-4.168h-.016l-.075-.083a.85.85,0,0,0-1.271,1.13Z" transform="translate(-88.417 -100.632)" fill="#aebed3"/><path d="M75.891,112.6A19.968,19.968,0,1,0,95.859,92.636,19.99,19.99,0,0,0,75.891,112.6m37.761,0A17.794,17.794,0,1,1,95.859,94.81,17.814,17.814,0,0,1,113.652,112.6" transform="translate(-55.27 -67.465)" fill="#aebed3"/><path d="M95.859,132.821A20.218,20.218,0,1,1,116.076,112.6,20.24,20.24,0,0,1,95.859,132.821Zm0-39.935A19.718,19.718,0,1,0,115.576,112.6,19.74,19.74,0,0,0,95.859,92.886Zm0,37.761A18.044,18.044,0,1,1,113.9,112.6,18.064,18.064,0,0,1,95.859,130.647Zm0-35.588A17.544,17.544,0,1,0,113.4,112.6,17.564,17.564,0,0,0,95.859,95.06Z" transform="translate(-55.27 -67.465)" fill="#aebed3"/><path d="M131.847,13.081a6.54,6.54,0,1,0-6.54-6.541,6.548,6.548,0,0,0,6.54,6.541m0-10.907a4.367,4.367,0,1,1-4.366,4.366,4.372,4.372,0,0,1,4.366-4.366" transform="translate(-91.259)" fill="#aebed3"/><path d="M131.847,13.331a6.79,6.79,0,1,1,6.791-6.791A6.8,6.8,0,0,1,131.847,13.331Zm0-13.081a6.29,6.29,0,1,0,6.291,6.29A6.3,6.3,0,0,0,131.847.25Zm0,10.907a4.617,4.617,0,1,1,4.617-4.617A4.622,4.622,0,0,1,131.847,11.157Zm0-8.733a4.117,4.117,0,1,0,4.117,4.116A4.121,4.121,0,0,0,131.847,2.424Z" transform="translate(-91.259)" fill="#aebed3"/><path d="M13.08,218.079a6.54,6.54,0,1,0-6.54,6.54,6.548,6.548,0,0,0,6.54-6.54m-6.54,4.366a4.366,4.366,0,1,1,4.366-4.366,4.371,4.371,0,0,1-4.366,4.366" transform="translate(0 -154.06)" fill="#aebed3"/><path d="M6.54,224.869a6.79,6.79,0,1,1,6.79-6.79A6.8,6.8,0,0,1,6.54,224.869Zm0-13.08a6.29,6.29,0,1,0,6.29,6.29A6.3,6.3,0,0,0,6.54,211.789Zm0,10.907a4.616,4.616,0,1,1,4.616-4.616A4.621,4.621,0,0,1,6.54,222.7Zm0-8.733a4.116,4.116,0,1,0,4.116,4.117A4.121,4.121,0,0,0,6.54,213.963Z" transform="translate(0 -154.06)" fill="#aebed3"/><path d="M254.067,211.539a6.54,6.54,0,1,0,6.54,6.54,6.548,6.548,0,0,0-6.54-6.54m0,10.907a4.366,4.366,0,1,1,4.367-4.366,4.371,4.371,0,0,1-4.367,4.366" transform="translate(-180.269 -154.06)" fill="#aebed3"/><path d="M254.067,224.869a6.79,6.79,0,1,1,6.79-6.79A6.8,6.8,0,0,1,254.067,224.869Zm0-13.08a6.29,6.29,0,1,0,6.29,6.29A6.3,6.3,0,0,0,254.067,211.789Zm0,10.907a4.616,4.616,0,1,1,4.617-4.616A4.621,4.621,0,0,1,254.067,222.7Zm0-8.733a4.116,4.116,0,1,0,4.117,4.117A4.121,4.121,0,0,0,254.067,213.963Z" transform="translate(-180.269 -154.06)" fill="#aebed3"/><path d="M5.013,73.515a1.088,1.088,0,0,0,1.048-1.376A37.82,37.82,0,0,1,4.7,62.077,37.316,37.316,0,0,1,12.921,38.57,37.906,37.906,0,0,1,33.556,25.4a1.087,1.087,0,0,0-.509-2.113A40.093,40.093,0,0,0,11.222,37.214,39.469,39.469,0,0,0,2.529,62.077,39.994,39.994,0,0,0,3.966,72.717a1.088,1.088,0,0,0,1.047.8" transform="translate(-1.842 -16.939)" fill="#aebed3"/><path d="M5.013,73.765a1.341,1.341,0,0,1-1.288-.981A40.244,40.244,0,0,1,2.279,62.077a39.716,39.716,0,0,1,8.748-25.019A40.344,40.344,0,0,1,32.987,23.046a1.337,1.337,0,0,1,.627,2.6,37.655,37.655,0,0,0-20.5,13.08A37.068,37.068,0,0,0,4.953,62.077,37.57,37.57,0,0,0,6.3,72.072a1.338,1.338,0,0,1-1.289,1.693ZM33.3,23.509a.842.842,0,0,0-.2.024A39.842,39.842,0,0,0,11.418,37.37,39.221,39.221,0,0,0,2.779,62.077,39.744,39.744,0,0,0,4.207,72.65a.837.837,0,1,0,1.614-.445A38.07,38.07,0,0,1,4.453,62.077a37.563,37.563,0,0,1,8.273-23.663A38.157,38.157,0,0,1,33.5,25.16a.837.837,0,0,0-.2-1.651Z" transform="translate(-1.842 -16.939)" fill="#aebed3"/><path d="M179.807,25.4a37.907,37.907,0,0,1,20.634,13.168,37.317,37.317,0,0,1,8.219,23.508,37.784,37.784,0,0,1-1.448,10.386,1.087,1.087,0,1,0,2.09.6,39.96,39.96,0,0,0,1.532-10.983,39.469,39.469,0,0,0-8.693-24.863A40.092,40.092,0,0,0,180.316,23.29a1.087,1.087,0,0,0-.509,2.113" transform="translate(-130.344 -16.939)" fill="#aebed3"/><path d="M208.257,74.1a1.338,1.338,0,0,1-1.286-1.7,37.536,37.536,0,0,0,1.439-10.317,37.07,37.07,0,0,0-8.164-23.352,37.656,37.656,0,0,0-20.5-13.08,1.337,1.337,0,1,1,.627-2.6,40.342,40.342,0,0,1,21.96,14.012,39.717,39.717,0,0,1,8.748,25.019,40.209,40.209,0,0,1-1.541,11.052A1.342,1.342,0,0,1,208.257,74.1Zm-28.2-50.591a.837.837,0,0,0-.195,1.651,38.158,38.158,0,0,1,20.771,13.255,37.565,37.565,0,0,1,8.273,23.663,38.036,38.036,0,0,1-1.458,10.455.837.837,0,1,0,1.61.46,39.709,39.709,0,0,0,1.522-10.914,39.221,39.221,0,0,0-8.639-24.707,39.84,39.84,0,0,0-21.687-13.838A.841.841,0,0,0,180.06,23.509Z" transform="translate(-130.344 -16.939)" fill="#aebed3"/><path d="M97.308,259.422a37.375,37.375,0,0,1-27.471,11.871,37.834,37.834,0,0,1-27.789-12.212,1.087,1.087,0,0,0-1.6,1.471,40.015,40.015,0,0,0,29.39,12.916A39.529,39.529,0,0,0,98.89,260.912a1.087,1.087,0,0,0-1.582-1.49" transform="translate(-29.248 -188.427)" fill="#aebed3"/><path d="M69.837,273.717a40.265,40.265,0,0,1-29.574-13,1.337,1.337,0,0,1,1.969-1.809,37.584,37.584,0,0,0,27.6,12.132,37.128,37.128,0,0,0,27.289-11.792,1.337,1.337,0,0,1,1.89-.057,1.336,1.336,0,0,1,.057,1.89A39.776,39.776,0,0,1,69.837,273.717Zm-28.59-14.738a.837.837,0,0,0-.616,1.4,39.764,39.764,0,0,0,29.206,12.835,39.28,39.28,0,0,0,28.871-12.476.837.837,0,1,0-1.218-1.147,37.623,37.623,0,0,1-27.653,11.949A38.085,38.085,0,0,1,41.864,259.25.84.84,0,0,0,41.248,258.979Z" transform="translate(-29.248 -188.427)" fill="#aebed3"/></g></svg>