<svg xmlns="http://www.w3.org/2000/svg" width="84.847" height="71.711" viewBox="0 0 84.847 71.711"><g transform="translate(0.25 0.25)"><path d="M79.952,38.732h0l-.091-.043c-.088-.043-.176-.084-.265-.121L67.065,33.452h.126V11.764H65.725V32.9L35.334,20.493V0H33.868V19.895L23.251,15.559a9.671,9.671,0,0,0-2-.571c-.222-.038-.449-.069-.7-.094-.231-.023-.485-.038-.752-.043a9.617,9.617,0,0,0-.986.029c-.285.023-.535.053-.765.091l-13.5,3.022A5.424,5.424,0,0,0,.01,23.7l0,.035,4.124,25.74a11.013,11.013,0,0,0,4.663,8.2c.256.18.515.347.772.5s.493.275.735.392a11.064,11.064,0,0,0,1.747.678l43.839,11.53c.048.014.085.023.129.033l.093.023c.225.059.481.125.729.171.273.054.549.1.812.128a10.414,10.414,0,0,0,2.562.011l14.719-.33.074-.006a7.176,7.176,0,0,0,2.5-.791l.2-.107a7.134,7.134,0,0,0,3.493-5l3.03-17.932a7.675,7.675,0,0,0-4.281-8.24m2.279,7.9L79.2,64.563a5.137,5.137,0,0,1-2.036,3.276L30.209,52.388a7.4,7.4,0,0,1-5.033-6.61L21.831,17.212c.221.067.439.145.651.231L78.818,40.45l.069.032c.175.075.331.151.491.238s.32.186.472.29a5.647,5.647,0,0,1,2.377,5.616ZM60.009,69.115a7.734,7.734,0,0,1-.781.055,8.246,8.246,0,0,1-.856-.016,8.971,8.971,0,0,1-.925-.11c-.221-.039-.45-.088-.681-.147-.122-.031-.22-.057-.328-.087L12.6,57.282A9,9,0,0,1,7.79,53.847,8.933,8.933,0,0,1,6.16,49.288L2.036,23.521A3.4,3.4,0,0,1,4.894,20l13.5-3.021c.058-.009.1-.014.14-.019l.093-.011a7.452,7.452,0,0,1,.79-.065c.108,0,.217,0,.325,0l3.4,29.023a9.338,9.338,0,0,0,6.426,8.416L73.6,68.806l-13.516.3Z" transform="translate(0)" fill="#aebed3"/><path d="M58.982,71.461a10.729,10.729,0,0,1-1.357-.086c-.268-.031-.548-.075-.829-.13-.254-.047-.513-.114-.741-.174l-.092-.023c-.051-.012-.092-.022-.137-.035L11.983,59.48a11.378,11.378,0,0,1-1.787-.693c-.248-.12-.5-.255-.751-.4s-.526-.323-.79-.509A11.263,11.263,0,0,1,3.888,49.5L-.237,23.749l0-.035A5.677,5.677,0,0,1,4.5,17.747l13.51-3.023c.239-.039.5-.07.785-.093a9.91,9.91,0,0,1,1.011-.03c.271.005.531.02.771.044s.489.057.714.1a9.915,9.915,0,0,1,2.052.586l10.273,4.2V-.25h1.966V20.326l29.89,12.207V11.514h1.966V33.335l12.25,5c.08.032.157.068.244.11l.124.058a7.926,7.926,0,0,1,4.421,8.509L81.45,64.945a7.384,7.384,0,0,1-3.615,5.174l-.008,0-.2.107a7.417,7.417,0,0,1-2.582.818h-.012l-.088.006-14.707.33A10.659,10.659,0,0,1,58.982,71.461ZM12.121,59,55.962,70.531c.044.013.078.021.115.029l.1.025c.225.059.475.124.714.168.27.054.537.1.8.125a10.166,10.166,0,0,0,2.5.011l.024,0,14.713-.33.061,0a6.92,6.92,0,0,0,2.4-.763l.2-.106a6.886,6.886,0,0,0,3.367-4.822L83.987,46.93a7.426,7.426,0,0,0-4.018-7.913l-.216-.1c-.1-.046-.174-.083-.252-.115L66.97,33.683l.045-.231h-.075V12.014h-.966V33.277L35.084,20.661V.25h-.966V20.267L23.156,15.79a9.415,9.415,0,0,0-1.949-.556c-.214-.037-.436-.067-.679-.091-.227-.022-.474-.036-.732-.042a9.374,9.374,0,0,0-.96.028c-.273.022-.515.051-.738.087L4.589,18.239A5.178,5.178,0,0,0,.26,23.681l0,.023,4.124,25.75a10.763,10.763,0,0,0,4.557,8.014c.253.178.507.341.755.486s.481.269.718.383A10.882,10.882,0,0,0,12.121,59ZM58.957,69.424c-.2,0-.4-.007-.6-.021a9.211,9.211,0,0,1-.95-.113c-.228-.04-.464-.091-.7-.151-.119-.03-.219-.057-.333-.088L12.529,57.522a9.249,9.249,0,0,1-4.943-3.531,9.183,9.183,0,0,1-1.674-4.674L1.787,23.533a3.655,3.655,0,0,1,3.059-3.781l13.512-3.023c.062-.01.106-.015.149-.02L18.6,16.7a7.661,7.661,0,0,1,.812-.067c.113,0,.225,0,.337,0l.218,0,3.427,29.256a9.093,9.093,0,0,0,6.255,8.192L73.676,68.568l-.073.487-13.509.3-.061,0c-.254.031-.523.05-.8.056C59.144,69.422,59.051,69.424,58.957,69.424ZM12.666,57.042,56.5,68.568c.113.031.21.057.326.086.225.057.447.105.663.143a8.707,8.707,0,0,0,.9.107,8.016,8.016,0,0,0,.831.016,7.551,7.551,0,0,0,.759-.053h.012l.087-.006,12.061-.271L29.492,54.556a9.591,9.591,0,0,1-6.6-8.632L19.522,17.129l-.1,0a7.184,7.184,0,0,0-.763.063l-.1.012c-.036,0-.073.009-.123.016L4.934,20.244A3.155,3.155,0,0,0,2.286,23.5L6.41,49.271A8.683,8.683,0,0,0,7.994,53.7a8.75,8.75,0,0,0,4.673,3.34ZM77.209,68.116,30.131,52.626a7.647,7.647,0,0,1-5.2-6.826L21.539,16.862l.365.111c.227.069.454.15.673.239L78.922,40.223l.066.03c.18.078.341.156.509.247s.334.194.494.3a5.9,5.9,0,0,1,2.519,5.622h0l-.036.243L79.448,64.6a5.4,5.4,0,0,1-2.135,3.437ZM22.125,17.574l3.3,28.193a7.144,7.144,0,0,0,4.862,6.385L77.12,67.561a4.9,4.9,0,0,0,1.835-3.04l2.989-17.693h0l.037-.243a5.4,5.4,0,0,0-2.271-5.367c-.146-.1-.3-.194-.452-.278s-.3-.156-.47-.228l-.069-.032-56.33-23Q22.258,17.622,22.125,17.574Z" transform="translate(0)" fill="#aebed3"/><path d="M176.076,178.863l-.131.376.131-.379-10.633-3.681a1.016,1.016,0,0,0-1.293.623,1.015,1.015,0,0,0,.626,1.3l10.652,3.687a1.015,1.015,0,0,0,.648-1.924m-.482,1.385a.4.4,0,0,1-.05-.021l.051.018Z" transform="translate(-115.976 -123.772)" fill="#aebed3"/><path d="M175.739,181.086a1.269,1.269,0,0,1-.388-.061l-.006,0-10.652-3.687a1.267,1.267,0,0,1,.414-2.463h.012a1.267,1.267,0,0,1,.4.071l10.869,3.763-.009.027a1.271,1.271,0,0,1,.555,1.5l0,.006A1.273,1.273,0,0,1,175.739,181.086Zm-.232-.536a.765.765,0,0,0,.709-1.328l-.035.1-.472-.164.049-.143-10.4-3.6a.766.766,0,0,0-.24-.043h-.008a.767.767,0,0,0-.255,1.491Z" transform="translate(-115.976 -123.772)" fill="#aebed3"/></g></svg>