<svg xmlns="http://www.w3.org/2000/svg" width="85.179" height="82.851" viewBox="0 0 85.179 82.851"><g transform="translate(0 0)"><path d="M357.759,59.622l-1.435-1.084A41.447,41.447,0,0,0,302.463,3.255,1.2,1.2,0,1,0,303.4,5.47a39.042,39.042,0,0,1,50.954,51.581l-1.328-1a5.712,5.712,0,0,0-7.992,1.133l-3.82,5.078a1.249,1.249,0,0,0,.25,1.745l1.975,1.488-2.064,2.744a1.25,1.25,0,0,0,.253,1.748,1.233,1.233,0,0,0,1.37.078,1.382,1.382,0,0,0,.347-.292l2.091-2.777,3.916,2.946-2.064,2.744a1.25,1.25,0,0,0-.236.923,1.251,1.251,0,0,0,1.232,1.073,1.26,1.26,0,0,0,.628-.17,1.387,1.387,0,0,0,.346-.292l2.091-2.777,1.976,1.49a1.232,1.232,0,0,0,1.37.079,1.387,1.387,0,0,0,.347-.292l3.847-5.111a5.709,5.709,0,0,0-1.13-7.984m-6.225-1.6,4.732,3.555h0a3.214,3.214,0,0,1,.635,4.5l-.063.084,0,.01-3,3.992-1.974-1.488-5.911-4.445-1.972-1.484,3.068-4.077a3.207,3.207,0,0,1,4.491-.641" transform="translate(-274.852 0.001)" fill="#aebed3"/><path d="M63.25,187.326a1.194,1.194,0,0,0-.915.1,39.029,39.029,0,0,1-51.32-55.579A1.2,1.2,0,1,0,9,130.53a41.211,41.211,0,0,0-4.834,10.289,6.37,6.37,0,0,1-1.642-3.539,6.693,6.693,0,0,1,.468-3.223,9.539,9.539,0,0,1,2.073-3.151c2.856-2.961,7.568-4.723,9.816-5.436.145,2.035.476,7.06.35,8.823a10.173,10.173,0,0,1-1.931,5.422,7.148,7.148,0,0,1-5.416,2.8,1.232,1.232,0,0,0-.859.428,1.25,1.25,0,0,0-.3.9,1.233,1.233,0,0,0,.428.859,1.256,1.256,0,0,0,.82.3l.087,0a10.382,10.382,0,0,0,4.035-1.093,9.448,9.448,0,0,0,3.191-2.678,12.662,12.662,0,0,0,2.434-6.757c.158-2.134-.264-8.117-.453-10.589l-.01-.129a1.226,1.226,0,0,0-.517-.921,1.246,1.246,0,0,0-1.007-.2,34.077,34.077,0,0,0-4.537,1.529,23.28,23.28,0,0,0-7.92,5.015,12.188,12.188,0,0,0-2.6,3.978,9.22,9.22,0,0,0-.618,4.4,9.041,9.041,0,0,0,3.368,5.992,41.625,41.625,0,0,0-1.11,9.557,41.438,41.438,0,0,0,61.172,36.425,1.2,1.2,0,0,0-.233-2.21" transform="translate(0 -111.685)" fill="#aebed3"/><path d="M339.736,181.533l0,19.489a1.219,1.219,0,0,0,1.7,1.123,1.214,1.214,0,0,0,.651-.67l5.761-14.489c.014-.035.026-.071.037-.109l.985-2.474c.014-.028.027-.057.039-.086l.119-.3c.013-.033.025-.066.035-.1l6.432-16.155a1.2,1.2,0,0,0,.13-.549,1.227,1.227,0,0,0-1.226-1.226H342.19l0-19.489a1.229,1.229,0,0,0-.77-1.137,1.221,1.221,0,0,0-1.585.684L328.7,174.023l-2.28,5.735a1.2,1.2,0,0,0-.131.549,1.227,1.227,0,0,0,1.226,1.226Zm1.225-13.093h11.645l-7.448,18.707a1.207,1.207,0,0,0-.042.128l-2.927,7.36V180.308a1.227,1.227,0,0,0-1.226-1.225H329.319l2.695-6.778c.006-.012.012-.025.017-.037l.119-.3c.007-.017.012-.033.018-.05l7.569-19.032v14.327a1.227,1.227,0,0,0,1.226,1.226" transform="translate(-297.227 -132.335)" fill="#aebed3"/></g></svg>