<svg xmlns="http://www.w3.org/2000/svg" xmlns:xlink="http://www.w3.org/1999/xlink" width="355.975" height="43.539" viewBox="0 0 355.975 43.539"><defs><clipPath id="a"><rect width="247.191" height="43.539" fill="none"/></clipPath></defs><g transform="translate(-613.717 -5139.501)"><text transform="translate(870.692 5174.312)" font-size="32" font-family="Raleway-ExtraLight, Raleway" font-weight="200"><tspan x="0" y="0">Ceiling</tspan></text><g transform="translate(613.717 5139.5)"><g transform="translate(0 0)" clip-path="url(#a)"><path d="M287.285,42.263a.487.487,0,0,1-.3-.105A23.608,23.608,0,1,1,319.8,8.591a.491.491,0,1,1-.758.625,22.627,22.627,0,1,0-31.455,32.172.491.491,0,0,1-.3.876" transform="translate(-131.349 0)" fill="#0089ce"/><path d="M291.457,41.277a.488.488,0,0,1-.344-.141A19.8,19.8,0,0,1,316.5,10.9a.491.491,0,0,1-.57.8A18.819,18.819,0,0,0,291.8,40.437a.491.491,0,0,1-.344.841" transform="translate(-134.76 -3.411)" fill="#0089ce"/><path d="M295.821,43.206a.491.491,0,0,1-.4-.2,16.025,16.025,0,0,1,2.766-21.786.491.491,0,1,1,.625.757,15.041,15.041,0,0,0-2.6,20.45.49.49,0,0,1-.4.78" transform="translate(-138.146 -9.973)" fill="#0089ce"/><path d="M315.435,20.676h1.05l10.679,24.86h-1.3l-3.676-8.579H309.728l-3.676,8.579h-1.331Zm6.373,15.231-5.847-13.691-5.882,13.691Z" transform="translate(-143.986 -9.77)" fill="#040504"/><path d="M362,34.408A7.294,7.294,0,0,0,357.623,36a7.775,7.775,0,0,0-2.591,4.044V51.5h-1.191V33.288H355V37.91a8.868,8.868,0,0,1,2.521-3.151,6.7,6.7,0,0,1,3.361-1.436c.233-.023.449-.035.648-.035H362Z" transform="translate(-167.196 -15.729)" fill="#040504"/><path d="M383.97,34.408A7.294,7.294,0,0,0,379.594,36,7.775,7.775,0,0,0,377,40.046V51.5h-1.191V33.288h1.156V37.91a8.869,8.869,0,0,1,2.521-3.151,6.7,6.7,0,0,1,3.361-1.436c.233-.023.449-.035.648-.035h.473Z" transform="translate(-177.578 -15.729)" fill="#040504"/><path d="M400.351,51.595A6.216,6.216,0,0,1,398,51.157a6.055,6.055,0,0,1-1.891-1.19,5.435,5.435,0,0,1-1.26-1.769,5.323,5.323,0,0,1-.455-2.206,4.136,4.136,0,0,1,.56-2.118,5.259,5.259,0,0,1,1.558-1.663,7.713,7.713,0,0,1,2.381-1.086,11.274,11.274,0,0,1,3.028-.385,19.957,19.957,0,0,1,3.1.245,13.6,13.6,0,0,1,2.819.735V39.76a6.042,6.042,0,0,0-1.558-4.359,5.522,5.522,0,0,0-4.185-1.628,7.92,7.92,0,0,0-2.836.578,13.357,13.357,0,0,0-3.011,1.663l-.56-.876a11.751,11.751,0,0,1,6.478-2.381,6.682,6.682,0,0,1,5.024,1.89,7.118,7.118,0,0,1,1.838,5.182v9.524q0,.771.63.77v1.12a.623.623,0,0,1-.193.035h-.158a1.3,1.3,0,0,1-1-.438,1.521,1.521,0,0,1-.4-1.068V48.163a8.279,8.279,0,0,1-3.256,2.539,10.425,10.425,0,0,1-4.306.892m.14-1.015a10.081,10.081,0,0,0,2.608-.35,9.535,9.535,0,0,0,2.363-.963,6.316,6.316,0,0,0,1.716-1.418,2.649,2.649,0,0,0,.666-1.715V42.7a16.06,16.06,0,0,0-5.813-1.05,10.259,10.259,0,0,0-2.626.315,7,7,0,0,0-2.048.875,4.181,4.181,0,0,0-1.33,1.348,3.367,3.367,0,0,0-.473,1.768,4.308,4.308,0,0,0,.385,1.821,4.712,4.712,0,0,0,1.05,1.471,4.771,4.771,0,0,0,1.558.98,5.272,5.272,0,0,0,1.943.35" transform="translate(-186.36 -15.479)" fill="#040504"/><path d="M431.094,58.148a3.834,3.834,0,0,0,1.646-.245,1.373,1.373,0,0,0,.368-.368,6.133,6.133,0,0,0,.508-.946q.315-.683.84-1.891t1.366-3.2l-8.3-18.207h1.26l7.668,16.946,7.213-16.946h1.191l-10.4,24.369a2.5,2.5,0,0,1-1.926,1.506,4.883,4.883,0,0,1-.7.088q-.351.017-.735.017Z" transform="translate(-202.012 -15.729)" fill="#040504"/><path d="M258.884,63.606a.752.752,0,0,0-.223-.024h-.089V64h.145a.346.346,0,0,0,.21-.055.19.19,0,0,0,.073-.172.175.175,0,0,0-.118-.17m-.686,1.177,0-1.453c.09,0,.224,0,.4,0h.295a.614.614,0,0,1,.293.07.367.367,0,0,1,.191.347.315.315,0,0,1-.1.265.49.49,0,0,1-.253.095.548.548,0,0,1,.214.085.393.393,0,0,1,.132.328v.128c0,.014,0,.03,0,.035a.1.1,0,0,0,.008.052l.008.041h-.364a.848.848,0,0,1-.021-.2,1.2,1.2,0,0,0-.024-.179.2.2,0,0,0-.111-.109.594.594,0,0,0-.13-.023l-.092-.005h-.074v.516ZM258,63.3a1.083,1.083,0,0,0,.011,1.528,1.067,1.067,0,0,0,1.521-.005,1.059,1.059,0,0,0,.314-.772A1.075,1.075,0,0,0,258,63.3m1.686,1.691a1.312,1.312,0,1,1-.92-2.25,1.317,1.317,0,0,1,.92,2.25" transform="translate(-121.657 -29.646)" fill="#040504"/><path d="M11.388,20.259l-.841,4.931,7.195-.013L16.8,30.647l-7.2.014-1.9,10.893L0,41.568,4.637,14.639l16.99-.032-.938,5.635Zm12.1,13.37c-.415,2.585.765,3.98,3.466,3.975a4.458,4.458,0,0,0,3.607-1.651l6.092-.012a11.717,11.717,0,0,1-10.393,6.167C20.133,42.12,16.1,38.775,17.1,32.6c.965-5.96,5.757-9.558,11.771-9.57,6.413-.012,9.629,3.816,8.64,9.921l-.105.655ZM31.791,30.2a3.045,3.045,0,0,0-3.262-3.062,4.658,4.658,0,0,0-4.488,3.077Zm76.366,3.268c-.417,2.586.765,3.98,3.463,3.975a4.457,4.457,0,0,0,3.612-1.651l6.089-.012a11.725,11.725,0,0,1-10.39,6.168c-6.117.012-10.154-3.334-9.158-9.513.964-5.959,5.76-9.558,11.774-9.57,6.409-.012,9.624,3.816,8.638,9.921l-.111.655Zm8.307-3.427a3.043,3.043,0,0,0-3.256-3.063,4.657,4.657,0,0,0-4.491,3.077ZM37.171,41.5l4.308-27.57,6.044-.012L43.211,41.487Zm7.618,3.97L49.1,17.894l6.041-.012-4.31,27.575Zm30.168-12.98c-.935,6.074-6.379,9.542-12,9.552-5.6.011-10.021-3.4-9.084-9.513s6.372-9.56,12-9.57,10.013,3.431,9.087,9.531m-14.542.027c-.5,2.638.6,4.481,3.126,4.476s4.3-1.51,4.855-4.491c.461-2.491-.569-4.518-3.1-4.513s-4.345,1.677-4.885,4.528m74.766-4.495a6.986,6.986,0,0,0-3.278-.866c-.733,0-2.033.317-2.175,1.223-.192,1.22,1.765,1.391,2.611,1.563,2.867.591,4.879,1.98,4.362,5.292-.74,4.717-5.328,6.679-9.472,6.687a11.327,11.327,0,0,1-6.644-1.911l2.087-3.928c1.149.907,3.822,1.16,5.39,1.157.8,0,2.054-.386,2.2-1.365.215-1.4-1.759-1.462-3.664-1.982s-3.736-1.492-3.236-4.7c.689-4.391,4.964-6.35,8.866-6.357a13,13,0,0,1,5.714,1.14Zm-52,5.27,3.844-9.783,5.188-.01,1.3,9.787,4.3-9.8,6.81-.013L95.382,41.385l-5.759.011L88.4,31.585h-.09l-3.836,9.82-5.85.011L74.573,23.53l6.831-.013Z" transform="translate(0 -6.576)" fill="#040504"/><path d="M464.075,22.564a.967.967,0,0,0-.287-.031h-.115v.545h.187a.441.441,0,0,0,.271-.071.243.243,0,0,0,.095-.222.226.226,0,0,0-.152-.22m-.884,1.518,0-1.874c.117,0,.289,0,.52,0h.381a.8.8,0,0,1,.378.091.472.472,0,0,1,.246.447.4.4,0,0,1-.131.342.625.625,0,0,1-.326.122.707.707,0,0,1,.275.111.506.506,0,0,1,.17.423v.166c0,.017,0,.039,0,.046a.13.13,0,0,0,.011.067l.011.053h-.469a1.061,1.061,0,0,1-.027-.257,1.627,1.627,0,0,0-.031-.231.255.255,0,0,0-.143-.141.764.764,0,0,0-.168-.03l-.118-.007h-.1l0,.667Zm-.254-1.914a1.4,1.4,0,0,0,.014,1.971,1.378,1.378,0,0,0,1.963-.007,1.366,1.366,0,0,0,.405-1,1.387,1.387,0,0,0-2.382-.969m2.175,2.181a1.709,1.709,0,1,1,.5-1.212,1.635,1.635,0,0,1-.5,1.212" transform="translate(-218.42 -10.134)" fill="#040504"/></g></g></g></svg>