<svg width="17" height="30" viewBox="0 0 17 30" fill="none" xmlns="http://www.w3.org/2000/svg">
<path fill-rule="evenodd" clip-rule="evenodd" d="M0.35665 29.6611C0.469418 29.7685 0.603382 29.8537 0.750868 29.9119C0.898354 29.9701 1.05647 30 1.21614 30C1.37582 30 1.53394 29.9701 1.68142 29.9119C1.82891 29.8537 1.96287 29.7685 2.07564 29.6611L16.6433 15.8165C16.7564 15.7094 16.8461 15.582 16.9073 15.4419C16.9685 15.3017 17 15.1515 17 14.9997C17 14.8479 16.9685 14.6977 16.9073 14.5575C16.8461 14.4174 16.7564 14.29 16.6433 14.1829L2.07564 0.338335C1.84769 0.121701 1.53852 -3.54569e-06 1.21615 -3.60206e-06C0.893777 -3.65843e-06 0.584608 0.1217 0.356655 0.338335C0.128703 0.554972 0.000640695 0.848793 0.000640641 1.15516C0.000640588 1.46153 0.128703 1.75536 0.356655 1.97199L14.0673 14.9997L0.356651 28.0274C0.243597 28.1346 0.153901 28.2619 0.0927015 28.402C0.0315014 28.5422 2.28615e-07 28.6925 2.02082e-07 28.8442C1.75549e-07 28.996 0.0315013 29.1462 0.0927013 29.2864C0.153901 29.4266 0.243597 29.5539 0.35665 29.6611Z" fill="black"/>
</svg>
