<svg width="17" height="30" viewBox="0 0 17 30" fill="none" xmlns="http://www.w3.org/2000/svg">
<path fill-rule="evenodd" clip-rule="evenodd" d="M16.6433 0.338946C16.5306 0.231505 16.3966 0.146262 16.2491 0.0881004C16.1016 0.0299385 15.9435 0 15.7839 0C15.6242 0 15.4661 0.0299385 15.3186 0.0881004C15.1711 0.146262 15.0371 0.231505 14.9244 0.338946L0.356649 14.1835C0.243597 14.2906 0.153902 14.418 0.0927029 14.5581C0.0315018 14.6983 0 14.8485 0 15.0003C0 15.1521 0.0315018 15.3023 0.0927029 15.4425C0.153902 15.5826 0.243597 15.71 0.356649 15.8171L14.9244 29.6617C15.1523 29.8783 15.4615 30 15.7839 30C16.1062 30 16.4154 29.8783 16.6433 29.6617C16.8713 29.445 16.9994 29.1512 16.9994 28.8448C16.9994 28.5385 16.8713 28.2446 16.6433 28.028L2.93271 15.0003L16.6433 1.9726C16.7564 1.86543 16.8461 1.73812 16.9073 1.59795C16.9685 1.45779 17 1.30753 17 1.15577C17 1.00402 16.9685 0.853758 16.9073 0.713594C16.8461 0.573429 16.7564 0.446116 16.6433 0.338946Z" fill="black"/>
</svg>
