<svg width="58" height="52" viewBox="0 0 58 52" fill="none" xmlns="http://www.w3.org/2000/svg">
<path d="M20.6301 19.7055L20.6165 19.6914C19.3541 18.3754 18.1616 17.1323 16.0766 17.1323C14.3232 17.1323 13.1509 18.2449 12.4762 19.1783C11.6999 20.2522 11.1213 21.7243 10.9284 23.1158C10.2321 28.1716 11.4055 32.0174 14.1471 33.6668C15.0152 34.1872 15.9797 34.4511 17.0136 34.4511C18.5287 34.4511 20.1542 33.8786 21.7148 32.795C23.1189 31.8232 23.798 31.336 24.7423 30.6229L25.313 31.1005C24.5745 32.468 23.5632 33.4074 22.6721 34.2353L22.6517 34.2544C21.3225 35.4986 20.067 36.674 20.067 38.7278C20.067 40.4576 21.1948 41.6142 22.1409 42.2798C23.2295 43.0456 24.7217 43.6165 26.1316 43.8067C27.106 43.9361 28.0369 44.0017 28.8983 44.0017C32.6683 44.0017 35.4842 42.8046 36.8274 40.6309C38.1363 38.5142 37.8141 35.7918 35.9434 33.1617C34.9583 31.7764 34.4644 31.1065 33.7417 30.175L34.2258 29.612C35.6118 30.3405 36.5641 31.3382 37.4044 32.2185C38.6682 33.5432 39.862 34.7945 41.9536 34.7945C43.707 34.7945 44.8793 33.6819 45.554 32.7485C46.3303 31.6745 46.909 30.2025 47.1019 28.8108C47.8017 23.7515 46.6284 19.9046 43.883 18.2565L43.8566 18.2406C42.999 17.7307 42.0444 17.4722 41.0188 17.4722C39.5059 17.4722 37.8781 18.0449 36.3115 19.1282C34.9073 20.1001 34.2282 20.5874 33.284 21.3003L32.7134 20.8227C33.452 19.4552 34.4631 18.5158 35.355 17.6872L35.3632 17.6796C36.702 16.4329 37.9665 15.2555 37.9665 13.1954C37.9665 11.4656 36.8387 10.3091 35.8927 9.64345C34.804 8.87759 33.3119 8.30671 31.9015 8.11643C30.9431 7.98806 30.0125 7.92297 29.1355 7.92297C25.3653 7.92297 22.5494 9.11955 21.2063 11.2924C19.8974 13.409 20.2196 16.1314 22.0902 18.7615C23.0756 20.147 23.5694 20.8169 24.292 21.7483L23.8079 22.3112C22.4217 21.5826 21.4695 20.585 20.6301 19.7055ZM34.0227 23.3581C35.2829 22.3969 35.937 21.9237 37.5224 20.8264C38.7225 19.9957 39.9287 19.5567 41.0105 19.5567C41.6678 19.5567 42.2657 19.7161 42.7873 20.0305C43.7739 20.624 44.4962 21.7343 44.8763 23.2412C45.2172 24.5927 45.2825 26.2644 45.0681 28.0987H45.073L45.0135 28.5276C44.8894 29.4223 44.532 30.4192 44.0573 31.1941C43.4481 32.1885 42.7204 32.7141 41.9528 32.7141C40.7778 32.7141 40.0052 31.9085 38.9352 30.7928C37.8892 29.6959 36.5874 28.3308 34.4879 27.4275L34.2012 27.3041L34.2665 27.0024C34.3395 26.6651 34.3766 26.3152 34.3766 25.9623C34.3766 25.2216 34.2187 24.4979 33.9074 23.8112L33.7844 23.5399L34.0227 23.3581ZM34.2225 34.3535C35.5582 36.2319 35.8693 38.083 35.0852 39.4536V39.4571L35.0294 39.5476C34.0843 41.0795 31.9114 41.9231 28.911 41.9231C28.1242 41.9231 27.2849 41.864 26.4162 41.7475C25.5093 41.6251 24.4989 41.2724 23.7134 40.8041C22.7054 40.2031 22.1726 39.4852 22.1726 38.728C22.1726 37.5687 22.9892 36.8065 24.1202 35.7509C25.232 34.719 26.6156 33.4348 27.5313 31.3634L27.6552 31.0832L27.9588 31.1443C28.3075 31.2145 28.6634 31.25 29.0166 31.25C29.7673 31.25 30.5009 31.0943 31.197 30.7871L31.472 30.6658L31.6562 30.9009C32.6301 32.1437 33.1097 32.789 34.2225 34.3535ZM25.7623 25.9615C25.7623 24.1911 27.2223 22.7508 29.0168 22.7508C30.8113 22.7508 32.2712 24.1911 32.2712 25.9615C32.2712 27.7319 30.8113 29.1722 29.0168 29.1722C27.2223 29.1722 25.7623 27.7319 25.7623 25.9615ZM23.8109 17.5698C22.4751 15.6914 22.1641 13.8403 22.9482 12.4697V12.4662L23.004 12.3758C23.949 10.8439 26.1219 10.0003 29.1224 10.0003C29.9092 10.0003 30.7484 10.0593 31.6172 10.1759C32.523 10.2984 33.5328 10.651 34.3185 11.1192C35.3274 11.7204 35.8607 12.4383 35.8607 13.1954C35.8607 14.3546 35.0442 15.1168 33.9132 16.1724C32.8014 17.2043 31.4177 18.4886 30.502 20.5599L30.3782 20.8401L30.0746 20.779C29.7259 20.7089 29.37 20.6733 29.0168 20.6733C28.266 20.6733 27.5324 20.829 26.8363 21.1362L26.5614 21.2575L26.3771 21.0224C25.4032 19.7796 24.9236 19.1343 23.8109 17.5698ZM24.1259 28.1129L24.2488 28.3842L24.0105 28.566C22.7504 29.527 22.0963 30.0003 20.5109 31.0977L20.4117 31.1662H20.4103C19.2434 31.9525 18.0743 32.3674 17.0225 32.3674C16.3653 32.3674 15.7674 32.2079 15.246 31.8937C14.2582 31.3007 13.5351 30.1903 13.1549 28.6828C12.7881 27.2284 12.7401 25.4005 13.0161 23.3964C13.1403 22.5028 13.4978 21.5065 13.9723 20.7314C14.5817 19.736 15.3095 19.2099 16.0768 19.2099C17.2518 19.2099 18.0244 20.0155 19.0944 21.1313C20.1404 22.2281 21.4421 23.5932 23.5417 24.4966L23.8257 24.6188L23.7638 24.9182C23.6927 25.2623 23.6567 25.6134 23.6567 25.9618C23.6567 26.7024 23.8145 27.4262 24.1259 28.1129Z" fill="#778495"/>
<path d="M57.6771 22.5252C57.4734 22.3242 57.2028 22.2135 56.9152 22.2135C56.6277 22.2135 56.3571 22.3242 56.1533 22.5252L55.176 23.4895C54.5812 17.2321 51.7161 11.4351 47.0491 7.08499C42.1476 2.51617 35.7368 0 28.9976 0C26.0031 1.84422e-05 23.0649 0.493777 20.2645 1.46761C17.558 2.40876 15.0363 3.77715 12.7693 5.53483C10.5247 7.27516 8.59116 9.34887 7.02252 11.6983C5.42756 14.0873 4.25329 16.6977 3.53201 19.4584C3.38557 20.0265 3.73336 20.607 4.30616 20.7521C4.8808 20.8994 5.46983 20.557 5.61971 19.988C6.28107 17.4551 7.35873 15.0589 8.82276 12.866C10.2629 10.7087 12.0383 8.80474 14.0996 7.20685C16.1809 5.59337 18.4961 4.33731 20.9808 3.47353C23.5516 2.57986 26.2494 2.12671 28.9992 2.12671C35.154 2.12688 41.0169 4.41614 45.508 8.57283C49.7094 12.4614 52.3386 17.6311 52.9841 23.2264L52.2734 22.5252C51.8533 22.1108 51.1697 22.1108 50.7496 22.5252C50.3295 22.9397 50.3295 23.614 50.7496 24.0285L53.4514 26.694C53.6547 26.8945 53.9253 27.0049 54.2134 27.0049C54.5015 27.0049 54.7721 26.8945 54.9753 26.694L57.6771 24.0285C57.8809 23.8275 57.9931 23.5606 57.9931 23.2769C57.9931 22.9932 57.8809 22.7262 57.6771 22.5252Z" fill="#778495"/>
<path d="M53.687 31.1347C53.4081 31.0632 53.1178 31.1035 52.8695 31.2482C52.6222 31.3924 52.4461 31.6231 52.3735 31.8986C51.7117 34.4312 50.6338 36.8272 49.1698 39.02C47.7294 41.1773 45.9541 43.0812 43.8931 44.6791C41.8119 46.2926 39.497 47.5486 37.0128 48.4123C34.4435 49.3055 31.7475 49.7583 28.9993 49.7583H28.9956C22.8409 49.7582 16.9779 47.4689 12.4869 43.3122C8.28548 39.4236 5.65627 34.2542 5.01078 28.6589L5.71967 29.3583C5.92343 29.5593 6.194 29.67 6.48157 29.67C6.76912 29.67 7.0397 29.5593 7.24346 29.3583C7.66354 28.9438 7.66356 28.2694 7.24346 27.855L4.54163 25.1895C4.33837 24.989 4.0678 24.8785 3.7797 24.8785C3.49161 24.8785 3.22104 24.989 3.01778 25.1895L0.315968 27.855C0.112209 28.056 0 28.3229 0 28.6066C0 28.8903 0.112209 29.1573 0.315968 29.3583C0.519708 29.5593 0.790284 29.67 1.07785 29.67C1.3654 29.67 1.63598 29.5593 1.83974 29.3583L2.81722 28.3939C3.41277 34.6519 6.2783 40.4495 10.9453 44.8001C15.8466 49.3691 22.257 51.8859 28.9956 51.8868C31.9901 51.8868 34.9283 51.393 37.7287 50.4191C40.4351 49.478 42.9569 48.1096 45.2239 46.3519C47.4685 44.6116 49.402 42.5379 50.9706 40.1884C52.5656 37.7995 53.7399 35.1891 54.4611 32.4284C54.6076 31.8601 54.2598 31.2797 53.687 31.1347Z" fill="#778495"/>
</svg>
