<svg width="39" height="50" viewBox="0 0 39 50" fill="none" xmlns="http://www.w3.org/2000/svg">
<g clip-path="url(#clip0_313_1224)">
<path d="M13.7543 33.2195L13.3539 33.0739V23.17C13.3539 22.4975 12.8093 21.9504 12.1399 21.9504C11.4705 21.9504 10.9258 22.4975 10.9258 23.17V33.0774L10.5211 33.2211C8.58472 33.9086 7.28369 35.7507 7.28369 37.8048C7.28369 39.1106 7.78807 40.3363 8.70389 41.2563C9.61972 42.1763 10.84 42.6829 12.1399 42.6829C13.4398 42.6829 14.6601 42.1763 15.5759 41.2563C16.4917 40.3363 16.9961 39.1106 16.9961 37.8048C16.9961 35.7674 15.6933 33.9247 13.7543 33.2195Z" fill="#778495"/>
<path d="M20.6389 29.1088V8.53663C20.6389 3.82949 16.8265 -6.10352e-05 12.1405 -6.10352e-05C7.45451 -6.10352e-05 3.64215 3.82949 3.64215 8.53663V29.1087L3.46929 29.2865C1.2321 31.5864 0 34.6118 0 37.8053C0 44.5298 5.44621 50.0006 12.1405 50.0006C18.8348 50.0006 24.281 44.5298 24.281 37.8053C24.281 34.6111 23.049 31.5858 20.8118 29.2865L20.6389 29.1088ZM12.1405 47.5615C6.78508 47.5615 2.4281 43.1849 2.4281 37.8053C2.4281 35.0473 3.61017 32.4015 5.67123 30.5462C5.92403 30.3165 6.07026 29.9879 6.07026 29.6467V18.9031H8.49836C9.1678 18.9031 9.71241 18.356 9.71241 17.6836C9.71241 17.0111 9.1678 16.464 8.49836 16.464H6.07026V11.5859H8.49836C9.1678 11.5859 9.71241 11.0389 9.71241 10.3664C9.71241 9.69395 9.1678 9.14687 8.49836 9.14687H6.07026V8.53711C6.07026 5.17486 8.79336 2.43947 12.1405 2.43947C15.4877 2.43947 18.2108 5.17486 18.2108 8.53711V29.6467C18.2108 29.9879 18.357 30.3165 18.612 30.5482C20.6709 32.4017 21.8529 35.0476 21.8529 37.8053C21.8529 43.1849 17.496 47.5615 12.1405 47.5615Z" fill="#778495"/>
<path d="M25.8183 12.9773L25.8455 12.9908L25.9163 13.0619C26.3875 13.5353 27.1543 13.5353 27.6255 13.0619L31.011 9.66118L31.011 28.6584C31.011 29.3309 31.5556 29.8779 32.225 29.8779C32.8945 29.8779 33.4391 29.3309 33.4391 28.6584L33.4391 9.64313L36.8245 13.0438C37.0534 13.2737 37.3569 13.4003 37.6792 13.4003C38.0015 13.4003 38.305 13.2737 38.5338 13.0438C38.7626 12.814 38.8887 12.5091 38.8887 12.1854C38.8887 11.8616 38.7626 11.5568 38.5338 11.3269L33.0706 5.83901C32.8381 5.60549 32.5475 5.48711 32.2068 5.48711C31.8854 5.48711 31.5848 5.61087 31.337 5.84511L25.8799 11.3269C25.6511 11.5568 25.525 11.8616 25.525 12.1854C25.525 12.4787 25.6285 12.7567 25.8183 12.9773Z" fill="#778495"/>
</g>
<defs>
<clipPath id="clip0_313_1224">
<rect width="38.8894" height="50.0006" fill="white"/>
</clipPath>
</defs>
</svg>
