<svg width="131" height="136" viewBox="0 0 131 136" fill="none" xmlns="http://www.w3.org/2000/svg">
<path d="M65.1598 101.372C56.5117 101.372 48.3823 97.8695 42.2665 91.5152C36.1528 85.1609 32.7852 76.7095 32.7852 67.7211C32.7852 58.737 36.1528 50.2856 42.2665 43.9271C48.3783 37.5769 56.5097 34.0747 65.1598 34.0747C73.8078 34.0747 81.9373 37.5769 88.051 43.9271C94.1647 50.2856 97.5323 58.737 97.5323 67.7211C97.5323 76.7095 94.1647 85.1609 88.051 91.5152C81.9373 97.8695 73.8078 101.372 65.1598 101.372ZM65.1598 41.7376C58.4811 41.7376 52.2019 44.4388 47.4803 49.3502C42.7568 54.2533 40.156 60.7796 40.156 67.7211C40.156 74.6627 42.7568 81.189 47.4803 86.0963C52.2019 91.0077 58.4811 93.7088 65.1598 93.7088C71.8385 93.7088 78.1177 91.0077 82.8412 86.0963C87.5627 81.189 90.1636 74.6627 90.1636 67.7211C90.1636 60.7796 87.5627 54.2533 82.8412 49.3502C78.1177 44.4388 71.8385 41.7376 65.1598 41.7376Z" fill="white"/>
<path d="M65.1551 24.6958C64.5094 24.6958 63.8718 24.5197 63.3109 24.1841C62.1769 23.5005 61.4707 22.2296 61.4707 20.8665V3.82937C61.4707 2.46624 62.1769 1.19538 63.3129 0.511711C63.8718 0.17617 64.5094 0 65.1551 0C65.8008 0 66.4384 0.17617 66.9993 0.511711C68.1333 1.19538 68.8395 2.46624 68.8395 3.82937V20.8665C68.8395 22.2296 68.1333 23.5005 66.9973 24.1841C66.4384 24.5197 65.8008 24.6958 65.1551 24.6958Z" fill="white"/>
<path d="M65.1551 135.446C64.5094 135.446 63.8718 135.269 63.3129 134.93C62.1749 134.25 61.4707 132.979 61.4707 131.616V114.575C61.4707 113.212 62.1749 111.941 63.3109 111.261C63.8718 110.926 64.5094 110.75 65.1551 110.75C65.8008 110.75 66.4384 110.926 66.9993 111.261C68.1333 111.945 68.8395 113.216 68.8395 114.575V131.616C68.8395 132.979 68.1353 134.25 66.9993 134.93C66.4384 135.269 65.8008 135.446 65.1551 135.446Z" fill="white"/>
<path d="M97.0466 38.4158C96.0458 38.4158 95.1217 38.0173 94.4255 37.3001C93.7334 36.5912 93.3359 35.6014 93.3359 34.5822C93.3359 33.5672 93.7334 32.5773 94.4255 31.8643L106.025 19.852C106.671 19.2774 107.523 18.9543 108.398 18.9543C108.751 18.9543 109.105 19.0047 109.444 19.1096C110.644 19.4787 111.574 20.4433 111.933 21.6974C112.289 22.9473 112.012 24.2853 111.197 25.271L99.6616 37.3043C98.9675 38.0173 98.0433 38.4158 97.0607 38.4158H97.0466Z" fill="white"/>
<path d="M21.6955 116.706C20.7149 116.706 19.7928 116.308 19.0967 115.59C18.4187 114.882 18.0293 113.9 18.0293 112.893C18.0293 111.887 18.4187 110.905 19.0987 110.192L30.6563 98.1381C31.3444 97.4208 32.2967 97.0056 33.2733 97.0056C34.2499 97.0056 35.2023 97.4208 35.8903 98.1381C36.5945 98.8679 36.9819 99.8326 36.9819 100.86C36.9819 101.879 36.5844 102.869 35.8923 103.578L24.2923 115.59C23.6003 116.308 22.6761 116.706 21.6955 116.706Z" fill="white"/>
<path d="M110.239 71.5541C108.927 71.5541 107.704 70.8201 107.047 69.6373C106.393 68.4587 106.393 66.9865 107.049 65.8037C107.704 64.6251 108.927 63.8911 110.239 63.8911H126.633C127.601 63.8911 128.552 64.3021 129.238 65.0152C129.934 65.7366 130.317 66.7013 130.317 67.7205C130.317 68.7439 129.934 69.7085 129.238 70.4257C128.552 71.143 127.603 71.5541 126.633 71.5541H110.239Z" fill="white"/>
<path d="M3.68439 71.5541C2.69974 71.5541 1.77562 71.1514 1.0795 70.4299C0.383385 69.7085 0 68.7439 0 67.7205C0 66.7013 0.383385 65.7366 1.0795 65.011C1.77562 64.2895 2.70176 63.8911 3.68439 63.8911H20.0785C21.3921 63.8911 22.6148 64.6251 23.2706 65.8037C23.9243 66.9865 23.9243 68.4587 23.2706 69.6373C22.6128 70.8201 21.39 71.5541 20.0785 71.5541H3.68439Z" fill="white"/>
<path d="M108.622 116.706C107.642 116.706 106.72 116.308 106.024 115.59L94.4276 103.578C93.4954 102.609 93.1302 101.187 93.4712 99.866C93.8102 98.5406 94.813 97.4962 96.0882 97.1439C96.399 97.0558 96.7198 97.0139 97.0426 97.0139C98.0313 97.0139 98.9635 97.4124 99.6637 98.1422L111.219 110.192C111.901 110.905 112.291 111.887 112.291 112.893C112.291 113.9 111.901 114.882 111.219 115.595C110.527 116.308 109.603 116.706 108.622 116.706Z" fill="white"/>
<path d="M33.276 38.4153C32.2772 38.4153 31.3531 38.0168 30.655 37.2996L19.1014 25.2495C18.3004 24.5322 17.8302 23.5256 17.7919 22.4645C17.7515 21.4033 18.143 20.3632 18.8674 19.6082C19.5554 18.8952 20.5058 18.4883 21.4723 18.4883C22.6385 18.5302 23.607 19.0168 24.2709 19.8263L35.891 31.8638C36.5952 32.5894 36.9826 33.5541 36.9826 34.5817C36.9826 35.6009 36.5851 36.5907 35.893 37.2996C35.1969 38.0168 34.2728 38.4153 33.2902 38.4153H33.276Z" fill="white"/>
</svg>
