<svg width="41" height="47" viewBox="0 0 41 47" fill="none" xmlns="http://www.w3.org/2000/svg">
<mask id="path-1-inside-1_313_445" fill="white">
<path d="M40.2156 26.16C39.7996 25.8537 39.2525 25.7935 38.7803 26.0025L32.9337 28.5998L29.8021 26.7817L35.3471 24.3286C35.6945 24.1798 35.9695 23.8999 36.1132 23.5488C36.2565 23.198 36.2565 22.8041 36.1132 22.4533C35.9695 22.1022 35.6945 21.8223 35.3471 21.6735L29.8021 19.2204L32.9337 17.4023L38.7803 19.9997C38.9679 20.0739 39.1676 20.113 39.3693 20.1151C39.6473 20.1133 39.9187 20.0306 40.1507 19.8767C40.3826 19.7231 40.5654 19.5051 40.6765 19.2493C40.8309 18.8991 40.8408 18.5017 40.7031 18.1445C40.5657 17.7871 40.2925 17.4994 39.9438 17.3446L36.0221 15.613L39.7858 13.4341C40.2323 13.1765 40.5079 12.6988 40.5091 12.1817C40.51 11.6644 40.2362 11.1858 39.7909 10.9264C39.3453 10.6666 38.7958 10.6657 38.3493 10.9234L34.5856 13.1167L35.0453 8.78775C35.0854 8.40687 34.9735 8.02568 34.7335 7.72802C34.4938 7.43011 34.146 7.24042 33.7668 7.20043C33.39 7.15984 33.0124 7.27047 32.7164 7.50856C32.4204 7.74635 32.23 8.09207 32.1867 8.47025L31.4971 14.8626L28.3655 16.6808L29.0119 10.6203C29.0503 10.3368 29.0039 10.0482 28.8785 9.79117C28.7531 9.53445 28.5547 9.3207 28.3081 9.1773C28.0668 9.03781 27.7903 8.97167 27.5123 8.987C27.2342 9.00233 26.9667 9.09853 26.7422 9.26388L21.8436 12.9868V9.39371L27.0007 5.59869C27.3099 5.37353 27.5173 5.03352 27.5765 4.6544C27.6358 4.27529 27.5424 3.88812 27.3167 3.57851C27.0926 3.26796 26.7541 3.05964 26.3767 3.00012C25.9993 2.9406 25.6138 3.03439 25.3056 3.26106L21.8436 5.77185V1.44289C21.8436 0.927325 21.5697 0.451116 21.1253 0.193225C20.6809 -0.0644083 20.1332 -0.0644083 19.6888 0.193225C19.2444 0.451163 18.9705 0.927349 18.9705 1.44289V5.77185L15.5085 3.21773C15.1999 2.99196 14.8148 2.89847 14.4374 2.95799C14.0603 3.01751 13.7222 3.22524 13.4974 3.53519C13.2726 3.84512 13.1795 4.23203 13.2388 4.61107C13.2981 4.98986 13.5049 5.32956 13.8134 5.55537L18.9705 9.39371V12.9868L14.0719 9.37932C13.8474 9.21398 13.5799 9.11778 13.3019 9.10244C13.0238 9.08711 12.7473 9.15324 12.5061 9.29274C12.2595 9.43614 12.061 9.64988 11.9356 9.90661C11.8103 10.1636 11.7639 10.4522 11.8022 10.7357L12.4486 16.7962L9.31699 14.9781L8.62746 8.6578C8.5709 8.14223 8.24499 7.69612 7.77245 7.48748C7.29959 7.27885 6.75225 7.33927 6.33593 7.64621C5.91961 7.95314 5.69788 8.45967 5.75444 8.9753L6.21413 13.3043L2.45045 11.1109C2.00394 10.8533 1.45446 10.8542 1.00888 11.1139C0.563555 11.3734 0.289719 11.8519 0.290617 12.3693C0.291814 12.8864 0.567446 13.3641 1.01396 13.6216L4.77764 15.8005L0.855909 17.5321C0.507249 17.6869 0.234016 17.9746 0.0966445 18.3321C-0.0410217 18.6892 -0.0311457 19.0867 0.12328 19.4368C0.234311 19.6927 0.417168 19.9106 0.64911 20.0642C0.881043 20.2182 1.15249 20.3008 1.4305 20.3026C1.63221 20.3005 1.83183 20.2614 2.01947 20.1872L7.86606 17.5898L10.9977 19.408L5.45271 21.8611C5.10525 22.0099 4.83022 22.2897 4.68657 22.6409C4.54321 22.9917 4.54321 23.3855 4.68657 23.7363C4.83022 24.0875 5.10525 24.3673 5.45271 24.5162L10.9977 26.9692L7.86606 28.7874L2.03396 26.089C1.68352 25.9348 1.28637 25.927 0.930564 26.068C0.574427 26.2087 0.289218 26.4865 0.137757 26.8393C-0.0166636 27.1896 -0.0265397 27.587 0.111122 27.9441C0.248494 28.3015 0.521731 28.5892 0.870386 28.7441L4.79212 30.4757L1.02844 32.6545C0.581923 32.9122 0.306286 33.3899 0.305094 33.9069C0.304196 34.4243 0.578032 34.9028 1.02335 35.1623C1.46897 35.422 2.01842 35.4229 2.46493 35.1653L6.2286 32.9719L5.76892 37.3009C5.72881 37.6818 5.84074 38.063 6.08076 38.3606C6.32048 38.6585 6.66824 38.8482 7.0474 38.8882H7.20542C7.56066 38.8903 7.90393 38.7605 8.16908 38.5233C8.43453 38.2861 8.60273 37.9584 8.64193 37.604L9.33146 31.2116L12.4631 29.3934L11.7879 35.4251C11.7496 35.7086 11.796 35.9972 11.9214 36.2542C12.0468 36.5109 12.2452 36.7247 12.4918 36.8681C12.733 37.0076 13.0095 37.0737 13.2876 37.0584C13.5656 37.043 13.8332 36.9468 14.0576 36.7815L18.9705 33.1884V36.8247L13.8135 40.6198C13.3978 40.924 13.1751 41.4278 13.2296 41.9416C13.2841 42.4551 13.607 42.9009 14.0771 43.1105C14.5473 43.32 15.0928 43.2617 15.5086 42.9575L18.9706 40.4033V44.7323C18.9706 45.2479 19.2444 45.7241 19.6889 45.982C20.1333 46.2396 20.6809 46.2396 21.1254 45.982C21.5698 45.724 21.8436 45.2478 21.8436 44.7323V40.4033L25.3057 42.9575C25.5523 43.1366 25.8489 43.2328 26.1532 43.2316C26.5611 43.2331 26.9504 43.0603 27.224 42.756C27.4976 42.4521 27.6296 42.0454 27.587 41.6381C27.5446 41.2304 27.3312 40.8601 27.0008 40.6199L21.8437 36.7815V33.1885L26.7423 36.7959C26.9889 36.9751 27.2855 37.0713 27.5898 37.0701C27.8415 37.0719 28.089 37.0073 28.308 36.8825C28.5547 36.7391 28.7531 36.5254 28.8785 36.2686C29.0039 36.0116 29.0502 35.723 29.0119 35.4396L28.3655 29.379L31.4971 31.1972L32.1866 37.5175C32.2258 37.8719 32.394 38.1996 32.6595 38.4367C32.9246 38.6739 33.2679 38.8038 33.6231 38.8017H33.7668C34.146 38.7617 34.4937 38.572 34.7334 38.2741C34.9735 37.9765 35.0854 37.5953 35.0453 37.2144L34.5856 32.8854L38.3493 35.0787C38.7958 35.3364 39.3453 35.3355 39.7909 35.0757C40.2362 34.8163 40.51 34.3377 40.5091 33.8204C40.5079 33.3033 40.2323 32.8256 39.7858 32.568L36.0221 30.3891L39.9438 28.6576C40.4161 28.4486 40.7414 28.0028 40.7974 27.4875C40.8536 26.9726 40.6319 26.4663 40.2156 26.16ZM18.9705 16.5801V20.5627L15.5372 18.5714L15.0057 13.6941L18.9705 16.5801ZM9.60437 23.0878L14.1007 21.0965L17.534 23.0878L14.1007 25.0791L9.60437 23.0878ZM18.9705 29.5666L14.9626 32.4814L15.4941 27.5753L18.9705 25.5839V29.5666ZM21.8435 16.609L25.8083 13.6941L25.2768 18.6003L21.8435 20.5916V16.609ZM21.8004 29.5954V25.5839L25.2337 27.5753L25.7652 32.4814L21.8004 29.5954ZM26.7133 25.0791L23.28 23.0878L26.7133 21.0965L31.2096 23.0878L26.7133 25.0791Z"/>
</mask>
<path d="M40.2156 26.16C39.7996 25.8537 39.2525 25.7935 38.7803 26.0025L32.9337 28.5998L29.8021 26.7817L35.3471 24.3286C35.6945 24.1798 35.9695 23.8999 36.1132 23.5488C36.2565 23.198 36.2565 22.8041 36.1132 22.4533C35.9695 22.1022 35.6945 21.8223 35.3471 21.6735L29.8021 19.2204L32.9337 17.4023L38.7803 19.9997C38.9679 20.0739 39.1676 20.113 39.3693 20.1151C39.6473 20.1133 39.9187 20.0306 40.1507 19.8767C40.3826 19.7231 40.5654 19.5051 40.6765 19.2493C40.8309 18.8991 40.8408 18.5017 40.7031 18.1445C40.5657 17.7871 40.2925 17.4994 39.9438 17.3446L36.0221 15.613L39.7858 13.4341C40.2323 13.1765 40.5079 12.6988 40.5091 12.1817C40.51 11.6644 40.2362 11.1858 39.7909 10.9264C39.3453 10.6666 38.7958 10.6657 38.3493 10.9234L34.5856 13.1167L35.0453 8.78775C35.0854 8.40687 34.9735 8.02568 34.7335 7.72802C34.4938 7.43011 34.146 7.24042 33.7668 7.20043C33.39 7.15984 33.0124 7.27047 32.7164 7.50856C32.4204 7.74635 32.23 8.09207 32.1867 8.47025L31.4971 14.8626L28.3655 16.6808L29.0119 10.6203C29.0503 10.3368 29.0039 10.0482 28.8785 9.79117C28.7531 9.53445 28.5547 9.3207 28.3081 9.1773C28.0668 9.03781 27.7903 8.97167 27.5123 8.987C27.2342 9.00233 26.9667 9.09853 26.7422 9.26388L21.8436 12.9868V9.39371L27.0007 5.59869C27.3099 5.37353 27.5173 5.03352 27.5765 4.6544C27.6358 4.27529 27.5424 3.88812 27.3167 3.57851C27.0926 3.26796 26.7541 3.05964 26.3767 3.00012C25.9993 2.9406 25.6138 3.03439 25.3056 3.26106L21.8436 5.77185V1.44289C21.8436 0.927325 21.5697 0.451116 21.1253 0.193225C20.6809 -0.0644083 20.1332 -0.0644083 19.6888 0.193225C19.2444 0.451163 18.9705 0.927349 18.9705 1.44289V5.77185L15.5085 3.21773C15.1999 2.99196 14.8148 2.89847 14.4374 2.95799C14.0603 3.01751 13.7222 3.22524 13.4974 3.53519C13.2726 3.84512 13.1795 4.23203 13.2388 4.61107C13.2981 4.98986 13.5049 5.32956 13.8134 5.55537L18.9705 9.39371V12.9868L14.0719 9.37932C13.8474 9.21398 13.5799 9.11778 13.3019 9.10244C13.0238 9.08711 12.7473 9.15324 12.5061 9.29274C12.2595 9.43614 12.061 9.64988 11.9356 9.90661C11.8103 10.1636 11.7639 10.4522 11.8022 10.7357L12.4486 16.7962L9.31699 14.9781L8.62746 8.6578C8.5709 8.14223 8.24499 7.69612 7.77245 7.48748C7.29959 7.27885 6.75225 7.33927 6.33593 7.64621C5.91961 7.95314 5.69788 8.45967 5.75444 8.9753L6.21413 13.3043L2.45045 11.1109C2.00394 10.8533 1.45446 10.8542 1.00888 11.1139C0.563555 11.3734 0.289719 11.8519 0.290617 12.3693C0.291814 12.8864 0.567446 13.3641 1.01396 13.6216L4.77764 15.8005L0.855909 17.5321C0.507249 17.6869 0.234016 17.9746 0.0966445 18.3321C-0.0410217 18.6892 -0.0311457 19.0867 0.12328 19.4368C0.234311 19.6927 0.417168 19.9106 0.64911 20.0642C0.881043 20.2182 1.15249 20.3008 1.4305 20.3026C1.63221 20.3005 1.83183 20.2614 2.01947 20.1872L7.86606 17.5898L10.9977 19.408L5.45271 21.8611C5.10525 22.0099 4.83022 22.2897 4.68657 22.6409C4.54321 22.9917 4.54321 23.3855 4.68657 23.7363C4.83022 24.0875 5.10525 24.3673 5.45271 24.5162L10.9977 26.9692L7.86606 28.7874L2.03396 26.089C1.68352 25.9348 1.28637 25.927 0.930564 26.068C0.574427 26.2087 0.289218 26.4865 0.137757 26.8393C-0.0166636 27.1896 -0.0265397 27.587 0.111122 27.9441C0.248494 28.3015 0.521731 28.5892 0.870386 28.7441L4.79212 30.4757L1.02844 32.6545C0.581923 32.9122 0.306286 33.3899 0.305094 33.9069C0.304196 34.4243 0.578032 34.9028 1.02335 35.1623C1.46897 35.422 2.01842 35.4229 2.46493 35.1653L6.2286 32.9719L5.76892 37.3009C5.72881 37.6818 5.84074 38.063 6.08076 38.3606C6.32048 38.6585 6.66824 38.8482 7.0474 38.8882H7.20542C7.56066 38.8903 7.90393 38.7605 8.16908 38.5233C8.43453 38.2861 8.60273 37.9584 8.64193 37.604L9.33146 31.2116L12.4631 29.3934L11.7879 35.4251C11.7496 35.7086 11.796 35.9972 11.9214 36.2542C12.0468 36.5109 12.2452 36.7247 12.4918 36.8681C12.733 37.0076 13.0095 37.0737 13.2876 37.0584C13.5656 37.043 13.8332 36.9468 14.0576 36.7815L18.9705 33.1884V36.8247L13.8135 40.6198C13.3978 40.924 13.1751 41.4278 13.2296 41.9416C13.2841 42.4551 13.607 42.9009 14.0771 43.1105C14.5473 43.32 15.0928 43.2617 15.5086 42.9575L18.9706 40.4033V44.7323C18.9706 45.2479 19.2444 45.7241 19.6889 45.982C20.1333 46.2396 20.6809 46.2396 21.1254 45.982C21.5698 45.724 21.8436 45.2478 21.8436 44.7323V40.4033L25.3057 42.9575C25.5523 43.1366 25.8489 43.2328 26.1532 43.2316C26.5611 43.2331 26.9504 43.0603 27.224 42.756C27.4976 42.4521 27.6296 42.0454 27.587 41.6381C27.5446 41.2304 27.3312 40.8601 27.0008 40.6199L21.8437 36.7815V33.1885L26.7423 36.7959C26.9889 36.9751 27.2855 37.0713 27.5898 37.0701C27.8415 37.0719 28.089 37.0073 28.308 36.8825C28.5547 36.7391 28.7531 36.5254 28.8785 36.2686C29.0039 36.0116 29.0502 35.723 29.0119 35.4396L28.3655 29.379L31.4971 31.1972L32.1866 37.5175C32.2258 37.8719 32.394 38.1996 32.6595 38.4367C32.9246 38.6739 33.2679 38.8038 33.6231 38.8017H33.7668C34.146 38.7617 34.4937 38.572 34.7334 38.2741C34.9735 37.9765 35.0854 37.5953 35.0453 37.2144L34.5856 32.8854L38.3493 35.0787C38.7958 35.3364 39.3453 35.3355 39.7909 35.0757C40.2362 34.8163 40.51 34.3377 40.5091 33.8204C40.5079 33.3033 40.2323 32.8256 39.7858 32.568L36.0221 30.3891L39.9438 28.6576C40.4161 28.4486 40.7414 28.0028 40.7974 27.4875C40.8536 26.9726 40.6319 26.4663 40.2156 26.16ZM18.9705 16.5801V20.5627L15.5372 18.5714L15.0057 13.6941L18.9705 16.5801ZM9.60437 23.0878L14.1007 21.0965L17.534 23.0878L14.1007 25.0791L9.60437 23.0878ZM18.9705 29.5666L14.9626 32.4814L15.4941 27.5753L18.9705 25.5839V29.5666ZM21.8435 16.609L25.8083 13.6941L25.2768 18.6003L21.8435 20.5916V16.609ZM21.8004 29.5954V25.5839L25.2337 27.5753L25.7652 32.4814L21.8004 29.5954ZM26.7133 25.0791L23.28 23.0878L26.7133 21.0965L31.2096 23.0878L26.7133 25.0791Z" fill="#778495" stroke="white" stroke-width="0.801869" mask="url(#path-1-inside-1_313_445)"/>
</svg>
