<svg width="68" height="44" viewBox="0 0 68 44" fill="none" xmlns="http://www.w3.org/2000/svg">
<path d="M66.9375 28.8258H62.6875V2.09642H66.9375C67.5219 2.09642 68 1.62473 68 1.04821C68 0.471694 67.5219 0 66.9375 0H61.625C61.0406 0 60.5625 0.471694 60.5625 1.04821V3.14463H7.4375V1.04821C7.4375 0.471694 6.95937 0 6.375 0H1.0625C0.478125 0 0 0.471694 0 1.04821C0 1.62473 0.478125 2.09642 1.0625 2.09642H5.3125V28.8258H1.0625C0.478125 28.8258 0 29.2975 0 29.874C0 30.4505 0.478125 30.9222 1.0625 30.9222H6.375C6.95937 30.9222 7.4375 30.4505 7.4375 29.874V27.7776H21.7812V33.1933H20.1875C19.0187 33.1933 18.0625 34.1367 18.0625 35.2897V41.0549C18.0625 42.2079 19.0187 43.1513 20.1875 43.1513H47.8125C48.9813 43.1513 49.9375 42.2079 49.9375 41.0549V35.2897C49.9375 34.1367 48.9813 33.1933 47.8125 33.1933H46.2188V27.7776H60.5625V29.874C60.5625 30.4505 61.0406 30.9222 61.625 30.9222H66.9375C67.5219 30.9222 68 30.4505 68 29.874C68 29.2975 67.5219 28.8258 66.9375 28.8258ZM47.8125 41.0549H20.1875V35.2897H47.8125V41.0549ZM23.9062 33.1933V25.157C23.9062 19.6539 28.4219 15.199 34 15.199C39.5781 15.199 44.0938 19.6539 44.0938 25.157V33.1933H23.9062ZM46.2188 25.6811V25.157C46.2188 18.5009 40.7469 13.1026 34 13.1026C27.2531 13.1026 21.7812 18.5009 21.7812 25.157V25.6811H7.4375V5.24105H21.7812V14.1508C21.7812 14.7273 22.2594 15.199 22.8438 15.199C23.4281 15.199 23.9062 14.7273 23.9062 14.1508V5.24105H43.5625V14.1508C43.5625 14.7273 44.0406 15.199 44.625 15.199C45.2094 15.199 45.6875 14.7273 45.6875 14.1508V5.24105H60.5625V25.6811H46.2188Z" fill="#778495"/>
</svg>
