<svg width="72" height="70" viewBox="0 0 72 70" fill="none" xmlns="http://www.w3.org/2000/svg">
<g clip-path="url(#clip0_313_650)">
<path d="M70.0794 50.3749L68.8662 49.4594C76.8455 31.8401 69.0238 11.0915 51.396 3.11612C42.5015 -0.908042 32.3305 -1.04007 23.3344 2.75185C22.8174 2.97054 22.5757 3.56673 22.7945 4.08347C23.0133 4.60022 23.6098 4.84184 24.1268 4.62315C40.9218 -2.45528 60.2779 5.41509 67.3597 22.2021C70.8711 30.5255 70.8139 39.9241 67.2015 48.2042L66.0782 47.3568C63.9478 45.7588 60.925 46.1868 59.3225 48.3135L56.0949 52.6017C55.747 53.0675 55.8414 53.7268 56.306 54.0763L57.9753 55.3338L56.2304 57.6542C55.8809 58.1213 55.9765 58.7832 56.4438 59.1325C56.7807 59.3876 57.2384 59.4139 57.6023 59.1992C57.7129 59.1335 57.8118 59.05 57.8952 58.9521L59.6625 56.6063L62.9725 59.0959L61.2284 61.4163C61.0613 61.6397 60.9894 61.92 61.0285 62.1962C61.103 62.7143 61.5457 63.0999 62.0694 63.1027C62.2559 63.1021 62.439 63.0525 62.6004 62.959C62.7109 62.8932 62.8098 62.8098 62.8932 62.7119L64.6605 60.3653L66.3313 61.6243C66.6681 61.8794 67.1258 61.9057 67.4898 61.691C67.6003 61.6252 67.6992 61.5418 67.7826 61.4439L71.0349 57.1257C72.6313 54.9983 72.2038 51.9809 70.0794 50.3801M64.817 49.0283L68.8175 52.0321C70.0086 52.9347 70.2465 54.6294 69.35 55.8248L69.2968 55.8952V55.9034L66.7581 59.2763L65.0896 58.0187L60.0946 54.2672L58.4284 53.0134L61.0217 49.5702C61.9201 48.3731 63.6193 48.1303 64.817 49.0283C64.8172 49.0284 64.8176 49.0289 64.8178 49.029L64.817 49.0283Z" fill="#AEBED3"/>
<path d="M53.4629 63.9075C53.2045 63.8303 52.9259 63.8597 52.6893 63.9891C36.6681 72.6637 16.6448 66.7144 7.96598 50.7009C2.20915 40.0788 2.72414 27.1606 9.30828 17.03C9.61475 16.5598 9.48181 15.9303 9.01135 15.6239C8.54089 15.3176 7.91106 15.4505 7.60458 15.9207C5.84659 18.6158 4.47079 21.5414 3.51646 24.614C2.75236 23.7869 2.26703 22.741 2.12879 21.6237C2.03463 20.6975 2.17071 19.7624 2.52494 18.9013C2.92595 17.9061 3.52172 17.0009 4.27732 16.2388C6.6917 13.7365 10.6742 12.2485 12.5749 11.6459C12.697 13.3675 12.977 17.6116 12.8707 19.1012C12.779 20.7534 12.2122 22.344 11.2381 23.6821C10.1423 25.1137 8.46393 25.9812 6.66175 26.0474C6.38094 26.065 6.1192 26.1954 5.93608 26.409C5.75354 26.6201 5.662 26.8948 5.68146 27.1732C5.69917 27.4539 5.82962 27.7154 6.04317 27.8985C6.23608 28.0644 6.48217 28.1555 6.73663 28.1553H6.81152C7.99917 28.0819 9.15948 27.7679 10.2219 27.2323C11.2778 26.6879 12.1988 25.9149 12.9179 24.9696C14.1408 23.304 14.855 21.3201 14.9743 19.2576C15.1083 17.4544 14.7496 12.3997 14.5916 10.3106L14.5834 10.2013C14.5628 9.88946 14.4023 9.60365 14.1468 9.42357C13.9005 9.24751 13.5903 9.18588 13.2953 9.25441C11.988 9.59437 10.7063 10.0258 9.45956 10.5456C6.96459 11.4901 4.68781 12.9317 2.76758 14.783C1.82005 15.7479 1.07191 16.8899 0.565876 18.1438C0.0903806 19.3221 -0.0895861 20.5987 0.0416611 21.8625C0.286391 23.8588 1.30895 25.6781 2.8874 26.9255C2.26344 29.5716 1.94855 32.2811 1.94905 34.9997C1.95502 54.3359 17.6425 70.0061 36.9879 70.0002C42.8097 69.9984 48.5392 68.5462 53.6584 65.7751C54.1516 65.5075 54.3344 64.8908 54.0666 64.3978C53.9379 64.1608 53.7202 63.9847 53.4614 63.9083" fill="#AEBED3"/>
<path d="M35.9306 41.565L35.9344 58.0324C35.932 58.6012 36.3914 59.0643 36.9605 59.0667C37.1031 59.0673 37.2444 59.0383 37.3752 58.9815C37.627 58.8737 37.8252 58.6696 37.9257 58.4149L42.7934 46.1729C42.8053 46.1437 42.8158 46.113 42.8248 46.0815L43.6576 43.9909C43.6695 43.967 43.68 43.943 43.6905 43.9161L43.7916 43.6646C43.8029 43.6369 43.8126 43.6084 43.8208 43.58L49.2577 29.9307C49.3308 29.787 49.3685 29.6279 49.3678 29.4667C49.367 28.8953 48.9037 28.4323 48.3321 28.4315H38.0043L38.0005 11.9641C37.9994 11.5414 37.7421 11.1616 37.3498 11.0037C36.8202 10.7936 36.2204 11.0523 36.01 11.5816L26.6041 35.2183L24.6765 40.0642C24.6034 40.2079 24.5657 40.367 24.5664 40.5283C24.5672 41.0997 25.0305 41.5627 25.6021 41.5635L35.9306 41.565ZM36.9663 30.5026H46.8134L40.5175 46.3083C40.5038 46.3436 40.4921 46.3796 40.4823 46.4161L38.011 52.6348V40.5313C38.0102 39.9599 37.547 39.4969 36.9753 39.4961H27.1246L29.4027 33.7692C29.4079 33.7587 29.4124 33.7482 29.4169 33.7377L29.518 33.4855C29.5233 33.4712 29.5285 33.457 29.533 33.4435L35.9307 17.3639V29.4689C35.9315 30.0403 36.3947 30.5033 36.9664 30.5041" fill="#AEBED3"/>
</g>
<defs>
<clipPath id="clip0_313_650">
<rect width="72" height="70" fill="white"/>
</clipPath>
</defs>
</svg>
