<svg width="38" height="51" viewBox="0 0 38 51" fill="none" xmlns="http://www.w3.org/2000/svg">
<path d="M22.0354 50.6732C21.5799 50.6732 21.1464 50.4398 20.9032 50.0449C20.6068 49.5628 20.6555 48.9475 21.0248 48.5177L22.7497 46.5106C23.809 45.2801 24.4835 43.5653 24.6493 41.6827C24.9523 38.2596 22.7608 35.2662 20.6488 33.2179C20.0296 35.6941 18.4374 37.4373 17.283 38.6983C17.011 38.9972 16.781 39.2481 16.5687 39.4968C14.7752 41.6043 13.7447 43.2886 15.6996 47.3356L16.3829 48.7559C16.5908 49.1857 16.5443 49.6918 16.2635 50.078C15.9826 50.4642 15.5094 50.6758 15.0361 50.6191L13.4527 50.4423C9.81713 50.0387 6.55725 48.4897 4.02335 45.9611C1.42933 43.3736 -0.0368492 40.0381 0.000704108 36.8089C0.0360873 33.5974 1.17057 31.1846 2.17012 29.0548C3.43065 26.3757 4.26216 24.6085 2.78932 22.1739L1.79416 20.5289C1.52879 20.0882 1.54869 19.5362 1.84281 19.113C2.13914 18.6919 2.6544 18.4781 3.16968 18.5697L5.08037 18.9101C7.84913 19.4031 10.202 21.2336 11.6154 23.845C11.925 22.5687 12.0732 20.8713 11.8012 18.6657C11.1488 13.3421 11.4429 6.54404 19.5944 1.186L21.065 0.219487C21.483 -0.0554054 22.0204 -0.0728589 22.4582 0.171492C22.8939 0.418026 23.1527 0.884904 23.1261 1.38017L23.0288 3.12116C22.7015 9.04422 24.2583 13.3118 28.407 17.8474C31.9542 21.7265 35.6186 25.7364 36.941 31.7954C37.987 36.5949 37.171 40.9043 34.5725 44.2554C32.392 47.0698 28.9664 49.1271 24.9261 50.0477L22.3277 50.639C22.2348 50.663 22.1353 50.6739 22.0358 50.6739L22.0354 50.6732ZM5.54921 21.7309C7.03087 24.9424 5.78805 27.5888 4.58061 30.1566C3.60536 32.2314 2.68318 34.1906 2.65445 36.8392C2.6257 39.3744 3.81105 42.0274 5.9097 44.1218C7.82926 46.0352 10.2574 47.2744 12.9689 47.7326C10.8503 42.7864 12.5708 40.1181 14.5368 37.8124C14.7668 37.5418 15.0167 37.2691 15.2732 36.9877C16.7725 35.347 18.4311 33.534 18.2365 30.6257C18.2033 30.1108 18.4775 29.6243 18.9419 29.3821C19.4041 29.1421 19.968 29.1901 20.3794 29.5108C23.1769 31.6795 27.7966 36.1739 27.2881 41.9094C27.1156 43.8577 26.503 45.686 25.5344 47.1804C28.4425 46.299 30.873 44.7217 32.4648 42.6687C34.5745 39.9459 35.2247 36.3765 34.3445 32.3491C33.1724 26.9734 29.7469 23.2276 26.4338 19.6038C21.9688 14.7191 20.1691 10.1043 20.3413 3.86246C14.1511 8.2826 13.8308 13.4317 14.4342 18.3532C15.0622 23.4757 13.7552 26.4884 12.5478 28.116C12.236 28.5349 11.7031 28.7291 11.1922 28.62C10.6792 28.5087 10.2811 28.1073 10.1771 27.5989C9.73264 25.3889 8.2598 22.6747 5.5486 21.7299L5.54921 21.7309Z" fill="#778495"/>
</svg>
