<svg width="57" height="47" viewBox="0 0 57 47" fill="none" xmlns="http://www.w3.org/2000/svg">
<path d="M9.9077 30.7957C9.28654 32.1042 8.96428 33.5348 8.96428 34.9884C8.96428 40.4761 13.4945 44.9405 19.0615 44.9405C20.9296 44.9405 22.7277 44.4406 24.3087 43.4892C26.6345 45.5464 29.5672 46.5854 32.5049 46.5854C35.4285 46.5854 38.3568 45.5603 40.7012 43.4892C41.2266 43.0238 41.6773 42.5262 42.0882 42.0217C42.9873 42.3074 43.9306 42.4733 44.8951 42.4733C49.9738 42.4733 54.1046 38.398 54.1046 33.3876C54.1046 30.6923 52.937 28.2917 51.0689 26.633C53.1565 22.2605 52.4163 17.0313 49.1167 13.3891C48.4769 12.6773 47.7506 12.0437 46.952 11.5046C47.2556 8.83693 46.4103 6.19439 44.5842 4.17153C41.273 0.529362 35.6945 0.0202068 31.788 2.87452C27.2975 -0.737725 20.8314 -0.627146 16.4207 3.24311C16.3459 3.30762 16.2806 3.37443 16.2105 3.44123C15.2811 2.81462 14.1603 2.44833 12.953 2.44833C9.75617 2.44833 7.15487 5.01469 7.15487 8.16599C7.15487 9.14739 7.40707 10.0689 7.84841 10.8775C7.58454 11.071 7.32534 11.276 7.07318 11.4972C4.71234 13.5751 3.3136 16.4388 3.13381 19.5625C2.95401 22.6887 4.01885 25.693 6.13215 28.0245C7.19931 29.1948 8.49064 30.1416 9.9104 30.8005L9.9077 30.7957ZM12.9527 4.28675C15.1197 4.28675 16.8828 6.02608 16.8828 8.16163C16.8828 10.2995 15.1197 12.0388 12.9527 12.0388C10.7857 12.0388 9.02267 10.2995 9.02267 8.16163C9.02267 6.02377 10.7857 4.28675 12.9527 4.28675ZM4.99907 19.6641C5.14851 17.0332 6.32776 14.6212 8.3103 12.875C8.53213 12.6815 8.76098 12.5018 8.99447 12.3314C10.0312 13.2897 11.4207 13.8818 12.9502 13.8818C16.147 13.8818 18.7483 11.3154 18.7483 8.16168C18.7483 6.86466 18.3023 5.66903 17.562 4.70838C17.5971 4.67612 17.6274 4.64387 17.6648 4.61162C21.5505 1.19748 27.3396 1.25508 31.1271 4.74524C31.1294 4.74754 31.1318 4.74754 31.1318 4.74984C31.1341 4.74984 31.1341 4.75215 31.1364 4.75445C31.1505 4.76827 32.5352 6.03992 32.8831 8.03033C32.9625 8.47956 33.3548 8.79515 33.8032 8.79515C33.8545 8.79515 33.9082 8.79054 33.9619 8.78133C34.471 8.69379 34.8119 8.21919 34.7232 7.71702C34.4476 6.14129 33.6981 4.93643 33.1213 4.20154C36.2504 2.08212 40.5887 2.53362 43.1906 5.39486C44.7715 7.14569 45.4394 9.47704 45.0237 11.7902C44.956 12.1635 45.1265 12.5389 45.4534 12.7371C46.3011 13.2508 47.0646 13.8797 47.7208 14.6123C50.4412 17.6141 51.1114 21.883 49.5282 25.5203C48.2415 24.7877 46.754 24.3523 45.1568 24.3086C44.6314 24.2809 44.2111 24.6956 44.1971 25.2047C44.183 25.7138 44.5894 26.1377 45.1054 26.1515C46.7283 26.1953 48.2041 26.7505 49.3904 27.6513C49.4091 27.6651 49.4231 27.6835 49.4418 27.6951C49.4464 27.6974 49.4488 27.6974 49.4535 27.6997C51.1534 29.022 52.2393 31.0677 52.2393 33.3854C52.2393 37.38 48.9467 40.628 44.8979 40.628C42.5324 40.628 40.2953 39.49 38.9149 37.5848C38.6137 37.1701 38.0299 37.0757 37.612 37.3729C37.1916 37.6701 37.0959 38.2437 37.3971 38.6583C38.1817 39.7388 39.1905 40.6096 40.3301 41.2523C40.0638 41.5472 39.7743 41.8375 39.4591 42.1162C35.3072 45.7814 28.9927 45.5856 25.0841 41.6693C24.7619 41.3468 24.2482 41.303 23.8722 41.5679C22.4618 42.5701 20.8015 43.0976 19.0665 43.0976C14.5293 43.0976 10.8373 39.46 10.8373 34.9885C10.8373 33.7329 11.1503 32.5051 11.72 31.3877C12.11 31.4522 12.6214 31.5121 13.2145 31.5121C13.873 31.5121 14.6296 31.4384 15.4165 31.2219C15.9139 31.0837 16.2035 30.5768 16.0657 30.0862C15.9279 29.5955 15.4119 29.3098 14.9145 29.4457C13.2075 29.918 11.664 29.501 11.5239 29.4596C10.0107 28.9182 8.62601 27.9944 7.52617 26.7872C5.74679 24.8244 4.85244 22.295 5.00189 19.6596L4.99907 19.6641Z" fill="#778495" stroke="#778495" stroke-width="0.5"/>
<path d="M4.04928 38.237C6.1439 38.237 7.84856 36.5552 7.84856 34.4888C7.84856 32.4223 6.1439 30.7406 4.04928 30.7406C1.95466 30.7406 0.25 32.4223 0.25 34.4888C0.25 36.5552 1.95466 38.237 4.04928 38.237ZM4.04928 32.5837C5.1141 32.5837 5.98045 33.4384 5.98045 34.4889C5.98045 35.5394 5.1141 36.3941 4.04928 36.3941C2.98446 36.3941 2.11811 35.5394 2.11811 34.4889C2.11811 33.4384 2.98446 32.5837 4.04928 32.5837Z" fill="#778495" stroke="#778495" stroke-width="0.5"/>
<path d="M52.3674 4.31665C50.205 4.31665 48.4443 6.05367 48.4443 8.18691C48.4443 10.3201 50.205 12.0572 52.3674 12.0572C54.5297 12.0572 56.2904 10.3201 56.2904 8.18691C56.2904 6.05367 54.5297 4.31665 52.3674 4.31665ZM52.3674 10.2142C51.2348 10.2142 50.3124 9.3042 50.3124 8.18691C50.3124 7.06962 51.2348 6.15963 52.3674 6.15963C53.4999 6.15963 54.4223 7.06962 54.4223 8.18691C54.4223 9.3042 53.4999 10.2142 52.3674 10.2142Z" fill="#778495" stroke="#778495" stroke-width="0.5"/>
<path d="M30.48 15.1785C31.9582 14.7638 33.511 14.9412 34.8537 15.6784C36.1964 16.4156 37.1678 17.625 37.5882 19.0833C37.705 19.4887 38.0786 19.7537 38.4849 19.7537C38.5689 19.7537 38.6553 19.7422 38.7417 19.7168C39.2368 19.5786 39.5264 19.0672 39.3839 18.5788C38.8258 16.6483 37.5392 15.0472 35.7621 14.0681C33.9828 13.0913 31.9278 12.8564 29.9685 13.4046C29.4735 13.5429 29.1839 14.0543 29.3263 14.5427C29.4665 15.0311 29.9849 15.3167 30.4799 15.1762L30.48 15.1785Z" fill="#778495" stroke="#778495" stroke-width="0.5"/>
<path d="M24.2178 33.2191C24.2902 33.2353 24.3626 33.2422 24.4327 33.2422C24.8576 33.2422 25.2406 32.9565 25.341 32.5326C25.4578 32.0373 25.1472 31.542 24.6451 31.4245C23.1974 31.0882 21.969 30.2174 21.1844 28.9687C20.3998 27.7201 20.157 26.2457 20.4979 24.8174C20.6147 24.3221 20.3041 23.8268 19.802 23.7093C19.3 23.5941 18.7956 23.9005 18.6788 24.3958C18.2258 26.3033 18.5504 28.273 19.5966 29.9385C20.6427 31.604 22.2843 32.7698 24.2178 33.219L24.2178 33.2191Z" fill="#778495" stroke="#778495" stroke-width="0.5"/>
<path d="M13.3265 18.629C12.9226 18.629 12.5357 18.9794 12.5544 19.3908C12.5731 19.8035 12.8936 20.1526 13.3265 20.1526C13.7304 20.1526 14.1173 19.8022 14.0987 19.3908C14.0799 18.9781 13.7594 18.629 13.3265 18.629Z" fill="#778495" stroke="#778495" stroke-width="0.5"/>
<path d="M25.8304 6.4408C25.4265 6.4408 25.0396 6.79117 25.0583 7.20256C25.077 7.61529 25.3975 7.96433 25.8304 7.96433C26.2343 7.96433 26.6212 7.61395 26.6026 7.20256C26.5838 6.78983 26.2633 6.4408 25.8304 6.4408Z" fill="#778495" stroke="#778495" stroke-width="0.5"/>
<path d="M46.2049 29.1956C45.801 29.1956 45.4141 29.5459 45.4328 29.9573C45.4515 30.37 45.772 30.7191 46.2049 30.7191C46.6088 30.7191 46.9958 30.3687 46.9771 29.9573C46.9583 29.5446 46.6378 29.1956 46.2049 29.1956Z" fill="#778495" stroke="#778495" stroke-width="0.5"/>
<path d="M45.3084 34.4541C44.9045 34.4541 44.5176 34.8045 44.5363 35.2159C44.555 35.6286 44.8756 35.9776 45.3084 35.9776C45.7123 35.9776 46.0993 35.6273 46.0806 35.2159C46.0619 34.8031 45.7413 34.4541 45.3084 34.4541Z" fill="#778495" stroke="#778495" stroke-width="0.5"/>
<path d="M33.4022 29.5887C32.9983 29.5887 32.6114 29.9391 32.63 30.3505C32.6488 30.7632 32.9693 31.1123 33.4022 31.1123C33.8061 31.1123 34.193 30.7619 34.1743 30.3505C34.1556 29.9378 33.8351 29.5887 33.4022 29.5887Z" fill="#778495" stroke="#778495" stroke-width="0.5"/>
<path d="M20.5497 36.4199C20.1458 36.4199 19.7588 36.7703 19.7775 37.1817C19.7962 37.5944 20.1168 37.9435 20.5497 37.9435C20.9536 37.9435 21.3405 37.5931 21.3218 37.1817C21.3031 36.769 20.9825 36.4199 20.5497 36.4199Z" fill="#778495" stroke="#778495" stroke-width="0.5"/>
</svg>
