<?xml version="1.0" encoding="UTF-8"?>
<svg xmlns="http://www.w3.org/2000/svg" xmlns:xlink="http://www.w3.org/1999/xlink" viewBox="0 0 814.531982421875 193.999999978143933">
  <defs>
    <style>
      .cls-1 {
        fill: #ede5df;
      }

      .cls-2 {
        fill: #fff;
      }

      .cls-3 {
        mask: url(#mask);
      }

      .cls-4 {
        fill: #647671;
      }

      .cls-5 {
        isolation: isolate;
      }

      .cls-6 {
        fill: #ffb300;
      }

      .cls-7 {
        fill: #0f8ec6;
      }

      .cls-8 {
        fill: #d4dfee;
      }

      .cls-9 {
        fill: #a289d7;
      }

      .cls-10 {
        fill: #efeff0;
      }

      .cls-11 {
        fill: none;
        stroke: #fff;
      }

      .cls-12 {
        mix-blend-mode: multiply;
      }

      .cls-13 {
        fill: #e9e3dd;
      }

      .cls-14 {
        fill: #0074bc;
      }
    </style>
    <mask id="mask" x="98.069295313738621" y="12.482934584701979" width="153.361493332740793" height="181.376900440733152" maskUnits="userSpaceOnUse">
      <g id="mask0_70_788" data-name="mask0 70 788">
        <path class="cls-2" d="M223.72900390625,132.373001076776745c17.699996948242188-28.561004638671875,8.87799072265625-66.052902221679688-19.704010009765625-83.739700317382812-28.582000732421875-17.686800003051758-66.099990844726562-8.871002197265625-83.799995422363281,19.690498352050781-17.698997497558594,28.561599731445312-8.876998901367188,66.053199768066406,19.704994201660156,83.740196228027344,28.582000732421875,17.68701171875,66.100006103515625,8.871002197265625,83.79901123046875-19.690994262695312Z"/>
      </g>
    </mask>
  </defs>
  <g class="cls-5">
    <g id="Layer_1" data-name="Layer 1">
      <path class="cls-13" d="M145.47900390625,134.772003151972058c6.597991943359375-10.647003173828125,3.308990478515625-24.623001098632812-7.345001220703125-31.217002868652344-10.655006408691406-6.593002319335938-24.641006469726562-3.306999206542969-31.239006042480469,7.339996337890625-6.597999572753906,10.648002624511719-3.308998107910156,24.624000549316406,7.345001220703125,31.217002868652344,10.654998779296875,6.593002319335938,24.640998840332031,3.3070068359375,31.239006042480469-7.339996337890625Z"/>
      <g class="cls-12">
        <path class="cls-9" d="M236.774993896484375,134.985000588495495c6.71600341796875-10.837997436523438,3.368011474609375-25.06500244140625-7.47698974609375-31.7760009765625-10.84600830078125-6.711700439453125-25.0830078125-3.366401672363281-31.79901123046875,7.472000122070312-6.716995239257812,10.837997436523438-3.368988037109375,25.063995361328125,7.477005004882812,31.7760009765625,10.84600830078125,6.71099853515625,25.082000732421875,3.365997314453125,31.798995971679688-7.472000122070312Z"/>
      </g>
      <path class="cls-6" d="M190.938003540039062,160.712005593378308c6.71600341796875-10.8380126953125,3.367996215820312-25.06500244140625-7.477005004882812-31.777008056640625-10.845993041992188-6.71099853515625-25.082992553710938-3.365997314453125-31.798995971679688,7.472000122070312s-3.369003295898438,25.06500244140625,7.477005004882812,31.7760009765625c10.845993041992188,6.712005615234375,25.082992553710938,3.36700439453125,31.798995971679688-7.470993041992188Z"/>
      <path class="cls-7" d="M153.841995239257812,74.756599404413464c6.71600341796875-10.838100433349609,3.369003295898438-25.064800262451172-7.47698974609375-31.776298522949219-10.84600830078125-6.711502075195312-25.0830078125-3.366199493408203-31.799003601074219,7.471797943115234-6.71600341796875,10.838100433349609-3.369003295898438,25.064800262451172,7.476997375488281,31.776302337646484,10.84600830078125,6.711502075195312,25.0830078125,3.366195678710938,31.798995971679688-7.4718017578125Z"/>
      <path class="cls-4" d="M226.289993286132812,76.201896645624402c6.717010498046875-10.838096618652344,3.369003295898438-25.064796447753906-7.47698974609375-31.776298522949219-10.84600830078125-6.711498260498047-25.082000732421875-3.366199493408203-31.798995971679688,7.4718017578125-6.71600341796875,10.838100433349609-3.368011474609375,25.064796447753906,7.477996826171875,31.776298522949219,10.845001220703125,6.711502075195312,25.082000732421875,3.366203308105469,31.797988891601562-7.4718017578125Z"/>
      <path class="cls-10" d="M223.72900390625,132.374999978143933c17.699996948242188-28.560997009277344,8.87799072265625-66.053001403808594-19.704010009765625-83.739700317382812-28.582000732421875-17.686800003051758-66.099990844726562-8.871101379394531-83.799995422363281,19.690498352050781-17.698997497558594,28.561500549316406-8.876998901367188,66.053199768066406,19.704994201660156,83.740196228027344,28.582000732421875,17.68701171875,66.100006103515625,8.871002197265625,83.79901123046875-19.690994262695312Z"/>
      <g class="cls-3">
        <g>
          <g class="cls-12">
            <path class="cls-7" d="M208.779998779296875,117.219001748163464c16.218994140625-26.173202514648438,8.134994506835938-60.529502868652344-18.056991577148438-76.737201690673828-26.191009521484375-16.207700729370117-60.572006225585938-8.129199981689453-76.791007995605469,18.043800354003906-16.21929931640625,26.173000335693359-8.135002136230469,60.529399871826172,18.056999206542969,76.737400054931641,26.190994262695312,16.207000732421875,60.572006225585938,8.128997802734375,76.791000366210938-18.043998718261719Z"/>
          </g>
          <g class="cls-12">
            <path class="cls-4" d="M243.572006225585938,92.433898903925183c15.238998413085938-24.5906982421875,7.642990112304688-56.869998931884766-16.965011596679688-72.097898483276367-24.608001708984375-15.227800369262695-56.909988403320312-7.637700080871582-72.149002075195312,16.953001022338867-15.237991333007812,24.5906982421875-7.642990112304688,56.870101928710938,16.965011596679688,72.097999572753906,24.608001708984375,15.227996826171875,56.910995483398438,7.63800048828125,72.149002075195312-16.953102111816406Z"/>
          </g>
          <g class="cls-12">
            <path class="cls-9" d="M236.14599609375,148.59800718029237c10.637008666992188-17.165008544921875,5.335006713867188-39.698005676269531-11.843002319335938-50.327705383300781-17.176986694335938-10.629898071289062-39.725997924804688-5.33160400390625-50.363998413085938,11.833694458007812-10.636993408203125,17.166000366210938-5.334991455078125,39.698997497558594,11.843002319335938,50.329002380371094,17.178009033203125,10.628997802734375,39.725997924804688,5.331008911132812,50.363998413085938-11.834991455078125Z"/>
          </g>
          <g class="cls-12">
            <path class="cls-1" d="M198.214004516601562,168.242004372675183c15.737991333007812-25.395004272460938,7.893997192382812-58.730003356933594-17.520004272460938-74.456207275390625-25.412994384765625-15.725997924804688-58.772003173828125-7.887596130371094-74.509002685546875,17.5072021484375-15.737098693847656,25.39599609375-7.893096923828125,58.731002807617188,17.520004272460938,74.457000732421875,25.412994384765625,15.725997924804688,58.772003173828125,7.886993408203125,74.509002685546875-17.50799560546875Z"/>
          </g>
          <g class="cls-12">
            <path class="cls-6" d="M207.136001586914062,159.27299497326112c9.71600341796875-15.679000854492188,4.873001098632812-36.259994506835938-10.817001342773438-45.969993591308594-15.690994262695312-9.708999633789062-36.285995483398438-4.870002746582031-46.003005981445312,10.808998107910156-9.715988159179688,15.680007934570312-4.873001098632812,36.261001586914062,10.817001342773438,45.970001220703125s36.2860107421875,4.8699951171875,46.003005981445312-10.809005737304688Z"/>
          </g>
        </g>
      </g>
      <path class="cls-2" d="M171.072006225585938,154.826004006464245c-8.205001831054688,0-15.6510009765625-1.568008422851562-22.3380126953125-4.707000732421875-6.685989379882812-3.137008666992188-12.409988403320312-7.26300048828125-17.170989990234375-12.376007080078125-4.76300048828125-5.110992431640625-8.460006713867188-10.956993103027344-11.093002319335938-17.538993835449219-2.636001586914062-6.580001831054688-3.951004028320312-13.362998962402344-3.951004028320312-20.34820556640625,0-7.084999084472656,1.36700439453125-13.918296813964844,4.102005004882812-20.500396728515625,2.736000061035156-6.5791015625,6.558998107910156-12.375900268554688,11.4739990234375-17.386699676513672,4.912994384765625-5.011501312255859,10.735992431640625-9.009498596191406,17.475006103515625-11.996898651123047,6.735992431640625-2.984401702880859,14.105987548828125-4.479602813720703,22.1099853515625-4.479602813720703,8.206008911132812,0,15.652008056640625,1.571201324462891,22.339004516601562,4.707801818847656,6.686004638671875,3.138900756835938,12.406997680664062,7.288997650146484,17.171005249023438,12.451999664306641,4.759994506835938,5.16290283203125,8.432998657226562,11.035202026367188,11.0159912109375,17.614898681640625,2.585006713867188,6.581497192382812,3.876007080078125,13.312797546386719,3.876007080078125,20.196098327636719,0,7.087005615234375-1.367996215820312,13.895004272460938-4.102996826171875,20.424003601074219-2.736007690429688,6.529998779296875-6.53399658203125,12.299995422363281-11.397003173828125,17.312004089355469-4.863006591796875,5.009994506835938-10.662994384765625,9.03399658203125-17.399993896484375,12.071990966796875-6.738006591796875,3.037002563476562-14.108001708984375,4.555007934570312-22.110000610351562,4.555007934570312ZM146.60699462890625,100.158996560175183c0,3.645004272460938.5050048828125,7.163002014160156,1.520004272460938,10.554000854492188,1.011001586914062,3.39300537109375,2.531005859375,6.403999328613281,4.559005737304688,9.035003662109375,2.024002075195312,2.634002685546875,4.582000732421875,4.760002136230469,7.672988891601562,6.377998352050781,3.089004516601562,1.621002197265625,6.76300048828125,2.430000305175781,11.017013549804688,2.430000305175781,4.254989624023438,0,7.951995849609375-.834999084472656,11.092987060546875-2.505996704101562,3.139007568359375-1.670005798339844,5.699005126953125-3.846000671386719,7.67401123046875-6.528999328613281,1.975997924804688-2.6820068359375,3.4429931640625-5.745002746582031,4.406997680664062-9.188003540039062.96099853515625-3.44000244140625,1.444000244140625-6.932998657226562,1.444000244140625-10.477203369140625,0-3.644798278808594-.509002685546875-7.161094665527344-1.520004272460938-10.554100036621094-1.013992309570312-3.390098571777344-2.559005737304688-6.377494812011719-4.634994506835938-8.959297180175781-2.077011108398438-2.581199645996094-4.660003662109375-4.654800415039062-7.75-6.225997924804688-3.09100341796875-1.56829833984375-6.712005615234375-2.353599548339844-10.863998413085938-2.353599548339844-4.2550048828125,0-7.929000854492188.811798095703125-11.017013549804688,2.429695129394531-3.091995239257812,1.620704650878906-5.64898681640625,3.772705078125-7.67498779296875,6.453506469726562-2.027008056640625,2.683799743652344-3.521011352539062,5.720695495605469-4.482009887695312,9.111396789550781-.964996337890625,3.393096923828125-1.444000244140625,6.85980224609375-1.444000244140625,10.401596069335938Z"/>
      <path class="cls-8" d="M95.431602478027344,9.908200242120984l-.000205993652344,136.955798149108887h-29.632797241210938l.000099182128906-42.214996337890625H29.632299423217773l-.000099182128906,66.363998413085938H0L.000255438993918,39.04890058239198h29.632145073701395l-.000101089477539,39.784999847412109h36.166498184204102l.000099182128906-68.925700187683105h29.632705688476562Z"/>
      <path class="cls-8" d="M248.345001220703125,171.013000466425183V39.048801400263073h46.5c5.264984130859375,0,10.128997802734375,1.088996887207031,14.587005615234375,3.264499664306641,4.4580078125,2.178497314453125,8.28399658203125,5.011497497558594,11.475006103515625,8.504100799560547,3.189971923828125,3.492099761962891,5.696990966796875,7.492996215820312,7.52099609375,11.996299743652344,1.824005126953125,4.505596160888672,2.7349853515625,9.035297393798828,2.7349853515625,13.590396881103516,0,4.75970458984375-.860992431640625,9.391502380371094-2.583984375,13.894699096679688-1.7230224609375,4.505599975585938-4.128021240234375,8.50360107421875-7.217010498046875,11.996200561523438-3.092010498046875,3.493003845214844-6.8389892578125,6.278999328613281-11.2449951171875,8.352005004882812-4.406005859375,2.075996398925781-9.24700927734375,3.112998962402344-14.511993408203125,3.112998962402344h-17.62701416015625v57.252998352050781h-29.63299560546875ZM277.977996826171875,87.945198037225964h15.652008056640625c1.821990966796875,0,3.51898193359375-.835395812988281,5.089996337890625-2.505699157714844,1.57000732421875-1.670295715332031,2.355987548828125-4.681297302246094,2.355987548828125-9.035400390625,0-4.453102111816406-.91400146484375-7.4906005859375-2.735992431640625-9.110801696777344-1.824005126953125-1.618400573730469-3.64801025390625-2.429595947265625-5.470001220703125-2.429595947265625h-14.891998291015625v23.081497192382812Z"/>
      <path class="cls-8" d="M428.363006591796875,121.049003579218152v25.814994812011719h-88.9739990234375V39.04890058239198l71.897979736328125-.000099182128906v25.814899444580078h-42.2659912109375v15.185302734375h26.110992431640625v23.991996765136719h-26.110992431640625v17.008003234863281h59.342010498046875Z"/>
      <path class="cls-2" d="M126.467002868652344,21.937900521356823v1.142000198364258h-8.792999267578125v-13.079900741577148h8.627998352050781v1.142600059509277h-7.337005615234375v4.716099739074707h6.397003173828125v1.086599349975586h-6.397003173828125v4.99260139465332h7.502006530761719Z"/>
      <path class="cls-2" d="M139.8699951171875,9.999999978143933l4.294998168945312,5.711299896240234,4.296005249023438-5.711299896240234h1.419998168945312l-5.03399658203125,6.632200241088867,4.886001586914062,6.447700500488281h-1.41900634765625l-4.149002075195312-5.526800155639648-4.14599609375,5.526800155639648h-1.457000732421875l4.885009765625-6.447700500488281-5.033004760742188-6.632200241088867h1.45599365234375Z"/>
      <path class="cls-2" d="M162.673995971679688,23.079900719721081v-13.079900741577148h5.419998168945312c.56500244140625,0,1.083999633789062.12030029296875,1.5570068359375.359600067138672.472991943359375.239399909973145.882003784179688.552499771118164,1.225997924804688.939200401306152.345001220703125.386799812316895.615005493164062.82599925994873.811996459960938,1.31719970703125.195999145507812.491700172424316.294998168945312.988699913024902.294998168945312,1.492199897766113,0,.54069995880127-.091995239257812,1.059499740600586-.276992797851562,1.557100296020508-.184005737304688.496999740600586-.4429931640625.936199188232422-.774002075195312,1.317100524902344-.332000732421875.380899429321289-.727996826171875.6875-1.188995361328125.9208984375-.46099853515625.233501434326172-.9739990234375.350299835205078-1.540008544921875.350299835205078h-4.238998413085938v4.826301574707031h-1.291000366210938ZM163.964996337890625,17.111000039179089h4.184005737304688c.3800048828125,0,.727996826171875-.082599639892578,1.041000366210938-.248300552368164.313995361328125-.16619873046875.582000732421875-.387298583984375.802001953125-.663200378417969.222000122070312-.276498794555664.393997192382812-.595499038696289.516998291015625-.958099365234375.123001098632812-.36199951171875.183990478515625-.739899635314941.183990478515625-1.133199691772461,0-.404999732971191-.070999145507812-.788800239562988-.211990356445312-1.151399612426758-.141998291015625-.362000465393066-.332000732421875-.678000450134277-.570999145507812-.948700904846191-.240005493164062-.269999504089355-.52301025390625-.48169994354248-.848007202148438-.635499954223633-.326004028320312-.153299331665039-.6669921875-.229999542236328-1.024002075195312-.229999542236328h-4.072998046875v5.968400001525879Z"/>
      <path class="cls-2" d="M188.427993774414062,9.999999978143933h1.087005615234375l5.44000244140625,13.079900741577148h-1.363998413085938l-1.697006225585938-4.090000152587891h-5.880996704101562l-1.677993774414062,4.090000152587891h-1.382003784179688l5.474990844726562-13.079900741577148ZM191.5989990234375,17.976999260980847l-2.636001586914062-6.465899467468262-2.673995971679688,6.465899467468262h5.30999755859375Z"/>
      <path class="cls-2" d="M209.18499755859375,12.394900300104382v10.685000419616699h-1.289993286132812v-13.079900741577148h.9949951171875l8.664993286132812,10.887800216674805v-10.868900299072266h1.290008544921875v13.061000823974609h-1.123001098632812l-8.537002563476562-10.685000419616699Z"/>
      <path class="cls-2" d="M233.188003540039062,23.079900719721081v-13.079900741577148h4.442001342773438c1.044998168945312,0,1.957000732421875.172200202941895,2.737991333007812.515899658203125.781005859375.344300270080566,1.4320068359375.810700416564941,1.954010009765625,1.400199890136719.52099609375.589600563049316.916000366210938,1.280600547790527,1.17999267578125,2.072400093078613.264007568359375.792400360107422.39599609375,1.636700630187988.39599609375,2.532900810241699,0,.995199203491211-.146987915039062,1.894899368286133-.442001342773438,2.699100494384766-.294998168945312.804798126220703-.715988159179688,1.492198944091797-1.263992309570312,2.063499450683594-.546005249023438.570699691772461-1.203994750976562,1.012899398803711-1.972000122070312,1.326000213623047-.76800537109375.312999725341797-1.632003784179688.469900131225586-2.589996337890625.469900131225586h-4.442001342773438ZM242.60699462890625,16.521400429804089c0-.785400390625-.110000610351562-1.507000923156738-.33099365234375-2.164400100708008-.22100830078125-.656800270080566-.54400634765625-1.225100517272949-.968002319335938-1.703900337219238-.423004150390625-.479299545288086-.9429931640625-.850199699401855-1.557998657226562-1.114899635314941-.613998413085938-.263500213623047-1.320999145507812-.395600318908691-2.1199951171875-.395600318908691h-3.152999877929688v10.795300483703613h3.152999877929688c.811996459960938,0,1.526992797851562-.138601303100586,2.147994995117188-.414501190185547.6199951171875-.276498794555664,1.139999389648438-.65679931640625,1.5570068359375-1.142599105834961.417999267578125-.484701156616211.733993530273438-1.055999755859375.949996948242188-1.712699890136719.214996337890625-.656801223754883.321990966796875-1.372600555419922.321990966796875-2.146699905395508Z"/>
      <path class="cls-2" d="M257.430999755859375,23.079900719721081v-13.079900741577148h1.28900146484375v13.079900741577148h-1.28900146484375Z"/>
      <path class="cls-2" d="M274.352996826171875,12.394900300104382v10.685000419616699h-1.290008544921875l.001007080078125-13.079900741577148h.9940185546875l8.66497802734375,10.887800216674805v-10.868900299072266h1.291015625v13.061000823974609h-1.126007080078125l-8.535003662109375-10.685000419616699Z"/>
      <path class="cls-2" d="M307.81201171875,21.163900353510144c-1.217010498046875,1.338998794555664-2.61700439453125,2.008100509643555-4.2030029296875,2.008100509643555-.885009765625,0-1.699005126953125-.189800262451172-2.443023681640625-.570701599121094-.74298095703125-.380899429321289-1.38897705078125-.8843994140625-1.93499755859375-1.511098861694336-.5469970703125-.626100540161133-.9749755859375-1.335399627685547-1.280975341796875-2.127201080322266-.308013916015625-.792398452758789-.462005615234375-1.605998992919922-.462005615234375-2.441499710083008,0-.871399879455566.1510009765625-1.706799507141113.451995849609375-2.505099296569824.300994873046875-.798300743103027.72198486328125-1.501700401306152,1.26300048828125-2.109499931335449.540008544921875-.607900619506836,1.17999267578125-1.092500686645508,1.9169921875-1.455100059509277.738006591796875-.362000465393066,1.542999267578125-.543600082397461,2.415008544921875-.543600082397461.639007568359375,0,1.222991943359375.070759773254395,1.751983642578125.212299346923828.527008056640625.140900611877441.998016357421875.337800025939941,1.410003662109375.589000701904297.412017822265625.252299308776855.76800537109375.552999496459961,1.069000244140625.902599334716797.300994873046875.350200653076172.555999755859375.734000205993652.7650146484375,1.151500701904297l-.9949951171875.663199424743652c-.430999755859375-.810699462890625-.990020751953125-1.406099319458008-1.678009033203125-1.786999702453613-.68798828125-.380300521850586-1.468994140625-.570699691772461-2.34100341796875-.570699691772461-.72601318359375,0-1.3800048828125.153299331665039-1.9639892578125.46049976348877-.584014892578125.307100296020508-1.082000732421875.715700149536133-1.49200439453125,1.225099563598633-.412994384765625.509400367736816-.730010986328125,1.093100547790527-.95001220703125,1.749899864196777-.220977783203125.657400131225586-.332000732421875,1.335400581359863-.332000732421875,2.035799980163574,0,.73699951171875.125,1.436800003051758.378021240234375,2.100099563598633.2509765625.663301467895508.5989990234375,1.243400573730469,1.0419921875,1.740501403808594.441986083984375.497598648071289.96099853515625.893798828125,1.5570068359375,1.1885986328125.595977783203125.294700622558594,1.243988037109375.442201614379883,1.944976806640625.442201614379883.7490234375,0,1.464996337890625-.175201416015625,2.147003173828125-.525400161743164.683013916015625-.349599838256836,1.337005615234375-.905601501464844,1.964019775390625-1.667301177978516v-2.173799514770508h-2.912017822265625v-.994600296020508h4v6.429399490356445h-1.087982177734375v-1.91619873046875Z"/>
      <line class="cls-11" x1="478.863006591796875" x2="478.863006591796875" y2="193.999999978143933"/>
      <path class="cls-2" d="M634.62701416015625,52.144500710565808h-106.2640380859375v106.263504028320312h106.2640380859375V52.144500710565808Z"/>
      <path class="cls-14" d="M634.8179931640625,51.908199288446667h-106.45501708984375v106.454807281494141h106.45501708984375V51.908199288446667Z"/>
      <path class="cls-2" d="M603.48297119140625,59.776699044306042c2.623046875,0,4.77001953125,2.14630126953125,4.77001953125,4.769504547119141,0,2.623199462890625-2.14697265625,4.769493103027344-4.77001953125,4.769493103027344-2.62298583984375,0-4.76898193359375-2.146293640136719-4.76898193359375-4.769493103027344,0-2.670902252197266,2.14599609375-4.769504547119141,4.76898193359375-4.769504547119141ZM559.74700927734375,59.776699044306042c2.62298583984375,0,4.77001953125,2.14630126953125,4.77001953125,4.769504547119141,0,2.623199462890625-2.14703369140625,4.769493103027344-4.77001953125,4.769493103027344s-4.76898193359375-2.146293640136719-4.76898193359375-4.769493103027344c0-2.670902252197266,2.09796142578125-4.769504547119141,4.76898193359375-4.769504547119141ZM629.81097412109375,69.267997719843152c-2.81396484375.858505249023438-19.5069580078125,6.295700073242188-29.23699951171875,4.674102783203125-5.67596435546875-1.717002868652344-12.63897705078125-7.106498718261719-17.78997802734375-11.494499206542969,2.384033203125-2.718601226806641,4.0059814453125-4.769401550292969,4.72100830078125-5.675601959228516.239013671875-.286197662353516-.0469970703125-.667697906494141-.3809814453125-.381599426269531-.81103515625.763099670410156-2.86199951171875,2.6708984375-5.58001708984375,5.007999420166016-2.6710205078125-2.337100982666016-4.67401123046875-4.244899749755859-5.4849853515625-5.007999420166016-.2860107421875-.286201477050781-.572998046875.095401763916016-.33404541015625.381599426269531.66802978515625.906200408935547,2.24200439453125,3.00469970703125,4.4830322265625,5.770999908447266-5.10302734375,4.2926025390625-12.01898193359375,9.443603515625-17.5989990234375,11.160598754882812-9.72998046875,1.621604919433594-26.375-3.529396057128906-29.18902587890625-4.387901306152344-.42999267578125-.09539794921875-.52496337890625.333900451660156-.23895263671875.476905822753906,2.57598876953125,1.287796020507812,14.0699462890625,6.915794372558594,26.89996337890625,10.683700561523438.906005859375,4.149398803710938,1.1920166015625,9.920494079589844.19097900390625,17.742393493652344-2.718994140625,20.604301452636719-22.60797119140625,42.210304260253906-23.083984375,42.734306335449219-.239013671875.238998413085938,0,.6199951171875.238037109375.429000854492188,1.6219482421875-1.143997192382812,16.59796142578125-11.303009033203125,26.04095458984375-28.187004089355469,1.62200927734375,16.073005676269531.572998046875,38.012992858886719.47698974609375,38.823005676269531-.0469970703125.524993896484375.47705078125.42999267578125.5250244140625.190994262695312.9539794921875-3.291000366210938,6.48602294921875-34.625999450683594,6.24798583984375-56.947402954101562,2.00299072265625,2.194000244140625,4.38800048828125,4.62640380859375,6.9630126953125,7.106399536132812-.6199951171875,1.66900634765625-1.14398193359375,4.245002746582031-1.38299560546875,7.39300537109375-1.1920166015625,15.30999755859375,3.43402099609375,41.636993408203125,4.1500244140625,44.212997436523438.0469970703125.14300537109375.47698974609375.190994262695312.47698974609375-.190994262695312-.04803466796875-.572006225585938-.906982421875-15.691009521484375.23797607421875-26.804008483886719,5.3900146484375,9.681999206542969,13.16400146484375,15.930000305175781,16.31201171875,18.267005920410156.6199951171875,3.6719970703125,1.14398193359375,6.199996948242188,1.38299560546875,7.011001586914062.04803466796875.237991333007812.572021484375.333999633789062.52398681640625-.191009521484375-.094970703125-.810989379882812-1.14398193359375-22.75.47698974609375-38.822998046875,9.44403076171875,16.883010864257812,24.4200439453125,27.042007446289062,26.04205322265625,28.186996459960938.23797607421875.191009521484375.47698974609375-.190994262695312.23797607421875-.428985595703125-.52398681640625-.525009155273438-20.41302490234375-22.1300048828125-23.083984375-42.734603881835938-1.04901123046875-7.8218994140625-.76300048828125-13.593002319335938.19097900390625-17.742401123046875,14.07000732421875-2.814002990722656,24.37200927734375-9.34820556640625,26.947021484375-10.683601379394531.14300537109375-.238502502441406.0479736328125-.667800903320312-.38104248046875-.572402954101562ZM570.66900634765625,92.781501748163464c-.0469970703125-1.573898315429688-.14300537109375-3.100105285644531-.23797607421875-4.530998229980469-.33404541015625-4.578704833984375-1.0970458984375-8.251205444335938-2.0030517578125-10.683601379394531,5.10302734375-4.864898681640625,9.58599853515625-9.729705810546875,13.02001953125-13.545303344726562,3.3389892578125,4.006301879882812,7.822021484375,9.062004089355469,12.9730224609375,13.974601745605469-.906005859375,2.432395935058594-1.28802490234375,5.723297119140625-1.62103271484375,10.302001953125-.239013671875,3.243194580078125-.333984375,6.868095397949219-.239013671875,10.635894775390625-3.719970703125.715499877929688-7.77398681640625,1.191902160644531-10.82696533203125.667701721191406-3.52899169921875-1.096900939941406-7.677978515625-4.054000854492188-11.06500244140625-6.820297241210938ZM583.3079833984375,116.486000039179089c-.7149658203125-5.436996459960938-.52398681640625-9.396003723144531.14300537109375-12.305000305175781,3.2440185546875-.954002380371094,6.39202880859375-2.0989990234375,9.15802001953125-3.148002624511719.42901611328125,14.976005554199219,2.8609619140625,32.241004943847656,4.531005859375,42.448005676269531-3.8160400390625-4.531005859375-12.35302734375-15.834999084472656-13.83203125-26.995002746582031ZM586.98101806640625,93.258499123651745c0-1.812400817871094-1.47900390625-3.291000366210938-3.291015625-3.291000366210938s-3.291015625,1.478599548339844-3.291015625,3.291000366210938,1.47900390625,3.290901184082031,3.291015625,3.290901184082031,3.291015625-1.478500366210938,3.291015625-3.290901184082031Z"/>
      <path class="cls-2" d="M673.73699951171875,100.029998757440808c-12.781982421875,0-21.41497802734375-9.872596740722656-21.41497802734375-24.467201232910156,0-14.499198913574219,8.7760009765625-24.562797546386719,21.7969970703125-24.562797546386719,5.34197998046875,0,9.72900390625,1.573898315429688,13.25897216796875,4.054100036621094l-.76300048828125,4.817100524902344c-3.719970703125-2.670902252197266-7.82196044921875-4.578701019287109-12.59197998046875-4.578701019287109-10.39703369140625,0-16.83599853515625,8.203498840332031-16.83599853515625,20.222599029541016,0,12.114501953125,6.48699951171875,20.270301818847656,16.78900146484375,20.270301818847656,5.05499267578125,0,9.63397216796875-2.003196716308594,13.49700927734375-4.91259765625l.66796875,4.530998229980469c-3.57696533203125,2.57550048828125-8.7760009765625,4.626197814941406-14.40399169921875,4.626197814941406ZM698.4429931640625,59.012699105341198c1.7650146484375,0,3.24298095703125-1.526199340820312,3.24298095703125-3.290897369384766,0-1.764701843261719-1.43096923828125-3.290901184082031-3.24298095703125-3.290901184082031-1.7650146484375,0-3.291015625,1.526199340820312-3.291015625,3.290901184082031,0,1.764698028564453,1.47900390625,3.290897369384766,3.291015625,3.290897369384766ZM696.15399169921875,99.124000527460339h4.43499755859375v-32.384696960449219h-4.43499755859375v32.384696960449219ZM722.24298095703125,99.696296670038464c1.90802001953125,0,3.5770263671875-.286094665527344,4.531005859375-.52459716796875l-.66796875-3.767898559570312c-.76300048828125.143096923828125-2.00299072265625.333900451660156-3.0050048828125.333900451660156-3.48101806640625,0-4.76904296875-1.430900573730469-4.76904296875-4.7218017578125v-20.413299560546875h8.06005859375l-.62005615234375-3.815597534179688h-7.48797607421875v-11.971401214599609l-4.43499755859375.763099670410156v11.208301544189453h-5.00799560546875v3.815597534179688h5.00799560546875v21.176399230957031c-.0479736328125,5.914199829101562,3.3380126953125,7.91729736328125,8.39398193359375,7.91729736328125ZM759.11102294921875,66.73930356701112h-4.67401123046875l-9.5870361328125,27.185997009277344-10.0159912109375-27.567604064941406-4.38800048828125.810806274414062,12.25799560546875,32.194000244140625-1.5260009765625,3.910499572753906c-1.239990234375,3.147994995117188-2.81396484375,4.292999267578125-5.4849853515625,4.292999267578125-1.00201416015625,0-2.00299072265625-.14300537109375-2.6710205078125-.286003112792969l.62005615234375,3.958000183105469c.47698974609375.048004150390625,1.09698486328125.191001892089844,1.76495361328125.191001892089844,4.76904296875,0,7.67803955078125-2.002998352050781,10.0150146484375-8.299003601074219l13.68902587890625-36.390693664550781ZM772.7039794921875,74.370399453241589c6.6290283203125,0,11.06500244140625,5.103401184082031,11.06500244140625,12.63909912109375,0,7.535804748535156-4.43597412109375,12.591400146484375-11.06500244140625,12.591400146484375-6.53399658203125,0-10.9219970703125-5.055595397949219-10.9219970703125-12.591400146484375,0-7.583396911621094,4.38800048828125-12.63909912109375,10.9219970703125-12.63909912109375ZM772.7039794921875,96.071502663690808c4.34002685546875,0,6.916015625-3.386299133300781,6.916015625-9.062004089355469,0-5.532600402832031-2.718994140625-9.109695434570312-6.916015625-9.109695434570312-4.19696044921875,0-6.82098388671875,3.481796264648438-6.82098388671875,9.109695434570312,0,5.484901428222656,2.6710205078125,9.062004089355469,6.82098388671875,9.062004089355469ZM789.302001953125,69.50559995372987v5.341796875h-3.5770263671875v3.529403686523438h3.5770263671875v20.699501037597656h3.9580078125v-20.699501037597656h5.58099365234375l-.572998046875-3.529403686523438h-5.00799560546875v-5.1033935546875c0-2.193901062011719,1.00201416015625-3.195503234863281,3.19598388671875-3.195503234863281,0,0,.2860107421875-.047698974609375,2.385009765625.190803527832031l-.906982421875-3.767902374267578c-1.00103759765625-.095401763916016-1.66900634765625-.143100738525391-1.66900634765625-.143100738525391-4.4830322265625,0-6.9630126953125,2.384696960449219-6.9630126953125,6.677299499511719ZM690.09698486328125,158.455993630487683v-47.264991760253906h-4.72198486328125v20.413002014160156h-26.23199462890625v-20.413002014160156h-4.72198486328125v47.264991760253906h4.72198486328125v-22.60699462890625h26.23199462890625v22.60699462890625h4.72198486328125ZM714.1820068359375,159.123992898065808c8.29901123046875,0,14.73797607421875-6.152999877929688,14.73797607421875-16.83599853515625,0-10.73199462890625-6.29595947265625-16.931991577148438-14.73797607421875-16.931991577148438-8.155029296875,0-14.4990234375,6.152999877929688-14.4990234375,16.931991577148438,0,10.682998657226562,6.248046875,16.83599853515625,14.4990234375,16.83599853515625ZM714.1820068359375,129.218994118768933c6.48699951171875,0,10.06396484375,5.628005981445312,10.06396484375,13.069000244140625,0,7.679000854492188-3.48199462890625,13.020004272460938-10.06396484375,13.020004272460938-6.3909912109375,0-9.91998291015625-5.531997680664062-9.91998291015625-13.020004272460938,0-7.679000854492188,3.48199462890625-13.069000244140625,9.91998291015625-13.069000244140625ZM750.42999267578125,158.886001565057995c7.8699951171875,0,14.7860107421875-5.675994873046875,14.7860107421875-17.552001953125,0-10.826995849609375-5.96197509765625-15.930000305175781-13.02099609375-15.930000305175781-4.72198486328125,0-7.9169921875,2.480003356933594-10.49298095703125,5.342002868652344l-.76300048828125-4.674003601074219h-3.4820556640625v44.928001403808594l4.531005859375-.76300048828125v-12.925003051757812c2.3370361328125.9530029296875,5.19903564453125,1.574005126953125,8.4420166015625,1.574005126953125ZM751.718017578125,129.410003640253308c5.1510009765625,0,8.91900634765625,4.2449951171875,8.91900634765625,12.114990234375,0,9.014007568359375-4.531005859375,13.49700927734375-10.35003662109375,13.49700927734375-3.3380126953125,0-5.77099609375-.667007446289062-8.29901123046875-1.908004760742188v-17.884994506835938c2.95703125-3.529006958007812,5.9150390625-5.819000244140625,9.73004150390625-5.819000244140625ZM798.88800048828125,141.619995095331433c0-8.966995239257812-4.2449951171875-16.215995788574219-13.0679931640625-16.215995788574219-7.96502685546875,0-13.97503662109375,6.439002990722656-13.97503662109375,16.836006164550781,0,11.160995483398438,6.10504150390625,16.883987426757812,14.59503173828125,16.883987426757812,5.00799560546875,0,9.156982421875-1.8599853515625,12.4010009765625-4.578994750976562l-.66802978515625-4.100997924804688c-3.3389892578125,2.860992431640625-7.10699462890625,4.817001342773438-11.44696044921875,4.817001342773438-6.48602294921875,0-10.20703125-4.722000122070312-10.35003662109375-12.686996459960938h22.51202392578125v-.954010009765625ZM785.82000732421875,129.029006936151745c5.198974609375,0,7.9169921875,4.196990966796875,8.4420166015625,10.0159912109375h-17.64703369140625c.8580322265625-6.248992919921875,4.14898681640625-10.0159912109375,9.20501708984375-10.0159912109375ZM809.3330078125,159.123992898065808c3.0050048828125,0,5.198974609375-2.14599609375,5.198974609375-5.293991088867188,0-3.195999145507812-2.14599609375-5.341995239257812-5.198974609375-5.341995239257812-3.0040283203125,0-5.197998046875,2.194000244140625-5.197998046875,5.341995239257812s2.14599609375,5.293991088867188,5.197998046875,5.293991088867188ZM809.3330078125,149.108001687128308c2.48101806640625,0,4.4840087890625,1.716995239257812,4.4840087890625,4.722000122070312s-1.95599365234375,4.673995971679688-4.4840087890625,4.673995971679688c-2.47998046875,0-4.43499755859375-1.716995239257812-4.43499755859375-4.673995971679688,0-3.053009033203125,1.95501708984375-4.722000122070312,4.43499755859375-4.722000122070312ZM811.86102294921875,156.404998757440808l-1.66900634765625-2.384002685546875c.7149658203125-.238998413085938,1.19195556640625-.76300048828125,1.19195556640625-1.621994018554688,0-1.097000122070312-.81097412109375-1.716995239257812-2.05096435546875-1.716995239257812h-1.7640380859375v5.865997314453125h1.00103759765625v-2.4320068359375h.572998046875l1.76397705078125,2.527999877929688.95404052734375-.238998413085938ZM809.3330078125,151.58799741466737c.66796875,0,1.04998779296875.285995483398438,1.04998779296875.8590087890625,0,.571990966796875-.42999267578125.857986450195312-1.09698486328125.857986450195312h-.71600341796875v-1.716995239257812h.76300048828125Z"/>
      <path class="cls-2" d="M538.83697509765625,24.522100426752331c0,.506599426269531-.1009521484375.975299835205078-.303955078125,1.406000137329102-.2030029296875.417999267578125-.47503662109375.785299301147461-.8170166015625,1.101999282836914-.34197998046875.304000854492188-.74102783203125.544599533081055-1.197021484375.722000122070312-.45599365234375.164600372314453-.9439697265625.246999740600586-1.46295166015625.246999740600586h-6.34600830078125v-13.489999771118164h6.47900390625c.468994140625,0,.8929443359375.101300239562988,1.27294921875.303999900817871.3800048828125.202600479125977.7030029296875.468600273132324.96905517578125.798000335693359.2659912109375.31659984588623.468994140625.683999061584473.60797119140625,1.10200023651123.1519775390625.405300140380859.22802734375.816999435424805.22802734375,1.23499870300293,0,.684000015258789-.1710205078125,1.311000823974609-.51300048828125,1.881000518798828-.342041015625.557300567626953-.8170166015625.975299835205078-1.425048828125,1.253999710083008.77301025390625.228000640869141,1.38104248046875.652299880981445,1.82403564453125,1.273000717163086.45599365234375.620599746704102.6839599609375,1.342599868774414.6839599609375,2.166000366210938ZM537.50701904296875,24.294099785883191c0-.329399108886719-.0570068359375-.645999908447266-.1710205078125-.94999885559082-.114013671875-.316701889038086-.27899169921875-.589000701904297-.4940185546875-.817001342773438-.2030029296875-.240699768066406-.449951171875-.430700302124023-.740966796875-.569999694824219-.27899169921875-.152000427246094-.5830078125-.228000640869141-.9119873046875-.228000640869141h-5.16802978515625v5.111000061035156h5.0350341796875c.34197998046875,0,.66497802734375-.069700241088867.968994140625-.208999633789062.303955078125-.139400482177734.56396484375-.322999954223633.77899169921875-.551000595092773.2149658203125-.240699768066406.385986328125-.512998580932617.51300048828125-.816999435424805.126953125-.316699981689453.19000244140625-.639699935913086.19000244140625-.968999862670898ZM530.02099609375,15.668100335199597v4.977998733520508h4.635986328125c.32904052734375,0,.63299560546875-.069698333740234.9119873046875-.208999633789062.291015625-.139398574829102.53802490234375-.322999954223633.74102783203125-.550998687744141.21502685546875-.228000640869141.3800048828125-.487701416015625.4940185546875-.779001235961914.114013671875-.303998947143555.17095947265625-.620698928833008.17095947265625-.94999885559082,0-.342000961303711-.05694580078125-.665000915527344-.17095947265625-.968999862670898-.10101318359375-.304000854492188-.25299072265625-.563701629638672-.45599365234375-.779001235961914-.19000244140625-.227998733520508-.42401123046875-.405399322509766-.7030029296875-.531999588012695-.2659912109375-.139399528503418-.5570068359375-.208999633789062-.8740234375-.208999633789062h-4.75Z"/>
      <path class="cls-2" d="M565.66400146484375,26.821100213129284v1.177999496459961h-9.06298828125v-13.489999771118164h8.8919677734375v1.178000450134277h-7.58099365234375v4.863999366760254h6.61199951171875v1.121000289916992h-6.61199951171875v5.14900016784668h7.75201416015625Z"/>
      <path class="cls-2" d="M584.7650146484375,16.979099251825573v11.020000457763672h-1.31103515625v-13.489999771118164h1.0260009765625l8.92999267578125,11.229000091552734v-11.210000038146973h1.31103515625v13.470999717712402h-1.1400146484375l-8.81597900390625-11.020000457763672Z"/>
      <path class="cls-2" d="M622.4119873046875,26.821100213129284v1.177999496459961h-9.06298828125v-13.489999771118164h8.89202880859375v1.178000450134277h-7.5810546875v4.863999366760254h6.61199951171875v1.121000289916992h-6.61199951171875v5.14900016784668h7.75201416015625Z"/>
      <path class="cls-2" d="M640.20098876953125,27.999099709589245v-13.489999771118164h8.83502197265625v1.178000450134277h-7.52398681640625v4.958998680114746h6.364990234375v1.102001190185547h-6.364990234375v6.250999450683594h-1.31103515625Z"/>
      <path class="cls-2" d="M666.5159912109375,27.999099709589245v-13.470999717712402h1.31103515625v13.470999717712402h-1.31103515625Z"/>
      <path class="cls-2" d="M696.0419921875,15.687100388605359h-4.8070068359375v12.311999320983887h-1.3299560546875v-12.311999320983887h-4.8070068359375v-1.178000450134277h10.9439697265625v1.178000450134277Z"/>
      <path class="cls-2" d="M713.3179931640625,27.999099709589245v-13.470999717712402h1.31103515625v13.470999717712402h-1.31103515625Z"/>
      <path class="cls-2" d="M734.55999755859375,16.979099251825573v11.020000457763672h-1.31097412109375v-13.489999771118164h1.0260009765625l8.92999267578125,11.229000091552734v-11.210000038146973h1.31097412109375v13.470999717712402h-1.1400146484375l-8.81597900390625-11.020000457763672Z"/>
      <path class="cls-2" d="M772.9110107421875,26.042100884516003c-1.2540283203125,1.368000030517578-2.6920166015625,2.052000045776367-4.31298828125,2.052000045776367-.91204833984375,0-1.7550048828125-.196401596069336-2.52703857421875-.589000701904297-.760009765625-.3927001953125-1.42498779296875-.91200065612793-1.9949951171875-1.558000564575195-.5579833984375-.645999908447266-.9949951171875-1.374399185180664-1.31097412109375-2.184999465942383-.3170166015625-.823400497436523-.47503662109375-1.665700912475586-.47503662109375-2.527000427246094,0-.89940071105957.15203857421875-1.760700225830078.45599365234375-2.583999633789062.3160400390625-.823400497436523.74700927734375-1.545400619506836,1.29205322265625-2.166000366210938.55694580078125-.633399963378906,1.21600341796875-1.133699417114258,1.9759521484375-1.500999450683594.77203369140625-.380000114440918,1.6080322265625-.570000648498535,2.50799560546875-.570000648498535.65802001953125,0,1.2540283203125.076000213623047,1.7860107421875.228000640869141.54400634765625.139299392700195,1.0260009765625.342000007629395,1.44403076171875.607999801635742.42999267578125.253299713134766.80401611328125.563599586486816,1.1209716796875.931000709533691.3160400390625.354598999023438.58203125.747299194335938.79803466796875,1.177999496459961l-1.0260009765625.684000015258789c-.44403076171875-.836000442504883-1.02001953125-1.450401306152344-1.72900390625-1.843000411987305-.71002197265625-.3927001953125-1.5140380859375-.58899974822998-2.41302490234375-.58899974822998-.74798583984375,0-1.42498779296875.158299446105957-2.03302001953125.47499942779541-.595947265625.316600799560547-1.10894775390625.741001129150391-1.5389404296875,1.273000717163086-.41802978515625.51930046081543-.74102783203125,1.121000289916992-.96905517578125,1.805000305175781-.22796630859375.671298980712891-.34197998046875,1.368000030517578-.34197998046875,2.090000152587891,0,.759998321533203.1259765625,1.481998443603516.3800048828125,2.165998458862305.2659912109375.684000015258789.62701416015625,1.285600662231445,1.0830078125,1.805000305175781.45599365234375.506601333618164.98797607421875.91200065612793,1.59600830078125,1.215999603271484.6199951171875.304000854492188,1.2919921875.456001281738281,2.01397705078125.456001281738281.77203369140625,0,1.50701904296875-.177400588989258,2.2039794921875-.531999588012695.696044921875-.367401123046875,1.3680419921875-.937400817871094,2.0140380859375-1.710000991821289v-2.26099967956543h-2.9830322265625v-1.0260009765625h4.123046875v6.631000518798828h-1.1400146484375v-1.956998825073242Z"/>
    </g>
  </g>
</svg>