<?xml version="1.0" encoding="UTF-8"?>
<svg xmlns="http://www.w3.org/2000/svg" version="1.1" xmlns:xlink="http://www.w3.org/1999/xlink" viewBox="0 0 457.9 196.6">
  <!-- Generator: Adobe Illustrator 29.3.0, SVG Export Plug-In . SVG Version: 2.1.0 Build 146)  -->
  <defs>
    <style>
      .st0 {
        fill: #ede5df;
      }

      .st1 {
        fill: #fff;
      }

      .st2 {
        mask: url(#mask);
      }

      .st3 {
        fill: #647671;
      }

      .st4 {
        isolation: isolate;
      }

      .st5 {
        fill: #ffb300;
      }

      .st6 {
        fill: #0f8ec6;
      }

      .st7 {
        fill: #d4dfee;
      }

      .st8 {
        fill: #a289d7;
      }

      .st9 {
        fill: #efeff0;
      }

      .st10 {
        mix-blend-mode: multiply;
      }

      .st11 {
        fill: #e9e3dd;
      }
    </style>
    <mask id="mask" x="104.8" y="2.8" width="163.9" height="193.9" maskUnits="userSpaceOnUse">
      <g id="mask0_1_8">
        <path class="st1" d="M239.1,130.9c18.9-30.5,9.5-70.6-21.1-89.5-30.6-18.9-70.7-9.5-89.6,21-18.9,30.5-9.5,70.6,21.1,89.5,30.6,18.9,70.7,9.5,89.6-21Z"/>
      </g>
    </mask>
  </defs>
  <g class="st4">
    <g id="Layer_1">
      <g>
        <path class="st11" d="M155.5,133.5c7.1-11.4,3.5-26.3-7.9-33.4-11.4-7-26.3-3.5-33.4,7.8-7.1,11.4-3.5,26.3,7.9,33.4,11.4,7,26.3,3.5,33.4-7.8Z"/>
        <g class="st10">
          <path class="st8" d="M253.1,133.7c7.2-11.6,3.6-26.8-8-34-11.6-7.2-26.8-3.6-34,8-7.2,11.6-3.6,26.8,8,34,11.6,7.2,26.8,3.6,34-8Z"/>
        </g>
        <path class="st5" d="M204.1,161.2c7.2-11.6,3.6-26.8-8-34-11.6-7.2-26.8-3.6-34,8-7.2,11.6-3.6,26.8,8,34,11.6,7.2,26.8,3.6,34-8Z"/>
        <path class="st6" d="M164.4,69.3c7.2-11.6,3.6-26.8-8-34-11.6-7.2-26.8-3.6-34,8-7.2,11.6-3.6,26.8,8,34,11.6,7.2,26.8,3.6,34-8Z"/>
        <path class="st3" d="M241.9,70.9c7.2-11.6,3.6-26.8-8-34-11.6-7.2-26.8-3.6-34,8-7.2,11.6-3.6,26.8,8,34,11.6,7.2,26.8,3.6,34-8Z"/>
        <path class="st9" d="M239.1,130.9c18.9-30.5,9.5-70.6-21.1-89.5-30.6-18.9-70.7-9.5-89.6,21-18.9,30.5-9.5,70.6,21.1,89.5,30.6,18.9,70.7,9.5,89.6-21Z"/>
        <g class="st2">
          <g>
            <g class="st10">
              <path class="st6" d="M223.2,114.7c17.3-28,8.7-64.7-19.3-82-28-17.3-64.7-8.7-82.1,19.3-17.3,28-8.7,64.7,19.3,82,28,17.3,64.7,8.7,82.1-19.3Z"/>
            </g>
            <g class="st10">
              <path class="st3" d="M260.4,88.2c16.3-26.3,8.2-60.8-18.1-77.1-26.3-16.3-60.8-8.2-77.1,18.1-16.3,26.3-8.2,60.8,18.1,77.1,26.3,16.3,60.8,8.2,77.1-18.1Z"/>
            </g>
            <g class="st10">
              <path class="st8" d="M252.4,148.2c11.4-18.3,5.7-42.4-12.7-53.8-18.4-11.4-42.5-5.7-53.8,12.7-11.4,18.3-5.7,42.4,12.7,53.8s42.5,5.7,53.8-12.6Z"/>
            </g>
            <g class="st10">
              <path class="st0" d="M211.9,169.2c16.8-27.1,8.4-62.8-18.7-79.6-27.2-16.8-62.8-8.4-79.6,18.7-16.8,27.1-8.4,62.8,18.7,79.6,27.2,16.8,62.8,8.4,79.6-18.7Z"/>
            </g>
            <g class="st10">
              <path class="st5" d="M221.4,159.7c10.4-16.8,5.2-38.8-11.6-49.1-16.8-10.4-38.8-5.2-49.2,11.6-10.4,16.8-5.2,38.8,11.6,49.1,16.8,10.4,38.8,5.2,49.2-11.6Z"/>
            </g>
          </g>
        </g>
        <path class="st1" d="M182.9,154.9c-8.8,0-16.7-1.7-23.9-5-7.1-3.4-13.3-7.8-18.4-13.2-5.1-5.5-9-11.7-11.9-18.7-2.8-7-4.2-14.3-4.2-21.8s1.5-14.9,4.4-21.9c2.9-7,7-13.2,12.3-18.6,5.3-5.4,11.5-9.6,18.7-12.8,7.2-3.2,15.1-4.8,23.6-4.8s16.7,1.7,23.9,5c7.1,3.4,13.3,7.8,18.4,13.3,5.1,5.5,9,11.8,11.8,18.8,2.8,7,4.1,14.2,4.1,21.6s-1.5,14.9-4.4,21.8c-2.9,7-7,13.1-12.2,18.5-5.2,5.4-11.4,9.7-18.6,12.9-7.2,3.2-15.1,4.9-23.6,4.9ZM156.7,96.5c0,3.9.5,7.7,1.6,11.3,1.1,3.6,2.7,6.8,4.9,9.7,2.2,2.8,4.9,5.1,8.2,6.8,3.3,1.7,7.2,2.6,11.8,2.6s8.5-.9,11.9-2.7c3.4-1.8,6.1-4.1,8.2-7,2.1-2.9,3.7-6.1,4.7-9.8,1-3.7,1.5-7.4,1.5-11.2s-.5-7.7-1.6-11.3c-1.1-3.6-2.7-6.8-5-9.6-2.2-2.8-5-5-8.3-6.7-3.3-1.7-7.2-2.5-11.6-2.5s-8.5.9-11.8,2.6c-3.3,1.7-6,4-8.2,6.9-2.2,2.9-3.8,6.1-4.8,9.7-1,3.6-1.5,7.3-1.5,11.1Z"/>
        <path class="st7" d="M102,0v146.4h-31.7v-45.1H31.7v70.9H0V31.1h31.7v42.5s38.7,0,38.7,0V0h31.7Z"/>
        <path class="st7" d="M265.5,172.2V31.1h49.7c5.6,0,10.8,1.2,15.6,3.5,4.8,2.3,8.9,5.4,12.3,9.1,3.4,3.7,6.1,8,8,12.8,2,4.8,2.9,9.7,2.9,14.5s-.9,10-2.8,14.9c-1.8,4.8-4.4,9.1-7.7,12.8-3.3,3.7-7.3,6.7-12,8.9-4.7,2.2-9.9,3.3-15.5,3.3h-18.8v61.2h-31.7ZM297.1,83.4h16.7c1.9,0,3.8-.9,5.4-2.7,1.7-1.8,2.5-5,2.5-9.7s-1-8-2.9-9.7c-1.9-1.7-3.9-2.6-5.8-2.6h-15.9v24.7Z"/>
        <path class="st7" d="M457.9,118.8v27.6h-95.1V31.1h76.9s0,27.6,0,27.6h-45.2v16.2h27.9v25.6h-27.9v18.2h63.4Z"/>
        <path class="st1" d="M135.2,12.9v1.2h-9.4V0h9.2v1.2h-7.8v5h6.8v1.2h-6.8v5.3h8Z"/>
        <path class="st1" d="M149.5,0l4.6,6.1L158.7,0h1.5l-5.4,7.1,5.2,6.9h-1.5l-4.4-5.9-4.4,5.9h-1.6l5.2-6.9L147.9,0h1.6Z"/>
        <path class="st1" d="M173.9,14.1V0h5.8c.6,0,1.2.1,1.7.4.5.3.9.6,1.3,1,.4.4.7.9.9,1.4.2.5.3,1.1.3,1.6s0,1.1-.3,1.7c-.2.5-.5,1-.8,1.4-.4.4-.8.7-1.3,1-.5.2-1,.4-1.6.4h-4.5v5.2h-1.4ZM175.3,7.7h4.5c.4,0,.8,0,1.1-.3.3-.2.6-.4.9-.7.2-.3.4-.6.6-1,.1-.4.2-.8.2-1.2s0-.8-.2-1.2c-.2-.4-.4-.7-.6-1-.3-.3-.6-.5-.9-.7-.3-.2-.7-.2-1.1-.2h-4.4v6.4Z"/>
        <path class="st1" d="M201.4,0h1.2l5.8,14h-1.5l-1.8-4.4h-6.3l-1.8,4.4h-1.5L201.4,0ZM204.8,8.6l-2.8-6.9-2.9,6.9h5.7Z"/>
        <path class="st1" d="M223.6,2.7v11.4h-1.4V0h1.1l9.3,11.6V.1h1.4v14h-1.2l-9.1-11.4Z"/>
        <path class="st1" d="M249.3,14.1V0h4.7c1.1,0,2.1.2,2.9.6.8.4,1.5.9,2.1,1.5.6.6,1,1.4,1.3,2.2.3.8.4,1.7.4,2.7s-.2,2-.5,2.9c-.3.9-.8,1.6-1.4,2.2-.6.6-1.3,1.1-2.1,1.4-.8.3-1.7.5-2.8.5h-4.7ZM259.3,7.1c0-.8-.1-1.6-.4-2.3-.2-.7-.6-1.3-1-1.8-.5-.5-1-.9-1.7-1.2-.7-.3-1.4-.4-2.3-.4h-3.4v11.5h3.4c.9,0,1.6-.1,2.3-.4.7-.3,1.2-.7,1.7-1.2.4-.5.8-1.1,1-1.8.2-.7.3-1.5.3-2.3Z"/>
        <path class="st1" d="M275.2,14.1V0h1.4v14h-1.4Z"/>
        <path class="st1" d="M293.3,2.7v11.4h-1.4V0h1.1l9.3,11.6V.1h1.4v14h-1.2l-9.1-11.4Z"/>
        <path class="st1" d="M329,12c-1.3,1.4-2.8,2.1-4.5,2.1s-1.8-.2-2.6-.6c-.8-.4-1.5-.9-2.1-1.6-.6-.7-1-1.4-1.4-2.3-.3-.8-.5-1.7-.5-2.6s.2-1.8.5-2.7c.3-.9.8-1.6,1.4-2.3.6-.6,1.3-1.2,2-1.6.8-.4,1.6-.6,2.6-.6s1.3,0,1.9.2c.6.2,1.1.4,1.5.6.4.3.8.6,1.1,1,.3.4.6.8.8,1.2l-1.1.7c-.5-.9-1.1-1.5-1.8-1.9-.7-.4-1.6-.6-2.5-.6s-1.5.2-2.1.5c-.6.3-1.2.8-1.6,1.3-.4.5-.8,1.2-1,1.9-.2.7-.4,1.4-.4,2.2s.1,1.5.4,2.2c.3.7.6,1.3,1.1,1.9.5.5,1,1,1.7,1.3.6.3,1.3.5,2.1.5s1.6-.2,2.3-.6c.7-.4,1.4-1,2.1-1.8v-2.3h-3.1v-1.1h4.3v6.9h-1.2v-2Z"/>
      </g>
    </g>
  </g>
</svg>