<svg width="100" height="105" viewBox="0 0 100 105" fill="none" xmlns="http://www.w3.org/2000/svg">
<path d="M99.1415 61.99L93.8427 65.6349C92.638 66.5616 91.7575 67.9798 91.3389 69.5957C91.7345 70.6572 91.9644 71.7959 91.9644 72.9513C91.9644 74.6235 91.5317 76.2494 90.6984 77.6576C89.2066 80.1737 86.6887 81.5566 84.1337 81.5566C83.447 81.5566 82.7503 81.4528 82.0726 81.2506C82.1429 82.9593 81.7483 84.7089 80.8297 86.2464L80.6601 86.5258C79.1923 89.0165 76.6975 90.3673 74.1566 90.3673C73.2149 90.3673 72.2652 90.1553 71.3616 89.772C71.4088 91.4961 70.9902 93.2048 70.1188 94.675C68.9753 96.5957 67.2154 97.9112 65.1684 98.3718C64.6504 98.4911 64.1333 98.543 63.6243 98.543C62.0953 98.543 60.5985 98.0404 59.3134 97.0729L58.8426 96.726C58.7814 98.4601 58.2543 100.117 57.2755 101.552C55.7465 103.794 53.3983 105 51.0119 105C49.5201 105 48.0142 104.534 46.6729 103.555L19.6892 83.7667C16.4375 81.3799 14.2208 77.7349 13.4488 73.5102C12.7149 69.4665 10.197 66.143 6.71439 64.6055L1.13754 62.1513C0.210914 61.7426 -0.23684 60.5873 0.12558 59.5678C0.497035 58.5483 1.54715 58.0557 2.47378 58.4545L8.05063 60.9087C12.6627 62.9388 16.0038 67.3492 16.9776 72.7182C17.5569 75.897 19.2314 78.6407 21.674 80.4432L48.6718 100.243C50.526 101.61 53.0338 101.133 54.3711 99.1715C55.0678 98.1354 55.3449 96.8774 55.1521 95.6193C55.0066 94.6672 54.597 93.8179 53.9946 93.1397L44.1641 85.8079C44.1169 85.7659 44.0798 85.7306 44.0326 85.6886C43.9854 85.6466 43.9382 85.6113 43.887 85.5538C43.8489 85.5119 43.8167 85.4611 43.7786 85.4091C43.7404 85.3572 43.6943 85.3053 43.6561 85.249C43.633 85.1971 43.6089 85.1452 43.5858 85.0888C43.5627 85.0215 43.5246 84.9695 43.5015 84.9022C43.4784 84.8503 43.4634 84.7829 43.4543 84.731C43.4403 84.6636 43.4162 84.5962 43.4071 84.5344C43.3931 84.467 43.3931 84.4151 43.3931 84.3477C43.379 84.2803 43.379 84.213 43.379 84.1511C43.379 84.0837 43.3931 84.0163 43.3931 83.9545C43.3931 83.8871 43.3931 83.8352 43.4071 83.7678C43.4212 83.7005 43.4453 83.6331 43.4684 83.5712C43.4824 83.5193 43.4915 83.4519 43.5156 83.4C43.5387 83.3326 43.5768 83.2653 43.6099 83.2134C43.633 83.1615 43.6571 83.1095 43.6802 83.0532C43.7033 83.0112 43.7414 82.9759 43.7645 82.9339C43.8117 82.8665 43.8589 82.7992 43.9101 82.7473C43.9242 82.7318 43.9483 82.7219 43.9573 82.6953C44.0276 82.628 44.1029 82.5506 44.1882 82.4987C44.1882 82.4987 44.2023 82.4987 44.2023 82.4833C44.2966 82.4159 44.395 82.364 44.5034 82.3121C44.6119 82.2602 44.7203 82.2348 44.8428 82.2082H44.8568C44.9652 82.1828 45.0737 82.1663 45.1961 82.1663C45.2192 82.1663 45.2433 82.1663 45.2664 82.1817C45.3608 82.1817 45.4451 82.1972 45.5445 82.2071C45.5917 82.2226 45.6288 82.2325 45.676 82.2491C45.7463 82.2745 45.8216 82.2911 45.8828 82.3165C45.9441 82.3419 45.9913 82.3839 46.0525 82.4093C46.0997 82.4347 46.1609 82.4612 46.2081 82.5021L46.2222 82.5175L55.38 89.2374C55.6953 89.4649 55.9824 89.7289 56.2605 89.9929L61.3575 93.7825C62.2841 94.4706 63.3954 94.7092 64.4777 94.4706C65.574 94.232 66.5016 93.5285 67.118 92.5079C67.7204 91.4884 67.9272 90.2657 67.6973 89.0751C67.4674 87.8844 66.8168 86.8594 65.8762 86.2121L53.8992 77.9028C53.838 77.8609 53.8049 77.8255 53.7537 77.7681C53.7065 77.7261 53.6593 77.6908 53.6222 77.6488C53.575 77.5969 53.5378 77.545 53.4997 77.4886C53.4615 77.4367 53.4294 77.3959 53.3912 77.3439C53.3531 77.292 53.33 77.2247 53.3069 77.1728C53.2838 77.1208 53.2457 77.0689 53.2226 77.0126C53.1995 76.9607 53.1844 76.8933 53.1754 76.8414C53.1523 76.774 53.1282 76.7066 53.1142 76.6448C53.1001 76.5929 53.1001 76.541 53.0911 76.4846C53.077 76.4073 53.068 76.3399 53.068 76.2571C53.068 76.2052 53.082 76.1643 53.082 76.1124C53.082 76.0351 53.082 75.9523 53.0961 75.8738C53.1101 75.8319 53.1192 75.7965 53.1342 75.7391C53.1483 75.6618 53.1724 75.5679 53.1955 75.485C53.2095 75.4331 53.2427 75.3923 53.2658 75.3403C53.3039 75.273 53.327 75.1957 53.3601 75.1283C53.3832 75.0863 53.4073 75.051 53.4445 75.0245C53.4916 74.9571 53.5388 74.8798 53.59 74.8279C53.59 74.8279 53.6041 74.8279 53.6041 74.8124C54.098 74.2535 54.87 74.0569 55.5336 74.3363C55.5718 74.3518 55.5949 74.3783 55.628 74.3883C55.7123 74.4302 55.7836 74.4656 55.8589 74.523L72.0614 85.7118C73.9528 87.0118 76.4847 86.3999 77.6995 84.3444L77.8691 84.0649C79.112 81.984 78.5659 79.1719 76.6785 77.8112L61.497 66.8764C60.6637 66.2811 60.4238 65.0484 60.979 64.1217C61.0492 64.0025 61.1245 63.8942 61.2099 63.8059C61.5723 63.4071 62.0522 63.2105 62.5461 63.2359C62.8704 63.2514 63.1866 63.3398 63.4727 63.5518L81.916 76.8469C83.8927 78.2243 86.4809 77.6024 87.7227 75.4961C88.1695 74.7406 88.4094 73.8647 88.4094 72.9645C88.4094 72.1825 88.2307 71.4116 87.8914 70.7224C87.5671 70.0442 87.0963 69.5008 86.508 69.081L50.268 42.9912C50.0371 42.82 49.76 42.7637 49.4869 42.831C49.2089 42.8984 48.979 43.0696 48.8234 43.3336L44.7624 50.1882C43.0778 53.0357 40.4757 54.9984 37.4498 55.702C34.4239 56.4056 31.3419 55.7539 28.7537 53.9005L28.1514 53.4654C26.6073 52.352 26.1746 50.0745 27.1776 48.3757L34.8295 35.4529C33.5304 35.613 32.2504 35.9963 31.0839 36.6181C29.841 37.2808 28.5048 37.6122 27.1545 37.6122C25.4317 37.6122 23.71 37.0688 22.2272 36.0073L0.77914 19.5235C-0.040069 18.9027 -0.246879 17.6546 0.33239 16.7533C0.8966 15.8521 2.03104 15.6245 2.85025 16.2618L24.2481 32.6949C25.7771 33.7928 27.8151 33.943 29.4997 33.0262C32.0316 31.6754 34.9068 31.1309 37.7018 31.4368C38.6053 30.5775 39.6173 29.8574 40.7517 29.3559L48.9539 25.753C53.4013 23.8068 58.3989 24.0288 62.6766 26.3903L71.449 31.2259C74.1596 32.7225 77.3411 32.6441 79.9764 31.0293L97.0724 16.3149C97.8534 15.6367 99.0019 15.7869 99.6133 16.6617C100.23 17.521 100.093 18.7846 99.2981 19.4572L82.1067 34.26C82.0365 34.3119 81.9612 34.3638 81.8899 34.4201C78.1673 36.765 73.6637 36.8998 69.8286 34.7935L61.0563 29.9579C57.7051 28.1045 53.7808 27.9278 50.2981 29.4553L42.096 33.0583C40.7357 33.6536 39.5781 34.6896 38.783 36.0559L30.364 50.2888L30.7265 50.5627C32.5104 51.8461 34.6277 52.2868 36.7029 51.8108C38.788 51.3347 40.571 49.9828 41.7386 48.0212L45.7995 41.1665C46.4721 40.0123 47.5223 39.2303 48.7501 38.9509C49.9688 38.6714 51.2067 38.9255 52.2558 39.681L88.4345 65.7388C88.557 65.8315 88.6885 65.9254 88.797 66.0182C89.5449 64.558 90.59 63.3 91.8559 62.3214L97.239 58.6246C98.0813 58.0392 99.2017 58.3352 99.7328 59.2619C100.251 60.1886 99.9958 61.4057 99.1395 61.99H99.1405H99.1415ZM50.002 11.9288C50.9999 11.9288 51.8091 11.0386 51.8091 9.94067V1.98813C51.8091 0.890242 50.9999 0 50.002 0C49.0041 0 48.1949 0.890242 48.1949 1.98813V9.94067C48.1949 11.0386 49.0041 11.9288 50.002 11.9288ZM29.4505 19.2959C29.7988 19.6792 30.2697 19.8813 30.7255 19.8813C31.1812 19.8813 31.6521 19.6847 32.0005 19.2959C32.7112 18.5139 32.7112 17.2559 32.0005 16.4849L27.1816 11.1833C26.4708 10.4013 25.3273 10.4013 24.6266 11.1833C23.9158 11.9653 23.9158 13.2233 24.6266 13.9943L29.4505 19.2959ZM69.2775 19.8813C69.7343 19.8813 70.2041 19.6847 70.5525 19.2959L75.3714 13.9943C76.0821 13.2123 76.0821 11.9542 75.3714 11.1833C74.6606 10.4013 73.5171 10.4013 72.8163 11.1833L67.9975 16.4849C67.2867 17.2669 67.2867 18.525 67.9975 19.2959C68.3509 19.6792 68.8207 19.8813 69.2775 19.8813Z" fill="#FFE365"/>
</svg>
