<svg width="115" height="96" viewBox="0 0 115 96" fill="none" xmlns="http://www.w3.org/2000/svg">
<g clip-path="url(#clip0_1_93)">
<path fill-rule="evenodd" clip-rule="evenodd" d="M86.1661 70.8195C104.03 65.6093 115.756 57.6382 114.962 49.8606C113.828 38.6445 87.1889 32.1401 55.4673 35.2659V35.2657C51.4371 35.6869 47.5466 36.2268 43.8011 36.8708V26.2498L71.2333 15.2916C72.8814 14.6426 72.8814 12.2203 71.2333 11.5713L42.8071 0.19252C41.3837 -0.372128 39.8805 0.336246 39.8805 1.91154V37.6046C15.9929 42.3951 -0.901621 51.9707 0.0372734 61.2393C0.600874 66.9555 7.64814 70.4778 12.7871 72.281C16.6476 73.9157 17.4716 76.0558 15.1992 78.6764C14.0906 79.9148 13.5212 81.2672 13.5212 82.6196C13.5212 90.0009 30.4751 96 51.3764 96C72.3074 96 89.2624 90.0009 89.2624 82.6196C89.2624 80.846 88.2686 79.1568 86.4807 77.6063C83.9237 75.382 80.3179 72.5385 86.1661 70.8195ZM43.7959 4.78451L65.4046 13.4283L43.7959 22.0529V4.78451ZM41.838 55.9675C42.9168 55.9675 43.7957 55.1006 43.7957 54.0256V52.9853C47.4065 53.3222 50.0733 54.5359 50.0733 55.9725C50.0733 57.6618 46.3827 59.0438 41.838 59.0438C37.2934 59.0438 33.6027 57.6618 33.6027 55.9725C33.6027 54.5359 36.2746 53.3222 39.8803 52.9853V54.0256C39.8803 55.0957 40.7593 55.9675 41.838 55.9675ZM82.7856 79.5535C83.5547 80.2619 85.3426 81.5845 85.3426 82.6248C85.3426 83.4125 84.2938 84.3983 83.7545 84.8491C76.8218 90.655 59.9826 92.1164 51.3777 92.1164C42.7734 92.1164 25.9327 90.6501 19.0009 84.8491C18.4615 84.3982 17.4377 83.4125 17.4377 82.6248C17.4377 82.1443 17.8622 81.5548 18.1768 81.2179C22.6366 76.0606 19.9097 70.8739 14.0866 68.6249C10.9603 67.5252 4.31808 64.6767 3.91855 60.8771C3.43911 55.804 13.463 50.4538 17.0988 48.7596C23.9994 45.5248 31.9256 43.1816 39.8762 41.5468V49.0965C34.108 49.6365 29.6782 52.5097 29.6782 55.9724C29.6782 59.7967 35.1318 62.9276 41.8335 62.9276C48.5351 62.9276 53.9887 59.8017 53.9887 55.9724C53.9887 52.5048 49.559 49.6315 43.7957 49.0965L43.7951 40.7894C47.8857 40.086 51.9459 39.5262 55.8363 39.1596C68.5563 37.8914 83.2686 37.9211 95.7637 40.9627C99.6546 41.9188 110.562 45.1884 111.072 50.2562C111.386 53.3028 107.466 56.5724 105.278 58.1477C99.5411 62.2296 91.79 65.1326 85.0579 67.0745C77.6467 69.2395 77.3919 74.7631 82.7856 79.5535Z" fill="#CEB7FF"/>
<path fill-rule="evenodd" clip-rule="evenodd" d="M82.8805 63.517C82.8805 64.587 83.7594 65.4589 84.8382 65.4589C85.8869 65.4589 86.7959 64.587 86.7959 63.517L86.796 59.5738C91.026 58.6722 94.2072 54.9519 94.2072 50.4736C94.2072 45.3167 90.0071 41.1455 84.8382 41.1455C79.6393 41.1455 75.4392 45.3117 75.4392 50.4736C75.4392 54.9519 78.6204 58.6722 82.8805 59.5738V63.517ZM79.3547 50.4737C79.3547 47.4618 81.7968 45.0394 84.8332 45.0394C87.8448 45.0394 90.2869 47.4618 90.2869 50.4737C90.2869 53.4609 87.8448 55.8834 84.8332 55.8834C81.7968 55.8834 79.3547 53.4659 79.3547 50.4737Z" fill="#CEB7FF"/>
</g>
<defs>
<clipPath id="clip0_1_93">
<rect width="115" height="96" fill="white"/>
</clipPath>
</defs>
</svg>
