<svg width="138" height="56" viewBox="0 0 138 56" fill="none" xmlns="http://www.w3.org/2000/svg">
<g clip-path="url(#clip0_1_103)">
<path d="M135.796 17.2607C132.506 14.3733 127.912 16.0338 126.403 16.5756C121.509 18.3381 107.595 23.9391 107.595 23.9391C106.672 24.3071 106.018 25.1355 105.877 26.1122C105.738 27.0888 106.133 28.0654 106.915 28.674C107.698 29.2825 108.748 29.4307 109.67 29.0627L114.112 27.2771C118.731 25.4161 123.505 23.4921 128.3 21.7648C130.91 20.8307 131.806 21.1331 132.106 21.3955C132.478 21.8085 132.545 22.411 132.274 22.8944C132.024 23.2625 131.699 23.5747 131.322 23.8127C121.68 29.0967 87.3682 47.82 87.3682 47.82C81.9197 50.7985 75.7182 51.2686 67.8638 49.3129C61.4125 47.7022 24.3713 36.9351 24.3713 36.9351C24.3713 36.9351 24.2844 42.7693 24.2929 42.8058C24.2293 42.8276 19.8019 43.0195 18.2604 42.9916C11.77 32.8501 8.08949 21.6348 6.16598 6.00284C10.4023 5.87529 23.2571 5.57526 23.3722 5.59713C23.393 5.6943 23.5461 10.9807 23.5461 10.9807L26.3132 10.9248C28.1999 10.8859 30.083 10.8167 31.9637 10.7474C40.4119 10.4365 48.3986 10.1413 56.193 12.6278C58.4667 13.3979 60.6681 14.3612 62.7753 15.5078C65.9954 17.3518 69.5143 18.626 73.1751 19.271C79.3436 20.2731 85.5806 20.7918 91.831 20.8197C92.8228 20.7493 93.7974 21.1015 94.5124 21.7878C95.121 22.4025 95.4454 23.2418 95.4062 24.1018C95.4381 24.9582 95.1161 25.7915 94.5149 26.4073C93.9137 27.0232 93.0848 27.3694 92.2216 27.3657C88.8019 27.5321 63.4744 28.1055 63.4744 28.1055C62.7361 28.1249 62.0357 28.4334 61.5276 28.9643C61.0195 29.4951 60.744 30.2057 60.7636 30.9369C60.8003 31.6621 61.1174 32.346 61.6488 32.8477C62.1802 33.3481 62.8842 33.6275 63.6164 33.6263C63.6164 33.6263 80.568 33.2121 82.0225 33.1841C85.4496 33.1173 88.9929 33.0481 92.4934 32.878C94.7916 32.7675 96.9575 31.7799 98.5382 30.1219C100.119 28.4638 100.992 26.2628 100.975 23.9804C100.958 21.698 100.05 19.5115 98.4439 17.8765C96.6355 16.1723 94.2223 15.2443 91.7282 15.2977C85.7985 15.2819 79.8799 14.7863 74.031 13.8133C70.9627 13.2546 68.0181 12.1674 65.3281 10.6005C62.9491 9.3141 60.4648 8.23302 57.8998 7.36937C49.1724 4.58893 40.3201 4.91447 31.758 5.22786C30.8226 5.26309 29.8871 5.29588 28.9505 5.3299C28.8807 3.77751 28.162 2.32473 26.967 1.32139C25.7708 0.316837 24.2085 -0.147177 22.6535 0.0411009C17.4327 0.158927 0 0.820937 0 0.820937L0.2963 3.63296C2.2296 21.9445 6.2774 34.7232 13.8318 46.3648C14.7036 47.6269 16.1178 48.4164 17.658 48.5003C19.5313 48.5452 21.3985 48.4808 23.1996 48.4164L24.0481 48.3861C25.3276 48.4298 26.5825 48.0375 27.6049 47.2734C28.6273 46.5094 29.3533 45.421 29.6631 44.1881C30.8042 44.5197 59.9469 53.0262 66.5059 54.6636C69.7812 55.5163 73.1507 55.9634 76.5373 55.9962C81.2573 56.0545 85.9136 54.9029 90.0532 52.6533C90.0532 52.6533 124.369 33.93 134.016 28.6412C135.129 28.001 136.086 27.1264 136.82 26.0769C137.739 24.7286 138.142 23.0973 137.953 21.4793C137.765 19.8613 137 18.3636 135.795 17.2582L135.796 17.2607Z" fill="#109EDE"/>
</g>
<defs>
<clipPath id="clip0_1_103">
<rect width="138" height="56" fill="white"/>
</clipPath>
</defs>
</svg>
