<svg width="210" height="88" viewBox="0 0 210 88" fill="none" xmlns="http://www.w3.org/2000/svg">
<path d="M77.7763 0.837891H0V78.6142H77.7763V0.837891Z" fill="white"/>
<path d="M77.9159 0.663086H0V78.579H77.9159V0.663086Z" fill="#0074BC"/>
<path d="M54.9811 6.4228C56.9011 6.4228 58.472 7.99369 58.472 9.91366C58.472 11.8336 56.9011 13.4045 54.9811 13.4045C53.0611 13.4045 51.4902 11.8336 51.4902 9.91366C51.4902 7.95879 53.0611 6.4228 54.9811 6.4228ZM22.9699 6.4228C24.8899 6.4228 26.4608 7.99369 26.4608 9.91366C26.4608 11.8336 24.8899 13.4045 22.9699 13.4045C21.05 13.4045 19.4791 11.8336 19.4791 9.91366C19.4791 7.95879 21.0151 6.4228 22.9699 6.4228ZM74.2506 13.3696C72.191 13.998 59.973 17.9775 52.8517 16.7907C48.6976 15.5339 43.6009 11.5893 39.8308 8.37769C41.5762 6.3879 42.7631 4.88683 43.2867 4.22357C43.4613 4.01411 43.2518 3.73485 43.0075 3.9443C42.414 4.50284 40.9129 5.89918 38.9231 7.6097C36.9683 5.89918 35.5021 4.50284 34.9087 3.9443C34.6992 3.73484 34.4898 4.01412 34.6643 4.22357C35.153 4.88683 36.305 6.42281 37.9457 8.44751C34.2105 11.5893 29.1487 15.3594 25.0644 16.6161C17.9431 17.803 5.76 14.0329 3.7004 13.4045C3.38622 13.3347 3.3164 13.6489 3.52585 13.7536C5.41092 14.6961 13.8239 18.8154 23.2143 21.5731C23.8776 24.6102 24.087 28.8341 23.3539 34.5591C21.3641 49.6396 6.80726 65.4532 6.45818 65.8372C6.28363 66.0117 6.45818 66.291 6.63272 66.1514C7.81961 65.3136 18.7809 57.878 25.6928 45.5204C26.8797 57.2846 26.1117 73.3425 26.0419 73.936C26.007 74.32 26.391 74.2502 26.4259 74.0756C27.1241 71.6669 31.1734 48.732 30.9989 32.3948C32.4651 34.0006 34.2105 35.7809 36.0956 37.5962C35.6417 38.818 35.2577 40.703 35.0832 43.007C34.2105 54.2126 37.5966 73.4822 38.1203 75.3672C38.1552 75.472 38.4693 75.5069 38.4693 75.2276C38.4344 74.8087 37.8061 63.7427 38.6439 55.609C42.5886 62.6954 48.2786 67.2684 50.5826 68.979C51.0364 71.6669 51.4204 73.5171 51.595 74.1105C51.6299 74.2851 52.0139 74.3549 51.979 73.9709C51.9091 73.3774 51.1412 57.3195 52.328 45.5553C59.2399 57.913 70.2012 65.3485 71.3881 66.1863C71.5627 66.3259 71.7372 66.0467 71.5627 65.8721C71.1787 65.4881 56.6218 49.6745 54.6669 34.594C53.8989 28.869 54.1084 24.6451 54.8065 21.608C65.1046 19.5484 72.6448 14.766 74.5299 13.7885C74.6346 13.614 74.5648 13.2998 74.2506 13.3696ZM30.964 30.5795C30.9291 29.4276 30.8593 28.3105 30.7895 27.2632C30.5451 23.912 29.9866 21.2241 29.3233 19.4437C33.0585 15.883 36.3399 12.3224 38.8533 9.52968C41.2969 12.462 44.5783 16.1623 48.3485 19.7579C47.6852 21.5382 47.4059 23.9469 47.1616 27.2981C46.987 29.6719 46.9172 32.325 46.987 35.0828C44.2642 35.6064 41.2969 35.9555 39.0628 35.5715C36.4795 34.7686 33.4425 32.6042 30.964 30.5795ZM40.2148 47.9291C39.6911 43.9495 39.8308 41.0521 40.3195 38.9227C42.6933 38.2245 44.9972 37.3867 47.0219 36.6187C47.3361 47.58 49.1165 60.2169 50.3383 67.6873C47.5456 64.371 41.2969 56.0977 40.2148 47.9291ZM42.9027 30.9286C42.9027 29.6021 41.8206 28.5199 40.494 28.5199C39.1675 28.5199 38.0854 29.6021 38.0854 30.9286C38.0854 32.2551 39.1675 33.3373 40.494 33.3373C41.8206 33.3373 42.9027 32.2551 42.9027 30.9286Z" fill="white"/>
<path d="M106.401 35.886C97.0459 35.886 90.7274 28.6599 90.7274 17.9779C90.7274 7.36571 97.1506 0 106.681 0C110.59 0 113.802 1.15198 116.385 2.96723L115.827 6.493C113.104 4.53811 110.102 3.14177 106.611 3.14177C99.0008 3.14177 94.2881 9.14605 94.2881 17.943C94.2881 26.8098 99.0357 32.7791 106.576 32.7791C110.276 32.7791 113.627 31.313 116.455 29.1836L116.944 32.4999C114.326 34.3849 110.521 35.886 106.401 35.886ZM124.484 5.86464C125.776 5.86464 126.858 4.74757 126.858 3.45596C126.858 2.16434 125.811 1.04727 124.484 1.04727C123.192 1.04727 122.075 2.16434 122.075 3.45596C122.075 4.74757 123.157 5.86464 124.484 5.86464ZM122.808 35.2227H126.055V11.5198H122.808V35.2227ZM141.903 35.6417C143.3 35.6417 144.522 35.4322 145.22 35.2577L144.731 32.4999C144.172 32.6046 143.265 32.7442 142.532 32.7442C139.983 32.7442 139.041 31.697 139.041 29.2883V14.3474H144.94L144.487 11.5548H139.006V2.7927L135.759 3.35124V11.5548H132.094V14.3474H135.759V29.8468C135.725 34.1755 138.203 35.6417 141.903 35.6417ZM168.888 11.5198H165.467L158.45 31.4177L151.119 11.2406L147.908 11.834L156.879 35.3973L155.762 38.2598C154.854 40.5638 153.702 41.4016 151.748 41.4016C151.015 41.4016 150.281 41.2968 149.793 41.1921L150.247 44.0895C150.596 44.1244 151.049 44.2292 151.538 44.2292C155.029 44.2292 157.158 42.763 158.869 38.1551L168.888 11.5198ZM178.837 17.1052C183.689 17.1052 186.935 20.8404 186.935 26.356C186.935 31.8715 183.689 35.5718 178.837 35.5718C174.054 35.5718 170.843 31.8715 170.843 26.356C170.843 20.8055 174.054 17.1052 178.837 17.1052ZM178.837 32.9886C182.013 32.9886 183.898 30.5101 183.898 26.356C183.898 22.3066 181.909 19.6884 178.837 19.6884C175.765 19.6884 173.845 22.2368 173.845 26.356C173.845 30.3705 175.8 32.9886 178.837 32.9886ZM190.985 13.5445V17.4543H188.367V20.0375H190.985V35.1878H193.882V20.0375H197.967L197.548 17.4543H193.882V13.7191C193.882 12.1133 194.615 11.3802 196.221 11.3802C196.221 11.3802 196.431 11.3453 197.967 11.5198L197.303 8.76205C196.57 8.69224 196.082 8.65733 196.082 8.65733C192.8 8.65733 190.985 10.4028 190.985 13.5445ZM118.375 78.649V44.0546H114.919V58.9955H95.7193V44.0546H92.2634V78.649H95.7193V62.1023H114.919V78.649H118.375ZM136.004 79.1377C142.078 79.1377 146.791 74.6345 146.791 66.815C146.791 58.9606 142.183 54.4225 136.004 54.4225C130.034 54.4225 125.392 58.9257 125.392 66.815C125.392 74.6345 129.965 79.1377 136.004 79.1377ZM136.004 57.2501C140.751 57.2501 143.37 61.3693 143.37 66.815C143.37 72.4353 140.821 76.345 136.004 76.345C131.326 76.345 128.743 72.2956 128.743 66.815C128.743 61.1947 131.291 57.2501 136.004 57.2501ZM162.534 78.9632C168.294 78.9632 173.356 74.8091 173.356 66.1168C173.356 58.1926 168.992 54.4574 163.826 54.4574C160.37 54.4574 158.031 56.2726 156.146 58.3671L155.588 54.9461H153.039V87.83L156.356 87.2714V77.8112C158.066 78.5094 160.161 78.9632 162.534 78.9632ZM163.477 57.3897C167.247 57.3897 170.005 60.4966 170.005 66.2565C170.005 72.8542 166.688 76.1356 162.43 76.1356C159.986 76.1356 158.206 75.6469 156.356 74.7392V61.6485C158.52 59.0653 160.684 57.3897 163.477 57.3897ZM198.001 66.3263C198.001 59.7635 194.895 54.4574 188.437 54.4574C182.607 54.4574 178.208 59.17 178.208 66.7801C178.208 74.9487 182.677 79.1377 188.89 79.1377C192.556 79.1377 195.593 77.7763 197.967 75.7865L197.478 72.7844C195.034 74.8789 192.276 76.3101 189.1 76.3101C184.352 76.3101 181.629 72.8542 181.525 67.0244H198.001L198.001 66.3263ZM188.437 57.1104C192.242 57.1104 194.231 60.1824 194.615 64.4412H181.699C182.328 59.8682 184.736 57.1104 188.437 57.1104ZM205.646 79.1377C207.846 79.1377 209.451 77.5668 209.451 75.2629C209.451 72.924 207.881 71.3531 205.646 71.3531C203.447 71.3531 201.841 72.9589 201.841 75.2629C201.841 77.5668 203.412 79.1377 205.646 79.1377ZM205.646 71.8069C207.462 71.8069 208.928 73.0637 208.928 75.2629C208.928 77.4621 207.497 78.6839 205.646 78.6839C203.831 78.6839 202.4 77.4272 202.4 75.2629C202.4 73.0287 203.831 71.8069 205.646 71.8069ZM207.497 77.1479L206.275 75.4025C206.798 75.228 207.148 74.844 207.148 74.2156C207.148 73.4127 206.554 72.9589 205.646 72.9589H204.355V77.2527H205.088V75.4723H205.507L206.798 77.3225L207.497 77.1479ZM205.646 73.6222C206.135 73.6222 206.414 73.8316 206.414 74.2505C206.414 74.6694 206.1 74.8789 205.612 74.8789H205.088V73.6222L205.646 73.6222Z" fill="#80827A"/>
</svg>
