<svg xmlns="http://www.w3.org/2000/svg" xmlns:xlink="http://www.w3.org/1999/xlink" width="742" height="91" viewBox="0 0 742 91"><defs><clipPath id="a"><rect width="503.646" height="88.71" transform="translate(0 0)" fill="none"/></clipPath></defs><g transform="translate(-526 -1286)"><g transform="translate(526 1286)"><g clip-path="url(#a)"><path d="M317.716,86.111a.991.991,0,0,1-.618-.215A48.1,48.1,0,1,1,383.968,17.5a1,1,0,1,1-1.543,1.273,46.1,46.1,0,1,0-64.089,65.549,1,1,0,0,1-.62,1.785" fill="#4498d8"/><path d="M319.267,77.152a1,1,0,0,1-.7-.287,40.344,40.344,0,0,1,51.718-61.607,1,1,0,0,1-1.163,1.627,38.344,38.344,0,0,0-49.153,58.554,1,1,0,0,1-.7,1.713" fill="#4498d8"/><path d="M321.26,67.711a1,1,0,0,1-.81-.411,32.649,32.649,0,0,1,5.637-44.388,1,1,0,0,1,1.274,1.543,30.644,30.644,0,0,0-5.293,41.667,1,1,0,0,1-.808,1.589" fill="#4498d8"/><path d="M349.325,22.221h2.139l21.759,50.651h-2.64l-7.49-17.479H337.7L330.2,72.872h-2.71Zm12.983,31.033-11.913-27.9-11.985,27.9Z" fill="#58595b"/><path d="M396.907,38.059a14.861,14.861,0,0,0-8.917,3.246,15.845,15.845,0,0,0-5.279,8.24V72.872h-2.426v-37.1h2.354v9.417a18.112,18.112,0,0,1,5.137-6.421,13.639,13.639,0,0,1,6.849-2.924c.474-.047.915-.072,1.319-.072h.963Z" fill="#58595b"/><path d="M420.52,38.059a14.861,14.861,0,0,0-8.917,3.246,15.845,15.845,0,0,0-5.279,8.24V72.872H403.9v-37.1h2.354v9.417a18.111,18.111,0,0,1,5.137-6.421,13.639,13.639,0,0,1,6.849-2.924c.474-.047.915-.072,1.319-.072h.963Z" fill="#58595b"/><path d="M436,73.586a12.668,12.668,0,0,1-4.78-.892,12.328,12.328,0,0,1-3.853-2.425,11.058,11.058,0,0,1-2.567-3.6,10.843,10.843,0,0,1-.928-4.494,8.416,8.416,0,0,1,1.142-4.315,10.691,10.691,0,0,1,3.174-3.388,15.711,15.711,0,0,1,4.851-2.212,22.944,22.944,0,0,1,6.171-.785,40.674,40.674,0,0,1,6.313.5,27.7,27.7,0,0,1,5.743,1.5v-4a12.31,12.31,0,0,0-3.174-8.882,11.247,11.247,0,0,0-8.526-3.318,16.137,16.137,0,0,0-5.778,1.178,27.2,27.2,0,0,0-6.135,3.388l-1.141-1.783q7.131-4.851,13.2-4.852,6.49,0,10.237,3.853t3.745,10.558v19.4q0,1.571,1.284,1.569v2.283a1.267,1.267,0,0,1-.392.072h-.321a2.648,2.648,0,0,1-2.034-.892,3.1,3.1,0,0,1-.82-2.176V66.594a16.867,16.867,0,0,1-6.635,5.173A21.232,21.232,0,0,1,436,73.586m.285-2.069A20.494,20.494,0,0,0,441.6,70.8a19.39,19.39,0,0,0,4.816-1.961,12.893,12.893,0,0,0,3.5-2.889,5.4,5.4,0,0,0,1.355-3.5V55.465a32.722,32.722,0,0,0-11.842-2.139,20.883,20.883,0,0,0-5.351.642A14.273,14.273,0,0,0,429.9,55.75a8.529,8.529,0,0,0-2.711,2.747,6.872,6.872,0,0,0-.963,3.6,8.786,8.786,0,0,0,.785,3.71,9.576,9.576,0,0,0,2.14,3,9.675,9.675,0,0,0,3.175,2,10.721,10.721,0,0,0,3.959.714" fill="#58595b"/><path d="M466.75,86.427a7.821,7.821,0,0,0,3.354-.5,2.814,2.814,0,0,0,.749-.749,12.573,12.573,0,0,0,1.034-1.927q.641-1.392,1.712-3.852t2.782-6.528l-16.907-37.1h2.568L477.665,70.3l14.7-34.528h2.426L473.6,85.428a5.1,5.1,0,0,1-3.924,3.067,9.8,9.8,0,0,1-1.427.179q-.714.036-1.5.036Z" fill="#58595b"/><path d="M279.6,69.193a1.509,1.509,0,0,0-.454-.049h-.181V70h.3a.7.7,0,0,0,.428-.112.384.384,0,0,0,.15-.351.356.356,0,0,0-.24-.348m-1.4,2.4L278.2,68.63c.184,0,.457,0,.821.007h.6a1.248,1.248,0,0,1,.6.144.746.746,0,0,1,.389.706.644.644,0,0,1-.208.541.984.984,0,0,1-.515.193,1.108,1.108,0,0,1,.435.175.8.8,0,0,1,.268.668v.261a.726.726,0,0,0,.006.073.208.208,0,0,0,.016.106l.017.083h-.741a1.712,1.712,0,0,1-.042-.406,2.463,2.463,0,0,0-.048-.365.4.4,0,0,0-.226-.222,1.18,1.18,0,0,0-.265-.047l-.186-.011h-.151l0,1.053Zm-.4-3.024a2.2,2.2,0,0,0,.023,3.113,2.173,2.173,0,0,0,3.1-.011,2.155,2.155,0,0,0,.641-1.572,2.19,2.19,0,0,0-3.763-1.53m3.435,3.444a2.7,2.7,0,1,1,.787-1.915,2.584,2.584,0,0,1-.787,1.915" fill="#221f20"/><path d="M23.2,27.88,21.49,37.929,36.149,37.9,34.221,49.045l-14.671.027L15.673,71.267,0,71.3,9.446,16.43l34.617-.065-1.912,11.48ZM47.848,55.121c-.845,5.268,1.558,8.109,7.061,8.1a9.079,9.079,0,0,0,7.348-3.364l12.413-.023C70.308,68.365,61.342,72.384,53.495,72.4c-12.474.023-20.688-6.793-18.654-19.382,1.966-12.143,11.73-19.474,23.983-19.5,13.067-.025,19.618,7.775,17.6,20.213l-.215,1.334Zm16.924-6.983c-.141-4.038-3.044-6.247-6.645-6.24a9.49,9.49,0,0,0-9.145,6.269Zm155.6,6.659c-.851,5.268,1.558,8.109,7.055,8.1a9.079,9.079,0,0,0,7.36-3.364l12.407-.023c-4.373,8.532-13.333,12.551-21.17,12.566-12.462.023-20.688-6.793-18.659-19.382,1.963-12.143,11.735-19.474,23.989-19.5,13.058-.025,19.609,7.775,17.6,20.213l-.226,1.334Zm16.925-6.983c-.139-4.038-3.045-6.247-6.635-6.24a9.487,9.487,0,0,0-9.15,6.269ZM75.735,71.154,84.514,14.98l12.315-.023L88.042,71.131Zm15.522,8.089,8.784-56.183,12.309-.023L103.569,79.22ZM152.723,52.8c-1.9,12.377-13,19.441-24.459,19.462-11.4.022-20.418-6.935-18.509-19.381,1.9-12.427,12.983-19.477,24.454-19.5s20.4,6.991,18.514,19.418m-29.628.056c-1.01,5.374,1.223,9.129,6.369,9.12s8.767-3.078,9.892-9.151c.94-5.076-1.16-9.2-6.309-9.195s-8.852,3.417-9.952,9.226m152.334-9.159a14.233,14.233,0,0,0-6.679-1.764c-1.493,0-4.143.645-4.432,2.492-.391,2.485,3.6,2.834,5.32,3.184,5.842,1.2,9.941,4.034,8.887,10.784C277.017,68,267.67,72,259.226,72.013A23.081,23.081,0,0,1,245.69,68.12l4.251-8c2.343,1.848,7.789,2.364,10.983,2.358,1.637,0,4.184-.788,4.487-2.782.437-2.847-3.584-2.979-7.466-4.038s-7.611-3.041-6.593-9.577c1.4-8.947,10.113-12.938,18.064-12.953a26.5,26.5,0,0,1,11.642,2.323ZM169.483,54.43,177.316,34.5l10.571-.02,2.644,19.94,8.758-19.962,13.874-.026L194.339,70.923l-11.733.022-2.494-19.988h-.184l-7.816,20.008-11.919.022L151.94,34.545l13.919-.026Z" fill="#221f20"/><path d="M500.518,25.325a1.977,1.977,0,0,0-.586-.063H499.7l0,1.111h.38a.9.9,0,0,0,.553-.145.5.5,0,0,0,.194-.453.464.464,0,0,0-.31-.449m-1.8,3.094-.007-3.819c.237,0,.589,0,1.06.008h.776a1.613,1.613,0,0,1,.769.185.96.96,0,0,1,.5.912.821.821,0,0,1-.268.7,1.269,1.269,0,0,1-.664.25,1.442,1.442,0,0,1,.561.225,1.034,1.034,0,0,1,.347.861v.338c0,.036.008.079.008.094a.266.266,0,0,0,.021.137l.022.107-.956,0a2.244,2.244,0,0,1-.054-.525,3.281,3.281,0,0,0-.062-.47.521.521,0,0,0-.292-.287,1.623,1.623,0,0,0-.341-.061l-.241-.014H499.7l0,1.358Zm-.517-3.9a2.843,2.843,0,0,0,.029,4.016,2.808,2.808,0,0,0,4-.015,2.787,2.787,0,0,0,.826-2.028,2.825,2.825,0,0,0-4.854-1.973m4.431,4.442a3.481,3.481,0,1,1,1.016-2.47,3.33,3.33,0,0,1-1.016,2.47" fill="#58595b"/></g></g><text transform="translate(1045 1360)" fill="#58595b" font-size="72" font-family="Raleway-ExtraLight, Raleway" font-weight="200"><tspan x="0" y="0">Ceiling</tspan></text></g></svg>