<svg width="39" height="50" viewBox="0 0 39 50" fill="none" xmlns="http://www.w3.org/2000/svg">
<g clip-path="url(#clip0_313_676)">
<path d="M13.7548 33.2195L13.3544 33.0739V23.17C13.3544 22.4975 12.8098 21.9504 12.1404 21.9504C11.471 21.9504 10.9263 22.4975 10.9263 23.17V33.0774L10.5216 33.2211C8.58521 33.9086 7.28418 35.7507 7.28418 37.8048C7.28418 39.1106 7.78856 40.3363 8.70438 41.2563C9.62021 42.1763 10.8405 42.6829 12.1404 42.6829C13.4403 42.6829 14.6606 42.1763 15.5764 41.2563C16.4922 40.3363 16.9966 39.1106 16.9966 37.8048C16.9966 35.7674 15.6938 33.9247 13.7548 33.2195Z" fill="#778495"/>
<path d="M20.6389 29.1088V8.5367C20.6389 3.82956 16.8265 0 12.1405 0C7.45451 0 3.64215 3.82956 3.64215 8.5367V29.1088L3.46929 29.2865C1.2321 31.5865 0 34.6119 0 37.8054C0 44.5299 5.44621 50.0006 12.1405 50.0006C18.8348 50.0006 24.281 44.5299 24.281 37.8054C24.281 34.6112 23.049 31.5858 20.8118 29.2866L20.6389 29.1088ZM12.1405 47.5616C6.78508 47.5616 2.4281 43.185 2.4281 37.8054C2.4281 35.0474 3.61017 32.4015 5.67123 30.5463C5.92403 30.3165 6.07026 29.988 6.07026 29.6467V18.9032H8.49836C9.1678 18.9032 9.71241 18.3561 9.71241 17.6836C9.71241 17.0112 9.1678 16.4641 8.49836 16.4641H6.07026V11.586H8.49836C9.1678 11.586 9.71241 11.0389 9.71241 10.3665C9.71241 9.69401 9.1678 9.14694 8.49836 9.14694H6.07026V8.53717C6.07026 5.17492 8.79336 2.43953 12.1405 2.43953C15.4877 2.43953 18.2108 5.17492 18.2108 8.53717V29.6467C18.2108 29.988 18.357 30.3165 18.612 30.5482C20.6709 32.4018 21.8529 35.0476 21.8529 37.8054C21.8529 43.185 17.496 47.5616 12.1405 47.5616Z" fill="#778495"/>
<path d="M38.5958 22.3877L38.5686 22.3742L38.4978 22.3031C38.0266 21.8297 37.2597 21.8297 36.7885 22.3031L33.4031 25.7038V6.70659C33.4031 6.03413 32.8585 5.48706 32.189 5.48706C31.5196 5.48706 30.975 6.03413 30.975 6.70659V25.7219L27.5895 22.3211C27.3607 22.0913 27.0572 21.9647 26.7349 21.9647C26.4126 21.9647 26.1091 22.0913 25.8803 22.3211C25.6514 22.551 25.5254 22.8559 25.5254 23.1796C25.5254 23.5033 25.6514 23.8082 25.8803 24.0381L31.3435 29.526C31.576 29.7595 31.8665 29.8779 32.2072 29.8779C32.5287 29.8779 32.8293 29.7541 33.077 29.5199L38.5342 24.0381C38.763 23.8082 38.8891 23.5033 38.8891 23.1796C38.8891 22.8862 38.7855 22.6083 38.5958 22.3877Z" fill="#778495"/>
</g>
<defs>
<clipPath id="clip0_313_676">
<rect width="38.8894" height="50.0006" fill="white"/>
</clipPath>
</defs>
</svg>
