<svg width="49" height="49" viewBox="0 0 49 49" fill="none" xmlns="http://www.w3.org/2000/svg">
<path d="M48.4133 45.982H42.3616V1.21441C42.3616 0.544552 41.8192 0 41.152 0H7.26122C6.59404 0 6.05166 0.544552 6.05166 1.21441V45.982H0V48.4131H20.5681C20.5707 48.4131 20.5733 48.4133 20.5759 48.4133H27.8379C27.8404 48.4133 27.843 48.4131 27.8456 48.4131H48.4133V45.982ZM8.47311 2.43111H39.9403V45.982H29.0474V37.4764C29.0474 36.8043 28.5073 36.262 27.8379 36.262H20.5759C19.9064 36.262 19.3663 36.8043 19.3663 37.4764V45.982H8.47311V2.43111ZM26.6282 45.982H21.7855V38.6908H26.6282V45.982Z" fill="#778495"/>
<path d="M23.9155 31.2667C23.9191 31.2669 23.9226 31.2669 23.9262 31.2669C23.9301 31.2669 23.9341 31.2668 23.938 31.2667C25.5014 31.2631 27.0262 30.9574 28.4702 30.358C29.918 29.757 31.2138 28.8901 32.3217 27.7814C33.4301 26.6732 34.2967 25.3769 34.8976 23.9284C35.4983 22.4803 35.8039 20.9508 35.8059 19.3826C35.8059 19.3774 35.8057 19.3722 35.8054 19.367C35.59 15.5861 34.1805 12.4677 31.7292 10.3491C29.5631 8.47697 26.6978 7.49021 23.661 7.56895C20.6454 7.64773 17.8257 8.75905 15.7216 10.6982C13.3712 12.8642 12.1201 15.8663 12.1035 19.3813C12.1035 24.8795 15.7999 30.9441 23.9155 31.2667ZM30.3557 26.8267C28.6506 28.303 26.4107 29.1073 24.0204 29.1072C23.9256 29.1072 23.8301 29.1059 23.7349 29.1034C21.2449 29.0369 18.9168 28.1192 17.1795 26.5193C15.2462 24.7389 14.2173 22.2702 14.2039 19.3813C14.2039 14.8565 17.2483 9.8659 23.9328 9.59885C25.2206 9.6017 26.4767 9.85349 27.6662 10.3472C28.8585 10.8421 29.9254 11.5558 30.8373 12.4685C31.7499 13.3809 32.4635 14.448 32.9582 15.6401C33.4519 16.83 33.7034 18.0864 33.7058 19.3746C33.5221 22.5112 32.3637 25.0881 30.3557 26.8267Z" fill="#778495"/>
<path d="M27.9278 21.8609L24.8751 18.8447L24.8751 12.6619C24.867 12.0758 24.3776 11.5989 23.7843 11.5989C23.1909 11.5989 22.7015 12.0757 22.6934 12.6657V19.2917C22.6934 19.5758 22.8097 19.8537 23.0126 20.0542L26.3856 23.3858C26.5911 23.5888 26.8634 23.701 27.1529 23.7022C27.1543 23.7022 27.1558 23.7022 27.1572 23.7022C27.1586 23.7022 27.1601 23.7022 27.1615 23.7022C27.5985 23.6954 27.9892 23.4326 28.1567 23.033C28.3221 22.6398 28.239 22.1898 27.9456 21.8802C27.94 21.8735 27.9341 21.8671 27.9278 21.8609Z" fill="#778495"/>
</svg>
