<svg width="53" height="51" viewBox="0 0 53 51" fill="none" xmlns="http://www.w3.org/2000/svg">
<path d="M13.7716 50.5422C6.58743 50.5422 0.69384 45.1073 0.0555674 37.8808C-0.270951 34.1841 0.849353 30.5805 3.2096 27.7338C5.39744 25.0955 8.40792 23.4001 11.7548 22.9036C12.6429 17.6586 16.324 13.1897 21.3168 11.3832C21.8404 11.1923 22.4181 11.4677 22.6067 11.9976C22.7953 12.5264 22.5223 13.1091 21.998 13.299C17.4696 14.9372 14.1917 19.1129 13.6456 23.9375C13.5915 24.4176 13.2101 24.7928 12.7329 24.8357C9.60494 25.1168 6.7725 26.6099 4.75777 29.0395C2.74304 31.4695 1.7867 34.5451 2.06537 37.7005C2.61004 43.8679 7.64087 48.5065 13.7751 48.5072H38.8273C41.956 48.5072 44.8961 47.2849 47.1142 45.0629C49.3428 42.8309 50.5765 39.8569 50.587 36.6894C50.6088 30.4825 46.0023 25.3865 39.873 24.8357C39.3959 24.7928 39.0145 24.4173 38.9603 23.9375C38.4395 19.3348 35.4854 15.3546 31.249 13.5499C30.736 13.3313 30.4953 12.7343 30.7121 12.2165C30.9295 11.6991 31.5206 11.456 32.0344 11.6753C36.6915 13.6596 40.0116 17.9155 40.8519 22.9033C47.6307 23.9034 52.6292 29.6971 52.6053 36.6965C52.5919 40.4077 51.1472 43.8917 48.5364 46.507C45.9369 49.1102 42.4922 50.5422 38.8308 50.5422H13.7716Z" fill="#778495"/>
<path d="M20.5377 6.77624L20.5622 6.78846L20.626 6.85281C21.0505 7.28107 21.7414 7.28107 22.166 6.85281L25.2162 3.77623V18.9456C25.2162 19.5539 25.7068 20.0488 26.31 20.0488C26.9131 20.0488 27.4038 19.5539 27.4038 18.9456V3.75988L30.454 6.83646C30.6601 7.04442 30.9336 7.15896 31.224 7.15896C31.5144 7.15896 31.7878 7.04443 31.994 6.83646C32.2001 6.62849 32.3137 6.35267 32.3137 6.05981C32.3137 5.76694 32.2001 5.49112 31.994 5.28316L27.0718 0.318361C26.8623 0.107099 26.6005 0 26.2936 0C26.004 0 25.7331 0.111969 25.5099 0.323878L20.5932 5.28316C20.387 5.49113 20.2734 5.76695 20.2734 6.05982C20.2734 6.32523 20.3667 6.57666 20.5377 6.77624Z" fill="#778495"/>
<path d="M20.7798 33.2429C20.6193 32.0738 19.7174 31.4571 18.4624 31.4571C16.5312 31.4571 15.7905 33.1779 15.7905 34.8986C15.7905 36.6197 16.5312 38.3404 18.4624 38.3404C19.8625 38.3404 20.6677 37.5286 20.7798 36.1973H23.7741C23.6129 39.1847 21.4399 40.9379 18.5269 40.9379C15.0505 40.9379 12.7969 38.2591 12.7969 34.8986C12.7969 31.5381 15.0505 28.8596 18.5269 28.8596C21.0054 28.8596 23.6935 30.4503 23.7741 33.2429H20.7798Z" fill="#778495"/>
<path d="M30.4995 28.8597C34.121 28.8597 36.1651 31.5382 36.1651 34.8987C36.1651 38.2592 34.121 40.9381 30.4995 40.9381C26.8781 40.9381 24.834 38.2592 24.834 34.8987C24.834 31.5382 26.8781 28.8597 30.4995 28.8597ZM30.4995 38.3405C32.4308 38.3405 33.1715 36.6198 33.1715 34.8987C33.1715 33.178 32.4308 31.4573 30.4995 31.4573C28.5683 31.4573 27.8276 33.178 27.8276 34.8987C27.8276 36.6198 28.5683 38.3405 30.4995 38.3405Z" fill="#778495"/>
<path d="M36.9951 43.0025C37.0046 42.1597 37.3702 41.3645 38.0186 40.8058C38.5813 40.3133 39.2202 39.9726 39.7264 39.6508C40.2246 39.3194 40.5807 38.9976 40.5807 38.5523C40.5807 38.0409 40.2429 37.7287 39.736 37.7287C38.8912 37.7287 38.6568 38.3439 38.6472 39.0637H37.1548C37.0611 37.4257 38.0934 36.318 39.7264 36.318C41.0225 36.318 42.1764 36.9997 42.1764 38.4104C42.1764 39.6793 41.2752 40.1526 40.3184 40.7489C39.8209 41.0615 39.5579 41.2222 39.1352 41.639H42.2423V43.0025H36.9951Z" fill="#778495"/>
</svg>
