<svg width="42" height="55" viewBox="0 0 42 55" fill="none" xmlns="http://www.w3.org/2000/svg">
<g clip-path="url(#clip0_313_699)">
<path fill-rule="evenodd" clip-rule="evenodd" d="M20.9718 52.453C31.1811 52.453 39.7029 44.4707 39.7029 34.3083C39.7029 25.4017 27.6991 11.2837 20.9718 2.91959C14.2446 11.2851 2.24083 25.3968 2.24083 34.3083C2.24083 44.4683 10.7626 52.453 20.9718 52.453ZM13.1788 28.4034C14.5991 26.1595 18.0447 28.2299 16.7135 30.5445C15.4919 32.6742 11.8178 31.2521 13.1788 28.4034ZM11.2425 27.2871C13.2062 24.0367 18.1085 24.7557 19.0837 28.3965C20.0679 32.067 16.1016 35.155 12.7745 33.2357C10.571 31.9643 10.0321 29.0516 11.2423 27.2869L11.2425 27.2871ZM23.3563 37.6161C25.3429 34.3885 30.2112 35.144 31.1796 38.7575C32.2162 42.6242 27.8663 45.537 24.7904 43.551C22.5276 42.0924 22.1828 39.214 23.3564 37.6164L23.3563 37.6161ZM26.4846 37.8786C26.9961 37.7417 27.5601 37.7987 28.051 38.0818C30.4006 39.4354 28.3456 43.0167 25.9868 41.6609L25.9891 41.6587C24.4067 40.7479 24.7035 38.3557 26.4846 37.8786ZM17.029 43.7519C16.296 45.0279 14.3574 43.9117 15.0904 42.6379L24.9162 25.6278C25.6515 24.3518 27.5878 25.4681 26.8548 26.7418L17.029 43.7519ZM35.7921 48.7325C27.5992 56.6827 14.3459 56.6827 6.15582 48.7325C2.35165 45.0415 0 39.9399 0 34.3058C0 25.2366 10.8347 11.8743 17.5273 3.62221L20.2834 0.239329C20.7698 -0.141871 21.4753 -0.0596959 21.8567 0.428787C28.9716 9.46828 41.9507 24.1634 41.9507 34.3078C41.9484 39.9415 39.5965 45.0405 35.7924 48.7321L35.7921 48.7325Z" fill="#778495"/>
</g>
<defs>
<clipPath id="clip0_313_699">
<rect width="41.9507" height="54.6952" fill="white"/>
</clipPath>
</defs>
</svg>
