<svg width="52" height="49" viewBox="0 0 52 49" fill="none" xmlns="http://www.w3.org/2000/svg">
<path d="M46.7754 29.0466C46.0542 29.0466 45.3401 29.2426 44.721 29.6067L41.3671 28.1751C41.7045 26.8414 41.8744 25.4757 41.8744 24.1041C41.8744 23.6569 41.8516 23.1947 41.8058 22.7079L43.3545 22.3314C44.0848 22.9468 44.993 23.2804 45.9586 23.2804C48.2107 23.2804 50.0428 21.4328 50.0428 19.1617C50.0428 16.8906 48.2107 15.043 45.9586 15.043C44.3208 15.043 42.8447 16.0447 42.2116 17.5324L40.6579 17.9055C40.0314 16.3568 39.1803 14.9252 38.1193 13.6343L39.0742 12.557C41.484 12.7579 43.5082 10.8394 43.5082 8.45301C43.5082 6.18187 41.6761 4.33427 39.424 4.33427C37.1719 4.33427 35.3398 6.18187 35.3398 8.45301C35.3398 8.72483 35.366 8.99255 35.4191 9.25531L34.4666 10.3294C33.0763 9.41179 31.5709 8.71984 29.9742 8.2651L30.0191 7.90504C31.2803 7.17791 32.0727 5.82443 32.0727 4.33432C32.0727 2.06318 30.2405 0.215576 27.9885 0.215576C25.7364 0.215576 23.9042 2.06318 23.9042 4.33432C23.9042 5.47196 24.3544 6.52871 25.154 7.2998L25.1124 7.63513C23.1846 7.68541 21.31 8.0767 19.5234 8.80158L17.8635 5.93407C18.0784 5.42987 18.1864 4.89358 18.1864 4.3343C18.1864 2.06318 16.3542 0.21558 14.1021 0.21558C11.8501 0.21558 10.0179 2.06318 10.0179 4.3343C10.0179 6.44068 11.5945 8.18292 13.6333 8.42421L15.2973 11.2982C14.1234 12.2521 13.086 13.3641 12.2023 14.6179L8.31734 12.6591C7.97496 10.7265 6.29549 9.27676 4.30001 9.27676C2.04794 9.27676 0.21582 11.1244 0.21582 13.3955C0.21582 15.6666 2.04794 17.5142 4.30001 17.5142C4.94125 17.5142 5.56381 17.366 6.12488 17.0818L10.0122 19.039C9.51883 20.5572 9.24757 22.1125 9.20587 23.6757L8.87436 23.7169C8.10976 22.9105 7.06184 22.4566 5.93374 22.4566C3.68166 22.4566 1.84954 24.3042 1.84954 26.5753C1.84954 28.8464 3.68166 30.694 5.93374 30.694C7.41139 30.694 8.75423 29.895 9.47473 28.6223L9.83005 28.5779C10.3643 30.5022 11.2245 32.2765 12.3941 33.8705L12.2339 34.0311C12.0413 34.0038 11.8468 33.9891 11.6516 33.9891C9.3995 33.9891 7.56739 35.8367 7.56739 38.1078C7.56739 40.3789 9.3995 42.2265 11.6516 42.2265C13.9037 42.2265 15.7358 40.3789 15.7358 38.1078C15.7358 37.911 15.7212 37.7141 15.6933 37.5197L15.8542 37.3573C17.2575 38.4035 18.803 39.2049 20.4643 39.7494L20.3858 40.2222C19.0528 40.9233 18.1861 42.3344 18.1861 43.874C18.1861 46.1451 20.0183 47.9927 22.2703 47.9927C24.5224 47.9927 26.3545 46.1451 26.3545 43.874C26.3545 42.8096 25.947 41.7973 25.2232 41.0303L25.2991 40.5749C27.6099 40.6449 29.9706 40.1325 32.1131 39.1836C32.0862 39.3722 32.0722 39.5634 32.0722 39.7553C32.0722 42.0264 33.9044 43.874 36.1564 43.874C38.4085 43.874 40.2407 42.0264 40.2407 39.7553C40.2407 37.8047 38.8879 36.1662 37.0786 35.7428C37.987 34.8276 38.7801 33.8169 39.4475 32.7229L42.8096 34.1553C43.2524 35.9693 44.8779 37.284 46.7754 37.284C49.0274 37.284 50.8596 35.4364 50.8596 33.1653C50.8596 30.8942 49.0274 29.0466 46.7754 29.0466ZM46.7759 35.6367C45.5375 35.6367 44.4929 34.7051 44.3441 33.4703C44.3091 33.177 44.1212 32.9258 43.8508 32.8105L39.4237 30.9241C39.0407 30.761 38.5938 30.915 38.3913 31.2833C37.5394 32.8319 36.4186 34.2108 35.0618 35.3822C34.7432 35.6573 34.6828 36.1318 34.9229 36.4796L35.2415 36.9409C35.4107 37.1856 35.6948 37.3174 35.9913 37.2892C36.047 37.2834 36.1017 37.2834 36.1572 37.2843C37.5083 37.2843 38.6078 38.393 38.6078 39.7555C38.6078 41.1179 37.5083 42.2267 36.1572 42.2267C34.8062 42.2267 33.7067 41.1179 33.7067 39.7555C33.7067 39.3872 33.7901 39.0241 33.9468 38.7076C34.0792 38.4416 34.058 38.1236 33.892 37.8773L33.5816 37.4152C33.3465 37.0634 32.8865 36.9522 32.5181 37.1524C30.3772 38.3163 27.9634 38.9317 25.5385 38.9317C25.2657 38.9317 24.9994 38.9103 24.6785 38.8847C24.2642 38.8583 23.8804 39.1483 23.8102 39.5702L23.5407 41.1929C23.4925 41.4821 23.6002 41.7745 23.8242 41.9623C24.3941 42.4409 24.7217 43.1379 24.7217 43.8743C24.7217 45.2367 23.6222 46.3455 22.2712 46.3455C20.9202 46.3455 19.8207 45.2367 19.8207 43.8743C19.8207 42.8519 20.4578 41.9237 21.4062 41.5645C21.679 41.4607 21.8767 41.2194 21.9249 40.9294L22.1944 39.3066C22.263 38.8906 22.0098 38.4893 21.6063 38.3766C19.6558 37.8321 17.8701 36.9054 16.2993 35.622C16.149 35.4993 15.9667 35.4384 15.7855 35.4384C15.5755 35.4384 15.3665 35.5199 15.2079 35.6797L14.2277 36.6682C14.0203 36.8774 13.9394 37.1831 14.0177 37.4681C14.0742 37.678 14.1028 37.893 14.1028 38.108C14.1028 39.4705 13.0033 40.5793 11.6523 40.5793C10.3012 40.5793 9.20174 39.4705 9.20174 38.108C9.20174 36.7456 10.3012 35.6368 11.6523 35.6368C11.8655 35.6368 12.0787 35.6656 12.287 35.7224C12.5712 35.7998 12.8711 35.72 13.0794 35.51L14.0596 34.5224C14.3553 34.2241 14.3798 33.7489 14.1159 33.4203C12.7167 31.6839 11.7488 29.6863 11.2389 27.4836C11.1441 27.0734 10.7538 26.8032 10.3421 26.8534L8.83998 27.042C8.55086 27.0782 8.30258 27.2668 8.18891 27.538C7.80328 28.4547 6.91875 29.047 5.93443 29.047C4.58338 29.047 3.48392 27.9382 3.48392 26.5758C3.48392 25.2133 4.58338 24.1045 5.93443 24.1045C6.7104 24.1045 7.42196 24.462 7.88751 25.0856C8.064 25.3212 8.35315 25.4431 8.64141 25.4078L10.1362 25.2192C10.5446 25.1673 10.8509 24.8164 10.8509 24.4012C10.8509 24.3295 10.846 24.2571 10.8346 24.1047C10.8346 22.3542 11.1549 20.6088 11.7871 18.9175C11.9349 18.523 11.7625 18.079 11.3877 17.8902L6.46223 15.4107C6.19998 15.2781 5.88803 15.2987 5.64451 15.4619C5.25003 15.727 4.78511 15.867 4.30078 15.867C2.94975 15.867 1.85026 14.7583 1.85026 13.3958C1.85026 12.0333 2.94975 10.9246 4.30078 10.9246L4.30009 10.9243C5.59648 10.9243 6.66981 11.9433 6.74417 13.2448C6.76135 13.539 6.93288 13.8026 7.19429 13.9344L12.1119 16.4139C12.4835 16.6009 12.936 16.4774 13.1632 16.1247C14.1589 14.5761 15.399 13.2457 16.8495 12.1724C17.1868 11.9229 17.2825 11.4575 17.0718 11.0925L14.8255 7.21266C14.6775 6.96124 14.3924 6.8056 14.1024 6.8056C12.7514 6.8056 11.6519 5.69682 11.6519 4.33435C11.6519 2.97188 12.7514 1.86312 14.1024 1.86312C15.4535 1.86312 16.5529 2.9719 16.5529 4.33435C16.5529 4.76769 16.4444 5.17783 16.2294 5.55351C16.0832 5.80971 16.0841 6.12515 16.2311 6.38049L18.4774 10.2603C18.689 10.6252 19.1408 10.7693 19.5213 10.5948C21.4131 9.72488 23.4241 9.28175 25.5781 9.28175H25.6172C25.6891 9.28761 25.7602 9.29327 25.832 9.29327C26.2436 9.29327 26.5908 8.98436 26.6424 8.57248L26.8303 7.06507C26.867 6.77264 26.7453 6.48194 26.5108 6.3048C25.8926 5.83442 25.5381 5.1169 25.5381 4.33432C25.5381 2.97185 26.6376 1.86309 27.9887 1.86309C29.3397 1.86309 30.4392 2.97185 30.4392 4.33432C30.4392 5.32693 29.8528 6.21897 28.9444 6.60697C28.6757 6.72145 28.4886 6.97182 28.4526 7.26356L28.2647 8.77925C28.2133 9.19695 28.482 9.58651 28.8887 9.68364C30.7797 10.1309 32.54 10.9399 34.1196 12.0873C34.4594 12.3335 34.9282 12.2817 35.206 11.9678L36.9295 10.0238C37.1247 9.80309 37.1876 9.49418 37.0952 9.21411C37.0146 8.97025 36.9737 8.7142 36.9737 8.453C36.9737 7.09055 38.0732 5.98177 39.4242 5.98177C40.7753 5.98177 41.8748 7.09055 41.8748 8.453C41.8748 9.98104 40.5042 11.1779 38.9088 10.8731C38.6237 10.8179 38.337 10.9176 38.1459 11.1326L36.4223 13.0766C36.1438 13.3905 36.1455 13.8665 36.4264 14.1787C37.7351 15.6335 38.7299 17.3057 39.3825 19.1502C39.5231 19.5456 39.9348 19.7721 40.3406 19.6741L43.0199 19.0316C43.3066 18.9633 43.5336 18.7442 43.6153 18.4591C43.9136 17.418 44.8775 16.6906 45.959 16.6906C47.31 16.6906 48.4095 17.7994 48.4095 19.1619C48.4095 20.5243 47.31 21.6331 45.959 21.6331C45.2818 21.6331 44.6511 21.3589 44.1832 20.8605C43.9822 20.6463 43.6816 20.5581 43.399 20.6266L40.7198 21.2773C40.3122 21.3762 40.045 21.7707 40.1022 22.1893C40.1953 22.8852 40.241 23.5112 40.241 24.1043C40.241 25.5606 40.0278 27.0098 39.6063 28.4117C39.4855 28.8144 39.6856 29.2454 40.0695 29.4092L44.4888 31.2956C44.7583 31.4101 45.0687 31.3715 45.3015 31.1927C45.7205 30.8714 46.2441 30.6943 46.7759 30.6943C48.1269 30.6943 49.2264 31.8031 49.2264 33.1655C49.2264 34.528 48.1269 35.6367 46.7759 35.6367Z" fill="#778495" stroke="#778495" stroke-width="0.431191"/>
<path d="M28.805 16.6905C28.805 13.9648 26.6069 11.748 23.904 11.748C21.2011 11.748 19.0029 13.9648 19.0029 16.6905C19.0029 19.4162 21.2011 21.633 23.904 21.633C26.6068 21.633 28.805 19.4163 28.805 16.6905ZM20.6366 16.6905C20.6366 14.8733 22.102 13.3955 23.904 13.3955C25.7059 13.3955 27.1713 14.8733 27.1713 16.6905C27.1713 18.5077 25.7059 19.9855 23.904 19.9855C22.102 19.9855 20.6366 18.5077 20.6366 16.6905Z" fill="#778495" stroke="#778495" stroke-width="0.431191"/>
<path d="M29.6228 23.2803C27.8209 23.2803 26.3555 24.758 26.3555 26.5752C26.3555 28.3925 27.8209 29.8702 29.6228 29.8702C31.4248 29.8702 32.8902 28.3924 32.8902 26.5752C32.8902 24.7581 31.4248 23.2803 29.6228 23.2803ZM29.6228 28.2227C28.7219 28.2227 27.9892 27.4838 27.9892 26.5752C27.9892 25.6667 28.7219 24.9278 29.6228 24.9278C30.5238 24.9278 31.2565 25.6667 31.2565 26.5752C31.2565 27.4838 30.5237 28.2227 29.6228 28.2227Z" fill="#778495" stroke="#778495" stroke-width="0.431191"/>
<path d="M19.8206 24.1041C18.4696 24.1041 17.3701 25.2129 17.3701 26.5754C17.3701 27.9378 18.4696 29.0466 19.8206 29.0466C21.1717 29.0466 22.2711 27.9378 22.2711 26.5754C22.2711 25.2129 21.1717 24.1041 19.8206 24.1041ZM19.8206 27.3991C19.3705 27.3991 19.0038 27.0301 19.0038 26.5754C19.0038 26.1206 19.3705 25.7516 19.8206 25.7516C20.2708 25.7516 20.6375 26.1206 20.6375 26.5754C20.6375 27.0301 20.2708 27.3991 19.8206 27.3991Z" fill="#778495" stroke="#778495" stroke-width="0.431191"/>
<path d="M26.3539 33.9892C26.8051 33.9892 27.1708 33.6204 27.1708 33.1654C27.1708 32.7105 26.8051 32.3417 26.3539 32.3417C25.9028 32.3417 25.5371 32.7105 25.5371 33.1654C25.5371 33.6204 25.9028 33.9892 26.3539 33.9892Z" fill="#778495" stroke="#778495" stroke-width="0.431191"/>
<path d="M24.7211 35.6367C25.1723 35.6367 25.538 35.2679 25.538 34.813C25.538 34.3581 25.1723 33.9893 24.7211 33.9893C24.27 33.9893 23.9043 34.3581 23.9043 34.813C23.9043 35.2679 24.27 35.6367 24.7211 35.6367Z" fill="#778495" stroke="#778495" stroke-width="0.431191"/>
<path d="M27.9877 35.6367C28.4389 35.6367 28.8046 35.2679 28.8046 34.813C28.8046 34.3581 28.4389 33.9893 27.9877 33.9893C27.5366 33.9893 27.1709 34.3581 27.1709 34.813C27.1709 35.2679 27.5366 35.6367 27.9877 35.6367Z" fill="#778495" stroke="#778495" stroke-width="0.431191"/>
<path d="M26.3539 35.6366C25.9028 35.6366 25.5371 36.0054 25.5371 36.4603C25.5371 36.9153 25.9028 37.2841 26.3539 37.2841C26.8051 37.2841 27.1708 36.9153 27.1708 36.4603C27.1708 36.0054 26.8051 35.6366 26.3539 35.6366Z" fill="#778495" stroke="#778495" stroke-width="0.431191"/>
<path d="M35.3393 18.3379C35.7904 18.3379 36.1561 17.9691 36.1561 17.5142C36.1561 17.0592 35.7904 16.6904 35.3393 16.6904C34.8882 16.6904 34.5225 17.0592 34.5225 17.5142C34.5225 17.9691 34.8882 18.3379 35.3393 18.3379Z" fill="#778495" stroke="#778495" stroke-width="0.431191"/>
<path d="M33.7065 18.3379C33.2554 18.3379 32.8896 18.7067 32.8896 19.1616C32.8896 19.6166 33.2554 19.9854 33.7065 19.9854C34.1576 19.9854 34.5233 19.6166 34.5233 19.1616C34.5233 18.7067 34.1576 18.3379 33.7065 18.3379Z" fill="#778495" stroke="#778495" stroke-width="0.431191"/>
<path d="M36.9741 18.3379C36.5229 18.3379 36.1572 18.7067 36.1572 19.1616C36.1572 19.6166 36.5229 19.9854 36.9741 19.9854C37.4252 19.9854 37.7909 19.6166 37.7909 19.1616C37.7909 18.7067 37.4252 18.3379 36.9741 18.3379Z" fill="#778495" stroke="#778495" stroke-width="0.431191"/>
<path d="M35.3393 21.633C35.7904 21.633 36.1561 21.2642 36.1561 20.8092C36.1561 20.3543 35.7904 19.9855 35.3393 19.9855C34.8882 19.9855 34.5225 20.3543 34.5225 20.8092C34.5225 21.2642 34.8882 21.633 35.3393 21.633Z" fill="#778495" stroke="#778495" stroke-width="0.431191"/>
<path d="M14.9194 20.8091C15.3705 20.8091 15.7362 20.4403 15.7362 19.9854C15.7362 19.5304 15.3705 19.1616 14.9194 19.1616C14.4683 19.1616 14.1025 19.5304 14.1025 19.9854C14.1025 20.4403 14.4683 20.8091 14.9194 20.8091Z" fill="#778495" stroke="#778495" stroke-width="0.431191"/>
<path d="M13.2856 20.8092C12.8345 20.8092 12.4688 21.178 12.4688 21.6329C12.4688 22.0879 12.8345 22.4567 13.2856 22.4567C13.7367 22.4567 14.1025 22.0879 14.1025 21.6329C14.1025 21.178 13.7367 20.8092 13.2856 20.8092Z" fill="#778495" stroke="#778495" stroke-width="0.431191"/>
<path d="M16.5532 22.4567C17.0043 22.4567 17.37 22.0879 17.37 21.6329C17.37 21.178 17.0043 20.8092 16.5532 20.8092C16.102 20.8092 15.7363 21.178 15.7363 21.6329C15.7363 22.0879 16.102 22.4567 16.5532 22.4567Z" fill="#778495" stroke="#778495" stroke-width="0.431191"/>
<path d="M14.9194 24.104C15.3705 24.104 15.7362 23.7352 15.7362 23.2803C15.7362 22.8253 15.3705 22.4565 14.9194 22.4565C14.4683 22.4565 14.1025 22.8253 14.1025 23.2803C14.1025 23.7352 14.4683 24.104 14.9194 24.104Z" fill="#778495" stroke="#778495" stroke-width="0.431191"/>
</svg>
