<svg xmlns="http://www.w3.org/2000/svg" width="414.386" height="298.355" viewBox="0 0 414.386 298.355"><g transform="translate(0)"><path d="M4,4V294.355H410.386V4H4M0,0H414.386V298.355H0Z" transform="translate(0 0)" fill="#fff"/><g transform="translate(251.544 111.564) rotate(90)"><path d="M40.89,0,81.78,70.947H0Z" fill="none"/><path d="M40.892,17.321,14.969,62.3H66.814L40.892,17.321M40.892,0,81.783,70.945H0Z" transform="translate(0 0)" fill="#fff"/></g><path d="M82.876,4a78.489,78.489,0,0,0-44.1,13.468A79.118,79.118,0,0,0,10.2,52.175a78.767,78.767,0,0,0,7.272,74.8,79.118,79.118,0,0,0,34.707,28.582,78.767,78.767,0,0,0,74.8-7.272,79.118,79.118,0,0,0,28.582-34.707,78.767,78.767,0,0,0-7.272-74.8A79.118,79.118,0,0,0,113.577,10.2,78.378,78.378,0,0,0,82.876,4m0-4A82.876,82.876,0,1,1,0,82.876,82.876,82.876,0,0,1,82.876,0Z" transform="translate(124.313 66.305)" fill="#fff"/></g></svg>