<svg xmlns="http://www.w3.org/2000/svg" width="343.588" height="89.264" viewBox="0 0 343.588 89.264"><g transform="translate(-511 -1260.479)"><text transform="translate(683 1347.743)" fill="#778495" font-size="8" font-family="Raleway-Regular, Raleway"><tspan x="-65.069" y="0">BACnet</tspan><tspan y="0" font-size="4.666" baseline-shift="2.66639997471509">®</tspan><tspan y="0" xml:space="preserve"> is a trademark of ASHRAE.</tspan></text><g transform="translate(-4886.285 3178.736)"><path d="M108.2,0V25.594H62.125V11.251H58.9V25.594H3.229V11.021H0v17.8H282.15V13.2h-3.229V25.594H249.6V12.973h-3.23V25.594H219.295V11.768h-3.23V25.594H162.179V12.055h-3.23V25.594H111.434V0Z" transform="translate(5435.645 -1882.818)" fill="#778495"/><path d="M347.262,21.57c1.489,0,7.042.573,7.214,8.589H339.934c-.057-4.809,2.691-8.589,7.329-8.589M329.8,33.594a24.976,24.976,0,0,0,2.176,10.191c3.3,7.1,9.95,8.5,13.81,8.76h3.444c10.8-.752,13.587-8.7,14.351-10.879l-9.733-1.66c-.515,1.718-1.66,5.1-6.184,5.1-5.554,0-7.844-4.638-8.016-8.989h24.391c.229-10.821-3.607-21.986-17.463-21.986-11.508,0-16.776,9.5-16.776,19.467m-31.6-13.226h-.115V14.986h-9.1v36.7h9.733V35.026c0-2.977.057-7.042,1.088-9.161a7.573,7.573,0,0,1,7.042-4.352c5.955,0,5.955,5.325,5.955,11.337V51.63h9.733V28.784c-.057-3.607.057-9.046-3.836-12.023a13.955,13.955,0,0,0-8.417-2.691,14.6,14.6,0,0,0-12.081,6.3M372.34,7.715v7.329h-4.466v7.729h4.466V38.8c0,5.611.172,7.787,1.374,10.076,1.162,2.231,3.907,3.33,6.492,3.665h3.819a19.662,19.662,0,0,0,5.548-1.35v-.524l-.8-7-.286.057a9,9,0,0,1-3.607.859c-2.691,0-2.691-1.718-2.691-6.928V22.83h6.584V15.1h-6.584V2.047ZM150.991,29.758h8.3c7.157,0,13.455,0,13.455,6.928a5.948,5.948,0,0,1-4.18,5.9c-1.546.573-5.9.573-8.073.573h-9.5Zm.057-20.211h0Zm0,0h5.9c7.386,0,8.588,0,10.077.4a5.309,5.309,0,0,1,3.836,5.381c0,5.383-5.267,5.841-8.7,5.841H151.049ZM140.8,1.016V51.744h17.291c10.764,0,14.028-.229,17-1.489,5.439-2.405,8.245-8.245,8.245-13.227,0-2.862-.916-9.733-9.619-12.252a11.907,11.907,0,0,0,7.157-10.994A12.409,12.409,0,0,0,175.439,3.65c-3.264-2.347-7.329-2.634-14.314-2.634ZM209.678,12.81l7.042,18.838H202.807ZM204.353.958,184.6,51.744h10.936l4.18-11.508h20.268l4.409,11.508h11.222L215.289.958ZM258.263.1c-15.267.932-21.9,13.063-21.9,26.681,0,15.111,8.587,24.934,21.353,25.765h3.69c14.956-.914,18.114-12.523,19.158-16.318l-9.905-3.149c-1.26,5.554-4.409,10.707-11.222,10.707a11.32,11.32,0,0,1-9.791-4.981c-2.118-3.264-2.691-8.016-2.691-12.768,0-3.264,0-17.177,12.6-17.177a10.412,10.412,0,0,1,10.707,8.53l10.134-2.4a19.738,19.738,0,0,0-4.809-9.1A20.951,20.951,0,0,0,261.966.1Z" transform="translate(5337.103 -1918.358)" fill="#778495"/><path d="M91.1,5.5Z" transform="translate(5358.344 -1920.666)" fill="#778495"/><path d="M91.1,5.5" transform="translate(5358.344 -1920.666)" fill="#778495"/><path d="M91.1,75.4Z" transform="translate(5358.344 -1950.545)" fill="#778495"/><path d="M91.1,75.4" transform="translate(5358.344 -1950.545)" fill="#778495"/><path d="M111.3,40.4Z" transform="translate(5349.711 -1935.584)" fill="#778495"/><path d="M111.3,40.4" transform="translate(5349.711 -1935.584)" fill="#778495"/><path d="M43.733.1A2.965,2.965,0,0,0,41.1,1.646L34.572,12.982H37.95l5.382-9.39a1.743,1.743,0,0,1,.458-.458,1.15,1.15,0,0,1,.63-.172H66.291a1.155,1.155,0,0,1,.63.172,1.172,1.172,0,0,1,.458.458L78.315,22.543a1.158,1.158,0,0,1,.172.63,1.307,1.307,0,0,1-.172.63L67.379,42.755a1.172,1.172,0,0,1-.458.458,1.154,1.154,0,0,1-.63.172H44.362a1.305,1.305,0,0,1-.63-.172,1.172,1.172,0,0,1-.458-.458l-5.554-9.562H34.4l6.642,11.566a3.063,3.063,0,0,0,2.043,1.488H67.4a2.929,2.929,0,0,0,2.039-1.488L81.006,24.72a2.9,2.9,0,0,0,0-3.035L69.44,1.646A3.031,3.031,0,0,0,66.806.1Z" transform="translate(5382.58 -1918.358)" fill="#778495"/><path d="M4.695,30.651l.916,6.642H3.664ZM3.035,26.7,0,42.159H2.863l.4-2.52H5.9l.4,2.52H9.161L6.3,26.7Z" transform="translate(5397.286 -1929.728)" fill="#778495"/><path d="M16.7,36.463h2.863v1.775c0,.916,0,1.775,1.374,1.775,1.431,0,1.431-.916,1.431-2.29a2.053,2.053,0,0,0-.973-2.061L18.7,33.829a3.839,3.839,0,0,1-1.832-3.607,3.9,3.9,0,0,1,1.088-3.206,4.945,4.945,0,0,1,3.092-.916c1.66,0,3.951.687,3.951,3.321v1.546H22.2V29.822c0-.744,0-1.6-1.26-1.6-.744,0-1.317.286-1.317,1.546,0,1.317.286,1.6.916,2l2.806,1.889a5.265,5.265,0,0,1,1.489,1.489,4.144,4.144,0,0,1,.4,2.4,5.275,5.275,0,0,1-.515,3.035c-.859,1.374-2.634,1.546-3.664,1.546-2.4,0-4.294-.916-4.294-3.55V36.463Z" transform="translate(5390.148 -1929.472)" fill="#778495"/><path d="M33.5,26.7h2.863v6.126h2.576V26.7H41.8V42.159H38.939V35.116H36.363v7.042H33.5Z" transform="translate(5382.966 -1929.728)" fill="#778495"/><path d="M50.7,26.7h5.668c2.805,0,2.805,1.889,2.805,3.264v1.66c0,1.947-.63,2.347-2,2.634a2.473,2.473,0,0,1,2.118,2.691V40.1a2.357,2.357,0,0,0,.687,2.061H56.826a3.4,3.4,0,0,1-.4-1.718V37.12c0-1.031,0-1.775-1.489-1.775H53.563v6.813H50.7Zm2.863,6.47h1.489c1.317,0,1.317-.687,1.317-1.489V30.193c0-1.26-.687-1.26-1.317-1.26H53.563Z" transform="translate(5375.614 -1929.728)" fill="#778495"/><path d="M69.335,26.7H72.6l2.863,15.459H72.6l-.4-2.519H69.564l-.4,2.519H66.3Zm.573,10.592h1.947l-.916-6.642Z" transform="translate(5368.945 -1929.728)" fill="#778495"/><path d="M83.4,26.7h7.5v2.347H86.263v3.664h4.351v2.347H86.263v4.752h4.809v2.347H83.4Z" transform="translate(5361.636 -1929.728)" fill="#778495"/><path d="M585.868,18.337a5.669,5.669,0,1,1,5.726-5.611,5.643,5.643,0,0,1-5.726,5.611m0-10.878a5.182,5.182,0,1,0,5.21,5.21,5.18,5.18,0,0,0-5.21-5.21M585.811,9a4.451,4.451,0,0,1,1.661.172,1.754,1.754,0,0,1-.344,3.378,1.571,1.571,0,0,1,1.03,1.489,8.21,8.21,0,0,0,.516,2.118h-1.431a4.813,4.813,0,0,1-.4-1.546c-.229-1.489-.344-1.66-2.119-1.66v3.206h-1.26V9Zm-1.03,2.977h1.03c.515,0,1.546,0,1.546-.973a.9.9,0,0,0-.515-.859,2.9,2.9,0,0,0-1.26-.115h-.8Z" transform="translate(5149.28 -1921.308)" fill="#778495"/></g></g></svg>