<?xml version="1.0" encoding="UTF-8"?>
<svg id="Layer_1" data-name="Layer 1" xmlns="http://www.w3.org/2000/svg" viewBox="0 0 100 80">
  <defs>
    <style>
      .cls-1 {
        fill: #778495;
      }

      .cls-2 {
        fill: #aebed3;
      }
    </style>
  </defs>
  <path class="cls-1" d="M50.00218654987475,79.499996185302734c-.372344970703125,0-.739749908447266-.006919860839844-1.106166839599609-.023704528808594-8.359222412109375-.344375610351562-15.957794189453125-4.951614379882812-20.128269195556641-12.204360961914062-4.367147445678711-7.440116882324219-4.612493515014648-16.600334167480469-.649871826171875-24.263553619384766L50.00218654987475.499996185302734l21.883319854736328,42.509365081787109c3.960304260253906,7.664791107177734,3.712356567382812,16.825206756591797-.656787872314453,24.264545440673828-4.172206878662109,7.252182006835938-11.771617889404297,11.858505249023438-20.131233215332031,12.202392578125-.340736389160156.021728515625-.716045379638672.023704528808594-1.097278594970703.023704528808594M50.00218654987475,8.961178779602051l-18.442354202270508,35.82199764251709c-3.352573394775391,6.489315032958984-3.142658233642578,14.244625091552734.556045532226562,20.543083190917969,3.50880241394043,6.107269287109375,9.903814315795898,9.989089965820312,16.941129684448242,10.283393859863281.351604461669922.013824462890625.701229095458984.017776489257812,1.046905517578125.01678466796875.268638610839844,0,.532341003417969,0,.799007415771484-.014816284179688,7.065036773681641-.235221862792969,13.497478485107422-4.133316040039062,16.975696563720703-10.287345886230469,3.700328826904297-6.297664642333984,3.911739349365234-14.053176879882812.55999755859375-20.543083190917969L50.00218654987475,8.961178779602051Z"/>
  <path class="cls-2" d="M49.723671687814203,71.687709808349609c-1.069107055664062.001289367675781-1.936836242675781-.864341735839844-1.938129425048828-1.933448791503906-.00103759765625-.85784912109375.562644958496094-1.614067077636719,1.385047912597656-1.858131408691406,7.237808227539062-2.248046875,12.695793151855469-8.231845855712891,14.270526885986328-15.645332336425781.232093811035156-1.044288635253906,1.266807556152344-1.702701568603516,2.31109619140625-1.470607757568359s1.702701568603516,1.266807556152344,1.470607757568359,2.31109619140625c-1.880134582519531,8.783809661865234-8.361568450927734,15.865146636962891-16.945079803466797,18.513462066650391-.179973602294922.054603576660156-.366981506347656.082557678222656-.555057525634766.082962036132812"/>
</svg>