<?xml version="1.0" encoding="UTF-8"?>
<svg id="Layer_1" data-name="Layer 1" xmlns="http://www.w3.org/2000/svg" viewBox="0 0 100 80">
  <defs>
    <style>
      .cls-1 {
        fill: #778495;
      }

      .cls-2 {
        fill: #aebed3;
      }
    </style>
  </defs>
  <path class="cls-2" d="M18.091499328613281,71.485496520996094l6.27400016784668-15.305999755859375v-.252998352050781c.048999786376953-10.180999755859375,1.124000549316406-18.700000762939453,3.194999694824219-25.326999664306641,3.057117462158203-9.810173034667969,12.163677215576172-16.472381591796875,22.439001083374023-16.416000366210938,6.891998291015625,0,10.458999633789062,2.107999801635742,13.871997833251953,3.937000274658203v5.911998748779297c-3.814823150634766-3.363826751708984-8.790904998779297-5.107662200927734-13.870998382568359-4.861000061035156-8.090549468994141-.047000885009766-15.262519836425781,5.196426391601562-17.672000885009766,12.920001983642578-1.970001220703125,6.305000305175781-2.968999862670898,14.574996948242188-2.968999862670898,24.583000183105469v.492000579833984l-3.818000793457031,9.325000762939453h48.920995712280273l-3.821998596191406-9.324001312255859v-.492000579833984c.042942047119141-6.976661682128906-.378990173339844-13.948436737060547-1.26300048828125-20.868999481201172h5.056999206542969c.802497863769531,6.677593231201172,1.203216552734375,13.397357940673828,1.199996948242188,20.123001098632812v.252998352050781l6.274002075195312,15.305995941162109s-63.817001342773438-.002998352050781-63.816993713378906-.002998352050781Z"/>
  <rect class="cls-1" x="67.407501220703125" y="27.732513427734375" width="3.858001708984375" height="3.656000137329102"/>
  <rect class="cls-1" x="67.407501220703125" y="8.511505126953125" width="3.858001708984375" height="15.202999114990234"/>
</svg>