<svg xmlns="http://www.w3.org/2000/svg" width="92.421" height="97.618" viewBox="0 0 92.421 97.618"><g transform="translate(-2.034 -2.034)"><path d="M123.6,147.541h0a1.256,1.256,0,1,0-1.868,1.681l6.288,5.881a1.25,1.25,0,0,0,.933.417.871.871,0,0,0,.13-.008,1.25,1.25,0,0,0,.952-.62l8.565-14.83a1.256,1.256,0,1,0-2.176-1.256l-7.7,13.333Z" transform="translate(-81.448 -93.015)" fill="#aebed3"/><path d="M128.956,155.77h-.008a1.5,1.5,0,0,1-1.11-.491l-6.3-5.889a1.506,1.506,0,0,1,2.229-2.027l4.889,4.385,7.544-13.067a1.505,1.505,0,0,1,2.058-.552,1.506,1.506,0,0,1,.552,2.058l-8.565,14.83a1.5,1.5,0,0,1-1.138.743A1.124,1.124,0,0,1,128.956,155.77Zm-7.049-6.723,6.3,5.889a1,1,0,0,0,.746.333h.008a.618.618,0,0,0,.088-.006h.009a1,1,0,0,0,.762-.5l8.565-14.83a1.007,1.007,0,0,0-.871-1.51,1.01,1.01,0,0,0-.873.5l-7.852,13.6-5.284-4.739h-.016l-.075-.083a1.006,1.006,0,0,0-1.5,1.339Z" transform="translate(-81.448 -93.015)" fill="#aebed3"/><path d="M75.891,115.44a22.8,22.8,0,1,0,22.8-22.8,22.829,22.829,0,0,0-22.8,22.8m43.125,0A20.321,20.321,0,1,1,98.695,95.118a20.344,20.344,0,0,1,20.321,20.321" transform="translate(-50.057 -61.606)" fill="#aebed3"/><path d="M98.695,138.493a23.054,23.054,0,1,1,23.054-23.054A23.08,23.08,0,0,1,98.695,138.493Zm0-45.607a22.554,22.554,0,1,0,22.554,22.554A22.579,22.579,0,0,0,98.695,92.886Zm0,43.125a20.571,20.571,0,1,1,20.571-20.571A20.594,20.594,0,0,1,98.695,136.011Zm0-40.642a20.071,20.071,0,1,0,20.071,20.071A20.094,20.094,0,0,0,98.695,95.369Z" transform="translate(-50.057 -61.606)" fill="#aebed3"/><path d="M132.776,14.938a7.469,7.469,0,1,0-7.469-7.47,7.478,7.478,0,0,0,7.469,7.47m0-12.456a4.987,4.987,0,1,1-4.986,4.986,4.993,4.993,0,0,1,4.986-4.986" transform="translate(-84.139 2.284)" fill="#aebed3"/><path d="M132.776,15.188a7.719,7.719,0,1,1,7.72-7.72A7.728,7.728,0,0,1,132.776,15.188Zm0-14.938A7.219,7.219,0,1,0,140,7.469,7.227,7.227,0,0,0,132.776.25Zm0,12.456a5.237,5.237,0,1,1,5.237-5.237A5.243,5.243,0,0,1,132.776,12.706Zm0-9.973a4.737,4.737,0,1,0,4.737,4.736A4.742,4.742,0,0,0,132.776,2.732Z" transform="translate(-84.139 2.284)" fill="#aebed3"/><path d="M14.938,219.008a7.469,7.469,0,1,0-7.469,7.469,7.478,7.478,0,0,0,7.469-7.469m-7.469,4.986a4.987,4.987,0,1,1,4.986-4.986,4.992,4.992,0,0,1-4.986,4.986" transform="translate(2.284 -143.612)" fill="#aebed3"/><path d="M7.469,226.727a7.719,7.719,0,1,1,7.719-7.719A7.728,7.728,0,0,1,7.469,226.727Zm0-14.938a7.219,7.219,0,1,0,7.219,7.219A7.227,7.227,0,0,0,7.469,211.789Zm0,12.456a5.237,5.237,0,1,1,5.236-5.236A5.242,5.242,0,0,1,7.469,224.245Zm0-9.973a4.737,4.737,0,1,0,4.736,4.737A4.742,4.742,0,0,0,7.469,214.272Z" transform="translate(2.284 -143.612)" fill="#aebed3"/><path d="M255,211.539a7.469,7.469,0,1,0,7.469,7.469A7.478,7.478,0,0,0,255,211.539m0,12.456a4.987,4.987,0,1,1,4.987-4.986A4.992,4.992,0,0,1,255,223.995" transform="translate(-168.432 -143.612)" fill="#aebed3"/><path d="M255,226.727a7.719,7.719,0,1,1,7.719-7.719A7.728,7.728,0,0,1,255,226.727Zm0-14.938a7.219,7.219,0,1,0,7.219,7.219A7.227,7.227,0,0,0,255,211.789Zm0,12.456a5.237,5.237,0,1,1,5.237-5.236A5.242,5.242,0,0,1,255,224.245Zm0-9.973a4.737,4.737,0,1,0,4.737,4.737A4.742,4.742,0,0,0,255,214.272Z" transform="translate(-168.432 -143.612)" fill="#aebed3"/><path d="M5.366,80.653a1.243,1.243,0,0,0,1.2-1.572,43.192,43.192,0,0,1-1.552-11.49A42.616,42.616,0,0,1,14.4,40.745,43.29,43.29,0,0,1,37.962,25.707a1.241,1.241,0,0,0-.582-2.414A45.788,45.788,0,0,0,12.457,39.2,45.074,45.074,0,0,0,2.529,67.591,45.674,45.674,0,0,0,4.17,79.741a1.242,1.242,0,0,0,1.2.911" transform="translate(0.54 -13.757)" fill="#aebed3"/><path d="M5.366,80.9a1.5,1.5,0,0,1-1.437-1.095,45.924,45.924,0,0,1-1.65-12.217,45.322,45.322,0,0,1,9.983-28.55,46.039,46.039,0,0,1,25.06-15.99,1.491,1.491,0,0,1,.7,2.9A43.039,43.039,0,0,0,14.593,40.9a42.368,42.368,0,0,0-9.331,26.69A42.942,42.942,0,0,0,6.8,79.014,1.493,1.493,0,0,1,5.366,80.9ZM37.673,23.509a1,1,0,0,0-.234.028A45.536,45.536,0,0,0,12.653,39.352,44.827,44.827,0,0,0,2.779,67.591,45.424,45.424,0,0,0,4.411,79.675a.991.991,0,1,0,1.911-.527A43.443,43.443,0,0,1,4.761,67.591a42.863,42.863,0,0,1,9.441-27A43.541,43.541,0,0,1,37.9,25.464a.992.992,0,0,0-.231-1.955Z" transform="translate(0.54 -13.757)" fill="#aebed3"/><path d="M179.925,25.707A43.291,43.291,0,0,1,203.49,40.745a42.617,42.617,0,0,1,9.386,26.846,43.151,43.151,0,0,1-1.654,11.861,1.241,1.241,0,1,0,2.387.682,45.636,45.636,0,0,0,1.749-12.543A45.075,45.075,0,0,0,205.43,39.2a45.786,45.786,0,0,0-24.923-15.9,1.241,1.241,0,1,0-.582,2.413" transform="translate(-121.153 -13.758)" fill="#aebed3"/><path d="M212.416,81.285a1.493,1.493,0,0,1-1.435-1.9,42.9,42.9,0,0,0,1.644-11.792,42.37,42.37,0,0,0-9.331-26.69,43.04,43.04,0,0,0-23.428-14.951,1.491,1.491,0,1,1,.7-2.9,46.037,46.037,0,0,1,25.06,15.99,45.322,45.322,0,0,1,9.982,28.55A45.886,45.886,0,0,1,213.849,80.2,1.5,1.5,0,0,1,212.416,81.285Zm-32.2-57.776a.991.991,0,0,0-.231,1.955,43.542,43.542,0,0,1,23.7,15.125,42.865,42.865,0,0,1,9.441,27,43.4,43.4,0,0,1-1.664,11.93.991.991,0,1,0,1.906.545,45.385,45.385,0,0,0,1.74-12.474,44.827,44.827,0,0,0-9.873-28.239,45.534,45.534,0,0,0-24.786-15.816A1,1,0,0,0,180.215,23.509Z" transform="translate(-121.153 -13.758)" fill="#aebed3"/><path d="M105.425,259.521a42.684,42.684,0,0,1-31.373,13.557,43.207,43.207,0,0,1-31.736-13.947,1.241,1.241,0,0,0-1.828,1.679,45.7,45.7,0,0,0,33.564,14.75,45.143,45.143,0,0,0,33.18-14.338,1.241,1.241,0,0,0-1.807-1.7" transform="translate(-25.415 -176.158)" fill="#aebed3"/><path d="M74.052,275.81A45.948,45.948,0,0,1,40.3,260.979a1.491,1.491,0,0,1,2.2-2.018,42.957,42.957,0,0,0,31.552,13.866,42.436,42.436,0,0,0,31.191-13.478,1.491,1.491,0,0,1,2.108-.063,1.491,1.491,0,0,1,.063,2.108A45.39,45.39,0,0,1,74.052,275.81ZM41.4,258.979a.991.991,0,0,0-.73,1.662,45.447,45.447,0,0,0,33.38,14.669,44.894,44.894,0,0,0,33-14.259.991.991,0,1,0-1.443-1.359,42.931,42.931,0,0,1-31.555,13.635A43.458,43.458,0,0,1,42.132,259.3,1,1,0,0,0,41.4,258.979Z" transform="translate(-25.415 -176.158)" fill="#aebed3"/></g></svg>