<?xml version="1.0" encoding="UTF-8"?>
<svg id="Layer_1" data-name="Layer 1" xmlns="http://www.w3.org/2000/svg" viewBox="0 0 100 80">
  <defs>
    <style>
      .cls-1 {
        fill: #778495;
      }
    </style>
  </defs>
  <path class="cls-1" d="M49.996002197265625,3.798004388809204h0c10.5386962890625-.008504152297974,19.088890075683594,8.527901411056519,19.097389221191406,19.066596746444702.004173278808594,5.1715087890625-2.090858459472656,10.123245239257812-5.805393218994141,13.721405029296875-.049442291259766.048786163330078-.091243743896484.104747772216797-.124000549316406.166000366210938-.188941955566406.344860076904297-.062545776367188.777591705322266.282314300537109.966533660888672.000892639160156.000492095947266.001789093017578.000980377197266.002685546875.00146484375h.006000518798828c8.969467163085938,4.911163330078125,14.543521881103516,14.326011657714844,14.535999298095703,24.551998138427734v13.930007934570312H22.009000778198242v-13.931003570556641c-.007079124450684-10.223762512207031,5.565179824829102-19.636634826660156,14.531999588012695-24.548000335693359h.005001068115234c.062152862548828-.033924102783203.118797302246094-.077079772949219.167999267578125-.127998352050781.276426315307617-.283538818359375.270660400390625-.737483978271484-.01287841796875-1.013908386230469-.000373840332031-.0003662109375-.000747680664062-.000728607177734-.001121520996094-.001091003417969l-.007999420166016-.007999420166016c-.130001068115234-.126998901367188-.260000228881836-.256999969482422-.387001037597656-.386997222900391l-.006000518798828-.006000518798828c-7.342075347900391-7.564146041870117-7.162050247192383-19.648025512695312.402095794677734-26.99009895324707,3.562007904052734-3.457432746887207,8.330860137939453-5.391138076782227,13.294906616210938-5.39090895652771ZM61.680999755859375,40.970005035400391c-2.141250610351562-1.165264129638672-2.932441711425781-3.845726013183594-1.767173767089844-5.986976623535156.211273193359375-.388225555419922.479656219482422-.742519378662109.796173095703125-1.051021575927734,6.100765228271484-5.915807723999023,6.250701904296875-15.657163619995117.334892272949219-21.757926940917969-5.915805816650391-6.10076379776001-15.65716552734375-6.2507004737854-21.757926940917969-.334892272949219-6.100330352783203,5.915388107299805-6.250743865966797,15.655895233154297-.335966110229492,21.756820678710938.107000350952148.109001159667969.215999603271484.218002319335938.325000762939453.325000762939453,1.750921249389648,1.700160980224609,1.792070388793945,4.497814178466797.091911315917969,6.248733520507812-.308839797973633.318061828613281-.663784027099609.587837219238281-1.052911758422852.800266265869141-7.778932571411133,4.262607574462891-12.612490653991699,12.429737091064453-12.605998992919922,21.299999237060547v10.231998443603516h48.582000732421875v-10.230998992919922c.005844116210938-8.871414184570312-4.829364776611328-17.039112091064453-12.610000610351562-21.301002502441406Z"/>
</svg>