<svg width="288" height="51" viewBox="0 0 288 51" fill="none" xmlns="http://www.w3.org/2000/svg">
<g clip-path="url(#clip0_20_146)">
<path d="M181.791 49.2704C181.667 49.2704 181.542 49.2301 181.436 49.1481C174.766 43.8878 170.939 36.0064 170.939 27.5218C170.939 12.3454 183.286 0 198.461 0C206.704 0 214.446 3.64956 219.698 10.0147C219.9 10.258 219.865 10.6193 219.622 10.8208C219.377 11.0223 219.017 10.9862 218.816 10.743C213.782 4.64325 206.362 1.14378 198.461 1.14378C183.917 1.14378 172.085 12.9764 172.085 27.5218C172.085 35.6534 175.751 43.2082 182.145 48.2489C182.394 48.4449 182.436 48.8048 182.241 49.0522C182.127 49.1954 181.96 49.2704 181.791 49.2704Z" fill="#778495"/>
<path d="M182.678 44.1443C182.533 44.1443 182.388 44.0901 182.276 43.9803C177.829 39.6039 175.379 33.7599 175.379 27.5212C175.379 14.7936 185.733 4.43835 198.46 4.43835C203.305 4.43835 207.941 5.92263 211.869 8.72999C212.126 8.91344 212.186 9.27061 212.001 9.52772C211.819 9.78483 211.46 9.84459 211.203 9.66114C207.472 6.99276 203.065 5.58353 198.46 5.58353C186.364 5.58353 176.523 15.4246 176.523 27.5212C176.523 33.45 178.851 39.0049 183.08 43.1645C183.305 43.3855 183.308 43.7482 183.087 43.9734C182.974 44.0873 182.827 44.1443 182.678 44.1443Z" fill="#778495"/>
<path d="M183.819 38.7427C183.642 38.7427 183.468 38.6607 183.356 38.5078C181.02 35.3002 179.784 31.5019 179.784 27.5216C179.784 21.9277 182.261 16.6744 186.58 13.1096C186.825 12.9081 187.185 12.9442 187.386 13.186C187.588 13.4306 187.553 13.7906 187.31 13.9921C183.254 17.3387 180.929 22.2696 180.929 27.5216C180.929 31.2573 182.087 34.8235 184.28 37.8337C184.466 38.0895 184.411 38.4466 184.155 38.6329C184.054 38.7065 183.935 38.7427 183.819 38.7427Z" fill="#778495"/>
<path d="M207.305 30.4714L200.489 14.5098L193.631 30.4714H207.305ZM199.876 12.7142H201.101L213.55 41.6952H212.04L207.755 31.6944H193.222L188.937 41.6952H187.385L199.876 12.7142Z" fill="#778495"/>
<path d="M227.102 21.776C225.142 21.858 223.443 22.4764 222 23.6327C220.557 24.7904 219.551 26.3623 218.979 28.3483V41.6957H217.592V20.4696H218.938V25.8578C219.673 24.3624 220.652 23.1366 221.878 22.1846C223.102 21.2326 224.408 20.6739 225.795 20.5113C226.068 20.4835 226.319 20.4696 226.551 20.4696H227.102V21.776Z" fill="#778495"/>
<path d="M240.613 21.776C238.653 21.858 236.954 22.4764 235.511 23.6327C234.068 24.7904 233.062 26.3623 232.49 28.3483V41.6957H231.103V20.4696H232.449V25.8578C233.185 24.3624 234.163 23.1366 235.389 22.1846C236.613 21.2326 237.92 20.6739 239.307 20.5113C239.579 20.4835 239.83 20.4696 240.063 20.4696H240.613V21.776Z" fill="#778495"/>
<path d="M249.634 40.9199C250.64 40.9199 251.654 40.7837 252.674 40.5113C253.696 40.2403 254.613 39.865 255.43 39.3897C256.246 38.913 256.913 38.3627 257.43 37.7359C257.947 37.1105 258.206 36.4434 258.206 35.736V31.7348C256.084 30.919 253.824 30.5118 251.431 30.5118C250.315 30.5118 249.293 30.6341 248.369 30.8787C247.443 31.1233 246.647 31.4638 245.981 31.8988C245.314 32.3338 244.797 32.8578 244.43 33.4707C244.062 34.0836 243.879 34.7701 243.879 35.5317C243.879 36.2933 244.029 37.0007 244.327 37.6539C244.628 38.3071 245.035 38.8783 245.552 39.3689C246.069 39.8595 246.675 40.2403 247.368 40.5113C248.063 40.7837 248.818 40.9199 249.634 40.9199ZM249.471 42.104C248.491 42.104 247.58 41.933 246.736 41.5925C245.892 41.2534 245.157 40.7906 244.532 40.2055C243.906 39.6204 243.416 38.9339 243.063 38.1445C242.708 37.3551 242.532 36.4976 242.532 35.572C242.532 34.6742 242.749 33.8515 243.185 33.1038C243.62 32.3547 244.226 31.7084 245.001 31.165C245.777 30.6202 246.701 30.1991 247.777 29.8989C248.851 29.6001 250.028 29.45 251.308 29.45C252.505 29.45 253.71 29.5459 254.92 29.7363C256.131 29.9267 257.227 30.2116 258.206 30.5924V28.3076C258.206 26.1841 257.601 24.4899 256.389 23.2252C255.179 21.9605 253.553 21.3268 251.511 21.3268C250.477 21.3268 249.375 21.5519 248.205 22.0008C247.035 22.4497 245.865 23.096 244.696 23.9396L244.043 22.9195C246.762 21.0683 249.281 20.1427 251.593 20.1427C254.07 20.1427 256.022 20.8779 257.451 22.3483C258.88 23.8173 259.594 25.8311 259.594 28.3883V39.4912C259.594 40.0902 259.839 40.389 260.329 40.389V41.6954C260.247 41.7218 260.172 41.7357 260.104 41.7357H259.921C259.458 41.7357 259.07 41.5661 258.758 41.2256C258.445 40.8865 258.288 40.471 258.288 39.9818V38.1028C257.308 39.3828 256.043 40.3695 254.491 41.063C252.94 41.7565 251.267 42.104 249.471 42.104Z" fill="#778495"/>
<path d="M267.064 49.4512C267.989 49.4512 268.629 49.3553 268.984 49.1663C269.118 49.0843 269.262 48.9412 269.412 48.7369C269.56 48.5326 269.759 48.1657 270.004 47.6348C270.248 47.1039 270.575 46.3687 270.984 45.4306C271.392 44.4911 271.922 43.2472 272.575 41.6962L262.901 20.4702H264.371L273.31 40.2259L281.718 20.4702H283.107L270.984 48.88C270.601 49.8042 269.854 50.3907 268.738 50.6353C268.465 50.6895 268.194 50.7228 267.922 50.7367C267.65 50.7506 267.365 50.7576 267.064 50.7576V49.4512Z" fill="#778495"/>
<path d="M160.916 41.2027C160.624 41.4904 160.264 41.6363 159.849 41.6363C159.422 41.6377 159.062 41.4904 158.765 41.1944C158.474 40.9039 158.327 40.5412 158.327 40.1131C158.326 39.6684 158.485 39.2932 158.8 38.9971C159.091 38.722 159.442 38.5816 159.843 38.5802C160.263 38.5802 160.629 38.7303 160.922 39.0277C161.218 39.3223 161.366 39.6837 161.366 40.1076C161.368 40.5426 161.216 40.9039 160.916 41.2027ZM158.951 39.232C158.712 39.4794 158.588 39.7768 158.59 40.1131C158.59 40.4675 158.715 40.7663 158.964 41.0137C159.208 41.2611 159.503 41.382 159.849 41.382C160.198 41.3806 160.49 41.2569 160.737 41.0068C160.98 40.7622 161.105 40.4592 161.104 40.1076C161.104 39.7712 160.983 39.4766 160.738 39.2292C160.485 38.9763 160.194 38.8512 159.845 38.8512C159.499 38.8526 159.2 38.9791 158.951 39.232ZM159.18 40.9623L159.178 39.2681C159.283 39.2681 159.439 39.2681 159.647 39.2723H159.992C160.135 39.2751 160.237 39.3029 160.332 39.3543C160.481 39.4363 160.555 39.5697 160.555 39.7587C160.555 39.9005 160.519 40.0019 160.437 40.0673C160.358 40.1298 160.262 40.1632 160.142 40.1784C160.253 40.2021 160.334 40.2368 160.391 40.2785C160.492 40.3577 160.544 40.487 160.544 40.6607V40.8108C160.544 40.8261 160.548 40.8455 160.548 40.8511C160.548 40.8831 160.548 40.8914 160.558 40.9122L160.567 40.9595L160.143 40.9609C160.128 40.9039 160.118 40.8247 160.118 40.7274C160.109 40.6218 160.1 40.5509 160.091 40.5189C160.064 40.4578 160.023 40.4175 159.961 40.3925C159.925 40.3814 159.874 40.3702 159.81 40.3647L159.704 40.3591H159.618V40.9623H159.18ZM159.979 39.5906C159.924 39.5711 159.836 39.5628 159.72 39.5628H159.617V40.0548H159.786C159.897 40.0548 159.971 40.0339 160.031 39.9908C160.091 39.9533 160.117 39.8838 160.117 39.7893C160.117 39.6962 160.07 39.6309 159.979 39.5906Z" fill="#778495"/>
<path d="M96.9746 31.1438L101.457 19.7379L107.505 19.7268L109.018 31.1369L114.029 19.7143L121.967 19.7004L111.196 40.5804L104.484 40.5929L103.056 29.1564H102.952L98.4797 40.604L91.6587 40.6165L86.9376 19.7657L94.901 19.7504L96.9746 31.1438ZM157.595 24.9996C156.557 24.3895 155.034 23.9878 153.773 23.9906C152.919 23.992 151.402 24.3589 151.237 25.4165C151.013 26.8383 153.297 27.0384 154.281 27.2385C157.624 27.9265 159.969 29.5456 159.366 33.4078C158.504 38.9071 153.155 41.1947 148.324 41.203C145.36 41.2086 142.857 40.5206 140.579 38.9766L143.011 34.3973C144.352 35.4535 147.468 35.7495 149.296 35.7454C150.232 35.744 151.69 35.2951 151.862 34.1541C152.113 32.5252 149.811 32.4488 147.592 31.8429C145.368 31.2369 143.236 30.1029 143.818 26.3644C144.622 21.2444 149.605 18.961 154.154 18.9527C156.514 18.9485 158.811 19.3085 160.815 20.2813L157.595 24.9996ZM70.4326 30.2404C69.8544 33.3146 71.1316 35.4632 74.0766 35.4577C77.0187 35.4535 79.0923 33.6982 79.7371 30.2224C80.275 27.3177 79.0728 24.9565 76.1265 24.9621C73.1871 24.9676 71.0621 26.9161 70.4326 30.2404ZM87.3851 30.2085C86.2955 37.2908 79.9484 41.3323 73.39 41.3448C66.8664 41.3559 61.7076 37.3756 62.7999 30.2543C63.8895 23.1442 70.2283 19.1097 76.7922 19.0986C83.352 19.0861 88.465 23.0984 87.3851 30.2085ZM52.2154 45.3404L57.2408 13.1948L64.2842 13.1809L59.2602 45.3279L52.2154 45.3404ZM43.3347 40.7124L48.3573 8.57102L55.4035 8.55713L50.3753 40.6985L43.3347 40.7124ZM135.773 27.3581C135.694 25.0468 134.032 23.7835 131.978 23.7877C129.75 23.7919 127.672 24.9523 126.742 27.3747L135.773 27.3581ZM126.089 31.3537C125.603 34.3667 126.981 35.9927 130.126 35.9872C131.77 35.9844 133.114 35.4674 134.337 34.0623L141.436 34.0484C138.935 38.9307 133.808 41.2308 129.323 41.2392C122.193 41.2531 117.486 37.3533 118.647 30.1501C119.77 23.2012 125.362 19.0069 132.374 18.993C139.845 18.9791 143.593 23.4417 142.444 30.5587L142.315 31.3231L126.089 31.3537ZM37.0612 27.5429C36.9806 25.2331 35.3198 23.9684 33.2588 23.9726C31.0351 23.9767 28.9602 25.1372 28.0263 27.5596L37.0612 27.5429ZM27.3772 31.5385C26.8936 34.5529 28.2695 36.179 31.4173 36.172C33.0531 36.1692 34.3998 35.6522 35.6228 34.2472L42.7246 34.2347C40.2285 39.117 35.0989 41.4157 30.6085 41.424C23.472 41.4379 18.7717 37.5382 19.935 30.335C21.0607 23.3875 26.6476 19.1917 33.6577 19.1792C41.1347 19.1653 44.8829 23.6279 43.7294 30.7449L43.6071 31.5079L27.3772 31.5385ZM13.2766 15.9521L12.2968 21.7017L20.6841 21.6864L19.5806 28.0613L11.1863 28.078L8.96824 40.7764L0 40.7944L5.40485 9.40072L25.212 9.3632L24.1182 15.9313L13.2766 15.9521Z" fill="#778495"/>
<path d="M286.824 19.4245C286.532 19.7121 286.172 19.8581 285.757 19.8581C285.33 19.8595 284.97 19.7121 284.673 19.4161C284.382 19.1256 284.235 18.7629 284.235 18.3349C284.233 17.8901 284.393 17.5149 284.707 17.2189C284.999 16.9437 285.349 16.8033 285.751 16.8019C286.171 16.8019 286.536 16.952 286.829 17.2494C287.125 17.5441 287.274 17.9054 287.274 18.3293C287.276 18.7643 287.124 19.1256 286.824 19.4245ZM284.859 17.4537C284.62 17.7011 284.496 17.9985 284.497 18.3349C284.497 18.6893 284.622 18.9881 284.871 19.2354C285.116 19.4828 285.411 19.6037 285.757 19.6037C286.105 19.6023 286.397 19.4787 286.645 19.2285C286.888 18.9839 287.013 18.6809 287.012 18.3293C287.012 17.993 286.891 17.6983 286.646 17.451C286.393 17.198 286.101 17.0729 285.752 17.0729C285.406 17.0743 285.108 17.2008 284.859 17.4537ZM285.088 19.184L285.085 17.4899C285.191 17.4899 285.347 17.4899 285.555 17.494H285.9C286.043 17.4968 286.144 17.5246 286.24 17.576C286.389 17.658 286.463 17.7915 286.463 17.9805C286.463 18.1222 286.426 18.2237 286.344 18.289C286.265 18.3515 286.169 18.3849 286.05 18.4002C286.161 18.4238 286.242 18.4586 286.299 18.5003C286.4 18.5795 286.451 18.7087 286.451 18.8824V19.0325C286.451 19.0478 286.456 19.0673 286.456 19.0728C286.456 19.1048 286.456 19.1131 286.465 19.134L286.475 19.1812L286.051 19.1826C286.036 19.1256 286.026 19.0464 286.026 18.9491C286.016 18.8435 286.008 18.7726 285.998 18.7407C285.972 18.6795 285.93 18.6392 285.869 18.6142C285.833 18.6031 285.782 18.592 285.718 18.5864L285.612 18.5809H285.526V19.184H285.088ZM285.887 17.8123C285.832 17.7929 285.744 17.7845 285.627 17.7845H285.524V18.2765H285.694C285.805 18.2765 285.879 18.2556 285.939 18.2126C285.998 18.175 286.025 18.1056 286.025 18.011C286.025 17.9179 285.978 17.8526 285.887 17.8123Z" fill="#778495"/>
</g>
<defs>
<clipPath id="clip0_20_146">
<rect width="287.274" height="50.7576" fill="white"/>
</clipPath>
</defs>
</svg>
