<svg width="245" height="42" viewBox="0 0 245 42" fill="none" xmlns="http://www.w3.org/2000/svg">
<g clip-path="url(#clip0_20_31)">
<path d="M154.554 40.77C154.448 40.77 154.343 40.7369 154.253 40.6681C148.582 36.3161 145.328 29.795 145.328 22.7729C145.328 10.2166 155.825 0 168.726 0C175.734 0 182.317 3.02107 186.783 8.28695C186.954 8.48927 186.924 8.78794 186.716 8.95309C186.51 9.12101 186.203 9.09073 186.032 8.88978C181.751 3.84137 175.445 0.946922 168.726 0.946922C156.361 0.946922 146.301 10.7382 146.301 22.7729C146.301 29.5019 149.419 35.7532 154.855 39.9249C155.066 40.0859 155.103 40.3846 154.936 40.5897C154.841 40.708 154.698 40.77 154.554 40.77Z" fill="#4596D9"/>
<path d="M155.308 36.5282C155.185 36.5282 155.062 36.4828 154.968 36.392C151.185 32.7708 149.102 27.9343 149.102 22.7731C149.102 12.2413 157.906 3.67358 168.727 3.67358C172.845 3.67358 176.787 4.90128 180.126 7.22317C180.345 7.37594 180.395 7.67185 180.239 7.88381C180.082 8.09714 179.778 8.14669 179.56 7.99392C176.387 5.78627 172.641 4.62051 168.727 4.62051C158.442 4.62051 150.075 12.7629 150.075 22.7731C150.075 27.6783 152.055 32.2753 155.649 35.7175C155.842 35.9006 155.844 36.2006 155.655 36.3865C155.56 36.4814 155.434 36.5282 155.308 36.5282Z" fill="#4596D9"/>
<path d="M156.278 32.0584C156.128 32.0584 155.98 31.9909 155.884 31.8643C153.898 29.2093 152.849 26.0658 152.849 22.7736C152.849 18.1436 154.954 13.7971 158.627 10.8476C158.835 10.681 159.14 10.7099 159.311 10.9109C159.482 11.1132 159.453 11.4119 159.246 11.5784C155.799 14.3476 153.822 18.4271 153.822 22.7736C153.822 25.8648 154.806 28.8157 156.671 31.3055C156.83 31.5175 156.782 31.8134 156.564 31.9675C156.477 32.0295 156.377 32.0584 156.278 32.0584Z" fill="#4596D9"/>
<path d="M176.245 25.2132L170.45 12.0072L164.62 25.2132H176.245ZM169.93 10.5208H170.971L181.555 34.5021H180.271L176.627 26.2262H164.274L160.629 34.5021H159.31L169.93 10.5208Z" fill="#59595C"/>
<path d="M193.076 18.0191C191.411 18.0866 189.965 18.5986 188.739 19.5565C187.512 20.5131 186.656 21.8137 186.171 23.4571V34.5022H184.991V16.9387H186.136V21.3967C186.761 20.1594 187.594 19.145 188.635 18.3564C189.675 17.5691 190.786 17.1066 191.966 16.9718C192.197 16.9497 192.412 16.9387 192.608 16.9387H193.076V18.0191Z" fill="#59595C"/>
<path d="M204.563 18.0191C202.897 18.0866 201.452 18.5986 200.226 19.5565C198.999 20.5131 198.143 21.8137 197.657 23.4571V34.5022H196.477V16.9387H197.623V21.3967C198.248 20.1594 199.081 19.145 200.121 18.3564C201.162 17.5691 202.272 17.1066 203.453 16.9718C203.684 16.9497 203.899 16.9387 204.095 16.9387H204.563V18.0191Z" fill="#59595C"/>
<path d="M212.233 33.8601C213.088 33.8601 213.951 33.7486 214.818 33.5229C215.686 33.2972 216.467 32.9875 217.161 32.5939C217.855 32.2002 218.421 31.7446 218.861 31.2258C219.3 30.7083 219.521 30.1563 219.521 29.57V26.2599C217.715 25.5855 215.795 25.2469 213.76 25.2469C212.811 25.2469 211.943 25.3488 211.157 25.5511C210.37 25.7534 209.694 26.0356 209.127 26.3948C208.56 26.7554 208.121 27.189 207.808 27.6955C207.495 28.2033 207.34 28.7718 207.34 29.4021C207.34 30.0325 207.467 30.6174 207.722 31.1583C207.976 31.6992 208.323 32.1713 208.763 32.5773C209.201 32.982 209.717 33.2972 210.307 33.5229C210.896 33.7486 211.538 33.8601 212.233 33.8601ZM212.094 34.84C211.261 34.84 210.486 34.6997 209.769 34.4175C209.051 34.1367 208.427 33.7541 207.894 33.2696C207.363 32.7852 206.945 32.2167 206.646 31.563C206.344 30.9106 206.195 30.2018 206.195 29.4351C206.195 28.6919 206.38 28.012 206.75 27.3927C207.119 26.7733 207.635 26.2379 208.294 25.7878C208.953 25.3378 209.74 24.9882 210.653 24.7404C211.567 24.4941 212.568 24.3688 213.655 24.3688C214.673 24.3688 215.697 24.4487 216.727 24.6056C217.756 24.7638 218.688 24.9992 219.521 25.3144V23.4233C219.521 21.6671 219.006 20.266 217.977 19.2186C216.947 18.1712 215.564 17.6482 213.829 17.6482C212.95 17.6482 212.014 17.834 211.018 18.2056C210.024 18.5772 209.028 19.1112 208.034 19.809L207.479 18.9653C209.792 17.4335 211.932 16.6682 213.899 16.6682C216.004 16.6682 217.664 17.2766 218.879 18.4919C220.092 19.7085 220.7 21.3753 220.7 23.4907V32.6778C220.7 33.1733 220.908 33.421 221.325 33.421V34.5015C221.256 34.5249 221.193 34.5359 221.135 34.5359H220.978C220.584 34.5359 220.255 34.3955 219.989 34.1133C219.723 33.8326 219.59 33.4885 219.59 33.0838V31.5299C218.757 32.5883 217.681 33.4045 216.362 33.9784C215.044 34.5524 213.621 34.84 212.094 34.84Z" fill="#59595C"/>
<path d="M227.052 40.9196C227.838 40.9196 228.382 40.8411 228.684 40.6829C228.798 40.6154 228.92 40.4971 229.047 40.3291C229.174 40.1599 229.343 39.8557 229.55 39.4166C229.758 38.9776 230.037 38.3692 230.383 37.593C230.731 36.8153 231.182 35.7858 231.737 34.5017L223.512 16.9382H224.761L232.362 33.2864L239.51 16.9382H240.691L230.383 40.4461C230.06 41.2114 229.423 41.6958 228.474 41.8995C228.244 41.9436 228.012 41.9725 227.78 41.9835C227.55 41.9945 227.306 42 227.052 42V40.9196Z" fill="#59595C"/>
<path d="M136.807 34.0939C136.558 34.332 136.253 34.4532 135.9 34.4532C135.537 34.4545 135.23 34.332 134.978 34.087C134.731 33.8462 134.607 33.5475 134.605 33.1924C134.605 32.8249 134.741 32.5153 135.007 32.2689C135.256 32.0418 135.554 31.9248 135.895 31.9248C136.251 31.9234 136.562 32.0487 136.811 32.295C137.063 32.5387 137.19 32.8373 137.19 33.1883C137.192 33.5475 137.063 33.8476 136.807 34.0939ZM135.137 32.4643C134.933 32.668 134.829 32.9144 134.829 33.1924C134.83 33.487 134.936 33.7333 135.147 33.9384C135.355 34.1421 135.606 34.2426 135.9 34.2426C136.196 34.2426 136.445 34.1393 136.656 33.9329C136.862 33.7292 136.967 33.4787 136.967 33.1883C136.967 32.9103 136.863 32.6667 136.657 32.4616C136.441 32.2524 136.192 32.1478 135.896 32.1492C135.602 32.1492 135.348 32.2538 135.137 32.4643ZM135.332 33.8957L135.329 32.4932C135.418 32.4932 135.551 32.4932 135.728 32.4974L136.021 32.496C136.144 32.4987 136.23 32.5221 136.311 32.5648C136.438 32.6323 136.5 32.7437 136.5 32.8993C136.5 33.0163 136.469 33.1016 136.4 33.1553C136.333 33.2062 136.25 33.2351 136.148 33.2461C136.244 33.2667 136.312 33.2957 136.36 33.3287C136.446 33.3947 136.49 33.5021 136.49 33.6452L136.492 33.7691C136.492 33.7829 136.494 33.798 136.494 33.8035C136.494 33.8297 136.494 33.8366 136.501 33.8531L136.51 33.893L136.149 33.8944C136.138 33.8462 136.13 33.7815 136.13 33.7017C136.121 33.6136 136.114 33.5558 136.105 33.5283C136.083 33.4773 136.048 33.4443 135.995 33.4236C135.964 33.414 135.922 33.4058 135.866 33.4016L135.776 33.3961H135.702L135.704 33.8944L135.332 33.8957ZM136.011 32.7603C135.963 32.7451 135.889 32.7369 135.79 32.7369H135.702V33.1443H135.847C135.941 33.1443 136.004 33.1264 136.055 33.0906C136.105 33.0603 136.128 33.0025 136.128 32.9254C136.128 32.847 136.089 32.7933 136.011 32.7603Z" fill="#211F21"/>
<path d="M82.4452 25.7701L86.2562 16.3326L91.3979 16.3243L92.6848 25.7646L96.9441 16.3133L103.694 16.3009L94.5372 33.5795L88.8299 33.5891L87.6166 24.1254H87.5261L83.725 33.5988L77.9271 33.6098L73.9111 16.356L80.6832 16.3436L82.4452 25.7701ZM133.984 20.6859C133.101 20.1822 131.806 19.8491 130.734 19.8519C130.009 19.8533 128.719 20.1574 128.579 21.0314C128.388 22.2082 130.328 22.3733 131.167 22.5385C134.008 23.1083 136.002 24.4489 135.49 27.6447C134.756 32.1949 130.209 34.0874 126.102 34.0942C123.582 34.0998 121.453 33.5299 119.517 32.2513L121.585 28.4623C122.725 29.3376 125.373 29.5812 126.927 29.5785C127.723 29.5771 128.962 29.2055 129.109 28.2613C129.323 26.9139 127.367 26.8506 125.478 26.3496C123.589 25.8486 121.776 24.9099 122.271 21.8159C122.954 17.5795 127.19 15.6898 131.058 15.6829C133.065 15.6788 135.017 15.9775 136.721 16.7826L133.984 20.6859ZM59.8803 25.0228C59.3896 27.5676 60.4743 29.3459 62.9786 29.3404C65.4788 29.3362 67.2436 27.8842 67.7894 25.009C68.2476 22.6059 67.2266 20.6502 64.7208 20.6557C62.2221 20.6598 60.4149 22.2729 59.8803 25.0228ZM74.2929 24.9966C73.3667 30.8571 67.9704 34.2016 62.3946 34.2112C56.8485 34.2209 52.4619 30.9273 53.391 25.0352C54.3172 19.1513 59.7064 15.8137 65.2865 15.8027C70.8637 15.793 75.2106 19.1128 74.2929 24.9966ZM44.393 37.5186L48.665 10.918L54.6538 10.907L50.3818 37.5076L44.393 37.5186ZM36.8417 33.6882L41.1123 7.09182L47.1025 7.08081L42.829 33.6772L36.8417 33.6882ZM115.431 22.6376C115.364 20.7259 113.95 19.6798 112.204 19.684C110.31 19.6867 108.544 20.6474 107.752 22.6514L115.431 22.6376ZM107.198 25.9436C106.785 28.4375 107.956 29.7835 110.63 29.778C112.028 29.7767 113.171 29.3486 114.21 28.1856L120.246 28.1746C118.119 32.2142 113.761 34.1176 109.948 34.1245C103.886 34.1355 99.884 30.908 100.871 24.9485C101.826 19.1981 106.58 15.727 112.54 15.716C118.892 15.705 122.08 19.3977 121.101 25.287L120.992 25.9188L107.198 25.9436ZM31.5091 22.7917C31.4398 20.88 30.0285 19.834 28.2765 19.8367C26.3858 19.8409 24.6224 20.8002 23.8277 22.8055L31.5091 22.7917ZM23.2762 26.0977C22.8647 28.5916 24.0341 29.9363 26.7111 29.9322C28.1011 29.9294 29.2465 29.5014 30.2859 28.3398L36.3241 28.3288C34.2016 32.3683 29.8405 34.2704 26.0224 34.2773C19.9545 34.2883 15.9596 31.0622 16.9481 25.1012C17.9054 19.3523 22.654 15.8811 28.6159 15.8701C34.9723 15.8591 38.1582 19.5518 37.1783 25.4398L37.0736 26.0716L23.2762 26.0977ZM11.2874 13.2L10.4545 17.958L17.5858 17.9443L16.6469 23.2198L9.50986 23.2335L7.62486 33.7419L0 33.7557L4.59585 7.77862L21.435 7.74833L20.5045 13.1835L11.2874 13.2Z" fill="#211F21"/>
<path d="M244.506 13.7123C244.185 14.0193 243.791 14.1748 243.336 14.1748C242.868 14.1762 242.472 14.0179 242.146 13.7027C241.828 13.3916 241.666 13.0063 241.666 12.5479C241.664 12.0745 241.841 11.674 242.185 11.3574C242.506 11.0629 242.889 10.9129 243.33 10.9129C243.79 10.9115 244.19 11.0725 244.512 11.3904C244.836 11.7042 244.999 12.0896 245 12.5424C245.001 13.0063 244.836 13.393 244.506 13.7123ZM242.35 11.6079C242.088 11.8722 241.953 12.1887 241.954 12.5479C241.954 12.9278 242.091 13.2458 242.364 13.51C242.633 13.7729 242.957 13.9036 243.336 13.9023C243.717 13.9023 244.037 13.7688 244.31 13.5031C244.577 13.2402 244.713 12.9168 244.712 12.5424C244.712 12.1846 244.579 11.8694 244.311 11.6052C244.033 11.334 243.713 11.2005 243.33 11.2019C242.951 11.2019 242.623 11.3368 242.35 11.6079ZM242.602 13.455L242.599 11.6464C242.713 11.6464 242.886 11.6464 243.114 11.6506H243.491C243.65 11.6533 243.761 11.6836 243.866 11.7387C244.029 11.8267 244.109 11.9685 244.109 12.1695C244.111 12.3208 244.07 12.4296 243.979 12.4998C243.894 12.5658 243.787 12.603 243.657 12.6181C243.778 12.6429 243.867 12.6801 243.93 12.7241C244.041 12.8094 244.098 12.9471 244.098 13.1329V13.2925C244.098 13.3091 244.102 13.3297 244.102 13.3366C244.102 13.371 244.102 13.3793 244.112 13.4013L244.123 13.4522L243.658 13.4536C243.642 13.3916 243.631 13.3091 243.631 13.2045C243.62 13.0902 243.611 13.0159 243.601 12.9815C243.572 12.9154 243.525 12.8728 243.459 12.8466C243.419 12.8342 243.362 12.8232 243.293 12.8177L243.176 12.8108H243.081L243.082 13.4536L242.602 13.455ZM243.478 11.9905C243.418 11.9699 243.321 11.9602 243.194 11.9602H243.08L243.081 12.486H243.266C243.388 12.486 243.469 12.464 243.535 12.4172C243.6 12.3787 243.63 12.303 243.63 12.2025C243.628 12.102 243.579 12.0332 243.478 11.9905Z" fill="#59595C"/>
</g>
<defs>
<clipPath id="clip0_20_31">
<rect width="245" height="42" fill="white"/>
</clipPath>
</defs>
</svg>
