<svg width="58" height="58" viewBox="0 0 58 58" fill="none" xmlns="http://www.w3.org/2000/svg">
<path d="M55.2837 9.06255H18.0738C17.8361 6.9961 16.8177 5.09844 15.2272 3.75796C13.6365 2.41729 11.5939 1.73512 9.51707 1.85107C7.44004 1.9668 5.48598 2.87172 4.05396 4.38064C2.62227 5.88975 1.8212 7.88858 1.81458 9.96894V48.0314C1.81703 50.1938 2.67704 52.267 4.20611 53.7962C5.73518 55.3253 7.80844 56.1853 9.97083 56.1877H55.2833C55.5237 56.1877 55.7542 56.0922 55.9241 55.9222C56.0941 55.7523 56.1896 55.5218 56.1896 55.2814V9.96893C56.1896 9.72858 56.0941 9.49806 55.9241 9.32813C55.7542 9.15821 55.5237 9.06267 55.2833 9.06267L55.2837 9.06255ZM3.625 9.9688C3.625 7.7024 4.8341 5.60821 6.79687 4.47523C8.75964 3.34186 11.1779 3.34186 13.1406 4.47523C15.1034 5.6084 16.3125 7.70259 16.3125 9.9688V42.9099C15.2911 41.6425 13.9134 40.71 12.3569 40.2327C10.8006 39.7556 9.13688 39.7556 7.5806 40.2327C6.02412 40.71 4.64643 41.6425 3.625 42.9099V9.9688ZM54.375 54.375H9.96875C8.28631 54.375 6.67266 53.7067 5.48298 52.5171C4.29335 51.3274 3.625 49.7137 3.625 48.0313C3.625 46.3489 4.29335 44.7352 5.48298 43.5455C6.67261 42.3559 8.28631 41.6875 9.96875 41.6875C11.6512 41.6875 13.2648 42.3559 14.4545 43.5455C15.6441 44.7352 16.3125 46.3489 16.3125 48.0313C16.3125 48.3551 16.4852 48.6542 16.7656 48.8161C17.046 48.9779 17.3915 48.9779 17.6719 48.8161C17.9522 48.6541 18.125 48.3551 18.125 48.0313V10.875H54.375V54.375Z" fill="#778495"/>
<path d="M22.6562 50.75H49.8438C50.0841 50.75 50.3146 50.6545 50.4846 50.4846C50.6545 50.3147 50.75 50.0841 50.75 49.8438V29.9063H48.9375V34.4375H31.7188V36.25H38.0625V40.7813H39.875V36.25H48.9375V48.9375H39.875V44.4063H38.0625V48.9375H23.5625V36.25H28.0938V34.4375H23.5625V21.75H42.5938C42.8341 21.75 43.0646 21.6545 43.2346 21.4846C43.4045 21.3146 43.5 21.0841 43.5 20.8438V16.3125H48.9375V26.2813H50.75V15.4063C50.75 15.1659 50.6545 14.9354 50.4846 14.7655C50.3146 14.5955 50.0841 14.5 49.8438 14.5H22.6563C22.4159 14.5 22.1854 14.5955 22.0155 14.7655C21.8455 14.9354 21.75 15.1659 21.75 15.4063V49.8438C21.75 50.0841 21.8455 50.3146 22.0155 50.4846C22.1854 50.6545 22.4159 50.75 22.6562 50.75ZM34.4375 19.9375H32.625V16.3125H34.4375V19.9375ZM36.25 16.3125H38.0625V19.9375H36.25V16.3125ZM30.8125 19.9375H29V16.3125H30.8125V19.9375ZM41.6875 19.9375H39.875V16.3125H41.6875V19.9375ZM23.5625 16.3125H27.1875V19.9375H23.5625V16.3125Z" fill="#778495"/>
</svg>
