<svg width="21" height="16" viewBox="0 0 21 16" fill="none" xmlns="http://www.w3.org/2000/svg">
<path d="M17.8883 0.404113C18.0137 0.276166 18.1633 0.174522 18.3285 0.105132C18.4937 0.0357414 18.671 0 18.8502 0C19.0293 0 19.2067 0.0357414 19.3718 0.105132C19.537 0.174522 19.6867 0.276166 19.8121 0.404113C20.3376 0.93513 20.3449 1.79321 19.8304 2.33341L8.96572 15.177C8.84237 15.3125 8.69267 15.4214 8.5258 15.497C8.35892 15.5726 8.17838 15.6134 7.9952 15.6168C7.81203 15.6203 7.63008 15.5863 7.46048 15.517C7.29088 15.4477 7.13721 15.3445 7.00886 15.2138L0.397789 8.51452C0.142822 8.2545 0 7.90486 0 7.54069C0 7.17652 0.142822 6.82687 0.397789 6.56685C0.523186 6.4389 0.672849 6.33726 0.838015 6.26787C1.00318 6.19848 1.18053 6.16274 1.35968 6.16274C1.53883 6.16274 1.71618 6.19848 1.88135 6.26787C2.04652 6.33726 2.19618 6.4389 2.32158 6.56685L7.92941 12.25L17.8515 0.444537L17.8883 0.404113Z" fill="#4596D9"/>
</svg>
