<svg width="62" height="62" viewBox="0 0 62 62" fill="none" xmlns="http://www.w3.org/2000/svg">
<g clip-path="url(#clip0_20_86)">
<path d="M60.0624 26.6403H58.2678C57.9703 24.7603 57.4765 22.9168 56.7943 21.1398L58.3467 20.2425C58.7919 19.9858 59.1166 19.5626 59.2497 19.0661C59.3825 18.5696 59.3126 18.0408 59.0553 17.596L56.6339 13.4027L56.6341 13.4025C56.3771 12.9577 55.9541 12.6332 55.458 12.5C54.9619 12.367 54.4334 12.4364 53.9884 12.6931L52.4297 13.5919C51.2325 12.1149 49.8845 10.7669 48.4075 9.56971L49.3063 8.01165L49.3065 8.01145C49.563 7.56663 49.6326 7.03784 49.4994 6.54179C49.3664 6.04571 49.0417 5.62269 48.5969 5.36596L44.4036 2.94408C43.9588 2.68676 43.4298 2.61673 42.9333 2.74973C42.4368 2.88253 42.0136 3.20746 41.7569 3.65271L40.8596 5.20514C39.0827 4.52298 37.2393 4.0291 35.3591 3.7316V1.93701C35.3585 1.42337 35.1543 0.9307 34.791 0.567638C34.4279 0.20436 33.9353 0.000131719 33.4216 -0.000488281H28.5779C28.0642 0.0001172 27.5716 0.20436 27.2085 0.567638C26.8452 0.930716 26.641 1.42334 26.6404 1.93701V3.7316C24.7604 4.02909 22.917 4.52293 21.1399 5.20514L20.2426 3.65271C19.9859 3.20749 19.5627 2.88256 19.0662 2.74973C18.5697 2.61673 18.0409 2.68676 17.5961 2.94408L13.4029 5.36555L13.4027 5.36534C12.9578 5.62227 12.6333 6.04528 12.5001 6.54138C12.3671 7.03746 12.4365 7.56603 12.6932 8.01104L13.592 9.56972C12.115 10.7669 10.7671 12.1149 9.56983 13.5919L8.01157 12.6931C7.56675 12.4364 7.03796 12.3668 6.54191 12.5C6.04583 12.633 5.62281 12.9577 5.36608 13.4025L2.9442 17.5954C2.68688 18.0404 2.61685 18.5694 2.74985 19.0659C2.88265 19.5624 3.20759 19.9856 3.65283 20.2425L5.20526 21.1398C4.5231 22.9167 4.02922 24.7601 3.73172 26.6402H1.93713C1.42349 26.6408 0.930822 26.8451 0.56776 27.2083C0.204482 27.5714 0.000253789 28.064 -0.000366211 28.5777V33.4215C0.000239271 33.9351 0.204482 34.4278 0.56776 34.7908C0.930838 35.1541 1.42346 35.3583 1.93713 35.359H3.73172C4.02921 37.239 4.52305 39.0824 5.20526 40.8594L3.65283 41.7567C3.20761 42.0134 2.88269 42.4366 2.74985 42.9331C2.61685 43.4296 2.68688 43.9584 2.9442 44.4034L5.36567 48.5967H5.36546C5.62239 49.0415 6.0454 49.3661 6.5415 49.4993C7.03758 49.6323 7.56615 49.5628 8.01116 49.3061L9.56984 48.4074C10.7671 49.8843 12.115 51.2323 13.592 52.4295L12.6932 53.9876L12.693 53.9878C12.4365 54.4326 12.3669 54.9614 12.5001 55.4574C12.6331 55.9535 12.9578 56.3765 13.4027 56.6333L17.5959 59.0551C18.0407 59.3125 18.5697 59.3825 19.0662 59.2495C19.5627 59.1167 19.9859 58.7918 20.2427 58.3465L21.14 56.7941C22.9168 57.4762 24.7602 57.9701 26.6404 58.2676V60.0622C26.641 60.5759 26.8452 61.0685 27.2085 61.4316C27.5716 61.7949 28.0642 61.9991 28.5779 61.9997H33.4216C33.9353 61.9991 34.428 61.7949 34.791 61.4316C35.1543 61.0685 35.3585 60.5759 35.3591 60.0622V58.2676C37.2391 57.9701 39.0826 57.4763 40.8596 56.7941L41.7569 58.3465C42.0136 58.7917 42.4368 59.1167 42.9333 59.2495C43.4298 59.3825 43.9586 59.3125 44.4034 59.0551L48.5967 56.6337L48.5969 56.6339C49.0417 56.377 49.3662 55.9539 49.4994 55.4578C49.6324 54.9618 49.563 54.4332 49.3063 53.9882L48.4075 52.4295C49.8845 51.2323 51.2325 49.8843 52.4297 48.4074L53.9877 49.3061L53.9879 49.3063C54.4328 49.5628 54.9615 49.6325 55.4576 49.4992C55.9537 49.3662 56.3767 49.0415 56.6334 48.5967L59.0553 44.4034C59.3126 43.9584 59.3827 43.4296 59.2497 42.9331C59.1169 42.4367 58.7919 42.0134 58.3467 41.7567L56.7942 40.8594C57.4764 39.0825 57.9703 37.2391 58.2678 35.359H60.0624C60.576 35.3584 61.0687 35.1541 61.4317 34.7908C61.795 34.4278 61.9993 33.9351 61.9999 33.4215V28.5777C61.9993 28.0641 61.795 27.5714 61.4317 27.2083C61.0687 26.8451 60.576 26.6409 60.0624 26.6403ZM60.0624 33.4215H57.4272C57.1912 33.4215 56.9636 33.5075 56.7866 33.6635C56.6096 33.8195 56.4956 34.0346 56.4659 34.2688C56.1779 36.5504 55.5801 38.7821 54.6888 40.9023C54.5974 41.1198 54.5883 41.3632 54.6636 41.5866C54.7389 41.8102 54.8933 41.9988 55.0975 42.1166L57.3779 43.4345L54.9561 47.6278L52.6704 46.3095C52.4664 46.1918 52.2264 46.1527 51.9954 46.1991C51.7645 46.2455 51.5584 46.3747 51.4155 46.562C50.0245 48.3915 48.392 50.0242 46.5622 51.4152C46.3748 51.5579 46.2458 51.764 46.1992 51.9951C46.1528 52.2262 46.1921 52.4661 46.3098 52.6701L47.6281 54.9558L43.4342 57.3777L42.1169 55.0972C41.9986 54.8932 41.8103 54.7392 41.5867 54.6639C41.3633 54.5886 41.1201 54.5975 40.9025 54.6885C38.7824 55.5798 36.5507 56.1776 34.2691 56.4656C34.035 56.4953 33.8198 56.6093 33.6638 56.7863C33.5078 56.9633 33.4218 57.191 33.4218 57.4269V60.0621H28.578V57.4269C28.578 57.1909 28.4921 56.9633 28.3361 56.7863C28.1801 56.6093 27.9649 56.4953 27.7308 56.4656C25.4492 56.1776 23.2174 55.5798 21.0973 54.6885C20.8797 54.5971 20.6365 54.5882 20.4129 54.6635C20.1893 54.7388 20.001 54.893 19.8829 55.0972L18.565 57.3776L14.3718 54.9558L15.6901 52.6701C15.8079 52.4661 15.8471 52.2261 15.8007 51.9951C15.7541 51.764 15.6251 51.5579 15.4376 51.4152C13.6081 50.0242 11.9753 48.3917 10.5843 46.562C10.4415 46.3747 10.2354 46.2455 10.0045 46.1991C9.7734 46.1527 9.53343 46.1918 9.32941 46.3095L7.04378 47.6278L4.6219 43.4339L6.90232 42.1166C7.10656 41.9988 7.26096 41.8103 7.33623 41.5866C7.41151 41.3632 7.40243 41.1198 7.31101 40.9022C6.41976 38.7821 5.82197 36.5504 5.53393 34.2688C5.50426 34.0347 5.39024 33.8195 5.21324 33.6635C5.03624 33.5075 4.80858 33.4215 4.57267 33.4215H1.93747V28.5778H4.57267C4.8086 28.5778 5.03626 28.4918 5.21324 28.3358C5.39024 28.1798 5.50426 27.9646 5.53393 27.7305C5.82193 25.4489 6.41991 23.2171 7.31101 21.097C7.40243 20.8794 7.41151 20.636 7.33623 20.4126C7.26096 20.189 7.10656 20.0005 6.90232 19.8826L4.6219 18.5647L7.04378 14.3715L9.32941 15.6898C9.53345 15.8074 9.77342 15.8468 10.0045 15.8004C10.2356 15.7538 10.4416 15.6248 10.5843 15.4373C11.9753 13.6076 13.6079 11.975 15.4376 10.584C15.6251 10.4414 15.7541 10.2351 15.8007 10.0042C15.8471 9.7731 15.8077 9.53313 15.6901 9.32911L14.3718 7.04348L18.5656 4.62161L19.8829 6.90202C20.001 7.10626 20.1893 7.26046 20.4129 7.33573C20.6365 7.41081 20.8797 7.40193 21.0973 7.31071C23.2174 6.41946 25.4492 5.82167 27.7308 5.53363C27.9649 5.50397 28.18 5.38994 28.3361 5.21294C28.4921 5.03594 28.578 4.80828 28.578 4.57237V1.93717H33.4218V4.57237C33.4218 4.80831 33.5078 5.03596 33.6638 5.21294C33.8198 5.38994 34.0349 5.50397 34.2691 5.53363C36.5507 5.82163 38.7824 6.41961 40.9025 7.31071C41.1201 7.40173 41.3633 7.41041 41.5867 7.33513C41.8101 7.26005 41.9986 7.10606 42.1169 6.90202L43.4348 4.62161L47.6281 7.04348L46.3098 9.32911C46.1921 9.53315 46.1527 9.77312 46.1992 10.0042C46.2458 10.2353 46.3748 10.4413 46.5622 10.584C48.392 11.975 50.0245 13.6076 51.4155 15.4373C51.5582 15.6248 51.7645 15.7538 51.9954 15.8004C52.2265 15.8468 52.4664 15.8074 52.6704 15.6898L54.9561 14.3715L57.3779 18.5653L55.0975 19.8826C54.8933 20.0005 54.7389 20.189 54.6636 20.4126C54.5883 20.636 54.5974 20.8794 54.6888 21.097C55.5801 23.2171 56.1779 25.4489 56.4659 27.7305C56.4956 27.9646 56.6096 28.1797 56.7866 28.3358C56.9636 28.4918 57.1913 28.5778 57.4272 28.5778H60.0624V33.4215Z" fill="#778495"/>
<path d="M31 8.71875C25.928 8.71774 21.0072 10.4478 17.0521 13.6224C13.0965 16.7973 10.3427 21.2267 9.24577 26.179C8.14904 31.1309 8.77512 36.3093 11.0204 40.857C13.2657 45.4047 16.9957 49.0508 21.594 51.1913C21.6521 51.2254 21.7137 51.2535 21.7777 51.2745C23.4831 52.0535 25.2807 52.6122 27.1272 52.9371C27.1678 52.9472 27.2092 52.9545 27.2507 52.9591C31.3161 53.6536 35.4942 53.2059 39.3201 51.6663C43.146 50.1263 46.4697 47.5549 48.9203 44.2381C51.3712 40.9212 52.8534 36.9888 53.2015 32.8797C53.5499 28.7702 52.7506 24.6446 50.8928 20.9628C49.0351 17.2808 46.1918 14.1862 42.6799 12.0245C39.1676 9.86276 35.1242 8.71845 31.0001 8.71886L31 8.71875ZM22.8 32.7933C21.3537 32.3598 20.117 31.4104 19.3242 30.1256C18.5317 28.8406 18.2382 27.3094 18.4996 25.8224C18.7611 24.3354 19.5594 22.9961 20.7428 22.0586V26.0357C20.7428 26.2075 20.7885 26.3762 20.875 26.5245C20.9616 26.6727 21.0861 26.7954 21.2357 26.8797L24.2275 28.5665V28.5663C24.523 28.7328 24.8838 28.7328 25.1793 28.5663L28.1711 26.8795V26.8797C28.3207 26.7954 28.4452 26.6727 28.5318 26.5245C28.6184 26.3762 28.664 26.2075 28.664 26.0357V22.0586C29.8475 22.9961 30.6457 24.3353 30.9072 25.8224C31.1686 27.3094 30.8751 28.8406 30.0826 30.1254C29.2898 31.4104 28.0531 32.3598 26.6068 32.7933C26.4058 32.8561 26.2306 32.9829 26.1079 33.1544C25.9854 33.3258 25.922 33.5324 25.9277 33.7432L26.3679 50.8055H26.3677C25.2386 50.5434 24.1345 50.1845 23.067 49.7328L23.4792 33.7436V33.7434C23.4848 33.5329 23.4214 33.326 23.2989 33.1546C23.1762 32.9833 23.001 32.8565 22.8 32.7936L22.8 32.7933ZM39.6237 30.0966L38.3185 27.3772L39.5177 22.2814H40.8843L42.0871 27.5452L40.7939 30.0749V30.0751C40.7242 30.2115 40.6879 30.3627 40.6879 30.5158V39.7187H39.7191V30.5158C39.7191 30.3707 39.6865 30.2274 39.6237 30.0966ZM42.6254 41.6565V42.6253H37.7817V41.6565H42.6254ZM38.5452 44.5628H41.8619C42.0385 45.3083 42.3186 46.5182 42.5699 47.7205H42.5701C40.9674 48.8331 39.2128 49.7088 37.36 50.3203C37.5774 48.7284 38.2281 45.8988 38.545 44.5626L38.5452 44.5628ZM44.2693 46.4018C44.1167 45.7059 43.9664 45.0502 43.8437 44.5262C44.0495 44.4717 44.2316 44.3508 44.3615 44.1823C44.4915 44.0138 44.5623 43.8069 44.5627 43.594V40.6877C44.5627 40.4308 44.4606 40.1844 44.279 40.0027C44.0973 39.8211 43.8509 39.719 43.594 39.719H42.6252V30.7491L43.9724 28.1135C44.0757 27.9111 44.1046 27.6786 44.0541 27.457L42.601 21.0973C42.5522 20.8834 42.4321 20.6925 42.2605 20.5557C42.089 20.4188 41.8759 20.3444 41.6565 20.3444H38.7502C38.5319 20.3444 38.32 20.4182 38.1488 20.5539C37.9774 20.6893 37.8572 20.8788 37.8071 21.0913L36.354 27.267C36.3031 27.4823 36.3279 27.7086 36.4238 27.908L37.7815 30.7365V39.7193H36.8127C36.5558 39.7193 36.3094 39.8214 36.1277 40.003C35.9461 40.1847 35.8439 40.4311 35.8439 40.688V43.5943C35.8443 43.807 35.915 44.0137 36.045 44.1822C36.1749 44.3507 36.3568 44.4718 36.5625 44.5263C36.0426 46.5918 35.6415 48.6853 35.3614 50.7966C35.3598 50.821 35.3636 50.844 35.3638 50.868H35.364C33.0499 51.3813 30.6634 51.4807 28.3146 51.1615L27.8821 34.391C29.8616 33.5871 31.4439 32.0341 32.2843 30.0698C33.1249 28.1054 33.1557 25.8888 32.3703 23.9018C31.5848 21.9148 30.0466 20.3182 28.0902 19.4595C27.7905 19.3257 27.4433 19.3527 27.168 19.5313C26.8928 19.71 26.7265 20.0159 26.7265 20.3441V25.4702L24.7034 26.6107L22.6803 25.4702V20.3441C22.6803 20.0159 22.514 19.71 22.2387 19.5313C21.9635 19.3527 21.6163 19.3257 21.3166 19.4595C19.3601 20.3182 17.822 21.9148 17.0365 23.9018C16.251 25.8887 16.2819 28.1053 17.1225 30.0698C17.9629 32.0341 19.5452 33.5871 21.5247 34.391L21.1533 48.7941C17.359 46.6992 14.3328 43.4477 12.5146 39.5132C10.6968 35.5787 10.1824 31.1665 11.0464 26.9195C11.9102 22.6723 14.1074 18.812 17.3177 15.9C20.5283 12.9883 24.5841 11.1776 28.8957 10.7313C33.2068 10.2853 37.5478 11.2268 41.2864 13.4194C45.0251 15.6118 47.9664 18.9404 49.6817 22.9203C51.397 26.9002 51.7972 31.3244 50.8236 35.5477C49.85 39.7712 47.5537 43.5736 44.2692 46.4013L44.2693 46.4018Z" fill="#778495"/>
</g>
<defs>
<clipPath id="clip0_20_86">
<rect width="62" height="62" fill="white"/>
</clipPath>
</defs>
</svg>
