<svg xmlns="http://www.w3.org/2000/svg" width="56.461" height="53.46" viewBox="0 0 56.461 53.46"><path d="M129.823,153.608a.738.738,0,0,0-.969-.5l-12.22,4.576a.735.735,0,0,0-.079,1.344l3.07,1.574-6.68,11.3a3.449,3.449,0,0,0-.019,3.477l5.781,10.016a4.31,4.31,0,0,0,3.724,2.15h8.051a.736.736,0,0,0,.736-.736V175.331a.734.734,0,0,0-.736-.736h-7.744l5.955-9.37.394.233,3.108,1.593a.738.738,0,0,0,1.048-.85Zm-.076,22.458v10h-7.315a2.838,2.838,0,0,1-2.448-1.414l-1.734-3,3.553-5.589Zm.054-11.9-.969-.575a.734.734,0,0,0-1,.239l-10.412,16.386-3.219-5.575a1.976,1.976,0,0,1,.011-1.99l7.079-11.97a.735.735,0,0,0-.3-1.029l-2.283-1.17,9.9-3.708,2.771,10.206-1.585-.812Zm-2.785-15.737,8.89,6.49a.745.745,0,0,0,.57.13.736.736,0,0,0,.483-.326l4.986-7.766,4.031,6.913-3.249,1.664a.735.735,0,0,0,.079,1.344l12.22,4.576a.709.709,0,0,0,.258.046.738.738,0,0,0,.711-.543l3.42-12.594a.738.738,0,0,0-1.048-.85L155.1,149.19l-5.3-9.093a3.462,3.462,0,0,0-2.975-1.71H134.369a2.815,2.815,0,0,0-2.408,1.352l-5.127,7.685a.735.735,0,0,0,.179,1Zm21.519-7.587,5.548,9.516.1.176a.737.737,0,0,0,.974.288l2.4-1.23-2.771,10.2-9.9-3.708,2.18-1.116.049-.027.266-.163c.022-.014.038-.03.057-.043s.038-.027.054-.041.035-.038.054-.06.03-.03.043-.049a.612.612,0,0,0,.043-.071.32.32,0,0,0,.03-.052c.011-.024.019-.052.03-.079s.014-.035.019-.054a.455.455,0,0,0,.014-.084.377.377,0,0,0,.008-.054.524.524,0,0,0,0-.092.3.3,0,0,0,0-.049.746.746,0,0,0-.024-.106l-.008-.035a.679.679,0,0,0-.062-.136l-5.016-8.6-3.1-5.315h7.317a1.977,1.977,0,0,1,1.7.98Zm-15.325-.315a1.358,1.358,0,0,1,1.162-.662h3.436l3.306,5.667-4.97,7.738-7.686-5.613,4.755-7.13Zm35.327,31.689-6.786-11.406a.74.74,0,0,0-1.012-.255l-10.285,6.17a.736.736,0,0,0-.25,1.015l5.646,9.288h-10.51l-.005-3.5a.736.736,0,0,0-1.232-.543l-9.647,8.789a.738.738,0,0,0-.242.543.728.728,0,0,0,.242.543l9.647,8.789a.741.741,0,0,0,.5.193.775.775,0,0,0,.3-.062.738.738,0,0,0,.44-.673v-2.3l-.014-1.265H159.35a3.452,3.452,0,0,0,2.983-1.724l4.432-7.676a.24.24,0,0,0,.016-.027l1.77-3.064a2.831,2.831,0,0,0-.011-2.839Zm-7.481,12.869a1.974,1.974,0,0,1-1.707.985H144.581a.737.737,0,0,0-.736.746l.022,2.622-7.817-7.119,7.817-7.119.008,2.57a.737.737,0,0,0,.736.733h20.249l-3.8,6.582Zm6.216-10.765-1.563,2.709h-8.132l-5.727-9.422,9.017-5.407,6.405,10.765a1.35,1.35,0,0,1,0,1.354Z" transform="translate(-112.466 -138.387)" fill="#657471"/></svg>