<svg xmlns="http://www.w3.org/2000/svg" xmlns:xlink="http://www.w3.org/1999/xlink" width="46.558" height="51.184" viewBox="0 0 46.558 51.184"><defs><clipPath id="a"><rect width="46.558" height="51.184" transform="translate(0 0)" fill="#657471" stroke="#657471" stroke-width="0.5"/></clipPath></defs><g transform="translate(0 0.002)"><g transform="translate(0 -0.002)" clip-path="url(#a)"><path d="M11.512,7.813a.521.521,0,1,1,.527.9A21.633,21.633,0,0,0,9.7,10.3a24.211,24.211,0,0,0-2.262,2,23.353,23.353,0,0,0-2.605,3.207,14.675,14.675,0,0,0,6.977-.64,11.3,11.3,0,0,0,4.556-2.947,9.571,9.571,0,0,0,2.388-4.737,11.857,11.857,0,0,0-.318-5.443C16.9,3.717,14.426,4.348,11.919,4.986,7.91,6.006,3.821,7.047,4.334,14.4a24.517,24.517,0,0,1,2.358-2.827l0,0a24.651,24.651,0,0,1,2.364-2.1,22.4,22.4,0,0,1,2.452-1.66Zm4.8,36.941,6.222-12.694-7,.006a.52.52,0,0,1-.521-.521.512.512,0,0,1,.066-.254h0L22.46,18.167a.52.52,0,0,1,.5-.265l6.522.023a.52.52,0,0,1,.521.521.526.526,0,0,1-.09.292l-5.731,8.377,6.847-.006a.522.522,0,0,1,.4.851L17.175,45.331a.521.521,0,0,1-.862-.576Zm7.523-12.988-4.628,9.442L29.923,28.151l-6.7.006a.515.515,0,0,1-.324-.09.521.521,0,0,1-.137-.723l5.733-8.382-5.272-.019-6.8,12.083,6.943-.006a.512.512,0,0,1,.228.053.517.517,0,0,1,.241.693ZM31.841,5.855,28,4.389a.521.521,0,1,1,.369-.975l3.841,1.468L33.271,2.11a.522.522,0,0,1,.672-.3l2.556.977a.523.523,0,0,1,.3.674l-.254.668,2.62,1a5.4,5.4,0,0,1,3.107,6.943l-.45,1.182c-.049.128-.1.252-.16.376A23.278,23.278,0,1,1,0,27.9,23.1,23.1,0,0,1,3.425,15.774c-1.195-9.4,3.57-10.611,8.238-11.8C14.315,3.3,16.931,2.633,18.128.288a.518.518,0,0,1,.292-.26.524.524,0,0,1,.668.316,13.377,13.377,0,0,1,.691,7.033,10.614,10.614,0,0,1-2.646,5.251,12.359,12.359,0,0,1-4.972,3.224,15.83,15.83,0,0,1-7.94.617,22.339,22.339,0,0,0-1.536,3.053A22.234,22.234,0,0,0,39,43.626a22.213,22.213,0,0,0,2.085-29.044,5.41,5.41,0,0,1-6.2,1.775l-2.622-1-.254.666a.522.522,0,0,1-.672.3l-2.556-.977a.522.522,0,0,1-.3-.672L29.532,11.9l-3.839-1.466a.521.521,0,0,1,.369-.975L29.9,10.932ZM36.177,5.1l-3.546,9.281,2.62,1a4.346,4.346,0,0,0,5.6-2.5L41.3,11.7a4.346,4.346,0,0,0-2.5-5.6ZM34.063,2.97,29.635,14.558l1.581.6.254-.666v0l4.171-10.92Z" transform="translate(0 0.003)" fill="#657471" fill-rule="evenodd"/><path d="M18.595-.253a.777.777,0,0,1,.728.511,13.609,13.609,0,0,1,.7,7.165A10.8,10.8,0,0,1,17.317,12.8a12.67,12.67,0,0,1-5.072,3.29,15.41,15.41,0,0,1-5.188.872,17.272,17.272,0,0,1-2.708-.217,22.155,22.155,0,0,0-1.432,2.874A21.986,21.986,0,0,0,23.278,49.888a21.978,21.978,0,0,0,17.8-34.9,5.686,5.686,0,0,1-4.292,1.969,5.567,5.567,0,0,1-1.993-.368L32.4,15.68l-.165.432a.777.777,0,0,1-.721.5.765.765,0,0,1-.273-.05l-2.557-.977a.772.772,0,0,1-.447-.995l.969-2.538L25.6,10.672a.771.771,0,1,1,.547-1.442l3.607,1.379L31.519,6,27.914,4.622a.771.771,0,1,1,.547-1.442l3.607,1.379.969-2.538a.777.777,0,0,1,.721-.5.765.765,0,0,1,.273.05l2.556.977a.775.775,0,0,1,.448,1l-.165.435,2.387.912a5.646,5.646,0,0,1,3.251,7.266l-.45,1.182c-.032.083-.066.167-.1.253A23.529,23.529,0,1,1,1.6,37.062,23.437,23.437,0,0,1,3.166,15.719a15.836,15.836,0,0,1,.143-5.644A7.079,7.079,0,0,1,5.168,6.62C6.842,4.944,9.262,4.328,11.6,3.733c2.652-.674,5.157-1.311,6.3-3.558a.762.762,0,0,1,.431-.382A.771.771,0,0,1,18.595-.253ZM7.058,16.459a14.912,14.912,0,0,0,5.02-.843,12.169,12.169,0,0,0,4.872-3.158,10.305,10.305,0,0,0,2.584-5.129,13.116,13.116,0,0,0-.681-6.9A.274.274,0,0,0,18.5.263.267.267,0,0,0,18.352.4C17.1,2.851,14.367,3.545,11.724,4.217,9.45,4.8,7.1,5.395,5.522,6.973c-1.769,1.771-2.374,4.64-1.849,8.77l.011.087-.046.075A23.024,23.024,0,0,0,39.564,44.189a23.011,23.011,0,0,0,1.9-30.408l-.094-.121.064-.138c.059-.126.109-.244.153-.36l.45-1.182A5.146,5.146,0,0,0,39.08,5.361l-2.853-1.09.343-.9a.274.274,0,0,0-.158-.352l-2.556-.977a.266.266,0,0,0-.095-.018A.274.274,0,0,0,33.5,2.2L32.357,5.2,28.283,3.647a.266.266,0,0,0-.1-.018.272.272,0,0,0-.1.526L32.164,5.71l-2.116,5.544L25.974,9.7a.266.266,0,0,0-.095-.018.272.272,0,0,0-.1.526l4.072,1.555-1.148,3.005a.272.272,0,0,0,.158.349l2.556.977a.266.266,0,0,0,.095.018.274.274,0,0,0,.254-.176l.343-.9,2.856,1.09a5.069,5.069,0,0,0,1.814.335,5.182,5.182,0,0,0,4.1-2.028l.2-.263.2.265A22.491,22.491,0,1,1,.8,27.9a22.256,22.256,0,0,1,1.659-8.476,22.669,22.669,0,0,1,1.554-3.088l.088-.146.168.028A16.8,16.8,0,0,0,7.058,16.459ZM18.542,1.2l.134.478A12.107,12.107,0,0,1,19,7.231,9.765,9.765,0,0,1,16.55,12.09,11.614,11.614,0,0,1,11.894,15.1a14.355,14.355,0,0,1-4.838.813A16.171,16.171,0,0,1,4.8,15.755L4.4,15.7l.223-.331a23.688,23.688,0,0,1,2.633-3.241A24.314,24.314,0,0,1,9.547,10.1,21.752,21.752,0,0,1,11.912,8.5a.271.271,0,0,0-.274-.467l-.062.036A21.973,21.973,0,0,0,9.213,9.671a24.578,24.578,0,0,0-2.341,2.075l0,0a24.358,24.358,0,0,0-2.331,2.8l-.4.567-.048-.7c-.235-3.378.478-5.761,2.18-7.285,1.505-1.348,3.584-1.877,5.593-2.388,2.52-.641,4.9-1.247,6.381-3.156ZM7.056,15.416a13.857,13.857,0,0,0,4.67-.784,11.113,11.113,0,0,0,4.456-2.88,9.273,9.273,0,0,0,2.326-4.614,11.4,11.4,0,0,0-.192-4.867c-1.6,1.753-4,2.365-6.336,2.958-1.951.5-3.969,1.01-5.383,2.276-1.463,1.31-2.136,3.337-2.05,6.182A25,25,0,0,1,6.512,11.4l.007-.007A25.076,25.076,0,0,1,8.907,9.276,22.494,22.494,0,0,1,11.385,7.6l.092-.054.012,0a.771.771,0,0,1,.676,1.38A21.257,21.257,0,0,0,9.854,10.5a23.808,23.808,0,0,0-2.239,1.981,23.229,23.229,0,0,0-2.344,2.834A15.586,15.586,0,0,0,7.056,15.416ZM33.918,2.647l2.046.78-4.6,12.057L29.312,14.7Zm1.4,1.069-1.112-.424L29.958,14.414l1.114.425.165-.436Zm.714,1.06,2.854,1.092a4.6,4.6,0,0,1,2.645,5.919l-.45,1.182a4.592,4.592,0,0,1-5.919,2.645l-2.854-1.09Zm.755,10.639a4.1,4.1,0,0,0,1.677-.358,4.056,4.056,0,0,0,2.149-2.265l.45-1.182a4.1,4.1,0,0,0-2.356-5.274l-2.387-.913-3.368,8.814,2.387.911A4.051,4.051,0,0,0,36.788,15.415ZM22.915,17.65l.049,0,6.514.023a.771.771,0,0,1,.638,1.2l-5.465,7.988,6.373-.006a.772.772,0,0,1,.6,1.259L17.368,45.49a.771.771,0,0,1-1.352-.643L16,44.832l.075-.155.013-.027,0-.006,6.045-12.333-6.6.006a.772.772,0,0,1-.771-.771s0,0,0,0h-.111l.207-.373,7.383-13.126A.771.771,0,0,1,22.915,17.65Zm.788,9.715,6-8.769a.276.276,0,0,0,.046-.151.271.271,0,0,0-.271-.271l-6.541-.024a.272.272,0,0,0-.258.137L15.5,31.043h0l-.212.374a.262.262,0,0,0-.033.13.271.271,0,0,0,.271.271l7.4-.007L16.629,44.678l.007.005-.1.191a.27.27,0,0,0,.068.336.267.267,0,0,0,.171.061.272.272,0,0,0,.21-.1L31.235,27.8a.272.272,0,0,0-.21-.443Zm-.631-8.673,5.891.021-6,8.771a.267.267,0,0,0-.042.2.27.27,0,0,0,.114.174.265.265,0,0,0,.152.047h.031l7.233-.007L19.4,41.367l-.418-.269,4.584-9.351h0l.044-.091a.263.263,0,0,0,.012-.2.268.268,0,0,0-.138-.155.265.265,0,0,0-.119-.028L16,31.277Zm4.946.518-4.654-.017L16.851,30.776l6.515-.006a.77.77,0,0,1,.735,1.006l0,.01-.044.091-3.681,7.51L29.394,28.4l-6.169.006a.771.771,0,0,1-.674-1.2Z" transform="translate(0 0.003)" fill="#657471"/></g></g></svg>