<svg xmlns="http://www.w3.org/2000/svg" width="53.459" height="53.459" viewBox="0 0 53.459 53.459"><path d="M26.73,0A26.759,26.759,0,1,0,45.622,7.838,26.732,26.732,0,0,0,26.73,0ZM50.788,19.734a6.2,6.2,0,0,0-3.8.4c-.246.081-.558.185-.763.234a4.714,4.714,0,0,0-3.168-1.383,2.526,2.526,0,0,0-2.089.9,2.552,2.552,0,0,0-.544,2.229,5.281,5.281,0,0,0,.378,1.01,3.683,3.683,0,0,1,.259.666,1.023,1.023,0,0,1-.212.094,2.378,2.378,0,0,1-1.55-.355,2.139,2.139,0,0,0-1.932-.4,2.5,2.5,0,0,0-1.564,1.919,3.057,3.057,0,0,0,1.145,2.909c.106.112.215.228.324.351h0a5.925,5.925,0,0,0,2.6,1.506c.128.046.255.092.382.14-.044.076-.09.151-.118.2-.1.169-.206.343-.309.517-.182.308-.37.627-.561.908-.242.357-.512.7-.8,1.068h0a10.2,10.2,0,0,0-1.728,2.8,10.5,10.5,0,0,0-.488,2.786A11.75,11.75,0,0,1,36,40.14a4.332,4.332,0,0,1-.945,1.6,13.914,13.914,0,0,1-2.66,2.37c-.633.46-1.508.883-2.086.282h0a6.076,6.076,0,0,1-1.412-2.993,9.653,9.653,0,0,1-.148-1.66,8.778,8.778,0,0,0-.321-2.464,5.725,5.725,0,0,0-.376-.85,1.86,1.86,0,0,1-.318-.97,3.774,3.774,0,0,0-1.07-3.355c-1.493-1.351-3.957-.986-4.374-.913a5.622,5.622,0,0,1-2.818-.795l-.256-.12c-1.641-.766-2.272-2.147-2.044-4.479h0a6.074,6.074,0,0,1,4.351-5.066c2.107-.54,4.146-.012,6.592.734a21.859,21.859,0,0,0,4,.4l.129.007a3.779,3.779,0,0,0,2.826-.781A2.177,2.177,0,0,0,35.8,19.65a3.885,3.885,0,0,0-.97-3.071c-1.376-1.461-3.81-1.6-5.523-1.585-.447.005-.918.04-1.373.074a8.58,8.58,0,0,1-2.926-.1,1,1,0,0,1-.218-.086c-.026-.279.117-.437.806-.885a4.441,4.441,0,0,0,.978-.779,4.774,4.774,0,0,0,.886-2.75l0-.029,0-.019c.1-.838,2.412-1.116,3.967-.989.033,0,.068,0,.1,0h0a1.989,1.989,0,0,0,1.708-.793,3.721,3.721,0,0,0,.17-3.057,2.93,2.93,0,0,1,.666-2.815,25.161,25.161,0,0,1,16.71,16.962ZM12.068,6.426c.116.5.2,1.254.24,1.6.032.287.061.534.09.7h0a4.233,4.233,0,0,1,0,2.047,3.059,3.059,0,0,1-1.836,1.673c-.173.081-.345.159-.516.236a8.72,8.72,0,0,0-3.325,2.21c-.779.911-1.995,1.845-2.694,1.812h0a.478.478,0,0,1-.232-.067A25.2,25.2,0,0,1,12.069,6.426ZM1.951,22.986c1.081.069,3.37.386,3.459,1.821a19.1,19.1,0,0,0,.047,3.666c.2,1.751,1.468,2.826,2.585,3.775,1.016.863,1.893,1.608,1.976,2.71A4.6,4.6,0,0,1,9.6,36.795a9.909,9.909,0,0,0-.418,1.339l-.019.091A5.963,5.963,0,0,0,9,40.625a2.636,2.636,0,0,1-.277,2.118h0A1.224,1.224,0,0,1,7.7,43,25,25,0,0,1,1.951,22.986ZM17.332,49.953A9.35,9.35,0,0,1,28.5,51.719c-.587.041-1.177.07-1.774.07a24.917,24.917,0,0,1-9.4-1.835ZM30.561,51.5c-6.417-7.649-14.493-2.8-15.115-2.4h0a25.177,25.177,0,0,1-6.388-4.615,2.457,2.457,0,0,0,.877-.587,4.3,4.3,0,0,0,.706-3.564,4.557,4.557,0,0,1,.158-1.752l.02-.092a8.493,8.493,0,0,1,.353-1.114,6,6,0,0,0,.511-2.536c-.135-1.8-1.423-2.892-2.56-3.858-1.009-.857-1.88-1.6-2.007-2.693a17.422,17.422,0,0,1-.038-3.392.818.818,0,0,0,0-.095c-.063-1.957-1.852-3.228-4.819-3.462h0a24.846,24.846,0,0,1,.908-3.142,2.163,2.163,0,0,0,.8.184l.088,0c1.794,0,3.59-1.992,3.937-2.4a7.2,7.2,0,0,1,2.744-1.774c.176-.08.354-.16.532-.243a4.79,4.79,0,0,0,2.707-2.633h0a5.683,5.683,0,0,0,.066-2.884c-.025-.145-.048-.358-.076-.606a9.77,9.77,0,0,0-.461-2.383,24.889,24.889,0,0,1,9.418-3.5,4.09,4.09,0,0,1,.045.779v.148c0,.786-.019,1.323-.387,1.619h0a4.027,4.027,0,0,1-1.1.529c-.229.085-.457.169-.676.267a9.809,9.809,0,0,0-2.967,1.82,1.709,1.709,0,0,0-.583,2h0a.835.835,0,0,0,1.56-.587,1.7,1.7,0,0,1,.2-.227,8.432,8.432,0,0,1,2.469-1.48c.186-.083.38-.153.575-.226a5.387,5.387,0,0,0,1.569-.793A3.394,3.394,0,0,0,24.64,2.874V2.75h0a5.911,5.911,0,0,0-.057-.981c.708-.06,1.422-.1,2.146-.1a25.023,25.023,0,0,1,5.6.64,4.672,4.672,0,0,0-.538,3.7c.006.023.013.048.02.071a2.374,2.374,0,0,1,.073,1.578c-.05.068-.168.1-.352.1-.69-.054-5.385-.318-5.73,2.45h0a1.371,1.371,0,0,0-.018.157,2.957,2.957,0,0,1-.481,1.754,3.348,3.348,0,0,1-.626.472,2.6,2.6,0,0,0-1.556,2.453,1.732,1.732,0,0,0,1.4,1.518,9.909,9.909,0,0,0,3.532.164c.449-.033.873-.065,1.268-.069,2.182-.026,3.593.322,4.288,1.06a2.254,2.254,0,0,1,.521,1.8c-.011.078-.154.761-1.813.674l-.133-.006a20.932,20.932,0,0,1-3.591-.33c-2.124-.647-4.768-1.453-7.494-.754a7.71,7.71,0,0,0-5.6,6.522c-.3,3.06.683,5.074,3,6.155l.252.118a6.971,6.971,0,0,0,3.7.945h0a.832.832,0,0,0,.1-.013,3.986,3.986,0,0,1,2.987.505,2.2,2.2,0,0,1,.526,1.95h0a3.316,3.316,0,0,0,.494,1.9,4.281,4.281,0,0,1,.273.6,7.415,7.415,0,0,1,.241,2.005,11.034,11.034,0,0,0,.184,1.953,7.691,7.691,0,0,0,1.842,3.8,2.542,2.542,0,0,0,1.877.811,4.156,4.156,0,0,0,2.4-.9,15.4,15.4,0,0,0,2.979-2.675,5.9,5.9,0,0,0,1.263-2.235,13.2,13.2,0,0,0,.3-2.176,9.105,9.105,0,0,1,.394-2.355,8.813,8.813,0,0,1,1.472-2.337c.29-.371.59-.755.864-1.158.221-.325.422-.667.617-1,.1-.166.2-.331.294-.492a1.99,1.99,0,0,0,.409-1.674,1.451,1.451,0,0,0-.915-.88c-.2-.08-.409-.154-.614-.228A4.451,4.451,0,0,1,38.522,27.2c-.119-.133-.237-.26-.352-.382-.671-.716-.83-.948-.73-1.416h0a.925.925,0,0,1,.468-.688c.058-.019.153-.008.455.2a3.912,3.912,0,0,0,3.029.554,1.9,1.9,0,0,0,1.221-1,2.483,2.483,0,0,0-.288-2.032,4.027,4.027,0,0,1-.269-.684.9.9,0,0,1,.191-.782.849.849,0,0,1,.721-.311,2.939,2.939,0,0,1,2.115.953c.539.742,1.459.436,2.433.113.919-.305,2.178-.723,2.965-.31a2.1,2.1,0,0,1,.922,1.37.82.82,0,0,0,.1.219A25.063,25.063,0,0,1,30.561,51.5Z" fill="#657471"/><path d="M959.167,768.84a.836.836,0,0,0-.378,1.086,3.434,3.434,0,0,1-.6,1.636,3.506,3.506,0,0,1-1.246,1.38.835.835,0,0,0,.171,1.653.846.846,0,0,0,.173-.018c1.113-.234,2.07-1.711,2.337-2.159.292-.491,1.205-2.173.664-3.219h0a.835.835,0,0,0-1.125-.358Z" transform="translate(-913.682 -734.499)" fill="#657471"/></svg>