<svg xmlns="http://www.w3.org/2000/svg" width="86.308" height="108.078" viewBox="0 0 86.308 108.078"><g transform="translate(-31.8 -21.572)"><path d="M116.4,37.1c-14.2-.3-24.3-4.3-30.3-7.6a36.378,36.378,0,0,1-9.7-7.3,1.878,1.878,0,0,0-2.6-.2h0l-.2.2a38.618,38.618,0,0,1-9.7,7.3,64.085,64.085,0,0,1-30.3,7.6,1.793,1.793,0,0,0-1.8,1.8V75.4a57.9,57.9,0,0,0,5.9,21.1c5,10.5,15.5,24.7,36.6,33a1.483,1.483,0,0,0,1.3,0c21.1-8.2,31.6-22.5,36.6-33a57.9,57.9,0,0,0,5.9-21.1V38.9a1.653,1.653,0,0,0-1.7-1.8m-1.9,38.2A56.852,56.852,0,0,1,109,95c-4.7,9.8-14.4,23-34,30.9-15.7-6.3-27.1-16.6-33.9-30.7a54.849,54.849,0,0,1-5.6-19.8V40.7C58.4,39.8,71,29.8,75,26c4,3.8,16.6,13.8,39.5,14.7Z" fill="#657471"/><path d="M70.4,41.8a.993.993,0,0,0-1,.7L67,49l-4.5,1.8-6.2-2.9a1.258,1.258,0,0,0-1.3.2l-6.5,6.5a1.193,1.193,0,0,0-.2,1.3l2.9,6.2-1.8,4.5L43,68.9a1.2,1.2,0,0,0-.7,1v9.3a.993.993,0,0,0,.7,1l6.5,2.3L51.3,87l-2.9,6.2a1.258,1.258,0,0,0,.2,1.3l6.5,6.5a1.193,1.193,0,0,0,1.3.2l6.2-2.9,4.5,1.8,2.3,6.5a1.2,1.2,0,0,0,1,.7h9.3a.993.993,0,0,0,1-.7l2.3-6.5,4.5-1.8,6.2,2.9A1.258,1.258,0,0,0,95,101l6.5-6.5a1.193,1.193,0,0,0,.2-1.3l-3-6.2,1.8-4.5,6.5-2.3a1.2,1.2,0,0,0,.7-1V70a.993.993,0,0,0-.7-1l-6.5-2.3-1.8-4.5,2.9-6.2a1.258,1.258,0,0,0-.2-1.3l-6.6-6.5a1.193,1.193,0,0,0-1.3-.2l-6.2,2.9L83,49l-2.3-6.5a1.2,1.2,0,0,0-1-.7ZM94.9,61.6a1.388,1.388,0,0,0,0,.9l2.7,6.6a1.057,1.057,0,0,0,.7.6l5.8,2.1v5.6l-5.8,2.1a1.344,1.344,0,0,0-.7.6l-2.7,6.6a1.388,1.388,0,0,0,0,.9l2.7,5.6-4,4L88,94.4a1.388,1.388,0,0,0-.9,0l-6.6,2.7a1.057,1.057,0,0,0-.6.7l-2.1,5.8H72.2l-2.1-5.8a1.344,1.344,0,0,0-.6-.7l-6.6-2.7a1.388,1.388,0,0,0-.9,0l-5.6,2.7-4-4,2.7-5.6a1.388,1.388,0,0,0,0-.9L52.4,80a1.057,1.057,0,0,0-.7-.6l-5.7-2V71.8l5.8-2.1a.9.9,0,0,0,.6-.6l2.7-6.6a1.388,1.388,0,0,0,0-.9L52.5,56l4-4,5.6,2.7a1.388,1.388,0,0,0,.9,0L69.6,52a1.057,1.057,0,0,0,.6-.7l2.1-5.8h5.6L80,51.3a.9.9,0,0,0,.6.6l6.6,2.7a1.388,1.388,0,0,0,.9,0l5.6-2.7,4,4Z" fill="#657471"/><path d="M91.4,69.1h-.2a2.051,2.051,0,0,0-1.6,2.4A15.05,15.05,0,0,1,78,89.3c-.2,0-.5.1-.7.1a14.992,14.992,0,0,1-6.2-29.3,15.53,15.53,0,0,1,10.8,1.2,2,2,0,0,0,2.7-.9,2.058,2.058,0,0,0-.8-2.7,18.957,18.957,0,1,0,9.8,12.9,1.909,1.909,0,0,0-2.2-1.5" fill="#657471"/><path d="M68,72.5h0a2.035,2.035,0,0,0-1.5-.6,1.967,1.967,0,0,0-2,2.1,2.2,2.2,0,0,0,.6,1.5l6.7,6.7a1.389,1.389,0,0,0,1,.5v.1h1v-.1a2.075,2.075,0,0,0,1-.6l14.5-16a2.086,2.086,0,0,0-.1-3,2.035,2.035,0,0,0-1.5-.6,2.127,2.127,0,0,0-1.5.7l-13,14.4Z" fill="#657471"/></g></svg>