<svg xmlns="http://www.w3.org/2000/svg" width="86.007" height="94.058" viewBox="0 0 86.007 94.058"><g transform="translate(-106.249 -3410.75)"><path d="M231.384,152.88a14.807,14.807,0,1,0-14.8-14.8A14.823,14.823,0,0,0,231.384,152.88Zm0-26.534a11.727,11.727,0,1,1-11.725,11.73A11.743,11.743,0,0,1,231.384,126.346Zm-4.993,8.679a4.663,4.663,0,0,1,3.453-4.371v-.562a1.539,1.539,0,1,1,3.079,0v.562a4.86,4.86,0,0,1,2.905,2.27,1.539,1.539,0,1,1-2.69,1.494,1.993,1.993,0,0,0-1.754-.909,1.775,1.775,0,0,0-1.914,1.516c0,.9.178,1.11,2.229,1.544,1.749.365,4.677.982,4.677,4.559a4.657,4.657,0,0,1-3.453,4.367v.566a1.539,1.539,0,0,1-3.079,0v-.566a4.9,4.9,0,0,1-2.9-2.257,1.538,1.538,0,0,1,2.677-1.517,2.006,2.006,0,0,0,1.759.914,1.75,1.75,0,0,0,1.914-1.507c0-.9-.178-1.11-2.229-1.544-1.749-.365-4.678-.982-4.678-4.559ZM176.7,180.6a14.807,14.807,0,1,0,14.809,14.809A14.823,14.823,0,0,0,176.7,180.6Zm0,26.534a11.727,11.727,0,1,1,11.73-11.725A11.738,11.738,0,0,1,176.7,207.134Zm4.221-9.679a1.539,1.539,0,1,1-2.174,2.179l-3.134-3.134a1.543,1.543,0,0,1-.452-1.087V189.9a1.539,1.539,0,1,1,3.079,0v4.874Zm33.117-30.71a9.995,9.995,0,1,0-10,9.99A10.011,10.011,0,0,0,214.04,166.745Zm-16.91,0a6.913,6.913,0,1,1,6.911,6.911A6.922,6.922,0,0,1,197.13,166.745Zm2.887,21.1a1.545,1.545,0,0,0,1.4.9h5.258a1.537,1.537,0,0,0,1.4-.9l1.644-3.558,2.732-1.133,3.673,1.352a1.545,1.545,0,0,0,1.622-.356l3.723-3.723a1.543,1.543,0,0,0,.356-1.622l-1.352-3.677L221.6,172.4l3.554-1.64a1.545,1.545,0,0,0,.9-1.4v-5.258a1.54,1.54,0,0,0-.9-1.4l-3.554-1.64-1.128-2.732,1.352-3.677a1.545,1.545,0,0,0-.356-1.622l-3.723-3.723a1.545,1.545,0,0,0-1.622-.356l-3.673,1.357-2.727-1.133-1.644-3.558a1.545,1.545,0,0,0-1.4-.9h-5.258a1.54,1.54,0,0,0-1.4.9l-1.64,3.554-2.727,1.133-3.673-1.357a1.537,1.537,0,0,0-1.622.356l-3.723,3.723a1.543,1.543,0,0,0-.356,1.622l1.352,3.673-1.133,2.736-3.554,1.64a1.545,1.545,0,0,0-.9,1.4v5.258a1.54,1.54,0,0,0,.9,1.4l3.554,1.64,1.133,2.727-1.352,3.673a1.545,1.545,0,0,0,.356,1.622l3.723,3.723a1.543,1.543,0,0,0,1.622.356l3.673-1.352,2.727,1.133,1.64,3.554Zm-4.869-7.784-3.316,1.22-2.33-2.33,1.22-3.316a1.563,1.563,0,0,0-.023-1.124l-1.594-3.842a1.543,1.543,0,0,0-.777-.809l-3.207-1.48V165.1l3.207-1.48a1.543,1.543,0,0,0,.777-.809l1.594-3.846a1.539,1.539,0,0,0,.023-1.124l-1.22-3.316,2.325-2.325,3.316,1.224a1.54,1.54,0,0,0,1.124-.023l3.842-1.594a1.543,1.543,0,0,0,.809-.777l1.48-3.207h3.289l1.485,3.211a1.56,1.56,0,0,0,.809.777l3.842,1.594a1.539,1.539,0,0,0,1.124.023l3.316-1.224,2.325,2.325-1.22,3.316a1.551,1.551,0,0,0,.023,1.119l1.59,3.846a1.527,1.527,0,0,0,.777.809l3.207,1.48v3.289l-3.207,1.48a1.543,1.543,0,0,0-.777.809l-1.59,3.842a1.551,1.551,0,0,0-.023,1.119l1.22,3.316-2.33,2.33-3.316-1.22a1.54,1.54,0,0,0-1.124.023l-3.842,1.594a1.56,1.56,0,0,0-.809.777l-1.485,3.211h-3.289l-1.48-3.207a1.543,1.543,0,0,0-.809-.777l-3.842-1.594a1.539,1.539,0,0,0-1.124-.023Zm51.653-13.32a42.755,42.755,0,0,1-42.759,42.75c-.621,0-1.242-.014-1.859-.041l1.4,1.453a1.542,1.542,0,0,1-1.105,2.613,1.522,1.522,0,0,1-1.105-.47l-4.285-4.426a1.535,1.535,0,0,1,.2-2.311l4.974-3.622a1.54,1.54,0,1,1,1.813,2.489l-1.658,1.206c.539.023,1.078.032,1.622.032a39.7,39.7,0,0,0,38.115-50.73,1.541,1.541,0,0,1,2.96-.859,42.942,42.942,0,0,1,1.681,11.914Zm-83.826,11.914a42.775,42.775,0,0,1,41.074-54.673q.932,0,1.864.041l-1.407-1.453a1.541,1.541,0,1,1,2.215-2.142l4.285,4.426a1.541,1.541,0,0,1,.429,1.2,1.524,1.524,0,0,1-.626,1.11l-4.974,3.627a1.538,1.538,0,1,1-1.813-2.485l1.663-1.215c-.544-.023-1.087-.037-1.631-.037a39.7,39.7,0,0,0-38.11,50.731,1.542,1.542,0,1,1-2.96.863Z" transform="translate(-54.795 3291.039)" fill="#778495"/><path d="M205.612,119.711a1.782,1.782,0,0,1,1.289.547l4.285,4.426a1.791,1.791,0,0,1,.5,1.4,1.77,1.77,0,0,1-.729,1.292L205.982,131a1.768,1.768,0,0,1-1.052.345,1.788,1.788,0,0,1-1.056-3.234l1.078-.788c-.31-.008-.608-.012-.9-.012a39.454,39.454,0,0,0-37.87,50.412,1.791,1.791,0,0,1-3.337,1.272l-.031.014-.081-.28a43.025,43.025,0,0,1,41.314-54.993c.415,0,.834.006,1.252.018l-.974-1.006a1.792,1.792,0,0,1,1.286-3.037Zm-.681,11.132a1.272,1.272,0,0,0,.757-.249l4.975-3.627a1.272,1.272,0,0,0,.524-.929,1.291,1.291,0,0,0-.359-1.007l-4.285-4.427a1.291,1.291,0,1,0-1.856,1.794l1.844,1.9-.628-.028c-.615-.027-1.238-.041-1.853-.041a42.548,42.548,0,0,0-40.914,54.073l.007,0,.082.279a1.292,1.292,0,0,0,2.48-.723,39.954,39.954,0,0,1,38.35-51.051c.516,0,1.053.012,1.641.037l.714.03-2.24,1.637a1.288,1.288,0,0,0,.762,2.33Zm26.453-7.826a15.057,15.057,0,1,1-15.054,15.059A15.076,15.076,0,0,1,231.384,123.017Zm0,29.613a14.557,14.557,0,1,0-14.554-14.554A14.573,14.573,0,0,0,231.384,152.63Zm0-26.534a11.977,11.977,0,1,1-11.975,11.98A11.993,11.993,0,0,1,231.384,126.1Zm0,23.455a11.477,11.477,0,1,0-11.475-11.475A11.49,11.49,0,0,0,231.384,149.551Zm0-21.248a1.791,1.791,0,0,1,1.789,1.789v.378a5.06,5.06,0,0,1,2.874,2.333,1.789,1.789,0,1,1-3.128,1.736,1.746,1.746,0,0,0-1.535-.78c-.9,0-1.664.58-1.664,1.266,0,.7,0,.87,2.031,1.3a8.479,8.479,0,0,1,3.084,1.113,4.179,4.179,0,0,1,1.792,3.69,4.866,4.866,0,0,1-3.453,4.55v.383a1.789,1.789,0,0,1-3.579,0v-.383a5.117,5.117,0,0,1-2.868-2.317,1.788,1.788,0,1,1,3.112-1.762,1.757,1.757,0,0,0,1.541.786,1.506,1.506,0,0,0,1.664-1.257c0-.7,0-.87-2.031-1.3a8.478,8.478,0,0,1-3.084-1.113,4.179,4.179,0,0,1-1.792-3.69v-.253h.012a4.577,4.577,0,0,1,1.025-2.629,5.214,5.214,0,0,1,2.422-1.672v-.379A1.791,1.791,0,0,1,231.384,128.3Zm3.1,6.659a1.288,1.288,0,0,0,1.128-1.916,4.588,4.588,0,0,0-2.758-2.152l-.179-.053v-.749a1.289,1.289,0,1,0-2.579,0v.748l-.178.053a4.392,4.392,0,0,0-3.275,4.132v.239c.125,3.166,2.734,3.711,4.474,4.075,2.088.442,2.428.692,2.428,1.789a2,2,0,0,1-2.164,1.757,2.26,2.26,0,0,1-1.976-1.04,1.285,1.285,0,0,0-1.756-.486,1.285,1.285,0,0,0-.486,1.756,4.64,4.64,0,0,0,2.754,2.14l.179.053v.753a1.289,1.289,0,0,0,2.579,0v-.753l.178-.053a4.39,4.39,0,0,0,3.275-4.127c0-3.379-2.7-3.941-4.479-4.314-2.088-.442-2.428-.692-2.428-1.789a2.023,2.023,0,0,1,2.164-1.766,2.249,2.249,0,0,1,1.972,1.037A1.287,1.287,0,0,0,234.482,134.962Zm-33.063,9.52h5.258a1.8,1.8,0,0,1,1.625,1.04l1.6,3.47,2.546,1.058,3.581-1.323a1.8,1.8,0,0,1,1.885.414l3.723,3.723a1.8,1.8,0,0,1,.414,1.884l-1.319,3.586,1.054,2.551,3.465,1.6a1.8,1.8,0,0,1,1.041,1.625v5.258a1.8,1.8,0,0,1-1.04,1.625l-3.465,1.6-1.054,2.546,1.318,3.585a1.8,1.8,0,0,1-.414,1.885l-3.723,3.723a1.8,1.8,0,0,1-1.884.414l-3.581-1.318-2.551,1.058-1.6,3.47a1.791,1.791,0,0,1-1.625,1.04h-5.258a1.8,1.8,0,0,1-1.625-1.04l-.042-.091,0-.014-1.557-3.374-2.546-1.058-3.581,1.318a1.809,1.809,0,0,1-.619.109,1.778,1.778,0,0,1-1.265-.524l-3.723-3.723a1.8,1.8,0,0,1-.414-1.884l1.318-3.581-1.058-2.546-3.465-1.6a1.8,1.8,0,0,1-1.041-1.625V164.1a1.8,1.8,0,0,1,1.04-1.625l3.465-1.6,1.058-2.555-1.318-3.581a1.8,1.8,0,0,1,.414-1.885l3.723-3.723a1.8,1.8,0,0,1,1.267-.526,1.762,1.762,0,0,1,.619.112l3.58,1.322,2.546-1.058,1.6-3.465A1.8,1.8,0,0,1,201.419,144.482Zm11.021,6.105-2.908-1.208-1.685-3.647a1.3,1.3,0,0,0-1.171-.75h-5.258a1.3,1.3,0,0,0-1.171.75l-1.681,3.642-2.908,1.208-3.765-1.391a1.265,1.265,0,0,0-.445-.081,1.3,1.3,0,0,0-.913.379l-3.723,3.723a1.3,1.3,0,0,0-.3,1.36l1.385,3.763-1.208,2.917-3.643,1.681a1.3,1.3,0,0,0-.75,1.171v5.258a1.3,1.3,0,0,0,.75,1.171l3.642,1.681,1.208,2.908-1.386,3.765a1.3,1.3,0,0,0,.3,1.358l3.723,3.723a1.281,1.281,0,0,0,.912.377,1.309,1.309,0,0,0,.448-.079l3.763-1.386,2.908,1.208,1.723,3.733,0,.009a1.3,1.3,0,0,0,1.127.664h5.258a1.29,1.29,0,0,0,1.171-.749l1.686-3.648,2.912-1.208,3.764,1.386a1.3,1.3,0,0,0,1.359-.3l3.723-3.723a1.3,1.3,0,0,0,.3-1.36l-1.385-3.768,1.2-2.908,3.643-1.681a1.294,1.294,0,0,0,.75-1.171v-5.258a1.294,1.294,0,0,0-.75-1.171l-3.643-1.681-1.2-2.912,1.386-3.769a1.3,1.3,0,0,0-.3-1.359l-3.723-3.723a1.3,1.3,0,0,0-1.359-.3Zm-10.2-3.017h3.609l1.552,3.356a1.311,1.311,0,0,0,.679.651l3.84,1.593a1.249,1.249,0,0,0,.49.1,1.323,1.323,0,0,0,.452-.08l3.465-1.279,2.551,2.551-1.275,3.466a1.292,1.292,0,0,0,.019.938l1.589,3.846a1.279,1.279,0,0,0,.649.676l3.353,1.548v3.609l-3.352,1.547a1.288,1.288,0,0,0-.65.676l-1.59,3.842a1.292,1.292,0,0,0-.019.937l1.275,3.466-2.556,2.556-3.466-1.275a1.3,1.3,0,0,0-.941.019l-3.842,1.594a1.311,1.311,0,0,0-.678.652l-1.551,3.355h-3.609l-1.547-3.352a1.288,1.288,0,0,0-.676-.65l-3.843-1.595a1.249,1.249,0,0,0-.49-.1,1.323,1.323,0,0,0-.443.077v0l-3.466,1.275-2.556-2.556,1.275-3.466a1.316,1.316,0,0,0-.02-.944l-1.593-3.84a1.288,1.288,0,0,0-.649-.677l-3.353-1.548v-3.609l3.352-1.547a1.288,1.288,0,0,0,.65-.676l1.594-3.847a1.286,1.286,0,0,0,.019-.943l-1.274-3.465,2.551-2.551,3.466,1.28a1.3,1.3,0,0,0,.941-.019l3.842-1.594a1.288,1.288,0,0,0,.677-.649Zm3.289.5h-2.969l-1.413,3.061a1.787,1.787,0,0,1-.938.9l-3.843,1.595a1.765,1.765,0,0,1-.684.137,1.818,1.818,0,0,1-.621-.11l-3.167-1.169-2.1,2.1,1.164,3.166a1.784,1.784,0,0,1-.027,1.307l-1.593,3.844a1.787,1.787,0,0,1-.9.939l-3.063,1.414v2.969l3.061,1.413a1.787,1.787,0,0,1,.9.938l1.595,3.843a1.818,1.818,0,0,1,.027,1.3l-1.165,3.167,2.1,2.1,3.159-1.162v0a1.822,1.822,0,0,1,.623-.11,1.745,1.745,0,0,1,.684.138l3.84,1.594a1.787,1.787,0,0,1,.939.9l1.414,3.063h2.969l1.417-3.066a1.811,1.811,0,0,1,.938-.9l3.843-1.595a1.765,1.765,0,0,1,.684-.137,1.818,1.818,0,0,1,.621.11l3.167,1.165,2.1-2.1-1.164-3.166a1.791,1.791,0,0,1,.026-1.3l1.59-3.842a1.787,1.787,0,0,1,.9-.939l3.063-1.414v-2.969l-3.061-1.413a1.777,1.777,0,0,1-.9-.939l-1.59-3.847a1.792,1.792,0,0,1-.026-1.3l1.165-3.166-2.1-2.1-3.166,1.169a1.824,1.824,0,0,1-.624.111,1.744,1.744,0,0,1-.684-.138l-3.84-1.593a1.812,1.812,0,0,1-.939-.9Zm38.107,5.395a1.8,1.8,0,0,1,1.719,1.292,43.173,43.173,0,0,1,1.691,11.823l.008,0v.161a43,43,0,0,1-43.009,43c-.415,0-.833-.006-1.248-.018l.971,1.006a1.789,1.789,0,0,1-.042,2.532,1.794,1.794,0,0,1-1.243.5,1.763,1.763,0,0,1-1.286-.548l-4.284-4.425a1.785,1.785,0,0,1,.229-2.687l4.975-3.623a1.775,1.775,0,0,1,1.051-.343,1.8,1.8,0,0,1,1.449.736,1.787,1.787,0,0,1-.392,2.5l-1.068.777c.283.006.576.009.885.009a39.453,39.453,0,0,0,37.875-50.411,1.793,1.793,0,0,1,1.721-2.291Zm2.918,13.441-.008,0v-.161a42.68,42.68,0,0,0-1.671-11.845,1.291,1.291,0,0,0-2.48.72,39.953,39.953,0,0,1-38.355,51.05c-.587,0-1.12-.011-1.632-.032l-.716-.03,2.238-1.628a1.287,1.287,0,0,0,.283-1.8,1.3,1.3,0,0,0-1.046-.531,1.278,1.278,0,0,0-.757.247l-4.975,3.622a1.285,1.285,0,0,0-.164,1.935l4.285,4.427a1.269,1.269,0,0,0,.926.394A1.294,1.294,0,0,0,203.769,212a1.278,1.278,0,0,0-.363-.918l-1.838-1.9.627.028c.61.027,1.232.041,1.848.041a42.5,42.5,0,0,0,42.509-42.34ZM204.041,156.5a10.245,10.245,0,1,1-10.24,10.249A10.261,10.261,0,0,1,204.041,156.5Zm0,19.989a9.745,9.745,0,1,0-9.74-9.74A9.756,9.756,0,0,0,204.041,176.485Zm0-16.906a7.163,7.163,0,1,1-7.161,7.166A7.174,7.174,0,0,1,204.041,159.579Zm0,13.827a6.663,6.663,0,1,0-6.661-6.661A6.671,6.671,0,0,0,204.041,173.406ZM176.7,180.35a15.057,15.057,0,1,1-15.054,15.059A15.076,15.076,0,0,1,176.7,180.35Zm0,29.613a14.557,14.557,0,1,0-14.554-14.554A14.573,14.573,0,0,0,176.7,209.963Zm0-26.534a11.977,11.977,0,1,1-11.975,11.98A11.993,11.993,0,0,1,176.7,183.429Zm0,23.455a11.477,11.477,0,1,0-11.475-11.475A11.49,11.49,0,0,0,176.7,206.884Zm0-18.774a1.791,1.791,0,0,1,1.789,1.789v4.77l2.608,2.608a1.789,1.789,0,1,1-2.529,2.531l-3.132-3.132a1.8,1.8,0,0,1-.525-1.264V189.9A1.791,1.791,0,0,1,176.7,188.11Zm3.134,11.726a1.292,1.292,0,0,0,.91-2.2l-2.754-2.755V189.9a1.289,1.289,0,1,0-2.579,0v5.513a1.3,1.3,0,0,0,.379.91l3.133,3.134A1.283,1.283,0,0,0,179.836,199.836Z" transform="translate(-54.795 3291.039)" fill="#778495"/></g></svg>