<svg xmlns="http://www.w3.org/2000/svg" width="96.147" height="93.52" viewBox="0 0 96.147 93.52"><g transform="translate(0 0)"><path d="M364.974,67.3l-1.62-1.223a46.784,46.784,0,0,0-60.8-62.4,1.357,1.357,0,1,0,1.058,2.5A44.07,44.07,0,0,1,361.131,64.4l-1.5-1.132a6.448,6.448,0,0,0-9.021,1.278L346.3,70.275a1.41,1.41,0,0,0,.282,1.97l2.229,1.68-2.33,3.1A1.411,1.411,0,0,0,346.766,79a1.391,1.391,0,0,0,1.547.089,1.559,1.559,0,0,0,.391-.33l2.36-3.134,4.42,3.326-2.329,3.1a1.411,1.411,0,0,0-.267,1.042,1.412,1.412,0,0,0,1.39,1.211,1.422,1.422,0,0,0,.709-.192,1.565,1.565,0,0,0,.391-.33l2.36-3.135,2.231,1.682a1.391,1.391,0,0,0,1.547.089,1.566,1.566,0,0,0,.391-.33l4.343-5.769a6.444,6.444,0,0,0-1.276-9.012m-7.027-1.806,5.342,4.013h0A3.628,3.628,0,0,1,364,74.581l-.071.094,0,.011-3.39,4.506-2.228-1.68L351.641,72.5l-2.225-1.675,3.463-4.6a3.62,3.62,0,0,1,5.069-.723" transform="translate(-271.391 0.001)" fill="#aebed3"/><path d="M71.395,195.659a1.348,1.348,0,0,0-1.033.109,44.055,44.055,0,0,1-57.928-62.736,1.357,1.357,0,0,0-2.275-1.482A46.517,46.517,0,0,0,4.7,143.164a7.19,7.19,0,0,1-1.853-3.995,7.555,7.555,0,0,1,.529-3.637,10.768,10.768,0,0,1,2.34-3.557c3.224-3.343,8.542-5.331,11.08-6.136.163,2.3.537,7.97.395,9.96a11.483,11.483,0,0,1-2.18,6.12A8.068,8.068,0,0,1,8.9,145.079a1.391,1.391,0,0,0-.969.483,1.411,1.411,0,0,0-.34,1.021,1.392,1.392,0,0,0,.483.969,1.418,1.418,0,0,0,.926.343c.032,0,.064,0,.1,0a11.718,11.718,0,0,0,4.554-1.233,10.665,10.665,0,0,0,3.6-3.023A14.292,14.292,0,0,0,20,136.008c.179-2.409-.3-9.162-.511-11.953l-.011-.146a1.383,1.383,0,0,0-.583-1.039,1.407,1.407,0,0,0-1.137-.226,38.464,38.464,0,0,0-5.122,1.725A26.278,26.278,0,0,0,3.7,130.03a13.757,13.757,0,0,0-2.94,4.49,10.408,10.408,0,0,0-.7,4.968,10.205,10.205,0,0,0,3.8,6.764,46.984,46.984,0,0,0-1.253,10.787,46.774,46.774,0,0,0,69.049,41.115,1.357,1.357,0,0,0-.263-2.494" transform="translate(0 -110.279)" fill="#aebed3"/><path d="M341.468,186.2l.005,22a1.376,1.376,0,0,0,1.924,1.268,1.37,1.37,0,0,0,.735-.757l6.5-16.355c.016-.039.03-.08.042-.122l1.112-2.793c.016-.032.03-.064.044-.1l.135-.336c.015-.037.028-.075.039-.113l7.26-18.235a1.355,1.355,0,0,0,.147-.62,1.385,1.385,0,0,0-1.383-1.383H344.237l-.005-22a1.387,1.387,0,0,0-.869-1.283,1.378,1.378,0,0,0-1.789.772l-12.56,31.578-2.574,6.474a1.354,1.354,0,0,0-.147.62,1.385,1.385,0,0,0,1.383,1.383Zm1.383-14.779H356l-8.407,21.116a1.364,1.364,0,0,0-.047.144l-3.3,8.308V184.819a1.385,1.385,0,0,0-1.383-1.383H329.709l3.042-7.651c.007-.014.013-.028.019-.042l.135-.337c.007-.019.014-.038.02-.056l8.543-21.482v16.172a1.385,1.385,0,0,0,1.383,1.383" transform="translate(-293.484 -130.669)" fill="#aebed3"/></g></svg>