<svg xmlns="http://www.w3.org/2000/svg" xmlns:xlink="http://www.w3.org/1999/xlink" width="436.73" height="124.875" viewBox="0 0 436.73 124.875">
  <defs>
    <clipPath id="clip-path">
      <path id="Path_2360" data-name="Path 2360" d="M403.231,27.39c1.892,0,8.951.728,9.17,10.917H393.916c-.073-6.113,3.42-10.917,9.315-10.917m-22.2,15.284A31.746,31.746,0,0,0,383.8,55.628c4.2,9.018,12.647,10.8,17.554,11.135h4.377c13.726-.956,17.27-11.055,18.241-13.828L411.6,50.825c-.655,2.183-2.111,6.477-7.86,6.477-7.059,0-9.97-5.895-10.189-11.426h31c.291-13.755-4.585-27.946-22.2-27.946-14.628,0-21.323,12.08-21.323,24.744M340.862,25.863h-.146V19.022H329.145v46.65h12.372V44.494c0-3.784.073-8.951,1.383-11.644a9.626,9.626,0,0,1,8.951-5.532c7.569,0,7.569,6.769,7.569,14.41V65.6h12.372V36.56c-.073-4.585.073-11.5-4.876-15.282a17.738,17.738,0,0,0-10.7-3.42,18.552,18.552,0,0,0-15.356,8.005M435.107,9.779v9.315H429.43v9.825h5.677V49.3c0,7.132.218,9.9,1.746,12.808,1.477,2.835,4.966,4.233,8.252,4.658h4.854a24.991,24.991,0,0,0,7.053-1.716v-.666l-1.019-8.9-.364.073a11.443,11.443,0,0,1-4.585,1.092c-3.42,0-3.42-2.183-3.42-8.806V28.992h8.369V19.167h-8.369V2.574ZM153.754,37.8h10.553c9.1,0,17.1,0,17.1,8.807a7.56,7.56,0,0,1-5.313,7.5c-1.965.728-7.5.728-10.261.728H153.754Zm.073-25.689h0Zm0,0h7.5c9.388,0,10.917,0,12.809.509a6.748,6.748,0,0,1,4.876,6.84c0,6.842-6.7,7.424-11.062,7.424H153.827ZM140.8,1.264v64.48h21.978c13.682,0,17.83-.291,21.614-1.892,6.914-3.057,10.48-10.48,10.48-16.812,0-3.638-1.164-12.371-12.226-15.573a15.135,15.135,0,0,0,9.1-13.974A15.772,15.772,0,0,0,184.83,4.612c-4.148-2.984-9.315-3.348-18.194-3.348Zm87.55,14.991L237.3,40.2H219.617ZM221.582,1.191,196.474,65.744h13.9l5.313-14.628h25.763l5.6,14.628h14.264L235.482,1.191ZM290.1.1C270.7,1.284,262.263,16.7,262.263,34.014c0,19.207,10.914,31.693,27.142,32.749h4.69c19.01-1.161,23.024-15.918,24.352-20.741l-12.59-4c-1.6,7.059-5.6,13.609-14.264,13.609-5.749,0-10.116-2.693-12.445-6.332-2.693-4.148-3.421-10.189-3.421-16.229,0-4.148,0-21.833,16.011-21.833,6.7,0,12.008,3.784,13.609,10.843l12.881-3.056c-1.237-4.512-2.911-8.3-6.113-11.571A26.631,26.631,0,0,0,294.813.1Z" transform="translate(-140.8 -0.1)" fill="#fff"/>
    </clipPath>
    <clipPath id="clip-path-2">
      <rect id="Rectangle_1132" data-name="Rectangle 1132" width="436.73" height="81.664" fill="#fff"/>
    </clipPath>
    <clipPath id="clip-path-3">
      <path id="Path_2362" data-name="Path 2362" d="M91.1,5.5" transform="translate(-91.1 -5.5)" fill="#fff"/>
    </clipPath>
    <clipPath id="clip-path-5">
      <path id="Path_2364" data-name="Path 2364" d="M91.1,75.4" transform="translate(-91.1 -75.4)" fill="#fff"/>
    </clipPath>
    <clipPath id="clip-path-7">
      <path id="Path_2366" data-name="Path 2366" d="M111.3,40.4" transform="translate(-111.3 -40.4)" fill="#fff"/>
    </clipPath>
    <clipPath id="clip-path-8">
      <path id="Path_2367" data-name="Path 2367" d="M46.263.1a3.768,3.768,0,0,0-3.348,1.965l-8.3,14.41h4.294L45.753,4.539a2.215,2.215,0,0,1,.582-.582,1.461,1.461,0,0,1,.8-.219h27.8a1.468,1.468,0,0,1,.8.219,1.49,1.49,0,0,1,.582.582l13.9,24.088a1.471,1.471,0,0,1,.218.8,1.661,1.661,0,0,1-.218.8l-13.9,24.089a1.49,1.49,0,0,1-.582.582,1.467,1.467,0,0,1-.8.218H47.063a1.659,1.659,0,0,1-.8-.218,1.49,1.49,0,0,1-.582-.582L38.621,42.165H34.4l8.442,14.7a3.894,3.894,0,0,0,2.6,1.891H76.347a3.723,3.723,0,0,0,2.592-1.891l14.7-25.472a3.679,3.679,0,0,0,0-3.857L78.939,2.065A3.853,3.853,0,0,0,75.591.1Z" transform="translate(-34.4 -0.1)" fill="#fff"/>
    </clipPath>
  </defs>
  <g id="section-img-bms" transform="translate(-93.844 -4093.196)">
    <g id="Group_6230" data-name="Group 6230" transform="translate(93.844 4093.196)">
      <path id="Path_3081" data-name="Path 3081" d="M137.537,0V32.532H78.966V14.3h-4.1V32.532H4.1V14.008H0V36.638H358.637V16.781h-4.1V32.532H317.266V16.49h-4.1V32.532H278.742V14.958h-4.106V32.532H206.143V15.323h-4.106V32.532H141.642V0Z" transform="translate(48.758 45.121)" fill="#fff"/>
      <g id="Group_5331" data-name="Group 5331" transform="translate(102.471 0.073)" clip-path="url(#clip-path)">
        <rect id="Rectangle_1131" data-name="Rectangle 1131" width="316.213" height="66.663" transform="translate(0 0)" fill="#fff"/>
      </g>
      <g id="Group_5335" data-name="Group 5335" transform="translate(0 0)" clip-path="url(#clip-path-2)">
        <g id="Group_5334" data-name="Group 5334" transform="translate(66.299 4.003)">
          <g id="Group_5333" data-name="Group 5333" clip-path="url(#clip-path-3)">
            <path id="Path_2361" data-name="Path 2361" d="M91.1,5.5Z" transform="translate(-91.1 -5.5)" fill="#fff"/>
          </g>
        </g>
      </g>
      <g id="Group_5339" data-name="Group 5339" transform="translate(0 0)" clip-path="url(#clip-path-2)">
        <g id="Group_5338" data-name="Group 5338" transform="translate(66.299 54.873)">
          <g id="Group_5337" data-name="Group 5337" clip-path="url(#clip-path-5)">
            <path id="Path_2363" data-name="Path 2363" d="M91.1,75.4Z" transform="translate(-91.1 -75.4)" fill="#fff"/>
          </g>
        </g>
      </g>
      <g id="Group_5343" data-name="Group 5343" transform="translate(0 0)" clip-path="url(#clip-path-2)">
        <g id="Group_5342" data-name="Group 5342" transform="translate(81 29.402)">
          <g id="Group_5341" data-name="Group 5341" clip-path="url(#clip-path-7)">
            <path id="Path_2365" data-name="Path 2365" d="M111.3,40.4Z" transform="translate(-111.3 -40.4)" fill="#fff"/>
          </g>
        </g>
      </g>
      <g id="Group_5345" data-name="Group 5345" transform="translate(25.033 0.073)" clip-path="url(#clip-path-8)">
        <rect id="Rectangle_1135" data-name="Rectangle 1135" width="59.968" height="58.657" transform="translate(0 0)" fill="#fff"/>
      </g>
      <path id="Path_2368" data-name="Path 2368" d="M5.968,31.722l1.164,8.442H4.658ZM3.857,26.7,0,46.35H3.639l.509-3.2H7.5l.509,3.2h3.639L8.005,26.7Z" transform="translate(0 -7.269)" fill="#fff"/>
      <g id="Group_5347" data-name="Group 5347" transform="translate(0 0)" clip-path="url(#clip-path-2)">
        <path id="Path_2369" data-name="Path 2369" d="M16.7,39.273h3.639v2.256c0,1.164,0,2.256,1.747,2.256,1.819,0,1.819-1.164,1.819-2.911a2.609,2.609,0,0,0-1.237-2.62l-3.42-2.329a4.88,4.88,0,0,1-2.329-4.585c0-1.528.146-2.984,1.383-4.075a6.285,6.285,0,0,1,3.93-1.164c2.111,0,5.022.873,5.022,4.221v1.965H23.687V30.83c0-.946,0-2.038-1.6-2.038-.946,0-1.674.364-1.674,1.965,0,1.674.364,2.038,1.164,2.547l3.566,2.4A6.692,6.692,0,0,1,27.034,37.6a5.267,5.267,0,0,1,.509,3.057c0,1.747,0,2.838-.655,3.857-1.092,1.747-3.348,1.965-4.658,1.965-3.057,0-5.458-1.164-5.458-4.512V39.273Z" transform="translate(-4.546 -7.105)" fill="#fff"/>
        <path id="Path_2370" data-name="Path 2370" d="M33.5,26.7h3.639v7.787h3.275V26.7h3.639v19.65H40.414V37.4H37.139v8.951H33.5Z" transform="translate(-9.12 -7.269)" fill="#fff"/>
        <path id="Path_2371" data-name="Path 2371" d="M50.7,26.7h7.2c3.566,0,3.566,2.4,3.566,4.148v2.111c0,2.474-.8,2.984-2.547,3.348a3.143,3.143,0,0,1,2.693,3.42v4a3,3,0,0,0,.873,2.62h-4a4.319,4.319,0,0,1-.509-2.183V39.945c0-1.31,0-2.256-1.892-2.256H54.339v8.66H50.7Zm3.639,8.224h1.892c1.674,0,1.674-.873,1.674-1.892V31.139c0-1.6-.873-1.6-1.674-1.6H54.339Z" transform="translate(-13.802 -7.269)" fill="#fff"/>
        <path id="Path_2372" data-name="Path 2372" d="M70.157,26.7h4.148l3.639,19.65H74.305l-.509-3.2H70.448l-.509,3.2H66.3Zm.728,13.464h2.474l-1.164-8.442Z" transform="translate(-18.049 -7.269)" fill="#fff"/>
        <path id="Path_2373" data-name="Path 2373" d="M83.4,26.7h9.534v2.984H87.039v4.658H92.57v2.984H87.039v6.04h6.113v2.984H83.4Z" transform="translate(-22.705 -7.269)" fill="#fff"/>
        <path id="Path_2374" data-name="Path 2374" d="M587.4,21.41a7.205,7.205,0,1,1,7.278-7.132A7.173,7.173,0,0,1,587.4,21.41m0-13.827a6.586,6.586,0,1,0,6.623,6.623A6.585,6.585,0,0,0,587.4,7.582m-.073,1.965a5.657,5.657,0,0,1,2.111.218,2.15,2.15,0,0,1,1.455,2.111,2.153,2.153,0,0,1-1.892,2.183,2,2,0,0,1,1.31,1.892,10.433,10.433,0,0,0,.655,2.693h-1.819a6.119,6.119,0,0,1-.509-1.965c-.292-1.892-.437-2.111-2.693-2.111v4.075h-1.6v-9.1Zm-1.31,3.784h1.31c.655,0,1.965,0,1.965-1.237A1.146,1.146,0,0,0,588.642,11a3.689,3.689,0,0,0-1.6-.146h-1.019Z" transform="translate(-157.953 -1.906)" fill="#fff"/>
      </g>
    </g>
    <text id="BACnet_is_a_trademark_of_ASHRAE." data-name="BACnet® is a trademark of ASHRAE." transform="translate(312.209 4216.07)" fill="#fff" font-size="8" font-family="Raleway-Regular, Raleway"><tspan x="-65.069" y="0">BACnet</tspan><tspan y="0" font-size="4.666" baseline-shift="2.66639997471509">®</tspan><tspan y="0" xml:space="preserve"> is a trademark of ASHRAE.</tspan></text>
  </g>
</svg>
