<?xml version="1.0" encoding="UTF-8"?>
<svg id="Layer_1" xmlns="http://www.w3.org/2000/svg" version="1.1" xmlns:xlink="http://www.w3.org/1999/xlink" viewBox="0 0 610.5 147.5">
  <!-- Generator: Adobe Illustrator 30.2.1, SVG Export Plug-In . SVG Version: 2.1.1 Build 1)  -->
  <defs>
    <style>
      .st0 {
        clip-path: url(#clippath-4);
      }

      .st1, .st2 {
        fill: #fff;
      }

      .st2 {
        fill-rule: evenodd;
      }

      .st3 {
        fill: none;
      }

      .st4 {
        clip-path: url(#clippath-1);
      }

      .st5 {
        isolation: isolate;
      }

      .st6 {
        clip-path: url(#clippath-5);
      }

      .st7 {
        clip-path: url(#clippath-3);
      }

      .st8 {
        clip-path: url(#clippath-2);
      }

      .st9 {
        clip-path: url(#clippath);
      }
    </style>
    <clipPath id="clippath">
      <path class="st3" d="M364.9,51.9c1.9,0,9,.7,9.2,10.9h-18.5c0-6.1,3.4-10.9,9.3-10.9M342.7,67.2c0,4.5.9,8.9,2.8,13,4.2,9,12.6,10.8,17.6,11.1h4.4c13.7-1,17.3-11.1,18.2-13.8l-12.4-2.1c-.7,2.2-2.1,6.5-7.9,6.5s-10-5.9-10.2-11.4h31c.3-13.8-4.6-27.9-22.2-27.9s-21.3,12.1-21.3,24.7M302.5,50.4h-.1v-6.8h-11.6v46.7h12.4v-21.2c0-3.8,0-9,1.4-11.6,1.6-3.5,5.1-5.6,9-5.5,7.6,0,7.6,6.8,7.6,14.4v23.9h12.4v-29c0-4.6,0-11.5-4.9-15.3-3.1-2.3-6.9-3.5-10.7-3.4-6.1,0-11.9,3-15.4,8M396.8,34.3v9.3h-5.7v9.8h5.7v20.4c0,7.1.2,9.9,1.7,12.8,1.5,2.8,5,4.2,8.3,4.7h4.9c2.4-.2,4.8-.8,7.1-1.7v-.7l-1-8.9h-.4c-1.4.8-3,1.1-4.6,1.2-3.4,0-3.4-2.2-3.4-8.8v-18.9h8.4v-9.8h-8.4v-16.6l-12.5,7.2ZM115.4,62.3h10.6c9.1,0,17.1,0,17.1,8.8.1,3.4-2.1,6.5-5.3,7.5-2,.7-7.5.7-10.3.7h-12.1v-17ZM115.5,36.7h0ZM115.5,36.7h7.5c9.4,0,10.9,0,12.8.5,3,.9,5,3.7,4.9,6.8,0,6.8-6.7,7.4-11.1,7.4h-14.1v-14.8ZM102.5,25.8v64.5h22c13.7,0,17.8-.3,21.6-1.9,6.9-3.1,10.5-10.5,10.5-16.8s-1.2-12.4-12.2-15.6c5.6-2.4,9.1-7.9,9.1-14,0-5.2-2.6-10-6.9-12.9-4.1-3-9.3-3.3-18.2-3.3h-25.8ZM190,40.8l9,23.9h-17.7l8.7-23.9ZM183.3,25.7l-25.1,64.6h13.9l5.3-14.6h25.8l5.6,14.6h14.3l-25.8-64.6h-13.9ZM251.8,24.6c-19.4,1.2-27.8,16.6-27.8,33.9s10.9,31.7,27.1,32.7h4.7c19-1.2,23-15.9,24.4-20.7l-12.6-4c-1.6,7.1-5.6,13.6-14.3,13.6s-10.1-2.7-12.4-6.3c-2.7-4.1-3.4-10.2-3.4-16.2s0-21.8,16-21.8,12,3.8,13.6,10.8l12.9-3.1c-1.2-4.5-2.9-8.3-6.1-11.6-4.7-4.5-10.8-7.1-17.3-7.4h-4.7Z"/>
    </clipPath>
    <clipPath id="clippath-1">
      <rect class="st3" y="24.6" width="436.7" height="81.7"/>
    </clipPath>
    <clipPath id="clippath-2">
      <rect class="st3" y="24.6" width="436.7" height="81.7"/>
    </clipPath>
    <clipPath id="clippath-3">
      <rect class="st3" y="24.6" width="436.7" height="81.7"/>
    </clipPath>
    <clipPath id="clippath-4">
      <path class="st3" d="M36.9,24.6c-1.4,0-2.7.7-3.3,2l-8.3,14.4h4.3l6.8-11.9c.2-.2.4-.4.6-.6.2-.1.5-.2.8-.2h27.8c.3,0,.6,0,.8.2.2.1.4.3.6.6l13.9,24.1c.1.2.2.5.2.8,0,.3,0,.6-.2.8l-13.9,24.1c-.1.2-.3.4-.6.6-.2.1-.5.2-.8.2h-27.9c-.3,0-.6,0-.8-.2-.2-.1-.4-.3-.6-.6l-7.1-12.2h-4.2l8.4,14.7c.6,1,1.5,1.7,2.6,1.9h30.9c1.1-.2,2.1-.9,2.6-1.9l14.7-25.5c.7-1.2.7-2.7,0-3.9l-14.7-25.5c-.7-1.2-2-2-3.3-2h-29.3Z"/>
    </clipPath>
    <clipPath id="clippath-5">
      <rect class="st3" y="24.6" width="436.7" height="81.7"/>
    </clipPath>
  </defs>
  <g id="section-img-bms">
    <g id="Group_6230">
      <path id="Path_3081" class="st1" d="M186.3,69.7v32.5h-58.6v-18.2h-4.1v18.2H52.9v-18.5h-4.1v22.6h358.6v-19.9h-4.1v15.8h-37.3v-16h-4.1v16h-34.4v-17.6h-4.1v17.6h-68.5v-17.2h-4.1v17.2h-60.4v-32.5h-4.1Z"/>
      <g class="st9">
        <g id="Group_5331">
          <rect id="Rectangle_1131" class="st1" x="102.5" y="24.6" width="316.2" height="66.7"/>
        </g>
      </g>
      <g class="st4">
        <g id="Group_5335">
          <g id="Group_5334">
            <g>
              <path class="st3" d="M66.3,28.6"/>
              <g id="Group_5333">
                <path id="Path_2361" class="st1" d="M66.3,28.6"/>
              </g>
            </g>
          </g>
        </g>
      </g>
      <g class="st8">
        <g id="Group_5339">
          <g id="Group_5338">
            <g>
              <path class="st3" d="M66.3,79.4"/>
              <g id="Group_5337">
                <path id="Path_2363" class="st1" d="M66.3,79.4"/>
              </g>
            </g>
          </g>
        </g>
      </g>
      <g class="st7">
        <g id="Group_5343">
          <g id="Group_5342">
            <g>
              <path class="st3" d="M81,54"/>
              <g id="Group_5341">
                <path id="Path_2365" class="st1" d="M81,54"/>
              </g>
            </g>
          </g>
        </g>
      </g>
      <g class="st0">
        <g id="Group_5345">
          <rect id="Rectangle_1135" class="st1" x="25" y="24.6" width="60" height="58.7"/>
        </g>
      </g>
      <path id="Path_2368" class="st1" d="M6,49l1.2,8.4h-2.5l1.3-8.4ZM3.9,44L0,63.7h3.6l.5-3.2h3.4l.5,3.2h3.6l-3.6-19.6H3.9Z"/>
      <g class="st6">
        <g id="Group_5347">
          <path id="Path_2369" class="st1" d="M12.2,56.7h3.6v2.3c0,1.2,0,2.3,1.7,2.3s1.8-1.2,1.8-2.9c.2-1-.3-2.1-1.2-2.6l-3.4-2.3c-1.6-1-2.5-2.7-2.3-4.6,0-1.5.1-3,1.4-4.1,1.1-.8,2.5-1.2,3.9-1.2,2.1,0,5,.9,5,4.2v2h-3.6v-1.5c0-.9,0-2-1.6-2s-1.7.4-1.7,2,.4,2,1.2,2.5l3.6,2.4c.8.5,1.4,1.1,1.9,1.9.5.9.6,2,.5,3.1,0,1.7,0,2.8-.7,3.9-1.1,1.7-3.3,2-4.7,2-3.1,0-5.5-1.2-5.5-4.5v-2.7h0Z"/>
          <path id="Path_2370" class="st1" d="M24.4,44h3.6v7.8h3.3v-7.8h3.6v19.6h-3.6v-8.9h-3.3v9h-3.6v-19.7Z"/>
          <path id="Path_2371" class="st1" d="M36.9,44h7.2c3.6,0,3.6,2.4,3.6,4.1v2.1c0,2.5-.8,3-2.5,3.3,1.7.2,2.9,1.7,2.7,3.4v4c-.2,1,.2,1.9.9,2.6h-4c-.4-.7-.5-1.4-.5-2.2v-4.2c0-1.3,0-2.3-1.9-2.3h-1.7v8.7h-3.6v-19.6ZM40.5,52.2h1.9c1.7,0,1.7-.9,1.7-1.9v-1.9c0-1.6-.9-1.6-1.7-1.6h-1.9v5.4Z"/>
          <path id="Path_2372" class="st1" d="M52.1,44h4.1l3.6,19.6h-3.6l-.5-3.2h-3.3l-.5,3.2h-3.6l3.9-19.6ZM52.8,57.5h2.5l-1.2-8.4-1.3,8.4Z"/>
          <path id="Path_2373" class="st1" d="M60.7,44h9.5v3h-5.9v4.7h5.5v3h-5.5v6h6.1v3h-9.8v-19.7Z"/>
          <path id="Path_2374" class="st1" d="M429.4,44.1c-4,0-7.2-3.3-7.1-7.3,0-4,3.3-7.2,7.3-7.1,4,0,7.2,3.3,7.1,7.3,0,4-3.3,7.2-7.2,7.1,0,0,0,0,0,0M429.4,30.3c-3.6,0-6.6,3-6.5,6.6,0,3.6,3,6.6,6.6,6.5,3.6,0,6.5-2.9,6.5-6.5,0-3.6-2.9-6.6-6.5-6.6,0,0,0,0,0,0M429.4,32.2c.7,0,1.4,0,2.1.2.9.3,1.5,1.2,1.5,2.1,0,1.1-.8,2-1.9,2.2.8.3,1.3,1,1.3,1.9,0,.9.3,1.8.7,2.7h-1.8c-.3-.6-.4-1.3-.5-2-.3-1.9-.4-2.1-2.7-2.1v4.1h-1.6v-9.1h3ZM428.1,36h1.3c.7,0,2,0,2-1.2,0-.5-.2-.9-.7-1.1-.5-.2-1.1-.2-1.6-.1h-1v2.5Z"/>
        </g>
      </g>
    </g>
    <g id="BACnet_is_a_trademark_of_ASHRAE." class="st5">
      <g class="st5">
        <path class="st1" d="M158.3,146c0,.2,0,.4-.1.6,0,.2-.2.3-.3.5-.1.1-.3.2-.5.3-.2,0-.4.1-.6.1h-2.7v-5.7h2.7c.2,0,.4,0,.5.1.2,0,.3.2.4.3.1.1.2.3.3.5,0,.2,0,.3,0,.5,0,.3,0,.6-.2.8-.1.2-.3.4-.6.5.3,0,.6.3.8.5.2.3.3.6.3.9ZM154.6,142.3v2.1h2c.1,0,.3,0,.4,0,.1,0,.2-.1.3-.2,0,0,.2-.2.2-.3s0-.3,0-.4,0-.3,0-.4c0-.1-.1-.2-.2-.3,0,0-.2-.2-.3-.2s-.2,0-.4,0h-2ZM157.7,145.9c0-.1,0-.3,0-.4s-.1-.2-.2-.3c0,0-.2-.2-.3-.2-.1,0-.2,0-.4,0h-2.2v2.2h2.1c.1,0,.3,0,.4,0,.1,0,.2-.1.3-.2,0,0,.2-.2.2-.3,0-.1,0-.3,0-.4Z"/>
        <path class="st1" d="M158.6,147.4l2.4-5.7h.5l2.4,5.7h-.6l-.7-1.8h-2.6l-.7,1.8h-.6ZM161.3,142.4l-1.2,2.8h2.3l-1.1-2.8Z"/>
        <path class="st1" d="M164.3,144.6c0-.3,0-.7.2-1,.1-.3.3-.6.5-.9.2-.3.5-.5.8-.7.3-.2.7-.3,1.1-.3s.9.1,1.3.3c.4.2.6.5.8.9l-.4.3c0-.2-.2-.3-.3-.5-.1-.1-.3-.2-.4-.3-.1,0-.3-.1-.5-.2-.2,0-.3,0-.5,0-.3,0-.6,0-.9.2s-.5.3-.7.5c-.2.2-.3.5-.4.8,0,.3-.1.6-.1.9s0,.6.2.9c.1.3.3.5.4.8s.4.4.7.5c.3.1.5.2.8.2s.3,0,.5,0c.2,0,.3-.1.5-.2s.3-.2.4-.3.2-.3.3-.5l.5.2c0,.2-.2.4-.4.6-.2.2-.3.3-.6.4-.2.1-.4.2-.6.3-.2,0-.4,0-.7,0-.4,0-.7,0-1.1-.3-.3-.2-.6-.4-.8-.7-.2-.3-.4-.6-.5-.9-.1-.3-.2-.7-.2-1.1Z"/>
        <path class="st1" d="M173.6,147.4h-.5v-2.3c0-.5,0-.9-.2-1.1-.1-.2-.4-.3-.7-.3s-.3,0-.5,0c-.2,0-.3.1-.4.2-.1.1-.3.2-.4.4s-.2.3-.2.5v2.6h-.5v-4.2h.5v.9c0-.2.2-.3.3-.4.1-.1.3-.2.4-.3.2,0,.3-.2.5-.2.2,0,.4,0,.5,0s.4,0,.6.1.3.2.4.4c0,.2.2.3.2.6s0,.5,0,.7v2.4Z"/>
        <path class="st1" d="M176.5,147.5c-.3,0-.6,0-.8-.2-.3-.1-.5-.3-.7-.5-.2-.2-.3-.4-.4-.7s-.2-.5-.2-.8,0-.6.2-.8c.1-.3.2-.5.4-.7.2-.2.4-.3.7-.5.3-.1.5-.2.8-.2s.6,0,.8.2c.3.1.5.3.7.5.2.2.3.4.4.7.1.3.2.5.2.8s0,0,0,.1c0,0,0,0,0,0h-3.6c0,.2,0,.4.2.6s.2.4.3.5c.1.1.3.2.5.3.2,0,.4.1.6.1s.3,0,.4,0c.1,0,.3,0,.4-.2.1,0,.2-.1.3-.2s.2-.2.2-.3h.5c0,.3-.2.4-.3.5-.1.1-.3.2-.4.3-.2,0-.3.2-.5.2s-.4,0-.6,0ZM178,145.1c0-.2,0-.4-.2-.6s-.2-.3-.3-.5c-.1-.1-.3-.2-.5-.3-.2,0-.4-.1-.6-.1s-.4,0-.6.1c-.2,0-.3.2-.5.3-.1.1-.2.3-.3.5,0,.2-.1.4-.1.6h3.1Z"/>
        <path class="st1" d="M181.4,147.3s0,0-.1,0c0,0-.1,0-.2,0,0,0-.2,0-.3,0-.1,0-.2,0-.3,0s-.2,0-.3,0c-.1,0-.2,0-.3-.1,0,0-.1-.2-.2-.3,0,0,0-.2,0-.4v-3h-.6v-.4h.6v-1.4h.5v1.4h1v.4h-1v2.8c0,.2,0,.3.2.3,0,0,.2.1.3.1s.3,0,.4,0,.2,0,.2-.1v.4Z"/>
      </g>
      <g class="st5">
        <path class="st1" d="M183.4,144.8c-.2,0-.5,0-.7-.1s-.4-.2-.5-.4c-.2-.2-.3-.3-.4-.5s-.1-.4-.1-.7,0-.5.1-.7c0-.2.2-.4.4-.5s.3-.3.5-.4c.2,0,.4-.1.7-.1s.5,0,.7.1c.2,0,.4.2.5.4s.3.3.4.5c0,.2.1.4.1.7s0,.5-.1.7-.2.4-.4.5c-.2.2-.3.3-.5.4s-.4.1-.7.1ZM183.4,144.7c.2,0,.4,0,.6-.1.2,0,.4-.2.5-.3s.2-.3.3-.5c0-.2.1-.4.1-.6s0-.4-.1-.6c0-.2-.2-.3-.3-.5-.1-.1-.3-.2-.5-.3-.2,0-.4-.1-.6-.1s-.4,0-.6.1c-.2,0-.4.2-.5.3-.1.1-.2.3-.3.5,0,.2-.1.4-.1.6s0,.4.1.6.2.3.3.5c.1.1.3.2.5.3.2,0,.4.1.6.1ZM182.6,142.1h.9c0,0,.2,0,.2,0,0,0,.1,0,.2.2,0,0,0,.1.1.2s0,.2,0,.2c0,.2,0,.3-.1.4,0,.1-.2.2-.3.2l.5.8h-.3l-.5-.8h-.6v.8h-.2v-2.1ZM183.5,143.2c.1,0,.2,0,.3-.1,0,0,0-.2,0-.3s0-.2-.1-.3c0,0-.2-.1-.3-.1h-.6v.9h.6Z"/>
      </g>
      <g class="st5">
        <path class="st1" d="M187.9,142.4v-.8h.5v.8h-.5ZM187.9,147.4v-4.2h.5v4.2h-.5Z"/>
        <path class="st1" d="M191.1,147.5c-.3,0-.6,0-1-.2-.3-.1-.6-.3-.8-.5l.2-.4c.2.2.5.3.7.4.2,0,.5.1.8.1s.6,0,.8-.2c.2-.1.3-.3.3-.6s0-.2,0-.3c0,0-.1-.1-.2-.2s-.2-.1-.4-.2-.3,0-.5-.1c-.2,0-.4-.1-.6-.2-.2,0-.3-.1-.4-.2-.1,0-.2-.2-.3-.3,0-.1,0-.2,0-.4s0-.4.1-.6c0-.2.2-.3.3-.4.1-.1.3-.2.5-.2.2,0,.4,0,.6,0,.3,0,.6,0,.9.2s.5.2.6.4l-.3.3c-.2-.2-.3-.3-.6-.4-.2,0-.5-.1-.7-.1s-.3,0-.4,0-.2,0-.3.1c0,0-.2.1-.2.2,0,0,0,.2,0,.3s0,.2,0,.3c0,0,0,.1.2.2,0,0,.2,0,.3.1.1,0,.3,0,.5.1.3,0,.5.1.7.2.2,0,.4.1.5.2.1,0,.2.2.3.3s.1.3.1.4c0,.4-.1.7-.4.9s-.7.3-1.2.3Z"/>
        <path class="st1" d="M196.7,147.5c-.2,0-.4,0-.6,0s-.3-.2-.5-.3c-.1-.1-.2-.3-.3-.4s-.1-.3-.1-.5,0-.4.1-.5c0-.2.2-.3.4-.4.2-.1.3-.2.6-.3.2,0,.5,0,.7,0s.4,0,.6,0,.4,0,.6.2v-.4c0-.4-.1-.7-.3-.9-.2-.2-.5-.3-.9-.3s-.4,0-.7.1c-.2,0-.4.2-.7.4l-.2-.4c.3-.2.5-.3.8-.4.3,0,.5-.1.8-.1.5,0,.9.1,1.2.4s.4.7.4,1.2v1.9c0,.1,0,.2.2.2v.5s0,0-.1,0c0,0,0,0,0,0-.1,0-.2,0-.3,0,0,0-.1-.2-.1-.3v-.3c-.2.2-.4.4-.7.6-.3.1-.6.2-.9.2ZM196.8,147.1c.2,0,.5,0,.7-.2.2-.1.4-.2.6-.4,0,0,0,0,0-.2,0,0,0-.1,0-.2v-.7c-.2,0-.4-.1-.6-.2-.2,0-.4,0-.6,0-.4,0-.7,0-.9.2-.2.2-.4.4-.4.7s0,.2,0,.3c0,.1.1.2.2.3,0,0,.2.2.3.2.1,0,.3,0,.5,0Z"/>
        <path class="st1" d="M204.1,147.3s0,0-.1,0c0,0-.1,0-.2,0,0,0-.2,0-.3,0-.1,0-.2,0-.3,0s-.2,0-.3,0c-.1,0-.2,0-.3-.1,0,0-.1-.2-.2-.3,0,0,0-.2,0-.4v-3h-.6v-.4h.6v-1.4h.5v1.4h1v.4h-1v2.8c0,.2,0,.3.2.3,0,0,.2.1.3.1s.3,0,.4,0,.2,0,.2-.1v.4Z"/>
        <path class="st1" d="M206.8,143.8c-.4,0-.7.1-1,.3-.3.2-.5.5-.6.8v2.6h-.5v-4.2h.5v1c.1-.3.3-.5.6-.7.2-.2.5-.3.8-.3h.1s0,0,.1,0v.5Z"/>
        <path class="st1" d="M208.5,147.5c-.2,0-.4,0-.6,0s-.3-.2-.5-.3c-.1-.1-.2-.3-.3-.4s-.1-.3-.1-.5,0-.4.1-.5c0-.2.2-.3.4-.4.2-.1.3-.2.6-.3.2,0,.5,0,.7,0s.4,0,.6,0,.4,0,.6.2v-.4c0-.4-.1-.7-.3-.9-.2-.2-.5-.3-.9-.3s-.4,0-.7.1c-.2,0-.4.2-.7.4l-.2-.4c.3-.2.5-.3.8-.4.3,0,.5-.1.8-.1.5,0,.9.1,1.2.4s.4.7.4,1.2v1.9c0,.1,0,.2.2.2v.5s0,0-.1,0c0,0,0,0,0,0-.1,0-.2,0-.3,0,0,0-.1-.2-.1-.3v-.3c-.2.2-.4.4-.7.6-.3.1-.6.2-.9.2ZM208.7,147.1c.2,0,.5,0,.7-.2.2-.1.4-.2.6-.4,0,0,0,0,0-.2,0,0,0-.1,0-.2v-.7c-.2,0-.4-.1-.6-.2-.2,0-.4,0-.6,0-.4,0-.7,0-.9.2-.2.2-.4.4-.4.7s0,.2,0,.3c0,.1.1.2.2.3,0,0,.2.2.3.2.1,0,.3,0,.5,0Z"/>
        <path class="st1" d="M213.5,147.5c-.3,0-.6,0-.8-.2-.2-.1-.5-.3-.6-.5s-.3-.4-.4-.7c0-.3-.1-.5-.1-.8s0-.6.1-.8c0-.3.2-.5.4-.7s.4-.4.6-.5c.2-.1.5-.2.8-.2s.7,0,.9.3c.3.2.5.4.6.7v-2.5h.5v5.1c0,.1,0,.2.2.2v.5c0,0-.2,0-.2,0-.1,0-.2,0-.3-.1,0,0-.1-.2-.1-.3v-.4c-.2.3-.4.5-.7.6s-.6.2-.9.2ZM213.6,147c.1,0,.3,0,.4,0,.2,0,.3-.1.4-.2.1,0,.2-.2.3-.3s.2-.3.2-.4v-1.3c0-.1-.1-.3-.2-.4s-.2-.2-.4-.3-.3-.2-.4-.2-.3,0-.4,0c-.2,0-.4,0-.6.1s-.3.2-.5.4c-.1.2-.2.3-.3.5s-.1.4-.1.6,0,.4.1.6c0,.2.2.4.3.5.1.2.3.3.5.4.2,0,.4.1.6.1Z"/>
        <path class="st1" d="M218.6,147.5c-.3,0-.6,0-.8-.2-.3-.1-.5-.3-.7-.5-.2-.2-.3-.4-.4-.7s-.2-.5-.2-.8,0-.6.2-.8c.1-.3.2-.5.4-.7.2-.2.4-.3.7-.5.3-.1.5-.2.8-.2s.6,0,.8.2c.3.1.5.3.7.5s.3.4.4.7.2.5.2.8,0,0,0,.1c0,0,0,0,0,0h-3.6c0,.2,0,.4.2.6s.2.4.3.5c.1.1.3.2.5.3.2,0,.4.1.6.1s.3,0,.4,0c.1,0,.3,0,.4-.2.1,0,.2-.1.3-.2s.2-.2.2-.3h.5c0,.3-.2.4-.3.5-.1.1-.3.2-.4.3-.2,0-.3.2-.5.2s-.4,0-.6,0ZM220.1,145.1c0-.2,0-.4-.2-.6s-.2-.3-.3-.5c-.1-.1-.3-.2-.5-.3s-.4-.1-.6-.1-.4,0-.6.1c-.2,0-.3.2-.5.3-.1.1-.2.3-.3.5,0,.2-.1.4-.1.6h3.1Z"/>
        <path class="st1" d="M227.7,147.4h-.5v-2.3c0-.5,0-.8-.2-1.1-.2-.2-.4-.3-.7-.3s-.3,0-.5,0-.3.1-.4.2c-.1.1-.2.2-.3.4s-.2.3-.2.5v2.5h-.5v-2.3c0-.5,0-.9-.2-1.1-.1-.2-.4-.3-.7-.3s-.6.1-.8.3-.4.5-.5.9v2.6h-.5v-4.2h.5v.9c.2-.3.4-.6.7-.7.3-.2.6-.3.9-.3s.6,0,.8.3c.2.2.3.5.4.8.4-.7.9-1.1,1.6-1.1s.4,0,.6.1c.2,0,.3.2.4.4,0,.2.2.3.2.6,0,.2,0,.5,0,.7v2.4Z"/>
        <path class="st1" d="M229.9,147.5c-.2,0-.4,0-.6,0s-.3-.2-.5-.3c-.1-.1-.2-.3-.3-.4s-.1-.3-.1-.5,0-.4.1-.5c0-.2.2-.3.4-.4.2-.1.3-.2.6-.3.2,0,.5,0,.7,0s.4,0,.6,0,.4,0,.6.2v-.4c0-.4-.1-.7-.3-.9-.2-.2-.5-.3-.9-.3s-.4,0-.7.1c-.2,0-.4.2-.7.4l-.2-.4c.3-.2.5-.3.8-.4.3,0,.5-.1.8-.1.5,0,.9.1,1.2.4s.4.7.4,1.2v1.9c0,.1,0,.2.2.2v.5s0,0-.1,0c0,0,0,0,0,0-.1,0-.2,0-.3,0,0,0-.1-.2-.1-.3v-.3c-.2.2-.4.4-.7.6-.3.1-.6.2-.9.2ZM230.1,147.1c.2,0,.5,0,.7-.2.2-.1.4-.2.6-.4,0,0,0,0,0-.2,0,0,0-.1,0-.2v-.7c-.2,0-.4-.1-.6-.2-.2,0-.4,0-.6,0-.4,0-.7,0-.9.2-.2.2-.4.4-.4.7s0,.2,0,.3c0,.1.1.2.2.3,0,0,.2.2.3.2.1,0,.3,0,.5,0Z"/>
        <path class="st1" d="M235.3,143.8c-.4,0-.7.1-1,.3-.3.2-.5.5-.6.8v2.6h-.5v-4.2h.5v1c.1-.3.3-.5.6-.7.2-.2.5-.3.8-.3h.1s0,0,.1,0v.5Z"/>
        <path class="st1" d="M239,147.4l-1.5-2.1-.9.8v1.3h-.5v-5.8h.5v4l2.3-2.3h.6l-1.7,1.7,1.8,2.5h-.6Z"/>
        <path class="st1" d="M244.1,147.5c-.3,0-.6,0-.8-.2-.3-.1-.5-.3-.7-.5-.2-.2-.3-.4-.4-.7-.1-.3-.2-.5-.2-.8s0-.6.2-.8c.1-.3.2-.5.4-.7.2-.2.4-.4.7-.5.3-.1.5-.2.8-.2s.6,0,.8.2c.3.1.5.3.7.5.2.2.3.4.4.7.1.3.2.5.2.8s0,.6-.2.8c-.1.3-.2.5-.4.7-.2.2-.4.4-.7.5-.3.1-.5.2-.8.2ZM242.6,145.4c0,.2,0,.5.1.7,0,.2.2.4.3.5.1.2.3.3.5.4.2,0,.4.1.6.1s.4,0,.6-.1c.2,0,.3-.2.5-.4.1-.2.2-.3.3-.5s.1-.4.1-.7,0-.4-.1-.7c0-.2-.2-.4-.3-.5-.1-.2-.3-.3-.5-.4s-.4-.1-.6-.1-.4,0-.6.1c-.2,0-.3.2-.5.4-.1.2-.2.3-.3.5,0,.2-.1.4-.1.7Z"/>
        <path class="st1" d="M247.2,147.4v-3.2h-.6v-.4h.6v-.6c0-.5.1-.9.3-1.2.2-.3.5-.4.9-.4s.3,0,.5,0,.3.1.4.2l-.2.4c0,0-.2-.1-.3-.1-.1,0-.2,0-.3,0-.3,0-.5,0-.6.3s-.2.5-.2.9v.6h1.2v.4h-1.2v3.2h-.5Z"/>
        <path class="st1" d="M251,147.4l2.4-5.7h.5l2.4,5.7h-.6l-.7-1.8h-2.6l-.7,1.8h-.6ZM253.6,142.4l-1.2,2.8h2.3l-1.1-2.8Z"/>
        <path class="st1" d="M260.2,142.8c-.2-.2-.4-.3-.6-.4-.3-.1-.6-.2-.9-.2-.5,0-.9,0-1.1.3s-.3.4-.3.8,0,.3,0,.4.2.2.3.3c.1,0,.3.1.5.2.2,0,.4.1.7.2.3,0,.6.1.8.2.2,0,.4.2.6.3.2.1.3.3.4.4,0,.2.1.4.1.6s0,.5-.2.7c-.1.2-.2.4-.4.5-.2.1-.4.2-.6.3-.2,0-.5,0-.8,0-.9,0-1.7-.3-2.3-.8l.3-.5c.2.2.5.4.8.6.4.2.7.2,1.2.2s.8,0,1.1-.2c.3-.2.4-.4.4-.7s0-.3-.1-.4c0-.1-.2-.2-.3-.3-.1,0-.3-.2-.5-.2s-.5-.1-.7-.2c-.3,0-.6-.1-.8-.2-.2,0-.4-.2-.6-.3s-.3-.2-.3-.4c0-.2-.1-.3-.1-.6s0-.5.1-.7c0-.2.2-.4.4-.5.2-.1.4-.2.6-.3s.5-.1.8-.1.7,0,1,.2c.3.1.6.3.8.5l-.3.4Z"/>
        <path class="st1" d="M266.3,141.8v5.7h-.6v-2.7h-3.4v2.7h-.6v-5.7h.6v2.5h3.4v-2.5h.6Z"/>
        <path class="st1" d="M267.7,147.4v-5.7h2.4c.2,0,.5,0,.7.2s.4.2.5.4c.1.2.3.4.3.6s.1.4.1.6,0,.4,0,.6c0,.2-.1.4-.3.5-.1.2-.2.3-.4.4-.2.1-.3.2-.5.2l1.4,2.2h-.6l-1.3-2.1h-1.7v2.1h-.6ZM268.3,144.9h1.9c.2,0,.3,0,.5-.1s.3-.2.3-.3c0-.1.2-.3.2-.4,0-.2,0-.3,0-.5s0-.3,0-.5c0-.2-.1-.3-.2-.4-.1-.1-.2-.2-.4-.3-.1,0-.3-.1-.4-.1h-1.8v2.6Z"/>
        <path class="st1" d="M272.3,147.4l2.4-5.7h.5l2.4,5.7h-.6l-.7-1.8h-2.6l-.7,1.8h-.6ZM274.9,142.4l-1.2,2.8h2.3l-1.1-2.8Z"/>
        <path class="st1" d="M282.2,147v.5h-3.8v-5.7h3.7v.5h-3.2v2h2.8v.5h-2.8v2.2h3.3Z"/>
        <path class="st1" d="M283.1,147.4v-.8h.5v.8h-.5Z"/>
      </g>
    </g>
  </g>
  <g>
    <g>
      <path class="st2" d="M481,64.7c0-35.8,29-64.7,64.7-64.7s64.7,29,64.7,64.7-29,64.7-64.7,64.7-64.7-29-64.7-64.7M484,64.7c0-34.1,27.6-61.7,61.7-61.7s61.7,27.7,61.7,61.7-27.7,61.7-61.7,61.7c-34.1,0-61.7-27.7-61.7-61.7"/>
      <path class="st2" d="M512.6,67.1v9.8h9.2c2.4,0,5.9-.1,5.9-5.3s-3-4.5-4.4-4.5h-10.7ZM520,83.7v12.2h24.6v-12.2h-2.4v-46.5h-11.5v-6.5h30.5v6.5h-11.1v46.5h-2.4v12.2h24.6v-12.2h-11.5v-38h7.8v31.5h18.2v6.5h-11.5v15.2h-58.3v-15.2h-12.1v-38h15.7c13,0,13.7,8.4,13.7,10,0,2.3-.8,5.5-3.6,7.8,2.3,1.7,4.5,5.1,4.5,9.6s-.6,5.1-4,8.1c-2.6,2.2-6.8,2.6-9.2,2.6h-2s0,0,0,0ZM512.6,52v8.7h8.9c3.3,0,5.3-1.3,5.3-4.3s-2.1-4.3-4.8-4.3h-9.3Z"/>
      <path class="st2" d="M513.5,17.5l1.4-.9c.5-.3,1.1-.5,1.6.1.4.6.1,1.1-.4,1.4l-1.5,1-1.1-1.6ZM515.6,24.2l3.3-2.1c1.2-.8,2-2.2,1.1-3.6-.5-.9-1.4-1.2-2.4-.9.4-.7.4-1.4,0-2-.8-1.3-2-1.1-3.3-.3l-3.2,2.1,4.5,6.9ZM515.2,20.1l1.6-1.1c.6-.4,1.3-.4,1.7.3s0,1.2-.5,1.6l-1.6,1.1-1.2-1.9Z"/>
      <path class="st2" d="M528.1,11h0l1.9,2.5-2,.6v-3.2ZM526.2,18.2l1.7-.6v-1.9c0,0,3-.9,3-.9l1.2,1.6,1.8-.6-5.5-6.9-1.8.6-.4,8.8Z"/>
      <path class="st1" d="M546.3,8.8c-.4-1.9-1.9-2.8-3.8-2.7-2.5.2-3.9,2.2-3.7,4.6.2,2.4,1.8,4.1,4.3,4,2-.1,3.3-1.6,3.4-3.6h-1.7c0,1.2-.6,2-1.7,2.1-1.6.1-2.3-1.2-2.4-2.6,0-1.4.4-2.8,2-3,.9,0,1.7.5,1.9,1.3l1.8-.2Z"/>
      <path class="st1" d="M552.7,14.9l1.6.3.6-3.1c.2-1.2.7-1.6,1.6-1.4.8.2.9.7.8,1.6l-.6,3.3,1.6.3.7-3.6c.3-1.5,0-2.5-1.7-2.8-.7-.1-1.5,0-2,.6h0l.2-.8-1.5-.3-1.1,5.9Z"/>
      <path class="st2" d="M566.8,15.1c.2-.4.8-1,1.8-.6.7.3.9.9.7,1.7l-2.4-1.1ZM570.3,17.8c.9-1.6.6-3.6-1.2-4.4-1.7-.7-3.3,0-4,1.6-.8,1.7-.2,3.3,1.5,4.1,1.2.5,2.4.4,3.3-.7l-1.3-.6c-.2.3-.9.5-1.5.2-.8-.4-1.1-1-.7-2l3.9,1.8Z"/>
      <path class="st1" d="M580.4,18.2l-1.3-1-1,1.5-.8-.6-.6.9.8.6-2.1,2.8c-.7,1-.1,1.7.7,2.3.3.2.6.4.8.5l.8-1c-.2,0-.3-.2-.4-.3-.5-.3-.5-.5-.2-1l1.7-2.4,1,.7.6-.9-1-.7,1-1.5Z"/>
      <polygon class="st1" points="496.3 35.3 495.3 36.9 501.1 40.3 499.8 42.4 501.1 43.2 504.6 37.4 503.3 36.6 502 38.8 496.3 35.3"/>
      <polygon class="st1" points="491.5 44.9 489.6 50.8 491 51.3 492.4 47.1 494.3 47.7 493.1 51.5 494.4 52 495.7 48.1 497.3 48.7 496 52.8 497.4 53.3 499.3 47.4 491.5 44.9"/>
      <path class="st1" d="M491.1,57.1c-2-.2-3.1,1.4-3.3,3.2-.2,2.2.8,3.5,2.3,3.7,1.9.2,2.4-1.6,2.6-2.2.8-2,.9-2.4,1.5-2.3.7,0,.9.8.8,1.3,0,.9-.4,1.5-1.4,1.5l-.2,1.7c1.9.2,2.8-1.3,3-3,.2-1.5-.5-3.1-2.1-3.3-1.5-.2-2.1,1-2.6,2.2-.4,1.2-.7,2.4-1.6,2.3-.8-.1-.9-1.1-.9-1.7.1-1,.6-1.8,1.7-1.7l.2-1.7Z"/>
      <polygon class="st1" points="488.3 72.3 488.5 74.1 495.1 73.1 495.5 75.6 497 75.4 496 68.7 494.5 68.9 494.9 71.4 488.3 72.3"/>
      <polygon class="st1" points="490.3 82.3 490.9 84 498.7 81.5 498.1 79.7 490.3 82.3"/>
      <polygon class="st1" points="493.4 90.4 494.2 91.9 499 89.2 499 89.2 495.8 94.9 496.7 96.5 503.9 92.5 503.1 91 498.3 93.7 498.3 93.7 501.4 88 500.6 86.4 493.4 90.4"/>
      <path class="st1" d="M505.2,106.8l.8.8,3.2-3-2.4-2.5-1,.9,1.2,1.3c-.9.7-1.8.6-2.6-.2-1.1-1.2-.5-2.6.5-3.5,1.1-1,2.5-1.5,3.6-.3.6.6.7,1.5.2,2.2l1.2,1.3c1.2-1.4.9-3.3-.2-4.5-1.7-1.9-4.1-1.7-5.9,0-1.7,1.6-2.1,4-.4,5.9.5.6,1.3,1,2.4.9l-.5.8Z"/>
      <polygon class="st1" points="520.5 117.6 525.9 119.9 526.5 118.5 522.8 117 525.4 110.8 523.8 110.1 520.5 117.6"/>
      <path class="st2" d="M536.4,116.2h0l.5,3.2-2.1-.4,1.6-2.8ZM531.3,121.6l1.8.3,1-1.7,3,.5.3,1.9,1.8.3-1.6-8.6-1.8-.3-4.5,7.6Z"/>
      <path class="st2" d="M546.9,116.5h1.7c.6-.1,1.2,0,1.3.8,0,.7-.4,1-1,1h-1.8c0,.1-.1-1.8-.1-1.8h0ZM545.5,123.4l4-.2c1.5,0,2.9-.9,2.8-2.5,0-1-.6-1.8-1.6-2,.7-.4,1.1-1,1-1.8,0-1.5-1.2-2-2.7-1.9l-3.9.2.4,8.2h0ZM547.1,119.6h2c.8-.1,1.3.2,1.3,1,0,.9-.5,1.1-1.3,1.1h-1.9c0,.1-.1-2.1-.1-2.1h0Z"/>
      <path class="st2" d="M559.5,117.4c-.4-1.4-.3-2.9,1.2-3.4,1.5-.5,2.5.6,3,2,.4,1.3.3,2.8-1.3,3.3-1.5.5-2.6-.6-3-1.9M557.7,118c.7,2.3,2.7,3.6,5.2,2.8,2.4-.8,3.2-3.1,2.5-5.3-.8-2.3-2.7-3.7-5.2-2.9-2.4.8-3.2,3-2.5,5.4"/>
      <path class="st2" d="M570.9,109.8l1.7-1.1c.7-.4,1.2-.4,1.6.3.4.7.3,1.2-.4,1.7l-1.7,1.1-1.2-2ZM573,116.5l1.5-1-1.7-2.7,1.5-1c.8-.5,1.2-.3,1.8.3.4.5.8,1.2,1.3,1.5l1.5-.9c-.5-.2-1-1-1.3-1.5-.5-.7-1.2-1.3-2-1h0c.6-.8.5-1.7,0-2.5-.7-1-2-1.4-3.2-.6l-3.8,2.3,4.4,7Z"/>
      <path class="st2" d="M582.2,101.9h0l2.9,1.4-1.5,1.5-1.4-2.9ZM583.7,109.1l1.3-1.3-.9-1.8,2.2-2.2,1.7.9,1.3-1.3-8-3.6-1.3,1.3,3.6,8Z"/>
      <polygon class="st1" points="593.5 97.9 594.5 96.5 589 92.7 590.3 90.7 589.1 89.8 585.3 95.4 586.6 96.2 588 94.2 593.5 97.9"/>
      <path class="st2" d="M595.5,85.7c-1.3-.5-2.4-1.5-1.9-3.1s2.1-1.6,3.4-1.1c1.3.5,2.4,1.5,1.8,3-.5,1.5-2,1.6-3.3,1.2M594.9,87.4c2.2.8,4.5,0,5.4-2.3.9-2.4-.4-4.4-2.6-5.3-2.3-.8-4.6,0-5.5,2.3-.9,2.4.4,4.5,2.7,5.3"/>
      <path class="st2" d="M596.3,71.9l.2-2c0-.8.5-1.2,1.3-1.1.8,0,1.1.6,1,1.4l-.2,2-2.3-.3ZM602.9,74.4l.2-1.8-3.2-.3.2-1.8c.1-.9.5-1.2,1.4-1.2.7,0,1.5,0,2,0l.2-1.8c-.5.3-1.5.2-2,.1-.8,0-1.7.1-2,1h0c-.3-.9-1-1.4-1.9-1.5-1.2-.1-2.4.7-2.5,2.1l-.5,4.4,8.2.9Z"/>
      <polygon class="st1" points="603.3 60.7 603.1 58.9 594.9 59.8 595.1 61.6 603.3 60.7"/>
      <polygon class="st1" points="602.1 52.3 600.4 46.3 598.9 46.8 600.1 51 598.2 51.6 597.1 47.7 595.7 48.1 596.8 52 595.1 52.4 593.9 48.3 592.5 48.7 594.2 54.6 602.1 52.3"/>
      <path class="st1" d="M595.6,41.9c1.8-1,1.7-2.9.9-4.5-1.1-1.9-2.6-2.4-3.9-1.7-1.6.9-1.1,2.7-.9,3.3.5,2,.6,2.4,0,2.7-.6.3-1.1-.1-1.4-.6-.4-.8-.5-1.5.3-2l-.9-1.5c-1.7.9-1.5,2.7-.7,4.1.7,1.3,2.2,2.3,3.7,1.5,1.4-.8,1.2-2,.9-3.3-.3-1.2-.8-2.4,0-2.8.7-.4,1.4.4,1.7.9.5.9.5,1.8-.4,2.3l.8,1.6Z"/>
      <path class="st1" d="M504.7,28.6c0-.7.5-1.2,1.2-1.2s1.2.5,1.2,1.2-.5,1.2-1.2,1.2c-.6,0-1.2-.5-1.2-1.2"/>
      <path class="st1" d="M584.4,28.6c0-.7.5-1.2,1.2-1.2s1.2.5,1.2,1.2-.5,1.2-1.2,1.2c-.7,0-1.2-.5-1.2-1.2"/>
    </g>
    <path class="st1" d="M594.4,14c0-1,.2-1.9.7-2.7.5-.8,1.1-1.5,2-2,.8-.5,1.7-.7,2.7-.7s1.9.2,2.7.7,1.5,1.1,2,2c.5.8.7,1.7.7,2.7s-.2,1.8-.7,2.7c-.5.8-1.1,1.5-2,2-.8.5-1.8.7-2.8.7s-1.9-.2-2.7-.7c-.8-.5-1.5-1.2-2-2-.5-.8-.7-1.7-.7-2.7ZM595.2,14c0,.8.2,1.6.6,2.3.4.7,1,1.3,1.7,1.7s1.5.6,2.3.6,1.6-.2,2.3-.6c.7-.4,1.3-1,1.7-1.7s.6-1.5.6-2.3-.2-1.6-.6-2.3c-.4-.7-1-1.3-1.7-1.7-.7-.4-1.5-.6-2.3-.6s-1.6.2-2.3.6c-.7.4-1.3,1-1.7,1.7s-.6,1.5-.6,2.3ZM602,12.6c0,.4-.1.7-.3,1-.2.3-.5.5-.9.7l1.7,2.8h-1.2l-1.5-2.5h-1v2.5h-1.1v-6.4h1.9c.8,0,1.4.2,1.7.5.4.3.6.8.6,1.4ZM598.9,13.7h.8c.4,0,.7,0,.9-.3.2-.2.3-.5.3-.8s-.1-.6-.3-.8-.5-.2-1-.2h-.8v2.1Z"/>
  </g>
</svg>