<?xml version="1.0" encoding="UTF-8"?>
<svg id="Layer_1" xmlns="http://www.w3.org/2000/svg" version="1.1" viewBox="0 0 885 430">
  <!-- Generator: Adobe Illustrator 29.7.1, SVG Export Plug-In . SVG Version: 2.1.1 Build 8)  -->
  <defs>
    <style>
      .st0 {
        fill: #c3c3c3;
      }

      .st1 {
        fill: #848484;
      }

      .st2 {
        fill: #929292;
      }
    </style>
  </defs>
  <path class="st1" d="M60.7,36.1v-7.5h-6.4v23.3h4v3.9h-12.7v-3.9h4v-23.3h-6.4v7.5h-3.8v-11.4h25.2v11.4h-3.8ZM88.3,46.1h-18.2c.2,1.9,1,3.6,2.4,4.9,1.4,1.2,3.1,1.9,5,1.8,1.4,0,2.7-.3,4-.9,1.3-.6,2.3-1.6,3.1-2.7l3.8,1.7c-1.1,1.8-2.7,3.2-4.7,4.2-2,.9-4.1,1.4-6.3,1.4-2.2,0-4.3-.5-6.2-1.5-1.8-.9-3.2-2.4-4.2-4.1-1-1.8-1.5-3.8-1.5-5.9,0-2.1.5-4.1,1.5-5.9,1-1.7,2.4-3.1,4.1-4.1,3.7-2,8.1-2,11.7,0,1.7,1,3.1,2.5,4,4.3,1,2.1,1.6,4.3,1.6,6.7h0ZM76.8,37.1c-1.6,0-3.1.6-4.2,1.6-1.2,1.1-2.1,2.6-2.3,4.3h13.6c-.3-1.7-1.2-3.2-2.5-4.3-1.2-1.1-2.8-1.6-4.5-1.6ZM104.7,35.1v-.9h3.7v7.2h-3.7v-1.3c-1.1-1.7-3-2.7-5.1-2.7-1,0-1.9.2-2.8.7-.7.4-1.1,1.1-1.1,1.9,0,.7.3,1.3.8,1.7,1.1.6,2.4.9,3.7,1.1l2.9.6c4.3.8,6.4,2.9,6.4,6.3,0,1.9-.8,3.7-2.3,4.8-1.8,1.3-4,1.9-6.2,1.8-1,0-2-.1-3-.4-.9-.2-1.7-.6-2.5-1.1v1.2h-3.8v-7.4h3.8v.7c.2,1,.8,2,1.7,2.5,1,.6,2.2,1,3.3.9,1.1,0,2.3-.2,3.3-.7.8-.4,1.2-1.3,1.2-2.2,0-.7-.4-1.3-.9-1.6-1.2-.5-2.5-.9-3.8-1.1l-2.2-.5c-1.8-.2-3.5-1-4.8-2.3-1-1.1-1.6-2.6-1.5-4.1,0-1.2.4-2.5,1.1-3.5.8-1,1.8-1.7,2.9-2.2,1.1-.5,2.4-.7,3.6-.7,1.8,0,3.6.4,5.2,1.2ZM123.4,52.1v3.8h-11.4v-3.8h3.8v-23.5h-3.8v-3.8h8.1v27.3h3.3ZM144.8,41.8v10.2h3.6v3.8h-7.4v-2.7c-1.8,1.9-4.3,3-6.9,3-2.6,0-4.9-1.3-6.3-3.4-1.4-2.2-1.3-5,.1-7.1.8-1.1,1.8-1.9,3-2.5,1.2-.6,2.5-.9,3.8-.9,2.1,0,4.2.6,5.9,1.9v-2.3c.1-1.3-.3-2.6-1.1-3.6-1-.8-2.3-1.2-3.5-1.1-1,0-2,.2-2.9.6-.8.4-1.5,1.1-1.9,1.9l-4.1-1c.8-1.6,2.1-3,3.7-3.8,1.7-.9,3.7-1.3,5.6-1.3,2.9,0,5,.7,6.4,2,1.3,1.3,2,3.4,2,6.2ZM134.7,52.9c2.2,0,4.3-1,5.9-2.6v-2.5c-1.6-1.3-3.5-2.1-5.6-2.2-1.1,0-2.1.4-2.9,1.1-1.5,1.3-1.6,3.5-.4,5,0,0,.1.1.2.2.8.7,1.7,1.1,2.8,1Z"/>
  <path class="st2" d="M49.6,394h-4.2v-32h4.2v32ZM59.6,394h-3.9v-23.1h3.8v4.1c.5-1,1.2-2,2.1-2.7.7-.6,1.5-1.1,2.4-1.5.8-.3,1.7-.5,2.6-.5.7,0,1.4,0,2.1.3v4c-.9-.4-1.9-.6-2.9-.6-1.6,0-3.1.7-4.2,1.9-1.4,1.3-2,3.5-2,6.7v11.4ZM78.9,394l-9.4-23.1h4.1l7.4,18.1,7.6-18.1h3.8l-9.7,23.1h-3.8ZM95.9,370.9h3.8v23.1h-3.8v-23.1ZM95.9,365.8v-3.8h3.8v3.8h-3.8ZM109.6,394h-3.8v-23.1h3.8v4c.6-1,1.4-2,2.4-2.8.7-.6,1.5-1,2.4-1.4.9-.3,1.8-.5,2.8-.5,1.4,0,2.7.3,3.9.9,1.1.6,2.1,1.5,2.7,2.6.8,1.7,1.1,3.6,1,5.5v14.7h-3.9v-13c0-1.5,0-2.9-.4-4.4-.3-.9-.8-1.6-1.6-2-.8-.5-1.7-.7-2.6-.7-1.1,0-2.3.4-3.2,1-1,.7-1.9,1.6-2.5,2.8-.7,1.6-1,3.3-.9,5.1v11.3ZM146.3,389.1c-.6,1.5-1.7,2.8-3,3.7-1.3.8-2.9,1.3-4.5,1.2-2.6,0-5.2-1.2-6.8-3.2-1.9-2.4-2.8-5.4-2.7-8.5,0-2.2.4-4.3,1.2-6.3.7-1.7,1.8-3.2,3.4-4.2,1.5-.9,3.3-1.4,5.1-1.4,1.3,0,2.7.3,3.9.8,1.4.8,2.6,2,3.4,3.5v-3.7h3.8v18.8c0,4.7-.5,7.9-1.5,9.4-.9,1.4-2.2,2.6-3.8,3.4-1.7.8-3.5,1.1-5.4,1.1-1.7,0-3.5-.3-5.1-.8-1.3-.4-2.5-1.3-3.4-2.3-.7-.9-1.1-1.9-1.2-3.1v-.4h3.8v.3c0,1.1.7,2,1.6,2.5,1.3.7,2.7,1,4.2.9,1.2,0,2.4-.2,3.5-.7,1-.5,1.8-1.3,2.4-2.3.7-1.8,1-3.8.9-5.8v-2.8ZM146.3,381.8c.1-2.2-.6-4.3-1.9-6-1.9-2.5-5.5-3-8-1.1-.4.3-.8.7-1.2,1.2-1.3,1.9-2,4.2-1.9,6.5,0,1.6.2,3.1.7,4.6.4,1.2,1.2,2.3,2.3,3,1,.7,2.2,1,3.4,1,1.9,0,3.7-1,4.7-2.6,1.3-2,1.9-4.3,1.8-6.6Z"/>
  <path class="st0" d="M6.1,145.1c0,1.4,0,2.7,0,4,0,1.3.1,2.7.2,4,.5,0,1.1,0,1.8.1.7,0,1.4,0,2.1,0,.8,0,1.7-.1,2.4-.4.8-.3,1.5-.7,2.1-1.3.6-.6,1.1-1.3,1.4-2.1.4-.9.5-1.9.5-2.8,0-1-.2-1.9-.6-2.8-.4-.7-1-1.3-1.8-1.7-.9-.4-1.8-.7-2.8-.9-1.2-.2-2.4-.2-3.6-.2h-1.8v4.1ZM8.2,139.6c.9,0,1.9,0,2.8-.3.9-.2,1.7-.5,2.5-.9.7-.4,1.3-1,1.7-1.8.5-.8.7-1.8.7-2.8,0-.9-.2-1.8-.6-2.6-.4-.6-.9-1.1-1.5-1.5-.6-.4-1.3-.6-2.1-.7-.8-.1-1.5-.2-2.3-.2-.7,0-1.3,0-1.8,0-.5,0-.9,0-1.3.1,0,1.3-.1,2.5-.2,3.8,0,1.2,0,2.5,0,3.8v3h2.2ZM2.8,137.6c0-1.8,0-3.5-.1-5.2,0-1.7-.1-3.4-.2-5.1.7,0,1.4,0,2.1.1s1.4,0,2.1,0,1.4,0,2.1-.1c.7,0,1.4,0,2.1,0,1.1,0,2.2,0,3.2.3.9.1,1.8.5,2.7.9.8.4,1.4,1,1.8,1.8.5.8.7,1.8.7,2.8,0,1.7-.6,3.4-1.9,4.6-1.4,1.2-3.1,2-4.8,2.4h0c2,0,3.9.7,5.6,1.8,1.5,1.2,2.2,3.1,2.1,5,0,1.3-.3,2.6-.9,3.7-.6,1-1.4,1.8-2.4,2.4-1,.6-2.1,1.1-3.2,1.3-1.2.2-2.3.4-3.5.4-.6,0-1.3,0-1.9,0-.7,0-1.3,0-1.9,0h-1.9c-.7,0-1.3,0-1.9,0,0-1.7.2-3.4.2-5.1,0-1.7,0-3.4.1-5.2v-6.9ZM36.5,144.8c-.5.2-1,.3-1.6.4-.6.1-1.2.2-1.8.3-.6.1-1.2.3-1.8.5-.6.2-1.1.4-1.6.8-.5.3-.8.7-1.1,1.2-.3.6-.4,1.2-.4,1.8,0,1.1.3,2.1,1.1,2.8.6.6,1.5,1,2.4,1,1,0,1.9-.3,2.8-.8.8-.5,1.4-1.2,1.9-2l.2-6ZM26.7,137.7c1-.8,2.1-1.4,3.3-1.8,1-.3,2.1-.5,3.1-.5.9,0,1.8.1,2.6.4.8.3,1.4.7,2,1.2.6.5,1,1.2,1.3,1.9.3.8.5,1.6.5,2.4,0,1.5,0,3,0,4.5,0,1.5,0,3.1,0,4.8s0,.7,0,1c0,.3,0,.6.2,1,0,.3.3.5.5.7.3.2.6.3.9.3.1,0,.3,0,.4,0,.1,0,.3,0,.4-.1v.9c-.4.1-.7.3-1.1.3-.5,0-1,.1-1.4.1-1.4.1-2.6-.9-2.8-2.2,0,0,0,0,0-.1-.8.9-1.8,1.6-2.8,2.1-1.1.5-2.2.7-3.4.7-.7,0-1.3,0-2-.3-.6-.2-1.2-.5-1.7-.9-.5-.4-.9-1-1.2-1.5-.3-.6-.5-1.3-.5-2.1,0-1.4.5-2.8,1.5-3.7,1.2-1,2.6-1.6,4.1-1.8,1.4-.2,2.6-.4,3.4-.6.6-.1,1.2-.3,1.8-.5.3-.1.6-.4.7-.7,0-.3.1-.6.1-1,0-.6,0-1.3-.2-1.9-.1-.6-.4-1.1-.8-1.6-.4-.5-.8-.8-1.4-1.1-.6-.3-1.3-.4-2-.4-1,0-2.1.2-3,.7-.9.4-1.6,1.1-2.1,2h-.4v-2.1ZM50.8,154.8l-1.1-2.8c-.5-1.1-1-2.3-1.5-3.6s-1.1-2.6-1.6-3.9c-.6-1.3-1.1-2.5-1.6-3.7-.5-1.2-.9-2.2-1.3-3-.4-.9-.7-1.5-.8-2,.3,0,.7,0,1,.1.6,0,1.2,0,1.8,0,.3,0,.6,0,1-.1.8,2.6,1.7,5.1,2.7,7.6,1,2.5,2.1,5.1,3.2,7.7,1.1-2.3,2.2-4.8,3.2-7.5,1-2.7,1.9-5.3,2.7-7.8.9.3,1.8.3,2.6,0-.2.4-.5,1-.9,1.9l-1.5,3.2c-.6,1.2-1.2,2.6-1.9,4.1-.7,1.5-1.4,3-2.1,4.6-.7,1.6-1.4,3.1-2.1,4.7-.7,1.6-1.3,3-1.9,4.4-.6,1.4-1.1,2.7-1.5,3.8-.4,1.1-.8,2-1,2.7-.9-.3-1.8-.3-2.7,0,2-3.3,3.8-6.8,5.3-10.4h0ZM79.8,142.3c.7,0,1.4,0,2.2,0,.7,0,1.5,0,2.2,0s1.5,0,2.2,0c.7,0,1.5,0,2.2,0l-4.4-10.1-4.3,10.1ZM97.4,154.7c-.3,0-.7,0-1.1,0h-2.1c-.4,0-.7,0-1.1,0-.2-.6-.4-1.3-.8-2.2-.3-.9-.7-1.8-1.1-2.7-.4-.9-.8-1.9-1.2-2.9-.4-1-.8-1.9-1.1-2.8-.8,0-1.7,0-2.6,0-.9,0-1.8,0-2.6,0s-1.6,0-2.4,0c-.8,0-1.6,0-2.4,0-.8,2.1-1.6,4-2.3,5.9-.7,1.9-1.2,3.4-1.6,4.6-1-.1-2-.1-2.9,0,2.2-4.6,4.3-9.3,6.3-13.9,2-4.6,4.1-9.3,6.2-14h.8c.6,1.5,1.3,3.2,2.1,5s1.5,3.6,2.3,5.4c.8,1.8,1.5,3.7,2.3,5.5.8,1.8,1.5,3.5,2.2,5,.7,1.6,1.3,2.9,1.8,4.2.5,1.2,1,2.2,1.3,2.8ZM110.2,139.1c-.2-.2-.5-.4-.8-.4-.4-.1-.8-.2-1.2-.2-.6,0-1.2.1-1.7.4-.5.3-.9.7-1.3,1.2-.4.5-.6,1.1-.8,1.8-.2.7-.3,1.4-.3,2.2v4.4c0,1.8,0,3.1,0,4.1,0,.8,0,1.5.1,2.3-.5,0-1.1,0-1.6,0s-1.1,0-1.7,0c0-.9.1-2.1.1-3.7,0-1.6,0-3.5,0-5.7v-1.3c0-1,0-2.2,0-3.6,0-1.4,0-2.9-.1-4.7.3,0,.6,0,.8.1.3,0,.6,0,.8,0,.3,0,.5,0,.8,0,.3,0,.5,0,.8-.1-.1,1-.2,1.7-.2,2.3,0,.6,0,1.1,0,1.6h0c1.6-2.8,3.3-4.3,5.3-4.3.2,0,.4,0,.6,0,.2,0,.4.1.7.2-.2.5-.2,1-.2,1.4,0,.7,0,1.2,0,1.8l-.3.2ZM121.9,136.7c-.9,0-1.7.2-2.5.7-.7.4-1.2,1-1.7,1.7-.4.7-.8,1.4-1,2.2-.2.7-.4,1.5-.4,2.3h2.6c.9.1,1.8.1,2.6.1s1.8,0,2.7,0h2.6c0-.8,0-1.6-.2-2.4-.1-.8-.4-1.5-.7-2.2-.4-.7-.9-1.3-1.5-1.7-.7-.5-1.6-.7-2.5-.7h0ZM112.7,145.9c-.2-2.8.7-5.5,2.3-7.7,1.7-1.9,4.2-3,6.8-2.8,1.2,0,2.5.2,3.6.7,1,.4,1.8,1,2.6,1.8.7.7,1.2,1.6,1.5,2.6.3,1,.5,2.1.5,3.1,0,.3,0,.5,0,.8,0,.3,0,.5,0,.8h-4.3c-1.4-.1-2.8-.1-4.3-.1s-1.7,0-2.6,0h-2.6c0,.3,0,.5,0,.7v.5c0,1,.1,2,.5,2.9.3.9.7,1.7,1.3,2.3.6.7,1.3,1.2,2.2,1.6.9.4,1.9.6,2.9.6.6,0,1.1,0,1.6-.2.6-.1,1.1-.3,1.6-.6.5-.2,1-.5,1.5-.9.4-.3.9-.7,1.2-1.1h.2c0,.1-.2,2.1-.2,2.1-.9.7-1.9,1.2-3,1.6-1.2.4-2.4.7-3.7.7-1.3,0-2.7-.2-3.9-.7-1.1-.4-2.2-1.1-3.1-1.9-.9-.8-1.5-1.8-2-3-.5-1.2-.7-2.4-.7-3.7h0ZM144.5,144.8c-.5.2-1,.3-1.6.4-.6.1-1.2.2-1.8.3-.6.1-1.2.3-1.8.5-.6.2-1.1.4-1.6.8-.5.3-.8.7-1.1,1.2-.3.6-.4,1.2-.4,1.8,0,1.1.3,2.1,1.1,2.8.6.6,1.5,1,2.4,1,1,0,2-.3,2.8-.8.8-.5,1.4-1.2,1.9-2l.2-6ZM134.7,137.7c1-.8,2.1-1.4,3.3-1.8,1-.3,2.1-.5,3.1-.5.9,0,1.8.1,2.6.4.8.3,1.4.7,2,1.2.6.5,1,1.2,1.3,1.9.3.8.5,1.6.5,2.4,0,1.5,0,3,0,4.5,0,1.5,0,3.1,0,4.8s0,.7,0,1c0,.3,0,.6.2,1,0,.3.3.5.5.7.3.2.6.3.9.3.1,0,.3,0,.4,0,.1,0,.3,0,.4-.1v.9c-.4.1-.7.3-1.1.3-.5,0-1,.1-1.4.1-1.4.1-2.6-.9-2.7-2.2,0,0,0,0,0-.1-.8.9-1.8,1.6-2.8,2.1-1.1.5-2.2.7-3.4.7-.7,0-1.3,0-2-.3-.6-.2-1.2-.5-1.7-.9-.5-.4-.9-1-1.2-1.5-.3-.6-.5-1.3-.5-2.1,0-1.4.5-2.8,1.5-3.7,1.2-1,2.6-1.6,4.1-1.8,1.4-.2,2.6-.4,3.4-.6.6-.1,1.2-.3,1.8-.5.3-.1.6-.4.7-.7,0-.3.1-.6.1-1,0-.6,0-1.3-.2-1.9-.1-.6-.4-1.1-.8-1.6-.4-.5-.8-.8-1.4-1.1-.6-.3-1.3-.4-2-.4-1,0-2.1.2-3,.7-.9.4-1.6,1.1-2.1,2h-.4v-2.1ZM166.2,137.7c0-1.8,0-3.5,0-5.2,0-1.7-.1-3.4-.2-5.2.8,0,1.5,0,2.3.1s1.5,0,2.3,0,1.5,0,2.3-.1c.7,0,1.5,0,2.3,0,1.1,0,2.1.1,3.2.3.9.2,1.8.5,2.7,1.1.7.5,1.4,1.1,1.8,1.9.5.9.7,2,.7,3,0,1.2-.3,2.3-.9,3.3-.5.9-1.3,1.7-2.1,2.3-.8.6-1.7,1.1-2.7,1.4-.8.3-1.7.5-2.6.7.3.4.8,1,1.3,1.7.6.7,1.2,1.5,1.9,2.4.7.9,1.4,1.8,2.2,2.7.7.9,1.5,1.8,2.2,2.7.7.9,1.3,1.7,2,2.4.6.7,1.1,1.3,1.5,1.6-.4,0-.8,0-1.2,0h-2.4c-.4,0-.8,0-1.2,0-.4-.6-1-1.4-1.8-2.5-.8-1.1-1.7-2.3-2.7-3.6-1-1.3-2-2.5-3-3.8s-2-2.3-2.8-3.2h-1.5v2.9c0,1.8,0,3.5,0,5.2s.1,3.4.2,5c-.6,0-1.3,0-2,0s-1.3,0-2,0c0-1.6.2-3.3.2-5,0-1.7,0-3.4,0-5.2v-6.8ZM169.4,139.9c.4,0,.8.1,1.2.2.4,0,.9,0,1.4,0,.9,0,1.7,0,2.6-.3.9-.2,1.7-.5,2.5-1,.8-.5,1.4-1.1,1.9-1.9.5-.9.8-1.9.7-3,0-.9-.2-1.8-.6-2.6-.4-.7-.9-1.2-1.5-1.6-.6-.4-1.3-.7-2-.8-.7-.1-1.4-.2-2.1-.2-.9,0-1.7,0-2.3,0-.6,0-1.1,0-1.6.1,0,1.5-.1,2.9-.2,4.3,0,1.4,0,2.9,0,4.3v2.3ZM199.9,144.8c-.5.2-1,.3-1.6.4-.6.1-1.2.2-1.8.3-.6.1-1.2.3-1.8.5-.6.2-1.1.4-1.6.8-.5.3-.8.7-1.1,1.2-.3.6-.4,1.2-.4,1.8,0,1.1.3,2.1,1.1,2.8.6.6,1.5,1,2.4,1,1,0,2-.3,2.8-.8.8-.5,1.4-1.2,1.9-2l.2-6ZM190,137.7c1-.8,2.1-1.4,3.3-1.8,1-.3,2.1-.5,3.1-.5.9,0,1.8.1,2.6.4.8.3,1.4.7,2,1.2.6.5,1,1.2,1.3,1.9.3.8.5,1.6.5,2.4,0,1.5,0,3,0,4.5,0,1.5,0,3.1,0,4.8s0,.7,0,1c0,.3,0,.6.2,1,0,.3.3.5.5.7.3.2.6.3.9.3.1,0,.3,0,.4,0,.1,0,.3,0,.4-.1v.9c-.4.1-.7.3-1.1.3-.5,0-1,.1-1.4.1-1.4.1-2.6-.9-2.7-2.2,0,0,0,0,0-.1-.8.9-1.8,1.6-2.8,2.1-1.1.5-2.2.7-3.4.7-.7,0-1.3,0-2-.3-.6-.2-1.2-.5-1.7-.9-.5-.4-.9-1-1.2-1.5-.3-.6-.5-1.3-.5-2.1,0-1.4.5-2.8,1.5-3.7,1.2-1,2.6-1.6,4.1-1.8,1.4-.2,2.6-.4,3.4-.6.6-.1,1.2-.3,1.8-.5.3-.1.6-.4.7-.7,0-.3.1-.6.1-1,0-.6,0-1.3-.2-1.9-.1-.6-.4-1.1-.8-1.6-.4-.5-.8-.8-1.4-1.1-.6-.3-1.3-.4-2-.4-1,0-2.1.2-3,.7-.9.4-1.6,1.1-2.1,2h-.4v-2.1ZM209.1,147.4c0-.9,0-1.9,0-2.9,0-1.1,0-2.1,0-3.2,0-1,0-2,0-3,0-1,0-1.8-.1-2.5,1.2.3,2.4.3,3.6,0-.1.7-.2,1.4-.2,2,0,.6,0,1.3,0,1.9h0c.2-.5.5-.9.8-1.4.4-.5.8-1,1.3-1.4.6-.5,1.3-.8,2-1.1.8-.3,1.7-.5,2.6-.4,1,0,2,.2,3,.6,1,.4,1.9,1,2.6,1.8.8.9,1.4,1.9,1.8,3,.5,1.4.7,2.9.7,4.4,0,1.5-.2,3-.8,4.4-.4,1.2-1.1,2.2-2,3.1-.8.8-1.7,1.4-2.8,1.8-1,.4-2,.6-3.1.6-2.7.2-5.2-1.4-6.3-3.8h0v2.5c0,.8,0,1.8,0,2.8,0,1,0,2.1,0,3.1,0,1,0,2,0,3,0,.9,0,1.7.1,2.4-1.2-.3-2.4-.3-3.6,0,0-.7,0-1.5.1-2.4,0-.9,0-1.9,0-3,0-1,0-2.1,0-3.1,0-1.1,0-2,0-2.8v-6.5ZM223.5,145.1c0-1.3-.1-2.7-.5-3.9-.3-.9-.7-1.7-1.3-2.5-.5-.6-1.1-1-1.8-1.3-.6-.2-1.3-.4-2-.4-1,0-1.9.2-2.7.7-.8.4-1.4,1.1-1.9,1.8-.5.8-.9,1.7-1,2.7-.2,1.1-.3,2.2-.3,3.2,0,5.5,1.9,8.3,5.8,8.3.9,0,1.7-.2,2.5-.7.7-.5,1.3-1.1,1.8-1.8.5-.9.8-1.8,1-2.7.2-1.1.3-2.2.3-3.4ZM232.2,128.8c0-1.1.9-2,2-2,1.1,0,2,.9,2,2,0,1.1-.9,2-2,2-.5,0-1.1-.2-1.5-.6-.4-.4-.6-.9-.6-1.4h0ZM232.8,143.2c0-1.2,0-2.4,0-3.8,0-1.3-.1-2.5-.2-3.7,1.2.3,2.4.3,3.6,0-.1,1.1-.2,2.4-.3,3.7,0,1.3,0,2.6,0,3.8v4.1c0,1.2,0,2.5,0,3.8,0,1.3.1,2.5.3,3.6-.6,0-1.2,0-1.8,0s-1.2,0-1.8,0c.1-1.1.2-2.3.3-3.6,0-1.3,0-2.6,0-3.8v-4.1ZM244.9,145.7c0,1.3.1,2.7.5,3.9.3.9.7,1.7,1.3,2.5.5.6,1.1,1,1.8,1.3.6.2,1.3.4,2,.4.9,0,1.9-.2,2.7-.8.8-.5,1.4-1.2,1.9-2,.5-.9.9-1.8,1.1-2.8.2-1,.3-2.1.3-3.2.1-2.1-.4-4.1-1.5-5.8-1-1.4-2.7-2.1-4.3-2-.9,0-1.7.2-2.5.7-.7.5-1.3,1.1-1.8,1.8-.5.9-.8,1.8-1,2.7-.2,1.1-.3,2.2-.3,3.4h0ZM256.3,150.9c-.2.5-.5.9-.9,1.4-.4.5-.8,1-1.4,1.4-.6.4-1.2.8-1.9,1-.8.3-1.7.4-2.6.4-1,0-2-.2-3-.5-1-.4-1.9-.9-2.6-1.7-.8-.9-1.4-1.9-1.8-3-.5-1.4-.7-2.9-.7-4.4,0-1.5.2-3,.8-4.4.4-1.2,1.1-2.2,2-3.1.8-.8,1.7-1.5,2.7-1.9,1-.4,2-.6,3.1-.6,2.7-.2,5.2,1.5,6.1,4h0v-3.9c0-1,0-2,0-3,0-1,0-2,0-2.9,0-.9,0-1.8,0-2.6,0-.8,0-1.6,0-2.2.3,0,.6,0,.9.1.3,0,.6,0,.9,0,.3,0,.6,0,.9,0,.3,0,.6,0,.9-.1,0,.8-.1,2.1-.2,3.7,0,1.6,0,3.4-.1,5.3,0,1.9,0,3.9-.1,6,0,2,0,3.9,0,5.6s0,3.5,0,4.9c0,1.5,0,3,0,4.5-.5,0-1,0-1.6,0s-1,0-1.5,0v-3.8c.1,0,0,0,0,0ZM19.8,173.9c0-2.8,0-5.5-.1-8.2-.7,0-1.4,0-2.2,0-.8,0-1.5,0-2.3,0-.8,0-1.5,0-2.2.1-.7,0-1.3.1-1.9.2.1-.4.2-.8.2-1.3,0-.4,0-.8-.2-1.2,1.8,0,3.5,0,5.1.1,1.7,0,3.4,0,5.1,0s3.5,0,5.1,0c1.7,0,3.4,0,5.1-.1-.1.4-.2.8-.2,1.3,0,.4,0,.8.2,1.2-.6,0-1.2-.1-1.9-.2-.7,0-1.4,0-2.2-.1-.8,0-1.5,0-2.3,0-.8,0-1.5,0-2.2,0,0,2.7-.1,5.5-.1,8.2v6.9c0,1.8,0,3.5.1,5.2,0,1.7.1,3.4.2,5-.6,0-1.3,0-2,0s-1.3,0-2,0c0-1.6.2-3.3.2-5,0-1.7,0-3.4,0-5.2v-6.9ZM41.7,175.3c-.2-.2-.5-.4-.8-.4-.4-.1-.8-.2-1.2-.2-.6,0-1.2.1-1.7.4-.5.3-.9.7-1.3,1.2-.4.5-.6,1.1-.8,1.8-.2.7-.3,1.4-.3,2.2v4.4c0,1.8,0,3.1,0,4.1,0,.8,0,1.5.1,2.3-.5,0-1.1,0-1.6,0s-1.1,0-1.7,0c0-.9.1-2.1.1-3.7,0-1.6,0-3.5,0-5.7v-1.3c0-1,0-2.2,0-3.6,0-1.4,0-2.9-.1-4.7.3,0,.6,0,.8.1.3,0,.6,0,.8,0,.3,0,.5,0,.8,0,.3,0,.5,0,.8-.1-.1,1-.2,1.7-.2,2.3,0,.6,0,1.1,0,1.6h0c1.6-2.8,3.3-4.3,5.3-4.3.2,0,.4,0,.6,0,.2,0,.4.1.7.2-.2.5-.2,1-.2,1.4,0,.6,0,1.2,0,1.8l-.3.2ZM55.6,181c-.5.2-1,.3-1.6.4-.6.1-1.2.2-1.8.3-.6.1-1.2.3-1.8.5-.6.2-1.1.4-1.6.8-.5.3-.8.7-1.1,1.2-.7,1.5-.5,3.4.7,4.7.6.6,1.5,1,2.4,1,1,0,2-.3,2.8-.8.8-.5,1.4-1.2,1.9-2l.2-6ZM45.8,173.9c1-.8,2.1-1.4,3.3-1.8,1-.3,2.1-.5,3.1-.5.9,0,1.8.1,2.6.4.8.3,1.4.7,2,1.2.6.5,1,1.2,1.3,1.9.3.8.5,1.6.5,2.4,0,1.5,0,3,0,4.5,0,1.5,0,3.1,0,4.8,0,.3,0,.7,0,1,0,.3,0,.6.2,1,0,.3.3.5.5.7.3.2.6.3.9.3.1,0,.3,0,.4,0,.1,0,.3,0,.4-.1v.9c-.4.2-.7.3-1.1.3-.5,0-1,.1-1.4.1-1.4.1-2.6-.9-2.7-2.2,0,0,0,0,0-.1-.8.9-1.8,1.6-2.8,2.1-1.1.5-2.2.7-3.4.7-.7,0-1.3,0-2-.3-.6-.2-1.2-.5-1.7-.9-.5-.4-.9-.9-1.2-1.5-.3-.6-.5-1.3-.5-2.1,0-1.4.5-2.8,1.5-3.7,1.2-1,2.6-1.6,4.1-1.8,1.4-.2,2.6-.4,3.4-.6.6-.1,1.2-.3,1.8-.5.3-.1.6-.4.7-.7,0-.3.1-.6.1-1,0-.6,0-1.3-.2-1.9-.1-.6-.4-1.1-.8-1.6-.4-.5-.8-.8-1.4-1.1-.6-.3-1.3-.4-2-.4-1,0-2.1.2-3,.7-.9.4-1.6,1.1-2.1,2h-.4v-2.1ZM78.3,179.7c.1-1.6-.3-3.2-1.2-4.5-.7-1-1.9-1.6-3.2-1.5-1.6-.1-3.1.5-4.1,1.7-.9,1.4-1.4,3.1-1.3,4.8v3.4c0,1.2,0,2.5,0,3.8,0,1.3.1,2.5.3,3.6-.6,0-1.2,0-1.8,0s-1.2,0-1.8,0c.1-1.1.2-2.3.3-3.6,0-1.3,0-2.6,0-3.8v-4.1c0-1.2,0-2.4,0-3.8,0-1.3-.1-2.5-.3-3.7.6.1,1.2.2,1.8.2.2,0,.5,0,.7,0h.9c0,.9-.1,2-.1,3h0c.7-1.1,1.6-2,2.7-2.6,1.1-.6,2.4-1,3.7-.9.8,0,1.5.1,2.3.3.8.2,1.5.6,2.1,1.1.7.6,1.2,1.3,1.5,2.1.4,1.1.6,2.2.6,3.4,0,1.1,0,2.3,0,3.5,0,1.2,0,2.5,0,3.8v2.6c0,.4,0,.8,0,1.3,0,.4,0,.8,0,1.2-.5,0-1.1,0-1.7,0s-1.1,0-1.6,0c0-1.4.1-2.8.2-4.3,0-1.5,0-3,0-4.5v-2.4ZM87.2,187.2c.2.3.4.6.6.9.3.3.6.6,1,.9.4.3.8.5,1.3.7,1,.4,2,.4,3,0,.4-.2.9-.4,1.2-.7.4-.3.7-.7.9-1.1.2-.5.3-1,.3-1.6,0-.7-.2-1.4-.7-1.9-.5-.5-1.1-.8-1.7-1.1-.7-.3-1.5-.5-2.3-.7-.8-.2-1.6-.5-2.3-.9-.7-.4-1.3-.9-1.7-1.5-.5-.8-.7-1.7-.7-2.6,0-.8.1-1.6.4-2.4.3-.7.7-1.4,1.3-1.9.6-.6,1.3-1,2.1-1.3.9-.3,1.9-.5,2.8-.5.8,0,1.7.1,2.5.4.7.3,1.3.5,1.9.7-.2.5-.4,1-.6,1.5-.2.4-.3.9-.4,1.4h-.5c-.2-.7-.7-1.3-1.2-1.7-.6-.5-1.4-.8-2.3-.8-.4,0-.8,0-1.2.2-.4.1-.8.3-1.1.6-.3.3-.6.6-.8,1-.2.5-.3,1-.3,1.5,0,.7.2,1.4.7,2,.5.5,1.1.9,1.7,1.1.7.3,1.5.5,2.3.7.8.2,1.6.5,2.3.8.7.4,1.3.9,1.7,1.5.5.8.7,1.7.7,2.6,0,.8-.2,1.6-.5,2.3-.3.8-.8,1.4-1.4,2-.6.6-1.4,1.1-2.3,1.4-1,.3-2,.5-3,.5-1,0-2.1,0-3.1-.4-.7-.2-1.4-.5-2.1-.8.2-.5.4-.9.5-1.4.2-.5.2-1,.3-1.5h.5ZM103.4,165.1c0-1.1.9-2,2-2.1,1.1,0,2,.9,2.1,2,0,1.1-.9,2-2,2.1-.5,0-1.1-.2-1.5-.6-.4-.4-.6-.9-.6-1.4h0ZM104,179.5c0-1.2,0-2.4,0-3.8,0-1.3-.1-2.5-.3-3.7,1.2.3,2.4.3,3.6,0-.1,1.1-.2,2.4-.3,3.7,0,1.3,0,2.6,0,3.8v4.1c0,1.2,0,2.5,0,3.8s.1,2.5.3,3.6c-.6,0-1.2,0-1.8,0s-1.2,0-1.8,0c.1-1.1.2-2.3.3-3.6,0-1.3,0-2.6,0-3.8v-4.1ZM117.6,166.7c0,1-.1,2-.2,3,0,1,0,1.9-.1,2.9.3,0,.8,0,1.6,0,.8,0,1.7,0,2.6-.1,0,.1,0,.3,0,.4v.8c0,.1,0,.3,0,.4-.3,0-.7,0-1.1,0-.4,0-.8,0-1.2,0h-2c0,.1,0,.5-.1,1.3,0,.7,0,1.6,0,2.6,0,1,0,2.1,0,3.2,0,1.1,0,2.1,0,3,0,.7,0,1.5,0,2.2,0,.7.2,1.3.4,1.9.2.5.5,1,1,1.4.5.4,1.2.6,1.8.5.3,0,.6,0,.9,0,.3,0,.6-.1.9-.2v1c-.5,0-1,.2-1.5.3-.5.1-1,.2-1.6.2-1.4.1-2.7-.3-3.7-1.2-.9-1-1.3-2.3-1.2-3.6,0-.7,0-1.5,0-2.3,0-.8,0-1.8,0-2.7,0-1,0-2.1.1-3.3,0-1.2,0-2.6,0-4h-1.3c-.2,0-.4,0-.7,0-.2,0-.5,0-.8,0,0-.2,0-.3,0-.5,0-.1,0-.3,0-.5,0-.1,0-.3,0-.4,0-.1,0-.3,0-.4,1.2,0,2.1.1,2.6.1,0-.5,0-1.2,0-2,0-.8,0-1.6-.1-2.5l3.3-1.4h.2ZM142.8,163.8c-.9,1.2-1.8,2.4-2.5,3.8-.6,1.2-1.1,2.5-1.4,3.8-.3,1.3-.6,2.6-.7,4-.1,1.4-.2,2.8-.2,4.3s0,3,.2,4.3c.1,1.3.4,2.7.7,4,.4,1.3.9,2.5,1.5,3.7.7,1.3,1.5,2.6,2.4,3.7l-.8.7c-2.1-2.2-3.7-4.8-4.8-7.7-1.1-2.8-1.6-5.8-1.6-8.8,0-1.5.1-3,.4-4.4.3-1.5.7-2.9,1.2-4.4.5-1.4,1.2-2.8,2-4.1.8-1.3,1.7-2.6,2.8-3.7l.8.7ZM151.4,181.3c0,1.4,0,2.7,0,4,0,1.3.1,2.7.2,4,.5,0,1.1,0,1.8.1.7,0,1.4,0,2.1,0,.8,0,1.7-.1,2.5-.4.8-.3,1.5-.7,2.1-1.3.6-.6,1.1-1.3,1.4-2.1.4-.9.5-1.9.5-2.8,0-1-.2-1.9-.6-2.8-.4-.7-1-1.3-1.8-1.7-.9-.4-1.8-.7-2.8-.9-1.2-.2-2.4-.2-3.6-.2h-1.8v4.1ZM153.5,175.8c.9,0,1.9,0,2.8-.3.9-.2,1.7-.5,2.4-.9.7-.4,1.3-1,1.7-1.8.5-.8.7-1.8.7-2.8,0-.9-.2-1.8-.6-2.6-.4-.6-.9-1.1-1.5-1.5-.6-.4-1.3-.6-2.1-.7-.8-.1-1.5-.2-2.3-.2s-1.3,0-1.8,0c-.5,0-.9,0-1.3.1,0,1.3-.1,2.5-.2,3.8,0,1.2,0,2.5,0,3.8v3h2.2ZM148.1,173.8c0-1.8,0-3.5,0-5.2,0-1.7-.1-3.4-.2-5.1.7,0,1.4,0,2.1.1.7,0,1.4,0,2.1,0s1.4,0,2.1,0c.7,0,1.4,0,2.1-.1,1.1,0,2.2,0,3.2.3.9.1,1.8.5,2.7.9.8.4,1.4,1,1.8,1.8.5.8.7,1.8.7,2.8,0,1.7-.6,3.4-1.9,4.6-1.4,1.2-3.1,2-4.8,2.4h0c2,0,3.9.7,5.6,1.8,1.5,1.2,2.2,3.1,2.1,5,0,1.3-.3,2.6-.9,3.7-.6,1-1.4,1.8-2.4,2.5-1,.6-2.1,1.1-3.2,1.3-1.2.3-2.3.4-3.5.4-.6,0-1.3,0-1.9,0s-1.3,0-1.9,0h-1.9c-.7,0-1.3,0-1.9,0,0-1.7.2-3.4.2-5.1,0-1.7,0-3.4,0-5.2v-6.8ZM175.3,178.5c.7,0,1.4,0,2.2,0,.7,0,1.5,0,2.2,0s1.5,0,2.2,0,1.5,0,2.2,0l-4.4-10.1-4.3,10.1ZM193,190.9c-.3,0-.7,0-1.1,0h-2.1c-.4,0-.7,0-1.1,0-.2-.6-.4-1.3-.8-2.2-.3-.9-.7-1.8-1.1-2.7-.4-.9-.8-1.9-1.2-2.9-.4-1-.8-1.9-1.1-2.8-.9,0-1.7,0-2.6,0-.9,0-1.8,0-2.6,0s-1.6,0-2.4,0c-.8,0-1.6,0-2.4,0-.9,2.1-1.6,4-2.3,5.9-.7,1.9-1.2,3.4-1.6,4.6-1-.1-2-.1-2.9,0,2.2-4.6,4.3-9.3,6.3-13.9,2-4.6,4.1-9.3,6.2-14h.8c.6,1.5,1.3,3.2,2.1,5,.7,1.8,1.5,3.6,2.3,5.4.8,1.8,1.5,3.7,2.3,5.5.8,1.8,1.5,3.5,2.2,5,.7,1.6,1.3,2.9,1.8,4.2s1,2.2,1.3,2.8ZM197.6,173.9c0-1.8,0-3.5,0-5.2,0-1.7-.1-3.4-.2-5.2.8,0,1.5,0,2.3.1.7,0,1.5,0,2.3,0s1.5,0,2.3,0c.7,0,1.5,0,2.3-.1,1.1,0,2.1.1,3.2.3.9.2,1.8.5,2.7,1.1.7.5,1.4,1.1,1.8,1.9.9,2,.9,4.3-.2,6.3-.5.9-1.3,1.7-2.1,2.3-.8.6-1.7,1.1-2.7,1.4-.8.3-1.7.5-2.6.7.3.4.8,1,1.3,1.7.6.7,1.2,1.5,1.9,2.4.7.9,1.4,1.8,2.2,2.7s1.5,1.8,2.2,2.7c.7.9,1.3,1.7,2,2.4.6.7,1.1,1.3,1.5,1.6-.4,0-.8,0-1.2,0h-2.4c-.4,0-.8,0-1.2,0-.4-.6-1-1.4-1.8-2.5-.8-1.1-1.7-2.3-2.7-3.6-1-1.3-2-2.5-3-3.8-1-1.3-2-2.3-2.8-3.2h-1.5v2.9c0,1.8,0,3.5,0,5.2,0,1.7.1,3.4.2,5-.6,0-1.3,0-1.9,0s-1.3,0-2,0c0-1.6.2-3.3.2-5,0-1.7,0-3.4,0-5.2v-6.9ZM200.8,176.2c.4,0,.8.1,1.2.2.4,0,.9,0,1.4,0,.9,0,1.7,0,2.6-.3.9-.2,1.7-.5,2.5-1,.8-.5,1.4-1.1,1.9-1.9.5-.9.8-1.9.7-3,0-.9-.2-1.8-.6-2.6-.4-.7-.9-1.2-1.5-1.6-.6-.4-1.3-.7-2-.8-.7-.1-1.4-.2-2.1-.2-.9,0-1.7,0-2.3,0-.6,0-1.1,0-1.6.1,0,1.5-.1,2.9-.2,4.3,0,1.4,0,2.9,0,4.3v2.3ZM226.7,173.9c0-2.8,0-5.5-.1-8.2-.7,0-1.4,0-2.2,0-.8,0-1.5,0-2.3,0-.8,0-1.5,0-2.2.1-.7,0-1.3.1-1.9.2.1-.4.2-.8.2-1.3,0-.4,0-.8-.2-1.2,1.8,0,3.5,0,5.1.1,1.7,0,3.4,0,5.1,0s3.5,0,5.1,0c1.7,0,3.4,0,5.1-.1-.1.4-.2.8-.2,1.3,0,.4,0,.8.2,1.2-.6,0-1.2-.1-1.9-.2-.7,0-1.4,0-2.2-.1-.8,0-1.5,0-2.3,0-.8,0-1.5,0-2.2,0,0,2.7-.1,5.5-.1,8.2v6.9c0,1.8,0,3.5,0,5.2,0,1.7.1,3.4.2,5-.6,0-1.3,0-1.9,0s-1.3,0-1.9,0c0-1.6.2-3.3.2-5,0-1.7,0-3.4,0-5.2v-6.9ZM240.9,195.4c.9-1.2,1.7-2.4,2.4-3.7.6-1.2,1.1-2.4,1.4-3.7.3-1.3.6-2.6.7-4,.1-1.4.2-2.8.2-4.3s0-3-.2-4.3c-.1-1.3-.4-2.7-.7-4-.4-1.3-.8-2.6-1.4-3.8-.7-1.3-1.5-2.6-2.4-3.8l.8-.7c2.1,2.2,3.8,4.9,4.8,7.7,1.1,2.8,1.6,5.8,1.6,8.9,0,3-.6,6-1.6,8.7-1.1,2.9-2.7,5.5-4.8,7.7l-.8-.7Z"/>
  <path class="st2" d="M361.5,385.5v7.4c0,.8,0,1.7.4,2.5.2.5.7.9,1.3,1,1,.2,1.9.3,2.9.3v.9c-3.5,0-6-.1-7.7-.1s-3.2,0-5.3,0h-1.4s0-.8,0-.8c.7,0,1.4-.1,2.1-.3.4-.2.8-.5.9-1,.2-.8.3-1.5.2-2.3v-21c0-.8,0-1.6-.2-2.3-.1-.4-.5-.8-.9-1-.7-.2-1.4-.3-2.1-.3v-.8c1.4,0,3.6.1,6.4.1h4.7c.6,0,1.2,0,1.9,0,3.8,0,6.7.8,8.7,2.3,1.9,1.4,3.1,3.7,3,6.1,0,3.5-2,6.6-5.2,8-2.3,1.1-4.9,1.5-7.5,1.4h-2.2ZM364.1,368.5c-.6,0-1.1,0-1.7.3-.4.2-.6.6-.7,1.1-.2.7-.2,1.5-.2,2.3v12.5h1.8c2.3,0,3.9-.7,4.7-2.2,1-1.8,1.4-3.9,1.3-6,.1-2.1-.3-4.2-1.2-6-.9-1.3-2.4-2.1-4-1.9ZM386.4,379.1c1.3-2.6,3.6-3.9,6.9-3.9s3.7.5,4.6,1.6c.5.6.9,1.3,1,2.1.2,1.1.3,2.3.3,3.4v11.4c0,.8.1,1.7.6,2.4.6.5,1.3.7,2.1.7v.9c-2.9-.1-4.8-.2-5.6-.2s-2.8,0-5.5.2v-.9c.7,0,1.3-.2,1.8-.7.4-.7.6-1.6.5-2.4v-13.1c0-.9-.1-1.8-.6-2.6-.5-.6-1.3-1-2.1-.9-1.1,0-2.2.5-3,1.4-.8,1-1.3,2.2-1.2,3.5v11.8c0,.8,0,1.7.5,2.4.5.5,1.1.7,1.8.7v.9c-2.7-.1-4.5-.2-5.2-.2s-2.9,0-5.8.2v-.9c.8,0,1.5-.2,2.1-.7.5-.7.7-1.5.6-2.4v-24c0-1-.1-2-.6-2.8-.5-.6-1.3-1-2.1-.9v-.9c.9,0,1.8.1,2.6.1,2.1,0,4.1-.2,6.2-.6v14.5ZM409,364.8c1,0,2,.3,2.8.9.7.6,1.1,1.5,1,2.4,0,.9-.3,1.8-1,2.4-1.7,1.2-3.9,1.2-5.6,0-.7-.6-1.1-1.5-1-2.4,0-.9.3-1.8,1-2.4.8-.6,1.8-.9,2.8-.9h0ZM412.3,393.6c0,.8.1,1.7.6,2.4.6.5,1.3.7,2.1.7v.9c-2.8-.1-4.7-.2-5.6-.2s-2.8,0-5.9.2v-.9c.8,0,1.5-.2,2.1-.7.5-.7.7-1.5.6-2.4v-13.3c0-1-.1-2-.6-2.8-.5-.6-1.3-1-2.1-.9v-.9c.9,0,1.8.1,2.6.1,2.1,0,4.1-.2,6.2-.6v18.4ZM425.5,393.6c0,.8.1,1.7.6,2.4.6.5,1.3.7,2.1.7v.9c-2.9-.1-4.8-.2-5.7-.2s-2.9,0-5.8.2v-.9c.8,0,1.5-.2,2.1-.7.5-.7.7-1.5.6-2.4v-24.1c0-1-.1-2-.6-2.8-.5-.6-1.3-1-2.1-.9v-.9c.9,0,1.8.1,2.6.1,2.1,0,4.1-.2,6.2-.6v29.2ZM438.9,393.6c0,.8.1,1.7.6,2.4.6.5,1.3.7,2.1.7v.9c-2.9-.1-4.8-.2-5.7-.2s-2.9,0-5.8.2v-.9c.8,0,1.5-.2,2.1-.7.5-.7.7-1.5.6-2.4v-24.1c0-1-.1-2-.6-2.8-.5-.6-1.3-1-2.1-.9v-.9c.9,0,1.8.1,2.6.1,2.1,0,4.1-.2,6.2-.6v29.2ZM448.9,364.8c1,0,2,.3,2.8.9.7.6,1.1,1.5,1,2.4,0,.9-.3,1.8-1,2.4-1.7,1.2-3.9,1.2-5.6,0-.7-.6-1.1-1.5-1-2.4,0-.9.3-1.8,1-2.4.8-.6,1.8-.9,2.8-.9h0ZM452.2,393.7c0,.8.1,1.7.6,2.4.6.5,1.3.7,2.1.7v.9c-2.8-.1-4.7-.2-5.6-.2s-2.8,0-5.9.2v-.9c.8,0,1.5-.2,2.1-.7.5-.7.7-1.5.6-2.4v-13.3c0-1-.1-2-.6-2.8-.5-.6-1.3-1-2.1-.9v-.9c.9,0,1.8.1,2.6.1,2.1,0,4.1-.1,6.2-.6v18.4ZM471.9,375.1c1.4,0,2.8.4,3.9,1.2,1.2.9,2.2,2.1,2.7,3.6.7,1.8,1,3.8,1,5.8,0,4-.9,7.1-2.6,9.3-1.7,2.1-4.4,3.3-7.2,3.2-.8,0-1.6-.1-2.4-.3-.7-.2-1.4-.5-1.9-1v4.2c-.1,1,.2,1.9.9,2.6.9.5,1.9.8,2.9.7v.9h-1.1c-3.1-.1-5.1-.2-6-.2s-2.6,0-5.3.2v-.9c.7,0,1.4-.1,2-.6.5-.7.7-1.5.6-2.3v-21.1c0-1-.1-2-.6-2.8-.5-.6-1.3-1-2.1-.9v-.9c.9,0,1.8.1,2.6.1,2.1,0,4.1-.2,6.2-.6v3.9c.5-1.2,1.4-2.3,2.6-3,1.2-.7,2.6-1.1,4-1h0ZM468,397c1.7,0,3.3-1,3.9-2.7.9-2.5,1.3-5.2,1.2-7.8.1-2.5-.2-5-1-7.4-.6-1.5-1.5-2.2-2.7-2.2-.9,0-1.9.3-2.6,1-.8.7-1.3,1.7-1.5,2.7v15.3c.7.8,1.6,1.2,2.7,1.1h0ZM490.4,375.1c1,0,2,.1,3,.4.7.2,1.4.5,2.1.9.2.2.5.3.8.3.3,0,.5-.2.7-.4.2-.4.3-.8.4-1.2h.9c-.1,1.4-.2,3.9-.2,7.4h-.9c-.2-1.7-.8-3.3-1.7-4.7-.8-1.2-2.3-2-3.7-1.9-.8,0-1.5.2-2.1.7-.6.5-.9,1.2-.8,2,0,.9.3,1.8,1,2.5.9.9,2,1.8,3,2.5l1.2.9c1.4,1,2.7,2.2,3.8,3.5.8,1.1,1.3,2.4,1.2,3.8,0,1.2-.4,2.3-1.1,3.3-.7,1-1.8,1.7-2.9,2.2-1.3.5-2.6.8-4,.8-1.4,0-2.7-.3-4-.9-.6-.3-1.3-.6-1.9-.9-.3,0-.6,0-.7.3-.2.4-.4.8-.5,1.2h-.9c.1-1.6.2-4.4.2-8.5h.9c.6,5.2,2.5,7.8,5.7,7.8.8,0,1.5-.2,2.1-.7.6-.6.9-1.4.9-2.3,0-.7-.2-1.5-.5-2.1-.3-.6-.8-1.2-1.3-1.6-.5-.5-1.3-1.1-2.4-2-1.3-1-2.2-1.8-2.9-2.5-.7-.6-1.2-1.4-1.7-2.2-.5-.9-.7-1.8-.7-2.8,0-1.7.7-3.3,2.1-4.3,1.5-1.1,3.3-1.6,5.2-1.6h0ZM524.6,379c1.5,0,2.9.4,4.2,1.1,1.3.8,2.3,1.9,3,3.2.8,1.5,1.2,3.2,1.1,4.8,0,1.9-.4,3.8-1.4,5.4-.9,1.5-2.2,2.7-3.8,3.5-1.6.8-3.5,1.2-5.3,1.2-2.8.1-5.5-1-7.3-3.2-1.8-2.1-2.6-5.1-2.6-8.9-.1-3.5.8-7,2.6-10,1.6-2.6,3.9-4.8,6.5-6.3,2.4-1.4,5-2.4,7.7-2.8l.2.8c-1.7.5-3.3,1.2-4.8,2.2-1.5,1.1-2.8,2.5-3.6,4.2-1.2,2.4-1.9,4.9-2.1,7.5.6-.9,1.4-1.7,2.3-2.1,1-.5,2.1-.7,3.2-.7ZM522.8,397.3c1.1,0,2-.7,2.7-2.2.8-2.1,1.2-4.4,1.1-6.7.1-2.1-.2-4.3-1-6.3-.4-1.1-1.4-1.9-2.6-2-.8,0-1.6.3-2.2.8-.8.6-1.4,1.4-1.8,2.4,0,1.2,0,2.2,0,3-.2,2.8.2,5.7,1.2,8.4.8,1.7,1.7,2.6,2.8,2.6ZM548.3,379c1.5,0,2.9.4,4.2,1.1,1.3.8,2.3,1.9,3,3.2.8,1.5,1.2,3.2,1.1,4.8,0,1.9-.4,3.8-1.4,5.4-.9,1.5-2.2,2.7-3.8,3.5-1.6.8-3.5,1.2-5.3,1.2-2.8.1-5.5-1-7.3-3.2-1.8-2.1-2.6-5.1-2.6-8.9-.1-3.5.8-7,2.6-10,1.6-2.6,3.9-4.8,6.5-6.3,2.4-1.4,5-2.4,7.7-2.8l.2.8c-1.7.5-3.3,1.2-4.8,2.2-1.5,1.1-2.8,2.5-3.6,4.2-1.2,2.4-1.9,4.9-2.1,7.5.6-.9,1.4-1.7,2.3-2.1,1-.5,2.1-.7,3.2-.7ZM546.5,397.3c1.1,0,2-.7,2.7-2.2.8-2.1,1.2-4.4,1.1-6.7.1-2.1-.2-4.3-1-6.3-.4-1.1-1.4-1.9-2.6-2-.8,0-1.6.3-2.2.8-.8.6-1.4,1.4-1.8,2.4,0,1.2,0,2.2,0,3-.2,2.8.2,5.7,1.2,8.4.8,1.7,1.7,2.6,2.8,2.6Z"/>
  <path class="st0" d="M346.4,270.8c0-1.9.3-3.7,1-5.4,1.3-3.6,4-6.6,7.5-8.2,2-.9,4.1-1.3,6.3-1.3,2.5,0,5,.6,7.2,1.8,1.9,1.1,3.5,2.8,4.5,4.7l-4.5,3.1c-.4-.8-.8-1.5-1.4-2.1-.5-.6-1.1-1-1.8-1.4-.6-.3-1.3-.6-2-.7-.7-.2-1.4-.2-2.1-.2-1.3,0-2.6.3-3.8.9-1.1.6-2,1.4-2.7,2.3-.7,1-1.3,2.1-1.6,3.2-.4,1.2-.5,2.4-.5,3.6,0,1.3.2,2.6.6,3.8.4,1.2,1,2.3,1.8,3.2.8.9,1.7,1.7,2.8,2.2,1.1.6,2.3.9,3.6.8.7,0,1.4,0,2.1-.3.7-.2,1.4-.4,2.1-.8.7-.4,1.3-.8,1.8-1.4.6-.6,1-1.3,1.4-2.1l4.8,2.7c-.5,1.1-1.2,2.1-2.1,3-.9.9-1.9,1.6-3,2.2-1.1.6-2.3,1.1-3.6,1.4-1.2.3-2.5.5-3.7.5-2,0-4.1-.4-5.9-1.4-1.7-.9-3.3-2.1-4.6-3.5-1.3-1.5-2.3-3.1-3-4.9-.7-1.8-1.1-3.7-1.1-5.6ZM386.9,286.4c-1.7,0-3.3-.3-4.9-.9-1.4-.6-2.6-1.4-3.7-2.5-1-1.1-1.8-2.3-2.3-3.7-1.1-2.8-1.1-5.9,0-8.7.5-1.4,1.3-2.6,2.3-3.7,1-1.1,2.3-1.9,3.7-2.5,1.5-.6,3.2-1,4.9-.9,1.7,0,3.3.3,4.8.9,1.4.6,2.6,1.4,3.6,2.5,1,1.1,1.8,2.3,2.3,3.7,1.1,2.8,1.1,5.9,0,8.7-.5,1.4-1.3,2.6-2.3,3.7-1,1.1-2.3,1.9-3.6,2.5-1.5.6-3.2,1-4.9.9ZM381.1,275c0,.9.1,1.8.4,2.7.3.8.7,1.5,1.2,2.1.5.6,1.1,1.1,1.8,1.4,1.5.6,3.1.6,4.6,0,.7-.3,1.3-.8,1.8-1.4.5-.6,1-1.3,1.2-2.1.3-.9.5-1.8.4-2.7,0-.9-.1-1.8-.4-2.7-.3-.8-.7-1.5-1.2-2.1-.5-.6-1.1-1.1-1.8-1.4-.7-.3-1.5-.5-2.3-.5-.8,0-1.6.2-2.3.5-.7.3-1.3.8-1.8,1.4-.5.6-1,1.3-1.2,2.1-.3.9-.5,1.8-.4,2.7h0ZM422.9,286h-5.7v-12.4c.1-1.4-.2-2.7-.9-3.9-.6-.8-1.6-1.3-2.6-1.2-.6,0-1.2.1-1.7.3-.6.2-1.2.6-1.7,1-.5.4-1,.9-1.4,1.5-.4.6-.7,1.2-.9,1.9v12.9h-5.7v-22.1h5.1v4.1c.8-1.4,2.1-2.6,3.6-3.3,1.6-.8,3.4-1.2,5.2-1.2,1.2,0,2.3.2,3.4.8.8.5,1.5,1.2,2,2,.5.9.8,1.8,1,2.8.2,1,.3,2.1.3,3.2v13.8ZM438.1,286.4c-1.7,0-3.3-.3-4.9-.9-1.4-.6-2.6-1.4-3.7-2.5-1-1.1-1.8-2.3-2.3-3.7-1.1-2.8-1.1-5.9,0-8.7.5-1.4,1.3-2.6,2.3-3.7,1-1.1,2.3-1.9,3.7-2.5,1.5-.6,3.2-1,4.9-.9,1.7,0,3.3.3,4.8.9,1.4.6,2.6,1.4,3.6,2.5,1,1.1,1.8,2.3,2.3,3.7,1.1,2.8,1.1,5.9,0,8.7-.5,1.4-1.3,2.6-2.3,3.7-1,1.1-2.3,1.9-3.6,2.5-1.5.6-3.2,1-4.9.9ZM432.3,275c0,.9.1,1.8.4,2.7.3.8.7,1.5,1.2,2.1.5.6,1.1,1.1,1.8,1.4,1.5.6,3.1.6,4.6,0,.7-.3,1.3-.8,1.8-1.4.5-.6,1-1.3,1.2-2.1.3-.9.5-1.8.4-2.7,0-.9-.1-1.8-.4-2.7-.3-.8-.7-1.5-1.2-2.1-.5-.6-1.1-1.1-1.8-1.4-.7-.3-1.5-.5-2.3-.5-.8,0-1.6.2-2.3.5-.7.3-1.3.8-1.8,1.4-.5.6-1,1.3-1.2,2.1-.3.9-.4,1.8-.4,2.7h0ZM452,274.9c0-1.5.3-3,.8-4.4.5-1.4,1.3-2.6,2.3-3.6,1-1.1,2.3-1.9,3.7-2.5,1.5-.6,3.2-1,4.9-.9,2.2,0,4.3.5,6.2,1.6,1.6,1,3,2.4,3.8,4.1l-5.5,1.7c-.5-.8-1.1-1.4-1.9-1.9-.8-.4-1.7-.7-2.6-.7-.8,0-1.6.2-2.3.5-.7.3-1.3.8-1.8,1.4-.5.6-1,1.3-1.2,2.1-.3.9-.5,1.8-.4,2.7,0,.9.1,1.8.5,2.7.3.8.7,1.5,1.2,2.1.5.6,1.1,1.1,1.8,1.4.7.3,1.5.5,2.2.5,1,0,2-.3,2.8-.8.8-.4,1.4-1.1,1.8-1.9l5.5,1.7c-.8,1.7-2.1,3.2-3.8,4.1-1.9,1.1-4.1,1.7-6.3,1.6-1.7,0-3.3-.3-4.9-.9-2.8-1.2-4.9-3.4-6-6.2-.5-1.4-.8-2.9-.8-4.4h0ZM487.3,286.4c-1.7,0-3.3-.3-4.9-.9-1.4-.6-2.6-1.4-3.7-2.5-1-1.1-1.8-2.3-2.3-3.7-1.1-2.8-1.1-5.9,0-8.7.5-1.4,1.3-2.6,2.3-3.7,1-1.1,2.3-1.9,3.7-2.5,1.5-.6,3.2-1,4.9-.9,1.7,0,3.3.3,4.8.9,1.4.6,2.6,1.4,3.6,2.5,1,1.1,1.8,2.3,2.3,3.7,1.1,2.8,1.1,5.9,0,8.7-.5,1.4-1.3,2.6-2.3,3.7-1,1.1-2.3,1.9-3.6,2.5-1.5.6-3.2,1-4.9.9h0ZM481.5,275c0,.9.1,1.8.4,2.7.3.8.7,1.5,1.2,2.1.5.6,1.1,1.1,1.8,1.4,1.5.6,3.1.6,4.6,0,.7-.3,1.3-.8,1.8-1.4.5-.6,1-1.3,1.2-2.1.3-.9.5-1.8.4-2.7,0-.9-.1-1.8-.4-2.7-.3-.8-.7-1.5-1.2-2.1-.5-.6-1.1-1.1-1.8-1.4-.7-.3-1.5-.5-2.3-.5-.8,0-1.6.2-2.3.5-.7.3-1.3.8-1.8,1.4-.5.6-1,1.3-1.2,2.1-.3.9-.4,1.8-.4,2.7h0Z"/>
  <path class="st1" d="M156.6,306.9c6.7,0,8.6-4.3,8.6-10.6v-2.5h-4.5v2.5c0,4.1-.2,6.8-4.1,6.8s-4.4-1.7-4.4-6.8v-13.6c0-4.2.4-7,4.4-7s4.1,2.6,4.1,6.4v2.4h4.5v-2.7c0-6.2-2.2-9.8-8.6-9.8s-9.2,4.5-9.2,11.5v12.1c0,6.4,1.9,11.4,9.2,11.4ZM169.8,306.5h4.8v-16.1h3.7l4.5,16.1h4.6l-4.9-17.2c3-1,4.2-4,4.2-8,0-6.5-3.2-9.1-10.1-9.1h-6.9v34.2ZM174.6,287.1v-11.3h2.1c4.3,0,5.5,1.6,5.5,5.7s-1.7,5.7-5.7,5.7h-1.8ZM199.8,306.9c4.2.3,7.9-2.9,8.2-7.2,0-.3,0-.6,0-1,0-4.3-2.3-7.3-4.9-9.6l-5.8-5.1c-1.5-1.1-2.3-2.8-2.2-4.6-.2-1.9,1.1-3.5,3-3.8.3,0,.5,0,.8,0,3.6,0,4.3,2.9,4.6,6.3l4.1-1.1c-.5-6-3.2-8.8-8.6-8.8s-8,2.9-8,7.9c-.2,2.9,1,5.7,3.3,7.6l5.7,5.1c2.2,1.9,3.7,3.5,3.7,6.6s-1.3,4-3.8,4c-3.7,0-4.6-3.7-4.9-7.4l-4.2,1.1c.3,5.9,3.1,10,9.1,10ZM215.5,306.5h4.8v-30.7h5.6v-3.5h-16.2v3.5h5.8v30.7Z"/>
  <path class="st2" d="M424.8,175.2h4.4l.4-20,3.9,20h3.7l3.8-19.9.5,19.9h4.3l-.5-29.3h-6.1l-3.8,18.5-3.6-18.5h-6.3l-.5,29.3ZM453.3,175.5c1.9-.1,3.7-.9,5-2.3v2h5.5v-20.9h-5.5v16.7c-.6.4-1.2.7-1.9.8-1,0-1.3-.7-1.3-1.7v-15.8h-5.5v16.5c0,2.6,1.2,4.8,3.7,4.8ZM467.6,175.2h5.5v-13.9c.7-1.2,2-2,3.4-2,.7,0,1.3.2,2,.4v-5.6c-.3,0-.6,0-.8,0-1.9,0-3.2,1.2-4.5,3.6v-3.4h-5.5v20.9ZM480.9,182h5.4v-8.5c1.1,1.2,2.7,1.8,4.3,2,3.2,0,4.7-2.9,4.7-6.9v-8.2c0-3.2-1.1-6.5-4.5-6.6-1.7,0-3.3.7-4.5,1.9v-1.6h-5.4v27.8ZM488.2,171.9c-.7,0-1.3-.2-1.8-.6v-13.1c.5-.5,1.2-.7,1.9-.8,1.2,0,1.6,1.2,1.6,2.8v8.8c0,1.7-.4,3-1.7,3ZM498.8,175.2h5.5v-16.4c.6-.5,1.3-.8,2.1-.9,1,0,1.3.6,1.3,1.7v15.6h5.4v-16.5c0-2.6-1.2-4.8-3.7-4.8-2,0-3.8.8-5.1,2.3v-10.3h-5.5v29.3ZM517.1,181.1h1.2c3.7,0,6.3-1.2,7.2-5.3l4.9-21.6h-5.2l-2.2,12.9-2.6-12.9h-5.2l4.8,17.7c.4,1.2.6,2.4.8,3.6,0,1.4-1.1,1.7-3.5,1.7v3.8ZM550.1,175.6c6.4,0,8.7-3.6,8.7-9.6v-11c0-6-2.2-9.5-8.7-9.5s-8.7,3.5-8.7,9.5v10.9c0,6,2.2,9.6,8.6,9.6h0ZM550.1,171.3c-2.3,0-2.6-1.9-2.6-3.9v-13.9c0-2,.3-3.8,2.6-3.8s2.6,1.8,2.6,3.8v13.9c0,2-.3,3.9-2.6,3.9h0ZM562.5,150.8h5.5v-4.1h-5.5v4.1ZM562.5,175.2h5.5v-20.9h-5.5v20.9ZM572,175.2h5.4v-29.3h-5.4v29.3Z"/>
  <path class="st1" d="M383.4,54.4c.2,0,.4.1.6.3l1.6,1.8c-1.2,1.4-2.8,2.6-4.5,3.4-2,.9-4.2,1.3-6.4,1.2-2,0-4-.4-5.9-1.1-1.7-.7-3.3-1.8-4.5-3.2-1.3-1.4-2.3-3.1-2.9-4.9-.7-2-1.1-4.1-1-6.3,0-2.1.3-4.3,1.1-6.3.7-1.8,1.7-3.5,3-4.9,1.3-1.4,2.9-2.5,4.7-3.2,1.9-.8,4-1.2,6-1.1,2,0,3.9.3,5.7,1,1.6.7,3.1,1.6,4.4,2.8l-1.4,1.9c0,.1-.2.3-.3.3-.2,0-.3.1-.5.1-.3,0-.7-.2-.9-.4-.5-.3-.9-.6-1.4-.9-1.7-.9-3.6-1.4-5.5-1.3-1.5,0-2.9.3-4.3.8-1.3.5-2.4,1.3-3.4,2.4-1,1.1-1.7,2.4-2.2,3.8-.5,1.6-.8,3.3-.8,5,0,1.7.2,3.4.8,5.1.5,1.4,1.2,2.7,2.2,3.8.9,1,2.1,1.8,3.3,2.3,1.3.5,2.7.8,4.1.8.8,0,1.6,0,2.4-.2.7,0,1.4-.3,2-.5.6-.2,1.2-.5,1.7-.9.6-.4,1.1-.8,1.6-1.2.2-.2.4-.3.7-.3ZM401.1,51c-1.5,0-3,.2-4.4.4-1,.2-2,.4-3,.9-.7.3-1.2.7-1.7,1.2-.3.5-.5,1-.5,1.6,0,.5,0,1,.3,1.5.2.4.4.7.7,1,.3.3.7.5,1.1.6.5.1.9.2,1.4.2.6,0,1.2,0,1.8-.2.5-.1,1.1-.3,1.6-.6.5-.3,1-.6,1.4-.9.5-.4.9-.8,1.3-1.2v-4.4ZM389,42.3c1.1-1.1,2.4-2,3.8-2.6,1.4-.6,3-.9,4.5-.8,1.1,0,2.2.2,3.2.6.9.4,1.7.9,2.3,1.6.7.7,1.1,1.6,1.4,2.6.3,1.1.5,2.2.5,3.3v13.7h-1.7c-.3,0-.6,0-.8-.2-.2-.2-.4-.4-.5-.7l-.4-2c-.5.5-1.1,1-1.6,1.4-.5.4-1.1.7-1.7,1-.6.3-1.2.5-1.9.6-.7.2-1.5.2-2.2.2-.8,0-1.6-.1-2.3-.3-.7-.2-1.4-.6-1.9-1-.6-.5-1-1.1-1.3-1.8-.3-.8-.5-1.7-.5-2.5,0-.9.2-1.7.7-2.4.6-.9,1.3-1.6,2.3-2.1,1.3-.7,2.7-1.2,4.1-1.5,2-.4,4.1-.6,6.2-.7v-1.7c0-1.3-.3-2.7-1.1-3.8-.8-.9-2-1.4-3.1-1.3-.8,0-1.6,0-2.3.3-.6.2-1.1.5-1.6.8-.5.3-.9.5-1.2.8-.3.2-.6.3-1,.3-.2,0-.5,0-.7-.2-.2-.1-.3-.3-.5-.5l-.7-1.2ZM414.1,43.6c.6-1.3,1.4-2.5,2.5-3.4,1-.8,2.3-1.3,3.6-1.2.4,0,.9,0,1.3.1.4,0,.8.2,1.1.5l-.3,2.8c0,.3-.3.5-.6.5-.3,0-.6,0-.9-.1-.4,0-.9-.1-1.3-.1-.6,0-1.2,0-1.8.3-.5.2-1,.5-1.4.9-.4.4-.8.9-1.1,1.4-.4.6-.7,1.3-.9,2v13.5h-3.8v-21.4h2.2c.3,0,.6,0,.8.2.2.2.3.5.3.8l.3,3.3ZM444.2,39.3l-8.7,21.4h-3.4l-8.7-21.4h3.1c.3,0,.5,0,.8.2.2.1.3.3.4.5l5.4,13.8c.2.5.3,1,.4,1.5.1.5.2,1,.4,1.5.1-.5.2-1,.4-1.5.1-.5.3-1,.5-1.5l5.5-13.8c0-.2.2-.4.4-.6.2-.1.4-.2.7-.2h2.9ZM458.8,51c-1.5,0-3,.2-4.4.4-1,.2-2,.4-3,.9-.7.3-1.2.7-1.7,1.2-.3.5-.5,1-.5,1.6,0,.5,0,1,.3,1.5.2.4.4.7.7,1,.3.3.7.5,1.1.6.5.1.9.2,1.4.2.6,0,1.2,0,1.8-.2.5-.1,1.1-.3,1.6-.6.5-.3,1-.6,1.4-.9.5-.4.9-.8,1.3-1.2v-4.4ZM446.7,42.3c1.1-1.1,2.4-2,3.8-2.6,1.4-.6,3-.9,4.5-.8,1.1,0,2.2.2,3.2.6.9.4,1.7.9,2.3,1.6.7.7,1.1,1.6,1.4,2.6.3,1.1.5,2.2.5,3.3v13.7h-1.7c-.3,0-.6,0-.8-.2-.2-.2-.4-.4-.5-.7l-.4-2c-.5.5-1.1,1-1.6,1.4-.5.4-1.1.7-1.7,1-.6.3-1.2.5-1.9.6-.7.2-1.5.2-2.2.2-.8,0-1.6-.1-2.3-.3-.7-.2-1.4-.6-1.9-1-.6-.5-1-1.1-1.3-1.8-.3-.8-.5-1.7-.5-2.5,0-.9.2-1.7.7-2.4.6-.9,1.3-1.6,2.3-2.1,1.3-.7,2.7-1.2,4.1-1.5,2-.4,4.1-.6,6.2-.7v-1.7c0-1.3-.3-2.7-1.1-3.8-.8-.9-2-1.4-3.1-1.3-.8,0-1.6,0-2.3.3-.6.2-1.1.5-1.6.8-.5.3-.9.5-1.2.8-.3.2-.6.3-1,.3-.2,0-.5,0-.7-.2-.2-.1-.3-.3-.5-.5l-.7-1.2ZM471.8,42.4c.5-.5.9-1,1.5-1.4.5-.4,1.1-.8,1.7-1.1.6-.3,1.2-.5,1.9-.7.7-.2,1.4-.2,2.1-.2,1.1,0,2.1.2,3.1.6.9.4,1.6.9,2.2,1.6.6.8,1.1,1.6,1.4,2.6.3,1.1.5,2.2.5,3.3v13.6h-3.8v-13.6c0-1.3-.3-2.7-1.1-3.8-.9-.9-2.1-1.4-3.4-1.3-1.1,0-2.2.3-3.1.8-1,.6-1.9,1.3-2.7,2.2v15.8h-3.8v-21.4h2.3c.5,0,.9.3,1,.8l.3,2.3ZM503.4,51c-1.5,0-3,.2-4.4.4-1,.2-2,.4-3,.9-.7.3-1.2.7-1.7,1.2-.3.5-.5,1-.5,1.6,0,.5,0,1,.3,1.5.2.4.4.7.7,1,.3.3.7.5,1.1.6.5.1.9.2,1.4.2.6,0,1.2,0,1.8-.2.5-.1,1.1-.3,1.6-.6.5-.3,1-.6,1.4-.9.5-.4.9-.8,1.3-1.2v-4.4ZM491.3,42.3c1.1-1.1,2.4-2,3.8-2.6,1.4-.6,3-.9,4.5-.8,1.1,0,2.2.2,3.2.6.9.4,1.7.9,2.3,1.6.7.7,1.1,1.6,1.4,2.6.3,1.1.5,2.2.5,3.3v13.7h-1.7c-.3,0-.6,0-.8-.2-.2-.2-.4-.4-.5-.7l-.4-2c-.5.5-1.1,1-1.6,1.4-.5.4-1.1.7-1.7,1-.6.3-1.2.5-1.9.6-.7.2-1.5.2-2.2.2-.8,0-1.6-.1-2.3-.3-.7-.2-1.4-.6-1.9-1-.6-.5-1-1.1-1.3-1.8-.3-.8-.5-1.7-.5-2.5,0-.9.2-1.7.7-2.4.6-.9,1.3-1.6,2.3-2.1,1.3-.7,2.7-1.2,4.1-1.5,2-.4,4.1-.6,6.2-.7v-1.7c0-1.3-.3-2.7-1.1-3.8-.8-.9-2-1.4-3.1-1.3-.8,0-1.6,0-2.3.3-.6.2-1.1.5-1.6.8-.5.3-.9.5-1.2.8-.3.2-.6.3-1,.3-.2,0-.5,0-.7-.2-.2-.1-.3-.3-.5-.5l-.7-1.2Z"/>
  <path class="st0" d="M676.1,340.8c.6,2.1,1.4,4.7,2.4,7.8,1,3.2,1.8,5.7,2.4,7.7.2,1,.6,2,1,3,0,0,.9-2.5,2.4-7.6,1.5-5.1,2.5-8.7,3-10.9h7.2c.1.3.2.7.2,1,0,.2,0,.4-.2.6-.2.1-.4.2-.6.2h-1.2c0,2.2,0,5.7.1,10.6.1,4.9.2,8.2.4,9.9h1.7c.1.3.2.7.2,1,0,.2,0,.4-.2.6-.2.1-.4.2-.6.2h-6.9c-.1-.4-.2-.7-.2-1.1,0-.2,0-.4.2-.5.2-.1.4-.2.6-.2h1c0-2.1,0-8.3-.1-18.7-.9,3.5-2,7.1-3.2,10.8-.7,2.2-1.5,4.4-2.4,6.5-.4.7-1.1,1.1-1.9,1-.7,0-1.4,0-2.1-.1-.9-2-1.7-4.1-2.4-6.2-1.4-4-2.7-8.1-3.8-12.1,0,10.5,0,16.7,0,18.8h1.6c.1.3.2.7.2,1,0,.4-.1.7-.5.8,0,0-.2,0-.3,0h-6.5c-.1-.4-.2-.7-.2-1.1,0-.2,0-.4.2-.5.2-.1.4-.2.6-.2h1.3c.1-1.6.2-4.9.4-9.9.1-4.9.2-8.5.1-10.6h-1.8c-.1-.4-.2-.7-.2-1.1,0-.2,0-.4.2-.5.2-.1.4-.2.6-.2h7.3ZM708.8,363.6c-1,.6-2,1-3.1,1.3-1,.3-2,.4-3.1.5-1.3.1-2.6-.3-3.6-1.1-.8-.9-1.3-2.1-1.2-3.3,0-1.6.6-3.2,1.9-4.1,1.8-1.1,3.9-1.6,6-1.4h2.6c0-1.5-.2-3-.9-4.3-.6-.9-1.7-1.3-2.8-1.2-.7,0-1.4,0-2,.2-.2.4-.4.8-.6,1.1-.3.1-.7.2-1,.3-.6.2-1,.1-1.3,0-.3-.3-.6-.8-.7-1.2-.2-.4-.3-.9-.4-1.4,0-.2.1-.4.3-.5.8-.3,1.6-.4,2.4-.5,1.5-.2,3-.3,4.4-.3,1.6-.1,3.2.3,4.6,1.1,1,.7,1.5,2,1.5,4v5.4c0,1.5,0,3.1.3,4.6.1.5.6.8,1.1.7,0,0,0,0,0,0,.1.2.2.5.2.8,0,.4-.3.7-.8.9-.6.2-1.3.3-2,.3-.3,0-.6,0-.9-.2-.5-.4-.8-.9-1-1.4ZM708.4,357.6c-1-.2-2.1-.3-3.1-.3-1,0-2,.1-2.8.7-.6.5-.9,1.3-.8,2.1,0,.8.2,1.5.7,2.1.6.5,1.4.8,2.2.7.7,0,1.5-.2,2.2-.5.6-.2,1.1-.7,1.3-1.3.3-.8.4-1.7.3-2.6v-1ZM723.9,349.2c-.9,0-1.8.3-2.5.9-.6,1-.9,2.2-.8,3.4,0,1.1.2,2.2.8,3.1.6.7,1.5,1.1,2.5,1,1,0,1.9-.2,2.6-.9.7-1,1-2.1.8-3.3,0-1.1-.2-2.3-.9-3.2-.6-.7-1.6-1.1-2.6-1.1h0ZM729.9,349.2c.7,1.1,1,2.4,1,3.8,0,1.8-.6,3.6-1.9,4.8-1.3,1.2-3.3,1.8-6,1.8-.8,0-1.7,0-2.4.4-.4.3-.6.7-.5,1.2,0,.6.3,1.1.7,1.3.5.3,2.3.4,5.4.4s5.1.3,6,.9c.9.6,1.4,1.7,1.4,2.8,0,1.9-1.2,3.6-2.9,4.4-1.9,1.1-4.9,1.6-9,1.6-1.4.1-2.8-.1-4-.8-.7-.5-1.1-1.4-1-2.3,0-.8.2-1.5.6-2.2.4-.8.9-1.5,1.6-2.2-.6-.2-1-.6-1.4-1.1-.4-.5-.5-1.1-.5-1.7,0-.7.2-1.4.7-2,.6-.7,1.3-1.2,2.1-1.6-.8-.3-1.4-.9-1.8-1.6-.5-1-.7-2-.7-3.1,0-1.9.6-3.7,1.9-5.1,1.6-1.4,3.6-2.2,5.7-2,1.3,0,2.7.2,3.9.7.9-.5,1.8-.8,2.7-1,.8,0,1.6,0,2.3.1.1,0,.2.2.2.4,0,.5-.2.9-.4,1.3-.3.6-.5.9-.8.9-.8-.2-1.6-.4-2.3-.8l-.4.5ZM721,365.5c-.4.4-.7.9-.9,1.4-.2.5-.3,1-.3,1.6,0,.7.2,1.3.7,1.7.9.4,1.9.6,2.9.5,1.6,0,3.3-.2,4.8-.8.9-.3,1.6-1.2,1.6-2.2,0-.8-.4-1.5-1.2-1.8-.8-.3-3.3-.5-7.6-.5ZM743.7,349.6c-1.1,0-2.1.4-2.7,1.3-.7,1.2-1.1,2.6-1,4h1.8c1.9,0,3.3,0,4-.1.7,0,1.1-.2,1.2-.4.1-.3.2-.7.2-1,0-1-.3-2-.9-2.7-.7-.7-1.6-1.1-2.6-1h0ZM744.4,347.2c1.8-.1,3.5.4,4.9,1.6,1.1,1,1.6,2.7,1.6,5.1,0,.8-.1,1.6-.6,2.2-.7.5-1.6.7-2.5.6h-7.8c0,1.6.3,3.2,1.2,4.5,1,1.2,2.5,1.8,4,1.6,1.7,0,3.5-.5,4.9-1.4.5.4.7,1,.8,1.6,0,.8-.7,1.3-2,1.7-1.4.3-2.9.5-4.4.5-3,0-5.2-.6-6.5-1.9-1.3-1.3-2-3.4-2-6.5-.1-2.5.6-5.1,2.2-7.1,1.6-1.8,3.8-2.7,6.2-2.6ZM756.1,354.8c0-5,0-8.2,0-9.5,0-.9,0-1.8-.3-2.7,0-.3-.3-.6-.6-.8-.4-.1-.7-.2-1.1-.2-.1-.3-.2-.7-.2-1.1,0-.3.2-.6.5-.7,1-.1,1.9-.2,2.9-.1.6,0,1.3,0,1.9.1.3,0,.5.3.6.5,0,.4,0,.8,0,1.2v14.8c0,2.8,0,5.1.1,6.7h2c.1.3.2.6.2,1,0,.2,0,.5-.2.7-.2.1-.5.2-.7.2h-7c-.1-.3-.2-.7-.2-1.1,0-.2,0-.4.2-.6.2-.1.4-.2.6-.2h1.3c0-1.6.1-4.4.1-8.3h0ZM766.8,354.8c0-5,0-8.2,0-9.5,0-.9,0-1.8-.3-2.7,0-.3-.3-.6-.6-.8-.4-.1-.7-.2-1.1-.2-.1-.3-.2-.7-.2-1.1,0-.3.2-.6.5-.7,1-.1,1.9-.2,2.9-.1.6,0,1.3,0,1.9.1.3,0,.5.3.6.5,0,.4,0,.8,0,1.2v14.8c0,2.8,0,5.1.1,6.7h2c.1.3.2.6.2,1,0,.2,0,.5-.2.7-.2.1-.5.2-.7.2h-7c-.1-.3-.2-.7-.2-1.1,0-.2,0-.4.2-.6.2-.1.4-.2.6-.2h1.3c0-1.6.1-4.4.1-8.3h0ZM786.2,363.6c-1,.6-2,1-3.1,1.3-1,.3-2,.4-3.1.5-1.3.1-2.6-.3-3.6-1.1-.8-.9-1.3-2.1-1.2-3.3,0-1.6.6-3.2,1.9-4.1,1.8-1.1,3.9-1.6,6-1.4h2.6c0-1.5-.2-3-.9-4.3-.6-.9-1.7-1.3-2.8-1.2-.7,0-1.4,0-2,.2-.2.4-.4.8-.6,1.1-.3.1-.7.2-1,.3-.6.2-1,.1-1.3,0-.3-.3-.6-.8-.7-1.2-.2-.4-.3-.9-.4-1.4,0-.2.1-.4.3-.5.8-.3,1.6-.4,2.4-.5,1.5-.2,3-.3,4.4-.3,1.6-.1,3.2.3,4.6,1.1,1,.7,1.5,2,1.5,4v5.4c0,1.5,0,3.1.3,4.6.1.5.6.8,1.1.7,0,0,0,0,0,0,.1.2.2.5.2.8,0,.4-.2.7-.8.9-.6.2-1.3.3-2,.3-.3,0-.6,0-.9-.2-.4-.4-.8-.9-1-1.4h0ZM785.8,357.6c-1-.2-2.1-.3-3.1-.3-1,0-2,.1-2.8.7-.6.5-.9,1.3-.8,2.1,0,.8.2,1.5.7,2.1.6.5,1.4.8,2.2.7.7,0,1.5-.2,2.2-.5.6-.2,1.1-.7,1.3-1.3.3-.8.4-1.7.3-2.6v-1ZM799,349.6c1.1-.7,2.2-1.3,3.5-1.7,1-.3,2-.5,3.1-.5,1.3,0,2.5.3,3.5,1.1.8.7,1.2,2.1,1.2,4.1,0,6.3,0,9.7.3,10.1.2.4.6.6,1.3.5.1.3.2.7.2,1,0,.3,0,.5-.3.6-.4.1-.7.2-1.1.2-1.6,0-2.6,0-3,0-.3,0-.6-.1-.7-.4-.2-.3-.2-.7-.2-1v-7.6c.1-1.7-.1-3.3-.8-4.8-.5-.8-1.5-1.3-2.5-1.2-.9,0-1.8.3-2.5.8-.8.8-1.2,1.9-1.1,3v3.7c0,2.1,0,4,.1,5.8h2c.1.3.2.6.2,1,0,.2,0,.5-.2.7-.2.1-.5.2-.7.2h-7c-.1-.3-.2-.7-.2-1.1,0-.2,0-.4.2-.6.2-.1.4-.2.6-.2h1.2c0-1.9.1-4.2.1-6.9s-.1-5.5-.4-6c-.3-.6-.9-.9-1.6-.8-.2-.3-.2-.7-.2-1,0-.3.1-.5.4-.6,1.6-.2,3.1-.3,4.7-.3,0,.7,0,1.4,0,2.1h0ZM833,340.8c.6,2.1,1.4,4.7,2.4,7.8,1,3.2,1.8,5.7,2.4,7.7.2,1,.6,2,1,3,0,0,.9-2.5,2.4-7.6,1.5-5.1,2.5-8.7,3-10.9h7.2c.1.3.2.7.2,1,0,.2,0,.4-.2.6-.2.1-.4.2-.6.2h-1.2c0,2.2,0,5.7.1,10.6.1,4.9.2,8.2.4,9.9h1.7c.1.3.2.7.2,1,0,.2,0,.4-.2.6-.2.1-.4.2-.6.2h-6.9c-.1-.4-.2-.7-.2-1.1,0-.2,0-.4.2-.5.2-.1.4-.2.6-.2h1c0-2.1,0-8.3-.1-18.7-.9,3.5-2,7.1-3.2,10.8-.7,2.2-1.5,4.4-2.4,6.5-.4.7-1.1,1.1-1.9,1-.7,0-1.4,0-2.1-.1-.9-2-1.7-4.1-2.4-6.2-1.4-4-2.7-8.1-3.8-12.1,0,10.5,0,16.7,0,18.8h1.6c.1.3.2.7.2,1,0,.4-.1.7-.5.8,0,0-.2,0-.3,0h-6.5c-.1-.4-.2-.7-.2-1.1,0-.2,0-.4.2-.5.2-.1.4-.2.6-.2h1.3c.1-1.6.2-4.9.4-9.9.1-4.9.2-8.5.1-10.6h-1.8c-.1-.4-.2-.7-.2-1.1,0-.2,0-.4.2-.5.2-.1.4-.2.6-.2h7.3ZM858.3,344.4c-.6,0-1.2-.1-1.7-.5-.4-.4-.6-.9-.5-1.4,0-.6.2-1.2.7-1.6.6-.4,1.2-.6,1.9-.6.6,0,1.3.1,1.8.5.4.4.6.8.5,1.4,0,.6-.2,1.2-.7,1.5-.6.4-1.3.7-2.1.6h0ZM862.7,363.2c.2.3.2.6.2,1,0,.2,0,.5-.2.7-.2.1-.5.2-.8.2h-7c-.1-.3-.2-.7-.2-1.1,0-.2,0-.4.2-.6.2-.1.4-.2.6-.2h1.3c0-1.6.1-3.6.1-5.8s0-4.5,0-5.4c0-.6,0-1.3-.3-1.9-.1-.3-.3-.5-.6-.6-.3,0-.7-.1-1-.1-.2-.3-.2-.6-.2-.9,0-.4.3-.8.7-.9.9-.1,1.8-.2,2.7-.2.6,0,1.3,0,1.9.1.3,0,.5.3.6.5,0,.4,0,.8,0,1.2v8c0,2.2,0,4.1.1,5.8h1.9ZM873.7,349.6c-1.2,0-2.4.5-3.1,1.5-.8,1.6-1.1,3.3-.9,5.1,0,1.7.2,3.4.9,5,.5,1.2,1.8,1.9,3,1.8.7,0,1.4-.1,2.1-.5.6-.2,1-.7,1.3-1.2.3-1.2.4-2.4.3-3.6v-7.2c-.5-.3-1-.5-1.5-.6-.7-.2-1.4-.3-2.1-.3h0ZM877.8,363.6c-.9.6-2,1-3,1.4-.9.3-1.9.4-2.9.4-1.7.1-3.4-.6-4.6-1.8-1.1-1.2-1.6-3.3-1.6-6.3s.7-5.8,2.2-7.5c1.6-1.8,4-2.8,6.5-2.6.6,0,1.1,0,1.7.1.5,0,.9.2,1.3.3,0-.9,0-1.8,0-2.8,0-.7,0-1.4-.2-2.1,0-.3-.3-.6-.6-.8-.4-.1-.7-.2-1.1-.2-.1-.3-.2-.7-.2-1.1,0-.3.1-.6.4-.7,1-.1,1.9-.2,2.9-.1.6,0,1.3,0,1.9.1.3,0,.5.3.6.5,0,.4,0,.8,0,1.2v12.7c0,2.6,0,5.3.3,7.9.2.7.5,1.1,1,1,.2.2.2.5.2.8,0,.3-.4.6-1.2.9-.6.3-1.3.4-1.9.4-.3,0-.5-.1-.7-.3-.3-.4-.6-.9-.8-1.5h0ZM727.4,376.7c1.8,0,3.6,0,5.3.5.9.1,1.5.9,1.5,1.7,0,.8-.4,1.6-1,2.1-2.2-1.1-4.5-1.6-6.9-1.7-1.1-.1-2.3.2-3.2.9-.6.7-1,1.6-.9,2.5,0,1,.4,2,1.1,2.6,1.3.9,2.7,1.6,4.2,1.9,2,.5,3.9,1.4,5.5,2.5,1.3,1.1,2.1,2.8,2,4.6.1,2.1-.8,4.1-2.4,5.4-1.6,1.2-4.1,1.8-7.4,1.8-1.8,0-3.6-.1-5.3-.5-1.2-.3-1.8-.9-1.8-1.8,0-.8.4-1.6,1-2.2,2.2,1.2,4.7,1.9,7.3,1.9,1.3.1,2.6-.2,3.7-.8.8-.6,1.2-1.6,1.1-2.6,0-1.3-.5-2.5-1.6-3.2-1.6-.9-3.3-1.7-5-2.2-1.8-.4-3.4-1.3-4.8-2.6-1-1.1-1.5-2.6-1.4-4.1,0-1.9.8-3.8,2.3-5,2-1.4,4.3-2,6.7-1.8ZM740.5,383.9l1.4-5c.4.1.9.3,1.3.5.3.2.6.4.8.8.2,1,.3,2,.2,3v.7h5.8c.1.4.2.8.2,1.2,0,.2,0,.5-.2.7-.2.1-.5.2-.8.2h-5.1v8.4c-.1,1.3,0,2.7.5,3.9.3.6,1,1,1.7,1,1,0,1.9-.3,2.7-.7.3.4.4.8.4,1.3,0,.6-.4,1.1-1,1.3-1.1.3-2.2.4-3.3.3-1.3.1-2.5-.2-3.5-1-.9-1-1.3-2.4-1.1-3.7v-4.2c0-2.3,0-4.5-.2-6.6h-1.7c-.1-.4-.2-.8-.2-1.2,0-.2,0-.5.2-.6.2-.2.4-.2.7-.2h1.2ZM752.8,384.6c0-.3.1-.5.4-.6,1.6-.2,3.1-.3,4.7-.3,0,.7,0,1.5,0,2.2,1.2-.8,2.4-1.4,3.8-1.8,1.1-.3,2.2-.5,3.3-.5.2,0,.5,0,.7.1.1,0,.2.2.2.5,0,.6,0,1.1-.2,1.6,0,.4-.3.8-.6,1.1-.3.2-.7.3-1.1.4-.3,0-.6,0-.9,0-.3-.3-.6-.6-.8-1-1,0-1.9.3-2.5,1-.6.7-1,2-1,4,0,3.6,0,6.3.1,8.1h2.5c.1.3.2.6.2,1,0,.2,0,.5-.2.7-.2.1-.5.2-.7.2h-7.5c-.1-.3-.2-.7-.2-1.1,0-.2,0-.4.2-.6.2-.1.4-.2.6-.2h1.2c0-1.8.1-4.1.1-6.9s-.1-5.5-.4-6c-.3-.6-.9-.9-1.6-.8-.1-.3-.2-.7-.2-1ZM775.6,385.8c-1.1,0-2.1.4-2.7,1.3-.7,1.2-1.1,2.6-1,4h1.8c1.9,0,3.3,0,4-.1.7,0,1.1-.2,1.2-.4.1-.3.2-.7.2-1,0-1-.3-2-.9-2.7-.7-.7-1.6-1.1-2.6-1h0ZM776.3,383.4c1.8-.1,3.5.4,4.9,1.6,1.1,1,1.6,2.7,1.6,5.1,0,.8-.1,1.6-.6,2.2-.7.5-1.6.7-2.5.6h-7.8c0,1.6.3,3.2,1.2,4.5,1,1.2,2.5,1.8,4,1.6,1.7,0,3.5-.5,4.9-1.4.5.4.7,1,.8,1.6,0,.8-.7,1.3-2,1.7-1.4.3-2.9.5-4.4.5-3,0-5.2-.6-6.5-1.9-1.3-1.3-2-3.4-2-6.5-.1-2.5.6-5.1,2.2-7.1,1.6-1.8,3.8-2.7,6.2-2.6h0ZM796.7,399.8c-1,.6-2,1-3.1,1.3-1,.3-2,.4-3.1.5-1.3.1-2.6-.3-3.6-1.1-.8-.9-1.3-2.1-1.2-3.3,0-1.6.6-3.2,1.9-4.1,1.8-1.1,3.9-1.6,6-1.4h2.6c0-1.5-.2-3-.9-4.3-.6-.9-1.7-1.3-2.8-1.2-.7,0-1.4,0-2,.2-.2.4-.4.8-.6,1.1-.3.1-.7.2-1,.3-.6.2-1,.1-1.3,0-.3-.3-.6-.8-.7-1.2-.2-.4-.3-.9-.4-1.4,0-.2.1-.4.3-.5.8-.3,1.6-.4,2.4-.5,1.5-.2,3-.3,4.4-.3,1.6-.1,3.2.3,4.6,1.1,1,.7,1.5,2,1.5,4v5.4c0,1.5,0,3.1.3,4.6.1.5.6.8,1.1.7,0,0,0,0,0,0,.1.2.2.5.2.8,0,.4-.3.7-.8.9-.6.2-1.3.3-2,.3-.3,0-.6,0-.9-.1-.5-.4-.8-.9-1-1.4h0ZM796.4,393.8c-1-.2-2.1-.3-3.1-.3-1,0-2,.1-2.8.7-.6.5-.9,1.3-.8,2.1,0,.8.2,1.5.7,2.1.6.5,1.4.8,2.2.7.7,0,1.5-.2,2.2-.5.6-.2,1.1-.7,1.3-1.3.3-.8.4-1.7.3-2.6v-1ZM820.5,389.9c0,4.9,0,8.1.1,9.5h1.9c.2.3.2.6.2,1,0,.2,0,.5-.2.7-.2.1-.5.2-.8.2h-6.2c-.1-.3-.2-.7-.2-1.1,0-.2,0-.4.2-.6.2-.1.4-.2.6-.2h.6c0-1.7.1-4.2.1-7.3.1-1.7-.1-3.3-.8-4.8-.5-.8-1.5-1.3-2.5-1.2-.8,0-1.6.3-2.2.8-.8.8-1.2,1.9-1.1,3v3.7c0,2.1,0,4,.1,5.8h1.4c.1.3.2.6.2,1,0,.2,0,.5-.2.7-.2.1-.5.2-.7.2h-6.4c-.1-.3-.2-.7-.2-1.1,0-.2,0-.4.2-.6.2-.1.4-.2.6-.2h1.2c0-1.9.1-4.2.1-6.9s-.1-5.5-.4-6c-.3-.6-.9-.9-1.6-.8-.2-.3-.2-.7-.2-1,0-.3.1-.5.4-.6,1.6-.2,3.1-.3,4.7-.3,0,.7,0,1.4,0,2.1,1-.7,2.2-1.3,3.4-1.7,1-.3,2-.5,3-.5.9,0,1.9.2,2.7.6.6.4,1,.9,1.3,1.5,1-.7,2.1-1.2,3.2-1.6.9-.3,1.9-.5,2.9-.5,1.2,0,2.4.3,3.4,1.1.8.7,1.2,2.1,1.2,4.1,0,6.3,0,9.7.3,10.1s.6.6,1.3.5c.1.3.2.7.2,1,0,.3,0,.5-.3.6-.4.1-.7.2-1.1.2-1.6,0-2.6,0-3,0-.3,0-.6-.1-.7-.4-.2-.3-.2-.7-.2-1v-7.6c.1-1.7-.1-3.3-.8-4.8-.5-.8-1.5-1.3-2.5-1.2-.8,0-1.6.3-2.2.8-.8.8-1.2,1.9-1.1,3h0Z"/>
  <path class="st0" d="M750.1,29.7h-25.1l-.3,7.2h1.1c.8-4.7,2.3-5.5,8.3-5.7h1.2s0,24.3,0,24.3c0,2-.4,2.5-3.6,2.8v1.2h11.7v-1.2c-3.2-.3-3.6-.8-3.6-2.8v-24.3h1.2c5.9.3,7.5,1.1,8.3,5.8h1.1l-.3-7.2ZM759.6,59.9c5.7.2,10.4-4.3,10.5-10,0-.2,0-.4,0-.7.3-5.6-4-10.3-9.6-10.5-.2,0-.5,0-.7,0-5.7-.1-10.4,4.3-10.5,10,0,.2,0,.5,0,.7-.3,5.5,4,10.3,9.6,10.5.2,0,.5,0,.7,0ZM759.9,58.2c-3.6,0-6.1-3.6-6.1-9.2s2.2-8.6,5.8-8.6,6.1,3.6,6.1,9.2-2.2,8.7-5.8,8.7ZM774.8,43.6l6.4,15.7c-1.6,3.3-3.4,6.5-5.3,9.6h0c0,0,3.6,0,3.6,0l3.4-9.4,1.6-4,4.8-11.7c1.2-2.9,1.7-3.2,3.6-3.5v-1.2h-7.5v1.2c2.7.3,3.2.8,2.2,3.2l-4.3,11-4.1-11.1c-.9-2.4-.5-2.9,2.2-3.2v-1.2h-9.9v1.2c1.9.4,2.4.8,3.4,3.3ZM803.9,59.9c5.7.2,10.4-4.3,10.5-10,0-.2,0-.4,0-.7.3-5.6-4-10.3-9.6-10.5-.2,0-.5,0-.7,0-5.7-.1-10.4,4.3-10.5,10,0,.2,0,.5,0,.7-.3,5.5,4,10.3,9.6,10.5.2,0,.4,0,.7,0h0ZM804.1,58.2c-3.6,0-6.1-3.6-6.1-9.2s2.2-8.6,5.8-8.6,6.1,3.6,6.1,9.2c0,5.3-2.2,8.7-5.8,8.7ZM820.1,53.9c0,4.5,2.6,6,5.4,6,1.9,0,3.6-.6,5.1-1.8v-1.2c-.9.6-1.9.9-3,.9-2,0-3.4-1.1-3.4-4.5v-12.5h6.1c0,.1,0-1.7,0-1.7l-6.1.2v-4.1h-.6l-6.2,4.9v.8h2.7v13ZM838.9,59.9c2.6.1,5-1,6.6-3,.4,1.8,2.1,3.1,3.9,2.9,1.2,0,2.3-.3,3.3-.9v-1.1c-.3.1-.7.2-1.1.2-1.3,0-2.2-.7-2.2-2.5v-10.4c0-4.4-3-6.3-7.6-6.3s-8.3,1.9-8.3,4.7c0,1.2,1,2.2,2.2,2.2,0,0,0,0,0,0,1.2,0,2.2-.9,2.3-2.1,0,0,0,0,0,0,0-.9-.6-1.8-1.4-2.1,1.1-.6,2.4-.9,3.7-.9,3,0,5.1,1.3,5.1,5.1v1.8l-4.6,1c-5.6,1.2-7.9,3.1-7.9,6.4,0,3,2.6,5.1,6,5.1h0ZM837,54c0-2.3,1.4-3.7,5.6-4.6l2.8-.6v6.8c-1,1.4-2.7,2.2-4.4,2.2-2,.2-3.8-1.3-3.9-3.3,0-.1,0-.3,0-.4h0Z"/>
  <path class="st1" d="M720.1,186.2h3.6v.2c0,.5.1,1,.4,1.4.3.4.8.7,1.3.9.6.2,1.3.3,1.9.3.7,0,1.4-.2,2-.5.6-.3,1.1-.9,1.4-1.6.4-1.5.5-3.1.4-4.6v-18.8h3.6v18.9c0,3-.3,5-1,6.1-.6,1-1.4,1.9-2.4,2.4-1.2.6-2.5.8-3.9.8-2.7,0-4.6-.6-5.7-1.7-1-.9-1.6-2.3-1.7-3.7v-.2ZM759.1,176.4c1.8.3,3.5,1.3,4.7,2.7,1,1.2,1.5,2.7,1.5,4.2,0,1.3-.3,2.6-1,3.7-.7,1.2-1.7,2.1-2.9,2.8-2,.8-4.2,1.2-6.4,1h-8.2v-27.4h7.3c2.3-.1,4.5.1,6.7.7,1.1.4,2,1.1,2.6,2.1.6.9.9,2,.9,3.1,0,1.3-.4,2.6-1.1,3.8-1,1.5-2.4,2.6-4,3.3ZM750.4,175.3h3.4c1.4,0,2.7-.2,4-.7.9-.5,1.6-1.2,2.1-2,.5-.8.8-1.8.8-2.7,0-1-.4-2-1.2-2.6-1.3-.9-2.9-1.3-4.4-1.1h-4.6v9.2ZM750.4,188.1h5c2.4,0,4-.4,4.9-1.3.9-.8,1.3-2,1.3-3.2,0-1-.3-1.9-.9-2.7-.6-.9-1.5-1.6-2.5-2-1.7-.6-3.5-.9-5.2-.8h-2.6v10ZM780.4,190.9h-3.6v-27.4h3.6v12.2h12.6v-12.2h3.6v27.4h-3.6v-12.5h-12.6v12.5ZM814.4,171.1h3.3v19.8h-3.3v-3.4c-.5.9-1.2,1.7-2,2.4-.6.5-1.3.9-2.1,1.2-.7.3-1.5.4-2.3.4-1.7,0-3.3-.5-4.7-1.5-1.3-1-1.9-3.1-1.9-6.2v-12.5h3.3v11.1c0,2.9.4,4.6,1.2,5.2.8.6,1.8.9,2.8.9,1,0,2-.3,2.8-.9.9-.6,1.6-1.4,2.1-2.4.6-1.4.9-2.8.8-4.3v-9.7ZM826.2,190.9h-3.3v-19.8h3.3v3.4c.6-.9,1.2-1.7,2-2.4.6-.5,1.3-.9,2.1-1.2.8-.3,1.6-.4,2.4-.4,1.2,0,2.3.2,3.3.8,1,.5,1.8,1.3,2.3,2.2.6,1.5.9,3.1.8,4.7v12.6h-3.3v-11.2c0-1.3,0-2.5-.4-3.8-.2-.7-.7-1.3-1.4-1.7-.7-.4-1.4-.6-2.2-.6-1,0-1.9.3-2.8.9-.9.6-1.6,1.4-2.1,2.4-.6,1.4-.9,2.8-.8,4.3v9.7ZM856.1,188.1v2.8c-1.2.3-2.4.5-3.7.6-1.2,0-2.3-.2-3.3-.7-1-.5-1.7-1.2-2.2-2.2-.6-1.4-.9-3-.8-4.5v-10.1h-3.4v-2.8h3.4v-4.7h3.3v4.7h5.8v2.8h-5.8v9.2c0,1.2,0,2.4.4,3.6.2.6.7,1.2,1.3,1.5.6.3,1.4.5,2.1.5,1,0,2-.3,2.9-.6ZM723.7,227.1v-24.7h-9.4v-2.8h22.1v2.8h-9.2v24.7h-3.6ZM742.9,227.1h-3.3v-19.8h3.3v3.5c.5-.9,1.1-1.7,1.8-2.3.6-.5,1.3-1,2.1-1.3.7-.3,1.5-.4,2.2-.4.6,0,1.2,0,1.8.3v3.4c-.8-.4-1.6-.5-2.5-.5-1.4,0-2.7.6-3.6,1.6-1.2,1.1-1.7,3-1.7,5.8v9.7ZM766.2,207.3h3.3v19.8h-3.3v-3.4c-.5.9-1.2,1.7-2,2.4-.6.5-1.3.9-2.1,1.2-.7.3-1.5.4-2.3.4-1.7,0-3.3-.5-4.7-1.5-1.3-1-1.9-3.1-1.9-6.2v-12.5h3.3v11.1c0,2.9.4,4.6,1.2,5.2.8.6,1.8.9,2.8.9,1,0,2-.3,2.8-.9.9-.6,1.6-1.4,2.1-2.4.6-1.4.9-2.8.8-4.3v-9.7ZM787.1,222h3.3v.2c0,1-.4,1.9-1,2.7-.7.9-1.6,1.6-2.6,2.1-1.2.5-2.6.7-3.9.7-2.5.2-5-.9-6.7-2.8-1.7-2.2-2.5-4.9-2.4-7.7-.2-2.7.7-5.5,2.4-7.6,1.7-1.9,4.2-2.9,6.7-2.8,1.3,0,2.7.2,3.9.7,1,.4,1.9,1.1,2.6,2,.6.8,1,1.8,1,2.8v.2h-3.3v-.2c0-.7-.3-1.5-1-1.9-.9-.6-2-.9-3.1-.8-1.6,0-3.1.6-4.2,1.8-1.1,1.2-1.7,3.2-1.7,5.9s.6,4.7,1.7,5.9c1.1,1.2,2.6,1.8,4.2,1.8,1.1,0,2.2-.2,3.1-.8.6-.4,1-1.1,1-1.9v-.2ZM797.9,227.1h-3.4v-28.5h3.4v18.2l8.8-9.4h3.8l-8.6,9.2,8.9,10.6h-4.1l-8.8-10.3v10.3ZM814,207.3h3.3v19.8h-3.3v-19.8ZM814,202.9v-3.3h3.3v3.3h-3.3ZM825.8,227.1h-3.3v-19.8h3.3v3.4c.6-.9,1.2-1.7,2-2.4.6-.5,1.3-.9,2.1-1.2.8-.3,1.6-.4,2.4-.4,1.2,0,2.3.2,3.3.8,1,.5,1.8,1.3,2.3,2.2.6,1.5.9,3.1.8,4.7v12.6h-3.3v-11.2c0-1.3,0-2.5-.4-3.8-.2-.7-.7-1.3-1.4-1.7-.7-.4-1.4-.6-2.2-.6-1,0-1.9.3-2.8.9-.9.6-1.6,1.4-2.1,2.4-.6,1.4-.9,2.8-.8,4.3v9.7ZM857.2,222.9c-.6,1.3-1.5,2.4-2.6,3.1-1.1.7-2.5,1.1-3.8,1-2.3,0-4.4-1-5.8-2.8-1.6-2.1-2.4-4.6-2.3-7.3,0-1.9.3-3.7,1-5.4.6-1.5,1.6-2.8,2.9-3.6,1.3-.8,2.8-1.2,4.3-1.2,1.2,0,2.3.2,3.3.7,1.2.7,2.2,1.7,2.9,3v-3.1h3.3v16.1c0,4.1-.4,6.7-1.3,8-.8,1.2-1.9,2.2-3.2,2.9-1.4.7-3,1-4.6.9-1.5,0-3-.2-4.4-.7-1.1-.4-2.2-1.1-2.9-2-.6-.7-1-1.7-1-2.6v-.3h3.3v.3c0,.9.6,1.7,1.4,2.1,1.1.6,2.3.8,3.6.8,1,0,2.1-.2,3-.6.9-.4,1.6-1.1,2-2,.6-1.6.9-3.3.8-5v-2.4ZM857.2,216.6c0-1.9-.5-3.7-1.6-5.1-1.6-2.2-4.7-2.6-6.9-1-.4.3-.7.6-1,1-1.2,1.6-1.7,3.6-1.6,5.6,0,1.3.2,2.7.6,4,.4,1.1,1.1,2,2,2.6.9.6,1.9.9,2.9.9,1.6,0,3.2-.8,4-2.2,1.1-1.7,1.6-3.7,1.6-5.7h0Z"/>
</svg>