<?xml version="1.0" encoding="UTF-8"?>
<svg id="Layer_1" xmlns="http://www.w3.org/2000/svg" version="1.1" viewBox="0 0 885 430">
  <!-- Generator: Adobe Illustrator 29.7.1, SVG Export Plug-In . SVG Version: 2.1.1 Build 8)  -->
  <defs>
    <style>
      .st0 {
        fill: #c2c2c2;
      }

      .st1 {
        fill: #c4c4c4;
      }

      .st2 {
        fill: #949494;
      }

      .st3 {
        fill: #7f7f7f;
      }
    </style>
  </defs>
  <path class="st2" d="M26.2,25.1v5.7h8.7v-5.7h-2.3v-2.5h7.7v2.5h-2.3v15h2.3v2.5h-7.7v-2.5h2.3v-6.9h-8.7v6.9h2.4v2.5h-7.7v-2.5h2.3v-15h-2.3v-2.5h7.7v2.5h-2.4ZM53.9,33.6v6.6h2.3v2.4h-4.8v-1.7c-1.2,1.2-2.8,1.9-4.4,2-1.6,0-3.2-.8-4.1-2.2-.9-1.4-.9-3.2,0-4.6.5-.7,1.1-1.2,1.9-1.6.8-.4,1.6-.6,2.4-.6,1.4,0,2.7.4,3.8,1.2v-1.5c0-.8-.2-1.7-.7-2.3-.6-.5-1.5-.8-2.3-.7-.6,0-1.3.1-1.9.4-.5.3-.9.7-1.2,1.2l-2.6-.7c.5-1,1.4-1.9,2.4-2.5,1.1-.6,2.4-.9,3.6-.8,1.5-.1,3,.3,4.1,1.3,1,1.1,1.4,2.6,1.3,4ZM47.4,40.8c1.4,0,2.8-.6,3.8-1.7v-1.6c-1-.9-2.3-1.4-3.6-1.4-.7,0-1.4.2-1.9.7-1,.8-1.1,2.3-.2,3.2,0,0,0,0,.1.1.5.4,1.1.7,1.8.7ZM62.9,37v3.2h3v2.4h-8.6v-2.4h2.8v-9.1h-2.8v-2.5h5v3.2c.4-1.1,1.1-2,2.1-2.6,1.1-.6,2.3-.8,3.6-.7h.6v2.8h-.6c-1.1,0-2.3.1-3.3.6-.7.4-1.2,1-1.4,1.8-.3,1.1-.4,2.3-.3,3.4h0ZM86.5,35.7c0,1.3-.3,2.5-.9,3.7-.6,1.1-1.4,2-2.5,2.7-1,.7-2.2,1-3.5,1-1.9,0-3.6-.8-4.9-2.2v5.6h2.7v2.4h-8v-2.4h2.5v-15.3h-2.3v-2.5h5.1v2.2c.6-.8,1.4-1.4,2.3-1.8.8-.4,1.7-.6,2.7-.6,1.2,0,2.5.3,3.5,1,1,.6,1.9,1.6,2.4,2.6.6,1.1.9,2.4.9,3.6ZM79.6,40.5c.7,0,1.5-.2,2.1-.7.6-.5,1.1-1.1,1.4-1.8.3-.8.5-1.6.5-2.4,0-.8-.2-1.6-.6-2.4-.4-.7-.9-1.3-1.6-1.7-.7-.4-1.5-.7-2.3-.6-.8,0-1.6.2-2.3.7-.7.5-1.2,1.1-1.6,1.8-.4.8-.6,1.6-.6,2.5,0,1.3.4,2.5,1.4,3.4,1,.8,2.2,1.3,3.5,1.2h0ZM97,29.3v-.6h2.4v4.6h-2.4v-.8c-.7-1.1-2-1.8-3.3-1.7-.6,0-1.2.1-1.8.5-.4.3-.7.7-.7,1.2,0,.4.2.8.5,1.1.7.4,1.5.6,2.4.7l1.8.4c2.8.5,4.1,1.9,4.1,4.1,0,1.2-.5,2.4-1.5,3.1-1.2.8-2.6,1.2-4,1.2-.7,0-1.3,0-1.9-.3-.6-.2-1.1-.4-1.6-.7v.8h-2.5v-4.8h2.4v.5c.1.7.5,1.3,1.1,1.6.6.4,1.4.6,2.2.6.7,0,1.5-.1,2.1-.5.5-.3.8-.8.8-1.4,0-.4-.2-.8-.6-1-.8-.3-1.6-.6-2.5-.7l-1.4-.3c-1.2-.2-2.2-.7-3.1-1.5-.7-.7-1-1.7-1-2.6,0-.8.2-1.6.7-2.2.5-.6,1.1-1.1,1.9-1.4.7-.3,1.5-.5,2.3-.5,1.2,0,2.3.2,3.4.8ZM122.2,28.5v-3.4h-7.5v5.9h6.5v2.5h-6.5v6.6h2.6v2.5h-8.1v-2.5h2.5v-15h-2.5v-2.5h15.6v5.9h-2.5ZM138.8,35.7c0,1.3-.3,2.6-1,3.7-1.3,2.3-3.7,3.7-6.4,3.7-1.3,0-2.6-.3-3.8-1-1.1-.6-2-1.6-2.6-2.7-.6-1.1-1-2.4-.9-3.7,0-1.3.3-2.6.9-3.8.6-1.1,1.5-2,2.6-2.6,1.2-.6,2.5-1,3.8-.9,1.3,0,2.6.3,3.7,1,2.2,1.3,3.6,3.8,3.6,6.4h0ZM131.5,40.4c.8,0,1.6-.2,2.3-.6.7-.4,1.2-1,1.6-1.7.4-.7.6-1.5.6-2.4,0-.8-.2-1.6-.6-2.3-.4-.7-.9-1.3-1.6-1.7-1.4-.9-3.1-.9-4.5,0-.7.4-1.2,1-1.6,1.7-.8,1.5-.8,3.2,0,4.7.4.7.9,1.3,1.6,1.7.7.4,1.5.6,2.3.6ZM155.5,35.7c0,1.3-.3,2.6-1,3.7-1.3,2.3-3.7,3.7-6.4,3.7-1.3,0-2.6-.3-3.8-1-1.1-.6-2-1.6-2.6-2.7-.6-1.1-1-2.4-.9-3.7,0-1.3.3-2.6.9-3.8.6-1.1,1.5-2,2.6-2.6,1.2-.6,2.5-1,3.8-.9,1.3,0,2.6.3,3.7,1,2.2,1.3,3.6,3.8,3.6,6.4ZM148.2,40.4c.8,0,1.6-.2,2.3-.6.7-.4,1.2-1,1.6-1.7.4-.7.6-1.5.6-2.4,0-.8-.2-1.6-.6-2.3-.4-.7-.9-1.3-1.6-1.7-1.4-.9-3.1-.9-4.5,0-.7.4-1.2,1-1.6,1.7-.8,1.5-.8,3.2,0,4.7.4.7.9,1.3,1.6,1.7.7.4,1.5.6,2.3.6h0ZM174.7,40.2v2.4h-5.3v-2c-1.3,1.5-3.1,2.3-5,2.3-1.3,0-2.5-.3-3.6-.9-1-.6-1.9-1.5-2.4-2.6-.6-1.1-.9-2.4-.9-3.6,0-1.3.3-2.6.9-3.7.6-1.1,1.5-2,2.5-2.7,1-.7,2.3-1,3.5-1,.9,0,1.8.2,2.6.5.9.4,1.7,1,2.4,1.7v-5.5h-2.7v-2.4h5.4v17.6h2.5ZM165,40.4c.8,0,1.6-.2,2.3-.7.7-.5,1.2-1.1,1.6-1.8.4-.7.6-1.6.6-2.4,0-.8-.2-1.6-.6-2.4-.8-1.5-2.3-2.4-4-2.3-.8,0-1.6.2-2.3.7-.7.5-1.2,1.1-1.6,1.8-.8,1.5-.8,3.3,0,4.8.4.7.9,1.3,1.6,1.7.7.4,1.5.6,2.3.6h0ZM184.6,29.3v-.6h2.4v4.6h-2.4v-.8c-.7-1.1-2-1.8-3.3-1.7-.6,0-1.2.1-1.8.5-.4.3-.7.7-.7,1.2,0,.4.2.8.5,1.1.7.4,1.5.6,2.4.7l1.8.4c2.8.5,4.1,1.9,4.1,4.1,0,1.2-.5,2.4-1.5,3.1-1.2.8-2.6,1.2-4,1.2-.7,0-1.3,0-1.9-.3-.6-.2-1.1-.4-1.6-.7v.8h-2.4v-4.8h2.4v.5c.1.7.5,1.3,1.1,1.6.6.4,1.4.6,2.1.6.7,0,1.5-.1,2.1-.5.5-.3.8-.8.8-1.4,0-.4-.2-.8-.6-1-.8-.3-1.6-.6-2.5-.7l-1.4-.3c-1.2-.2-2.2-.7-3.1-1.5-.7-.7-1-1.7-1-2.6,0-.8.2-1.6.7-2.2.5-.6,1.1-1.1,1.9-1.4.7-.3,1.5-.5,2.3-.5,1.2,0,2.3.2,3.4.8Z"/>
  <path class="st2" d="M489.7,311.6v-3.4h-8.6v6h7.5v2.5h-7.5v6.6h8.6v-3.7h2.5v6.2h-16.7v-2.5h2.6v-15h-2.6v-2.5h16.7v5.9h-2.5ZM507.5,316.4v7h2.3v2.4h-5.1v-9.2c0-.7,0-1.3-.4-1.9-.3-.4-.8-.6-1.2-.6-1.5.1-3,.8-4.1,1.8v7.4h2.4v2.4h-7.6v-2.4h2.5v-9.1h-2.5v-2.5h5.2v1.7c1.4-1.1,3.1-1.8,4.8-1.9,1.1,0,2.1.3,2.8,1.2.7,1.1,1,2.3.9,3.6ZM521.1,311.5c1.2,0,2.4.3,3.5,1,1,.6,1.9,1.6,2.4,2.6.6,1.1.9,2.3.9,3.6,0,1.3-.3,2.5-.9,3.7-.6,1.1-1.4,2-2.4,2.7-1,.7-2.2,1-3.5,1-1,0-2-.2-2.9-.6-.9-.4-1.6-1-2.2-1.7v2.1h-5.1v-2.4h2.5v-15.2h-2.5v-2.4h5.1v8.1c1.3-1.5,3.1-2.4,5.1-2.4ZM520.6,323.6c.8,0,1.6-.2,2.3-.7.7-.5,1.2-1.1,1.6-1.8.4-.8.6-1.6.6-2.4,0-.8-.2-1.6-.6-2.3-.4-.7-.9-1.3-1.6-1.7-.7-.4-1.5-.6-2.3-.6-.8,0-1.6.2-2.3.7-.7.4-1.2,1-1.6,1.8-.4.8-.6,1.6-.6,2.5,0,.8.2,1.7.6,2.4.4.7.9,1.3,1.6,1.7.7.4,1.4.6,2.2.6h0ZM535.1,320.2v3.2h3v2.4h-8.6v-2.4h2.8v-9.1h-2.8v-2.5h5v3.2c.4-1.1,1.1-2,2.1-2.6,1.1-.6,2.3-.8,3.6-.7h.6v2.8h-.6c-1.1,0-2.3.1-3.3.6-.7.4-1.2,1-1.4,1.8-.3,1.1-.4,2.3-.4,3.4h0ZM547.1,307.1c0,.4-.2.9-.5,1.2-.3.3-.7.5-1.2.5-.4,0-.9-.2-1.2-.5-.3-.3-.5-.7-.5-1.2,0-.4.2-.9.5-1.2.3-.3.7-.5,1.2-.5.4,0,.9.2,1.2.5.3.3.5.7.5,1.2ZM549,323.4v2.4h-7.1v-2.4h2.2v-9.1h-2.2v-2.5h4.9v11.5h2.1ZM567.8,323.4v2.4h-5.3v-2c-1.3,1.5-3.1,2.3-5,2.3-1.3,0-2.5-.3-3.6-.9-1-.6-1.9-1.5-2.4-2.6-.6-1.1-.9-2.4-.9-3.6,0-1.3.3-2.6.9-3.7.6-1.1,1.5-2,2.5-2.7,1-.7,2.3-1,3.5-1,.9,0,1.8.2,2.6.5.9.4,1.7,1,2.4,1.7v-5.5h-2.7v-2.4h5.4v17.6h2.5ZM558,323.6c.8,0,1.6-.2,2.3-.7.7-.5,1.2-1.1,1.6-1.8.4-.7.6-1.6.6-2.4,0-.8-.2-1.6-.6-2.4-.8-1.5-2.3-2.4-4-2.3-.8,0-1.6.2-2.3.7-.7.5-1.2,1.1-1.6,1.8-.8,1.5-.8,3.3,0,4.8.4.7.9,1.3,1.6,1.7.7.4,1.5.6,2.3.6h0ZM581,313.8v-2h5.3v2.5h-2.5v10.5c.1,2.1-.5,4.1-1.8,5.6-1.4,1.4-3.4,2.1-5.4,2-2.1,0-4.1-.6-5.7-1.9l1.8-2c.6.4,1.2.8,1.9,1.1.7.2,1.4.4,2.1.4,1.2,0,2.4-.4,3.2-1.3.8-.9,1.2-2.2,1.2-3.4v-1.3c-.6.7-1.4,1.3-2.3,1.7-.9.4-1.8.6-2.8.6-1.2,0-2.4-.3-3.5-1-1-.6-1.9-1.5-2.4-2.6-.6-1.1-.9-2.3-.9-3.6,0-1.3.3-2.6.9-3.7.6-1.1,1.4-2,2.5-2.7,1-.7,2.3-1,3.5-1,.9,0,1.8.2,2.6.5.9.4,1.7,1,2.3,1.7h0ZM576.5,323.8c.8,0,1.6-.2,2.4-.7.7-.4,1.3-1,1.6-1.8.4-.7.6-1.6.6-2.4,0-.8-.2-1.6-.6-2.3-.4-.7-.9-1.3-1.6-1.8-1.4-.9-3.2-.9-4.6,0-.7.4-1.2,1-1.6,1.8-.4.7-.6,1.6-.6,2.4,0,.8.2,1.7.5,2.4.3.7.9,1.3,1.5,1.7.7.4,1.5.7,2.3.6h0ZM602.4,319.5h-11.7c.1,1.2.7,2.3,1.6,3.2.9.8,2,1.2,3.2,1.2.9,0,1.8-.2,2.6-.6.8-.4,1.5-1,2-1.8l2.4,1.1c-.7,1.2-1.8,2.1-3,2.7-1.3.6-2.6.9-4,.9-1.4,0-2.8-.3-4-.9-1.1-.6-2.1-1.5-2.7-2.6-.7-1.2-1-2.5-1-3.8,0-1.3.3-2.6,1-3.8.6-1.1,1.5-2,2.6-2.6,2.4-1.3,5.2-1.3,7.6,0,1.1.7,2,1.6,2.6,2.8.7,1.3,1,2.8,1,4.3h0ZM595,313.7c-1,0-2,.4-2.7,1-.8.7-1.3,1.7-1.5,2.8h8.8c-.2-1.1-.8-2.1-1.6-2.8-.8-.7-1.8-1.1-2.9-1h0Z"/>
  <path class="st0" d="M348.7,399.1c0-2.6-1.8-4.9-4.4-5.5,1.4-.7,2.3-2.2,2.2-3.8,0-2.8-2.4-5.1-5.2-5.1,0,0-.2,0-.3,0h-5v20.4h6.2c3.4.2,6.2-2.4,6.4-5.8,0,0,0-.2,0-.3ZM344.4,389.8c0,1.8-1.5,3.2-3.2,3.2s-.2,0-.3,0h-2.7v-6.5h2.7c1.8-.2,3.4,1.1,3.6,2.9,0,.1,0,.2,0,.4ZM346.5,399.1c0,2.4-2,4.3-4.3,4.3-.1,0-.2,0-.3,0h-3.7v-8.6h3.6c2.6,0,4.8,1.6,4.8,4.3ZM363.5,404.2c-1.1-.2-1.9-1.2-1.8-2.4v-6.6c0-3.1-2.3-4.8-5.4-4.8-1.5,0-3,.3-4.4,1.2l.4,1.7c1.2-.7,2.5-1.1,3.8-1.1,2.2,0,3.4,1.1,3.4,2.9v1.4l-3.8.4c-2.5.2-4.7,1.7-4.7,4.5,0,2.4,2,4.3,4.4,4.3,0,0,.2,0,.3,0,1.8.1,3.5-.9,4.1-2.6.1,1.3,1,2.3,2.3,2.6l1.3-1.3ZM359.7,400c0,2-1.6,3.7-3.6,3.7h-.1c-1.4.1-2.7-.9-2.8-2.4,0,0,0,0,0-.1,0-1.6,1.1-2.7,3.1-2.8l3.4-.3v1.9ZM369.8,404.3c-1.1-.3-1.9-1.3-1.9-2.5v-19.4h-2v19.6c-.1,1.7.9,3.2,2.5,3.6l1.4-1.4ZM376.5,404.3c-1.1-.3-1.9-1.3-1.9-2.5v-19.4h-2v19.6c-.1,1.7.9,3.2,2.5,3.6l1.4-1.4ZM390.7,404.2c-1.1-.2-1.9-1.2-1.8-2.4v-6.6c0-3.1-2.3-4.8-5.4-4.8-1.5,0-3,.3-4.4,1.2l.4,1.7c1.2-.7,2.5-1.1,3.8-1.1,2.2,0,3.4,1.1,3.4,2.9v1.4l-3.8.4c-2.5.2-4.7,1.7-4.7,4.5,0,2.4,2,4.3,4.4,4.3,0,0,.2,0,.3,0,1.8.1,3.5-.9,4.1-2.6.1,1.3,1,2.3,2.3,2.6l1.3-1.3ZM386.8,400c0,2-1.6,3.7-3.6,3.7h-.1c-1.4.1-2.7-.9-2.8-2.4,0,0,0,0,0-.1,0-1.6,1.1-2.7,3.1-2.8l3.4-.3v1.9ZM400.9,390.7c-.4-.1-.9-.2-1.4-.2-2.1,0-4,1.4-4.5,3.5h0v-3.3h-2v14.5h2v-7.4c0-3.7,2-5.2,4.3-5.2.4,0,.8,0,1.1.1l.5-2.1ZM415,405.2v-22.8h-2v9.5c-1.2-1-2.7-1.6-4.3-1.5-4,0-7.3,3.1-7.4,7.1,0,.2,0,.3,0,.5-.2,4,3,7.4,7,7.5,0,0,.2,0,.3,0,1.7.1,3.4-.6,4.5-1.9h0v1.6h2ZM413,401.8c-1,1.2-2.5,1.9-4.1,1.9-3,0-5.5-2.4-5.6-5.4,0-.1,0-.2,0-.3,0-3.1,2.4-5.7,5.5-5.8,1.6,0,3.1.6,4.2,1.7v7.9ZM438.8,390.3c0-3.5-2.9-5.5-6-5.5h-5.9v20.4h2.1v-9.3h3.9c3.1.2,5.7-2.2,5.9-5.2,0,0,0-.2,0-.3h0ZM436.6,390.3c0,2.1-1.7,3.7-3.8,3.7,0,0-.2,0-.3,0h-3.5v-7.4h3.5c2.2,0,4.2,1.4,4.2,3.7h0ZM455.7,398c0-4.2-3.5-7.6-7.7-7.5-4.1,0-7.5,3.4-7.5,7.5,0,4.2,3.5,7.6,7.7,7.5,4.1,0,7.5-3.4,7.5-7.5ZM453.6,398c0,3.1-2.3,5.7-5.4,5.8-3.1.1-5.7-2.3-5.8-5.4,0-.1,0-.2,0-.4-.1-3.1,2.3-5.7,5.4-5.8,3.1-.1,5.7,2.3,5.8,5.4,0,.1,0,.3,0,.4ZM478.1,390.7h-1.9l-2.7,7.4c-.4,1.1-.8,2.5-1.2,3.7h0c-.4-1.2-.7-2.6-1.2-3.7l-2.7-7.4h-1.5l-2.7,7.4c-.4,1.2-.9,2.6-1.2,3.7h0c-.3-1.1-.8-2.6-1.2-3.7l-2.7-7.4h-2l5.4,14.8h.7l2.9-8c.4-1.2.9-2.7,1.3-4.1h0c.4,1.4.9,2.8,1.3,4.1l2.9,7.9h.7l5.4-14.8ZM492.9,396c0-2.8-2.2-5.6-6.2-5.6-4,.1-7.1,3.5-7,7.5,0,0,0,0,0,0,0,4.1,3.3,7.5,7.4,7.6,0,0,.2,0,.3,0,1.5,0,2.9-.3,4.2-1l.3-2c-1.3.8-2.7,1.2-4.2,1.2-3,.1-5.6-2.2-5.8-5.3,0,0,0-.2,0-.3h9.8l1.2-1.2c0-.3,0-.7,0-1h0ZM490.8,396c0,.2,0,.3,0,.5h-8.9c.4-2.4,2.4-4.2,4.9-4.4,2.1,0,3.9,1.6,4,3.7,0,0,0,.1,0,.2h0ZM503.8,390.7c-.4-.1-.9-.2-1.4-.2-2.1,0-4,1.4-4.5,3.5h0v-3.3h-2v14.5h2v-7.4c0-3.7,2-5.2,4.3-5.2.4,0,.8,0,1.1.1l.5-2.1Z"/>
  <path class="st3" d="M88.1,414.7v-1c-1.7,0-2.4-.7-3.3-2.8l-7.6-17.4h-1.3l-6.8,16.1c-1.5,3.6-2,4.2-3.8,4.2v1h6.7v-1c-1.5,0-2.1-.2-2.1-1.1,0-.5.1-1.1.4-1.6l1.4-3.4h8.2l1.2,2.9c.3.6.5,1.3.5,2,0,1.1-1.2,1.2-2.2,1.2v1h8.6ZM79.4,406.4h-7.2l3.6-9h0l3.5,9ZM101.2,410.1c-1,1.6-2.7,2.6-4.6,2.5-2.6,0-5-2-5-6.4h10.1c-.2-4.5-2.5-7-5.9-7s-6.8,2.6-6.8,7.9,3,7.9,6.8,7.9,4.8-2,6-4.4l-.6-.4ZM91.6,405c.3-3,1.5-4.5,3.7-4.5s3.3,2.2,3.4,4.5h-7.1ZM115.8,409.9c-1.4,1.9-2.5,2.7-4.6,2.7-3.3,0-4.9-2.8-4.9-6.7s1.6-5.6,4.2-5.6,1.7,3.6,4.1,3.6,1.3-.5,1.3-1.4c0-1.9-1.9-3.4-4.9-3.4-4.6,0-7.2,3.3-7.2,8.3s2.4,7.5,6.4,7.5,5-2,6.2-4.6l-.6-.4ZM125.3,399.2c-4.3,0-7.2,3.1-7.2,7.8s2.7,8.1,7.2,8.1,7.1-2.8,7.1-8.2c0-4.7-2.7-7.6-7.1-7.6h0ZM125.2,400.4c2.8,0,4.3,2.7,4.3,6.6s-1.4,6.8-4,6.8c-2.8,0-4.3-2.1-4.3-7.2s1.6-6.1,4.1-6.1h0ZM148.9,404.8c0-3.7-1.4-5.7-4.3-5.7s-3.4,1.2-5.1,2.7h-.1v-2.6s-.7,0-.7,0l-4.1.9v.9c.3,0,.6,0,.9,0,.9,0,1.3.3,1.3,1.4v9c0,1.8,0,2.3-2.2,2.3v.9h7.3v-.9c-2.3,0-2.4-.5-2.4-2.3v-8.2c1-1.1,2.4-1.9,3.9-2,1.4,0,2.9.6,2.9,4.4v5.8c0,1.8,0,2.3-2.4,2.3v.9h7.4v-.9c-2.1,0-2.4-.5-2.4-2.3v-6.6Z"/>
  <path class="st1" d="M46.9,309.8h-4.5v19.6h11.7v-3.9h-7.2v-15.7ZM65.1,323c.2,1.4-.8,2.6-2.1,2.8-.1,0-.3,0-.4,0-1.1,0-2.3-.8-2.3-2.8v-6.9h-4.2v7.2c0,4.1,1.7,6.5,5.3,6.5,1.7,0,3.2-1,3.8-2.6v2.3h4.2v-13.3h-4.2v6.9ZM77,329.4v-20.5h-4.2v20.5h4.2ZM89.5,323c.2,1.4-.8,2.6-2.1,2.8-.1,0-.3,0-.4,0-1.1,0-2.3-.8-2.3-2.8v-6.9h-4.2v7.2c0,4.1,1.7,6.5,5.3,6.5,1.7,0,3.2-1,3.8-2.6v2.3h4.2v-13.3h-4.2v6.9ZM101.4,329.4v-20.5h-4.2v20.5h4.2ZM118.3,322.5c0-3.7-3-6.7-6.6-6.7-.1,0-.2,0-.3,0-3.8-.1-7,2.8-7.1,6.6,0,.1,0,.3,0,.4,0,3.7,2.9,6.9,6.6,6.9.2,0,.4,0,.6,0,2.2,0,4.3-.8,5.8-2.3l-2.2-2.7c-.9.9-2.1,1.3-3.4,1.4-1.4.1-2.7-.7-3.1-2.1h9.7c0-.7,0-1.1,0-1.5ZM108.5,321.5c.3-1.3,1.5-2.3,2.9-2.2,1.4-.1,2.6.8,2.7,2.2h-5.6ZM137.4,315.7c-1.8,0-3.4,1-4.4,2.5-.8-1.6-2.4-2.6-4.2-2.5-1.6,0-3,1-3.6,2.4v-2.1h-4.2v13.3h4.2v-6.9c0-2.2,1.2-2.8,2.3-2.8s2.1.7,2.1,2.8v6.9h4.2v-6.5c0-2.3,1-3.2,2.3-3.2s2.1.7,2.1,2.7v7h4.2v-7.1c0-4.1-1.7-6.5-5-6.5ZM152.2,329.7c3.9-.1,6.9-3.3,6.8-7.2-.1-3.9-3.3-6.9-7.2-6.8-3.8.1-6.8,3.2-6.8,7,0,3.9,3.2,7,7.1,7,0,0,0,0,.1,0h0ZM152.2,325.8c-1.6,0-2.9-1.3-2.9-2.9,0,0,0-.1,0-.2,0-1.6,1.1-3,2.8-3.1,1.6,0,3,1.1,3.1,2.8,0,.1,0,.2,0,.3,0,1.6-1.2,3-2.8,3.1,0,0-.1,0-.2,0h0ZM170.1,315.7c-1.7,0-3.2,1.1-3.8,2.6v-2.3h-4.2v13.3h4.2v-6.9c-.2-1.3.7-2.6,2.1-2.8.2,0,.3,0,.5,0,1.1,0,2.3.8,2.3,2.8v6.9h4.2v-7.1c0-4.1-1.7-6.5-5.3-6.5Z"/>
  <path class="st3" d="M15.4,210.9h-2.4v-21.5h2.8l6.7,15.4,6.2-15.4h2.7v21.5h-2.5v-16.7c0,0,0,0,0,0l-1.4,3.9-3.8,9.6h-2.8l-4.1-9.6-1.3-3.5h0v3.5c0,0,0,12.9,0,12.9ZM45,210.9c-.2-.7-.4-1.4-.4-2.1-.8.9-1.8,1.6-2.9,2.1-.7.3-1.5.4-2.3.4-1.2,0-2.3-.4-3.2-1.1-.9-.8-1.4-1.9-1.3-3.1,0-1.4.7-2.7,1.9-3.5,2-1.1,4.2-1.8,6.4-2.1l1.4-.3v-1.7c0-.8-.3-1.6-1-2-.7-.4-1.5-.6-2.3-.6-.9,0-1.8.2-2.5.7-.6.4-.9,1-.9,1.7v.2h-2.8v-.2c0-.8.3-1.5.9-2.1.6-.7,1.4-1.3,2.3-1.6,1-.4,2.1-.6,3.1-.6,1.1,0,2.1.2,3.1.5.8.3,1.5.8,2,1.4.5,1,.8,2.2.6,3.3v6c0,.7,0,1.4,0,2.1,0,.9.2,1.7.5,2.5h-2.7ZM44.6,203.1l-.8.2c-1.8.3-3.5.9-5,1.8-.7.5-1.1,1.2-1.1,2,0,.4.1.8.3,1.1.2.4.6.6,1,.8.4.2.8.3,1.3.3.8,0,1.5-.2,2.1-.6.7-.4,1.2-1,1.6-1.7.4-.8.6-1.6.6-2.5v-1.5ZM53.8,210.9h-2.6v-15.5h2.6v2.7c.4-.7.8-1.3,1.4-1.8.5-.4,1-.8,1.6-1,.6-.2,1.1-.3,1.7-.3.5,0,.9,0,1.4.2v2.7c-.6-.3-1.3-.4-1.9-.4-1.1,0-2.1.5-2.8,1.3-.9.8-1.4,2.4-1.4,4.5v7.7ZM67.2,210.2l-6.7-14.8h2.9l5.2,11.5,4.9-11.5h2.6l-6.5,15.5c-.5,1.5-1.3,2.9-2.2,4.1-.5.6-1.2,1.1-1.9,1.4-.8.3-1.7.4-2.6.4h-1.9v-2.1h1.5c.6,0,1.3,0,1.9-.3.5-.2,1-.5,1.3-.9.6-.8,1.1-1.8,1.4-2.7l.3-.6ZM86.7,210.9h-2.8v-21.5h2.8v10.3l9-10.3h3.2l-8.9,10.1,10.3,11.5h-3.5l-10-11.2v11.2ZM112.3,210.9c-.2-.7-.4-1.4-.4-2.1-.8.9-1.8,1.6-2.9,2.1-.7.3-1.5.4-2.3.4-1.2,0-2.3-.4-3.2-1.1-.9-.8-1.4-1.9-1.3-3.1,0-1.4.7-2.7,1.9-3.5,2-1.1,4.2-1.8,6.4-2.1l1.4-.3v-1.7c0-.8-.3-1.6-1-2-.7-.4-1.5-.6-2.3-.6-.9,0-1.8.2-2.5.7-.6.4-.9,1-.9,1.7v.2h-2.8v-.2c0-.8.3-1.5.9-2.1.6-.7,1.4-1.3,2.3-1.6,1-.4,2.1-.6,3.1-.6,1.1,0,2.1.2,3.1.5.8.3,1.5.8,2,1.4.5,1,.8,2.2.6,3.3v6c0,.7,0,1.4,0,2.1,0,.9.2,1.7.5,2.5h-2.7ZM111.9,203.1l-.8.2c-1.8.3-3.5.9-5,1.8-.7.5-1.1,1.2-1.1,2,0,.4.1.8.3,1.1.2.4.6.6,1,.8.4.2.8.3,1.3.3.8,0,1.5-.2,2.1-.6.7-.4,1.2-1,1.6-1.7.4-.8.6-1.6.6-2.5v-1.5ZM123.5,210.2l-6.7-14.8h2.9l5.2,11.5,4.9-11.5h2.6l-6.5,15.5c-.5,1.5-1.3,2.9-2.2,4.1-.5.6-1.2,1.1-1.9,1.4-.8.3-1.7.4-2.6.4h-1.9v-2.1h1.5c.6,0,1.3,0,1.9-.3.5-.2,1-.5,1.3-.9.6-.8,1.1-1.8,1.4-2.7l.3-.6ZM16.1,235.9h2.6c0,1.1-.3,2-.9,2.7-.6.9-1.4,1.5-2.4,1.9-1.1.4-2.3.6-3.6.6-2.6,0-5-1-6.7-2.9-1.7-1.9-2.6-4.8-2.6-8.6s.9-6.6,2.6-8.5c1.7-1.9,4.2-3,6.8-2.9,1.2,0,2.4.2,3.5.6,1,.4,1.8,1.1,2.4,2,.5.7.8,1.6.9,2.6h0c0,.1-2.6.1-2.6.1h0c0-.7-.2-1.2-.5-1.7-.4-.5-.8-.9-1.4-1.1-.7-.3-1.5-.4-2.2-.4-2-.1-3.9.9-4.9,2.6-1.2,2-1.7,4.3-1.6,6.7,0,2.3.5,4.7,1.6,6.7,1,1.7,2.9,2.7,4.9,2.6,1.1.1,2.3-.2,3.2-.9.6-.5.9-1.3.9-2.1h0ZM28.3,240.9c-1.9,0-3.8-.7-5.2-2.1-1.5-1.7-2.3-3.9-2.1-6.1-.2-2.2.6-4.5,2.1-6.1,2.9-2.8,7.5-2.8,10.4,0,1.5,1.6,2.3,3.9,2.1,6.1.2,2.3-.6,4.5-2.1,6.1-1.4,1.3-3.2,2.1-5.2,2.1ZM28.3,238.8c1.3,0,2.6-.6,3.4-1.7.9-1.3,1.3-2.8,1.3-4.4,0-1.6-.4-3.1-1.3-4.4-1.4-1.9-4.1-2.2-5.9-.8-.3.2-.6.5-.8.8-.9,1.3-1.3,2.8-1.3,4.4,0,1.6.4,3.1,1.3,4.4.8,1.1,2,1.7,3.4,1.7h0ZM38.1,236.4h2.6c0,.7.3,1.3.8,1.7.8.5,1.7.7,2.6.7.9,0,1.8-.2,2.6-.8.6-.4,1-1.1,1-1.8,0-1-.6-1.6-1.9-2l-1.3-.4-.9-.3-1.8-.6c-2-.8-3.1-2-3.1-3.7,0-1.2.5-2.4,1.5-3.2,1.2-1,2.8-1.5,4.4-1.4,1.5-.1,2.9.3,4.1,1.2.8.7,1.2,1.6,1.2,2.6h0s-2.6,0-2.6,0h0c0-.6-.3-1-.8-1.3-.6-.3-1.4-.5-2.1-.4-.8,0-1.7.2-2.4.6-.5.4-.8,1-.8,1.6,0,.5.2.9.5,1.2.5.4,1.2.7,1.8.8l1.2.4.9.3c.8.2,1.6.5,2.4.8.3.2.6.3.9.6.4.3.8.7,1,1.2.2.5.3,1.1.3,1.7,0,1.4-.5,2.7-1.6,3.7-1.3,1.1-2.9,1.6-4.6,1.5-1.1,0-2.2-.2-3.2-.6-.8-.3-1.5-.9-2-1.6-.5-.7-.8-1.5-.7-2.3h0ZM56.1,240.5h-2.6v-15.5h2.6v2.8c.4-.7.9-1.4,1.5-2,.5-.4,1-.7,1.6-.9.6-.2,1.2-.3,1.8-.3.6,0,1.2,0,1.8.3.6.2,1.1.5,1.5.9.6.6,1,1.3,1.3,2,.4-.8.9-1.4,1.6-2,.5-.4,1-.7,1.6-.9,1.3-.5,2.8-.4,4.1.3.7.4,1.3,1,1.7,1.8.5,1.2.7,2.6.6,3.9v9.7h-2.6v-8.6c0-1.2,0-2.3-.3-3.5-.2-.4-.5-.8-.9-1.1-.4-.3-.9-.4-1.4-.4-.8,0-1.5.2-2.1.7-.7.5-1.2,1.2-1.6,1.9-.4,1.1-.6,2.2-.6,3.4v7.5h-2.6v-8.6c0-1.2,0-2.3-.3-3.5-.2-.5-.5-.9-.9-1.1-.4-.2-.9-.4-1.4-.4-.8,0-1.5.3-2.1.7-.7.5-1.2,1.2-1.6,2-.4,1.1-.6,2.2-.6,3.3v7.5ZM89.1,236.5h2.6v.2c0,.8-.3,1.5-.8,2.1-.6.7-1.3,1.3-2.2,1.6-1,.4-2,.6-3.1.5-2.1.1-4.1-.7-5.5-2.3-1.3-1.6-2-3.7-1.9-5.8,0-2.2.6-4.3,2-5.9,1.3-1.5,3.2-2.4,5.2-2.4,1.1,0,2.2.2,3.2.8,1,.5,1.8,1.4,2.3,2.4.6,1.4.9,3,.8,4.5v.8h-11c0,1.5.4,2.9,1.3,4.1.9,1.1,2.3,1.7,3.7,1.6.9,0,1.8-.2,2.5-.7.5-.3.8-.9.8-1.5v-.2ZM80.9,231.1h8.4v-.3c0-.7-.2-1.5-.5-2.1-.3-.6-.8-1.2-1.4-1.5-.7-.3-1.4-.5-2.1-.5-1,0-2,.4-2.7,1.2-.9.9-1.4,2-1.6,3.3ZM104.7,238.3v2.2c-.9.3-1.9.4-2.9.4-.9,0-1.8-.2-2.6-.6-.8-.4-1.4-1-1.8-1.7-.5-1.1-.7-2.3-.6-3.5v-8h-2.7v-2.2h2.7v-3.7h2.6v3.7h4.5v2.2h-4.5v7.2c0,1,0,1.9.3,2.8.2.5.5.9,1,1.2.5.3,1.1.4,1.6.4.8,0,1.6-.2,2.3-.5ZM107.9,225h2.6v15.5h-2.6v-15.5ZM107.9,221.6v-2.6h2.6v2.6h-2.6ZM124.3,236.5h2.6v.2c0,.8-.3,1.5-.8,2.1-.5.7-1.2,1.3-2.1,1.6-1,.4-2,.6-3.1.6-2,.1-3.9-.7-5.3-2.2-1.3-1.7-2-3.9-1.9-6-.1-2.2.5-4.3,1.9-6,1.3-1.5,3.3-2.3,5.3-2.2,1,0,2.1.2,3.1.6.8.3,1.5.9,2.1,1.5.5.6.8,1.4.8,2.2v.2h-2.6v-.2c0-.6-.3-1.1-.7-1.5-.7-.5-1.6-.7-2.4-.6-1.2,0-2.4.5-3.3,1.4-1,1.3-1.5,3-1.3,4.6-.1,1.7.3,3.3,1.3,4.6.8.9,2,1.5,3.3,1.4.8,0,1.7-.2,2.4-.6.5-.3.8-.9.8-1.5v-.2ZM129.1,236.4h2.6c0,.7.3,1.3.8,1.7.8.5,1.7.7,2.6.7.9,0,1.8-.2,2.6-.8.6-.4,1-1.1,1-1.8,0-1-.6-1.6-1.9-2l-1.3-.4-.9-.3-1.8-.6c-2-.8-3.1-2-3.1-3.7,0-1.2.5-2.4,1.5-3.2,1.2-1,2.8-1.5,4.4-1.4,1.5-.1,2.9.3,4.1,1.2.8.7,1.2,1.6,1.2,2.6h0s-2.6,0-2.6,0h0c0-.6-.3-1-.8-1.3-.6-.3-1.4-.5-2.1-.4-.8,0-1.7.2-2.4.6-.5.4-.8,1-.8,1.6,0,.5.2.9.5,1.2.5.4,1.2.7,1.8.8l1.2.4.9.3c.8.2,1.6.5,2.4.8.3.2.6.3.9.6.4.3.8.7,1,1.2.2.5.3,1.1.3,1.7,0,1.4-.6,2.7-1.6,3.7-1.3,1.1-2.9,1.6-4.6,1.5-1.1,0-2.2-.2-3.2-.6-.8-.3-1.5-.9-2-1.6-.5-.7-.8-1.5-.7-2.3h0Z"/>
  <path class="st1" d="M253.5,113.7c-.2,0-.4,0-.5-.2-.1-.1-.2-.3-.2-.5v-18.5c0-.2,0-.4.2-.5.1-.1.3-.2.5-.2h2.6c.2,0,.5,0,.6.2.1.2.2.3.3.3l5.2,9.6,5.3-9.6c0-.1.2-.2.3-.3.2-.2.4-.2.6-.2h2.6c.4,0,.7.3.7.7,0,0,0,0,0,0v18.5c0,.4-.3.7-.7.7,0,0,0,0,0,0h-2.9c-.2,0-.4,0-.5-.2-.1-.1-.2-.3-.2-.5v-11.5l-3.6,6.8c0,.2-.2.3-.4.5-.2.1-.4.2-.6.2h-1.3c-.2,0-.4,0-.6-.2-.1-.1-.3-.3-.4-.5l-3.6-6.8v11.5c0,.2,0,.4-.2.5-.1.1-.3.2-.5.2h-2.9ZM282.4,114c-1.3,0-2.5-.2-3.7-.8-1-.5-1.9-1.3-2.5-2.2-.6-1.1-1-2.3-1-3.5,0-.3,0-.7,0-1.2s0-.8,0-1.2c0-1.2.4-2.5,1-3.5.6-1,1.5-1.7,2.5-2.2,1.2-.5,2.4-.8,3.7-.8,1.1,0,2.2.2,3.2.5.8.3,1.5.7,2.2,1.3.5.5,1,1,1.3,1.7.2.5.4,1,.4,1.5,0,.2,0,.4-.2.5-.1.1-.3.2-.5.2h-3c-.2,0-.3,0-.4-.1-.1-.1-.2-.3-.3-.4-.2-.6-.5-1.1-1-1.4-.5-.3-1-.4-1.6-.4-.8,0-1.5.3-2,.8-.6.7-.8,1.6-.8,2.6,0,.7,0,1.4,0,2,0,.9.3,1.8.8,2.6.5.5,1.3.8,2,.8.6,0,1.1-.1,1.6-.4.5-.4.8-.9,1-1.4,0-.2.2-.3.3-.4.1-.1.3-.2.5-.2h3c.2,0,.4,0,.5.2.1.1.2.3.2.5,0,.4-.1.8-.3,1.1-.2.5-.4.9-.8,1.3-.4.5-.8.9-1.4,1.3-.6.4-1.3.7-2,.9-.9.2-1.8.4-2.7.4ZM300.5,114c-1.6,0-3.1-.3-4.5-.9-1.2-.6-2.2-1.5-2.9-2.6-.7-1.3-1.1-2.7-1.1-4.2,0-.8,0-1.6,0-2.5s0-1.7,0-2.6c0-1.5.4-2.9,1.2-4.2.7-1.1,1.7-2.1,2.9-2.6,1.4-.6,2.9-1,4.5-.9,1.2,0,2.3.1,3.5.5,1,.3,1.9.8,2.7,1.4.7.6,1.3,1.3,1.8,2.1.4.8.7,1.8.7,2.7,0,.2,0,.3-.2.4-.1.1-.3.2-.4.2h-3.2c-.2,0-.4,0-.5-.2-.2-.2-.3-.4-.3-.6-.2-.9-.7-1.7-1.4-2.3-.7-.4-1.6-.7-2.5-.6-1,0-2,.3-2.8,1-.8.9-1.2,2-1.1,3.2,0,1.6,0,3.1,0,4.8,0,1.2.3,2.3,1.1,3.2.8.7,1.8,1,2.8,1,.9,0,1.7-.2,2.5-.6.8-.5,1.3-1.4,1.4-2.3,0-.2.1-.4.3-.6.2-.1.3-.2.5-.2h3.2c.2,0,.3,0,.4.2.1.1.2.3.2.4,0,.9-.3,1.9-.7,2.7-.4.8-1,1.6-1.8,2.1-.8.6-1.7,1.1-2.7,1.4-1.1.3-2.3.5-3.5.5ZM318.7,114c-1.4,0-2.7-.2-4-.8-1-.5-1.9-1.3-2.4-2.2-.6-1-.9-2.2-.9-3.4,0-.4,0-.8,0-1.3s0-.9,0-1.3c0-1.2.4-2.4,1-3.4.6-1,1.5-1.7,2.5-2.2,2.5-1,5.2-1,7.7,0,1,.5,1.9,1.3,2.5,2.2.6,1,.9,2.2,1,3.4,0,.4,0,.8,0,1.3,0,.5,0,.9,0,1.3,0,1.2-.3,2.3-.9,3.4-.6,1-1.4,1.8-2.4,2.2-1.2.6-2.6.8-3.9.8ZM318.7,110.9c.8,0,1.6-.3,2.1-.9.5-.7.8-1.6.8-2.5,0-.3,0-.7,0-1.1s0-.9,0-1.1c0-.9-.2-1.8-.8-2.5-.5-.6-1.3-.9-2.1-.9-.8,0-1.6.3-2.1.9-.5.7-.8,1.6-.8,2.5,0,.3,0,.7,0,1.1s0,.9,0,1.1c0,.9.2,1.8.8,2.5.5.6,1.3.9,2.1.9ZM329.8,113.7c-.2,0-.4,0-.5-.2-.1-.1-.2-.3-.2-.5v-13.4c0-.2,0-.4.2-.5.1-.1.3-.2.5-.2h2.8c.4,0,.7.3.7.7v1.1c.5-.6,1.1-1.1,1.7-1.4.8-.3,1.6-.5,2.4-.5h1.2c.2,0,.4,0,.5.2.1.1.2.3.2.5v2.4c0,.2,0,.4-.2.5-.1.1-.3.2-.5.2h-2.5c-.7,0-1.4.2-2,.7-.5.5-.8,1.2-.7,2v7.5c0,.4-.3.7-.7.7,0,0,0,0,0,0h-3ZM342.1,113.7c-.2,0-.4,0-.5-.2-.1-.1-.2-.3-.2-.5v-13.4c0-.2,0-.4.2-.5.1-.1.3-.2.5-.2h2.6c.2,0,.4,0,.5.2.1.1.2.3.2.5v1c.4-.6,1-1,1.6-1.4.7-.4,1.6-.6,2.4-.6,1.9-.2,3.7.8,4.5,2.5.5-.8,1.1-1.4,1.9-1.8.8-.5,1.8-.7,2.7-.7.9,0,1.9.2,2.7.7.8.5,1.5,1.2,1.9,2,.5,1.1.7,2.3.7,3.5v8.1c0,.2,0,.4-.2.5-.1.1-.3.2-.5.2h-2.8c-.2,0-.4,0-.5-.2-.1-.1-.2-.3-.2-.5v-7.9c0-.6,0-1.3-.3-1.8-.2-.4-.5-.7-.9-.9-.4-.2-.8-.3-1.2-.3-.4,0-.8,0-1.2.3-.4.2-.7.5-.9.9-.3.6-.4,1.2-.4,1.8v7.9c0,.4-.3.7-.7.7,0,0,0,0,0,0h-2.8c-.4,0-.7-.3-.7-.7h0v-7.9c0-.6,0-1.3-.3-1.8-.2-.4-.5-.7-.9-.9-.4-.2-.8-.3-1.2-.3-.4,0-.8.1-1.2.3-.4.2-.7.5-.9.9-.3.6-.4,1.2-.4,1.8v7.9c0,.2,0,.4-.2.5-.1.1-.3.2-.5.2h-2.9ZM368,113.7c-.2,0-.4,0-.5-.2-.1-.1-.2-.3-.2-.5v-13.4c0-.2,0-.4.2-.5.1-.1.3-.2.5-.2h2.8c.4,0,.7.3.7.7,0,0,0,0,0,0v13.4c0,.4-.3.7-.7.7,0,0,0,0,0,0h-2.8ZM367.9,96.7c-.2,0-.4,0-.5-.2-.1-.1-.2-.3-.2-.5v-2.3c0-.2,0-.4.2-.5.1-.1.3-.2.5-.2h3c.4,0,.7.3.7.7h0v2.3c0,.2,0,.4-.2.5-.1.1-.3.2-.5.2h-3ZM381.8,114c-1.3,0-2.5-.2-3.7-.8-1-.5-1.9-1.3-2.5-2.2-.6-1.1-1-2.3-1-3.5,0-.3,0-.7,0-1.2s0-.8,0-1.2c0-1.2.4-2.5,1-3.5.6-1,1.5-1.7,2.5-2.2,1.2-.5,2.4-.8,3.7-.8,1.1,0,2.2.2,3.2.5.8.3,1.5.7,2.2,1.3.5.5,1,1,1.3,1.7.2.5.4,1,.4,1.5,0,.2,0,.4-.2.5-.1.1-.3.2-.5.2h-3c-.2,0-.3,0-.4-.1-.1-.1-.2-.3-.3-.4-.2-.6-.5-1.1-1-1.4-.5-.3-1-.4-1.6-.4-.8,0-1.5.3-2,.8-.6.7-.8,1.6-.8,2.6,0,.7,0,1.4,0,2,0,.9.3,1.8.8,2.6.5.5,1.3.8,2,.8.6,0,1.1-.1,1.6-.4.5-.4.8-.9,1-1.4,0-.2.2-.3.3-.4.1-.1.3-.2.5-.2h3c.2,0,.4,0,.5.2.1.1.2.3.2.5,0,.4-.1.8-.3,1.1-.2.5-.4.9-.8,1.3-.4.5-.8.9-1.4,1.3-.6.4-1.3.7-2,.9-.9.2-1.8.4-2.7.4ZM392.4,113.7c-.4,0-.7-.3-.7-.7h0v-18.8c0-.4.3-.7.7-.7h2.8c.2,0,.4,0,.5.2.1.1.2.3.2.5v9.6l4.4-4.4c.2-.1.3-.2.4-.3.2-.1.4-.2.6-.1h3.2c.2,0,.3,0,.5.2.1.1.2.3.2.4,0,0,0,.2,0,.3,0,0-.1.2-.2.2l-5.5,5.5,6.2,7.1c.1.1.2.3.3.5,0,.3-.3.6-.6.6h-3.3c-.2,0-.4,0-.6-.1-.1,0-.3-.2-.4-.3l-5-5.6v5.3c0,.2,0,.4-.2.5-.1.1-.3.2-.5.2h-2.8ZM291.3,143.6c-1.6,0-3.1-.2-4.6-.8-1.1-.4-2.1-1.1-2.8-2.1-.6-.8-.9-1.7-1-2.7,0-.2,0-.3.2-.4.1-.1.3-.2.4-.2h3c.2,0,.4,0,.6.2.1.1.3.2.4.4.2.4.4.7.6.9.3.3.8.6,1.2.8.6.2,1.3.3,1.9.3,1,0,1.9-.1,2.8-.6.6-.3.9-1,.9-1.6,0-.5-.2-.9-.5-1.2-.5-.4-1-.7-1.6-.8-.7-.2-1.7-.5-2.8-.8-1.3-.2-2.5-.6-3.6-1.2-.9-.4-1.7-1.1-2.3-1.9-1.1-1.8-1-4.1.2-5.9.7-.9,1.6-1.6,2.6-2.1,1.3-.5,2.7-.8,4.1-.8,1.1,0,2.3.2,3.4.5.9.3,1.7.7,2.4,1.3.6.5,1.1,1.1,1.5,1.8.3.6.5,1.2.5,1.8,0,.2,0,.3-.2.4-.1.1-.3.2-.4.2h-3.2c-.2,0-.4,0-.5-.1-.2,0-.3-.2-.4-.4-.2-.5-.5-1-1-1.3-.7-.4-1.4-.6-2.2-.6-.8,0-1.5.1-2.2.5-.5.3-.8.9-.8,1.6,0,.4.1.8.4,1.2.4.4.9.7,1.4.8.7.2,1.5.5,2.6.8,1.4.3,2.8.7,4.1,1.2.9.4,1.7,1,2.3,1.8.5.8.8,1.8.7,2.8,0,1.2-.3,2.3-1.1,3.3-.8,1-1.8,1.7-2.9,2.1-1.4.5-2.9.8-4.3.7ZM303.1,148.8c-.4,0-.7-.3-.7-.7h0v-18.8c0-.4.3-.7.7-.7,0,0,0,0,0,0h2.7c.4,0,.7.3.7.7,0,0,0,0,0,0v1.1c.5-.6,1.1-1.1,1.8-1.5.8-.4,1.8-.6,2.7-.6.9,0,1.8.1,2.6.5.7.3,1.3.8,1.8,1.3.5.6.9,1.3,1.2,2.1.3.9.5,1.8.5,2.8,0,.4,0,.7,0,1s0,.7,0,1.1c0,.9-.2,1.8-.4,2.7-.3.8-.7,1.5-1.2,2.1-.5.6-1.1,1.1-1.9,1.4-.8.3-1.7.5-2.6.5-.9,0-1.7-.2-2.5-.5-.7-.3-1.3-.8-1.7-1.4v6.4c0,.2,0,.4-.2.5-.1.1-.3.2-.5.2h-2.9ZM309.7,140.2c.6,0,1.2-.1,1.7-.5.4-.3.7-.7.9-1.2.2-.5.3-1.1.3-1.7,0-.6,0-1.2,0-1.8,0-.6-.1-1.1-.3-1.7-.2-.5-.5-.9-.9-1.2-1.1-.6-2.4-.6-3.4,0-.4.3-.8.7-.9,1.2-.2.5-.3,1-.3,1.6,0,.3,0,.7,0,1.1s0,.7,0,1.1c0,.5.1,1,.4,1.5.2.5.5.9,1,1.2.5.3,1.1.5,1.7.5ZM320.7,143.4c-.2,0-.4,0-.5-.2-.1-.1-.2-.3-.2-.5v-13.4c0-.2,0-.4.2-.5.1-.1.3-.2.5-.2h2.8c.4,0,.7.3.7.7,0,0,0,0,0,0v13.4c0,.4-.3.7-.7.7,0,0,0,0,0,0h-2.8ZM320.6,126.3c-.2,0-.4,0-.5-.2-.1-.1-.2-.3-.2-.5v-2.3c0-.2,0-.4.2-.5.1-.1.3-.2.5-.2h3c.4,0,.7.3.7.7h0v2.3c0,.2,0,.4-.2.5-.1.1-.3.2-.5.2h-3ZM334.5,143.6c-1.3,0-2.5-.2-3.7-.8-1-.5-1.9-1.3-2.5-2.2-.6-1.1-1-2.3-1-3.5,0-.3,0-.7,0-1.2s0-.8,0-1.2c0-1.2.4-2.5,1-3.5.6-1,1.5-1.7,2.5-2.2,1.1-.5,2.4-.8,3.7-.8,1.1,0,2.2.2,3.2.5.8.3,1.5.7,2.2,1.3.5.5,1,1,1.3,1.7.2.5.4,1,.4,1.5,0,.2,0,.4-.2.5-.1.1-.3.2-.5.2h-3c-.2,0-.3,0-.5-.1-.1-.1-.2-.3-.3-.4-.2-.6-.5-1.1-1-1.4-.5-.3-1-.4-1.6-.4-.8,0-1.5.3-2,.8-.6.7-.8,1.6-.8,2.6,0,.7,0,1.4,0,2,0,.9.3,1.8.8,2.6.5.5,1.3.8,2,.8.6,0,1.1-.1,1.6-.4.5-.4.8-.9,1-1.4,0-.2.2-.3.3-.4.1-.1.3-.2.5-.2h3c.2,0,.4,0,.5.2.1.1.2.3.2.5,0,.4-.1.8-.3,1.1-.2.5-.4.9-.8,1.3-.4.5-.8.9-1.4,1.3-.6.4-1.3.7-2,.9-.9.2-1.8.4-2.7.4ZM351,143.6c-3.7.3-6.9-2.4-7.2-6,0-.4,0-.7,0-1.1v-1.2c0-1.3.4-2.6,1-3.8.6-1,1.4-1.9,2.5-2.4,1.2-.6,2.4-.9,3.7-.8,1.4,0,2.8.3,4,1,1.1.6,1.9,1.6,2.4,2.7.6,1.2.8,2.5.8,3.9v.7c0,.2,0,.4-.2.5-.1.1-.3.2-.5.2h-9.3v.2c0,.6.1,1.1.4,1.7.2.5.5.9.9,1.2.4.3.9.5,1.5.5.4,0,.8,0,1.2-.2.3-.1.5-.3.8-.5.2-.1.3-.3.4-.5.1-.1.3-.3.4-.4.2,0,.3,0,.5,0h3c.2,0,.3,0,.5.2.1.1.2.3.2.4,0,.4-.2.8-.5,1.1-.4.5-.8.9-1.3,1.3-.6.5-1.4.8-2.1,1.1-.9.3-1.9.5-2.9.4h0ZM348.2,134.6h5.6c0-.7,0-1.3-.3-1.8-.2-.5-.5-.9-.9-1.2-.9-.6-2.1-.6-3,0-.4.3-.8.7-.9,1.2-.2.6-.3,1.2-.3,1.8h0ZM366.9,143.6c-1,0-2-.1-3-.4-.7-.2-1.4-.6-2-1-.5-.3-.9-.7-1.2-1.2-.2-.3-.4-.7-.4-1,0-.2,0-.4.2-.5.1-.1.3-.2.5-.2h2.8c0,0,.1,0,.2,0,0,0,.1,0,.2.1.2.2.5.4.8.6.3.2.6.4.9.6.4.2.9.2,1.3.2.6,0,1.1-.1,1.6-.4.4-.2.7-.6.7-1.1,0-.3,0-.6-.3-.9-.3-.3-.7-.5-1.1-.6-.8-.3-1.6-.5-2.4-.6-.9-.2-1.8-.5-2.6-.9-.7-.3-1.2-.8-1.6-1.4-.4-.6-.6-1.4-.5-2.1,0-.8.3-1.5.7-2.1.5-.7,1.2-1.3,2.1-1.7,1.1-.5,2.2-.7,3.4-.7.9,0,1.9.1,2.7.4.7.2,1.4.5,2,1,.5.3.9.7,1.2,1.2.2.3.4.7.4,1.1,0,.2,0,.4-.2.5-.1.1-.3.2-.5.2h-2.5c0,0-.2,0-.3,0,0,0-.1,0-.2-.1-.2-.2-.5-.3-.7-.5-.3-.2-.5-.4-.8-.5-.4-.2-.8-.2-1.3-.2-.5,0-1,.1-1.4.4-.3.2-.5.6-.5,1,0,.3,0,.5.3.7.3.3.7.5,1.1.6.8.3,1.6.5,2.4.6,1.1.2,2.1.5,3.1,1,.7.4,1.2.9,1.6,1.6.3.6.5,1.2.5,1.9,0,.9-.3,1.7-.8,2.4-.6.7-1.4,1.3-2.3,1.6-1.2.4-2.5.6-3.7.6h0Z"/>
  <path class="st3" d="M638.5,405.3c-.5.8-1.3,1.5-2.1,2-1,.5-2.1.8-3.2.8-1.1,0-2.2-.3-3.2-.8-1-.6-1.8-1.4-2.4-2.3-.7-1.1-1.2-2.2-1.5-3.5-.4-1.4-.6-2.9-.5-4.4,0-1.5.2-3,.5-4.4.3-1.2.8-2.4,1.6-3.5.6-.9,1.5-1.7,2.4-2.3,1-.5,2.1-.8,3.2-.8,1.1,0,2.2.2,3.2.7.9.4,1.7,1.1,2.2,1.9l-2,2.5c-.7-1.1-1.9-1.8-3.1-1.7-.7,0-1.3.2-1.9.6-.6.4-1,1-1.3,1.6-.4.8-.7,1.6-.8,2.4-.2,1-.3,2-.3,3,0,1,0,2,.3,3,.1.8.4,1.7.8,2.4.3.6.8,1.2,1.3,1.6.6.4,1.2.6,1.9.6.6,0,1.3-.2,1.8-.5.5-.4.9-.8,1.3-1.3l2,2.4ZM646.5,400.5h-1c-.4,0-.8,0-1.2.1-.4,0-.7.2-1,.4-.3.2-.5.5-.7.8-.2.4-.3.9-.3,1.3,0,.6.1,1.3.5,1.7.3.4.7.6,1.2.6.4,0,.8-.1,1.2-.4.3-.3.6-.6.8-1,.2-.4.3-.9.4-1.3,0-.5.1-.9.1-1.4v-.9ZM646.6,405.3c-.2.8-.6,1.4-1.2,1.9-.7.5-1.5.7-2.3.7-.5,0-.9,0-1.3-.2-.5-.2-.9-.4-1.2-.8-.4-.4-.7-.9-.9-1.4-.3-.7-.4-1.4-.4-2.1,0-.9.2-1.8.6-2.6.4-.7.9-1.2,1.5-1.6.6-.4,1.3-.7,2-.8.7-.1,1.4-.2,2.2-.2h.8v-.5c0-.8-.1-1.5-.6-2.2-.4-.4-1-.7-1.6-.7-.5,0-1.1.1-1.6.4-.5.3-.9.6-1.2,1.1l-1.6-2.1c.6-.7,1.3-1.3,2.1-1.6.8-.4,1.6-.6,2.5-.6.8,0,1.6.1,2.4.4.6.3,1.2.7,1.6,1.3.4.6.7,1.3.8,2.1.2.9.3,1.9.3,2.8v9h-2.8v-2.3h0ZM659.7,395.9c-.3-.4-.6-.7-1-.9-.4-.2-.9-.4-1.4-.4-.5,0-.9.2-1.2.5-.3.4-.5.9-.5,1.4,0,.5.2,1,.5,1.3.5.3,1.1.6,1.7.8.4.2.9.4,1.3.6.4.2.8.5,1.2.9.4.4.6.8.8,1.3.2.6.3,1.2.3,1.8,0,.7-.1,1.5-.4,2.2-.2.6-.6,1.1-1.1,1.6-.4.4-1,.7-1.6.9-.6.2-1.2.3-1.8.3-1.8,0-3.5-.7-4.7-2.1l1.8-2.1c.4.4.8.8,1.2,1.1.5.3,1.1.5,1.7.4.5,0,1-.2,1.3-.6.3-.4.5-.9.5-1.5,0-.6-.2-1.2-.7-1.5-.6-.4-1.2-.7-1.9-.9-.4-.1-.8-.3-1.2-.5-.4-.2-.7-.5-1-.8-.3-.4-.6-.8-.8-1.2-.2-.6-.3-1.2-.3-1.8,0-.7.1-1.3.4-2,.3-.6.6-1.1,1.1-1.5.4-.4.9-.7,1.5-.9.6-.2,1.2-.3,1.8-.3.8,0,1.7.2,2.5.5.7.3,1.3.7,1.9,1.3l-1.8,2.2ZM666.6,400.9c0,.6,0,1.1.2,1.7.1.5.3.9.5,1.4.2.4.5.7.8.9.3.2.7.3,1.1.3.6,0,1.1-.2,1.5-.6.4-.4.7-.9.9-1.4l2.5,1.4c-.4,1-1,1.8-1.9,2.5-.9.7-2,1-3.1.9-1.7,0-3.2-.7-4.2-2.1-1.2-1.8-1.7-3.8-1.6-6,0-1.1.1-2.2.4-3.3.2-.9.6-1.8,1.2-2.6.5-.7,1.1-1.2,1.8-1.6,1.5-.8,3.3-.8,4.8,0,.7.4,1.2.9,1.7,1.6.4.7.8,1.6.9,2.4.2,1,.3,2,.3,3v1.3h-7.8ZM671.3,398.4c0-.9-.1-1.9-.5-2.7-.3-.7-.9-1.1-1.7-1.1-.4,0-.8.1-1.1.4-.3.3-.6.6-.7,1-.4.8-.6,1.6-.6,2.4h4.6ZM683.3,409.6c-.2.7-.4,1.4-.7,2.1-.2.6-.6,1.1-1,1.6-.4.4-.9.8-1.4,1-.6.2-1.3.4-1.9.4-.4,0-.8,0-1.1,0-.3,0-.6-.1-.9-.2l.4-3c.2,0,.4.1.6.2.2,0,.4,0,.7,0,.5,0,.9-.1,1.2-.5.3-.4.5-.9.6-1.3l.4-1.9-4.4-15.5h3.5l2.6,11.4h0l2.4-11.4h3.4l-4.5,17.2ZM690.6,386.6h2.7l-1.7,7.3h-2.4l1.4-7.3ZM701.7,395.9c-.3-.4-.6-.7-1-.9-.4-.2-.9-.4-1.4-.4-.5,0-.9.2-1.2.5-.3.4-.5.9-.5,1.4,0,.5.2,1,.5,1.3.5.3,1.1.6,1.7.8.4.2.9.4,1.3.6.4.2.8.5,1.2.9.4.4.6.8.8,1.3.2.6.3,1.2.3,1.8,0,.7-.1,1.5-.4,2.2-.2.6-.6,1.1-1.1,1.6-.4.4-1,.7-1.6.9-.6.2-1.2.3-1.8.3-1.8,0-3.5-.7-4.7-2.1l1.8-2.1c.4.4.8.8,1.2,1.1.5.3,1.1.5,1.7.4.5,0,1-.2,1.3-.6.3-.4.5-.9.5-1.5,0-.6-.2-1.2-.7-1.5-.6-.4-1.2-.7-1.9-.9-.4-.1-.8-.3-1.2-.5-.4-.2-.7-.5-1-.8-.3-.4-.6-.8-.8-1.2-.2-.6-.3-1.2-.3-1.8,0-.7.1-1.3.4-2,.3-.6.6-1.1,1.1-1.5.4-.4.9-.7,1.5-.9.6-.2,1.2-.3,1.8-.3.8,0,1.7.2,2.5.5.7.3,1.3.7,1.9,1.3l-1.8,2.2ZM724.7,406.3c-.7.5-1.4,1-2.3,1.2-1,.3-2.1.5-3.2.5-1.2,0-2.3-.3-3.3-.8-1-.5-1.9-1.3-2.5-2.2-.7-1.1-1.3-2.2-1.6-3.5-.4-1.5-.6-3-.5-4.5,0-1.5.2-3,.5-4.4.3-1.2.8-2.4,1.5-3.5.6-.9,1.5-1.7,2.4-2.3,1-.5,2.1-.8,3.2-.8,1.1,0,2.2.2,3.2.7.9.4,1.7,1.1,2.2,1.9l-2,2.5c-.7-1.1-1.9-1.7-3.2-1.7-.7,0-1.4.2-1.9.6-.6.4-1,1-1.3,1.7-.4.8-.6,1.6-.8,2.4-.2,1-.3,1.9-.3,2.9,0,1,0,2,.3,3,.1.9.4,1.7.8,2.5.3.6.8,1.2,1.3,1.6.6.4,1.2.6,1.9.6.4,0,.9,0,1.3-.2.3,0,.7-.2.9-.4v-5.4h-2.5v-3.1h5.8v10.6ZM730.7,400.9c0,.6,0,1.1.2,1.7.1.5.3.9.5,1.4.2.4.5.7.8.9.3.2.7.3,1.1.3.6,0,1.1-.2,1.5-.6.4-.4.7-.9.9-1.4l2.5,1.4c-.4,1-1,1.8-1.9,2.5-.9.7-2,1-3.1.9-1.7,0-3.2-.7-4.2-2.1-1.2-1.8-1.7-3.8-1.6-6,0-1.1.1-2.2.4-3.3.2-.9.6-1.8,1.2-2.6.5-.7,1.1-1.2,1.8-1.6,1.5-.8,3.3-.8,4.8,0,.7.4,1.2.9,1.7,1.6.4.7.8,1.6.9,2.4.2,1,.3,2,.3,3v1.3h-7.8ZM735.4,398.4c0-.9-.1-1.9-.5-2.7-.3-.7-.9-1.1-1.7-1.1-.4,0-.8.1-1.1.4-.3.3-.6.6-.7,1-.4.8-.6,1.6-.6,2.4h4.6ZM744.9,392.5v2.4h0c.3-.8.7-1.5,1.4-2.1,1.4-1.3,3.6-1.3,4.9.2.2.3.5.6.6.9.3.6.5,1.3.6,2,0,.8.1,1.5.1,2.3v9.5h-3.3v-9.5c0-.4,0-.8,0-1.1,0-.4-.1-.7-.3-1.1-.1-.3-.3-.6-.6-.8-.3-.2-.6-.3-1-.3-.8,0-1.5.4-1.8,1.1-.5.9-.7,1.9-.7,2.8v8.7h-3.3v-15.1h3.3ZM758.9,400.9c0,.6,0,1.1.2,1.7.1.5.3.9.5,1.4.2.4.5.7.8.9.3.2.7.3,1.1.3.6,0,1.1-.2,1.5-.6.4-.4.7-.9.9-1.4l2.5,1.4c-.4,1-1,1.8-1.9,2.5-.9.7-2,1-3.1.9-1.7,0-3.2-.7-4.2-2.1-1.2-1.8-1.7-3.8-1.6-6,0-1.1.1-2.2.4-3.3.2-.9.6-1.8,1.2-2.6.5-.7,1.1-1.2,1.8-1.6,1.5-.8,3.3-.8,4.8,0,.7.4,1.2.9,1.7,1.6.5.7.8,1.6.9,2.4.2,1,.3,2,.3,3v1.3h-7.9ZM763.6,398.4c0-.9-.1-1.9-.5-2.7-.3-.7-.9-1.1-1.7-1.1-.4,0-.8.1-1.1.4-.3.3-.6.6-.7,1-.4.8-.6,1.6-.6,2.4h4.6ZM773.2,395.4c.2-.9.6-1.8,1.2-2.5.5-.6,1.2-.9,2-.9h.3c0,0,.2,0,.3,0l-.2,3.4c-.2,0-.5,0-.7,0-.4,0-.8.1-1.2.4-.4.3-.6.6-.9,1.1-.2.5-.4,1-.5,1.5-.1.6-.2,1.1-.2,1.7v7.6h-3.4v-15.1h3.3v2.9h0ZM784.9,400.5h-1c-.4,0-.8,0-1.2.1-.4,0-.7.2-1,.4-.3.2-.5.5-.7.8-.2.4-.3.9-.3,1.3,0,.6.1,1.3.5,1.7.3.4.7.6,1.2.6.4,0,.8-.1,1.2-.4.3-.3.6-.6.8-1,.2-.4.3-.9.4-1.3,0-.5.1-.9.1-1.4v-.9ZM785,405.3c-.2.8-.6,1.4-1.2,1.9-.7.5-1.5.7-2.3.7-.5,0-.9,0-1.3-.2-.5-.2-.9-.4-1.2-.8-.4-.4-.7-.9-.9-1.4-.3-.7-.4-1.4-.4-2.1,0-.9.2-1.8.6-2.6.4-.7.9-1.2,1.5-1.6.6-.4,1.3-.7,2-.8.7-.1,1.4-.2,2.2-.2h.8v-.5c0-.8-.1-1.5-.6-2.2-.4-.4-1-.7-1.6-.7-.5,0-1.1.1-1.6.4-.5.3-.9.6-1.2,1.1l-1.6-2.1c.6-.7,1.3-1.3,2.1-1.6.8-.4,1.6-.6,2.5-.6.8,0,1.6.1,2.4.4.6.3,1.2.7,1.6,1.3.4.6.7,1.3.8,2.1.2.9.3,1.9.3,2.8v9h-2.8v-2.3h0ZM791.6,407.6v-22.4h3.4v22.4h-3.4ZM813.2,390.6c-.7-.9-1.8-1.4-2.9-1.4-.3,0-.7,0-1,.2-.3.1-.6.3-.9.5-.3.3-.5.6-.6.9-.2.4-.2.9-.2,1.3,0,.8.2,1.5.8,2.1.6.6,1.3,1,2.1,1.4.5.3,1,.6,1.6.9.5.3,1,.7,1.5,1.2,1,1.1,1.5,2.5,1.5,4,0,.9-.1,1.9-.5,2.7-.3.7-.7,1.4-1.3,2-.5.5-1.2,1-1.9,1.2-.7.3-1.5.4-2.3.4-1.1,0-2.2-.2-3.2-.7-.9-.4-1.7-1-2.4-1.7l1.9-2.6c.4.5,1,1,1.6,1.3.6.3,1.3.5,2,.5.7,0,1.4-.3,1.9-.8.5-.6.8-1.4.7-2.2,0-.8-.3-1.6-.9-2.2-.7-.6-1.4-1.1-2.3-1.5-.6-.3-1.1-.6-1.6-.9-.5-.3-.9-.7-1.3-1.2-.4-.5-.7-1-.9-1.6-.2-.7-.4-1.5-.3-2.2,0-1,.2-1.9.5-2.8.3-.7.8-1.4,1.4-1.9.6-.5,1.2-.9,1.9-1.1.7-.2,1.4-.4,2.2-.4,1,0,1.9.2,2.9.5.8.3,1.5.9,2.1,1.5l-2,2.5ZM821.3,395v7.8c0,.6,0,1.3.4,1.8.3.4.7.6,1.1.6.2,0,.4,0,.5,0,.2,0,.3,0,.5-.2v2.6c-.2.1-.6.2-.9.3-.4,0-.8.1-1.2.1-1.1,0-2.1-.3-2.8-1.1-.6-1-.9-2.1-.8-3.3v-8.5h-1.9v-2.6h1.9v-3.8h3.1v3.8h2.6v2.6h-2.6ZM837.1,400c0,1.1-.1,2.2-.4,3.3-.2.9-.6,1.8-1.2,2.5-.5.7-1.1,1.2-1.8,1.6-1.5.8-3.3.8-4.9,0-.7-.4-1.3-1-1.8-1.6-.5-.8-.9-1.6-1.2-2.5-.3-1.1-.4-2.2-.4-3.3,0-1.1.1-2.2.4-3.3.2-.9.6-1.8,1.1-2.6.5-.7,1.1-1.2,1.8-1.6.8-.4,1.6-.6,2.4-.6.8,0,1.7.2,2.4.6.7.4,1.3,1,1.8,1.6.5.8.9,1.6,1.2,2.6.3,1.1.4,2.2.4,3.3h0ZM833.7,400c0-.7,0-1.4-.1-2,0-.6-.2-1.1-.5-1.6-.2-.4-.4-.8-.8-1.1-.6-.5-1.6-.5-2.2,0-.3.3-.6.7-.8,1.1-.2.5-.4,1.1-.4,1.6-.2,1.3-.2,2.7,0,4,0,.6.2,1.1.4,1.6.2.4.4.8.8,1.1.3.3.7.4,1.1.4.4,0,.8-.1,1.1-.4.3-.3.6-.7.8-1.1.2-.5.4-1.1.4-1.6.1-.7.1-1.3.1-2ZM843.6,395.4c.2-.9.6-1.8,1.2-2.5.5-.6,1.2-.9,2-.9h.3c0,0,.2,0,.3,0l-.2,3.4c-.2,0-.5,0-.7,0-.4,0-.8.1-1.2.4-.4.3-.6.6-.9,1.1-.2.5-.4,1-.5,1.5-.1.6-.2,1.1-.2,1.7v7.6h-3.4v-15.1h3.3v2.9h0ZM851.5,400.9c0,.6,0,1.1.2,1.7.1.5.3.9.5,1.4.2.4.5.7.8.9.3.2.7.3,1.1.3.6,0,1.1-.2,1.5-.6.4-.4.7-.9.9-1.4l2.5,1.4c-.4,1-1,1.8-1.9,2.5-.9.7-2,1-3.1.9-1.7,0-3.2-.7-4.2-2.1-1.2-1.8-1.7-3.8-1.6-6,0-1.1.1-2.2.4-3.3.2-.9.6-1.8,1.2-2.6.5-.7,1.1-1.2,1.8-1.6,1.5-.8,3.3-.8,4.8,0,.7.4,1.2.9,1.7,1.6.4.7.8,1.6.9,2.4.2,1,.3,2,.3,3v1.3h-7.9ZM856.2,398.4c0-.9-.1-1.9-.5-2.7-.3-.7-.9-1.1-1.7-1.1-.4,0-.8.1-1.1.4-.3.3-.6.6-.7,1-.4.8-.6,1.6-.6,2.4h4.6ZM868.8,395.9c-.3-.4-.6-.7-1-.9-.4-.2-.9-.4-1.4-.4-.5,0-.9.2-1.2.5-.3.4-.5.9-.5,1.4,0,.5.2,1,.5,1.3.5.3,1.1.6,1.7.8.4.2.9.4,1.3.6.4.2.8.5,1.2.9.4.4.6.8.8,1.3.2.6.3,1.2.3,1.8,0,.7-.1,1.5-.4,2.2-.2.6-.6,1.1-1.1,1.6-.4.4-1,.7-1.6.9-.6.2-1.2.3-1.8.3-1.8,0-3.5-.7-4.7-2.1l1.8-2.1c.4.4.8.8,1.2,1.1.5.3,1.1.5,1.7.4.5,0,1-.2,1.3-.6.3-.4.5-.9.5-1.5,0-.6-.2-1.2-.7-1.5-.6-.4-1.2-.7-1.9-.9-.4-.1-.8-.3-1.2-.5-.4-.2-.7-.5-1-.8-.3-.4-.6-.8-.8-1.2-.2-.6-.3-1.2-.3-1.8,0-.7.1-1.3.4-2,.3-.6.6-1.1,1.1-1.5.4-.4.9-.7,1.5-.9.6-.2,1.2-.3,1.8-.3.8,0,1.7.2,2.5.5.7.3,1.3.7,1.9,1.3l-1.8,2.2Z"/>
  <path class="st2" d="M269.8,321.2c1.9,0,3.8.6,5.4,1.7,1.1.8,1.7,2,1.7,3.4,0,1.6-.7,3.2-2.1,4.1-1.7,1.1-3.7,1.6-5.8,1.4-.6,0-1,0-1.4,0-1.3,0-2.5,0-3.7,0-2,0-3.4,0-4.4,0v-.6c.5,0,.9,0,1.4-.2.3-.1.5-.4.6-.7.1-.5.2-1,.2-1.6v-14.1c0-.5,0-1.1-.2-1.6,0-.3-.3-.5-.6-.7-.4-.1-.9-.2-1.4-.2v-.6c1,0,2.4,0,4.3,0h3.2c.4,0,.8,0,1.3,0,1.8-.1,3.6.3,5.2,1.2,1.1.7,1.8,1.9,1.8,3.2,0,1.2-.6,2.3-1.4,3.1-1.2,1.1-2.7,1.7-4.3,1.9h0ZM268.1,312.2c-.4,0-.8,0-1.1.2-.3.2-.4.4-.5.7-.1.5-.2,1-.1,1.5v6.4h1.2c1,.1,2-.4,2.6-1.3.5-1,.8-2.2.7-3.4,0-1.1-.2-2.2-.7-3.2-.5-.7-1.3-1.1-2.1-1.1ZM268.3,331.1c2.6,0,4-1.7,4-5,0-1.2-.3-2.5-1.1-3.4-1-.9-2.3-1.3-3.6-1.2h-1.2v7.2c0,.5,0,1,.1,1.5,0,.3.3.5.6.7.4.1.8.2,1.3.2h0ZM286.8,329.8c1.6,0,3-.9,3.8-2.3l.5.2c-.4,1.2-1.1,2.3-2,3.1-1,.9-2.3,1.3-3.7,1.3-1.8,0-3.5-.6-4.8-1.9-1.3-1.6-1.9-3.6-1.8-5.7-.1-2.1.5-4.2,1.9-5.9,1.3-1.4,3.2-2.1,5.1-2,3.6,0,5.3,2.1,5.3,6.3h-8c0,.3,0,.7,0,1.3,0,1.1.1,2.1.5,3.1.3.7.7,1.4,1.4,1.8.5.4,1.2.6,1.8.6h0ZM285.6,317.2c-.8,0-1.4.5-1.7,1.3-.5,1.2-.8,2.6-.8,3.9h4.5c0-1.3,0-2.5-.4-3.7-.3-1-.8-1.5-1.5-1.5ZM300.2,316.6c.7,0,1.3,0,2,.2.6.1,1.1.3,1.6.6.5.3.9.7,1.2,1.2.3.5.4,1,.4,1.5,0,.6-.2,1.2-.6,1.6-.4.4-1,.7-1.6.6-.6,0-1.2-.2-1.6-.6-.4-.4-.6-1-.6-1.5,0-.5.2-1.1.5-1.5.4-.4.8-.7,1.3-.9-.2-.2-.4-.4-.7-.5-.3-.1-.7-.2-1-.2-1.2,0-2.2.8-2.7,1.9-.7,1.5-1,3.2-.9,4.9-.1,1.5.2,3.1,1.1,4.4.6.8,1.6,1.3,2.7,1.3.7,0,1.3-.2,1.9-.5.7-.4,1.4-1,1.8-1.8l.5.2c-.4,1.2-1.1,2.3-2,3.2-1,.9-2.3,1.4-3.7,1.3-1.8,0-3.5-.6-4.8-1.9-1.3-1.6-2-3.7-1.8-5.7,0-1.5.3-2.9.9-4.3.6-1.1,1.4-2,2.5-2.7,1.1-.6,2.4-.9,3.6-.9h0ZM312.7,319.3c.8-1.8,2.7-2.8,4.6-2.6,1.2-.1,2.3.3,3.1,1.1.3.4.6.9.7,1.4.2.8.2,1.5.2,2.3v7.6c0,.6,0,1.1.4,1.6.4.3.9.5,1.4.4v.6c-2,0-3.2-.1-3.8-.1s-1.9,0-3.7.1v-.6c.4,0,.9-.1,1.2-.4.3-.5.4-1,.3-1.6v-8.9c0-.6,0-1.2-.4-1.8-.3-.4-.8-.7-1.4-.6-.8,0-1.5.3-2,.9-.6.7-.8,1.5-.8,2.3v7.9c0,.6,0,1.1.3,1.6.3.3.7.5,1.2.4v.6c-1.8,0-3-.1-3.5-.1s-2,0-3.9.1v-.6c.5,0,1-.1,1.4-.4.3-.5.5-1,.4-1.6v-16.2c0-.7,0-1.3-.4-1.9-.3-.4-.9-.6-1.4-.6v-.6c.6,0,1.2,0,1.8,0,1.4,0,2.8-.1,4.1-.4v9.8ZM330,317h3.4v.6h-3.4v11.5c0,.4,0,.9.3,1.2.2.3.6.4.9.4.8,0,1.5-.6,1.9-1.7l.5.3c-.5,1.8-2.1,3-3.9,2.9-1,0-2.1-.3-2.8-1-.4-.4-.7-.9-.8-1.5-.2-.8-.2-1.6-.2-2.5v-9.6h-2.4v-.6h2.4v-3.8c1.4,0,2.8-.3,4.1-.9v4.7ZM342.4,329.8c1.6,0,3-.9,3.8-2.3l.5.2c-.4,1.2-1.1,2.3-2,3.1-1,.9-2.3,1.3-3.7,1.3-1.8,0-3.5-.6-4.8-1.9-1.3-1.6-1.9-3.6-1.8-5.7-.1-2.1.5-4.2,1.9-5.9,1.3-1.4,3.2-2.1,5.1-2,3.6,0,5.3,2.1,5.3,6.3h-8c0,.3,0,.7,0,1.3,0,1.1.1,2.1.5,3.1.3.7.7,1.4,1.4,1.8.5.4,1.2.6,1.8.6h0ZM341.3,317.2c-.8,0-1.4.5-1.7,1.3-.5,1.2-.8,2.6-.8,3.9h4.5c0-1.3,0-2.5-.4-3.7-.3-1-.8-1.5-1.5-1.5ZM354.2,329.1c0,.6,0,1.1.4,1.6.4.3.9.5,1.4.4v.6c-2,0-3.2-.1-3.8-.1s-2,0-3.9.1v-.6c.5,0,1-.1,1.4-.4.3-.5.5-1,.4-1.6v-16.2c0-.7,0-1.3-.4-1.9-.3-.4-.9-.6-1.4-.6v-.6c.6,0,1.2,0,1.8,0,1.4,0,2.8-.1,4.1-.4v19.6Z"/>
  <path class="st0" d="M71.2,129.3c-1.4,0-2.8-.3-4-.9-1.2-.6-2.2-1.3-3.1-2.3-1.7-1.9-2.7-4.5-2.7-7.1,0-1.3.3-2.6.8-3.9.5-1.2,1.2-2.3,2.1-3.3.9-1,2-1.7,3.1-2.3,1.2-.6,2.6-.9,4-.8,1.4,0,2.8.3,4,.9,1.2.6,2.2,1.4,3.1,2.3.9,1,1.5,2.1,2,3.3.5,1.2.7,2.5.7,3.8,0,1.3-.2,2.6-.7,3.9-.5,1.2-1.2,2.3-2,3.2-.9.9-1.9,1.7-3.1,2.3-1.2.6-2.6.8-3.9.8ZM65.3,119c0,.9.1,1.7.4,2.5.2.8.6,1.5,1.1,2.2.5.6,1.1,1.1,1.8,1.5,1.6.8,3.4.8,5,0,.7-.4,1.3-.9,1.8-1.5.5-.7.9-1.4,1.1-2.2.3-.8.4-1.6.4-2.5,0-.9-.1-1.7-.4-2.5-.3-.8-.7-1.5-1.2-2.2-.5-.6-1.1-1.1-1.8-1.5-1.6-.7-3.4-.7-5,0-.7.4-1.4.9-1.8,1.5-.5.6-.9,1.4-1.1,2.2-.3.8-.4,1.6-.4,2.5ZM97.6,129.1h-3.8v-8.4c0-.9-.1-1.8-.6-2.6-.4-.5-1.1-.9-1.7-.8-.4,0-.8,0-1.2.2-.4.2-.8.4-1.1.6-.4.3-.7.6-.9,1-.3.4-.5.8-.6,1.3v8.7h-3.8v-14.9h3.4v2.8c.6-1,1.4-1.7,2.4-2.2,1.1-.5,2.3-.8,3.5-.8.8,0,1.6.1,2.3.5.6.3,1,.8,1.4,1.3.3.6.6,1.2.7,1.9.1.7.2,1.4.2,2.1v9.3ZM107.8,129.4c-1.1,0-2.2-.2-3.2-.6-1.9-.8-3.3-2.2-4.1-4.1-.4-.9-.6-1.9-.6-2.9,0-1,.2-2,.5-3,.3-.9.9-1.8,1.6-2.5.7-.7,1.6-1.3,2.5-1.7,1-.4,2.2-.6,3.3-.6,1.1,0,2.2.2,3.3.6.9.4,1.8,1,2.4,1.7.7.7,1.2,1.5,1.5,2.4.4.9.5,1.9.5,2.9,0,.2,0,.5,0,.7,0,.2,0,.4,0,.6h-11.5c0,.5.2,1.1.4,1.6.4.9,1.2,1.6,2.1,1.9.5.2.9.3,1.4.3.8,0,1.5-.2,2.1-.6.6-.3,1.1-.8,1.4-1.5l3.3.9c-.6,1.2-1.5,2.1-2.6,2.8-1.3.8-2.8,1.1-4.3,1.1ZM111.7,120.4c0-1-.5-2-1.2-2.7-1.5-1.4-3.8-1.4-5.3,0-.3.3-.6.7-.8,1.2-.2.5-.4,1-.4,1.5h7.7ZM126.9,129.3c-1.4,0-2.8-.3-4-.9-1.2-.6-2.2-1.3-3.1-2.3-1.7-1.9-2.7-4.5-2.7-7.1,0-1.3.3-2.6.8-3.9.5-1.2,1.2-2.3,2.1-3.3.9-1,2-1.7,3.1-2.3,1.2-.6,2.6-.9,4-.8,1.4,0,2.8.3,4,.9,1.2.6,2.2,1.4,3.1,2.3.9,1,1.5,2.1,2,3.3.5,1.2.7,2.5.7,3.8,0,1.3-.2,2.6-.7,3.9-.5,1.2-1.2,2.3-2,3.2-.9.9-1.9,1.7-3.1,2.3-1.2.6-2.6.8-3.9.8ZM121,119c0,.9.1,1.7.4,2.5.2.8.6,1.5,1.2,2.2.5.6,1.1,1.1,1.8,1.5,1.6.8,3.4.8,5,0,.7-.4,1.3-.9,1.8-1.5.5-.7.9-1.4,1.1-2.2.3-.8.4-1.6.4-2.5,0-.9-.1-1.7-.4-2.5-.3-.8-.7-1.5-1.2-2.2-.5-.6-1.1-1.1-1.8-1.5-1.6-.7-3.4-.7-5,0-.7.4-1.4.9-1.8,1.5-.5.6-.9,1.4-1.1,2.2-.3.8-.4,1.6-.4,2.5ZM139.8,129.1v-20.2h3.9v9.6l8.5-9.6h4.3l-7.7,9,8.2,11.2h-4.4l-6.3-8.7-2.6,2.7v6h-3.9Z"/>
  <path class="st2" d="M612.3,43.8h7.7c5.2,0,7.4-3.2,7.4-8.2s-1.5-6.5-4.9-7.3c2.8-.4,4.1-2.5,4.1-6.1s-2.5-7.2-7.7-7.2h-6.6v28.8ZM616.3,27.1v-9h1c4.1,0,5.8.3,5.8,4.2s-1,4.8-4.4,4.8h-2.4ZM616.3,41v-10.8h2.4c3.5,0,4.8,1.9,4.8,5.5s-.9,5.3-4.5,5.3h-2.7ZM631,43.8h3.8V15h-3.8v28.8ZM642.4,44.1c2,0,3.7-1.4,4.2-3.3.1,1,.4,2.3.5,3h3.5c-.2-1.6-.3-3.3-.4-4.9v-9.4c0-4.2-1.6-6.5-5.6-6.5s-6.1,2.1-6.2,6.6h3.8c0,.1,0-.9,0-.9,0-1.8.6-2.9,2.2-2.9s2.1,1.2,2.1,3.7v1.5c-4.4,1.7-8.1,3.2-8.1,8.4s1.7,4.8,4.1,4.8ZM643.9,40.9c-1.2,0-1.8-1-1.8-2.7,0-2.4,2-3.5,4.3-4.9v5.8c-.5.9-1.4,1.5-2.5,1.7ZM659.5,44.1c4.4,0,5.6-2.5,5.6-6.6v-1.4h-3.4v1.7c0,2.1-.2,3.6-2.1,3.6s-2.3-.9-2.3-4.4v-6.5c0-3.5.4-4.6,2.2-4.6s2.1,1,2.1,3.6v1.2h3.4v-1.2c0-4.2-1.1-6.5-5.6-6.5s-6,3.1-6,8.2v4.7c0,4.9,1,8.2,6,8.2ZM668.6,43.8h3.8v-7.9l1.7-2.6,3.8,10.5h3.8l-4.7-12.5,4.8-8h-4l-5.5,8.9V15h-3.8v28.8ZM695.6,44.1c2,0,3.7-1.4,4.2-3.3.1,1,.4,2.3.5,3h3.5c-.2-1.6-.3-3.3-.4-4.9v-9.4c0-4.2-1.6-6.5-5.6-6.5s-6.1,2.1-6.2,6.6h3.8c0,.1,0-.9,0-.9,0-1.8.6-2.9,2.2-2.9s2.1,1.2,2.1,3.7v1.5c-4.4,1.7-8.1,3.2-8.1,8.4s1.7,4.8,4.1,4.8ZM697.1,40.9c-1.2,0-1.8-1-1.8-2.7,0-2.4,2-3.5,4.3-4.9v5.8c-.5.9-1.4,1.5-2.5,1.7ZM707,43.8h3.8v-16.6c.7-.7,1.7-1.2,2.7-1.3,1.3,0,1.6.9,1.6,2.3v15.5h3.8v-16.6c0-2-.6-4.2-3.1-4.2-1.9,0-3.7.9-5,2.3v-2h-3.8v20.5ZM727.4,44.1c1.3,0,2.5-.6,3.3-1.6v1.3h3.8V15h-3.8v9.6c-.9-1-2.1-1.5-3.4-1.6-4.2,0-5,4.1-5,8.8v4c0,6.1,1.7,8.4,5.2,8.4ZM728.4,41.1c-2,0-2.3-2.2-2.3-5v-5.8c0-2.3.5-4.3,2.2-4.3.9,0,1.7.4,2.4.9v13.5c-.7.5-1.5.8-2.3.8ZM751.8,43.8h3.5l6.4-28.8h-3.7l-4.3,21.2-4.6-21.2h-3.8l6.4,28.8ZM769.8,44.1c4.2,0,5.8-2.5,5.8-6.6v-.8h-3.7v1.2c0,2.1-.4,3.4-2.1,3.4s-2.3-1.1-2.3-3.6v-4.1h8.1v-1.7c0-5.6-.7-9-5.8-9s-6.1,2.8-6.1,8.2v4.7c0,5.4,1.2,8.2,6.1,8.2ZM767.5,31.6v-1.1c0-3.6.4-4.7,2.2-4.7s2.1,1.4,2.1,3.9v1.8h-4.4ZM782.7,44.1c2,0,3.7-1.4,4.2-3.3.1,1,.4,2.3.5,3h3.5c-.2-1.6-.3-3.3-.4-4.9v-9.4c0-4.2-1.6-6.5-5.6-6.5s-6.1,2.1-6.2,6.6h3.8c0,.1,0-.9,0-.9,0-1.8.6-2.9,2.2-2.9s2.1,1.2,2.1,3.7v1.5c-4.4,1.7-8.1,3.2-8.1,8.4s1.7,4.8,4.1,4.8ZM784.2,40.9c-1.2,0-1.8-1-1.8-2.7,0-2.4,2-3.5,4.3-4.9v5.8c-.5.9-1.4,1.5-2.5,1.7ZM799.4,44.1c.9,0,1.8,0,2.6-.2v-2.8c-.5,0-.9.1-1.4.1-1.5,0-1.9-.6-1.9-2.2v-13.2h3.3v-2.5h-3.3v-6h-3.8v6h-2.2v2.5h2.2v13.4c0,3,1.2,4.9,4.4,4.9ZM810.5,44.1c4.4,0,5.6-2.5,5.6-6.6v-1.4h-3.4v1.7c0,2.1-.2,3.6-2.1,3.6s-2.3-.9-2.3-4.4v-6.5c0-3.5.4-4.6,2.2-4.6s2.1,1,2.1,3.6v1.2h3.4v-1.2c0-4.2-1.1-6.5-5.6-6.5s-6,3.1-6,8.2v4.7c0,4.9,1,8.2,6,8.2ZM819.6,43.8h3.8v-16.5c.7-.7,1.7-1.2,2.8-1.4,1.3,0,1.6.9,1.6,2.3v15.5h3.8v-16.6c0-2-.6-4.2-3.1-4.2-2,0-3.8,1-5.2,2.4v-10.4h-3.8v28.8Z"/>
  <path class="st2" d="M498,128c-.2.2-.5.4-.8.5-.4.2-.9.4-1.3.5-.5.1-1.1.3-1.7.4-.7.1-1.3.2-2,.2-1.4,0-2.8-.2-4.1-.6-1.2-.4-2.3-1.1-3.3-1.9-.9-.9-1.7-2-2.2-3.2-.5-1.4-.8-2.8-.8-4.3,0-1.5.2-2.9.8-4.3.5-1.2,1.2-2.3,2.2-3.2,1-.9,2.1-1.6,3.4-2,1.4-.5,2.9-.7,4.3-.7,1.2,0,2.3.1,3.4.4.9.2,1.9.5,2.7.9-.2.3-.3.7-.4,1.1,0,.5-.2.8-.2,1.1h-.2c-.2-.2-.5-.5-.8-.7-.4-.3-.8-.6-1.2-.8-.5-.3-1-.5-1.5-.7-.6-.2-1.2-.3-1.9-.3-1.1,0-2.1.2-3.1.5-1,.4-1.8.9-2.5,1.7-.7.8-1.3,1.8-1.7,2.8-.4,1.3-.6,2.7-.6,4.1,0,1.4.2,2.8.6,4.1.3,1.1.9,2,1.7,2.8.7.7,1.6,1.3,2.5,1.7,1,.4,2.1.6,3.1.5.6,0,1.3,0,1.9-.3.5-.2,1.1-.4,1.6-.6.5-.2.9-.5,1.3-.8.4-.3.7-.5,1-.7h.1c0,.1-.3,1.8-.3,1.8ZM503,122.5c0,.8,0,1.5.2,2.3.1.7.4,1.4.7,2,.3.6.8,1,1.4,1.4,1.3.7,2.9.7,4.2,0,.6-.3,1-.8,1.4-1.4.4-.6.6-1.3.7-2,.3-1.5.3-3.1,0-4.6-.1-.7-.4-1.4-.7-2-.3-.6-.8-1-1.4-1.4-1.3-.7-2.9-.7-4.2,0-.6.3-1,.8-1.4,1.4-.4.6-.6,1.3-.7,2-.1.8-.2,1.5-.2,2.3ZM500.5,122.5c0-1.1.2-2.2.6-3.3.4-.8.9-1.6,1.6-2.2.7-.6,1.4-1,2.2-1.2,1.6-.5,3.3-.5,4.9,0,.8.3,1.6.7,2.2,1.2.7.6,1.2,1.3,1.6,2.2.4,1,.6,2.2.6,3.3,0,1.1-.2,2.2-.6,3.3-.4.8-.9,1.6-1.6,2.2-.6.6-1.4,1-2.2,1.2-1.6.5-3.3.5-4.9,0-.8-.2-1.6-.6-2.2-1.2-.7-.6-1.2-1.3-1.6-2.2-.4-1-.6-2.2-.6-3.3h0ZM526.8,121.2c0-1.1-.2-2.3-.8-3.2-.5-.7-1.4-1.1-2.3-1.1-1.1,0-2.2.4-2.9,1.2-.7,1-1,2.2-.9,3.4v2.4c0,.9,0,1.7,0,2.7,0,.9,0,1.8.2,2.5-.4,0-.9,0-1.3,0s-.8,0-1.3,0c0-.8.2-1.6.2-2.5,0-.9,0-1.8,0-2.7v-3c0-.9,0-1.7,0-2.7,0-.9,0-1.8-.2-2.6.4,0,.8.1,1.3.1.2,0,.3,0,.5,0h.6c0,.7,0,1.4,0,2.2h0c.5-.8,1.1-1.4,1.9-1.9.8-.5,1.7-.7,2.6-.7.5,0,1.1,0,1.6.2.5.2,1,.4,1.5.8.5.4.8.9,1.1,1.5.3.8.4,1.6.4,2.4,0,.8,0,1.7,0,2.5,0,.9,0,1.8,0,2.7v1.8c0,.3,0,.6,0,.9,0,.3,0,.6,0,.8-.4,0-.8,0-1.2,0s-.8,0-1.2,0c0-1,0-2,.1-3,0-1,0-2.1,0-3.2v-1.7ZM533.2,126.5c.1.2.3.4.4.6.2.2.5.5.7.6.3.2.6.4.9.5.7.3,1.5.3,2.2,0,.3-.1.6-.3.9-.5.3-.2.5-.5.6-.8.2-.3.2-.7.2-1.1,0-.5-.1-1-.5-1.4-.4-.3-.8-.6-1.2-.8-.5-.2-1.1-.4-1.6-.5-.6-.1-1.1-.4-1.6-.6-.5-.3-.9-.6-1.2-1.1-.4-.6-.5-1.2-.5-1.9,0-.6.1-1.2.3-1.7.2-.5.5-1,.9-1.4.4-.4.9-.7,1.5-.9.6-.2,1.3-.3,2-.3.6,0,1.2,0,1.8.3.5.2.9.4,1.4.5-.2.3-.3.7-.4,1.1-.1.3-.2.6-.3,1h-.3c-.2-.5-.5-.9-.9-1.2-.5-.4-1-.6-1.6-.5-.3,0-.6,0-.9.1-.3,0-.5.2-.8.4-.2.2-.4.5-.6.7-.2.3-.2.7-.2,1.1,0,.5.1,1,.5,1.4.4.3.8.6,1.2.8.5.2,1.1.4,1.6.5.6.1,1.1.3,1.6.6.5.3.9.6,1.2,1.1.4.6.5,1.2.5,1.9,0,.6-.1,1.1-.4,1.6-.2.5-.6,1-1,1.4-.5.4-1,.8-1.6,1-.7.2-1.4.4-2.1.4-.7,0-1.5,0-2.2-.3-.5-.1-1-.3-1.5-.6.1-.3.3-.7.4-1,.1-.3.2-.7.2-1.1h.3ZM547,111.9c0,.7,0,1.4-.1,2.1,0,.7,0,1.4-.1,2.1.2,0,.6,0,1.2,0,.6,0,1.2,0,1.8,0,0,.1,0,.2,0,.3v.6c0,0,0,.2,0,.3-.2,0-.5,0-.8,0-.3,0-.6,0-.9,0h-1.4c0,0,0,.4,0,.9,0,.5,0,1.2,0,1.9,0,.7,0,1.5,0,2.3,0,.8,0,1.5,0,2.1s0,1.1,0,1.6c0,.5.1.9.3,1.4.1.4.4.7.7,1,.4.3.8.4,1.3.4.2,0,.4,0,.6,0,.2,0,.4,0,.7-.1v.7c-.3,0-.7.1-1.1.2-.4,0-.7.1-1.1.1-1,0-1.9-.2-2.6-.9-.6-.7-.9-1.6-.9-2.6,0-.5,0-1.1,0-1.7,0-.6,0-1.2,0-2,0-.7,0-1.5,0-2.4,0-.9,0-1.8,0-2.9h-.9c-.2,0-.3,0-.5,0-.2,0-.4,0-.5,0,0-.1,0-.2,0-.3,0-.1,0-.2,0-.3s0-.2,0-.3c0,0,0-.2,0-.3.9,0,1.5,0,1.9,0,0-.4,0-.9,0-1.4,0-.6,0-1.2,0-1.8l2.4-1h.1ZM557.7,116.3c-.6,0-1.2.1-1.8.5-.5.3-.9.7-1.2,1.2-.3.5-.6,1-.7,1.6-.2.5-.3,1.1-.3,1.6h1.8c.6,0,1.3,0,1.9,0s1.3,0,1.9,0h1.9c0-.6,0-1.1-.1-1.7,0-.6-.3-1.1-.5-1.6-.3-.5-.6-.9-1.1-1.2-.5-.3-1.2-.5-1.8-.5h0ZM551.1,122.9c-.1-2,.5-3.9,1.7-5.5,1.2-1.4,3-2.1,4.8-2,.9,0,1.8.1,2.6.5.7.3,1.3.7,1.8,1.2.5.5.9,1.2,1.1,1.8.2.7.4,1.5.4,2.3,0,.2,0,.4,0,.6,0,.2,0,.4,0,.6h-3c-1,0-2,0-3,0s-1.2,0-1.9,0h-1.9c0,.2,0,.3,0,.5v.4c0,.7.1,1.4.3,2.1.2.6.5,1.2.9,1.7.4.5,1,.9,1.5,1.1.7.3,1.4.4,2.1.4.4,0,.8,0,1.2-.2.4-.1.8-.2,1.2-.4.4-.2.7-.4,1.1-.6.3-.2.6-.5.9-.8h.1c0,0-.2,1.5-.2,1.5-.6.5-1.4.9-2.1,1.2-.8.3-1.7.5-2.6.5-1,0-1.9-.2-2.8-.5-.8-.3-1.6-.8-2.2-1.4-.6-.6-1.1-1.3-1.4-2.1-.3-.8-.5-1.7-.5-2.6ZM567.2,115.9c0-.6,0-1.3,0-2.1,0-.8,0-1.5,0-2.3,0-.7,0-1.4,0-2.1,0-.7,0-1.2,0-1.7.4,0,.8.1,1.3.1.4,0,.9,0,1.3-.1,0,.5,0,1,0,1.7,0,.7,0,1.4,0,2.1,0,.7,0,1.5,0,2.3s0,1.5,0,2.1v5.1c0,.6,0,1.3,0,2.1,0,.8,0,1.5,0,2.3,0,.7,0,1.4,0,2.1,0,.7,0,1.2,0,1.6-.4,0-.9,0-1.3,0s-.8,0-1.3,0c0-.4,0-1,0-1.6,0-.7,0-1.4,0-2.1,0-.7,0-1.5,0-2.3,0-.8,0-1.5,0-2.1v-5.1ZM575.1,115.9c0-.6,0-1.3,0-2.1,0-.8,0-1.5,0-2.3,0-.7,0-1.4,0-2.1,0-.7,0-1.2,0-1.7.4,0,.8.1,1.3.1.4,0,.9,0,1.3-.1,0,.5,0,1,0,1.7,0,.7,0,1.4,0,2.1,0,.7,0,1.5,0,2.3,0,.8,0,1.5,0,2.1v5.1c0,.6,0,1.3,0,2.1,0,.8,0,1.5,0,2.3,0,.7,0,1.4,0,2.1,0,.7,0,1.2,0,1.6-.4,0-.9,0-1.3,0s-.8,0-1.3,0c0-.4,0-1,0-1.6,0-.7,0-1.4,0-2.1,0-.7,0-1.5,0-2.3,0-.8,0-1.5,0-2.1v-5.1ZM589.6,122.1c-.4.1-.7.2-1.1.3-.4,0-.9.2-1.3.2-.4,0-.9.2-1.3.3-.4.1-.8.3-1.1.5-.3.2-.6.5-.8.9-.2.4-.3.8-.3,1.3,0,.8.2,1.5.8,2,.5.4,1.1.7,1.7.7.7,0,1.4-.2,2-.6.6-.4,1-.8,1.4-1.4v-4.3ZM582.6,117.1c.7-.6,1.5-1,2.4-1.3.7-.2,1.5-.3,2.2-.3.6,0,1.3,0,1.9.3.5.2,1,.5,1.4.9.4.4.7.8.9,1.3.2.5.3,1.1.3,1.7,0,1.1,0,2.2,0,3.2,0,1.1,0,2.2,0,3.4s0,.5,0,.7c0,.2,0,.5.1.7,0,.2.2.4.3.5.2.1.4.2.6.2,0,0,.2,0,.3,0,.1,0,.2,0,.3,0v.6c-.3.1-.5.2-.8.2-.3,0-.7,0-1,0-1,0-1.9-.6-2-1.6,0,0,0,0,0,0-.6.6-1.3,1.1-2,1.5-.8.3-1.6.5-2.4.5-.5,0-.9,0-1.4-.2-.4-.1-.9-.4-1.2-.7-.4-.3-.6-.7-.9-1.1-.2-.5-.3-1-.3-1.5,0-1,.3-2,1.1-2.6.8-.7,1.9-1.1,2.9-1.3,1-.2,1.8-.3,2.4-.4.4,0,.9-.2,1.3-.4.2,0,.4-.3.5-.5,0-.2,0-.5,0-.7,0-.5,0-.9-.2-1.4-.1-.4-.3-.8-.5-1.1-.3-.3-.6-.6-1-.8-.5-.2-.9-.3-1.4-.3-.7,0-1.5.2-2.1.5-.6.3-1.1.8-1.5,1.4h-.3v-1.5ZM599.1,111.9c0,.7,0,1.4-.1,2.1,0,.7,0,1.4,0,2.1.2,0,.6,0,1.2,0,.6,0,1.2,0,1.8,0,0,.1,0,.2,0,.3v.6c0,0,0,.2,0,.3-.2,0-.5,0-.8,0-.3,0-.6,0-.9,0h-1.4c0,0,0,.4,0,.9,0,.5,0,1.2,0,1.9,0,.7,0,1.5,0,2.3,0,.8,0,1.5,0,2.1s0,1.1,0,1.6c0,.5.1.9.3,1.4.1.4.4.7.7,1,.4.3.8.4,1.3.4.2,0,.4,0,.6,0,.2,0,.4,0,.7-.1v.7c-.3,0-.7.1-1.1.2-.4,0-.7.1-1.1.1-1,0-1.9-.2-2.6-.9-.6-.7-.9-1.6-.9-2.6,0-.5,0-1.1,0-1.7,0-.6,0-1.2,0-2,0-.7,0-1.5,0-2.4,0-.9,0-1.8,0-2.9h-.9c-.2,0-.3,0-.5,0-.2,0-.4,0-.5,0,0-.1,0-.2,0-.3,0-.1,0-.2,0-.3s0-.2,0-.3c0,0,0-.2,0-.3.9,0,1.5,0,1.9,0,0-.4,0-.9,0-1.4s0-1.2,0-1.8l2.4-1h.1ZM604.8,110.7c0-.8.6-1.5,1.4-1.5.8,0,1.5.6,1.5,1.5,0,.8-.6,1.5-1.5,1.5-.4,0-.8-.2-1-.4-.3-.3-.4-.6-.4-1ZM605.2,121c0-.9,0-1.7,0-2.7,0-.9,0-1.8-.2-2.6.8.2,1.7.2,2.6,0,0,.8-.2,1.7-.2,2.6,0,.9,0,1.8,0,2.7v3c0,.9,0,1.7,0,2.7s0,1.8.2,2.5c-.4,0-.9,0-1.3,0s-.8,0-1.3,0c0-.8.2-1.6.2-2.5,0-.9,0-1.8,0-2.7v-3ZM613.7,122.5c0,.8,0,1.5.2,2.3.1.7.4,1.4.7,2,.3.6.8,1,1.4,1.4,1.3.7,2.9.7,4.2,0,.6-.3,1-.8,1.4-1.4.4-.6.6-1.3.7-2,.3-1.5.3-3.1,0-4.6-.1-.7-.4-1.4-.7-2-.3-.6-.8-1-1.4-1.4-1.3-.7-2.9-.7-4.2,0-.6.3-1,.8-1.4,1.4-.4.6-.6,1.3-.7,2-.1.8-.2,1.5-.2,2.3ZM611.2,122.5c0-1.1.2-2.2.6-3.3.4-.8.9-1.6,1.6-2.2.7-.6,1.4-1,2.2-1.2,1.6-.5,3.3-.5,4.9,0,.8.3,1.6.7,2.2,1.2.7.6,1.2,1.3,1.6,2.2.4,1,.6,2.2.6,3.3,0,1.1-.2,2.2-.6,3.3-.4.8-.9,1.6-1.6,2.2-.6.6-1.4,1-2.2,1.2-1.6.5-3.3.5-4.9,0-.8-.2-1.6-.6-2.2-1.2-.7-.6-1.2-1.3-1.6-2.2-.4-1-.6-2.2-.6-3.3ZM637.4,121.2c0-1.1-.2-2.3-.8-3.2-.5-.7-1.4-1.1-2.3-1.1-1.1,0-2.2.4-2.9,1.2-.7,1-1,2.2-.9,3.4v2.4c0,.9,0,1.7,0,2.7s0,1.8.2,2.5c-.4,0-.9,0-1.3,0s-.8,0-1.3,0c0-.8.2-1.6.2-2.5,0-.9,0-1.8,0-2.7v-3c0-.9,0-1.7,0-2.7,0-.9,0-1.8-.2-2.6.4,0,.8.1,1.3.1.2,0,.3,0,.5,0h.6c0,.7,0,1.4,0,2.2h0c.5-.8,1.1-1.4,1.9-1.9.8-.5,1.7-.7,2.6-.7.5,0,1.1,0,1.6.2.5.2,1,.4,1.5.8.5.4.8.9,1.1,1.5.3.8.4,1.6.4,2.4,0,.8,0,1.7,0,2.5,0,.9,0,1.8,0,2.7v1.8c0,.3,0,.6,0,.9,0,.3,0,.6,0,.8-.4,0-.8,0-1.2,0s-.8,0-1.2,0c0-1,0-2,.1-3,0-1,0-2.1,0-3.2v-1.7ZM652.5,117c0-1.3,0-2.5,0-3.7,0-1.2,0-2.4-.2-3.6.9,0,1.7,0,2.5,0,.8,0,1.7,0,2.5,0s1.7,0,2.5,0,1.7,0,2.5,0c-.1.6-.1,1.1,0,1.7-.6,0-1.2,0-1.7-.1-.5,0-1,0-1.6-.1-.6,0-1.2,0-1.8,0-.7,0-1.5,0-2.4,0,0,.6,0,1.2,0,1.7,0,.6,0,1.2,0,1.9s0,1.5,0,2.2c0,.7,0,1.2,0,1.6.8,0,1.6,0,2.3,0,.7,0,1.3,0,1.8,0,.6,0,1.1,0,1.5,0,.5,0,.9,0,1.3,0,0,.3,0,.6,0,.9,0,.3,0,.6,0,.9-.5,0-1.1-.1-1.7-.1-.7,0-1.3,0-2,0h-1.8c-.6,0-1,0-1.4,0,0,.2,0,.4,0,.6,0,.2,0,.5,0,.8v2.8c0,1.1,0,2,0,2.7,0,.7,0,1.2,0,1.6h2c.7,0,1.4,0,2.1,0,.7,0,1.3,0,2-.1.5,0,1.1-.1,1.6-.2,0,.1,0,.3,0,.4,0,.2,0,.3,0,.4,0,.2,0,.5,0,.7-.9,0-1.7,0-2.6,0h-5.2c-.9,0-1.7,0-2.6,0,0-1.2.1-2.4.2-3.6,0-1.2,0-2.4,0-3.7v-4.9ZM675.3,121.2c0-1.1-.2-2.3-.8-3.2-.5-.7-1.4-1.1-2.3-1.1-1.1,0-2.2.4-2.9,1.2-.7,1-1,2.2-.9,3.4v2.4c0,.9,0,1.7,0,2.7s0,1.8.2,2.5c-.4,0-.9,0-1.3,0s-.8,0-1.3,0c0-.8.2-1.6.2-2.5s0-1.8,0-2.7v-3c0-.9,0-1.7,0-2.7,0-.9,0-1.8-.2-2.6.4,0,.8.1,1.3.1.2,0,.3,0,.5,0h.6c0,.7,0,1.4,0,2.2h0c.5-.8,1.1-1.4,1.9-1.9.8-.5,1.7-.7,2.6-.7.5,0,1.1,0,1.6.2.5.2,1,.4,1.5.8.5.4.8.9,1.1,1.5.3.8.4,1.6.4,2.4,0,.8,0,1.7,0,2.5,0,.9,0,1.8,0,2.7v1.8c0,.3,0,.6,0,.9,0,.3,0,.6,0,.8-.4,0-.8,0-1.2,0s-.8,0-1.2,0c0-1,0-2,.1-3,0-1,0-2.1,0-3.2v-1.7ZM687.3,116.3c-.6,0-1.2.1-1.8.5-.5.3-.9.7-1.2,1.2-.3.5-.6,1-.7,1.6-.2.5-.3,1.1-.3,1.6h1.8c.6,0,1.3,0,1.9,0s1.3,0,1.9,0h1.9c0-.6,0-1.1-.1-1.7,0-.6-.3-1.1-.5-1.6-.3-.5-.6-.9-1.1-1.2-.5-.3-1.2-.5-1.8-.5h0ZM680.7,122.9c-.1-2,.5-3.9,1.7-5.5,1.2-1.4,3-2.1,4.8-2,.9,0,1.8.1,2.6.5.7.3,1.3.7,1.8,1.3.5.5.9,1.2,1.1,1.8.2.7.4,1.5.4,2.3,0,.2,0,.4,0,.6,0,.2,0,.4,0,.6h-3c-1,0-2,0-3,0s-1.2,0-1.9,0h-1.9c0,.2,0,.3,0,.5v.4c0,.7.1,1.4.3,2.1.2.6.5,1.2.9,1.7.4.5,1,.9,1.5,1.1.7.3,1.4.4,2.1.4.4,0,.8,0,1.2-.2.4-.1.8-.2,1.2-.4.4-.2.7-.4,1.1-.6.3-.2.6-.5.9-.8h.1c0,0-.2,1.5-.2,1.5-.6.5-1.4.9-2.1,1.2-.8.3-1.7.5-2.6.5-1,0-1.9-.2-2.8-.5-.8-.3-1.6-.8-2.2-1.4-.6-.6-1.1-1.3-1.4-2.1-.3-.8-.5-1.7-.5-2.6h0ZM702.6,118c-.2-.1-.3-.3-.6-.3-.3,0-.6-.1-.8-.1-.4,0-.9.1-1.2.3-.4.2-.7.5-.9.8-.3.4-.5.8-.6,1.3-.1.5-.2,1-.2,1.6v3.1c0,1.3,0,2.2,0,2.9,0,.5,0,1.1,0,1.6-.4,0-.8,0-1.1,0s-.8,0-1.2,0c0-.6,0-1.5,0-2.6,0-1.1,0-2.5,0-4.1v-.9c0-.7,0-1.6,0-2.6,0-1,0-2.1,0-3.3.2,0,.4,0,.6,0,.2,0,.4,0,.6,0,.2,0,.4,0,.5,0,.2,0,.4,0,.6,0,0,.7-.1,1.2-.1,1.6,0,.4,0,.8,0,1.1h0c1.1-2,2.4-3,3.8-3,.1,0,.3,0,.4,0,.2,0,.3,0,.5.1-.1.3-.2.7-.2,1,0,.5,0,.9,0,1.3h-.2ZM714.9,132.2c0-.9-.3-1.8-1-2.4-1-.5-2.2-.8-3.3-.7-1.1,0-2.3.2-3.3.7-.8.6-1.3,1.5-1.2,2.5,0,.6,0,1.1.3,1.6.2.4.5.8.9,1.1.4.3.8.5,1.3.6.5.1,1.1.2,1.6.2.6,0,1.1,0,1.7-.2.5-.1,1-.4,1.5-.7.4-.3.8-.7,1-1.2.3-.5.4-1.1.4-1.7h0ZM713.4,119.9c0-1-.2-2-.9-2.7-1.3-1.3-3.3-1.3-4.5,0,0,0,0,0,0,0-.6.8-.9,1.8-.9,2.8,0,1,.2,2,.8,2.8,1.1,1.3,3,1.5,4.2.4.2-.2.4-.4.6-.6.3-.4.5-.8.6-1.3.1-.5.2-1,.2-1.5ZM704.8,120c0-.7.1-1.4.4-2.1.3-.6.7-1.1,1.2-1.4.5-.4,1.1-.7,1.7-.9.7-.2,1.4-.3,2.1-.3.4,0,.7,0,1,0,.3,0,.8,0,1.3,0,.4,0,.8,0,1.2,0,.3,0,.6,0,.8,0,.8,0,1.5,0,2.3-.1,0,0,0,.2,0,.3,0,.1,0,.2,0,.3s0,.2,0,.3c0,0,0,.2,0,.3-.6,0-1.1,0-1.6-.1-.5,0-1,0-1.5,0h0c.6.4,1.1.9,1.4,1.5.4.6.5,1.4.5,2.1,0,1.3-.5,2.5-1.4,3.3-1.1.9-2.5,1.3-3.9,1.2-.3,0-.5,0-.8,0-.3,0-.5,0-.8,0-.4,0-.7.1-.9.4-.3.2-.4.6-.4.9,0,.4,0,.8.4,1.1.4.3.9.4,1.3.4.5,0,1.1,0,1.6,0,.5,0,1,0,1.6,0,.8,0,1.5.1,2.2.3.5.2,1.1.4,1.5.8.4.3.7.7.9,1.1.2.4.3.9.3,1.4,0,.7-.1,1.4-.4,2-.3.7-.7,1.3-1.2,1.8-.6.6-1.3,1.1-2.1,1.4-1,.4-2,.6-3.1.5-1.5,0-3-.3-4.4-1.1-1-.7-1.6-1.8-1.6-3,0-.5,0-.9.3-1.4.2-.4.4-.8.7-1.1.3-.3.6-.6,1-.8.4-.2.7-.3,1.1-.4h0c-.5-.2-1-.5-1.3-.9-.3-.4-.5-.9-.5-1.4,0-.3,0-.6.2-.9.1-.3.3-.5.5-.7.2-.2.4-.4.7-.5.2-.1.5-.2.7-.3h0c-.8-.4-1.5-.9-2-1.7-.5-.8-.8-1.7-.8-2.6ZM723.9,129.2l-.8-2c-.3-.8-.7-1.7-1.1-2.6-.4-.9-.8-1.8-1.2-2.8l-1.1-2.6-.9-2.2c-.3-.6-.5-1.1-.6-1.4.2,0,.5,0,.7,0,.4,0,.8,0,1.3,0,.2,0,.4,0,.7,0,.6,1.8,1.2,3.6,2,5.4.7,1.8,1.5,3.6,2.3,5.5.8-1.7,1.6-3.5,2.3-5.3.7-1.9,1.4-3.8,1.9-5.6.6.2,1.3.2,1.9,0-.1.3-.3.7-.6,1.4l-1.1,2.3c-.4.9-.9,1.9-1.3,2.9-.5,1.1-1,2.2-1.5,3.3l-1.5,3.4c-.5,1.1-.9,2.2-1.4,3.2-.4,1-.8,1.9-1.1,2.7-.3.8-.5,1.4-.7,1.9-.6-.2-1.3-.2-1.9,0,1.4-2.4,2.7-4.9,3.8-7.5Z"/>
  <path class="st1" d="M456.7,222.8l-4-10.4c-.1-.3-.2-.7-.4-1.1-.1-.4-.3-.8-.4-1.3-.2.8-.5,1.6-.8,2.4l-4,10.3h9.5ZM463.9,232.2h-2.7c-.3,0-.5,0-.7-.2-.2-.2-.3-.4-.4-.6l-2.4-6.1h-11.4l-2.4,6.2c0,.2-.2.4-.4.6-.2.2-.5.3-.7.2h-2.7l10.2-25.5h3.5l10.2,25.5ZM493.8,206.7v25.5h-3v-18.7c0-.2,0-.5,0-.8,0-.3,0-.6,0-.9l-8.7,15.9c-.2.5-.7.8-1.2.8h-.5c-.5,0-1-.3-1.2-.8l-8.9-16c0,.6.1,1.2.1,1.7v18.7h-3v-25.5h2.5c.2,0,.5,0,.7,0,.2.1.4.3.5.5l8.8,15.7c.1.3.3.6.4.9.1.3.3.6.4.9.1-.3.2-.6.4-.9.1-.3.3-.6.4-.9l8.6-15.7c0-.2.3-.4.5-.5.2,0,.5,0,.7,0h2.5ZM518.1,227c.2,0,.4,0,.5.2l1.4,1.5c-1,1.2-2.3,2.2-3.8,2.8-1.7.7-3.6,1.1-5.4,1-1.7,0-3.4-.3-5-.9-1.5-.6-2.8-1.5-3.8-2.7-1.1-1.2-1.9-2.6-2.5-4.1-.6-1.7-.9-3.5-.9-5.3,0-1.8.3-3.6.9-5.3.6-1.5,1.4-2.9,2.5-4.1,1.1-1.2,2.5-2.1,3.9-2.7,1.6-.6,3.3-1,5.1-.9,1.6,0,3.3.3,4.8.9,1.4.6,2.6,1.4,3.7,2.4l-1.1,1.6c0,.1-.2.2-.3.3-.1,0-.3.1-.5.1-.3,0-.6-.2-.8-.3-.4-.3-.8-.5-1.2-.8-1.4-.8-3-1.2-4.6-1.1-1.2,0-2.5.2-3.6.7-1.1.4-2,1.1-2.8,2-.8.9-1.4,2-1.8,3.2-.5,1.4-.7,2.8-.7,4.2,0,1.4.2,2.9.7,4.2.4,1.2,1,2.2,1.9,3.2.8.9,1.7,1.5,2.8,2,1.1.5,2.3.7,3.5.7.7,0,1.4,0,2.1-.1.6,0,1.1-.2,1.7-.4.5-.2,1-.4,1.4-.7.5-.3.9-.7,1.3-1,.2-.2.4-.3.6-.3ZM549.3,209.6h-8.2v22.6h-3.4v-22.6h-8.3v-2.9h19.9v2.9ZM555.2,216.6c.7-.8,1.6-1.5,2.6-2,1-.5,2.1-.8,3.2-.7.9,0,1.8.1,2.6.5.7.3,1.4.8,1.9,1.4.5.6.9,1.4,1.1,2.2.3.9.4,1.8.4,2.8v11.5h-3.2v-11.5c0-1.1-.3-2.3-.9-3.2-.7-.8-1.8-1.2-2.8-1.1-.9,0-1.8.2-2.6.7-.8.5-1.6,1.1-2.3,1.8v13.3h-3.2v-26.2h3.2v10.6ZM583.9,221.3c0-.7,0-1.4-.3-2-.2-.6-.5-1.1-.9-1.6-.4-.4-.9-.8-1.4-1-1.9-.7-4-.4-5.5,1-.9,1-1.5,2.3-1.6,3.7h9.8ZM586.4,229.7c-.4.5-.9.9-1.4,1.2-.5.4-1.1.6-1.7.9-.6.2-1.3.4-1.9.5-.7.1-1.3.2-2,.2-1.2,0-2.3-.2-3.4-.6-1-.4-2-1-2.7-1.8-.8-.9-1.4-1.9-1.8-3-.4-1.3-.7-2.7-.6-4.1,0-1.2.2-2.4.6-3.5.4-1,.9-2,1.7-2.8.7-.8,1.6-1.5,2.6-1.9,1.1-.5,2.3-.7,3.5-.7,1,0,2,.2,3,.5.9.3,1.7.9,2.4,1.6.7.7,1.2,1.6,1.6,2.5.4,1.1.6,2.3.6,3.4,0,.3,0,.7-.2,1-.1.2-.4.3-.6.2h-12c0,1,.2,2,.5,3,.2.8.6,1.5,1.2,2.1.5.6,1.1,1,1.8,1.3.7.3,1.5.4,2.3.4.7,0,1.4,0,2.1-.3.5-.2,1-.4,1.5-.6.4-.2.7-.4,1-.6.2-.2.5-.3.7-.3.2,0,.5.1.6.3l.9,1.1ZM600.3,224.1c-1.2,0-2.5.1-3.7.3-.9.1-1.7.4-2.5.7-.6.2-1,.6-1.4,1-.3.4-.4.9-.4,1.4,0,.4,0,.8.2,1.2.1.3.4.6.6.8.3.2.6.4.9.5.4.1.8.2,1.2.2.5,0,1,0,1.5-.2.5-.1.9-.3,1.3-.5.4-.2.8-.5,1.2-.8.4-.3.8-.6,1.1-1v-3.7ZM590.1,216.8c.9-.9,2-1.6,3.2-2.2,1.2-.5,2.5-.7,3.8-.7.9,0,1.8.2,2.7.5.8.3,1.4.8,2,1.4.6.6,1,1.4,1.2,2.1.3.9.4,1.8.4,2.8v11.5h-1.4c-.2,0-.5,0-.7-.2-.2-.1-.3-.4-.4-.6l-.4-1.7c-.4.4-.9.8-1.4,1.2-.4.3-.9.6-1.4.9-.5.2-1,.4-1.6.5-.6.1-1.2.2-1.9.2-.7,0-1.3,0-2-.3-.6-.2-1.1-.5-1.6-.9-.5-.4-.8-.9-1.1-1.5-.3-.7-.4-1.4-.4-2.1,0-.7.2-1.4.6-2.1.5-.7,1.1-1.3,1.9-1.8,1.1-.6,2.2-1,3.4-1.3,1.7-.4,3.4-.5,5.2-.6v-1.4c0-1.1-.2-2.3-.9-3.2-.7-.7-1.6-1.1-2.6-1.1-.7,0-1.3,0-2,.3-.5.2-.9.4-1.4.7-.4.2-.7.5-1,.7-.2.2-.5.3-.8.3-.2,0-.4,0-.6-.2-.2-.1-.3-.3-.4-.4l-.6-1ZM613.5,232.5c-1.2,0-2.4-.3-3.3-1.2-.8-.9-1.2-2.2-1.1-3.4v-11h-2.2c-.2,0-.3,0-.5-.2-.1-.1-.2-.3-.2-.5v-1.3l3-.4.7-5.6c0-.2.1-.3.2-.4.1-.1.3-.2.5-.2h1.6v6.2h5.2v2.3h-5.2v10.8c0,.6.1,1.2.6,1.7.4.4.9.6,1.4.6.3,0,.6,0,.9-.1.2,0,.4-.2.6-.3.2-.1.3-.2.5-.3,0,0,.2-.1.3-.1.2,0,.4.1.4.3l.9,1.5c-.6.5-1.2.9-2,1.2-.8.3-1.6.4-2.4.4ZM623.8,217.8c.5-1.1,1.2-2.1,2.1-2.9.9-.7,1.9-1.1,3-1,.4,0,.7,0,1.1.1.3,0,.6.2.9.4l-.2,2.4c0,.3-.3.5-.5.4-.2,0-.5,0-.7-.1-.4,0-.7-.1-1.1-.1-.5,0-1,0-1.5.2-.4.2-.8.4-1.2.7-.4.4-.7.8-.9,1.2-.3.5-.6,1.1-.8,1.6v11.4h-3.2v-18h1.8c.3,0,.5,0,.7.2.2.2.2.4.3.7l.2,2.7ZM645,221.3c0-.7,0-1.4-.3-2-.2-.6-.5-1.1-.9-1.6-.4-.4-.9-.8-1.4-1-1.9-.7-4-.4-5.5,1-.9,1-1.5,2.3-1.6,3.7h9.8ZM647.6,229.7c-.4.5-.9.9-1.4,1.2-.5.4-1.1.6-1.7.9-.6.2-1.3.4-1.9.5-.7.1-1.3.2-2,.2-1.2,0-2.3-.2-3.4-.6-1-.4-2-1-2.7-1.8-.8-.9-1.4-1.9-1.8-3-.4-1.3-.7-2.7-.6-4.1,0-1.2.2-2.4.6-3.5.4-1,.9-2,1.7-2.8.7-.8,1.6-1.5,2.6-1.9,1.1-.5,2.3-.7,3.5-.7,1,0,2,.2,3,.5.9.3,1.7.9,2.4,1.6.7.7,1.2,1.6,1.6,2.5.4,1.1.6,2.3.6,3.4,0,.3,0,.7-.2,1-.1.2-.4.3-.6.2h-12c0,1,.2,2,.5,3,.2.8.6,1.5,1.2,2.1.5.6,1.1,1,1.8,1.3.7.3,1.5.4,2.3.4.7,0,1.4,0,2.1-.3.5-.2,1-.4,1.5-.6.4-.2.7-.4,1-.6.2-.2.5-.3.7-.3.2,0,.5.1.6.3l.9,1.1ZM662.2,217.2c-.1.2-.4.4-.7.4-.2,0-.4,0-.6-.2-.2-.1-.5-.3-.8-.4-.4-.2-.8-.3-1.2-.4-.5-.1-1.1-.2-1.6-.2-.5,0-1,0-1.4.2-.4.1-.8.3-1.1.6-.3.2-.5.5-.7.8-.2.3-.2.7-.2,1,0,.4.1.8.4,1.2.3.3.7.6,1.1.8.5.2,1,.4,1.5.6.6.2,1.1.4,1.7.6.6.2,1.2.4,1.7.6.5.2,1,.5,1.5.9.4.4.8.8,1.1,1.3.3.6.4,1.2.4,1.9,0,.8-.1,1.6-.4,2.3-.3.7-.7,1.3-1.3,1.8-.6.5-1.3,1-2.1,1.2-.9.3-1.9.5-2.9.4-1.2,0-2.3-.2-3.4-.6-1-.4-1.8-.9-2.6-1.6l.7-1.2c0-.1.2-.3.3-.4.2,0,.3-.1.5-.1.2,0,.5,0,.7.2.2.2.5.3.9.6.4.2.8.4,1.2.6.6.2,1.2.3,1.8.2.5,0,1.1,0,1.6-.2.4-.1.8-.4,1.2-.6.3-.3.5-.6.7-.9.1-.4.2-.7.2-1.1,0-.4-.1-.9-.4-1.2-.3-.3-.7-.6-1.1-.8-.5-.2-1-.5-1.5-.6-.6-.2-1.1-.4-1.7-.5-.6-.2-1.2-.4-1.7-.6-.5-.2-1-.5-1.5-.9-.4-.4-.8-.8-1.1-1.4-.3-.6-.4-1.3-.4-2,0-.7.1-1.4.4-2,.3-.6.7-1.2,1.2-1.7.6-.5,1.3-.9,2-1.1.9-.3,1.8-.4,2.7-.4,1.1,0,2.2.2,3.2.6.9.4,1.7.9,2.4,1.5l-.7,1.2Z"/>
  <path class="st1" d="M692.3,311.6c3.7,0,6.5.8,8.3,2.5,1.9,1.9,2.9,4.6,2.8,7.3,0,1.9-.4,3.8-1.4,5.4-.9,1.6-2.3,2.8-3.9,3.6-1.9.9-4,1.3-6.1,1.3h-1.8c-1.1,0-1.9,0-2.4,0-2,0-3.4,0-4.4,0v-.6c.5,0,.9,0,1.4-.2.3-.1.5-.4.6-.7.1-.5.2-1,.2-1.6v-14.1c0-.5,0-1.1-.2-1.6,0-.3-.3-.5-.6-.7-.4-.1-.9-.2-1.4-.2v-.6c.8,0,1.9,0,3.4,0h2c1.6,0,2.7,0,3.3,0ZM692.2,312.1c-.5,0-.9,0-1.3.2-.3.1-.5.4-.6.7-.1.5-.2,1-.2,1.5v14.2c0,.5,0,1,.2,1.5,0,.3.3.6.6.7.4.2.9.2,1.4.2,2,.2,3.8-.8,4.9-2.4,1.1-2.3,1.6-4.8,1.5-7.3,0-3.2-.5-5.6-1.5-7.2-1.1-1.6-3-2.5-4.9-2.3ZM714.2,312.2c-.5,0-1,0-1.5.2-.3.1-.5.3-.6.7-.1.5-.2,1-.2,1.6v14.4c0,.4,0,.9.1,1.3,0,.3.3.5.5.6.4.1.8.2,1.2.1h1.4c1.3,0,2.6-.7,3.3-1.7,1-1.3,1.6-2.9,1.8-4.6h.7c0,.6,0,1.5,0,2.5,0,1.5,0,3,.2,4.5-1.3,0-3.5,0-6.5,0s-7.2,0-9.3,0v-.6c.5,0,.9,0,1.4-.2.3-.1.5-.4.6-.7.1-.5.2-1,.2-1.6v-14.1c0-.5,0-1.1-.2-1.6,0-.3-.3-.5-.6-.7-.4-.1-.9-.2-1.4-.2v-.6c1,0,2.5,0,4.5,0s3.4,0,4.5,0v.6ZM739.1,329.4c.2.5.5,1,.9,1.4.3.3.6.4.9.5v.6c-1.1,0-2.6,0-4.3,0s-3.4,0-4.3,0v-.6c.5,0,1,0,1.5-.3.3-.1.5-.4.5-.8,0-.5-.1-.9-.3-1.4l-1.7-4.7h-6.2l-.7,2c-.4,1-.7,2.1-.8,3.2,0,.6.2,1.1.6,1.5.6.3,1.2.5,1.9.5v.6c-1.3,0-2.5,0-3.5,0s-1.6,0-2.2,0v-.6c.9-.2,1.7-1.2,2.4-3l6.5-16.6c.2,0,.5,0,1,0s.8,0,1,0l6.9,17.8ZM732,323.5l-2.8-7.7-3,7.7h5.8ZM754.9,323.6v4.9c0,.6,0,1.1.2,1.7.2.4.5.6.9.7.6.1,1.3.2,1.9.2v.6c-2.3,0-4.1,0-5.2,0s-2.1,0-3.6,0h-.9s0-.5,0-.5c.5,0,.9,0,1.4-.2.3-.1.5-.4.6-.7.1-.5.2-1,.2-1.6v-14.1c0-.5,0-1.1-.2-1.6,0-.3-.3-.5-.6-.7-.4-.1-.9-.2-1.4-.2v-.6c1,0,2.4,0,4.3,0h3.2c.4,0,.8,0,1.3,0,2.1-.1,4.1.4,5.9,1.5,1.3.9,2.1,2.5,2,4.1,0,2.3-1.3,4.5-3.5,5.4-1.6.7-3.3,1-5,1h-1.5ZM756.7,312.2c-.4,0-.8,0-1.1.2-.3.2-.4.4-.5.7-.1.5-.2,1-.1,1.5v8.4h1.2c1.3.1,2.5-.4,3.2-1.5.6-1.2.9-2.6.9-4,0-1.4-.2-2.8-.8-4.1-.6-.9-1.6-1.4-2.7-1.3ZM769.9,309.7c.7,0,1.4.2,1.9.6.5.4.7,1,.7,1.6,0,.6-.2,1.2-.7,1.6-1.1.8-2.6.8-3.8,0-.5-.4-.7-1-.7-1.6,0-.6.2-1.2.7-1.6.5-.4,1.2-.6,1.9-.6ZM772.1,329.1c0,.6,0,1.1.4,1.6.4.3.9.5,1.4.4v.6c-1.9,0-3.2-.1-3.8-.1s-1.9,0-4,.1v-.6c.5,0,1-.1,1.4-.4.3-.5.5-1,.4-1.6v-9c0-.7,0-1.3-.4-1.9-.3-.4-.9-.7-1.4-.6v-.6c.6,0,1.2,0,1.8,0,1.4,0,2.8-.1,4.1-.4v12.4ZM785.4,316.6c.9,0,1.9.3,2.6.8.8.6,1.5,1.4,1.8,2.4.5,1.2.7,2.6.7,3.9.1,2.2-.5,4.4-1.8,6.2-1.2,1.4-3,2.3-4.8,2.2-.5,0-1.1,0-1.6-.2-.5-.1-.9-.4-1.3-.7v2.8c0,.6.2,1.3.6,1.7.6.4,1.3.5,1.9.5v.6h-.8c-2.1,0-3.4-.1-4-.1s-1.8,0-3.6.1v-.6c.5,0,1,0,1.3-.4.3-.4.4-1,.4-1.5v-14.2c0-.7,0-1.3-.4-1.9-.3-.4-.9-.6-1.4-.6v-.6c.6,0,1.2,0,1.8,0,1.4,0,2.8-.1,4.1-.4v2.6c.4-.8,1-1.5,1.7-2,.8-.5,1.7-.7,2.7-.7ZM782.7,331.4c1.2,0,2.2-.7,2.6-1.8.6-1.7.9-3.5.8-5.3,0-1.7-.1-3.4-.6-4.9-.4-1-1-1.5-1.8-1.5-.6,0-1.2.2-1.7.7-.5.5-.9,1.1-1,1.8v10.3c.5.5,1.1.8,1.8.8ZM800.6,329.8c1.6,0,3-.9,3.8-2.3l.5.2c-.4,1.2-1.1,2.3-2,3.1-1,.9-2.3,1.3-3.7,1.3-1.8,0-3.5-.6-4.8-1.9-1.3-1.6-1.9-3.6-1.8-5.7-.1-2.1.5-4.2,1.9-5.9,1.3-1.4,3.2-2.1,5.1-2,3.6,0,5.3,2.1,5.3,6.3h-8c0,.3,0,.7,0,1.3,0,1.1.1,2.1.5,3.1.3.7.7,1.4,1.4,1.8.5.4,1.2.6,1.8.6ZM799.4,317.2c-.8,0-1.4.5-1.7,1.3-.5,1.2-.8,2.6-.8,3.9h4.5c0-1.3,0-2.5-.4-3.7-.3-1-.8-1.5-1.5-1.5ZM816.1,316.6c.7,0,1.4.2,1.9.8.4.5.7,1.2.7,1.8,0,.6-.2,1.2-.6,1.7-.4.4-1,.7-1.6.7-.6,0-1.1-.1-1.5-.5-.4-.3-.6-.8-.6-1.3,0-.9.5-1.7,1.3-2.2-.1,0-.2,0-.3,0-.2,0-.3,0-.5,0-.8.1-1.4.6-1.8,1.3-.5.7-.7,1.5-.8,2.3v7.5c0,.7.2,1.3.6,1.8.6.4,1.3.6,2,.5v.6c-.2,0-.4,0-.7,0-1.9,0-3.2,0-3.9,0s-1.7,0-3.5,0c-.2,0-.4,0-.6,0v-.6c.5,0,1-.1,1.4-.4.3-.5.5-1,.4-1.6v-9c0-.7,0-1.3-.4-1.9-.3-.4-.9-.7-1.4-.6v-.6c.6,0,1.2,0,1.8,0,1.4,0,2.8-.1,4.1-.4v2.6c.3-.8.9-1.5,1.6-2,.7-.5,1.5-.8,2.3-.8h0Z"/>
  <path class="st3" d="M806.4,211c0-1.7,0-2.9,0-3.6,0-.4,0-.8-.2-1.2,0-.2-.2-.3-.3-.4-.2,0-.4-.1-.6,0-.1-.2-.2-.5-.2-.7,0-.2,0-.4.2-.6.2-.1.5-.2.8-.2h2.3c.3,0,.6,0,.9.2.2.3.3.6.2.9v3.4c0,1,0,2.5.2,4.3-.4,0-.9.1-1.3,0-.1,0-.4-.3-.8-1-1.6.8-3.4,1.2-5.3,1.2-2.6,0-4.6-.7-5.8-2-1.2-1.3-1.8-3.6-1.8-6.9s.8-6.3,2.3-8c1.7-1.8,4.2-2.8,6.7-2.6,1.3,0,2.5,0,3.8.4.8.3,1.2.7,1.2,1.2,0,.6-.3,1.2-.7,1.7-1.6-.8-3.3-1.3-5-1.3-1.4,0-2.7.5-3.6,1.6-.8,1.1-1.2,3-1.2,5.7s.4,5.2,1.2,6.4c.9,1.2,2.4,1.9,4,1.7,1.1,0,2.2-.2,3.2-.6ZM820.6,212.1c-.8.4-1.6.8-2.4,1-.8.2-1.6.4-2.4.4-1,0-2-.2-2.8-.9-.7-.7-1-1.7-.9-2.6,0-1.3.5-2.5,1.5-3.2,1.4-.9,3-1.2,4.7-1.1h2c0-1.2-.2-2.3-.7-3.4-.5-.7-1.3-1.1-2.2-1-.5,0-1.1,0-1.6.2-.1.3-.3.6-.5.9-.3.1-.5.2-.8.2-.5.1-.8.1-1,0-.3-.3-.5-.6-.6-.9-.2-.3-.3-.7-.3-1.1,0-.2,0-.3.2-.4.6-.2,1.2-.3,1.9-.4,1.2-.2,2.3-.2,3.5-.2,1.3,0,2.5.2,3.6.8.9.8,1.3,1.9,1.2,3.1v4.3c0,1.2,0,2.4.3,3.6,0,.4.5.6.8.5,0,0,0,0,0,0,.1.2.2.4.2.6,0,.3-.2.6-.6.7-.5.2-1,.3-1.6.2-.3,0-.5,0-.7-.1-.3-.3-.6-.7-.8-1.1ZM820.3,207.5c-.8-.1-1.6-.2-2.5-.2-.8,0-1.6.1-2.2.5-.5.4-.7,1-.6,1.7,0,.6.2,1.2.6,1.7.5.4,1.1.6,1.7.6.6,0,1.2-.1,1.7-.4.5-.2.8-.5,1-1,.2-.7.3-1.3.3-2v-.8ZM830.7,210.9c.3.3.7.5,1.2.6.5.2,1.1.2,1.6.2,1,0,1.9-.3,2.5-1.1.6-1.3.9-2.6.7-4,0-1.4-.2-2.7-.7-4-.4-.9-1.4-1.4-2.3-1.4-.6,0-1.2.1-1.7.4-.4.3-.8.7-.9,1.2-.3,1.2-.4,2.4-.3,3.6v4.5ZM827.8,205.3c0-3.9,0-6.4,0-7.5,0-.7,0-1.4-.2-2.1,0-.3-.2-.5-.5-.6-.3-.1-.6-.1-.9-.1-.1-.3-.2-.6-.2-.8,0-.2.1-.5.3-.5.8-.1,1.5-.1,2.3-.1.5,0,1,0,1.5.1.3,0,.4.2.4.4,0,.3,0,.7,0,1l-.2,5.6c.6-.4,1.3-.7,2-.9.8-.2,1.7-.3,2.5-.3,1.3,0,2.6.5,3.5,1.5,1,1.4,1.5,3.1,1.3,4.9.1,2.1-.5,4.2-1.7,5.9-1.3,1.4-3.1,2.1-5,2-.7,0-1.4,0-2.1-.2-.5,0-1-.2-1.5-.4l-.4.4c-.4,0-.8,0-1.2-.2-.2-.2-.3-.5-.2-.8,0-.3,0-1.1,0-2.4s0-2.8,0-4.7h0ZM843.8,205.3c0-3.9,0-6.4,0-7.5,0-.7,0-1.4-.2-2.1,0-.3-.2-.5-.5-.6-.3-.1-.6-.1-.9-.1-.1-.3-.2-.6-.2-.8,0-.2.1-.5.4-.5.8-.1,1.5-.1,2.3-.1.5,0,1,0,1.5.1.3,0,.4.2.4.4,0,.3,0,.7,0,1v11.6c0,2.2,0,4,.1,5.3h1.5c.1.2.2.5.2.8,0,.2,0,.4-.2.5-.2.1-.4.2-.6.1h-5.5c-.1-.3-.2-.5-.2-.8,0-.2,0-.3.2-.5.1-.1.3-.2.5-.1h1c0-1.3.1-3.5.1-6.5h0ZM856.8,201.2c-.8,0-1.6.3-2.1,1-.6.9-.8,2-.8,3.1h1.4c1.5,0,2.6,0,3.1,0,.6,0,.9-.2,1-.3.1-.2.2-.5.1-.8,0-.8-.2-1.5-.7-2.2-.5-.5-1.3-.8-2-.8h0ZM857.3,199.3c1.4-.1,2.8.3,3.8,1.2.9,1.1,1.4,2.6,1.3,4,0,.6,0,1.2-.4,1.7-.6.4-1.3.6-1.9.5h-6.1c0,1.2.3,2.5.9,3.6.7.9,1.9,1.4,3.1,1.3,1.4,0,2.7-.4,3.9-1.1.4.3.6.8.6,1.3,0,.6-.5,1.1-1.5,1.3-1.1.3-2.3.4-3.5.4-2.4,0-4.1-.5-5.1-1.5-1-1-1.5-2.7-1.5-5.1-.1-2,.5-4,1.7-5.5,1.2-1.4,3-2.1,4.9-2h0ZM786.3,240.6c0-1.8,0-2.9,0-3.6,0-.4,0-.8-.2-1.2,0-.2-.2-.3-.3-.4-.2,0-.4-.1-.6,0-.1-.2-.2-.5-.2-.7,0-.2,0-.4.2-.6.2-.1.5-.2.8-.2h2.3c.3,0,.7,0,.9.2.2.3.3.6.2.9v3.4c0,1,0,2.5.2,4.3-.4,0-.9.1-1.3,0-.1,0-.4-.3-.8-1-1.6.8-3.4,1.2-5.3,1.2-2.6,0-4.6-.7-5.8-2-1.2-1.3-1.8-3.6-1.8-6.9s.8-6.3,2.3-8c1.7-1.8,4.2-2.8,6.7-2.6,1.3,0,2.5,0,3.8.4.8.3,1.2.7,1.2,1.2,0,.6-.3,1.2-.7,1.7-1.6-.8-3.3-1.3-5-1.3-1.4,0-2.7.5-3.6,1.6-.8,1.1-1.2,3-1.2,5.7s.4,5.2,1.2,6.4c.9,1.2,2.4,1.9,4,1.7,1.1,0,2.2-.2,3.2-.6ZM798.5,241.3c.9,0,1.8-.4,2.3-1.2.5-1.1.8-2.4.7-3.7,0-1.5-.2-2.9-.7-4.2-.5-.9-1.5-1.5-2.5-1.4-.9,0-1.8.4-2.3,1.2-.5,1.1-.8,2.4-.7,3.7,0,1.4.2,2.9.7,4.2.5.9,1.5,1.5,2.5,1.4ZM798,243.2c-1.6.1-3.3-.4-4.4-1.6-1-1.4-1.6-3.1-1.4-4.8-.1-2.1.5-4.1,1.7-5.8,1.2-1.4,3.1-2.2,5-2.1,1.6-.1,3.3.4,4.4,1.6,1,1.4,1.6,3.1,1.4,4.8.1,2.1-.5,4.1-1.7,5.7-1.2,1.4-3.1,2.2-5,2.1ZM808.6,229.3l1.1-3.9c.3.1.7.2,1,.4.2.1.5.3.6.6.2.8.3,1.6.2,2.4v.6h4.6c.1.3.2.6.2,1,0,.2,0,.4-.2.5-.2.1-.4.2-.6.1h-4v6.6c0,1,0,2.1.4,3.1.3.5.8.8,1.3.8.7,0,1.5-.2,2.1-.6.2.3.3.6.3,1,0,.5-.3.9-.8,1-.8.2-1.7.3-2.6.3-1,0-2-.2-2.8-.8-.7-.8-1-1.9-.9-2.9v-3.3c0-1.8,0-3.5-.2-5.2h-1.4c-.1-.3-.2-.6-.2-1,0-.2,0-.4.2-.5.1-.1.3-.2.5-.2h.9ZM837.8,230.8c-.3.9-1,3-2,6.3-.5,1.9-1.1,3.7-2,5.5-.4.4-.9.6-1.4.6-.5,0-1,0-1.5-.2,0-.1-.5-1.9-1.3-5.4-.3-1.8-.7-3.6-1.3-5.3-.5,1.6-.9,3.2-1.2,4.9-.7,3.2-1.3,5.1-1.6,5.4-.4.4-.9.6-1.4.6-.6,0-1.3,0-1.9-.2,0-.1-.5-1.7-1.3-4.9-.7-3.2-1.2-5-1.4-5.7-.1-.4-.3-.9-.5-1.3-.1-.2-.3-.4-.5-.5-.2,0-.5-.1-.7,0-.1-.3-.2-.5-.2-.8,0-.3.1-.5.4-.6.7-.1,1.4-.1,2.1-.1.5,0,.9,0,1.4.1.2,0,.4.3.5.5.2.5.3,1.1.4,1.6.1.9.5,2.6,1,5.3.2,1.4.5,2.7,1,4,.5-1.5.9-3,1.2-4.6.7-3.1,1.2-5.4,1.5-6.9,1,0,2,0,2.9,0,.2,0,.5.2.6.5.2.5.3,1.1.4,1.6.1.9.5,2.6,1.1,5.3.2,1.4.6,2.7,1,4.1.5-1.4.9-2.8,1.2-4.3.7-2.8,1.1-4.7,1.2-5.6h-.8c-.1-.3-.2-.5-.2-.8,0-.2,0-.4.2-.6.1-.1.3-.2.5-.2h3.6c.1.3.2.5.2.8,0,.2,0,.4-.2.6-.2.1-.4.2-.6.2h-.2ZM849.3,241.8c-.8.4-1.6.8-2.4,1-.8.2-1.6.4-2.4.4-1,0-2-.2-2.8-.9-.7-.7-1-1.7-.9-2.6,0-1.3.5-2.5,1.5-3.2,1.4-.9,3-1.2,4.7-1.1h2c0-1.2-.2-2.3-.7-3.4-.5-.7-1.3-1-2.2-1-.5,0-1.1,0-1.6.2-.1.3-.3.6-.5.9-.3.1-.5.2-.8.2-.5.1-.8.1-1,0-.3-.3-.5-.6-.6-.9-.2-.3-.3-.7-.3-1.1,0-.2,0-.3.2-.4.6-.2,1.2-.3,1.9-.4,1.2-.2,2.3-.2,3.5-.2,1.3,0,2.5.2,3.6.8.9.8,1.3,1.9,1.2,3.1v4.3c0,1.2,0,2.4.3,3.6,0,.4.5.6.8.5h0c.1.2.2.4.2.6,0,.3-.2.6-.6.7-.5.2-1,.3-1.6.3-.3,0-.5,0-.7-.1-.4-.3-.6-.7-.8-1.1h0ZM849,237.1c-.8-.1-1.6-.2-2.5-.2-.8,0-1.6.1-2.2.5-.5.4-.7,1-.6,1.7,0,.6.2,1.2.6,1.7.5.4,1.1.6,1.7.6.6,0,1.2-.1,1.7-.4.5-.2.8-.5,1-1,.2-.7.3-1.3.3-2v-.8ZM856.9,234.9c0-3.9,0-6.4,0-7.5,0-.7,0-1.4-.2-2.1,0-.3-.2-.5-.5-.6-.3-.1-.6-.1-.9-.1-.1-.3-.2-.6-.2-.8,0-.2.1-.5.4-.5.8-.1,1.5-.1,2.3-.1.5,0,1,0,1.5.1.3,0,.4.2.4.4,0,.3,0,.7,0,1v11.6c0,2.2,0,4,.1,5.3h1.5c.1.2.2.5.2.8,0,.2,0,.4-.2.5-.2.1-.4.2-.6.1h-5.5c-.1-.3-.2-.5-.2-.8,0-.2,0-.3.2-.5.1-.1.3-.2.5-.1h1c0-1.3.1-3.5.1-6.5h0ZM865.3,234.9c0-3.9,0-6.4,0-7.5,0-.7,0-1.4-.2-2.1,0-.3-.2-.5-.5-.6-.3-.1-.6-.1-.9-.1-.1-.3-.2-.6-.2-.8,0-.2.1-.5.4-.5.8-.1,1.5-.1,2.3-.1.5,0,1,0,1.5.1.3,0,.4.2.4.4,0,.3,0,.7,0,1v11.6c0,2.2,0,4,.1,5.3h1.5c.1.2.2.5.2.8,0,.2,0,.4-.2.5-.2.1-.4.2-.6.1h-5.5c-.1-.3-.2-.5-.2-.8,0-.2,0-.3.2-.5.1-.1.3-.2.5-.1h1c0-1.3.1-3.5.1-6.5h0ZM878.2,228.9c1,0,2,0,2.9.4.7.2,1.1.6,1.1,1.1,0,.6-.3,1.2-.7,1.6-1.3-.7-2.8-1.1-4.3-1.3-.6,0-1.1.1-1.6.4-.4.3-.6.7-.5,1.2,0,.5.2,1,.6,1.3.8.5,1.6.9,2.5,1.2,1.2.4,2.4,1,3.4,1.7.7.6,1,1.5,1,2.5,0,1.2-.5,2.4-1.5,3-1.3.8-2.8,1.1-4.3,1.1-1.1,0-2.2,0-3.3-.3-.8-.2-1.1-.6-1.1-1.3,0-.5.2-1,.5-1.4,1.4.7,2.9,1.1,4.4,1.1.7,0,1.3,0,1.9-.4.4-.3.7-.8.6-1.3,0-.7-.4-1.3-.9-1.6-1-.5-2-1-3-1.4-1-.3-2-.9-2.8-1.6-.5-.6-.8-1.4-.8-2.2,0-1.1.6-2.2,1.5-2.8,1.3-.8,2.9-1.2,4.5-1.1Z"/>
  <path class="st1" d="M788.6,107.3h-17.2v1c2.4.3,2.7.6,2.7,2.1v18.1c0,1.5-.3,1.8-2.7,2.1v1h9.3v-1c-2.6-.3-3-.7-3-2.3v-8.4h4.2c1.5,0,2,.6,2.4,3.4h.9v-8h-.9c-.6,2.8-1,3.4-2.4,3.4h-4.2s0-10.1,0-10.1h3.9c4.1.3,5.4,1,6.2,4.7h.9l-.2-5.8ZM789.4,123.3c0,5.3,3.5,8.5,8.2,8.5,2.3.1,4.6-.8,6.2-2.5v-1c-1.2,1.1-2.8,1.7-4.4,1.6-3.9,0-6.5-2.9-6.6-7.3h11.3c0-.3,0-.7,0-1,0-4.3-2.5-7-6.9-7-4.7,0-7.8,3.6-7.8,8.7h0ZM797.2,116c2.4,0,3.7,2,3.7,5.2v.3h-8.2c.2-3.7,1.9-5.5,4.4-5.5h0ZM807.3,123.4c0,5.3,3.2,8.4,6.8,8.4,2.3,0,4.4-1,5.6-3v2.8l5.5-.7v-.9l-1.2-.3c-1-.3-1.1-.5-1.1-1.4v-21.8l-5.6.7v.9l1.2.3c.9.3,1.1.5,1.1,1.4v6.6c-1.1-1.2-2.7-1.9-4.4-1.8-4.4,0-7.9,3.6-7.9,8.8h0ZM810.8,123.1c0-4.3,2.1-7,5.2-7,1.5,0,2.9.6,3.7,1.8v10.1c-.8,1.4-2.3,2.1-3.9,2-3,0-5-2.6-5-6.9h0ZM827.7,123.3c0,5.3,3.5,8.5,8.2,8.5,2.3.1,4.6-.8,6.2-2.5v-1c-1.2,1.1-2.8,1.7-4.4,1.6-3.9,0-6.5-2.9-6.6-7.3h11.3c0-.3,0-.7,0-1,0-4.3-2.5-7-6.9-7-4.7,0-7.8,3.6-7.8,8.7h0ZM835.5,116c2.4,0,3.7,2,3.7,5.2v.3h-8.2c.2-3.7,1.9-5.5,4.4-5.5h0ZM858.3,128.5l-4.3-5.6,3.4-4.4c1.4-1.8,1.9-2.2,3.6-2.5v-1h-6.2v1c2.2.2,2.4.5,1.3,2l-2.9,3.9-2.9-3.9c-1.1-1.5-.9-1.9,1.4-2v-1h-7.9v1c1.2.2,2.2.9,2.8,1.9l4.2,5.6-3.3,4.3c-1.5,1.9-2,2.4-3.9,2.7v1h6.4v-1c-2.1-.2-2.4-.6-1.2-2.2l2.7-3.8,3,3.9c1.2,1.6.9,1.9-1.3,2.1v1h8v-1c-1.2-.2-2.3-1-3-2.1h0Z"/>
  <path class="st3" d="M223.8,208.6v12.2c0,6.6,4.7,9.5,9.6,9.5s9.6-3.7,9.7-9.6v-11.2c.1-2.1.4-2.6,2.8-2.8v-1h-7.2v1c2.5.3,2.8.7,2.8,2.9v11c.1,5.1-2.6,7.9-6.9,7.9s-7.1-2.6-7.1-7.8v-11.9c0-1.5.3-1.8,2.7-2.1v-1h-8.9v1c2.3.3,2.6.6,2.6,2ZM264.8,221.4c0-5.3-3.2-8.4-6.8-8.4-2.2,0-4.3,1-5.5,2.9v-10.9s-5.6.7-5.6.7v.9l1.2.3c.9.3,1.1.5,1.1,1.4v21.7h1.1l1.7-2c1.2,1.5,3,2.4,4.9,2.3,4.5,0,8-3.6,8-8.8ZM261.4,221.7c0,4.3-2.1,7-5.3,7-1.4,0-2.8-.6-3.6-1.8v-10.1c.8-1.4,2.3-2.1,3.9-2,3,0,5,2.7,5,6.9h0ZM271,209.7c1.1,0,1.9-.9,1.9-2,0-1.1-.9-1.9-2-1.9-1.1,0-1.9.9-1.9,1.9,0,1.1.9,2,2,1.9h0ZM273,213.1l-5.6.7v.9l1.2.3c1,.3,1.1.5,1.1,1.4v11c0,1.1-.3,1.3-2.3,1.6v1h7.9v-1c-2-.2-2.3-.5-2.3-1.6v-14.2ZM277.9,217.6c0,2.6,1.9,4,4.9,4.9l1.3.4c2.3.7,3.3,1.5,3.3,3.1s-1.4,2.8-3.6,2.8c-2.6,0-4.8-1.8-5.2-4.3h-.9l.2,4.2c1.8,1,3.9,1.5,6,1.5,3.5,0,6.5-1.9,6.5-4.9s-1.8-4.2-4.8-5.1l-1.3-.4c-2.1-.6-3.4-1.3-3.4-2.9s1.4-2.5,3.5-2.5c2.3,0,4.2,1.6,4.4,3.8h.9v-4c-1.7-.9-3.6-1.3-5.4-1.2-3.8,0-6.3,1.8-6.3,4.7h0ZM301.8,230.2c4.6.1,8.5-3.5,8.6-8.1,0-.2,0-.4,0-.5.2-4.5-3.3-8.4-7.8-8.6-.2,0-.4,0-.6,0-4.6-.1-8.4,3.5-8.6,8.1,0,.2,0,.4,0,.6-.2,4.5,3.3,8.3,7.8,8.5.2,0,.4,0,.5,0h0ZM302,228.8c-2.9,0-5-3-5-7.5s1.8-7,4.7-7,5,2.9,5,7.5c0,4.3-1.8,7-4.8,7h0ZM318.6,227.1v-12.5h4.7c0,.1,0-1.4,0-1.4h-4.7c0,.1,0-4.1,0-4.1,0-2.4.9-3.4,2.4-3.4.2,0,.3,0,.5,0-.3.3-.5.7-.5,1.2,0,.9.7,1.6,1.6,1.6s1.6-.7,1.6-1.6c0-1.4-1.3-2.5-3.6-2.5s-5.2,2.1-5.2,5.8v3l-2.3.8v.7h2.3v12.5c0,1.1-.3,1.3-2.3,1.5v1h8.1v-1c-2.3-.2-2.5-.5-2.5-1.7h0ZM326.4,225.3c0,3.7,2.1,4.9,4.4,4.9,1.5,0,3-.5,4.1-1.5v-1c-.7.5-1.6.7-2.4.7-1.6,0-2.8-.9-2.8-3.7v-10.1h4.9c0,.1,0-1.4,0-1.4l-4.9.2v-3.3h-.5l-5,4v.7h2.2v10.5Z"/>
  <path class="st2" d="M391.3,36.6h2.7c0,1.1-.3,2.1-.9,2.9-.6.9-1.5,1.6-2.5,2-1.2.4-2.4.7-3.7.6-2.7,0-5.2-1-7-3-1.8-2-2.7-5-2.7-8.9s.9-6.9,2.7-8.9c1.8-2,4.4-3.1,7-3,1.3,0,2.5.2,3.7.7,1,.4,1.9,1.1,2.5,2,.6.8.9,1.7.9,2.7h0c0,.1-2.7.1-2.7.1h0c0-.7-.2-1.3-.5-1.7-.4-.5-.9-.9-1.5-1.2-.7-.3-1.5-.4-2.3-.4-2.1-.1-4.1.9-5.1,2.7-1.2,2.1-1.8,4.5-1.7,6.9-.1,2.4.5,4.8,1.7,7,1.1,1.8,3,2.8,5.1,2.7,1.2.1,2.4-.2,3.3-1,.6-.6,1-1.3,1-2.2h0ZM399.9,41.5h-2.7v-23.3h2.7v10c.5-.7,1-1.4,1.7-1.9.5-.4,1.1-.7,1.7-1,.6-.2,1.3-.3,1.9-.3.9,0,1.9.2,2.7.6.8.4,1.4,1,1.9,1.8.5,1.2.8,2.6.7,3.9v10.3h-2.7v-9.1c0-1,0-2.1-.3-3.1-.2-.6-.6-1.1-1.1-1.4-.6-.3-1.2-.5-1.8-.5-.8,0-1.6.2-2.3.7-.7.5-1.3,1.2-1.7,1.9-.5,1.1-.7,2.3-.7,3.5v7.9ZM414.5,25.3h2.7v16.2h-2.7v-16.2ZM414.5,21.7v-2.7h2.7v2.7h-2.7ZM431.6,37.3h2.7v.2c0,.8-.3,1.6-.8,2.2-.6.7-1.3,1.3-2.1,1.7-1,.4-2.1.6-3.2.6-2.1.1-4.1-.7-5.5-2.3-1.4-1.8-2.1-4-1.9-6.3-.1-2.2.6-4.5,1.9-6.2,1.4-1.6,3.4-2.4,5.5-2.3,1.1,0,2.2.2,3.2.6.8.4,1.6.9,2.1,1.6.5.6.8,1.4.8,2.3v.2h-2.7v-.2c0-.6-.3-1.2-.8-1.5-.7-.5-1.6-.7-2.5-.7-1.3,0-2.5.5-3.4,1.5-1,1.4-1.5,3.1-1.4,4.8-.2,1.7.3,3.4,1.4,4.8.9,1,2.1,1.5,3.4,1.5.9,0,1.8-.2,2.5-.7.5-.4.8-.9.8-1.5v-.2ZM440.4,41.5h-2.8v-23.3h2.8v14.9l7.2-7.7h3.1l-7,7.5,7.3,8.6h-3.4l-7.2-8.5v8.5ZM459.3,41.5v-22.4h12.7v2.5h-9.8v7.7h8.5v2.3h-8.5v10h-2.9ZM475.7,25.3h2.7v16.2h-2.7v-16.2ZM475.7,21.7v-2.7h2.7v2.7h-2.7ZM485.3,41.5h-2.7v-23.3h2.7v23.3ZM505.2,41.5c-.3-.7-.4-1.5-.4-2.2-.8.9-1.9,1.7-3,2.2-.8.3-1.6.5-2.4.5-1.2,0-2.4-.4-3.3-1.2-.9-.8-1.4-2-1.4-3.2,0-1.5.7-2.8,1.9-3.6,2.1-1.1,4.4-1.9,6.7-2.2l1.4-.3v-1.8c0-.8-.3-1.6-1-2.1-.7-.4-1.6-.6-2.4-.6-.9,0-1.9.2-2.6.7-.6.4-.9,1-.9,1.7v.2h-2.9v-.2c0-.8.4-1.6.9-2.2.6-.8,1.5-1.4,2.4-1.7,1-.4,2.2-.6,3.3-.6,1.1,0,2.2.2,3.2.6.8.3,1.6.8,2.1,1.5.6,1.1.8,2.3.7,3.5v6.3c0,.7,0,1.4,0,2.2,0,.9.2,1.8.5,2.6h-2.8ZM504.8,33.3l-.8.2c-1.8.3-3.6,1-5.2,1.9-.7.5-1.1,1.3-1.1,2.1,0,.4.1.8.3,1.2.2.4.6.7,1,.8.4.2.9.3,1.3.3.8,0,1.6-.2,2.2-.7.7-.4,1.3-1,1.7-1.8.4-.8.6-1.7.6-2.6v-1.6Z"/>
</svg>