<?xml version="1.0" encoding="UTF-8"?>
<svg id="Layer_1" xmlns="http://www.w3.org/2000/svg" version="1.1" viewBox="0 0 885 430">
  <!-- Generator: Adobe Illustrator 29.7.1, SVG Export Plug-In . SVG Version: 2.1.1 Build 8)  -->
  <defs>
    <style>
      .st0 {
        fill: #c2c2c2;
      }

      .st1 {
        fill: #c4c4c4;
      }

      .st2 {
        fill: #949494;
      }

      .st3 {
        fill: #7f7f7f;
      }
    </style>
  </defs>
  <path class="st3" d="M29.4,31.1v-3.3h-7.5v5.9h6.4v2.5h-6.4v6.6h2.5v2.5h-8.1v-2.5h2.5v-15h-2.5v-2.5h15.5v5.8h-2.5ZM38.2,26.6c0,.4-.2.9-.5,1.2-.3.3-.7.5-1.2.5-.4,0-.9-.2-1.2-.5-.3-.3-.5-.7-.5-1.2,0-.4.2-.9.5-1.2.3-.3.7-.5,1.2-.5.4,0,.9.2,1.2.5.3.3.5.7.5,1.2h0ZM40.1,42.8v2.4h-7v-2.4h2.2v-9h-2.2v-2.4h4.9v11.5h2.1ZM46.8,39.6v3.2h3v2.4h-8.5v-2.4h2.8v-9h-2.8v-2.4h5v3.1c.4-1.1,1.1-2,2.1-2.6,1.1-.5,2.3-.8,3.5-.7h.6v2.8h-.6c-1.1,0-2.3.1-3.3.6-.7.4-1.2,1-1.4,1.8-.3,1.1-.4,2.3-.4,3.4ZM61.4,31.9v-.6h2.4v4.6h-2.4v-.8c-.7-1.1-1.9-1.7-3.3-1.7-.6,0-1.2.1-1.8.5-.4.3-.7.7-.7,1.2,0,.4.2.8.5,1.1.7.4,1.5.6,2.3.7l1.8.4c2.7.5,4.1,1.8,4.1,4,0,1.2-.5,2.4-1.5,3.1-1.1.8-2.5,1.2-4,1.2-.7,0-1.3,0-1.9-.3-.6-.2-1.1-.4-1.6-.7v.8h-2.4v-4.8h2.4v.5c.1.7.5,1.3,1.1,1.6.6.4,1.4.6,2.1.6.7,0,1.5-.1,2.1-.5.5-.3.8-.8.8-1.4,0-.4-.2-.8-.6-1-.8-.3-1.6-.6-2.4-.7l-1.4-.3c-1.2-.2-2.2-.7-3.1-1.5-.7-.7-1-1.7-1-2.6,0-.8.2-1.6.7-2.2.5-.6,1.1-1.1,1.8-1.4.7-.3,1.5-.5,2.3-.5,1.2,0,2.3.2,3.4.8ZM73.5,31.3v2.4h-2.5v7.3c0,.5,0,1,.2,1.5.2.2.5.4.8.3.5,0,1,0,1.5-.3v2.5c-.7.2-1.4.3-2.1.4-.9,0-1.8-.2-2.5-.9-.6-.9-.9-1.9-.8-3v-7.9h-1.8v-2.4h1.8v-2.1l2.7-2.5v4.6h2.5ZM95.5,27.7l5.4,15.1h2.2v2.5h-7.9v-2.5h2.6l-1.5-4.5h-7.2l-1.5,4.5h2.5v2.5h-7.9v-2.5h2.4l5.4-15.1h-2.4v-2.4h10.4v2.4h-2.4ZM92.8,27.7h0l-2.8,8.2h5.7l-2.8-8.2ZM106.7,42.8v-9h-2.3v-2.4h5.1v1.8c1.3-1.2,3-1.9,4.8-1.9,1.5,0,2.8.8,3.3,2.2,1.4-1.3,3.2-2,5-2.2,1,0,2,.3,2.7,1,.7.8,1.1,1.9,1,3v7.6h2.4v2.4h-5.2v-8.8c0-.5,0-1,0-1.5,0-.4-.2-.7-.5-1-.3-.3-.8-.4-1.2-.4-.6,0-1.2.2-1.8.5-.8.4-1.5.8-2.1,1.4v7.4h2.4v2.4h-5.1v-9.2c0-.7,0-1.3-.4-1.9-.3-.4-.8-.6-1.3-.6-1.5.2-2.8.8-4,1.8v7.4h2.4v2.4h-7.7v-2.4h2.5ZM144.9,39h-11.7c.1,1.2.7,2.3,1.5,3.2.9.8,2,1.2,3.2,1.2.9,0,1.8-.2,2.6-.6.8-.4,1.5-1,2-1.7l2.4,1.1c-.7,1.2-1.8,2.1-3,2.7-1.3.6-2.6.9-4,.9-1.4,0-2.8-.3-4-.9-1.1-.6-2.1-1.5-2.7-2.6-.7-1.2-1-2.5-1-3.8,0-1.3.3-2.6,1-3.8.6-1.1,1.5-2,2.6-2.6,2.3-1.3,5.2-1.3,7.5,0,1.1.7,2,1.6,2.6,2.8.7,1.3,1,2.8,1,4.3ZM137.5,33.2c-1,0-2,.4-2.7,1-.8.7-1.3,1.7-1.5,2.7h8.7c-.2-1.1-.8-2-1.6-2.7-.8-.7-1.8-1.1-2.9-1h0ZM152,39.6v3.2h3v2.4h-8.5v-2.4h2.8v-9h-2.8v-2.4h5v3.1c.4-1.1,1.1-2,2.1-2.6,1.1-.5,2.3-.8,3.5-.7h.6v2.8h-.6c-1.1,0-2.3.1-3.3.6-.7.4-1.2,1-1.4,1.8-.3,1.1-.4,2.3-.4,3.4h0ZM163.9,26.6c0,.4-.2.9-.5,1.2-.3.3-.7.5-1.2.5-.4,0-.9-.2-1.2-.5-.3-.3-.5-.7-.5-1.2,0-.4.2-.9.5-1.2.3-.3.7-.5,1.2-.5.4,0,.9.2,1.2.5.3.3.5.7.5,1.2ZM165.9,42.8v2.4h-7v-2.4h2.2v-9h-2.2v-2.4h4.9v11.5h2.1ZM179.4,36.2v6.6h2.3v2.4h-4.7v-1.7c-1.1,1.2-2.7,1.9-4.4,1.9-1.6,0-3.2-.8-4.1-2.2-.9-1.4-.9-3.2,0-4.6.5-.7,1.1-1.2,1.9-1.6.8-.4,1.6-.6,2.4-.6,1.4,0,2.7.4,3.8,1.2v-1.5c0-.8-.2-1.7-.7-2.3-.6-.5-1.4-.8-2.3-.7-.6,0-1.3.1-1.9.4-.5.3-.9.7-1.2,1.2l-2.6-.6c.5-1,1.4-1.9,2.4-2.5,1.1-.6,2.3-.8,3.6-.8,1.5-.1,2.9.3,4.1,1.3,1,1.1,1.4,2.6,1.3,4ZM172.9,43.4c1.4,0,2.8-.6,3.8-1.7v-1.6c-1-.9-2.3-1.3-3.6-1.4-.7,0-1.4.2-1.9.7-1,.8-1.1,2.3-.2,3.2,0,0,0,0,.1.1.5.4,1.1.7,1.8.7ZM196.5,35.9v6.9h2.3v2.4h-5.1v-9.2c0-.6,0-1.3-.4-1.9-.3-.4-.8-.6-1.2-.6-1.5.1-3,.8-4.1,1.8v7.4h2.4v2.4h-7.5v-2.4h2.5v-9h-2.5v-2.4h5.2v1.7c1.4-1.1,3-1.8,4.8-1.9,1.1,0,2.1.3,2.8,1.2.7,1.1,1,2.3.9,3.6ZM59.3,54.7h6.9v2.5h-2.4v15h2.4v2.5h-7.5v-2.5h2.4v-15l-6.9,17.7h-.6l-6.8-17.7v15h2.2v2.5h-7.1v-2.5h2.4v-15h-2.4v-2.5h6.8l5.3,13.7,5.3-13.7ZM82.7,67.8c0,1.3-.3,2.6-1,3.7-1.3,2.3-3.7,3.7-6.3,3.6-1.3,0-2.6-.3-3.8-1-1.1-.6-2-1.6-2.6-2.7-.6-1.1-.9-2.4-.9-3.7,0-1.3.3-2.6.9-3.8.6-1.1,1.5-2,2.6-2.6,1.2-.6,2.5-1,3.8-.9,1.3,0,2.6.3,3.7,1,2.2,1.3,3.6,3.7,3.6,6.3h0ZM75.4,72.4c.8,0,1.6-.2,2.2-.6.7-.4,1.2-1,1.6-1.7.4-.7.6-1.5.6-2.3,0-.8-.2-1.6-.6-2.3-.4-.7-.9-1.3-1.6-1.7-1.4-.9-3.1-.9-4.5,0-.7.4-1.2,1-1.6,1.7-.8,1.5-.8,3.2,0,4.7.4.7.9,1.3,1.6,1.7.7.4,1.5.6,2.3.6h0ZM89.8,69.1v3.2h3v2.4h-8.5v-2.4h2.8v-9h-2.8v-2.4h5v3.1c.4-1.1,1.1-2,2.1-2.6,1.1-.5,2.3-.8,3.5-.7h.6v2.8h-.6c-1.1,0-2.3.1-3.3.6-.7.4-1.2,1-1.4,1.8-.3,1.1-.4,2.3-.3,3.4h0ZM104,60.8v2.4h-2.5v7.3c0,.5,0,1,.2,1.5.2.2.5.4.8.3.5,0,1,0,1.5-.3v2.5c-.7.2-1.4.3-2.1.4-.9,0-1.8-.2-2.5-.9-.6-.9-.9-1.9-.8-3v-7.9h-1.8v-2.4h1.8v-2.1l2.7-2.5v4.6h2.5ZM117.7,62.8v-2h5.2v2.4h-2.5v10.4c.1,2-.5,4.1-1.8,5.6-1.4,1.4-3.4,2.1-5.4,2-2.1,0-4.1-.6-5.7-1.9l1.8-2c.6.4,1.2.8,1.9,1.1.7.2,1.4.4,2.1.4,1.2,0,2.4-.4,3.2-1.3.8-.9,1.2-2.2,1.2-3.4v-1.3c-.6.7-1.4,1.3-2.3,1.7-.9.4-1.8.6-2.8.6-1.2,0-2.4-.3-3.5-1-1-.6-1.8-1.5-2.4-2.6-.6-1.1-.9-2.3-.9-3.6,0-1.3.3-2.5.9-3.7.6-1.1,1.4-2,2.5-2.7,1-.7,2.3-1,3.5-1,.9,0,1.8.2,2.6.5.9.4,1.7,1,2.3,1.6h0ZM113.2,72.7c.8,0,1.6-.2,2.3-.6.7-.4,1.3-1,1.6-1.7.4-.7.6-1.5.6-2.4,0-.8-.2-1.6-.6-2.3-.4-.7-.9-1.3-1.6-1.8-1.4-.9-3.2-.9-4.6,0-.7.4-1.2,1-1.6,1.7-.4.7-.6,1.5-.6,2.4,0,.8.2,1.6.5,2.4.3.7.9,1.3,1.5,1.7.7.4,1.5.6,2.3.6h0ZM136.1,65.7v6.6h2.3v2.4h-4.7v-1.7c-1.1,1.2-2.7,1.9-4.4,1.9-1.6,0-3.2-.8-4.1-2.2-.9-1.4-.9-3.2,0-4.6.5-.7,1.1-1.2,1.9-1.6.8-.4,1.6-.6,2.4-.6,1.4,0,2.7.4,3.8,1.2v-1.5c0-.8-.2-1.7-.7-2.3-.6-.5-1.4-.8-2.3-.7-.6,0-1.3.1-1.9.4-.5.3-.9.7-1.2,1.2l-2.6-.6c.5-1,1.4-1.9,2.4-2.5,1.1-.6,2.3-.8,3.6-.8,1.5-.1,2.9.3,4.1,1.3,1,1.1,1.4,2.6,1.3,4ZM129.7,72.8c1.4,0,2.8-.6,3.8-1.7v-1.6c-1-.9-2.3-1.3-3.6-1.4-.7,0-1.4.2-1.9.7-1,.8-1.1,2.3-.2,3.2,0,0,0,0,.1.1.5.4,1.1.7,1.8.7h0ZM151.8,62.8v-2h5.2v2.4h-2.5v10.4c.1,2-.5,4.1-1.8,5.6-1.4,1.4-3.4,2.1-5.4,2-2.1,0-4.1-.6-5.7-1.9l1.8-2c.6.4,1.2.8,1.9,1.1.7.2,1.4.4,2.1.4,1.2,0,2.4-.4,3.2-1.3.8-.9,1.2-2.2,1.2-3.4v-1.3c-.6.7-1.4,1.3-2.3,1.7-.9.4-1.8.6-2.8.6-1.2,0-2.4-.3-3.5-1-1-.6-1.8-1.5-2.4-2.6-.6-1.1-.9-2.3-.9-3.6,0-1.3.3-2.5.9-3.7.6-1.1,1.4-2,2.5-2.7,1-.7,2.3-1,3.5-1,.9,0,1.8.2,2.6.5.9.4,1.7,1,2.3,1.6ZM147.3,72.7c.8,0,1.6-.2,2.3-.6.7-.4,1.3-1,1.6-1.7.4-.7.6-1.5.6-2.4,0-.8-.2-1.6-.6-2.3-.4-.7-.9-1.3-1.6-1.8-1.4-.9-3.2-.9-4.6,0-.7.4-1.2,1-1.6,1.7-.4.7-.6,1.5-.6,2.4,0,.8.2,1.6.5,2.4.3.7.9,1.3,1.5,1.7.7.4,1.5.6,2.3.6h0ZM173.1,68.4h-11.7c.1,1.2.7,2.3,1.5,3.2.9.8,2,1.2,3.2,1.2.9,0,1.8-.2,2.6-.6.8-.4,1.5-1,2-1.7l2.4,1.1c-.7,1.2-1.8,2.1-3,2.7-1.3.6-2.6.9-4,.9-1.4,0-2.8-.3-4-.9-1.1-.6-2.1-1.5-2.7-2.6-1.3-2.4-1.3-5.2,0-7.6.6-1.1,1.5-2,2.6-2.6,2.3-1.3,5.2-1.3,7.5,0,1.1.7,2,1.6,2.6,2.8.7,1.3,1,2.8,1,4.3h0ZM165.7,62.7c-1,0-2,.4-2.7,1-.8.7-1.3,1.7-1.5,2.7h8.7c-.2-1.1-.8-2-1.6-2.7-.8-.7-1.8-1.1-2.9-1Z"/>
  <path class="st0" d="M787.2,203h-2.2l-4.1,12c-.6,1.9-1.4,4-1.9,5.9h0c-.5-1.9-1.2-4.1-1.9-6l-4.1-11.9h-2.1l-4.1,11.9c-.6,1.9-1.3,4-1.9,6h0c-.5-2-1.3-4.1-1.9-6l-4.1-11.9h-2.4l8,23h.8l4.5-13.1c.7-2.1,1.4-4.1,2.1-6.6h0c.7,2.5,1.4,4.6,2.1,6.6l4.5,13.1h.8l8-23ZM802.6,215.4c0-3.1-2.4-6.2-6.8-6.2-4.4.2-7.9,3.9-7.7,8.3,0,0,0,0,0,0,0,4.6,3.6,8.3,8.2,8.3,0,0,.2,0,.3,0,1.6,0,3.2-.3,4.6-1.1l.3-2.2c-1.4.9-3,1.4-4.7,1.3-3.4.1-6.2-2.5-6.4-5.8,0-.1,0-.2,0-.3h10.8l1.3-1.3c0-.4,0-.7,0-1.1ZM800.3,215.5c0,.2,0,.4,0,.5h-9.8c.4-2.7,2.7-4.7,5.4-4.8,2.4,0,4.4,1.7,4.5,4.1,0,0,0,.1,0,.2ZM817.9,225.6l-5.2-8.2,4.9-7.8h-2.4l-2.5,4c-.4.7-.8,1.4-1.2,2h0c-.4-.7-.8-1.3-1.2-2l-2.5-4h-2.4l4.9,7.9-5.2,8.2h2.4l2.7-4.2c.4-.6,1-1.4,1.3-2.2h0c.4.7.8,1.5,1.2,2.2l2.7,4.2h2.4ZM832.8,225.6v-22.6h-2.4v22.6h2.4ZM851.1,225.6v-10.8c0-3.5-2.6-5.6-6.1-5.6s-4.7,1.3-5.2,2.8h0v-2.4h-2.1v16h2.2v-10.6c0-2.2,1.8-3.9,4.6-3.9s4.4,1.6,4.4,3.9v10.6h2.2ZM867.9,210.6c-1.5-.8-3.2-1.3-5-1.2-4.5-.2-8.3,3.3-8.4,7.8,0,.2,0,.3,0,.5,0,4.5,3.5,8.2,8,8.2.1,0,.3,0,.4,0,1.5,0,2.9-.2,4.2-.8l.3-2.2c-1.3.7-2.8,1.1-4.3,1.1-3.4.1-6.2-2.5-6.4-5.9,0-.1,0-.2,0-.3,0-3.4,2.6-6.2,5.9-6.3.1,0,.2,0,.3,0,1.6,0,3.1.4,4.4,1.3l.5-2.1ZM874.2,224.2c0-1-.8-1.7-1.7-1.7s-1.7.8-1.7,1.7.8,1.7,1.7,1.7,1.7-.8,1.7-1.7Z"/>
  <path class="st3" d="M67.6,382.7c0-4.5-3.8-5.8-9.1-5.8h-8.7v1.1c2.8,0,3.1.7,3.1,2.6v15.2c0,3-.5,3.3-3.1,3.3v1.1h9.9v-1.1c-3,0-3.5-.4-3.5-3.3v-6.3h1c1.3,0,1.7.1,2.4,1.2,1.5,2.1,2.5,3.6,6.3,9.5h5.8v-1.1c-1.5.2-2.9-.5-3.6-1.8-3.9-5.6-5.3-7.5-6.5-8.2h0c2.9-.8,6-2.4,6-6.3ZM56.2,378.3c.7,0,1.6-.1,2.3-.1,3.8,0,5.5,1.7,5.5,4.6s-2.6,5.1-6.5,5.3h-1.3v-9.8ZM87.1,383.6l-.2-7.1h-.9c-.2.7-.5,1-1.1,1-.8,0-1.6-1.1-4.8-1.1-3.7,0-6.7,2-6.7,5.7s2.9,5.4,5.7,7c2.9,1.7,5.9,2.9,5.9,6s-1.7,3.7-4.3,3.7c-3.6,0-5.4-1.1-6.6-6h-1.1l.3,7.6h1.1c0-.7.5-1.2,1-1.2.8,0,2.2,1.1,5.9,1.1s7.2-2.2,7.2-6.3-3.5-5.8-6.7-7.6c-2.7-1.5-5.2-2.8-5.2-5.4s1.4-3.3,3.8-3.3c3.6,0,4.9,1.8,5.9,5.7h1.1ZM119.4,400.1v-1.1c-2.5,0-3.1-.6-3.1-3.1v-14.7c0-2.6.6-3.2,3.1-3.2v-1.1h-6.7l-7.4,17.8h-.1l-7.5-17.8h-7.2v1.1c2.8,0,3.3.6,3.3,3.3v13.8c0,3.6-.5,4.1-3.4,4.1v1.1h8.3v-1.1c-2.7,0-3.2-.5-3.2-4.1v-14.3h.1l8.3,19.4h.8l8.2-19.5h.1v15.2c0,2.6-.4,3.1-3.1,3.1v1.1h9.4Z"/>
  <path class="st2" d="M557.8,400.1l-9-24.4h-6l-9,24.4h5.9l1.8-5.7h8.6l1.8,5.7h5.9ZM545.7,381l2.8,8.6h-5.5l2.7-8.6ZM560.2,375.7v24.4h9.6c7,0,11.1-5.2,11.1-12.1s-4.1-12.2-11.1-12.2h-9.6ZM565.8,395.2v-14.7h4.1c3.6,0,5.5,3.6,5.5,7.4s-1.9,7.3-5.5,7.3h-4.1ZM585.2,375.7v24.4h5.6v-8.3h4.5c5.7,0,8.2-4,8.2-8,.2-4.3-3.1-7.9-7.3-8.1-.3,0-.6,0-.9,0h-10ZM590.8,387v-6.4h4.3c2.1,0,2.8,1.7,2.8,3.2.2,1.6-.9,3-2.5,3.2-.1,0-.3,0-.4,0h-4.2Z"/>
  <path class="st1" d="M7.7,226.8v-24.1h13.6v2.7h-10.5v7.6h9.2v2.4h-9.2v8.8h11.3v2.6H7.7ZM38,201.7h2.9v25.1h-2.9v-3c-.4.9-1,1.7-1.7,2.3-.6.4-1.2.7-1.9.9-.7.2-1.4.2-2.1.2-1.3,0-2.5-.4-3.6-1.1-1.2-.8-2.1-1.9-2.6-3.2-.6-1.5-.9-3.2-.9-4.8,0-2.3.6-4.6,1.9-6.6,1.2-1.7,3.2-2.7,5.3-2.6.7,0,1.4.1,2.1.3.6.2,1.2.5,1.7.9.7.6,1.3,1.4,1.7,2.2v-10.7ZM38,218.1c0-1.7-.4-3.4-1.3-4.8-.8-1.2-2.1-1.9-3.6-1.9-1.4,0-2.7.6-3.5,1.7-1,1.5-1.5,3.2-1.4,5,0,2.6.4,4.4,1.3,5.4,1.6,1.7,4.2,2,6,.7.8-.6,1.5-1.5,1.8-2.5.4-1.2.6-2.4.6-3.6h0ZM48.3,226.8l-5-17.4h3l3,10.8.4,2.6h.3l.4-2.6,3.1-10.8h2.9l3.4,10.8.6,2.6h.3l.4-2.6,3-10.8h2.7l-5,17.4h-2.9l-3.6-11.3-.5-2.5h-.2l-.5,2.5-3.3,11.3h-2.9ZM80.7,226.8c-.3-.8-.4-1.6-.4-2.4-.9,1-2,1.8-3.2,2.4-.8.3-1.7.5-2.6.5-1.3,0-2.6-.4-3.5-1.3-1-.9-1.6-2.2-1.5-3.5,0-1.6.7-3.1,2.1-3.9,2.2-1.2,4.7-2,7.2-2.4l1.5-.3v-1.9c0-.9-.3-1.8-1.1-2.2-.8-.5-1.7-.7-2.6-.6-1,0-2,.2-2.8.8-.6.4-1,1.1-1,1.9v.2h-3.2v-.2c0-.9.4-1.7,1-2.4.7-.8,1.6-1.5,2.6-1.8,1.1-.4,2.3-.6,3.5-.6,1.2,0,2.3.2,3.4.6.9.3,1.7.9,2.3,1.6.6,1.2.8,2.5.7,3.7v6.7c0,.7,0,1.5,0,2.3,0,1,.2,1.9.5,2.8h-3ZM80.3,218l-.9.2c-2,.3-3.9,1-5.6,2-.8.5-1.2,1.4-1.2,2.3,0,.5.1.9.4,1.3.3.4.6.7,1.1.9.4.2.9.3,1.4.3.8,0,1.7-.3,2.4-.7.8-.5,1.4-1.1,1.8-1.9.4-.9.7-1.8.7-2.8v-1.7ZM90.5,226.8h-2.9v-17.4h2.9v3.1c.4-.8.9-1.5,1.6-2.1.5-.5,1.1-.8,1.8-1.1.6-.2,1.3-.4,1.9-.4.5,0,1.1,0,1.5.2v3c-.7-.3-1.4-.5-2.2-.5-1.2,0-2.3.6-3.2,1.4-1,.9-1.5,2.6-1.5,5.1v8.6ZM111.9,201.7h2.9v25.1h-2.9v-3c-.4.9-1,1.7-1.7,2.3-.6.4-1.2.7-1.9.9-.7.2-1.4.2-2.1.3-1.3,0-2.5-.4-3.6-1.1-1.2-.8-2.1-1.9-2.6-3.2-.6-1.5-.9-3.2-.9-4.8,0-2.3.6-4.6,1.9-6.6,1.2-1.7,3.2-2.7,5.3-2.6.7,0,1.4,0,2.1.3.6.2,1.2.5,1.7.9.7.6,1.3,1.4,1.7,2.2v-10.7ZM111.9,218.1c0-1.7-.4-3.4-1.3-4.8-.8-1.2-2.1-1.9-3.6-1.9-1.4,0-2.7.6-3.5,1.7-1,1.5-1.5,3.2-1.4,5,0,2.6.5,4.4,1.3,5.4,1.6,1.7,4.2,2,6,.7.8-.6,1.5-1.5,1.8-2.5.4-1.2.6-2.4.6-3.6h0ZM123.5,222.7h3.1c0,.6.1,1,.4,1.3.3.4.7.7,1.1.8.5.2,1.1.3,1.7.3.6,0,1.2-.1,1.8-.4.6-.3,1-.8,1.2-1.4.3-1.3.5-2.7.4-4.1v-16.5h3.1v16.6c.1,1.8-.1,3.7-.9,5.4-.5.9-1.2,1.6-2.1,2.1-1.1.5-2.2.7-3.4.7-2.3,0-4-.5-5-1.5-.9-.8-1.4-2-1.5-3.2v-.2ZM148.2,227.3c-2.2,0-4.3-.8-5.8-2.3-1.6-1.5-2.4-3.8-2.4-6.9-.2-2.5.7-5,2.4-6.8,3.2-3.1,8.3-3.1,11.6,0,1.7,1.8,2.6,4.3,2.4,6.8,0,3-.8,5.3-2.4,6.9-1.5,1.5-3.6,2.3-5.8,2.3h0ZM148.2,224.9c1.5,0,2.9-.7,3.8-1.9,1-1.4,1.5-3.2,1.4-4.9,0-1.7-.4-3.5-1.4-4.9-1.6-2.1-4.6-2.5-6.6-.9-.3.3-.6.6-.9.9-1,1.4-1.5,3.1-1.4,4.9,0,1.7.4,3.5,1.4,4.9.9,1.2,2.3,1.9,3.8,1.9h0ZM163.1,226.8h-2.9v-17.4h2.9v3c.5-.8,1.1-1.5,1.8-2.1.5-.4,1.1-.8,1.8-1,.7-.2,1.4-.4,2.1-.4,1,0,2,.2,2.9.7.9.4,1.6,1.1,2,2,.6,1.3.8,2.7.7,4.2v11h-2.9v-9.8c0-1.1,0-2.2-.3-3.3-.2-.6-.6-1.2-1.2-1.5-.6-.4-1.3-.6-1.9-.5-.9,0-1.7.3-2.4.8-.8.5-1.4,1.2-1.8,2.1-.5,1.2-.8,2.5-.7,3.8v8.5ZM190.1,222.3h2.9v.2c0,.9-.4,1.7-.9,2.3-.6.8-1.5,1.4-2.4,1.8-1.1.4-2.3.6-3.5.6-2.3.1-4.6-.8-6.1-2.6-1.5-1.8-2.2-4.1-2.1-6.5,0-2.4.7-4.8,2.3-6.6,1.5-1.7,3.6-2.7,5.9-2.6,1.2,0,2.5.3,3.6.9,1.1.6,2,1.5,2.5,2.7.7,1.6,1,3.3.9,5.1v.9h-12.3c0,1.7.5,3.3,1.5,4.6,1,1.2,2.6,1.9,4.2,1.8,1,0,2-.2,2.8-.7.5-.4.9-1,.9-1.6v-.2ZM180.9,216.3h9.4v-.4c0-.8-.2-1.6-.6-2.3-.3-.7-.9-1.3-1.6-1.7-.7-.4-1.6-.6-2.4-.5-1.1,0-2.2.5-3,1.3-1,1-1.6,2.3-1.8,3.7ZM196,222.2h2.9c0,.8.3,1.5.9,1.9.8.6,1.9.8,2.9.7,1,0,2.1-.3,2.9-.9.7-.5,1.1-1.2,1.1-2,0-1.1-.7-1.8-2.2-2.3l-1.5-.4-1-.3-2-.6c-2.3-.9-3.4-2.2-3.4-4.2,0-1.4.6-2.7,1.7-3.6,1.4-1.1,3.2-1.7,4.9-1.5,1.6-.2,3.3.3,4.6,1.3.9.7,1.4,1.8,1.4,2.9h0s-2.9,0-2.9,0h0c0-.6-.3-1.2-.9-1.4-.7-.4-1.5-.5-2.3-.5-.9,0-1.9.2-2.7.7-.6.4-.9,1.1-.9,1.8,0,.5.2,1,.6,1.3.6.4,1.3.7,2,.9l1.4.4,1,.3c.9.2,1.8.5,2.6.9.4.2.7.4,1,.6.5.4.9.8,1.1,1.4.2.6.4,1.2.4,1.9,0,1.6-.6,3.1-1.8,4.1-1.4,1.2-3.3,1.8-5.2,1.7-1.2,0-2.4-.2-3.6-.6-.9-.4-1.7-1-2.2-1.8-.6-.7-.9-1.7-.8-2.6h0Z"/>
  <path class="st2" d="M9.9,154.9c-.4,0-.8-.3-.8-.7,0,0,0,0,0,0v-17.1H3.3c-.4,0-.8-.3-.8-.8h0v-2.9c0-.2,0-.4.2-.6.1-.1.3-.2.5-.2h16.7c.4,0,.8.3.8.7,0,0,0,0,0,0v2.9c0,.2,0,.4-.2.5-.2.1-.4.2-.6.2h-5.8v17.1c0,.4-.3.8-.7.8,0,0,0,0,0,0h-3.5ZM22.3,154.9c-.2,0-.4,0-.5-.2-.1-.2-.2-.4-.2-.6v-15c0-.2,0-.4.2-.6.1-.2.3-.2.5-.2h3.1c.4,0,.8.4.8.8v1.3c.5-.7,1.2-1.2,2-1.5.8-.4,1.8-.6,2.7-.5h1.4c.2,0,.4,0,.5.2.1.2.2.4.2.6v2.7c0,.2,0,.4-.2.6-.1.1-.3.2-.5.2h-2.8c-.8,0-1.6.2-2.2.8-.6.6-.8,1.4-.8,2.2v8.4c0,.4-.3.8-.7.8,0,0,0,0,0,0h-3.3ZM40,155.2c-1,0-2.1-.2-3-.7-.8-.4-1.6-1-2.1-1.8-1.4-2-.9-4.7,1-6,1.4-1,3.1-1.6,4.8-1.8l4.2-.6v-.6c0-.7-.2-1.4-.6-1.9-.5-.5-1.3-.7-2-.7-.6,0-1.2.1-1.7.4-.4.3-.8.6-1,1.1-.1.3-.4.4-.7.4h-3c-.2,0-.4,0-.5-.2-.1-.1-.2-.3-.2-.5,0-.5.2-.9.4-1.3.3-.6.8-1,1.3-1.4.7-.5,1.4-.9,2.2-1.2,1.1-.3,2.2-.5,3.3-.5,1.2,0,2.3.1,3.4.5.9.3,1.6.7,2.3,1.3.6.6,1,1.2,1.3,2,.3.8.4,1.6.4,2.4v9.8c0,.4-.3.8-.7.8,0,0,0,0,0,0h-3.1c-.2,0-.4,0-.5-.2-.2-.2-.2-.4-.2-.6v-1.2c-.3.4-.7.8-1.1,1.1-.5.4-1.1.7-1.7.8-.7.2-1.5.3-2.3.3ZM41.2,151.9c.7,0,1.3-.1,1.9-.4.6-.3,1-.8,1.3-1.4.3-.7.5-1.5.5-2.3v-.5l-3,.5c-.9,0-1.7.4-2.5.9-.5.3-.8.8-.8,1.4,0,.4.1.8.4,1.1.3.3.6.5,1,.7.4.1.8.2,1.3.2ZM54.3,154.9c-.2,0-.4,0-.5-.2-.1-.2-.2-.4-.2-.6v-15c0-.2,0-.4.2-.6.1-.1.3-.2.5-.2h3.1c.4,0,.8.3.8.7,0,0,0,0,0,0v1.2c.6-.7,1.3-1.3,2.1-1.7,1-.5,2.1-.7,3.2-.7,1.2,0,2.3.3,3.3.8,1,.6,1.7,1.4,2.2,2.5.6,1.2.9,2.6.8,3.9v8.9c0,.2,0,.4-.2.6-.1.1-.3.2-.6.2h-3.4c-.4,0-.8-.3-.8-.7h0v-8.8c0-.9-.2-1.9-.8-2.6-.6-.7-1.5-1-2.4-.9-.9,0-1.8.3-2.4.9-.6.7-.9,1.7-.9,2.6v8.7c0,.2,0,.4-.2.6-.1.1-.3.2-.5.2h-3.4ZM80.2,155.2c-1.1,0-2.3-.1-3.4-.5-.8-.2-1.6-.6-2.3-1.1-.5-.4-1-.8-1.3-1.4-.2-.3-.4-.7-.5-1.2,0-.2,0-.4.2-.6.1-.1.3-.2.5-.2h3.1c0,0,.1,0,.2,0,0,0,.1,0,.2.2.3.2.6.4.9.7.3.3.7.5,1,.6.5.2,1,.3,1.5.3.6,0,1.2-.1,1.8-.4.5-.2.7-.7.7-1.2,0-.3-.1-.7-.3-1-.4-.3-.8-.6-1.3-.7-.9-.3-1.8-.5-2.7-.7-1-.2-2-.6-2.9-1-.7-.4-1.4-.9-1.8-1.6-.4-.7-.6-1.5-.6-2.3,0-.9.3-1.7.8-2.4.6-.8,1.4-1.5,2.3-1.9,1.2-.5,2.5-.8,3.8-.7,1,0,2.1.1,3.1.4.8.2,1.5.6,2.2,1.1.5.4,1,.8,1.4,1.3.3.3.4.8.5,1.2,0,.2,0,.4-.2.5-.1.1-.3.2-.5.2h-2.8c0,0-.2,0-.3,0,0,0-.2,0-.2-.1-.3-.2-.5-.4-.8-.6-.3-.2-.6-.4-.9-.6-.4-.2-.9-.3-1.4-.3-.6,0-1.1.1-1.6.5-.4.3-.6.7-.6,1.2,0,.3.1.6.3.8.3.3.7.6,1.2.7.9.3,1.8.5,2.7.7,1.2.2,2.4.6,3.4,1.1.8.4,1.4,1,1.8,1.8.4.7.6,1.4.6,2.1,0,1-.3,1.9-.9,2.7-.7.8-1.6,1.5-2.6,1.8-1.3.5-2.8.7-4.2.7h0ZM95.8,155.2c-1,0-2.1-.2-3-.7-.8-.4-1.6-1-2.1-1.8-1.4-2-.9-4.7,1-6,1.4-1,3.1-1.6,4.8-1.8l4.2-.6v-.6c0-.7-.2-1.4-.6-1.9-.5-.5-1.3-.7-2-.7-.6,0-1.2.1-1.7.4-.4.3-.8.6-1,1.1-.1.3-.4.4-.7.4h-3c-.2,0-.4,0-.5-.2-.1-.1-.2-.3-.2-.5,0-.5.2-.9.4-1.3.3-.6.8-1,1.3-1.4.7-.5,1.4-.9,2.2-1.2,1.1-.3,2.2-.5,3.3-.5,1.2,0,2.3.1,3.4.5.9.3,1.6.7,2.3,1.3.6.6,1,1.2,1.3,2,.3.8.4,1.6.4,2.4v9.8c0,.4-.3.8-.7.8,0,0,0,0,0,0h-3.1c-.2,0-.4,0-.5-.2-.1-.2-.2-.4-.2-.6v-1.2c-.3.4-.7.8-1.1,1.1-.5.4-1.1.7-1.7.8-.7.2-1.5.3-2.3.3h0ZM97.1,151.9c.7,0,1.3-.1,1.9-.4.6-.3,1-.8,1.3-1.4.3-.7.5-1.5.5-2.3v-.5l-3,.5c-.9,0-1.7.4-2.5.9-.5.3-.8.8-.8,1.4,0,.4.1.8.4,1.1.3.3.6.5,1,.7.4.1.8.2,1.3.2h0ZM110.2,154.9c-.2,0-.4,0-.5-.2-.1-.2-.2-.4-.2-.6v-15c0-.2,0-.4.2-.6.1-.1.3-.2.5-.2h3c.2,0,.4,0,.6.2.2.1.2.4.2.6v1.1c.5-.6,1.1-1.2,1.8-1.5.8-.4,1.8-.7,2.7-.7,2.1-.2,4.1.9,5.1,2.8.5-.9,1.2-1.6,2.1-2,.9-.5,2-.8,3-.8,1,0,2.1.2,3,.7.9.5,1.7,1.3,2.1,2.3.6,1.2.8,2.6.8,4v9.1c0,.2,0,.4-.2.6-.1.1-.3.2-.5.2h-3.2c-.2,0-.4,0-.5-.2-.1-.2-.2-.4-.2-.6v-8.8c0-.7,0-1.4-.4-2.1-.2-.5-.6-.8-1-1.1-.4-.2-.9-.3-1.4-.3-.4,0-.9.1-1.3.3-.4.2-.8.6-1,1.1-.3.6-.4,1.3-.4,2.1v8.8c0,.4-.3.8-.7.8,0,0,0,0,0,0h-3.1c-.4,0-.8-.3-.8-.7,0,0,0,0,0,0v-8.8c0-.7,0-1.4-.4-2.1-.2-.5-.6-.8-1-1.1-.4-.2-.9-.3-1.4-.3-.5,0-.9.1-1.3.3-.4.2-.8.6-1,1.1-.3.6-.4,1.3-.4,2v8.8c0,.2,0,.4-.2.6-.1.1-.3.2-.5.2h-3.2ZM145.7,155.2c-2.1.1-4.2-.6-5.8-2-1.5-1.6-2.3-3.7-2.3-5.9v-1.4c0-1.5.4-2.9,1.1-4.2.6-1.2,1.6-2.1,2.8-2.7,1.3-.7,2.7-1,4.2-.9,1.6,0,3.1.3,4.5,1.1,1.2.7,2.1,1.7,2.7,3,.6,1.4.9,2.8.9,4.3v.7c0,.2,0,.4-.2.5-.1.1-.3.2-.6.2h-10.4v.3c0,.6.1,1.3.4,1.9.2.5.6,1,1.1,1.4.5.3,1.1.5,1.6.5.4,0,.9,0,1.3-.2.3-.1.6-.3.8-.5.2-.2.3-.3.5-.5.1-.2.3-.3.5-.4.2,0,.4,0,.6,0h3.3c.2,0,.4,0,.5.2.1.1.2.3.2.5,0,.5-.2.9-.5,1.3-.4.6-.9,1.1-1.4,1.5-.7.5-1.5.9-2.4,1.2-1.1.3-2.2.5-3.3.5ZM142.6,145h6.2c0-.7-.1-1.4-.4-2.1-.2-.5-.6-1-1.1-1.3-1-.6-2.3-.6-3.4,0-.5.3-.8.8-1.1,1.3-.3.6-.4,1.3-.4,2h0ZM157.7,154.9c-.2,0-.4,0-.5-.2-.1-.2-.2-.4-.2-.6v-15c0-.2,0-.4.2-.6.1-.2.3-.2.5-.2h3.1c.4,0,.8.4.8.8v1.3c.5-.7,1.2-1.2,2-1.5.8-.4,1.8-.6,2.7-.5h1.4c.2,0,.4,0,.5.2.1.2.2.4.2.6v2.7c0,.2,0,.4-.2.6-.1.1-.3.2-.5.2h-2.8c-.8,0-1.6.2-2.2.8-.6.6-.8,1.4-.8,2.2v8.4c0,.4-.3.8-.7.8,0,0,0,0,0,0h-3.3ZM171.6,154.9c-.2,0-.4,0-.5-.2-.1-.2-.2-.4-.2-.6v-15c0-.2,0-.4.2-.6.1-.1.3-.2.5-.2h3.2c.4,0,.8.3.8.7,0,0,0,0,0,0v15c0,.4-.3.8-.7.8,0,0,0,0,0,0h-3.2ZM171.5,135.8c-.2,0-.4,0-.5-.2-.2-.2-.2-.4-.2-.6v-2.5c0-.2,0-.4.2-.6.1-.2.3-.2.5-.2h3.3c.5,0,.8.4.8.8h0v2.6c0,.2,0,.4-.2.6-.2.1-.4.2-.6.2h-3.3ZM187,155.2c-1.4,0-2.8-.3-4.1-.9-1.1-.5-2.1-1.4-2.8-2.5-.7-1.2-1.1-2.5-1.1-3.9,0-.3,0-.8,0-1.3s0-1,0-1.3c0-1.4.4-2.8,1.1-4,.7-1.1,1.6-2,2.8-2.5,1.3-.6,2.7-.9,4.1-.9,1.2,0,2.5.2,3.6.6.9.3,1.7.8,2.5,1.5.6.5,1.1,1.2,1.4,1.9.3.5.4,1.1.5,1.7,0,.2,0,.4-.2.6-.1.2-.3.2-.6.2h-3.4c-.2,0-.4,0-.5-.2-.1-.1-.2-.3-.3-.5-.2-.6-.6-1.2-1.1-1.6-.5-.3-1.1-.5-1.8-.5-.9,0-1.7.3-2.3.9-.6.8-.9,1.8-.9,2.9,0,.8,0,1.6,0,2.3,0,1,.3,2,.9,2.9.6.6,1.4.9,2.2.9.6,0,1.3-.1,1.8-.5.5-.4.9-1,1.1-1.6,0-.2.2-.4.3-.5.1-.1.3-.2.5-.2h3.4c.2,0,.4,0,.6.2.2.1.2.3.2.6,0,.4-.1.9-.3,1.3-.2.5-.5,1-.9,1.5-.4.5-.9,1-1.5,1.4-.7.5-1.4.8-2.2,1.1-1,.3-2,.4-3.1.4ZM203,155.2c-1,0-2.1-.2-3-.7-.8-.4-1.6-1-2.1-1.8-1.4-2-.9-4.7,1-6,1.4-1,3.1-1.6,4.8-1.8l4.2-.6v-.6c0-.7-.2-1.4-.6-1.9-.5-.5-1.3-.7-2-.7-.6,0-1.2.1-1.7.4-.4.3-.8.6-1,1.1-.1.3-.4.4-.7.4h-3c-.2,0-.4,0-.5-.2-.1-.1-.2-.3-.2-.5,0-.5.2-.9.4-1.3.3-.6.8-1,1.3-1.4.7-.5,1.4-.9,2.2-1.2,1.1-.3,2.2-.5,3.3-.5,1.2,0,2.3.1,3.4.5.9.3,1.6.7,2.3,1.3.6.6,1,1.2,1.3,2,.3.8.4,1.6.4,2.4v9.8c0,.4-.3.8-.7.8,0,0,0,0,0,0h-3.1c-.2,0-.4,0-.5-.2-.2-.2-.2-.4-.2-.6v-1.2c-.3.4-.7.8-1.1,1.1-.5.4-1.1.7-1.7.8-.7.2-1.5.3-2.3.3ZM204.3,151.9c.7,0,1.3-.1,1.9-.4.6-.3,1-.8,1.3-1.4.3-.7.5-1.5.5-2.3v-.5l-3,.5c-.9,0-1.7.4-2.5.9-.5.3-.8.8-.8,1.4,0,.4.1.8.4,1.1.3.3.6.5,1,.7.4.1.8.2,1.3.2Z"/>
  <path class="st1" d="M710.3,376.4c-.8-1.1-2.1-1.7-3.5-1.7-.4,0-.8,0-1.2.2-.4.1-.7.3-1,.6-.3.3-.6.7-.7,1.1-.2.5-.3,1-.3,1.6,0,.9.3,1.8,1,2.5.8.7,1.6,1.2,2.5,1.7.6.3,1.2.7,1.9,1.1.6.4,1.2.9,1.7,1.4,1.2,1.3,1.8,3,1.8,4.8,0,1.1-.2,2.2-.6,3.3-.4.9-.9,1.7-1.6,2.4-.6.6-1.4,1.1-2.3,1.5-.9.3-1.8.5-2.8.5-1.3,0-2.6-.3-3.9-.8-1.1-.5-2-1.2-2.8-2.1l2.3-3.1c.5.7,1.2,1.2,2,1.6.7.4,1.5.6,2.4.6.8,0,1.6-.3,2.2-.9.6-.7.9-1.6.9-2.6,0-1-.3-1.9-1.1-2.6-.8-.7-1.7-1.3-2.7-1.8-.7-.3-1.3-.7-1.9-1.1-.6-.4-1.1-.9-1.6-1.4-.5-.6-.8-1.2-1.1-1.9-.3-.9-.4-1.8-.4-2.7,0-1.1.2-2.3.6-3.3.4-.9.9-1.7,1.6-2.3.7-.6,1.4-1.1,2.3-1.4.8-.3,1.7-.4,2.6-.4,1.2,0,2.3.2,3.4.6,1,.4,1.8,1,2.5,1.8l-2.3,3ZM720,381.6v9.3c0,.7,0,1.5.4,2.2.3.5.8.7,1.4.7.2,0,.4,0,.7,0,.2,0,.4-.1.6-.2v3.1c-.3.2-.7.3-1.1.4-.5,0-.9.1-1.4.1-1.3.1-2.5-.4-3.3-1.4-.7-1.2-1.1-2.5-1-3.9v-10.2h-2.3v-3.1h2.3v-4.6h3.7v4.6h3.1v3.1h-3.1ZM728.9,388.6c0,.7,0,1.3.2,2,.1.6.3,1.1.6,1.6.2.4.6.8,1,1.1.4.3.9.4,1.4.4.7,0,1.3-.2,1.8-.7.4-.5.8-1,1-1.6l2.9,1.7c-.5,1.2-1.2,2.2-2.2,3-1.1.8-2.3,1.2-3.7,1.1-2,0-3.9-.9-5.1-2.5-1.4-2.1-2.1-4.6-1.9-7.1,0-1.3.2-2.7.5-3.9.3-1.1.8-2.1,1.4-3.1.6-.8,1.3-1.5,2.2-2,1.8-.9,4-.9,5.8,0,.8.5,1.5,1.1,2,1.9.5.9.9,1.9,1.1,2.9.2,1.2.4,2.4.4,3.6v1.5h-9.4ZM734.4,385.7c0-1.1-.2-2.2-.6-3.3-.3-.8-1.1-1.3-2-1.3-.5,0-1,.2-1.3.5-.4.3-.7.7-.9,1.1-.4.9-.7,1.9-.7,2.9h5.5ZM755.6,387.5c0,1.3-.1,2.6-.4,3.8-.2,1.1-.6,2.1-1.1,3.1-.4.8-1.1,1.5-1.8,2-.7.5-1.6.7-2.5.7-.9,0-1.8-.3-2.6-.9-.7-.6-1.1-1.3-1.4-2.1h0v10.9h-3.9v-26.5h3.9v2.5h0c.3-.8.7-1.6,1.4-2.2.7-.6,1.7-1,2.7-.9.9,0,1.8.2,2.5.7.8.5,1.4,1.2,1.8,2,.5,1,.9,2,1.1,3,.3,1.3.4,2.5.4,3.8ZM751.6,387.5c0-.8,0-1.6-.2-2.4,0-.7-.3-1.3-.5-1.9-.2-.5-.5-.9-.9-1.3-.4-.3-.9-.5-1.3-.5-.5,0-.9.2-1.3.5-.4.4-.7.8-.9,1.3-.3.6-.5,1.3-.6,1.9-.3,1.6-.3,3.2,0,4.8.1.7.3,1.3.6,2,.2.5.5.9.9,1.3.4.3.8.5,1.3.5.5,0,1-.2,1.3-.5.4-.4.7-.8.9-1.3.3-.6.4-1.3.5-2,.1-.8.2-1.6.2-2.4ZM768.5,396.6v-11.3c0-.5,0-.9,0-1.4,0-.4-.1-.9-.3-1.3-.1-.4-.4-.7-.7-.9-.3-.2-.7-.4-1.1-.3-.9,0-1.7.5-2.1,1.3-.6,1-.8,2.2-.8,3.4v10.4h-4v-26.7h4v11.5h0c.3-.9.8-1.7,1.6-2.4.8-.7,1.8-1,2.8-1,.8,0,1.7.2,2.4.6.6.4,1.1,1,1.4,1.7.3.7.6,1.5.7,2.4.1.9.2,1.8.2,2.7v11.3h-4ZM780,388.6c0,.7,0,1.3.2,2,.1.6.3,1.1.6,1.6.2.4.6.8,1,1.1.4.3.9.4,1.4.4.7,0,1.3-.2,1.8-.7.4-.5.8-1,1-1.6l2.9,1.7c-.5,1.2-1.2,2.2-2.2,3-1.1.8-2.3,1.2-3.7,1.1-2,0-3.9-.9-5.1-2.5-1.4-2.1-2.1-4.6-1.9-7.1,0-1.3.2-2.7.5-3.9.3-1.1.8-2.1,1.4-3.1.6-.8,1.3-1.5,2.2-2,1.8-.9,4-.9,5.8,0,.8.5,1.5,1.1,2,1.9.5.9.9,1.9,1.1,2.9.2,1.2.4,2.4.4,3.6v1.5h-9.4ZM785.6,385.7c0-1.1-.2-2.2-.6-3.3-.3-.8-1.1-1.3-2-1.3-.5,0-1,.2-1.3.5-.4.3-.7.7-.9,1.1-.4.9-.7,1.9-.7,2.9h5.5ZM797,378.5v2.9h0c.3-1,.9-1.8,1.6-2.5,1.7-1.6,4.3-1.5,5.9.2.3.3.5.7.7,1.1.3.7.6,1.5.7,2.4.1.9.2,1.8.2,2.7v11.3h-4v-11.3c0-.5,0-.9,0-1.4,0-.4-.1-.9-.3-1.3-.1-.4-.4-.7-.7-.9-.3-.2-.7-.4-1.1-.3-.9,0-1.7.5-2.1,1.3-.6,1-.8,2.2-.8,3.4v10.4h-4v-18h3.9ZM818.6,382.6c-.3-.4-.8-.8-1.2-1.1-.5-.3-1.1-.4-1.7-.4-.6,0-1.1.2-1.5.6-.4.4-.6,1-.6,1.7,0,.6.2,1.2.6,1.5.6.4,1.3.7,2,1,.5.2,1,.4,1.5.7.5.3,1,.6,1.4,1,.4.4.8,1,1,1.5.3.7.4,1.4.4,2.1,0,.9-.1,1.8-.5,2.6-.3.7-.7,1.3-1.3,1.9-.5.5-1.2.9-1.9,1.1-.7.2-1.4.4-2.2.4-2.2,0-4.2-.9-5.7-2.5l2.2-2.5c.4.5.9.9,1.5,1.3.6.4,1.3.5,2,.5.6,0,1.2-.2,1.6-.7.4-.5.6-1.1.6-1.8,0-.7-.3-1.4-.8-1.8-.7-.4-1.4-.8-2.2-1.1-.5-.2-.9-.4-1.4-.6-.5-.2-.9-.6-1.2-1-.4-.4-.7-.9-.9-1.5-.2-.7-.4-1.4-.3-2.1,0-.8.1-1.6.5-2.3.3-.7.7-1.3,1.3-1.8.5-.5,1.1-.9,1.8-1.1.7-.2,1.4-.4,2.1-.4,1,0,2,.2,2.9.6.8.4,1.6.9,2.2,1.5l-2.1,2.6ZM832.7,400.9h-3.1l2.1-9.5h3.8l-2.7,9.5ZM845.5,396.6v-25h4.2v25h-4.2ZM858.7,378.5v2.9h0c.3-1,.9-1.8,1.6-2.5,1.7-1.6,4.3-1.5,5.9.2.3.3.5.7.7,1.1.3.7.6,1.5.7,2.4.1.9.2,1.8.2,2.7v11.3h-4v-11.3c0-.5,0-.9,0-1.4,0-.4-.1-.9-.3-1.3-.1-.4-.4-.7-.7-.9-.3-.2-.7-.4-1.1-.3-.9,0-1.7.5-2.1,1.3-.6,1-.8,2.2-.8,3.4v10.4h-4v-18h3.9ZM882.5,395.5c-.5.5-1.1.9-1.8,1.2-.8.3-1.6.5-2.4.4-1,0-2-.2-2.9-.7-.9-.5-1.6-1.2-2.1-2-.6-.9-1-2-1.3-3.1-.3-1.3-.4-2.6-.4-3.9,0-1.3.1-2.6.4-3.9.3-1.1.7-2.1,1.3-3,.5-.8,1.3-1.5,2.1-2,.9-.5,1.9-.7,2.9-.7.9,0,1.7.1,2.5.5.6.3,1.2.6,1.7,1.1l-1.8,3c-.3-.3-.6-.5-.9-.7-.4-.2-.8-.3-1.3-.3-1,0-1.9.7-2.2,1.7-.6,1.4-.8,2.9-.8,4.3,0,1.5.2,3,.8,4.3.4,1,1.3,1.6,2.4,1.6.4,0,.9,0,1.3-.3.4-.2.7-.5.9-.8l1.7,3.1Z"/>
  <path class="st3" d="M270.5,386.9c2.4,0,4.8.8,6.8,2.1,1.3,1,2.1,2.5,2.2,4.2,0,2-.9,4-2.6,5.1-2.2,1.3-4.7,1.9-7.2,1.8-.7,0-1.3,0-1.7,0-1.6,0-3.1,0-4.6,0-2.4,0-4.2,0-5.4.1v-.7c.6,0,1.2-.1,1.7-.3.4-.1.6-.4.7-.8.2-.6.2-1.3.2-1.9v-17.5c0-.7,0-1.3-.2-1.9-.1-.4-.4-.7-.7-.8-.6-.2-1.1-.3-1.7-.3v-.7c1.2,0,3,.1,5.4.1h3.9c.5,0,1,0,1.6,0,2.3-.1,4.5.4,6.5,1.5,1.4.9,2.3,2.4,2.2,4,0,1.5-.7,2.8-1.8,3.8-1.5,1.3-3.3,2.2-5.3,2.4h0ZM268.4,375.8c-.5,0-1,0-1.4.2-.3.2-.5.5-.6.9-.1.6-.2,1.3-.2,1.9v8h1.5c1.3.1,2.5-.5,3.2-1.6.7-1.3,1-2.7.9-4.2,0-1.4-.2-2.7-.8-4-.6-.9-1.6-1.4-2.6-1.3ZM268.6,399.3c3.3,0,4.9-2.1,4.9-6.2.1-1.5-.4-3.1-1.4-4.2-1.2-1.1-2.8-1.6-4.5-1.5h-1.5v8.9c0,.6,0,1.3.2,1.9,0,.4.3.7.7.8.5.2,1,.3,1.6.2ZM288.3,396.8c0,.7.1,1.4.5,2,.5.4,1.1.6,1.8.5v.7c-2.5,0-4-.1-4.7-.1s-2.4,0-4.9.1v-.7c.6,0,1.3-.1,1.8-.5.4-.6.6-1.3.5-2v-20.2c0-.8-.1-1.6-.5-2.4-.4-.5-1.1-.8-1.8-.7v-.7c.8,0,1.5.1,2.2.1,1.7,0,3.5-.1,5.2-.5v24.4ZM296.8,400.3c-1.2,0-2.5-.3-3.4-1.2-.8-.8-1.2-1.9-1.1-3.1,0-.9.3-1.9.8-2.6.5-.7,1.2-1.2,2-1.6,1-.5,2-.9,3-1.2,1-.3,1.9-.7,2.8-1.2.6-.3.9-.9.9-1.5v-2.8c0-.8-.2-1.7-.7-2.3-.5-.6-1.3-.9-2.1-.8-.9,0-1.9.2-2.6.8.6.2,1.1.6,1.5,1.1.4.5.6,1.1.5,1.7,0,.7-.3,1.4-.8,1.9-.5.5-1.3.7-2,.7-.7,0-1.4-.2-1.9-.8-.8-1-.9-2.5-.2-3.6.4-.5.9-1,1.5-1.3.7-.4,1.5-.7,2.4-.9,1-.2,2-.3,3.1-.3,1,0,2,.1,3,.4.8.2,1.5.6,2.1,1.2.5.5.9,1.2,1,1.9.2,1,.3,2,.3,3.1v9.6c0,.4,0,.8.2,1.2.1.2.4.4.6.4.5,0,.9-.3,1.3-.6l.4.6c-1.1.9-2.5,1.3-3.9,1.3-1,.1-1.9-.2-2.7-.8-.5-.6-.8-1.3-.8-2.1-1.1,1.8-3.1,3-5.2,2.9ZM299.5,398.1c1,0,1.9-.6,2.4-1.5v-7.3c-.5.6-1.1,1.2-1.8,1.6-.8.5-1.5,1.1-2.1,1.8-.5.7-.8,1.6-.7,2.5,0,.8.2,1.5.6,2.1.4.5,1,.7,1.6.7ZM319.6,381.3c.8,0,1.7,0,2.5.3.7.2,1.3.4,1.9.8.6.4,1.1.8,1.4,1.4.3.6.5,1.2.5,1.9,0,.8-.3,1.5-.8,2-.5.5-1.3.8-2,.8-.7,0-1.4-.2-2-.7-.5-.5-.8-1.2-.7-1.9,0-.7.2-1.3.7-1.8.4-.5,1-.9,1.7-1.1-.2-.3-.5-.5-.9-.6-.4-.2-.8-.2-1.3-.2-1.5,0-2.8.9-3.3,2.3-.9,1.9-1.3,4-1.2,6.1,0,2.5.4,4.3,1.3,5.4.8,1.1,2,1.7,3.4,1.7.8,0,1.7-.2,2.4-.6.9-.5,1.7-1.3,2.2-2.2l.6.2c-.5,1.5-1.3,2.9-2.5,3.9-1.2,1.1-2.9,1.7-4.6,1.6-2.2,0-4.4-.8-5.9-2.4-1.5-1.6-2.3-4-2.3-7.1,0-1.8.3-3.7,1.1-5.3.7-1.4,1.8-2.5,3.1-3.3,1.4-.8,2.9-1.1,4.5-1.1ZM345.9,397.5c.3.4.6.9.9,1.3.2.3.6.5.9.6v.7c-1.9,0-3.1-.1-3.7-.1s-2.3,0-4.6.1v-.7c.3,0,.5,0,.8-.2.2-.1.3-.3.3-.5,0-.2,0-.4-.2-.5l-3.5-6.3c-.2-.3-.4-.6-.7-.8-.3-.2-.6-.3-1-.3v6.1c0,.7,0,1.4.5,2,.4.4,1.1.6,1.7.5v.7c-2.4,0-3.9-.1-4.6-.1s-2.4,0-4.9.1v-.7c.6,0,1.3-.1,1.8-.5.4-.6.6-1.3.5-2v-20.2c0-.8-.1-1.6-.5-2.4-.4-.5-1.1-.8-1.8-.7v-.7c.8,0,1.5.1,2.2.1,1.7,0,3.5-.1,5.2-.5v17.6c.4,0,.8-.1,1.2-.3.3-.1.7-.4.9-.6l2.7-2.6c.7-.5,1.1-1.3,1.2-2.2,0-.5-.3-1-.7-1.3-.6-.3-1.3-.5-2-.5v-.7c1.3,0,2.7.1,4.1.1s3.3,0,4.1-.1v.7c-1.7.5-3.2,1.4-4.4,2.7l-2.3,2.3,5.9,9.9ZM355.7,381.3c.8,0,1.7.1,2.5.3.6.2,1.2.4,1.7.8.2.1.4.2.6.2.2,0,.4-.1.5-.3.2-.3.3-.6.3-1h.7c0,1.2-.1,3.3-.1,6.2h-.7c-.2-1.4-.6-2.7-1.4-3.9-.7-1-1.9-1.6-3.1-1.6-.6,0-1.3.2-1.8.6-.5.4-.7,1-.7,1.7,0,.8.3,1.5.8,2.1.8.8,1.6,1.5,2.5,2.1l1,.7c1.2.8,2.2,1.8,3.2,2.9.7.9,1.1,2,1,3.2,0,1-.3,2-.9,2.8-.6.8-1.5,1.5-2.4,1.8-1.1.4-2.2.7-3.4.6-1.2,0-2.3-.2-3.3-.7-.5-.3-1.1-.5-1.6-.7-.2,0-.5,0-.6.2-.2.3-.3.6-.4,1h-.7c0-1.3.1-3.7.1-7.1h.7c.5,4.3,2.1,6.5,4.8,6.5.6,0,1.3-.2,1.8-.6.5-.5.8-1.2.7-1.9,0-.6-.1-1.2-.4-1.8-.3-.5-.7-1-1.1-1.4-.4-.4-1.1-1-2-1.7-1.1-.8-1.9-1.5-2.4-2.1-.6-.5-1-1.2-1.4-1.8-.4-.7-.6-1.5-.6-2.4,0-1.4.6-2.8,1.8-3.6,1.3-.9,2.8-1.4,4.3-1.3ZM372.2,381.8h4.2v.7h-4.2v14.3c0,.5,0,1.1.4,1.5.3.3.7.5,1.2.4,1,0,1.8-.7,2.4-2.1l.6.3c-.6,2.2-2.6,3.7-4.8,3.6-1.3,0-2.6-.3-3.5-1.2-.5-.5-.9-1.2-1-1.9-.2-1-.3-2-.3-3.1v-11.9h-3v-.7h3v-4.7c1.8,0,3.5-.3,5.1-1.1v5.8ZM386.4,381.3c2.3-.1,4.7.7,6.4,2.3,1.5,1.5,2.3,4,2.3,7.3s-.8,5.8-2.3,7.3c-3.7,3.1-9,3.1-12.7,0-1.5-1.5-2.3-4-2.3-7.3s.8-5.8,2.3-7.3c1.7-1.6,4-2.4,6.3-2.3ZM386.4,382c-1,0-1.8.7-2.4,2.2-.7,2.2-1,4.5-.9,6.7-.1,2.3.2,4.6.9,6.7.6,1.5,1.4,2.2,2.4,2.2s1.9-.7,2.4-2.2c.7-2.2,1-4.5.9-6.7.1-2.3-.2-4.6-.9-6.8-.6-1.5-1.4-2.2-2.4-2.2ZM410.4,381.3c1.4-.1,2.9.4,3.9,1.4.4.5.7,1.1.8,1.7.2.9.3,1.9.2,2.9v9.5c0,.7.1,1.4.5,2,.5.4,1.1.6,1.8.5v.7c-2.4,0-3.9-.1-4.7-.1s-2.2,0-4.6.1v-.7c.6,0,1.1-.1,1.5-.5.3-.6.5-1.3.4-2v-11c0-.8-.1-1.5-.5-2.2-.4-.5-1.1-.8-1.7-.7-1,0-1.9.4-2.5,1.2-.7.8-1.1,1.9-1,2.9v9.8c0,.7,0,1.4.4,2,.4.4.9.6,1.5.5v.7c-2.2,0-3.6-.1-4.4-.1s-2.3,0-4.9.1v-.7c.6,0,1.3-.1,1.8-.5.4-.6.6-1.3.5-2v-11.1c0-.8-.1-1.6-.5-2.4-.4-.5-1.1-.8-1.8-.7v-.7c.8,0,1.5.1,2.2.1,1.7,0,3.5-.1,5.2-.5v3.2c1.1-2.2,3.4-3.5,5.8-3.3ZM429.4,397.7c2,0,3.8-1.1,4.7-2.8l.6.2c-.5,1.5-1.3,2.9-2.5,3.9-1.3,1.1-2.9,1.7-4.5,1.6-2.2.1-4.4-.8-6-2.4-1.5-1.6-2.2-3.9-2.2-7.1-.2-2.6.7-5.3,2.4-7.3,1.6-1.7,3.9-2.6,6.3-2.5,4.4,0,6.6,2.6,6.6,7.9h-9.9c0,.4,0,.9,0,1.7,0,1.3.2,2.7.7,3.9.3.9.9,1.7,1.7,2.3.7.5,1.4.7,2.2.7ZM427.9,382.1c-.9,0-1.8.7-2.1,1.6-.7,1.5-1,3.2-1,4.9h5.6c0-1.6-.1-3.1-.5-4.6-.4-1.2-1-1.8-1.9-1.8Z"/>
  <path class="st2" d="M587.2,205.2v25.1h-4.8v-10.7h-11.4v10.7h-4.9v-25.1h4.9v10.2h11.4v-10.2h4.8ZM607.4,211.8c-.3-.3-.6-.5-.9-.7-.5-.3-1-.6-1.6-.8-.7-.3-1.3-.5-2-.7-.7-.2-1.5-.3-2.2-.3-1.1,0-2.1.2-3,.7-.7.5-1,1.3-1,2.1,0,.5.1.9.4,1.3.3.4.7.7,1.1.9.6.3,1.2.5,1.8.7.7.2,1.6.4,2.5.7,1.2.3,2.3.7,3.3,1.1.9.3,1.8.8,2.5,1.4.7.5,1.2,1.2,1.6,2,.4.9.6,1.9.6,2.9,0,1.2-.2,2.4-.8,3.4-.5.9-1.2,1.7-2,2.3-.9.6-1.9,1.1-3,1.3-1.2.3-2.3.4-3.5.4-1.9,0-3.8-.3-5.6-.8-1.8-.5-3.4-1.3-5-2.4l2.2-4.2c.4.3.7.6,1.1.8.6.4,1.3.7,2,1,.8.4,1.7.7,2.5.9.9.2,1.9.4,2.8.4,2.7,0,4-.9,4-2.6,0-.5-.1-1-.5-1.4-.4-.4-.8-.8-1.3-1-.7-.3-1.3-.6-2.1-.8-.8-.2-1.7-.5-2.7-.8-1.1-.3-2.1-.6-3.1-1.1-.8-.3-1.6-.8-2.2-1.4-.6-.5-1-1.1-1.3-1.8-.3-.8-.5-1.6-.4-2.5,0-1.2.2-2.3.7-3.4.5-1,1.1-1.8,2-2.5.9-.7,1.9-1.2,2.9-1.5,1.2-.3,2.4-.5,3.6-.5,1.7,0,3.3.3,4.9.8,1.4.5,2.7,1.2,3.9,2l-2.2,4ZM634.3,223.8c0,1.9-.8,3.7-2.4,4.8-.8.6-1.7,1-2.6,1.2-1,.3-2.1.4-3.1.4h-12.1v-25.1h13.4c.8,0,1.6.2,2.4.6.7.4,1.3.9,1.8,1.5.5.6.9,1.3,1.1,2.1.7,1.9.5,4-.5,5.8-.6,1.1-1.6,1.9-2.7,2.4,1.4.4,2.6,1.2,3.4,2.3.9,1.2,1.3,2.6,1.2,4.1ZM629.4,222.9c0-.4,0-.9-.2-1.3-.1-.4-.4-.8-.6-1.1-.3-.3-.6-.5-.9-.7-.4-.2-.8-.3-1.2-.3h-7.5v6.6h7.3c.4,0,.9,0,1.3-.2.4-.2.7-.4,1-.7.6-.6.9-1.5.9-2.3ZM619,209.4v6.3h6.5c.8,0,1.5-.3,2.1-.8.6-.6.9-1.5.9-2.3,0-.8-.2-1.7-.8-2.3-.5-.6-1.2-.9-2-.8h-6.7ZM636.6,217.6c0-1.6.3-3.1.8-4.5,1.1-3,3.4-5.5,6.3-6.9,1.6-.8,3.4-1.1,5.2-1.1,2.1,0,4.2.5,6,1.5,1.6.9,2.9,2.3,3.8,4l-3.7,2.6c-.3-.7-.7-1.3-1.2-1.8-.4-.5-1-.9-1.5-1.1-.5-.3-1.1-.5-1.7-.6-.6-.1-1.1-.2-1.7-.2-1.1,0-2.2.2-3.2.7-.9.5-1.7,1.1-2.3,1.9-.6.8-1.1,1.7-1.4,2.7-.3,1-.5,2-.5,3,0,1.1.2,2.2.5,3.2.3,1,.8,1.9,1.5,2.7.6.8,1.4,1.4,2.3,1.9.9.5,2,.7,3,.7.6,0,1.2,0,1.8-.2.6-.1,1.2-.4,1.8-.7.6-.3,1.1-.7,1.5-1.2.5-.5.9-1.1,1.1-1.8l4,2.3c-.4.9-1,1.8-1.7,2.5-.7.7-1.6,1.3-2.5,1.8-.9.5-1.9.9-3,1.1-1,.3-2.1.4-3.1.4-1.7,0-3.4-.4-4.9-1.1-1.5-.7-2.8-1.7-3.8-2.9-1.1-1.2-1.9-2.6-2.5-4.1-.6-1.5-.9-3.1-.9-4.7Z"/>
  <path class="st2" d="M97.2,278.2v13.4h-4.1v-20.9h3.2l10.9,13.7v-13.7h4.1v20.9h-3.3l-10.8-13.4ZM122.2,291.9c-1.2,0-2.3-.2-3.4-.6-1-.4-1.8-1-2.5-1.8-.7-.7-1.2-1.6-1.6-2.6-.7-2-.7-4.1,0-6.1.4-.9.9-1.8,1.6-2.5.7-.8,1.6-1.3,2.5-1.8,1.1-.4,2.2-.7,3.4-.6,1.2,0,2.3.2,3.4.6,1,.4,1.8,1,2.5,1.8.7.7,1.2,1.6,1.6,2.5.7,2,.7,4.1,0,6.1-.4.9-.9,1.8-1.6,2.6-.7.8-1.6,1.4-2.5,1.8-1.1.4-2.2.7-3.4.6ZM118.1,283.9c0,.6,0,1.3.3,1.9.2.5.5,1,.9,1.5.4.4.8.7,1.3,1,1,.5,2.2.5,3.2,0,.5-.2.9-.6,1.3-1,.4-.4.7-.9.9-1.5.2-.6.3-1.2.3-1.9,0-.6,0-1.3-.3-1.9-.2-.5-.5-1-.9-1.5-.4-.4-.8-.7-1.3-1-.5-.2-1-.3-1.6-.3-.5,0-1.1.1-1.6.4-.5.2-.9.6-1.3,1-.4.4-.7.9-.9,1.5-.2.6-.3,1.2-.3,1.9ZM142.1,279.6c-1.1,0-2.2.2-3.2.7-.9.4-1.6,1.1-2,2v9.3h-3.9v-15.4h3.6v3.3c.3-.5.6-1,1-1.4.4-.4.8-.8,1.2-1.1.4-.3.8-.5,1.3-.7.4-.2.8-.2,1.3-.3h.5c.1,0,.2,0,.3,0v3.6ZM153.5,290.8c-.6.3-1.3.5-1.9.7-.8.2-1.6.4-2.4.4-.5,0-1,0-1.5-.2-.5-.1-.9-.4-1.3-.7-.4-.3-.7-.7-.9-1.2-.2-.6-.3-1.2-.3-1.8v-8.9h-2v-3h2v-5h3.9v5h3.2v3h-3.2v7.5c0,.4.1.9.4,1.2.3.2.7.4,1,.3.4,0,.8,0,1.2-.2.4-.1.7-.3.9-.4l.8,3.1ZM170,291.6h-3.9v-8.7c0-.9-.2-1.9-.7-2.7-.5-.6-1.2-.9-1.9-.9-.4,0-.8,0-1.1.2-.4.2-.8.4-1.1.7-.4.3-.7.6-1,1-.3.4-.5.8-.6,1.3v9h-3.9v-21.5h3.9v8.9c.5-1,1.3-1.8,2.3-2.3,1-.5,2.1-.8,3.2-.8.8,0,1.7.1,2.4.5.6.3,1.1.8,1.5,1.4.4.6.6,1.3.7,1.9.1.7.2,1.5.2,2.2v9.6ZM182.2,291.9c-1.1,0-2.2-.3-3.2-.8-.9-.5-1.7-1.3-2.2-2.2v2.7h-3.4v-21.5h3.9v8.8c.5-.9,1.3-1.7,2.2-2.2,1-.5,2-.8,3.1-.8,1,0,1.9.2,2.7.6.8.4,1.5,1,2.1,1.7.6.8,1.1,1.6,1.4,2.6.3,1,.5,2,.5,3.1,0,1.1-.2,2.1-.5,3.1-.3.9-.9,1.8-1.5,2.5-.6.7-1.4,1.3-2.3,1.7-.9.4-1.9.6-2.9.6ZM181.1,288.6c.6,0,1.2-.1,1.7-.4.5-.2,1-.6,1.4-1,.4-.4.7-.9.9-1.4.2-.6.3-1.2.3-1.8,0-.6,0-1.2-.3-1.8-.2-.5-.5-1.1-.8-1.5-.4-.4-.8-.8-1.3-1-.5-.3-1.1-.4-1.6-.4-.9,0-1.7.3-2.4.9-.7.6-1.2,1.3-1.6,2.1v3.7c.1.4.3.7.6,1.1.3.3.6.6.9.8.3.2.7.4,1.1.5.4.1.8.2,1.1.2ZM201.3,279.6c-1.1,0-2.2.2-3.2.7-.9.4-1.6,1.1-2,2v9.3h-3.9v-15.4h3.6v3.3c.3-.5.6-1,1-1.4.4-.4.8-.8,1.2-1.1.4-.3.8-.5,1.3-.7.4-.2.8-.2,1.3-.3h.5c.1,0,.2,0,.3,0v3.6ZM203.5,291.6v-15.4h3.9v15.4h-3.9ZM203.5,274v-3.9h3.9v3.9h-3.9ZM217.4,291.9c-2,0-3.9-.8-5.3-2.3-.7-.7-1.2-1.6-1.5-2.6-.4-1-.6-2.1-.5-3.1,0-1.1.2-2.1.5-3.1.3-.9.8-1.8,1.4-2.5.6-.7,1.3-1.3,2.2-1.7.9-.4,1.8-.6,2.8-.6,1.1,0,2.1.3,3.1.8.9.5,1.6,1.3,2.1,2.2v-8.8h3.9v17c0,.3,0,.6.2.9.2.2.4.3.7.3v3.4c-.6.1-1.1.2-1.7.2-.6,0-1.2-.2-1.7-.5-.4-.3-.7-.8-.8-1.4v-1c-.6,1-1.4,1.7-2.4,2.2-.9.5-2,.8-3.1.8ZM218.5,288.6c.4,0,.8,0,1.1-.2.4-.1.8-.3,1.1-.5.3-.2.6-.5.9-.8.3-.3.5-.7.6-1v-3.7c-.2-.4-.4-.8-.7-1.2-.3-.4-.6-.7-1-.9-.4-.3-.7-.5-1.1-.6-.4-.2-.8-.2-1.2-.2-.6,0-1.1.1-1.6.4-.5.3-.9.6-1.3,1-.4.5-.6,1-.8,1.5-.2.6-.3,1.2-.3,1.8,0,.6.1,1.2.3,1.8.2.5.5,1,.9,1.4.4.4.8.7,1.3,1,.5.2,1.1.4,1.7.4ZM236.1,291.7c-1,0-1.9-.2-2.8-.6-.8-.4-1.6-1-2.2-1.7-.6-.7-1.1-1.6-1.4-2.5-.7-2-.7-4.1,0-6.1.3-.9.8-1.8,1.5-2.5.6-.7,1.4-1.3,2.3-1.7.9-.4,1.9-.6,2.9-.6,1.1,0,2.2.3,3.2.8.9.5,1.7,1.3,2.2,2.2v-2.7h3.4v14.7c0,1.1-.2,2.1-.6,3.1-.4.9-1,1.7-1.8,2.3-.8.7-1.7,1.1-2.7,1.4-1.1.3-2.3.5-3.4.5-1.5,0-2.9-.2-4.3-.8-1.2-.6-2.2-1.4-3-2.4l2.2-2.1c.6.7,1.4,1.3,2.2,1.7.9.4,1.9.6,2.8.6.6,0,1.2,0,1.8-.2.5-.2,1-.4,1.5-.8.4-.4.8-.8,1-1.4.3-.6.4-1.3.4-1.9v-1.9c-.5.9-1.3,1.6-2.2,2-.9.5-1.9.7-3,.7ZM237.4,288.6c.4,0,.8,0,1.2-.2.8-.3,1.5-.7,2-1.4.2-.3.4-.6.6-1v-3.7c-.3-.9-.9-1.6-1.7-2.2-.7-.5-1.5-.8-2.4-.8-.6,0-1.1.1-1.7.4-.5.3-.9.6-1.3,1.1-.4.5-.6,1-.8,1.5-.2.6-.3,1.2-.3,1.8,0,.6.1,1.2.3,1.8.2.5.5,1,.9,1.4.4.4.8.7,1.3,1,.5.2,1.1.4,1.7.4ZM255.9,291.9c-1.2,0-2.3-.2-3.4-.6-1.9-.8-3.4-2.3-4.2-4.3-.4-1-.6-2-.6-3,0-1.1.2-2.1.6-3.1.4-1,.9-1.8,1.6-2.6.7-.8,1.6-1.3,2.6-1.8,1.1-.4,2.2-.7,3.4-.6,1.2,0,2.3.2,3.4.6,1,.4,1.8,1,2.5,1.7.7.7,1.2,1.6,1.6,2.5.4,1,.5,2,.5,3,0,.3,0,.5,0,.7,0,.2,0,.4,0,.6h-11.9c0,.6.2,1.1.4,1.6.4.9,1.2,1.6,2.2,2,.5.2,1,.3,1.5.3.8,0,1.5-.2,2.2-.6.6-.3,1.1-.9,1.4-1.5l3.4.9c-.6,1.2-1.6,2.2-2.7,2.9-1.4.8-2.9,1.2-4.5,1.1ZM259.9,282.6c0-1.1-.5-2.1-1.3-2.8-1.5-1.4-3.9-1.4-5.5,0-.4.3-.7.8-.9,1.2-.2.5-.4,1-.4,1.6h8ZM116.3,327v-20.9h14.1v3.6h-10v5.4h8.3v3.3h-8.3v8.7h-4.1ZM132.8,327v-15.4h3.9v15.4h-3.9ZM132.8,309.4v-3.9h3.9v3.9h-3.9ZM154.7,327h-3.9v-8.7c0-.9-.2-1.9-.6-2.7-.4-.6-1.1-.9-1.8-.9-.4,0-.8,0-1.2.2-.4.2-.8.4-1.2.7-.4.3-.7.6-1,1-.3.4-.5.8-.6,1.3v9h-3.9v-15.4h3.6v2.9c.6-1,1.4-1.8,2.5-2.3,1.1-.6,2.4-.8,3.7-.8.8,0,1.6.1,2.4.5.6.3,1.1.8,1.4,1.4.3.6.6,1.3.7,1.9.1.7.2,1.5.2,2.2v9.6ZM162.3,327.3c-.7,0-1.4-.1-2.1-.4-.6-.2-1.2-.6-1.7-1-.5-.4-.8-1-1.1-1.5-.3-.6-.4-1.3-.4-1.9,0-.7.2-1.4.5-2,.3-.6.8-1.2,1.4-1.6.6-.5,1.3-.8,2.1-1,.9-.3,1.8-.4,2.7-.4.7,0,1.4,0,2,.2.6.1,1.2.3,1.8.5v-.9c0-.9-.3-1.7-.9-2.4-.7-.6-1.6-.9-2.6-.8-.8,0-1.6.1-2.4.4-.9.3-1.7.8-2.4,1.3l-1.2-2.5c1.9-1.3,4.1-2,6.4-2,1.9-.1,3.7.5,5.2,1.6,1.3,1.2,2,3,1.8,4.7v4.8c0,.3,0,.6.2.9.2.2.5.3.7.3v3.4c-.6.1-1.2.2-1.7.2-.6,0-1.2-.1-1.7-.5-.4-.3-.7-.8-.8-1.3v-.9c-.7.9-1.6,1.6-2.6,2.1-1,.5-2.1.7-3.2.7ZM163.5,324.4c.7,0,1.3-.1,1.9-.4.5-.2,1-.5,1.4-.9.4-.2.6-.7.6-1.1v-1.8c-.5-.2-1-.3-1.5-.4-.5-.1-1.1-.2-1.6-.2-.9,0-1.8.2-2.5.7-.6.4-1,1-1,1.8,0,.6.3,1.3.8,1.7.5.4,1.2.7,1.9.7h0ZM189.4,327h-3.9v-8.7c0-.9-.2-1.9-.6-2.7-.4-.6-1.1-.9-1.8-.9-.4,0-.8,0-1.2.2-.4.2-.8.4-1.2.7-.4.3-.7.6-1,1-.3.4-.5.8-.6,1.3v9h-3.9v-15.4h3.6v2.9c.6-1,1.4-1.8,2.5-2.3,1.1-.6,2.4-.8,3.7-.8.8,0,1.6.1,2.4.5.6.3,1.1.8,1.4,1.4.3.6.6,1.3.7,1.9.1.7.2,1.5.2,2.2v9.6ZM191.9,319.3c0-1,.2-2.1.6-3.1.4-.9.9-1.8,1.6-2.5.7-.7,1.6-1.3,2.6-1.7,1.1-.4,2.2-.7,3.4-.6,1.5,0,3,.3,4.3,1.1,1.1.7,2.1,1.7,2.7,2.9l-3.9,1.2c-.3-.5-.8-1-1.3-1.3-.6-.3-1.2-.5-1.8-.5-.5,0-1.1.1-1.6.3-.5.2-.9.5-1.3.9-.4.4-.7.9-.9,1.5-.2.6-.3,1.2-.3,1.9,0,.6.1,1.3.3,1.9.2.5.5,1,.9,1.5.4.4.8.7,1.3,1,.5.2,1,.3,1.6.3.7,0,1.4-.2,2-.5.5-.3,1-.7,1.3-1.3l3.9,1.2c-.6,1.2-1.5,2.2-2.6,2.9-1.3.8-2.9,1.2-4.4,1.1-1.2,0-2.3-.2-3.4-.6-1.9-.8-3.4-2.4-4.2-4.3-.4-1-.6-2-.6-3ZM209.5,327v-15.4h3.9v15.4h-3.9ZM209.5,309.4v-3.9h3.9v3.9h-3.9ZM221.2,327.3c-.7,0-1.4-.1-2.1-.4-.6-.2-1.2-.6-1.7-1-.5-.4-.8-1-1.1-1.5-.3-.6-.4-1.3-.4-1.9,0-.7.2-1.4.5-2,.3-.6.8-1.2,1.4-1.6.6-.5,1.3-.8,2.1-1,.9-.3,1.8-.4,2.7-.4.7,0,1.4,0,2,.2.6.1,1.2.3,1.8.5v-.9c0-.9-.3-1.7-.9-2.4-.7-.6-1.6-.9-2.6-.8-.8,0-1.6.1-2.4.4-.9.3-1.7.8-2.4,1.3l-1.2-2.5c1.9-1.3,4.1-2,6.4-2,1.9-.1,3.7.5,5.2,1.6,1.3,1.2,2,3,1.8,4.7v4.8c0,.3,0,.6.2.9.2.2.5.3.7.3v3.4c-.6.1-1.2.2-1.7.2-.6,0-1.2-.1-1.7-.5-.4-.3-.7-.8-.8-1.3v-.9c-.7.9-1.6,1.6-2.6,2.1-1,.5-2.1.7-3.2.7ZM222.3,324.4c.7,0,1.3-.1,1.9-.4.5-.2,1-.5,1.4-.9.4-.2.6-.7.6-1.1v-1.8c-.5-.2-1-.3-1.5-.4-.5-.1-1.1-.2-1.6-.2-.9,0-1.8.2-2.5.7-.6.4-1,1-1,1.8,0,.6.3,1.3.8,1.7.5.4,1.2.7,1.9.7h0ZM233.9,305.5h3.9v16.6c0,.5.1.9.4,1.3.3.3.7.5,1.2.5.3,0,.5,0,.8-.1.3,0,.5-.2.8-.3l.5,3c-.6.3-1.2.5-1.9.6-.6.1-1.3.2-1.9.2-1.1,0-2.1-.3-2.9-1-.7-.8-1.1-1.8-1-2.8v-17.9Z"/>
  <path class="st3" d="M307.9,233.9h3.7l1.4-7.2h5.8l1.3,7.2h3.8l-6.1-28.7h-3.9l-6.1,28.7ZM313.5,223.8l2.4-12.9,2.4,12.9h-4.8ZM326.6,233.9h3.8v-14.9c.5-1.2,1.7-2,3-2,.7,0,1.4.2,2.1.4v-4.2c-.2,0-.4,0-.6,0-1.5,0-3,.7-4.5,3.1v-2.9h-3.8v20.4ZM340.5,233.9h4.6l3.9-20.4h-3.7l-2.5,16.4-2.5-16.4h-3.8l4,20.4ZM357.1,234.1c4.2,0,5.8-2.5,5.8-6.6v-.8h-3.7v1.2c0,2.1-.4,3.4-2.1,3.4s-2.3-1.1-2.3-3.5v-4.1h8.1v-1.7c0-5.6-.7-8.9-5.8-8.9s-6,2.8-6,8.2v4.7c0,5.3,1.2,8.2,6,8.2ZM354.9,221.7v-1.1c0-3.5.4-4.6,2.2-4.6s2.1,1.4,2.1,3.9v1.8h-4.4ZM371.1,234.1c3.4,0,5.7-1.7,5.7-5.2,0-2.2-1.2-4.2-2.9-5.5l-3.6-3.3c-.6-.5-1-1.2-1-2.1,0-1.1.8-2,1.9-2.1,0,0,0,0,.1,0,1.6,0,2.2,1.4,2.5,3.5l2.5-1c-.2-3-1.9-5.4-5.2-5.4s-5.3,1.8-5.3,5c0,2,.9,3.8,2.5,5l3.5,3c1,.7,1.6,1.8,1.7,3,.1,1.1-.7,2-1.7,2.2-.1,0-.2,0-.4,0-1.7,0-2.6-1.3-2.9-3.9l-3.1,1c.3,3.4,2.4,5.7,5.8,5.7ZM385,234.1c.9,0,1.8,0,2.6-.2v-2.8c-.5,0-.9.1-1.4.1-1.5,0-1.9-.6-1.9-2.2v-13.1h3.3v-2.5h-3.3v-6h-3.8v6h-2.2v2.5h2.2v13.3c0,3,1.2,4.9,4.4,4.9ZM398.9,233.9h7.6c5.1,0,7.4-3.2,7.4-8.2s-1.5-6.4-4.9-7.3c2.8-.4,4.1-2.5,4.1-6s-2.5-7.2-7.6-7.2h-6.6v28.7ZM402.9,217.2v-9h1c4.1,0,5.8.3,5.8,4.2s-1,4.8-4.4,4.8h-2.4ZM402.9,231v-10.8h2.4c3.5,0,4.8,1.9,4.8,5.5s-.9,5.3-4.5,5.3h-2.7ZM420.8,234.1c2,0,3.7-1.4,4.1-3.3.1,1,.4,2.3.5,3h3.5c-.2-1.6-.3-3.3-.4-4.9v-9.3c0-4.2-1.6-6.5-5.6-6.5s-6.1,2.1-6.2,6.6h3.7c0,.1,0-.9,0-.9,0-1.8.6-2.9,2.2-2.9s2.1,1.2,2.1,3.7v1.5c-4.4,1.7-8.1,3.2-8.1,8.3s1.7,4.7,4.1,4.7ZM422.3,230.9c-1.2,0-1.8-1-1.8-2.7,0-2.4,1.9-3.5,4.3-4.8v5.8c-.5.9-1.4,1.5-2.5,1.7ZM432.2,233.9h3.8v-16.5c.7-.7,1.7-1.1,2.7-1.3,1.3,0,1.6.8,1.6,2.3v15.5h3.8v-16.6c0-2-.6-4.2-3.1-4.2-1.9,0-3.7.9-5,2.3v-2h-3.8v20.4ZM447.8,233.8h3.8v-7.8l1.7-2.6,3.8,10.5h3.8l-4.7-12.5,4.8-8h-4l-5.5,8.8v-17.1h-3.8v28.7Z"/>
  <path class="st3" d="M316.8,132.5c0,1.2,0,2.3,0,3.5,0,1.1,0,2.3.1,3.5.4,0,.9,0,1.5.1.6,0,1.2,0,1.8,0,.7,0,1.4-.1,2.1-.4.7-.2,1.3-.6,1.8-1.1.5-.5.9-1.1,1.2-1.8.3-.8.5-1.6.4-2.4,0-.8-.1-1.7-.5-2.4-.4-.6-.9-1.1-1.5-1.5-.7-.4-1.5-.6-2.4-.7-1-.1-2.1-.2-3.1-.2h-1.5v3.5ZM318.7,127.8c.8,0,1.6,0,2.4-.2.7-.1,1.5-.4,2.1-.8.6-.4,1.1-.9,1.5-1.5.4-.7.6-1.5.6-2.4,0-.8-.1-1.6-.5-2.2-.3-.5-.8-1-1.3-1.3-.5-.3-1.2-.5-1.8-.6-.7-.1-1.3-.2-2-.2s-1.1,0-1.5,0c-.4,0-.8,0-1.1.1,0,1.1,0,2.2-.1,3.2,0,1.1,0,2.2,0,3.2v2.6h1.8ZM314,126.1c0-1.5,0-3,0-4.4,0-1.5-.1-2.9-.2-4.4.6,0,1.2,0,1.8.1.6,0,1.2,0,1.8,0,.6,0,1.2,0,1.8,0,.6,0,1.2,0,1.8,0,.9,0,1.9,0,2.8.2.8.1,1.6.4,2.3.8.6.4,1.2.9,1.6,1.5.4.7.6,1.6.6,2.4,0,1.5-.5,2.9-1.6,4-1.2,1-2.6,1.7-4.2,2h0c1.7,0,3.4.6,4.8,1.5,1.2,1.1,1.9,2.6,1.8,4.3,0,1.1-.2,2.2-.8,3.2-.5.9-1.2,1.6-2.1,2.1-.9.5-1.8.9-2.8,1.1-1,.2-2,.3-3,.3-.6,0-1.1,0-1.7,0-.6,0-1.1,0-1.7,0h-1.7c-.6,0-1.1,0-1.7,0,0-1.5.1-2.9.2-4.4,0-1.4,0-2.9,0-4.4v-5.9ZM343,132.3c-.4.2-.9.3-1.4.3-.5,0-1,.2-1.6.3-.5.1-1,.2-1.6.4-.5.1-.9.4-1.4.6-.4.3-.7.6-1,1-.3.5-.4,1-.4,1.6,0,.9.3,1.8.9,2.4.6.5,1.3.8,2.1.8.8,0,1.7-.2,2.4-.7.7-.4,1.2-1,1.7-1.7v-5.1ZM334.5,126.2c.9-.7,1.8-1.2,2.8-1.6.9-.3,1.8-.4,2.7-.4.8,0,1.5.1,2.3.4.6.2,1.2.6,1.7,1,.5.5.9,1,1.1,1.6.3.7.4,1.4.4,2.1,0,1.3,0,2.6,0,3.9,0,1.3,0,2.7,0,4.1s0,.6,0,.9c0,.3,0,.6.2.8,0,.2.2.4.4.6.2.2.5.3.8.2.1,0,.2,0,.4,0,.1,0,.2,0,.4-.1v.8c-.3.1-.6.2-.9.3-.4,0-.8.1-1.2.1-1.2.1-2.2-.7-2.4-1.9,0,0,0,0,0,0-.7.7-1.5,1.3-2.4,1.8-.9.4-1.9.6-2.9.6-.6,0-1.1,0-1.7-.2-.5-.2-1-.4-1.5-.8-.4-.4-.8-.8-1-1.3-.3-.5-.4-1.2-.4-1.8,0-1.2.4-2.4,1.3-3.2,1-.8,2.2-1.3,3.5-1.5,1.2-.2,2.2-.4,2.9-.5.5,0,1-.3,1.5-.5.3,0,.5-.3.6-.6,0-.3.1-.6.1-.8,0-.6,0-1.1-.2-1.6-.1-.5-.3-1-.6-1.4-.3-.4-.7-.7-1.2-.9-.5-.3-1.1-.4-1.7-.4-.9,0-1.8.2-2.5.6-.7.4-1.4,1-1.8,1.7h-.4v-1.8ZM362.4,131.2c0-1.4-.3-2.7-1-3.9-.6-.9-1.7-1.4-2.7-1.3-1.3-.1-2.6.4-3.5,1.5-.8,1.2-1.2,2.7-1.1,4.1v2.9c0,1,0,2.1,0,3.2,0,1.1.1,2.1.2,3.1-.5,0-1,0-1.5,0s-1,0-1.5,0c.1-.9.2-1.9.2-3.1,0-1.1,0-2.2,0-3.2v-3.6c0-1,0-2.1,0-3.2,0-1.1-.1-2.2-.2-3.2.5.1,1,.2,1.5.2.2,0,.4,0,.6,0h.8c0,.8-.1,1.7-.1,2.6h0c.6-.9,1.4-1.7,2.3-2.3,1-.6,2.1-.8,3.2-.8.7,0,1.3,0,1.9.3.6.2,1.2.5,1.8.9.6.5,1,1.1,1.3,1.8.4.9.5,1.9.5,2.9,0,1,0,2,0,3,0,1,0,2.1,0,3.3v2.2c0,.4,0,.7,0,1.1,0,.4,0,.7,0,1-.5,0-.9,0-1.4,0s-.9,0-1.4,0c0-1.2,0-2.4.2-3.7,0-1.3,0-2.5,0-3.9v-2.1ZM370.6,124.9c0-.8,0-1.6,0-2.5,0-.9,0-1.8,0-2.7,0-.9,0-1.7,0-2.5s0-1.5-.1-2.1c.5,0,1,.2,1.5.2.5,0,1,0,1.5-.2,0,.6,0,1.3-.1,2.1,0,.8,0,1.7,0,2.5,0,.9,0,1.8,0,2.7,0,.9,0,1.8,0,2.5v6.2c0,.4.1.7.4.7.2,0,.4,0,.6-.2.2-.2.5-.3.7-.5.2-.2.6-.5,1-.9.5-.5,1-1,1.6-1.6.6-.6,1.2-1.2,1.9-1.9.6-.7,1.2-1.3,1.7-1.9.4.1.9.2,1.3.2.3,0,.5,0,.8,0,.3,0,.6,0,1-.1-1.4,1.2-2.8,2.3-4.1,3.4-1.3,1.1-2.6,2.3-3.7,3.4,1.3,1.6,2.6,3.1,4,4.7,1.4,1.6,2.8,3.1,4.2,4.6-.3,0-.7,0-1,0h-1.7c-.3,0-.6,0-.9,0-.5-.6-1.1-1.2-1.7-2l-1.9-2.3c-.6-.8-1.2-1.5-1.8-2.1-.6-.7-1.1-1.2-1.5-1.6,0,0-.1-.2-.2-.2,0,0-.2,0-.3-.1-.2,0-.3.1-.3.4v2.1c0,1,0,2,0,3,0,1,.1,1.9.2,2.9-.5,0-1,0-1.5,0s-1,0-1.5,0c0-.5,0-1.2.1-2s0-1.6,0-2.5c0-.9,0-1.8,0-2.7,0-.9,0-1.8,0-2.5v-6.2ZM398.5,132.7c0,.9,0,1.9.3,2.8.2.8.4,1.6.9,2.4.4.7,1,1.3,1.6,1.7,1.6.8,3.5.8,5.1,0,.7-.4,1.2-1,1.6-1.7.4-.7.7-1.5.9-2.4.3-1.8.3-3.7,0-5.5-.2-.8-.4-1.6-.9-2.4-.4-.7-1-1.3-1.6-1.7-1.6-.8-3.5-.8-5.1,0-.7.4-1.2,1-1.6,1.7-.4.7-.7,1.5-.9,2.4-.2.9-.3,1.8-.3,2.8h0ZM395.5,132.7c0-1.4.2-2.7.7-3.9.4-1,1.1-1.9,1.9-2.6.8-.7,1.7-1.2,2.7-1.5,1.9-.6,4-.6,5.9,0,1,.3,1.9.8,2.7,1.5.8.7,1.5,1.6,1.9,2.6.5,1.3.8,2.6.7,3.9,0,1.4-.2,2.7-.7,3.9-.4,1-1.1,1.9-1.9,2.6-.8.7-1.7,1.1-2.7,1.4-1.9.5-4,.5-5.9,0-1-.3-1.9-.8-2.7-1.4-.8-.7-1.5-1.6-1.9-2.6-.5-1.2-.8-2.6-.7-3.9h0ZM423.1,117.8c-.6-.3-1.2-.5-1.9-.5-.4,0-.9,0-1.3.3-.3.2-.6.4-.9.8-.2.3-.4.7-.5,1.1-.1.4-.2.9-.2,1.3,0,.4,0,1,.1,1.8s.2,1.5.3,2.2c.6,0,1.2,0,1.8,0,.6,0,1.2,0,1.8,0,0,.1,0,.2,0,.3,0,.1,0,.2,0,.3,0,.1,0,.2,0,.3,0,.1,0,.2,0,.3h-1.8c-.6,0-1.2-.1-1.8-.1,0,2.5,0,5,0,7.4,0,2.5,0,4.9.1,7.4-.2,0-.5,0-.7,0h-.7c-.5,0-1,0-1.5,0,.2-2.5.2-4.9.3-7.4,0-2.4,0-4.9,0-7.4-.4,0-.8,0-1.2,0h-1.2s0-.2,0-.3c0-.1,0-.2,0-.3s0-.2,0-.3c0-.1,0-.2,0-.3.4,0,.8,0,1.2,0,.4,0,.8,0,1.2,0,0-.7,0-1.4.2-2.2.1-.8.3-1.5.6-2.3.3-.7.6-1.5.9-2.1.3-.6.7-1.2,1.2-1.7.5-.4,1-.8,1.6-1.1.6-.3,1.3-.5,1.9-.5.2,0,.5,0,.7.1,0,.5,0,.9,0,1.4,0,.5,0,.9,0,1.4h-.2ZM438,120c0,.9-.1,1.7-.2,2.5,0,.8,0,1.7-.1,2.5.3,0,.7,0,1.4,0,.7,0,1.4,0,2.2,0,0,.1,0,.3,0,.4v.7c0,.1,0,.2,0,.3-.3,0-.6,0-.9,0-.3,0-.7,0-1,0h-1.7c0,0,0,.5,0,1.1,0,.6,0,1.4,0,2.3,0,.9,0,1.8,0,2.8,0,1,0,1.8,0,2.6s0,1.3,0,1.9c0,.6.1,1.1.3,1.7.2.5.4.9.8,1.2.5.3,1,.5,1.6.4.2,0,.5,0,.7,0,.3,0,.5,0,.8-.2v.8c-.4,0-.8.2-1.3.3-.4.1-.9.2-1.4.2-1.2,0-2.3-.3-3.2-1.1-.7-.9-1.1-2-1-3.1,0-.6,0-1.3,0-2,0-.7,0-1.5,0-2.4,0-.9,0-1.8,0-2.8,0-1,0-2.2,0-3.5h-1.1c-.2,0-.4,0-.6,0-.2,0-.4,0-.6,0,0-.1,0-.3,0-.4,0-.1,0-.3,0-.4s0-.2,0-.3c0-.1,0-.2,0-.3,1,0,1.8.1,2.3.1,0-.5,0-1,0-1.7,0-.7,0-1.4,0-2.1l2.8-1.2h.2ZM444.7,124.9c0-.8,0-1.6,0-2.5,0-.9,0-1.8,0-2.7,0-.9,0-1.7,0-2.5,0-.8,0-1.5-.1-2.1.5,0,1,.2,1.5.2.5,0,1,0,1.5-.2,0,.6,0,1.3-.1,2.1,0,.8,0,1.6,0,2.5,0,.9,0,1.8,0,2.7,0,.9,0,1.7,0,2.5v2.6h0c.6-.9,1.4-1.7,2.3-2.3,1-.6,2.1-.8,3.2-.8.7,0,1.3,0,1.9.3.6.2,1.2.5,1.8.9.6.5,1,1.1,1.3,1.8.4.9.5,1.9.5,2.9,0,1,0,2,0,3,0,1,0,2.1,0,3.3v2.2c0,.4,0,.7,0,1.1,0,.4,0,.7,0,1-.5,0-.9,0-1.4,0s-.9,0-1.4,0c0-1.2,0-2.4.2-3.7,0-1.3,0-2.5,0-3.9v-2.1c0-1.4-.3-2.7-1-3.9-.6-.9-1.7-1.4-2.7-1.3-1.3-.1-2.6.4-3.5,1.5-.8,1.2-1.2,2.7-1.1,4.1,0,.6,0,1.4,0,2.2,0,.8,0,1.7,0,2.5,0,.9,0,1.7,0,2.5,0,.8,0,1.4.1,1.9-.5,0-1,0-1.5,0s-1,0-1.5,0c0-.5,0-1.2.1-2,0-.8,0-1.6,0-2.5,0-.9,0-1.8,0-2.7,0-.9,0-1.8,0-2.5v-6.2ZM469.9,125.3c-.8,0-1.5.2-2.1.6-.6.4-1.1.9-1.4,1.5-.4.6-.7,1.2-.9,1.9-.2.6-.3,1.3-.4,2h2.2c.8,0,1.5.1,2.2.1s1.5,0,2.3,0h2.3c0-.7,0-1.4-.2-2,0-.7-.3-1.3-.6-1.9-.3-.6-.7-1.1-1.3-1.5-.6-.4-1.4-.6-2.2-.6h0ZM462,133.2c-.1-2.4.6-4.7,2-6.6,1.5-1.7,3.6-2.5,5.8-2.4,1.1,0,2.1.2,3.1.6.8.3,1.6.9,2.2,1.5.6.6,1,1.4,1.3,2.2.3.9.4,1.8.4,2.7,0,.2,0,.5,0,.7,0,.2,0,.4,0,.7h-3.7c-1.2,0-2.4-.1-3.7-.1s-1.5,0-2.2,0h-2.2c0,.2,0,.4,0,.6v.4c0,.8.1,1.7.4,2.5.2.7.6,1.4,1.1,2,.5.6,1.1,1,1.8,1.3.8.3,1.7.5,2.5.5.5,0,.9,0,1.4-.2.5-.1,1-.3,1.4-.5.5-.2.9-.5,1.3-.8.4-.3.7-.6,1-1h.2c0,.1-.2,1.8-.2,1.8-.8.6-1.6,1.1-2.5,1.4-1,.4-2.1.6-3.2.6-1.1,0-2.3-.2-3.4-.6-1-.4-1.9-.9-2.6-1.6-.7-.7-1.3-1.6-1.7-2.5-.4-1-.6-2.1-.6-3.2h0ZM488.9,129.1c0-1.8.3-3.5.9-5.2.6-1.5,1.5-2.8,2.6-3.9,1.2-1.1,2.5-1.9,4.1-2.4,3.4-1.1,7-1.1,10.4,0,1.5.5,2.9,1.3,4.1,2.4,1.1,1.1,2,2.4,2.6,3.8.7,1.6,1,3.4.9,5.2,0,1.8-.3,3.5-.9,5.2-1.2,3-3.6,5.2-6.7,6.2-3.4,1-7,1-10.4,0-3-.9-5.5-3.2-6.7-6.2-.7-1.6-1-3.4-.9-5.2h0ZM511.1,129.1c0-1.7-.2-3.3-.7-4.9-.4-1.3-1.1-2.4-2-3.4-.8-.9-1.9-1.6-3-2-2.4-.9-5-.9-7.5,0-1.1.4-2.2,1.1-3,2-.9,1-1.6,2.1-2,3.4-.5,1.6-.8,3.2-.7,4.9,0,1.7.2,3.3.7,4.9.4,1.3,1.1,2.4,2,3.4.8.9,1.9,1.6,3,2,2.4.9,5,.9,7.5,0,1.1-.4,2.2-1.1,3-2,.9-1,1.6-2.1,2-3.4.5-1.6.8-3.2.7-4.9h0ZM517.1,140.4c1-1.2,2-2.5,3-3.8,1-1.3,2-2.7,3-4,1-1.3,1.9-2.5,2.8-3.7.9-1.2,1.6-2.2,2.2-3-.2,0-.6,0-1.4,0-.7,0-1.6,0-2.5.1l-2.9.2c-1,0-1.8.1-2.4.2,0-.3.1-.6.1-1,0-.3,0-.7-.1-1,.7,0,1.8.1,3.2.1,1.4,0,3.2,0,5.3,0h1.3c.4,0,.8,0,1.1,0h1c0,0,1-.1,1-.1v.5c-.9,1.2-1.9,2.5-3,3.9-1.1,1.4-2.1,2.8-3.2,4.2-1,1.4-2,2.6-2.8,3.7-.8,1.1-1.5,2-1.9,2.6.9,0,1.8,0,2.6,0,.8,0,1.6,0,2.4,0,.8,0,1.7,0,2.6-.1.9,0,2-.1,3.2-.3,0,.3-.1.6-.1,1,0,.3,0,.6.1.9-1.4,0-2.9,0-4.3,0h-7.3c-1,0-2,0-3,0v-.4ZM544.4,132.3c-.4.2-.9.3-1.3.3-.5,0-1,.2-1.6.3-.5.1-1,.2-1.6.4-.5.1-.9.4-1.4.6-.4.3-.7.6-1,1-.3.5-.4,1-.4,1.6,0,.9.3,1.8.9,2.4.6.5,1.3.8,2.1.8.8,0,1.7-.2,2.4-.7.7-.4,1.2-1,1.7-1.7v-5.1ZM535.9,126.2c.9-.7,1.8-1.2,2.8-1.6.9-.3,1.8-.4,2.7-.4.8,0,1.5.1,2.3.4.6.2,1.2.6,1.7,1,.5.5.9,1,1.1,1.6.3.7.4,1.4.4,2.1,0,1.3,0,2.6,0,3.9,0,1.3,0,2.7,0,4.1s0,.6,0,.9c0,.3,0,.6.2.8,0,.2.2.4.4.6.2.2.5.3.8.2.1,0,.2,0,.4,0,.1,0,.2,0,.4-.1v.8c-.3.1-.6.2-.9.3-.4,0-.8.1-1.2.1-1.2.1-2.2-.7-2.4-1.9,0,0,0,0,0,0-.7.7-1.5,1.3-2.4,1.8-.9.4-1.9.6-2.9.6-.6,0-1.1,0-1.7-.2-.5-.2-1-.4-1.5-.8-.4-.4-.8-.8-1-1.3-.3-.5-.4-1.2-.4-1.8,0-1.2.4-2.4,1.3-3.2,1-.8,2.2-1.3,3.5-1.5,1.2-.2,2.2-.4,2.9-.5.5,0,1-.3,1.5-.5.3,0,.5-.3.6-.6,0-.3.1-.6.1-.8,0-.6,0-1.1-.2-1.6-.1-.5-.3-1-.7-1.4-.3-.4-.7-.7-1.2-.9-.5-.3-1.1-.4-1.7-.4-.9,0-1.8.2-2.5.6-.7.4-1.4,1-1.8,1.7h-.4v-1.8ZM560.5,127.3c-.2-.2-.4-.3-.7-.4-.3-.1-.7-.2-1-.2-.5,0-1,.1-1.5.4-.4.3-.8.6-1.1,1-.3.5-.5,1-.7,1.5-.2.6-.2,1.2-.2,1.9v3.8c0,1.5,0,2.7,0,3.5,0,.7,0,1.3.1,2-.5,0-.9,0-1.4,0s-1,0-1.4,0c0-.8.1-1.8.1-3.2,0-1.3,0-3,0-4.9v-1.1c0-.9,0-1.9,0-3.1,0-1.2,0-2.5-.1-4,.3,0,.5,0,.7.1.2,0,.5,0,.7,0,.2,0,.4,0,.6,0,.2,0,.5,0,.7-.1,0,.8-.1,1.5-.2,1.9,0,.5,0,.9,0,1.4h0c1.3-2.4,2.8-3.7,4.5-3.7.2,0,.4,0,.5,0,.2,0,.4,0,.6.2-.1.4-.2.8-.2,1.2,0,.6,0,1.1,0,1.5l-.2.2ZM564.3,124.9c0-.8,0-1.6,0-2.5,0-.9,0-1.8,0-2.7,0-.9,0-1.7,0-2.5,0-.8,0-1.5-.1-2.1.5,0,1,.2,1.5.2.5,0,1,0,1.5-.2,0,.6,0,1.3-.1,2.1,0,.8,0,1.7,0,2.5,0,.9,0,1.8,0,2.7,0,.9,0,1.8,0,2.5v6.2c0,.4.1.7.4.7.2,0,.4,0,.6-.2.2-.2.5-.3.7-.5.2-.2.6-.5,1-.9.5-.5,1-1,1.6-1.6.6-.6,1.2-1.2,1.9-1.9.6-.7,1.2-1.3,1.7-1.9.4.1.9.2,1.3.2.3,0,.5,0,.8,0,.3,0,.6,0,1-.1-1.4,1.2-2.8,2.3-4.1,3.4-1.3,1.1-2.6,2.3-3.7,3.4,1.3,1.6,2.6,3.1,4,4.7,1.4,1.6,2.8,3.1,4.2,4.6-.3,0-.7,0-1,0h-1.7c-.3,0-.6,0-.9,0-.5-.6-1.1-1.2-1.7-2l-1.9-2.3c-.6-.8-1.2-1.5-1.8-2.1-.6-.7-1.1-1.2-1.5-1.6,0,0-.1-.2-.2-.2,0,0-.2,0-.3-.1-.2,0-.3.1-.3.4v2.1c0,1,0,2,0,3,0,1,.1,1.9.2,2.9-.5,0-1,0-1.5,0s-1,0-1.5,0c0-.5,0-1.2.1-2s0-1.6,0-2.5c0-.9,0-1.8,0-2.7,0-.9,0-1.8,0-2.5v-6.2ZM581,137.6c.1.3.3.5.5.8.3.3.5.5.9.8.3.2.7.4,1.1.6.8.3,1.8.3,2.6,0,.4-.1.7-.3,1.1-.6.3-.3.6-.6.7-1,.2-.4.3-.9.3-1.3,0-.6-.2-1.2-.6-1.6-.4-.4-.9-.7-1.5-.9-.6-.3-1.3-.5-1.9-.6-.7-.2-1.3-.4-1.9-.8-.6-.3-1.1-.8-1.5-1.3-.4-.7-.6-1.5-.6-2.3,0-.7.1-1.4.4-2.1.2-.6.6-1.2,1.1-1.6.5-.5,1.1-.8,1.8-1.1.8-.3,1.6-.4,2.4-.4.7,0,1.5,0,2.1.3.6.2,1.1.4,1.7.6-.2.4-.4.8-.5,1.3-.1.4-.2.8-.3,1.2h-.4c-.2-.6-.6-1.1-1.1-1.5-.6-.4-1.2-.7-1.9-.6-.3,0-.7,0-1,.2-.3.1-.7.3-.9.5-.3.2-.5.5-.7.9-.2.4-.3.8-.3,1.3,0,.6.2,1.2.6,1.7.4.4.9.7,1.5.9.6.2,1.3.4,1.9.6.7.2,1.3.4,1.9.7.6.3,1.1.7,1.5,1.3.4.7.6,1.5.6,2.3,0,.7-.1,1.3-.4,1.9-.3.7-.7,1.2-1.2,1.7-.6.5-1.2.9-1.9,1.2-.8.3-1.7.4-2.6.4-.9,0-1.8,0-2.6-.3-.6-.2-1.2-.4-1.8-.7.2-.4.3-.8.4-1.2.1-.4.2-.8.2-1.3h.4Z"/>
  <path class="st3" d="M391.4,52.3l-4-10.3c-.1-.3-.2-.7-.4-1.1-.1-.4-.3-.8-.4-1.3-.2.8-.5,1.6-.8,2.4l-4,10.3h9.5ZM398.6,61.7h-2.7c-.3,0-.5,0-.7-.2-.2-.2-.3-.4-.4-.6l-2.4-6.1h-11.4l-2.4,6.1c0,.2-.2.4-.4.6-.2.2-.5.3-.7.2h-2.7l10.1-25.3h3.5l10.1,25.3ZM404.3,35.7v26.1h-3.1v-26.1h3.1ZM412.7,35.7v26.1h-3.1v-26.1h3.1ZM433.2,43.8l-10,23.2c0,.2-.2.4-.4.6-.2.2-.5.2-.7.2h-2.3l3.3-7.1-7.4-16.9h2.7c.2,0,.5,0,.6.2.1.1.3.3.3.5l4.8,11.3c.2.5.3,1,.5,1.6.2-.6.3-1.1.5-1.6l4.7-11.3c0-.2.2-.4.4-.5.2-.1.4-.2.6-.2h2.5ZM453.9,59c.9,0,1.7,0,2.5-.3.6-.2,1.2-.5,1.7-.9.4-.4.8-.9,1-1.5.2-.6.3-1.2.3-1.8,0-1.2-.5-2.3-1.4-3.1-1.2-.8-2.7-1.3-4.2-1.1h-5.5v8.8h5.5ZM448.4,39.1v8.6h4.5c.9,0,1.7,0,2.5-.3.6-.2,1.2-.5,1.8-.9.5-.4.8-.8,1-1.4.2-.6.3-1.2.3-1.8.1-1.2-.4-2.5-1.3-3.3-1.2-.8-2.7-1.1-4.2-1h-4.7ZM453,36.4c1.4,0,2.7.1,4,.5,1,.2,1.9.7,2.8,1.3.7.5,1.3,1.3,1.6,2.1.4.9.5,1.8.5,2.8,0,.6,0,1.2-.3,1.8-.2.6-.5,1.1-.9,1.6-.4.5-.9,1-1.5,1.3-.6.4-1.4.7-2.1,1,1.6.2,3,.9,4.2,2,1,1,1.5,2.4,1.4,3.8,0,1-.2,2-.6,2.9-.4.9-1,1.7-1.7,2.3-.8.7-1.8,1.2-2.8,1.5-1.2.4-2.5.5-3.8.5h-8.9v-25.3h8.1ZM476.5,53.7c-1.2,0-2.5.1-3.7.3-.9.1-1.7.4-2.5.7-.5.2-1,.6-1.4,1-.3.4-.4.9-.4,1.3,0,.4,0,.8.2,1.2.1.3.4.6.6.8.3.2.6.4.9.5.4.1.8.2,1.2.2.5,0,1,0,1.5-.2.5-.1.9-.3,1.3-.5.4-.2.8-.5,1.2-.8.4-.3.7-.6,1.1-1v-3.7ZM466.3,46.3c.9-.9,2-1.6,3.2-2.1,1.2-.5,2.5-.7,3.8-.7.9,0,1.8.2,2.7.5.7.3,1.4.8,2,1.4.5.6,1,1.3,1.2,2.1.3.9.4,1.8.4,2.8v11.5h-1.4c-.2,0-.5,0-.7-.2-.2-.1-.3-.4-.4-.6l-.4-1.7c-.4.4-.9.8-1.4,1.2-.4.3-.9.6-1.4.8-.5.2-1,.4-1.6.5-.6.1-1.2.2-1.9.2-.7,0-1.3,0-2-.3-.6-.2-1.1-.5-1.6-.9-.5-.4-.8-.9-1.1-1.5-.3-.7-.4-1.4-.4-2.1,0-.7.2-1.4.6-2,.5-.7,1.1-1.3,1.9-1.7,1.1-.6,2.2-1,3.4-1.2,1.7-.4,3.4-.5,5.2-.6v-1.4c0-1.1-.2-2.2-.9-3.2-.7-.7-1.6-1.1-2.6-1.1-.7,0-1.3,0-2,.3-.5.2-.9.4-1.4.7-.4.2-.7.5-1,.7-.2.2-.5.3-.8.3-.2,0-.4,0-.5-.2-.2-.1-.3-.3-.4-.4l-.6-1ZM487.3,46.4c.4-.4.8-.8,1.2-1.2.4-.3.9-.7,1.4-.9.5-.3,1-.5,1.6-.6.6-.1,1.2-.2,1.8-.2.9,0,1.8.1,2.6.5.7.3,1.4.8,1.9,1.4.5.6.9,1.4,1.1,2.1.3.9.4,1.8.4,2.8v11.4h-3.2v-11.4c0-1.1-.3-2.2-.9-3.2-.7-.8-1.8-1.2-2.8-1.1-.9,0-1.8.2-2.6.7-.8.5-1.6,1.1-2.2,1.8v13.2h-3.2v-17.9h1.9c.4,0,.8.3.8.7l.2,1.9ZM507.3,35.7v15.3h.8c.2,0,.4,0,.6,0,.2,0,.4-.2.5-.4l5.7-6.1c.1-.2.3-.3.5-.5.2-.1.5-.2.7-.2h2.8l-6.6,7c-.3.4-.6.7-1,.9.2.1.4.3.6.5.2.2.3.4.5.6l7,8.8h-2.8c-.2,0-.5,0-.7-.1-.2-.1-.4-.3-.5-.5l-5.9-7.3c-.1-.2-.3-.4-.5-.5-.3,0-.5-.1-.8-.1h-.9v8.6h-3.2v-26.1h3.2Z"/>
  <path class="st2" d="M707.5,302.2c2.2,0,4.3.7,6.1,1.9,1.2.9,1.9,2.3,1.9,3.8,0,1.8-.8,3.6-2.3,4.6-1.9,1.2-4.2,1.7-6.5,1.6-.6,0-1.1,0-1.6,0-1.4,0-2.8,0-4.1,0-2.2,0-3.8,0-4.9,0v-.6c.5,0,1,0,1.5-.3.3-.1.6-.4.7-.7.1-.6.2-1.2.2-1.7v-15.8c0-.6,0-1.2-.2-1.8,0-.3-.3-.6-.7-.7-.5-.2-1-.2-1.5-.3v-.6c1.1,0,2.7,0,4.8,0h3.5c.4,0,.9,0,1.5,0,2-.1,4.1.3,5.8,1.4,1.3.8,2,2.1,2,3.6,0,1.3-.6,2.6-1.6,3.4-1.3,1.2-3,1.9-4.8,2.2h0ZM705.6,292.1c-.4,0-.9,0-1.3.2-.3.2-.5.5-.6.8-.1.6-.2,1.1-.2,1.7v7.2h1.4c1.2.1,2.3-.4,2.9-1.4.6-1.2.9-2.5.8-3.8,0-1.2-.2-2.5-.7-3.6-.5-.8-1.4-1.2-2.4-1.2ZM705.8,313.3c2.9,0,4.4-1.9,4.4-5.6,0-1.4-.4-2.8-1.3-3.8-1.1-1-2.6-1.4-4-1.3h-1.3v8.1c0,.6,0,1.1.2,1.7,0,.3.3.6.6.7.5.2.9.2,1.4.2ZM737.1,311.4c.3.4.6.8,1,1.2.4.3.8.6,1.3.8v.6c-1.5,0-3.1,0-5,0s-2.7,0-4,0v-.6c.4,0,.9,0,1.3-.2.3,0,.4-.2.4-.4,0-.3-.2-.6-.4-.8l-4.6-7.5c-.3-.5-.6-1-1.1-1.4-.3-.3-.7-.4-1.2-.4v8c0,.6,0,1.2.2,1.7,0,.3.3.6.7.7.5.2,1,.2,1.6.3v.6c-1.1,0-2.7,0-4.8,0s-3.9,0-5,0v-.6c.5,0,1,0,1.5-.3.3-.1.6-.4.7-.7.1-.6.2-1.2.2-1.7v-15.8c0-.6,0-1.2-.2-1.8,0-.3-.3-.6-.7-.7-.5-.2-1-.2-1.5-.3v-.6c1.1,0,2.8,0,5,0s3.7,0,4.8,0v.6c-.5,0-1.1,0-1.6.3-.3.1-.6.4-.7.7-.1.6-.2,1.2-.2,1.8v7.2c.8,0,1.6-.3,2.3-.8.9-.6,1.7-1.4,2.4-2.2l1.9-2.3c.8-.8,1.3-1.8,1.5-3,0-.5-.2-.9-.6-1.2-.5-.3-1.1-.5-1.7-.5v-.6c1.5,0,3.1,0,4.7,0s2.2,0,3,0v.6c-1.8.5-3.5,1.6-4.6,3.1l-4,4.7,7.4,11.6ZM750,291.5c4.1,0,7.2.9,9.3,2.8,2.1,1.9,3.1,4.6,3.1,8.2,0,2.1-.5,4.2-1.5,6.1-1,1.7-2.5,3.1-4.4,4-2.1,1-4.4,1.5-6.8,1.4h-2c-1.2,0-2.1,0-2.7,0-2.2,0-3.8,0-4.9,0v-.6c.5,0,1,0,1.5-.3.3-.1.6-.4.7-.7.1-.6.2-1.2.2-1.7v-15.8c0-.6,0-1.2-.2-1.8,0-.3-.3-.6-.7-.7-.5-.2-1-.2-1.5-.3v-.6c.9,0,2.2,0,3.9,0h2.3c1.7,0,3,0,3.7,0ZM750,292.1c-.5,0-1,0-1.5.2-.3.2-.6.4-.7.8-.1.6-.2,1.1-.2,1.7v15.9c0,.6,0,1.2.2,1.7.1.4.4.6.7.8.5.2,1,.2,1.5.2,2.2.2,4.3-.8,5.5-2.7,1.1-1.8,1.6-4.5,1.6-8.1s-.6-6.3-1.7-8c-1.2-1.8-3.3-2.7-5.5-2.6ZM767.3,309.6c.9,0,1.8.4,2.3,1.1.2.4.4.8.5,1.2.4,1.5.2,3.1-.7,4.5-.6.9-1.5,1.7-2.5,2.1l-.3-.6c.6-.3,1.2-.7,1.6-1.2.4-.5.7-1,.8-1.6,0-.2,0-.5,0-.7,0-.2,0-.4,0-.6-.5.5-1.1.8-1.8.8-.7,0-1.3-.2-1.8-.7-.5-.5-.7-1.1-.7-1.8,0-.7.2-1.3.7-1.8.5-.5,1.2-.7,1.9-.7ZM791.8,291c1.1,0,2.2.2,3.2.5.9.4,1.8.9,2.6,1.5.2.2.4.3.6.3.4,0,.7-.6.8-1.9h.7c0,1.4-.1,4-.1,7.7h-.7c-.1-1.2-.4-2.4-.8-3.6-.3-.9-.9-1.6-1.6-2.2-.5-.5-1.2-.9-1.8-1.2-.7-.3-1.4-.4-2.2-.4-2.1,0-4,1.2-4.8,3.1-1.1,2.4-1.6,5.1-1.6,7.8,0,2.7.5,5.3,1.6,7.8.8,1.9,2.7,3.1,4.8,3.1.7,0,1.5-.1,2.1-.4.7-.2,1.3-.6,1.8-1.2.8-.6,1.3-1.3,1.6-2.2.4-1.3.6-2.6.7-3.9h.7c0,3.8,0,6.5.1,8h-.7c0-.5-.1-1-.3-1.4-.1-.3-.3-.4-.5-.4-.2,0-.5.1-.7.3-.8.6-1.8,1.1-2.7,1.5-1,.4-2.1.6-3.2.5-2.1,0-4.1-.4-5.9-1.4-1.7-.9-3-2.3-3.9-4-1-1.9-1.5-4-1.4-6.2,0-2.2.5-4.3,1.4-6.2.9-1.8,2.3-3.2,4-4.2,1.8-1,3.8-1.5,5.8-1.5ZM810.6,297.1c2.1-.1,4.2.6,5.7,2.1,1.4,1.4,2.1,3.6,2.1,6.6s-.7,5.2-2.1,6.6c-3.3,2.8-8.1,2.8-11.4,0-1.4-1.4-2.1-3.6-2.1-6.6s.7-5.2,2.1-6.6c1.5-1.4,3.6-2.2,5.7-2.1ZM810.6,297.8c-.9,0-1.6.7-2.2,2-.6,2-.9,4-.8,6.1,0,2,.2,4.1.8,6,.5,1.3,1.3,2,2.2,2s1.7-.7,2.2-2c.6-2,.9-4,.8-6.1.1-2.1-.2-4.1-.8-6.1-.5-1.3-1.3-2-2.2-2h0ZM831.3,297.1c.8,0,1.6.3,2.2.9.5.6.8,1.3.7,2.1,0,.7-.2,1.4-.7,1.9-.5.5-1.1.8-1.8.7-.6,0-1.2-.2-1.7-.6-.4-.4-.7-.9-.6-1.5,0-1,.5-2,1.4-2.5-.1,0-.3,0-.4,0-.2,0-.3,0-.5,0-.9.2-1.6.7-2.1,1.5-.5.8-.8,1.7-.8,2.6v8.4c0,.8.2,1.5.7,2,.7.4,1.5.6,2.3.6v.7c-.2,0-.5,0-.7,0-2.2,0-3.6,0-4.3,0s-1.9,0-3.9,0c-.2,0-.4,0-.6,0v-.7c.6,0,1.2-.1,1.6-.5.4-.5.5-1.2.4-1.8v-10c0-.7-.1-1.5-.4-2.1-.4-.5-1-.7-1.6-.7v-.7c.7,0,1.3,0,2,0,1.6,0,3.1-.1,4.6-.4v3c.4-.9,1-1.6,1.7-2.2.7-.6,1.7-.9,2.6-.8ZM846.7,297.1c1.1,0,2.1.3,2.9.9.9.7,1.6,1.6,2,2.7.5,1.4.8,2.9.7,4.4.2,2.5-.5,5-2,7-1.3,1.6-3.3,2.5-5.4,2.4-.6,0-1.2,0-1.8-.3-.5-.2-1-.4-1.4-.8v3.2c0,.7.2,1.4.7,1.9.6.4,1.4.6,2.2.5v.7h-.9c-2.4,0-3.9-.1-4.5-.1s-2,0-4,.1v-.7c.5,0,1.1-.1,1.5-.5.3-.5.5-1.1.4-1.7v-15.9c0-.7-.1-1.5-.5-2.1-.4-.5-1-.7-1.6-.7v-.7c.7,0,1.3,0,2,0,1.6,0,3.1-.1,4.6-.4v2.9c.4-.9,1.1-1.7,1.9-2.2.9-.5,1.9-.8,3-.8ZM843.7,313.6c1.3,0,2.5-.8,2.9-2,.7-1.9,1-3.9.9-5.9.1-1.9-.1-3.8-.7-5.5-.5-1.1-1.2-1.7-2.1-1.7-.7,0-1.4.3-1.9.7-.6.5-1,1.3-1.1,2v11.5c.5.6,1.2.9,2,.9Z"/>
  <path class="st1" d="M390,304.4c0-2,0-3.3,0-4,0-.5,0-.9-.2-1.4,0-.2-.2-.3-.4-.4-.2,0-.4-.1-.6-.1-.1-.2-.2-.5-.2-.8,0-.2,0-.5.2-.6.3-.1.6-.2.9-.2h2.5c.4,0,.7,0,1,.3.2.3.3.7.2,1v3.8c0,1.2,0,2.8.2,4.8-.5,0-1,.1-1.5.1-.2,0-.5-.4-.9-1.1-1.8.9-3.9,1.4-5.9,1.4-2.9,0-5.1-.7-6.5-2.2-1.4-1.5-2.1-4.1-2.1-7.7,0-4,.8-7,2.5-9,1.7-1.9,4.2-2.9,7.5-2.9,1.4,0,2.8,0,4.2.4.9.3,1.3.8,1.3,1.4,0,.7-.3,1.4-.8,1.9-1.7-.9-3.7-1.4-5.6-1.5-1.5,0-3,.6-4,1.8-.9,1.2-1.4,3.4-1.4,6.4s.5,5.8,1.4,7.1c1.1,1.4,2.7,2.1,4.4,1.9,1.2,0,2.4-.2,3.6-.6ZM396.6,292.3c0-.2.1-.5.3-.5,1.4-.2,2.7-.2,4.1-.2,0,.6,0,1.3,0,1.9,1-.7,2.1-1.3,3.3-1.6.9-.3,1.9-.4,2.9-.5.2,0,.4,0,.6.1,0,0,.1.2.1.4,0,.5,0,1-.2,1.4,0,.4-.2.7-.5,1-.3.2-.6.3-1,.3-.3,0-.5,0-.8,0-.3-.3-.5-.5-.7-.9-.8,0-1.7.3-2.2.9-.7,1-1,2.3-.9,3.5,0,3.2,0,5.5.1,7.1h2.2c.1.3.2.6.2.9,0,.2,0,.4-.2.6-.2.1-.4.2-.7.2h-6.6c-.1-.3-.2-.6-.2-.9,0-.2,0-.4.2-.5.2-.1.4-.2.6-.2h1.1c0-1.5.1-3.6.1-6.1.1-1.8,0-3.6-.4-5.3-.3-.5-.8-.8-1.4-.7-.1-.3-.2-.6-.2-.9h0ZM419.3,305.7c-.8.5-1.7.9-2.7,1.2-.9.3-1.8.4-2.7.4-1.1,0-2.3-.3-3.1-1-.7-.8-1.1-1.9-1-2.9,0-1.4.6-2.8,1.7-3.6,1.6-1,3.4-1.4,5.2-1.3h2.3c0-1.3-.2-2.6-.8-3.8-.6-.8-1.5-1.2-2.4-1.1-.6,0-1.2,0-1.8.2-.1.3-.3.7-.5,1-.3.1-.6.2-.9.3-.5.1-.9.1-1.1,0-.3-.3-.5-.7-.7-1-.2-.4-.3-.8-.3-1.2,0-.2,0-.4.3-.5.7-.2,1.4-.4,2.1-.4,1.3-.2,2.6-.3,3.9-.2,1.4-.1,2.8.2,4.1.9,1,.9,1.5,2.2,1.3,3.5v4.8c0,1.4,0,2.7.3,4.1,0,.4.5.7.9.6,0,0,0,0,0,0,.1.2.2.4.2.7,0,.4-.2.6-.7.8-.6.2-1.2.3-1.8.3-.3,0-.6,0-.8-.1-.4-.3-.7-.8-.9-1.3h0ZM418.9,300.5c-.9-.2-1.8-.2-2.8-.2-.9,0-1.7.1-2.5.6-.5.5-.8,1.2-.7,1.9,0,.7.2,1.4.6,1.9.5.5,1.2.7,1.9.6.7,0,1.3-.1,1.9-.4.5-.2,1-.6,1.2-1.1.2-.7.3-1.5.3-2.3v-.9ZM430.6,293.4c.9-.6,2-1.1,3-1.5.9-.3,1.8-.5,2.7-.5,1.1,0,2.2.3,3.1,1,.8,1,1.2,2.3,1,3.6-.1,3,0,5.9.2,8.9.2.3.5.5,1.1.5.1.3.2.6.2.9,0,.2,0,.4-.3.6-.3.1-.6.2-1,.1-1.4,0-2.3,0-2.6,0-.3,0-.5-.1-.7-.3-.1-.3-.2-.6-.2-.9v-6.7c.1-1.5-.1-2.9-.7-4.3-.5-.7-1.3-1.1-2.2-1.1-.8,0-1.6.2-2.2.7-.7.7-1.1,1.7-.9,2.6v3.3c0,1.8,0,3.5.1,5.1h1.7c.1.3.2.6.2.9,0,.2,0,.4-.2.6-.2.1-.4.2-.7.2h-6.1c-.1-.3-.2-.6-.2-.9,0-.2,0-.4.2-.5.2-.1.4-.2.6-.2h1.1c0-1.7.1-3.7.1-6.1.1-1.8,0-3.6-.4-5.3-.3-.5-.8-.8-1.4-.7-.1-.3-.2-.6-.2-.9,0-.2.1-.5.3-.5,1.4-.2,2.7-.2,4.1-.2,0,.6,0,1.2,0,1.8ZM446.5,291.7l1.3-4.4c.4.1.8.3,1.1.5.3.2.5.4.7.7.2.9.3,1.8.2,2.6v.6h5.1c.1.3.2.7.2,1.1,0,.2,0,.4-.2.6-.2.1-.4.2-.7.1h-4.4v7.4c0,1.2,0,2.4.5,3.5.3.5.8.9,1.5.9.8,0,1.7-.2,2.4-.6.2.3.3.7.3,1.1,0,.5-.4,1-.9,1.1-.9.2-1.9.3-2.9.3-1.1,0-2.2-.2-3.1-.9-.8-.9-1.1-2.1-1-3.2v-3.7c0-2,0-3.9-.2-5.8h-1.5c-.1-.4-.2-.7-.2-1.1,0-.2,0-.4.2-.6.2-.1.4-.2.6-.2h1.1ZM471.6,305.4c0-1.4.1-5.1.1-11.1s0-5.4-.1-6.5c-3.7.2-5.8.2-6.2.2-.3,0-.7,0-.9-.2-.2-.2-.3-.5-.3-.8,0-.7.2-1.3.4-1.9,2.5.5,5.1.8,7.7.7h9.7c.3,0,.7,0,1,.2.2.2.3.5.3.8,0,.7-.2,1.5-.6,2.1-2.2-.8-4.4-1.2-6.7-1.1h-.5c0,1.2-.1,3.4-.1,6.7,0,5.8,0,9.5.1,10.9h2.2c.1.3.2.6.2.9,0,.3-.1.6-.4.7,0,0-.2,0-.3,0h-7.6c-.1-.3-.2-.6-.2-1,0-.2,0-.3.2-.5.2-.1.3-.2.5-.1h1.7ZM486.4,291.7c0-.8,0-1.6,0-2.5,0-.6,0-1.2-.2-1.9,0-.3-.3-.6-.5-.7-.3-.1-.6-.2-1-.2-.1-.3-.2-.6-.2-.9,0-.3.1-.5.4-.6.8-.1,1.7-.2,2.6-.1.6,0,1.1,0,1.7.1.3,0,.5.2.5.4,0,.4,0,.7,0,1.1v6.6c.7-.5,1.5-.8,2.3-1.1.9-.3,1.9-.5,2.9-.5,1.1,0,2.1.3,3,1,.8,1,1.2,2.3,1,3.6-.1,3,0,5.9.2,8.9.2.3.5.5,1.1.5.1.3.2.6.2.9,0,.2,0,.4-.3.6-.3.1-.6.2-1,.1-1.4,0-2.3,0-2.6,0-.3,0-.5-.1-.7-.3-.1-.3-.2-.6-.2-.9v-6.7c.1-1.5-.1-2.9-.7-4.3-.5-.7-1.3-1.1-2.2-1.1-.8,0-1.6.2-2.2.7-.7.7-1.1,1.7-.9,2.6v3.3c0,1.8,0,3.5.1,5.1h1.7c.1.3.2.6.2.9,0,.2,0,.4-.2.6-.2.1-.4.2-.7.2h-6.1c-.1-.3-.2-.6-.2-.9,0-.2,0-.4.2-.5.2-.1.4-.2.6-.2h1.1c0-1.7.1-3.4.1-5.4v-8.3ZM510.2,305.2c1,0,2-.4,2.6-1.3.6-1.3.9-2.7.8-4.1,0-1.6-.2-3.3-.8-4.8-.5-1-1.6-1.6-2.8-1.6-1,0-2,.4-2.6,1.3-.6,1.3-.9,2.7-.8,4.1,0,1.6.2,3.2.8,4.7.5,1,1.6,1.6,2.8,1.6ZM509.6,307.3c-1.8.2-3.6-.5-5-1.8-1.2-1.5-1.7-3.5-1.6-5.4-.1-2.3.5-4.6,1.9-6.5,1.4-1.6,3.4-2.4,5.5-2.3,1.8-.2,3.6.5,5,1.8,1.2,1.5,1.7,3.5,1.6,5.4.1,2.3-.5,4.6-1.9,6.4-1.4,1.6-3.4,2.4-5.5,2.3h0ZM519.9,292.3c0-.2.1-.5.3-.5,1.4-.2,2.7-.2,4.1-.2,0,.6,0,1.3,0,1.9,1-.7,2.1-1.3,3.3-1.6.9-.3,1.9-.4,2.9-.5.2,0,.4,0,.6.1,0,0,.1.2.1.4,0,.5,0,1-.2,1.4,0,.4-.2.7-.5,1-.3.2-.6.3-1,.3-.3,0-.5,0-.8,0-.3-.3-.5-.5-.7-.9-.8,0-1.6.3-2.2.9-.7,1-1,2.3-.9,3.5,0,3.2,0,5.5.1,7.1h2.2c.1.3.2.6.2.9,0,.2,0,.4-.2.6-.2.1-.4.2-.7.2h-6.6c-.1-.3-.2-.6-.2-.9,0-.2,0-.4.2-.5.2-.1.4-.2.6-.2h1.1c0-1.5.1-3.6.1-6.1.1-1.8,0-3.6-.4-5.3-.3-.5-.8-.8-1.4-.7-.1-.3-.2-.6-.2-.9h0ZM537.6,293.4c.9-.6,2-1.1,3-1.5.9-.3,1.8-.5,2.7-.5,1.1,0,2.2.3,3.1,1,.8,1,1.2,2.3,1.1,3.6-.1,3,0,5.9.2,8.9.2.3.5.5,1.1.5.1.3.2.6.2.9,0,.2,0,.4-.3.6-.3.1-.6.2-1,.1-1.4,0-2.3,0-2.6,0-.3,0-.5-.1-.7-.3-.1-.3-.2-.6-.2-.9v-6.7c.1-1.5-.1-2.9-.7-4.3-.5-.7-1.3-1.1-2.2-1.1-.8,0-1.6.2-2.2.7-.7.7-1.1,1.7-.9,2.6v3.3c0,1.8,0,3.5.1,5.1h1.7c.1.3.2.6.2.9,0,.2,0,.4-.2.6-.2.1-.4.2-.7.2h-6.1c-.1-.3-.2-.6-.2-.9,0-.2,0-.4.2-.5.2-.1.4-.2.6-.2h1.1c0-1.7.1-3.7.1-6.1.1-1.8,0-3.6-.4-5.3-.3-.5-.8-.8-1.4-.7-.1-.3-.2-.6-.2-.9,0-.2.1-.5.3-.5,1.4-.2,2.7-.2,4.1-.2,0,.6,0,1.2,0,1.8h0ZM553.5,291.7l1.3-4.4c.4.1.8.3,1.1.5.3.2.5.4.7.7.2.9.3,1.8.2,2.6v.6h5.1c.1.3.2.7.2,1.1,0,.2,0,.4-.2.6-.2.1-.4.2-.7.1h-4.4v7.4c0,1.2,0,2.4.5,3.5.3.5.8.9,1.5.9.8,0,1.7-.2,2.4-.6.2.3.3.7.3,1.1,0,.5-.4,1-.9,1.1-.9.2-1.9.3-2.9.3-1.1,0-2.2-.2-3.1-.9-.8-.9-1.1-2.1-1-3.2v-3.7c0-2,0-3.9-.2-5.8h-1.5c-.1-.4-.2-.7-.2-1.1,0-.2,0-.4.2-.6.2-.1.4-.2.6-.2h1.1ZM571.4,305.2c1,0,2-.4,2.6-1.3.6-1.3.9-2.7.8-4.1,0-1.6-.2-3.3-.8-4.8-.5-1-1.6-1.6-2.8-1.6-1,0-2,.4-2.6,1.3-.6,1.3-.9,2.7-.8,4.1,0,1.6.2,3.2.8,4.7.5,1,1.6,1.6,2.8,1.6ZM570.8,307.3c-1.8.2-3.6-.5-5-1.8-1.2-1.5-1.7-3.5-1.6-5.4-.1-2.3.5-4.6,1.9-6.5,1.4-1.6,3.4-2.4,5.5-2.3,1.8-.2,3.6.5,5,1.8,1.2,1.5,1.7,3.5,1.6,5.4.1,2.3-.5,4.6-1.9,6.4-1.4,1.6-3.4,2.4-5.5,2.3h0ZM585.5,293.4c.9-.6,2-1.1,3-1.5.9-.3,1.8-.5,2.7-.5,1.1,0,2.2.3,3.1,1,.8,1,1.2,2.3,1,3.6-.1,3,0,5.9.2,8.9.2.3.5.5,1.1.5.1.3.2.6.2.9,0,.2,0,.4-.3.6-.3.1-.6.2-1,.1-1.4,0-2.3,0-2.6,0-.3,0-.5-.1-.7-.3-.1-.3-.2-.6-.2-.9v-6.7c.1-1.5-.1-2.9-.7-4.3-.5-.7-1.3-1.1-2.2-1.1-.8,0-1.6.2-2.2.7-.7.7-1.1,1.7-.9,2.6v3.3c0,1.8,0,3.5.1,5.1h1.7c.1.3.2.6.2.9,0,.2,0,.4-.2.6-.2.1-.4.2-.6.2h-6.1c-.1-.3-.2-.6-.2-.9,0-.2,0-.4.2-.5.2-.1.4-.2.6-.2h1.1c0-1.7.1-3.7.1-6.1.1-1.8,0-3.6-.4-5.3-.3-.5-.8-.8-1.4-.7-.1-.3-.2-.6-.2-.9,0-.2.1-.5.3-.5,1.4-.2,2.7-.2,4.1-.2,0,.6,0,1.2,0,1.8Z"/>
  <path class="st2" d="M664.8,98.9h-5.9v1c2.2.3,2.6.8,2.6,2.5v16.7c0,2.1-.4,2.6-2.8,2.9v1h7.2v-1c-2.5-.3-2.8-.7-2.8-2.9l-.3-16.9,15.1,20.7h2.7v-20.3c.1-2.1.4-2.6,2.8-2.9v-1h-7.2v1c2.5.2,2.8.7,2.8,2.9l.3,16-14.5-19.9ZM689.9,123.4c2.1,0,4.1-.8,5.4-2.4.3,1.5,1.7,2.5,3.2,2.4.9,0,1.9-.2,2.6-.8v-.9c-.3.1-.6.2-.9.1-1,0-1.8-.6-1.8-2.1v-8.4c0-3.5-2.4-5.1-6.1-5.1s-6.7,1.6-6.7,3.8c0,1,.8,1.8,1.8,1.8,0,0,0,0,0,0,1,0,1.8-.7,1.8-1.7,0,0,0,0,0,0,0-.8-.5-1.4-1.2-1.7.9-.5,2-.8,3-.7,2.4,0,4.1,1.1,4.1,4.1v1.5l-3.8.8c-4.5,1-6.4,2.5-6.4,5.2,0,2.4,2.1,4.2,4.8,4.2h0ZM688.4,118.6c0-1.9,1.2-3,4.5-3.7l2.3-.5v5.5c-.8,1.1-2.2,1.8-3.6,1.7-1.6.2-3-1-3.2-2.6,0-.1,0-.2,0-.4ZM704.4,118.5c0,3.6,2.1,4.8,4.4,4.8,1.5,0,3-.5,4.1-1.5v-1c-.7.5-1.5.7-2.4.7-1.6,0-2.8-.9-2.8-3.6v-10.1h4.9c0,.1,0-1.4,0-1.4h-4.9c0,.1,0-3.2,0-3.2h-.5l-5,4v.7h2.2v10.5ZM717.8,103c1.1,0,1.9-.9,1.9-2,0-1.1-.9-1.9-2-1.9-1.1,0-1.9.9-1.9,1.9,0,1.1.9,1.9,2,1.9h0ZM719.8,106.4l-5.6.7v.9l1.2.3c1,.3,1.1.5,1.1,1.4v10.9c0,1.1-.3,1.3-2.3,1.6v1h7.8v-1c-2-.2-2.3-.5-2.3-1.6v-14.1ZM732.8,123.4c4.6.1,8.4-3.5,8.5-8.1,0-.2,0-.4,0-.5.2-4.5-3.3-8.3-7.7-8.5-.2,0-.4,0-.6,0-4.6-.1-8.4,3.5-8.5,8.1,0,.2,0,.4,0,.6-.2,4.5,3.3,8.3,7.7,8.5.2,0,.4,0,.6,0ZM733,122c-2.9,0-4.9-2.9-4.9-7.4s1.8-7,4.7-7,4.9,2.9,4.9,7.4c0,4.3-1.8,7-4.7,7h0ZM749.4,106.4l-5.5.7v.9l1.2.3c1,.3,1.1.5,1.1,1.4v10.9c0,1.1-.3,1.3-2.3,1.6v1h7.7v-1c-1.9-.2-2.1-.5-2.1-1.5v-10.6c.9-1.3,2.3-2,3.9-1.9,2.4,0,3.9,1.4,3.9,4.2v8.3c0,1-.2,1.2-2.1,1.5v1h7.7v-1c-2-.2-2.3-.5-2.3-1.6v-9c0-3.4-2.3-5.2-5.7-5.2-2.2-.1-4.3,1-5.5,2.8v-2.7ZM769.9,123.4c2.1,0,4.1-.8,5.4-2.4.3,1.5,1.7,2.5,3.2,2.4.9,0,1.9-.2,2.6-.8v-.9c-.3.1-.6.2-.9.1-1,0-1.8-.6-1.8-2.1v-8.4c0-3.5-2.4-5.1-6.1-5.1s-6.7,1.6-6.7,3.8c0,1,.8,1.8,1.8,1.8,0,0,0,0,0,0,1,0,1.8-.7,1.8-1.7,0,0,0,0,0,0,0-.8-.5-1.4-1.2-1.7.9-.5,2-.8,3-.7,2.4,0,4.1,1.1,4.1,4.1v1.5l-3.8.8c-4.5,1-6.4,2.5-6.4,5.2,0,2.4,2.1,4.2,4.8,4.2h0ZM768.4,118.6c0-1.9,1.2-3,4.5-3.7l2.3-.5v5.5c-.8,1.1-2.2,1.8-3.6,1.7-1.6.2-3-1-3.2-2.6,0-.1,0-.2,0-.4ZM788,98.3l-5.6.7v.9l1.2.3c1,.3,1.1.5,1.1,1.4v19c0,1.1-.3,1.3-2.3,1.6v1h7.8v-1c-2-.2-2.3-.5-2.3-1.6v-22.2ZM820.2,116.1c0-3.7-3.1-5.8-7.5-6.1,3.5-.4,6.3-2.2,6.3-5.3s-3.3-5.8-8.9-5.8h-9.6v1c2.4.3,2.7.6,2.7,2.1v18c0,1.5-.3,1.8-2.7,2.1v1h9.7c5.6,0,10.2-2.3,10.2-6.9ZM815.2,105.1c0,2.9-1.9,4.7-5.5,4.7h-3.1v-9.7h2.4c4.5.2,6.2,2.2,6.2,5h0ZM816.3,116.4c0,3.6-2.8,5.3-7.3,5.4h-2.4c0,0,0-10.9,0-10.9h3.1c4.3,0,6.6,2,6.6,5.4h0ZM828.1,123.4c2.1,0,4.1-.8,5.4-2.4.3,1.5,1.7,2.5,3.2,2.4.9,0,1.9-.2,2.6-.8v-.9c-.3.1-.6.2-.9.1-1,0-1.8-.6-1.8-2.1v-8.4c0-3.5-2.4-5.1-6.1-5.1s-6.7,1.6-6.7,3.8c0,1,.8,1.8,1.8,1.8,0,0,0,0,0,0,1,0,1.8-.7,1.8-1.7,0,0,0,0,0,0,0-.8-.5-1.4-1.2-1.7.9-.5,2-.8,3-.7,2.4,0,4.1,1.1,4.1,4.1v1.5l-3.8.8c-4.5,1-6.4,2.5-6.4,5.2,0,2.4,2.1,4.2,4.8,4.2h0ZM826.6,118.6c0-1.9,1.2-3,4.5-3.7l2.3-.5v5.5c-.8,1.1-2.2,1.8-3.6,1.7-1.6.2-3-1-3.2-2.6,0-.1,0-.2,0-.4h0ZM846.1,106.4l-5.5.7v.9l1.2.3c1,.3,1.1.5,1.1,1.4v10.9c0,1.1-.3,1.3-2.3,1.6v1h7.7v-1c-1.9-.2-2.1-.5-2.1-1.5v-10.6c.9-1.3,2.3-2,3.9-1.9,2.4,0,3.9,1.4,3.9,4.2v8.3c0,1-.2,1.2-2.1,1.5v1h7.7v-1c-2-.2-2.3-.5-2.3-1.6v-9c0-3.4-2.3-5.2-5.7-5.2-2.2-.1-4.3,1-5.5,2.8v-2.7ZM874.3,123h4.5v-.9c-1.2-.3-2-.9-3.3-3l-4.1-6.7,1.8-1.7c2.8-2.6,3.5-3,5.2-3.2v-1h-6.8v1c2.1.3,2.4.7.9,2.3l-3.3,3.5h-2.3s0-15.1,0-15.1l-5.6.7v.9l1.2.3c1,.3,1.1.5,1.1,1.4v19c0,1.1-.3,1.3-2.3,1.6v1h7.7v-1c-1.9-.2-2.1-.5-2.1-1.5v-6h2.3l5.2,8.5ZM704.1,141.7c-.2-5.7,1.8-11.2,5.5-15.5h-1.3c-4.7,3.8-7.3,9.5-7.3,15.5,0,6.9,3.4,12.7,7.3,15.5h1.3c-3.7-4.3-5.6-9.9-5.5-15.5ZM710.4,140.4c-.3,6.6,4.8,12.3,11.5,12.6.3,0,.6,0,1,0,2.8,0,5.5-.6,7.9-2l.2-4.9h-.9c-1,4.2-3.4,5.5-6.9,5.5-5.3,0-8.7-5-8.7-11.6s3.2-10.6,8.7-10.6,5.9,1.5,6.8,5.4h.9l-.2-4.9c-1.4-1.1-4.1-1.9-7.8-1.9-7.1,0-12.4,4.8-12.4,12.4h0ZM738.8,152.8c2.1,0,4.1-.8,5.4-2.4.3,1.5,1.7,2.5,3.2,2.4.9,0,1.9-.2,2.6-.8v-.9c-.3.1-.6.2-.9.1-1,0-1.8-.6-1.8-2.1v-8.4c0-3.5-2.4-5.1-6.1-5.1s-6.7,1.6-6.7,3.8c0,1,.8,1.8,1.8,1.8h0c1,0,1.8-.7,1.8-1.7,0,0,0,0,0,0,0-.8-.5-1.4-1.2-1.7.9-.5,2-.8,3-.7,2.4,0,4.1,1.1,4.1,4.1v1.5l-3.8.8c-4.5,1-6.4,2.5-6.4,5.2,0,2.4,2.1,4.2,4.8,4.2ZM737.3,148.1c0-1.9,1.2-3,4.5-3.7l2.3-.5v5.5c-.8,1.1-2.2,1.8-3.6,1.7-1.6.2-3-1-3.2-2.6,0-.1,0-.2,0-.4ZM756.8,135.8l-5.5.7v.9l1.2.3c1,.3,1.1.5,1.1,1.4v10.9c0,1.1-.3,1.3-2.3,1.6v1h7.7v-1c-1.9-.2-2.1-.5-2.1-1.5v-10.6c.9-1.3,2.3-2,3.9-1.9,2.4,0,3.9,1.4,3.9,4.2v8.3c0,1-.2,1.2-2.1,1.5v1h7.7v-1c-2-.2-2.3-.5-2.3-1.6v-9c0-3.4-2.3-5.2-5.7-5.2-2.2-.1-4.3,1-5.5,2.8v-2.7ZM777.3,152.8c2.1,0,4.1-.8,5.4-2.4.3,1.5,1.7,2.5,3.2,2.4.9,0,1.9-.2,2.6-.8v-.9c-.3.1-.6.2-.9.1-1,0-1.8-.6-1.8-2.1v-8.4c0-3.5-2.4-5.1-6.1-5.1s-6.7,1.6-6.7,3.8c0,1,.8,1.8,1.8,1.8h0c1,0,1.8-.7,1.8-1.7,0,0,0,0,0,0,0-.8-.5-1.4-1.2-1.7.9-.5,2-.8,3-.7,2.4,0,4.1,1.1,4.1,4.1v1.5l-3.8.8c-4.5,1-6.4,2.5-6.4,5.2,0,2.4,2.1,4.2,4.9,4.2ZM775.8,148.1c0-1.9,1.2-3,4.5-3.7l2.3-.5v5.5c-.8,1.1-2.2,1.8-3.6,1.7-1.6.2-3-1-3.2-2.6,0-.1,0-.2,0-.4ZM790.5,144.4c0,5.3,3.2,8.4,6.8,8.4,2.2,0,4.4-1,5.5-3v2.8l5.5-.7v-.9l-1.2-.3c-1-.3-1.1-.5-1.1-1.4v-21.7l-5.6.7v.9l1.2.3c.9.3,1.1.5,1.1,1.4v6.6c-1.1-1.2-2.7-1.9-4.4-1.8-4.4,0-7.9,3.5-7.9,8.8h0ZM793.9,144.1c0-4.3,2.1-7,5.2-7,1.5,0,2.9.6,3.7,1.8v10c-.8,1.3-2.3,2.1-3.8,2-3,0-5-2.6-5-6.9h0ZM815.5,152.8c2.1,0,4.1-.8,5.4-2.4.3,1.5,1.7,2.5,3.2,2.4.9,0,1.9-.2,2.6-.8v-.9c-.3.1-.6.2-.9.1-1,0-1.8-.6-1.8-2.1v-8.4c0-3.5-2.4-5.1-6.1-5.1s-6.7,1.6-6.7,3.8c0,1,.8,1.8,1.8,1.8,0,0,0,0,0,0,1,0,1.8-.7,1.8-1.7,0,0,0,0,0,0,0-.8-.5-1.4-1.2-1.7.9-.5,2-.8,3-.7,2.4,0,4.1,1.1,4.1,4.1v1.5l-3.8.8c-4.5,1-6.4,2.5-6.4,5.2,0,2.4,2.1,4.2,4.8,4.2h0ZM814,148.1c0-1.9,1.2-3,4.5-3.7l2.3-.5v5.5c-.8,1.1-2.2,1.8-3.6,1.7-1.6.1-3-1-3.2-2.6,0-.1,0-.2,0-.4h0ZM832.8,141.7c.2,5.7-1.8,11.2-5.5,15.5h1.3c4.7-3.8,7.3-9.5,7.3-15.5,0-6.9-3.4-12.7-7.3-15.5h-1.3c3.7,4.3,5.6,9.9,5.5,15.5Z"/>
  <path class="st3" d="M679.6,54.7v-24.1h3.1v21.5h12.6v2.7h-15.8ZM709.5,50.2h2.9v.2c0,.9-.4,1.7-.9,2.3-.6.8-1.5,1.4-2.4,1.8-1.1.4-2.3.6-3.5.6-2.3.1-4.6-.8-6.1-2.6-1.5-1.8-2.2-4.1-2.1-6.5,0-2.4.7-4.8,2.3-6.6,1.5-1.7,3.6-2.7,5.9-2.6,1.2,0,2.5.3,3.6.8,1.1.6,2,1.5,2.5,2.7.7,1.6,1,3.3.9,5.1v.9h-12.3c0,1.7.5,3.3,1.5,4.6,1,1.2,2.6,1.9,4.2,1.8,1,0,2-.2,2.8-.7.5-.4.9-1,.9-1.6v-.2ZM700.3,44.2h9.4v-.4c0-.8-.2-1.6-.6-2.3-.3-.7-.9-1.3-1.6-1.7-.7-.4-1.6-.6-2.4-.6-1.1,0-2.2.5-3,1.3-1,1-1.6,2.3-1.8,3.7ZM719.3,54.7h-2.9v-17.4h2.9v3c.5-.8,1.1-1.5,1.8-2.1.5-.4,1.1-.8,1.8-1,.7-.2,1.4-.4,2.1-.4,1,0,2,.2,2.9.7.9.4,1.6,1.1,2,2,.6,1.3.8,2.7.7,4.2v11h-2.9v-9.8c0-1.1,0-2.2-.3-3.3-.2-.6-.6-1.2-1.2-1.5-.6-.4-1.3-.6-1.9-.5-.9,0-1.7.3-2.4.7-.8.5-1.4,1.2-1.8,2.1-.5,1.2-.8,2.5-.7,3.8v8.5ZM746.9,29.6h2.9v25.1h-2.9v-3c-.4.9-1,1.7-1.7,2.3-.6.4-1.2.7-1.9.9-.7.2-1.4.2-2.1.2-1.3,0-2.5-.4-3.6-1.1-1.2-.8-2.1-1.9-2.6-3.2-.6-1.5-.9-3.2-.9-4.8,0-2.3.6-4.6,1.9-6.6,1.2-1.7,3.2-2.7,5.3-2.6.7,0,1.4,0,2.1.3.6.2,1.2.5,1.7.9.7.6,1.3,1.4,1.7,2.2v-10.7ZM746.9,46c0-1.7-.4-3.4-1.3-4.8-.8-1.2-2.1-1.9-3.6-1.9-1.4,0-2.7.6-3.5,1.7-1,1.5-1.5,3.2-1.4,5,0,2.6.4,4.4,1.3,5.4,1.6,1.7,4.1,2,6,.7.8-.6,1.5-1.5,1.8-2.5.4-1.2.6-2.4.6-3.6h0ZM754.2,37.3h2.9v17.4h-2.9v-17.4ZM754.2,33.4v-2.9h2.9v2.9h-2.9ZM764.5,54.7h-2.9v-17.4h2.9v3c.5-.8,1.1-1.5,1.8-2.1.5-.4,1.1-.8,1.8-1,.7-.2,1.4-.4,2.1-.4,1,0,2,.2,2.9.7.9.4,1.6,1.1,2,2,.6,1.3.8,2.7.7,4.2v11h-2.9v-9.8c0-1.1,0-2.2-.3-3.3-.2-.6-.6-1.2-1.2-1.5-.6-.4-1.3-.6-1.9-.5-.9,0-1.7.3-2.4.7-.8.5-1.4,1.2-1.8,2.1-.5,1.2-.8,2.5-.7,3.8v8.5ZM792.2,51c-.5,1.1-1.3,2.1-2.3,2.8-1,.6-2.2.9-3.4.9-2,0-3.9-.9-5.1-2.4-1.4-1.8-2.1-4.1-2-6.4,0-1.6.3-3.3.9-4.8.5-1.3,1.4-2.4,2.5-3.2,1.1-.7,2.5-1.1,3.8-1,1,0,2,.2,2.9.6,1.1.6,2,1.5,2.6,2.6v-2.8h2.9v14.2c0,3.6-.4,5.9-1.1,7.1-.7,1.1-1.7,2-2.8,2.5-1.3.6-2.6.9-4,.8-1.3,0-2.6-.2-3.8-.6-1-.3-1.9-.9-2.6-1.7-.6-.6-.9-1.5-.9-2.3v-.3h2.9v.2c0,.8.5,1.5,1.2,1.8,1,.5,2.1.7,3.2.7.9,0,1.8-.2,2.7-.5.8-.4,1.4-1,1.8-1.7.6-1.4.8-2.9.7-4.4v-2.1ZM792.2,45.5c0-1.6-.4-3.2-1.4-4.5-1.4-1.9-4.1-2.3-6-.9-.3.3-.6.5-.9.9-1,1.4-1.5,3.2-1.4,4.9,0,1.2.2,2.4.5,3.5.3.9.9,1.7,1.7,2.3.8.5,1.6.8,2.5.8,1.4,0,2.8-.7,3.5-1.9,1-1.5,1.4-3.2,1.4-5h0ZM806,54.7v-21.7h-8.2v-2.4h19.4v2.4h-8.1v21.7h-3.1ZM822.9,54.7h-2.9v-17.4h2.9v3.1c.4-.8.9-1.5,1.6-2.1.5-.5,1.1-.8,1.8-1.1.6-.2,1.3-.4,1.9-.4.5,0,1.1,0,1.5.2v3c-.7-.3-1.4-.5-2.2-.5-1.2,0-2.3.6-3.2,1.4-1,.9-1.5,2.6-1.5,5.1v8.6ZM843.7,50.2h2.9v.2c0,.9-.4,1.7-.9,2.3-.6.8-1.5,1.4-2.4,1.8-1.1.4-2.3.6-3.5.6-2.3.1-4.6-.8-6.1-2.6-1.5-1.8-2.2-4.1-2.1-6.5,0-2.4.7-4.8,2.3-6.6,1.5-1.7,3.6-2.7,5.9-2.6,1.2,0,2.5.3,3.6.8,1.1.6,2,1.5,2.5,2.7.7,1.6,1,3.3.9,5.1v.9h-12.3c0,1.7.5,3.3,1.5,4.6,1,1.2,2.6,1.9,4.2,1.8,1,0,2-.2,2.8-.7.5-.4.9-1,.9-1.6v-.2ZM834.5,44.2h9.4v-.4c0-.8-.2-1.6-.6-2.3-.3-.7-.9-1.3-1.6-1.7-.7-.4-1.6-.6-2.4-.6-1.1,0-2.2.5-3,1.3-1,1-1.6,2.3-1.8,3.7ZM862,50.2h2.9v.2c0,.9-.4,1.7-.9,2.3-.6.8-1.5,1.4-2.4,1.8-1.1.4-2.3.6-3.5.6-2.3.1-4.6-.8-6.1-2.6-1.5-1.8-2.2-4.1-2.1-6.5,0-2.4.7-4.8,2.3-6.6,1.5-1.7,3.6-2.7,5.9-2.6,1.2,0,2.5.3,3.6.9,1.1.6,2,1.5,2.5,2.7.7,1.6,1,3.3.9,5.1v.9h-12.3c0,1.7.5,3.3,1.5,4.6,1,1.2,2.6,1.9,4.2,1.8,1,0,2-.2,2.8-.7.5-.4.9-1,.9-1.6v-.2ZM852.8,44.2h9.4v-.4c0-.8-.2-1.6-.6-2.3-.3-.7-.9-1.3-1.6-1.7-.7-.4-1.6-.6-2.4-.5-1.1,0-2.2.5-3,1.3-1,1-1.6,2.3-1.8,3.7Z"/>
</svg>