<?xml version="1.0" encoding="UTF-8"?>
<svg id="Layer_1" xmlns="http://www.w3.org/2000/svg" version="1.1" viewBox="0 0 885 430">
  <!-- Generator: Adobe Illustrator 29.7.1, SVG Export Plug-In . SVG Version: 2.1.1 Build 8)  -->
  <defs>
    <style>
      .st0 {
        fill: #c2c2c2;
      }

      .st1 {
        fill: #c4c4c4;
      }

      .st2 {
        fill: #949494;
      }

      .st3 {
        fill: #7f7f7f;
      }
    </style>
  </defs>
  <path class="st3" d="M59.2,314.9c1.2,0,2.2-.2,3.2-.8.8-.5,1.5-1.2,2.1-2,.6-.8.9-1.9,1.2-2.8.2-1.1.4-2.2.4-3.3v-14h5.3v14c0,1.8-.2,3.5-.7,5.3-.5,1.5-1.2,3.1-2.1,4.4-.9,1.3-2.2,2.2-3.8,2.9-1.8.8-3.7,1.2-5.5,1.1-1.9,0-3.9-.4-5.7-1.2-1.4-.7-2.7-1.8-3.8-3.1-.9-1.3-1.7-2.8-2.1-4.4-.5-1.6-.6-3.4-.6-5.2v-14h5.4v14c0,1.2.1,2.2.4,3.4.2,1.1.6,2,1.2,2.8,1.1,1.9,3.1,2.9,5.2,2.8ZM93.1,299.2c-.4-.2-.6-.5-.9-.7-.6-.4-1.2-.7-1.8-.9-.7-.4-1.5-.6-2.2-.7-.8-.2-1.6-.4-2.5-.4-1.2-.1-2.4.2-3.3.8-.7.6-1.2,1.4-1.1,2.2,0,.5.1.9.4,1.4.4.5.7.7,1.2.9.6.4,1.3.6,2,.8.8.2,1.6.5,2.7.7,1.3.4,2.6.7,3.7,1.2,1.1.4,2,.9,2.8,1.5.7.6,1.3,1.4,1.8,2.2.5,1.1.7,2.1.6,3.2,0,1.3-.2,2.6-.8,3.8-.5,1.1-1.3,1.9-2.2,2.6-.9.7-2.1,1.2-3.3,1.4-1.3.4-2.6.5-3.9.5-2.1,0-4.1-.4-6.1-.9s-3.8-1.5-5.4-2.6l2.4-4.6c.4.4.8.7,1.3.9.7.5,1.4.8,2.1,1.2.9.4,1.8.7,2.7.9,1.1.2,2,.4,3.1.4,2.9,0,4.5-.9,4.5-2.8s-.1-1.1-.5-1.5c-.4-.5-.9-.8-1.4-1.1-.7-.4-1.5-.6-2.2-.8-.8-.2-1.9-.6-2.9-.8-1.2-.4-2.4-.7-3.4-1.2-.9-.4-1.6-.9-2.5-1.5-.6-.6-1.2-1.3-1.4-2-.4-.8-.5-1.8-.5-2.7s.2-2.6.8-3.8c.5-1.1,1.2-2,2.1-2.7.9-.7,2-1.3,3.2-1.7,1.3-.4,2.6-.6,3.9-.6,1.9,0,3.7.2,5.4.9,1.5.6,2.9,1.3,4.2,2.1l-2.4,4.2ZM115.2,301.9v17.7h-5.4v-27.6h4.1l14.4,18.2v-18h5.4v27.5h-4.4l-14.1-17.7ZM147.4,292h4.7l10.5,27.6h-5.5l-2.6-6.8h-9.7l-2.5,6.8h-5.5l10.6-27.6ZM153.6,308.9l-3.8-10.8-4,10.8h7.8ZM166.1,292l7.4,20.9,7.4-20.9h5.7l-10.7,27.6h-4.5l-10.8-27.6h5.5ZM192.7,292l6.8,13.3,7-13.3h5.8l-10,17.9v9.7h-5.3v-9.7l-10-17.9h5.8ZM215.6,337.6v-5.2h5.2v5.2h-5.2ZM62.1,337.6v-5.2h5.2v5.2h-5.2ZM91.1,361.1c-.9,0-1.9-.1-2.7-.5-.8-.4-1.5-.7-2.2-1.4-.6-.6-1.1-1.3-1.4-2-.4-.8-.6-1.6-.5-2.6,0-.9.2-1.9.6-2.7.5-.8,1.1-1.5,1.8-2.1.8-.6,1.8-1.1,2.7-1.3,1.2-.4,2.4-.5,3.5-.5s1.8.1,2.7.2c.8.1,1.5.4,2.4.7v-1.2c.1-1.2-.4-2.2-1.2-3.1-.9-.8-2.1-1.2-3.4-1.1-1.1,0-2.1.2-3.2.6-1.2.5-2.2,1.1-3.2,1.8l-1.6-3.3c2.5-1.6,5.4-2.6,8.5-2.6,2.5-.1,4.9.6,6.8,2.1,1.6,1.6,2.6,3.9,2.5,6.2v6.4c0,.4.1.8.2,1.2.2.2.6.4.9.4v4.5c-.7.1-1.5.2-2.2.2s-1.7-.2-2.2-.7c-.6-.5-.9-1.1-.9-1.8v-1.2c-.9,1.2-2.1,2.1-3.4,2.7-1.4.7-2.8.9-4.4.9ZM92.7,357.4c.8,0,1.8-.1,2.5-.5.7-.2,1.3-.7,1.9-1.3.5-.4.8-.8.8-1.5v-2.4c-.7-.2-1.3-.5-2-.6-.7-.1-1.4-.2-2.1-.2-1.2,0-2.4.2-3.3.9-.8.5-1.3,1.4-1.3,2.4s.4,1.6,1.1,2.2c.7.7,1.5.9,2.5.9ZM116.4,361.1c-2.7,0-5.2-1.1-7-3.1-.8-.9-1.5-2.1-2-3.4-.5-1.3-.7-2.7-.7-4.1s.2-2.8.7-4.1c.5-1.2,1.1-2.4,1.9-3.3.8-.9,1.8-1.8,2.8-2.2,1.2-.6,2.4-.8,3.7-.8s2.8.4,4,1.1c1.2.7,2.1,1.6,2.8,2.8v-11.5h5.2v22.4c0,.4.1.8.2,1.2.2.2.6.4.9.4v4.5c-.7.1-1.4.2-2.2.2s-1.7-.2-2.2-.7c-.6-.5-.9-1.1-1.1-1.9v-1.3c-.8,1.3-1.9,2.2-3.2,2.9-1.1.7-2.5,1.1-3.9,1.1ZM117.8,356.8c.5,0,1.1-.1,1.5-.2.5-.1.9-.4,1.4-.7.5-.4.8-.7,1.2-1.1.4-.4.6-.8.8-1.4v-4.8c-.2-.6-.5-1.1-.8-1.5-.4-.5-.8-.9-1.3-1.3-.5-.4-.9-.6-1.5-.8-.5-.2-1.1-.4-1.5-.4-.7,0-1.5.1-2.1.5-.7.4-1.2.8-1.7,1.4-.5.6-.8,1.3-1.1,2-.2.7-.4,1.5-.4,2.4s.1,1.6.5,2.4c.2.7.7,1.3,1.2,1.9.5.6,1.1.9,1.8,1.3.4.2,1.2.5,2,.5ZM142.5,361.1c-1.5,0-3.1-.2-4.5-.8-2.6-1.1-4.6-3.1-5.5-5.7-.5-1.3-.7-2.6-.7-4s.2-2.8.7-4.1c.5-1.3,1.2-2.4,2.1-3.4.9-.9,2.1-1.8,3.4-2.4,1.4-.6,2.9-.8,4.5-.8s3.1.2,4.5.8c1.3.6,2.4,1.3,3.3,2.2.9.9,1.6,2.1,2.1,3.3.5,1.3.7,2.6.7,4v.9c0,.2,0,.5-.1.8h-15.8c.1.7.2,1.4.6,2.1.6,1.2,1.6,2.1,2.8,2.6.6.2,1.3.4,1.9.4,1.1,0,2-.2,2.9-.7.8-.5,1.5-1.2,1.9-2l4.5,1.3c-.8,1.6-2,2.9-3.7,3.9-1.6,1.1-3.7,1.7-5.7,1.5ZM147.7,348.9c-.1-1.4-.7-2.7-1.6-3.7-2-1.9-5.2-1.9-7.2,0-.5.5-.8.9-1.2,1.6-.4.6-.5,1.3-.5,2h10.5ZM156.3,332.4h5.2v21.8c0,.6.1,1.3.6,1.8.4.5.9.7,1.5.6.4,0,.7,0,1.1-.1.4-.1.7-.2,1.1-.4l.7,4c-.8.4-1.6.6-2.5.8-.8.1-1.7.2-2.5.2-1.4.1-2.7-.4-3.8-1.3-.9-.9-1.4-2.4-1.3-3.8v-23.7ZM180.8,361.1c-1.4,0-2.9-.4-4.2-1.1-1.2-.7-2.1-1.6-2.8-2.9v11.9h-5.2v-28.6h4.6v3.5c.7-1.2,1.8-2.1,2.9-2.8,1.3-.7,2.7-1.1,4.1-1.1s2.6.2,3.8.8c1.2.6,2.1,1.3,3.1,2.2.8.9,1.5,2.1,2,3.3.5,1.3.7,2.7.7,4s-.2,2.8-.7,4.1c-.4,1.2-1.1,2.4-1.9,3.4-.8.9-1.8,1.8-2.8,2.2-1.1.7-2.2.9-3.5.9ZM179.1,356.8c.7,0,1.5-.1,2.1-.5.7-.4,1.2-.8,1.6-1.4.5-.6.8-1.3,1.1-2,.2-.7.4-1.5.4-2.4s-.1-1.6-.5-2.4c-.2-.7-.7-1.4-1.2-1.9-.5-.6-1.1-.9-1.8-1.3-.7-.4-1.4-.5-2.2-.5s-1.1.1-1.5.2c-.5.1-.9.5-1.4.7-.5.4-.8.7-1.2,1.1-.4.4-.6.8-.8,1.4v4.8c.5,1.2,1.2,2.1,2.1,2.9,1.1.6,2.2,1.1,3.3,1.1ZM212.3,360.8h-5.2v-11.4c.1-1.3-.2-2.5-.9-3.5-.6-.8-1.5-1.2-2.5-1.2s-1.1.1-1.5.4c-.6.2-1.1.5-1.5.8-.5.4-.9.8-1.3,1.3-.4.5-.7,1.1-.8,1.8v11.9h-5.2v-28.4h5.2v11.8c.7-1.3,1.8-2.4,3.1-3.1,1.3-.7,2.8-1.1,4.2-1.1s2.2.2,3.2.7c.8.5,1.4,1.1,1.9,1.8.5.8.8,1.7.9,2.6.2.9.2,2,.2,2.9l.2,12.7ZM216.8,360.8v-20.4h5.2v20.4h-5.2ZM232.3,361.1c-.9,0-1.9-.1-2.7-.5-.8-.4-1.5-.7-2.2-1.4-.6-.6-1.1-1.3-1.4-2-.4-.8-.6-1.6-.5-2.6,0-.9.2-1.9.6-2.7.5-.8,1.1-1.5,1.8-2.1.8-.6,1.8-1.1,2.7-1.3,1.2-.4,2.4-.5,3.5-.5s1.8.1,2.7.2c.8.1,1.5.4,2.4.7v-1.2c.1-1.2-.4-2.2-1.2-3.1-.9-.8-2.1-1.2-3.4-1.1-1.1,0-2.1.2-3.2.6-1.2.5-2.2,1.1-3.2,1.8l-1.7-3.3c2.5-1.6,5.4-2.6,8.5-2.6,2.5-.1,4.9.6,6.8,2.1,1.6,1.6,2.6,3.9,2.5,6.2v6.4c0,.4.1.8.2,1.2.2.2.6.4.9.4v4.5c-.7.1-1.5.2-2.2.2s-1.6-.2-2.2-.7c-.6-.5-.9-1.1-.9-1.8v-1.2c-.9,1.2-2.1,2.1-3.4,2.7-1.5.7-2.9.9-4.4.9ZM233.7,357.4c.8,0,1.8-.1,2.5-.5.7-.2,1.3-.7,1.9-1.3.5-.4.8-.8.8-1.5v-2.4c-.7-.2-1.3-.5-2-.6s-1.4-.2-2.1-.2c-1.2,0-2.4.2-3.3.9-.8.5-1.3,1.4-1.3,2.4s.4,1.6,1.1,2.2c.7.7,1.5.9,2.5.9ZM257.3,347.2c0,1.3-.1,2.7-.5,4-.4,1.3-.7,2.7-1.3,4-.5,1.3-1.2,2.6-1.9,3.9-.7,1.3-1.4,2.5-2.2,3.8l-3.8-1.9c1.3-2.2,2.5-4.6,3.4-7,.8-2.1,1.3-4.2,1.3-6.5s-.2-2.8-.6-4.1c-.7-2.7-1.6-5.3-2.9-7.7-.5-.8-.9-1.8-1.4-2.6l4-1.6c.8,1.4,1.5,2.7,2.2,4,.7,1.3,1.3,2.6,1.9,4,.5,1.3.9,2.6,1.2,4,.5,1.1.6,2.4.6,3.7ZM2.5,347.2c0-1.3.1-2.7.5-3.9.4-1.3.7-2.7,1.3-4,.6-1.4,1.2-2.7,1.9-4,.7-1.3,1.4-2.7,2.2-4l4,1.7c-.6.8-1.1,1.6-1.4,2.6-1.3,2.5-2.2,5.1-2.9,7.7-.4,1.3-.6,2.7-.6,4.1,0,2.2.5,4.5,1.3,6.5.9,2.4,2.1,4.7,3.4,7l-3.8,1.9c-.8-1.2-1.5-2.5-2.2-3.7-.7-1.3-1.3-2.6-1.9-3.9-.5-1.3-.9-2.6-1.3-4-.2-1.2-.5-2.5-.5-3.9ZM16.2,360.8v-27.6h11.7c1.2,0,2.5.2,3.5.8,1.1.5,2,1.2,2.8,2.1.8.8,1.4,1.9,1.9,2.9.5,1.1.7,2.2.7,3.3s-.2,2.4-.6,3.4c-.4,1.1-.9,2.1-1.8,2.9-.7.8-1.7,1.5-2.7,2-1.1.5-2.2.8-3.5.8h-6.5v9.3h-5.5ZM21.5,346.9h6.2c.9,0,1.9-.5,2.5-1.2.7-.9,1.1-2.1.9-3.3,0-.6-.1-1.3-.4-1.9-.2-.5-.5-.9-.8-1.4-.4-.4-.7-.7-1.2-.8-.5-.2-.9-.2-1.4-.2h-6v8.8ZM58.8,360.8h-5.2v-11.4c.1-1.3-.2-2.5-.9-3.5-.6-.8-1.5-1.2-2.5-1.2s-1.1.1-1.5.4c-.6.2-1.1.5-1.5.8-.5.4-.9.8-1.3,1.3-.4.5-.7,1.1-.8,1.8v11.9h-5.2v-28.4h5.2v11.8c.7-1.3,1.8-2.4,3.1-3.1,1.3-.7,2.8-1.1,4.2-1.1s2.2.2,3.2.7c.8.5,1.4,1.1,1.9,1.8.5.8.8,1.7.9,2.6.2.9.2,2,.2,2.9l.2,12.7ZM63.3,360.8v-20.4h5.2v20.4h-5.2ZM73.2,332.4h5.2v21.8c0,.6.1,1.3.6,1.8.4.5.9.7,1.5.6.4,0,.7,0,1.1-.1.4-.1.7-.2,1.1-.4l.7,4c-.8.4-1.7.6-2.5.8-.8.1-1.6.2-2.5.2-1.4.1-2.7-.4-3.8-1.3-.9-.9-1.4-2.4-1.3-3.8v-23.7Z"/>
  <path class="st0" d="M715.8,153h1.7c1.8.1,3.5-.2,4.9-1.2,1.2-.8,1.8-2.1,1.6-3.4.1-1.5-.5-2.9-1.5-4-1.3-.9-2.8-1.4-4.4-1.3-.7,0-1.5,0-2.2.2-.1,1.1-.1,3.7-.1,7.7v2ZM718.7,164.3c.1.4.2.7.2,1.1.1.4-.1.7-.5.8h-9.3c-.1-.4-.2-.8-.2-1.2s0-.5.2-.6c.2-.1.5-.2.7-.2h1.8c.1-1.8.1-6.2.1-13.6s0-6.7-.1-8.5h-2.2c-.1-.4-.2-.8-.2-1.2s0-.5.2-.6c.2-.1.5-.2.7-.2h8.1c3.9,0,6.6.6,8.3,1.6,1.6,1.1,2.6,3.1,2.5,5.1,0,3.5-2.1,5.9-6.2,7.2,1.2.4,2.2,1.1,2.9,2,.9,1.3,1.8,2.7,2.4,4.2.5,1.2,1.2,2.4,2,3.3.6.5,1.3.7,2,.6.2.9.2,1.5-.1,1.9-.7.5-1.6.6-2.5.5-1.1.1-2.2-.1-3.3-.6-.7-.4-1.3-1.8-2-4.2-.5-1.8-1.2-3.5-2.2-5.1-.8-1.1-2.1-1.5-3.4-1.4-.8,0-1.5.1-2.4.2,0,4.4.1,7.3.1,8.7h2.5ZM742.1,149.8c-1.2-.1-2.2.5-2.8,1.4-.7,1.3-1.2,2.7-1.1,4.2h2c2.1,0,3.5,0,4.2-.1.7-.1,1.2-.2,1.3-.4.1-.4.2-.7.2-1.1.1-1.1-.2-2.1-.9-2.9-.9-.9-1.9-1.3-2.9-1.2ZM742.8,147.2c1.9-.1,3.8.5,5.2,1.6,1.2,1.1,1.8,2.9,1.8,5.5.1.8-.1,1.6-.6,2.4-.8.6-1.8.8-2.7.7h-8.4c-.1,1.7.4,3.4,1.3,4.8,1.1,1.3,2.6,2,4.2,1.8,1.9,0,3.7-.5,5.3-1.5.5.5.8,1.1.8,1.8s-.7,1.4-2.1,1.8c-1.5.4-3.2.6-4.7.5-3.3,0-5.5-.7-7-2-1.4-1.3-2.1-3.7-2.1-7-.1-2.7.7-5.4,2.4-7.5,1.6-1.9,4.1-2.9,6.6-2.8ZM761.9,149.8c-1.3-.1-2.6.5-3.3,1.5-.8,1.6-1.2,3.7-1.1,5.4-.1,1.9.2,3.7.9,5.4.6,1.3,1.9,2,3.3,2s1.5-.1,2.2-.5c.6-.2,1.1-.7,1.4-1.3.4-1.3.5-2.6.4-3.9v-7.8c-.5-.2-1.1-.5-1.6-.7-.7-.2-1.5-.2-2.2-.2ZM766.2,164.8c-1.1.6-2.1,1.1-3.2,1.4-1.1.2-2,.5-3.1.5-1.9.1-3.7-.6-4.9-1.9-1.2-1.3-1.8-3.5-1.8-6.7s.8-6.2,2.4-8c1.8-1.9,4.4-2.9,7-2.7.6,0,1.2,0,1.9.1.5.1.9.1,1.4.2,0-.9,0-1.9-.1-3.1,0-.7-.1-1.5-.2-2.2-.1-.4-.4-.7-.7-.8-.4-.1-.8-.2-1.2-.2-.1-.4-.2-.7-.2-1.2s.1-.6.5-.7c1.1-.1,2.1-.2,3.2-.1.7,0,1.4,0,2,.1.4.1.6.2.6.6.1.5.1.9.1,1.3v13.6c-.1,2.8,0,5.7.4,8.5.2.8.6,1.2,1.1,1.1.1.2.2.6.2.8,0,.4-.5.7-1.3,1.1-.7.2-1.3.5-2,.5s-.6-.1-.8-.4c-.5-.6-.8-1.1-1.1-1.6ZM783.2,147.2c1.3,0,2.7.1,4,.5.9.4,1.4.8,1.4,1.5s-.4,1.6-.9,2.2c-1.8-.9-3.9-1.5-5.9-1.8-.8,0-1.5.1-2.2.6-.5.4-.8.9-.7,1.6,0,.7.2,1.3.8,1.8,1.1.7,2.2,1.3,3.4,1.6,1.7.5,3.2,1.3,4.6,2.4.9.8,1.4,2.1,1.4,3.4.1,1.6-.7,3.2-2.1,4.1-1.8,1.1-3.9,1.5-5.9,1.4-1.5,0-3.1-.1-4.5-.5-1.1-.2-1.5-.8-1.5-1.8s.2-1.4.7-1.9c1.9.9,3.9,1.4,6,1.5.9.1,1.8-.1,2.6-.6.6-.5.9-1.1.8-1.8,0-.9-.5-1.8-1.3-2.1-1.3-.7-2.7-1.4-4.1-1.9-1.4-.5-2.7-1.2-3.8-2.2-.7-.8-1.1-1.9-1.1-2.9,0-1.5.7-3.1,2.1-3.9,1.9-1.1,4-1.5,6.1-1.4ZM794.6,147.7l1.5-5.4c.5.1.9.4,1.4.6.4.2.6.5.8.8.2,1.1.4,2.1.2,3.2v.8h6.2c.1.5.2.8.2,1.3s0,.5-.2.7c-.2.1-.6.2-.8.2h-5.4v9c-.1,1.4.1,2.8.6,4.2.4.7,1.1,1.1,1.8,1.1,1.1,0,2-.2,2.9-.8.2.4.5.8.5,1.4s-.5,1.2-1.1,1.3c-1.2.2-2.4.4-3.5.4-1.3.1-2.7-.2-3.8-1.1-.8-.7-1.2-2-1.2-4v-4.5c0-2.5-.1-4.8-.2-7.1h-2c-.1-.5-.2-.8-.2-1.3s0-.5.2-.7c.2-.1.5-.2.7-.2h1.3ZM816.4,164.2c1.3.1,2.5-.6,3.2-1.6.7-1.5,1.1-3.3.9-5.1.1-2-.2-4-.9-5.8-.7-1.3-2-2-3.4-1.9-1.3-.1-2.5.6-3.2,1.6-.7,1.5-1.1,3.3-.9,5.1-.1,2,.2,4,.9,5.8.7,1.2,2,2,3.4,1.9ZM815.7,166.7c-2.7,0-4.7-.7-6-2.2-1.3-1.4-1.9-3.7-1.9-6.6-.1-2.8.7-5.7,2.4-7.9,1.6-1.9,4.2-2.9,6.7-2.8,2.7,0,4.7.7,6,2.2,1.3,1.5,1.9,3.7,1.9,6.6.1,2.8-.7,5.7-2.4,7.9-1.6,2-4.1,3.1-6.7,2.8ZM833.7,149.8c1.2-.8,2.4-1.4,3.8-1.9,1.1-.4,2.1-.6,3.3-.6,1.4-.1,2.7.4,3.8,1.2.8.8,1.3,2.2,1.3,4.5,0,6.8.1,10.4.2,10.8.2.4.7.6,1.4.6.1.4.2.7.2,1.1s-.1.6-.4.7c-.4.1-.8.2-1.2.1-1.8,0-2.8,0-3.2-.1-.4,0-.6-.1-.8-.4-.1-.4-.2-.7-.2-1.1v-8.1c0-2.6-.2-4.4-.8-5.2-.6-.8-1.6-1.4-2.7-1.3-.9,0-2,.2-2.7.9-.8.8-1.3,2-1.2,3.2v4c0,2.2,0,4.4.1,6.2h2.1c.1.4.2.7.2,1.1s0,.5-.2.7c-.2.1-.5.2-.8.2h-7.4c-.1-.4-.2-.7-.2-1.2s0-.5.2-.6c.2-.1.5-.2.7-.2h1.3c.1-2,.1-4.5.1-7.4s-.1-5.9-.5-6.5c-.4-.6-.9-.9-1.6-.9-.1-.4-.2-.7-.2-1.1s.1-.6.4-.7c1.7-.2,3.3-.2,5.1-.2.1.6.1,1.3,0,2.1ZM859.3,149.8c-1.2-.1-2.2.5-2.8,1.4-.7,1.3-1.2,2.7-1.1,4.2h2c2.1,0,3.5,0,4.2-.1.7-.1,1.2-.2,1.3-.4.1-.4.2-.7.2-1.1.1-1.1-.2-2.1-.9-2.9-.9-.9-1.9-1.3-2.9-1.2ZM860.1,147.2c1.9-.1,3.8.5,5.2,1.6,1.2,1.1,1.8,2.9,1.8,5.5.1.8-.1,1.6-.6,2.4-.8.6-1.8.8-2.7.7h-8.4c-.1,1.7.4,3.4,1.3,4.8,1.1,1.3,2.6,2,4.2,1.8,1.9,0,3.7-.5,5.3-1.5.5.5.8,1.1.8,1.8s-.7,1.4-2.1,1.8c-1.5.4-3.2.6-4.7.5-3.3,0-5.5-.7-7-2-1.4-1.4-2.1-3.7-2.1-7-.1-2.7.7-5.4,2.4-7.5,1.6-1.9,4.1-2.9,6.6-2.8ZM733.8,181.4c.8,0,1.7,0,2.5.1.2.1,1.4,3.7,3.9,10.6,2.5,7,4,11.4,4.8,13.4h1.7c.1.4.2.7.2,1.1.1.4-.1.7-.5.8h-8.3c-.1-.4-.2-.8-.2-1.2s0-.5.2-.6c.2-.1.5-.2.7-.2h1.1c-.2-1.2-.8-3.3-1.8-6.5h-8.6c-.9,3.2-1.4,5.3-1.6,6.5h1.8c.1.4.2.7.2,1.1.1.4-.1.7-.5.8h-7.3c-.1-.4-.2-.8-.2-1.2s0-.5.2-.6c.2-.1.5-.2.7-.2h1.1c.8-2.4,2.2-6.5,4.1-12.5,1.9-6,3.2-9.4,3.5-10.4.2-.7,1.2-1.2,2.2-1.1ZM737.1,196.7c-2.4-7.3-3.5-11-3.8-11s-1.3,3.7-3.4,11h7.2ZM748.8,189.8c0-.2.1-.6.4-.7,1.6-.2,3.3-.2,5.1-.2.1.8.1,1.5,0,2.4,1.3-.8,2.6-1.5,4-2,1.2-.4,2.4-.5,3.5-.6.2,0,.5,0,.7.1.1.1.2.2.2.6,0,.6-.1,1.2-.2,1.8-.1.5-.2.8-.6,1.2-.4.2-.8.4-1.2.4-.4.1-.7.1-.9,0-.4-.4-.6-.7-.8-1.1-1.1,0-2,.4-2.7,1.1-.7.7-1.1,2.1-1.1,4.4,0,3.9.1,6.7.1,8.6h2.7c.1.4.2.7.2,1.1s0,.5-.2.7c-.2.1-.5.2-.8.2h-8.1c-.1-.4-.2-.7-.2-1.2s0-.5.2-.6c.2-.1.5-.2.7-.2h1.3c.1-1.9.1-4.4.1-7.4s-.1-5.9-.5-6.5c-.4-.6-.9-.9-1.6-.9-.1-.2-.2-.6-.2-.9ZM773.3,188.5c1.3,0,2.7.1,4,.5.9.4,1.4.8,1.4,1.5s-.4,1.6-.9,2.2c-1.8-.9-3.9-1.5-5.9-1.8-.8,0-1.5.1-2.2.6-.5.4-.8.9-.7,1.6,0,.7.2,1.3.8,1.8,1.1.7,2.2,1.3,3.4,1.6,1.6.5,3.2,1.3,4.6,2.4.9.8,1.4,2.1,1.4,3.4.1,1.7-.7,3.2-2.1,4.1-1.8,1.1-3.9,1.5-5.9,1.4-1.5,0-3.1-.1-4.5-.5-1.1-.2-1.5-.8-1.5-1.8s.2-1.4.7-1.9c1.9.9,3.9,1.4,6,1.5.9.1,1.8-.1,2.6-.6.6-.5.9-1.1.8-1.8,0-.9-.5-1.8-1.3-2.1-1.3-.7-2.7-1.4-4.1-1.9-1.4-.5-2.7-1.2-3.8-2.2-.7-.8-1.1-1.9-1.1-2.9,0-1.5.7-3.1,2.1-3.9,1.8-1.1,3.9-1.5,6.1-1.4ZM790.9,191.1c-1.2-.1-2.2.5-2.8,1.4-.7,1.3-1.2,2.7-1.1,4.2h2c2.1,0,3.5,0,4.2-.1s1.2-.2,1.3-.4c.1-.4.2-.7.2-1.1.1-1.1-.2-2.1-.9-2.9-.8-.9-1.9-1.3-2.9-1.2ZM791.7,188.5c1.9-.1,3.8.5,5.2,1.6,1.2,1.1,1.8,2.9,1.8,5.5.1.8-.1,1.7-.6,2.4-.8.6-1.8.8-2.7.7h-8.4c-.1,1.6.4,3.4,1.3,4.8,1.1,1.3,2.6,2,4.2,1.8,1.9,0,3.7-.5,5.3-1.5.5.5.8,1.1.8,1.8s-.7,1.4-2.1,1.8c-1.5.4-3.2.6-4.7.5-3.3,0-5.5-.7-7-2-1.4-1.4-2.1-3.7-2.1-7-.1-2.7.7-5.4,2.4-7.5,1.5-1.9,4-2.9,6.6-2.8ZM807.6,191c1.2-.8,2.4-1.4,3.8-1.9,1.1-.4,2.1-.6,3.3-.6,1.4-.1,2.7.4,3.8,1.2.8.8,1.3,2.2,1.3,4.5,0,6.8.1,10.4.2,10.8.2.4.7.6,1.4.6.1.4.2.7.2,1.1s-.1.6-.4.7c-.4.1-.8.2-1.2.1-1.8,0-2.8,0-3.2-.1-.4,0-.6-.1-.8-.4-.1-.4-.2-.7-.2-1.1v-8.1c0-2.6-.2-4.4-.8-5.2s-1.6-1.4-2.7-1.3c-.9,0-2,.2-2.7.9-.8.8-1.3,2-1.2,3.2v4c0,2.2,0,4.4.1,6.2h2.1c.1.4.2.7.2,1.1s0,.5-.2.7c-.2.1-.5.2-.8.2h-7.4c-.1-.4-.2-.7-.2-1.2s0-.5.2-.6c.2-.1.5-.2.7-.2h1.3c.1-2,.1-4.5.1-7.4s-.1-5.9-.5-6.5c-.4-.6-.9-.9-1.7-.9-.1-.4-.2-.7-.2-1.1s.1-.6.4-.7c1.6-.2,3.3-.2,5.1-.2v2.1ZM836.4,206c-1.1.6-2.1,1.1-3.3,1.4-1.1.4-2.2.5-3.3.5-1.4.1-2.7-.4-3.8-1.2-.9-.9-1.3-2.2-1.3-3.5-.1-1.8.7-3.4,2.1-4.5,1.4-1.1,3.5-1.5,6.4-1.5h2.8c.1-1.7-.2-3.2-.9-4.6-.7-.9-1.9-1.4-2.9-1.3-.7,0-1.4.1-2.2.2-.2.5-.4.8-.7,1.2-.4.1-.7.2-1.1.4-.7.1-1.1.1-1.4-.1-.4-.4-.6-.8-.8-1.3-.2-.5-.4-.9-.4-1.5s.1-.5.4-.6c.8-.2,1.6-.5,2.6-.5,1.5-.2,3.2-.4,4.7-.4,1.8-.1,3.4.2,4.9,1.2,1.1.8,1.6,2.2,1.6,4.2v5.9c-.1,1.7,0,3.3.4,5,.1.5.6.8,1.2.7.1.2.2.5.2.8s-.2.7-.8.9c-.7.2-1.4.4-2.1.4s-.7,0-1.1-.1c-.6-.5-.9-1.1-1.2-1.7ZM836,199.7c-1.1-.2-2.2-.2-3.4-.2-1.1-.1-2.1.1-3.1.7-.6.6-.9,1.4-.8,2.2-.1.8.2,1.7.8,2.2.7.6,1.5.8,2.4.8s1.6-.1,2.4-.5c.6-.2,1.2-.7,1.4-1.4.2-.9.4-1.9.4-2.8v-1.1ZM846.9,196.7c0-5.3,0-8.7-.1-10.3,0-.9-.1-1.9-.2-2.8-.1-.4-.4-.7-.7-.8-.4-.1-.8-.2-1.2-.2-.1-.4-.2-.7-.2-1.2s.1-.6.5-.7c1.1-.1,2.1-.2,3.2-.1.7,0,1.4,0,2,.1.4.1.6.2.6.6.1.5.1.9.1,1.3v15.9c0,3.1.1,5.4.1,7.2h2.1c.1.4.2.7.2,1.1s0,.5-.2.7c-.2.1-.5.2-.8.2h-7.5c-.1-.4-.2-.7-.2-1.2s0-.5.2-.6.5-.2.7-.2h1.4c.1-1.9.1-4.8.1-9Z"/>
  <path class="st1" d="M353.7,248.4c-.2,2.2-.2,4.1-.2,5.9s0,2.2.1,2.9h-.9c-.2-2.2-1.1-4.4-2.4-6.1-1.1-1.2-2.7-1.9-4.4-1.8h-1.2c-.6,0-1.2,0-1.8.2-.4.1-.6.4-.7.7-.1.6-.2,1.2-.2,1.8v9.8h1.4c1.2.1,2.5-.5,3.2-1.5.7-1.1,1.3-2.4,1.5-3.7h.9c-.1,1.1-.1,2.4-.1,3.7v1.9c0,1.3.1,3.2.2,5.5h-.9c-.6-3.4-2.1-5.2-4.7-5.2h-1.4v9c0,.8.1,1.5.4,2.2.2.5.7.8,1.2.9.8.2,1.8.2,2.7.2v.8c-3.2-.1-5.5-.1-7.1-.1s-2.9,0-5,.1h-1.3v-.8c.6,0,1.3-.1,1.9-.4.4-.1.7-.5.8-.9.1-.7.2-1.4.2-2.1v-19.3c0-.7,0-1.4-.2-2.1-.1-.4-.5-.7-.8-.9-.6-.2-1.3-.4-1.9-.4v-.8c2.8.1,7.1.1,12.7.1,3.7.5,6.4.5,7.9.4ZM364.7,255.3c2.6-.1,5.1.8,7,2.6,1.6,1.6,2.5,4.4,2.5,8s-.8,6.4-2.5,8c-1.9,1.8-4.5,2.7-7,2.5-2.6.1-5.1-.8-7-2.5-1.6-1.6-2.6-4.4-2.6-8s.8-6.4,2.6-8c1.8-1.9,4.4-2.7,7-2.6ZM364.7,256c-1.1,0-2,.8-2.7,2.5-.8,2.4-1.1,5-.9,7.4-.1,2.5.2,5,.9,7.4.7,1.6,1.5,2.4,2.7,2.4s2-.8,2.7-2.4c.7-2.4,1.1-4.9.9-7.4.1-2.5-.2-5.1-.9-7.4-.7-1.6-1.6-2.5-2.7-2.5ZM389.9,255.3c.9-.1,2,.4,2.6,1.1.6.7.9,1.7.9,2.5s-.2,1.6-.8,2.4c-.6.6-1.4.9-2.2.9s-1.5-.2-2.1-.7c-.5-.5-.8-1.1-.8-1.8,0-1.3.6-2.4,1.8-3.1h-.5c-.2,0-.5,0-.6.1-1.1.2-2,.8-2.5,1.8-.7.9-1.1,2-1.1,3.2v10.3c-.1.9.2,1.9.8,2.5.8.6,1.8.8,2.8.7v.8h-.9c-2.6-.1-4.4-.1-5.3-.1s-2.2,0-4.8.1h-.8v-.8c.7.1,1.4-.1,1.9-.6.5-.6.6-1.4.6-2.2v-12.3c.1-.9-.1-1.8-.6-2.6-.5-.6-1.2-.9-1.9-.8v-.8c.8.1,1.6.1,2.4.1,1.9,0,3.8-.1,5.7-.6v3.7c.5-1.1,1.2-2,2.1-2.7,1.2-.6,2.4-.9,3.4-.9ZM402.6,255.8h4.6v.8h-4.6v15.7c0,.6.1,1.2.4,1.6.4.4.8.5,1.3.5,1.1,0,2-.8,2.6-2.4l.7.4c-.9,2.7-2.7,4-5.3,4-1.4.1-2.8-.4-3.9-1.3-.6-.6-.9-1.3-1.1-2-.2-1.1-.4-2.2-.2-3.4v-13.2h-3.3v-.8h3.3v-5.2c1.9,0,3.9-.4,5.7-1.3v6.6ZM429.9,249.2c-.7,0-1.4.1-2,.4-.5.1-.7.5-.8.9-.2.7-.2,1.4-.2,2.1v19.8c0,.6,0,1.2.2,1.8.1.4.4.6.7.7.5.1,1.1.2,1.5.2h1.9c1.8,0,3.5-.9,4.6-2.4,1.4-1.9,2.2-4,2.5-6.2h.9c-.1.8-.1,2-.1,3.4,0,2,.1,4.1.2,6.1-1.8-.1-4.7-.1-9-.1s-9.9,0-12.7.1v-.8c.6,0,1.3-.1,1.9-.4.4-.1.7-.5.8-.9.1-.7.2-1.4.2-2.1v-19.3c0-.7,0-1.4-.2-2.1-.1-.4-.5-.7-.8-.9-.6-.2-1.3-.4-1.9-.4v-.8c1.3.1,3.4.1,6.1.1s4.7,0,6.1-.1v.9ZM452.4,273.3c2.1,0,4.1-1.2,5.2-3.1l.7.2c-.5,1.7-1.4,3.2-2.8,4.2-1.4,1.2-3.2,1.9-5,1.8-2.5.1-4.8-.8-6.6-2.6-1.7-1.8-2.5-4.4-2.5-7.8s.8-6.1,2.6-8c1.8-1.9,4.4-2.9,7-2.8,4.8,0,7.3,2.8,7.3,8.6h-11v1.9c0,1.4.2,2.9.7,4.2.4.9,1.1,1.9,1.9,2.5.8.5,1.6.8,2.5.8ZM450.8,256.1c-1.1.1-2,.7-2.4,1.8-.7,1.6-1.2,3.5-1.2,5.3h6.1c.1-1.8-.1-3.4-.6-5.1-.5-1.4-1.2-2-2-2ZM470.6,255.3c2.6-.1,5.1.8,7,2.6,1.6,1.6,2.5,4.4,2.5,8s-.8,6.4-2.5,8c-4,3.4-9.9,3.4-14,0-1.6-1.6-2.6-4.4-2.6-8s.8-6.4,2.6-8c2-1.9,4.5-2.7,7.1-2.6ZM470.6,256c-1.1,0-2,.8-2.7,2.5-.8,2.4-1.1,5-.9,7.4-.1,2.5.2,5,.9,7.4.7,1.6,1.5,2.4,2.7,2.4s2-.8,2.7-2.4c.7-2.4,1.1-4.9.9-7.4.1-2.5-.2-5.1-.9-7.4-.7-1.6-1.6-2.5-2.7-2.5ZM497,255.3c1.5-.1,3.2.4,4.2,1.5.5.6.8,1.2.9,1.9.2,1.1.4,2.1.2,3.2v10.5c-.1.8.1,1.5.6,2.2.6.5,1.2.7,1.9.6v.8c-2.6-.1-4.4-.1-5.2-.1s-2.5,0-5.1.1v-.8c.6.1,1.2-.1,1.6-.6.4-.7.6-1.4.5-2.2v-12.1c0-.8-.1-1.7-.5-2.4-.5-.6-1.2-.9-1.9-.8-1.1,0-2,.5-2.7,1.3-.7.9-1.2,2-1.2,3.2v10.8c-.1.7.1,1.5.5,2.2.5.5,1.1.7,1.6.6v.8c-2.4-.1-4-.1-4.8-.1s-2.6,0-5.4.1v-.8c.7.1,1.4-.1,1.9-.6.5-.6.6-1.4.6-2.2v-12.3c.1-.9-.1-1.8-.6-2.6-.5-.6-1.2-.9-1.9-.8v-.8c.8.1,1.6.1,2.4.1,1.9,0,3.8-.1,5.7-.6v3.5c1.4-2.5,3.5-3.7,6.6-3.7ZM511.5,276.2c-1.4.1-2.7-.4-3.8-1.3-.8-.9-1.3-2.1-1.2-3.4,0-1.1.2-2.1.9-2.9.6-.7,1.3-1.4,2.2-1.8,1.1-.5,2.2-.9,3.3-1.3,1.1-.4,2.1-.8,3.2-1.3.6-.4.9-.9.9-1.6v-3.1c0-.9-.2-1.8-.7-2.6-.6-.7-1.4-.9-2.4-.9-1.1-.1-2,.2-2.8.9.7.2,1.3.6,1.6,1.2.4.5.6,1.2.6,1.9s-.2,1.5-.9,2.1c-.6.5-1.4.8-2.1.8s-1.5-.2-2.1-.8c-.9-1.2-.9-2.7-.2-4,.5-.6.9-1.1,1.6-1.4.8-.5,1.6-.8,2.6-.9,1.1-.2,2.2-.4,3.4-.4s2.2.1,3.3.4c.8.2,1.7.7,2.4,1.3.6.6.9,1.3,1.2,2.1.2,1.1.4,2.2.2,3.4v10.6c0,.5,0,.9.1,1.3.1.2.4.5.7.4.5-.1,1.1-.2,1.4-.7l.4.7c-1.2.9-2.7,1.5-4.2,1.4-1.1.1-2.1-.2-2.9-.8-.6-.6-.9-1.4-.9-2.2-1.2,2-3.4,3.2-5.8,3.1ZM514.6,273.7c1.1,0,2.1-.6,2.6-1.7v-7.9c-.5.7-1.2,1.3-2,1.8-.8.5-1.6,1.2-2.2,2-.6.8-.8,1.8-.8,2.8-.1.8.1,1.6.7,2.4.5.4,1.1.6,1.8.6ZM539.9,255.3c.9-.1,2,.4,2.6,1.1s.9,1.7.9,2.5-.2,1.6-.8,2.4c-.6.6-1.4.9-2.2.9s-1.5-.2-2.1-.7c-.5-.5-.8-1.1-.8-1.8,0-1.3.6-2.4,1.8-3.1h-.5c-.2,0-.5,0-.6.1-1.1.2-2,.8-2.5,1.8-.7.9-1.1,2-1.1,3.2v10.3c-.1.9.2,1.9.8,2.5.8.6,1.8.8,2.8.7v.8h-.9c-2.6-.1-4.4-.1-5.3-.1s-2.2,0-4.8.1h-.8v-.8c.7.1,1.4-.1,1.9-.6.5-.6.6-1.4.6-2.2v-12.3c.1-.9-.1-1.8-.6-2.6-.5-.6-1.2-.9-1.9-.8v-.8c.8.1,1.6.1,2.4.1,1.9,0,3.8-.1,5.7-.6v3.7c.5-1.1,1.2-2,2.1-2.7,1.2-.6,2.4-.9,3.4-.9ZM563.4,271.7c-.1.9.1,1.8.6,2.6.5.6,1.2.9,1.9.8v.8c-.8-.1-1.6-.1-2.4-.1-1.9,0-3.8.1-5.7.6v-3.3c-.7,2.2-2.7,3.7-5.1,3.5-2.2.1-4.4-.9-5.8-2.7-1.4-1.8-2.1-4.5-2.1-8-.1-2,.4-4,1.1-5.8.6-1.4,1.8-2.7,3.1-3.5,1.4-.8,2.9-1.2,4.5-1.2,1.5-.1,3.2.5,4.4,1.5v-6.6c.1-.9-.1-1.8-.6-2.6-.5-.6-1.2-.9-1.9-.8v-.8c.8.1,1.6.1,2.4.1,1.9,0,3.8-.1,5.7-.6v26ZM554.3,274.8c.8,0,1.6-.4,2.2-.9.7-.7,1.1-1.5,1.2-2.5v-13.7c-.7-.9-1.8-1.4-2.8-1.3-1.4,0-2.7.9-3.2,2.4-.8,2.2-1.3,4.7-1.1,7.1-.1,2.4.1,4.6.9,6.8.4,1.3,1.4,2.1,2.7,2.1ZM432.9,289.7c1.2,0,2.2,0,2.9-.1v.8c-.7.4-1.4.8-1.9,1.5-.7.9-1.2,2-1.5,3.2l-6.8,22.2h-2.8l-5.8-17.3-5.8,17.3h-2.8l-8.7-24.4c-.2-.7-.6-1.3-1.2-1.9s-.8-.6-1.3-.6v-.8c1.5.1,3.5.1,5.8.1s3.8,0,4.8-.1v.8c-.8,0-1.4.7-1.4,1.4h0c0,.7.1,1.3.4,1.9l5.7,16.5,3.9-11.6-2-6c-.1-.6-.5-1.2-.9-1.5-.4-.4-.8-.5-1.2-.5v-.8c1.4.1,3.3.1,5.5.1s4.4,0,5.7-.1v.8c-.7,0-1.4.1-2,.4-.5.2-.7.6-.6,1.1,0,.6.1,1.3.4,1.9l5.3,16.3,3.7-11.8c.5-1.4.8-2.9.9-4.5.1-.9-.2-1.8-.8-2.5-.7-.6-1.6-.8-2.5-.8v-.8c2.1-.1,3.7-.1,5.2-.1ZM443.9,296.6c2.6-.1,5.1.8,7,2.6,1.6,1.6,2.5,4.4,2.5,8s-.8,6.4-2.5,8c-4,3.4-9.9,3.4-14,0-1.6-1.6-2.6-4.4-2.6-8s.8-6.4,2.6-8c2-1.9,4.5-2.7,7.1-2.6ZM443.9,297.3c-1.1,0-2,.8-2.7,2.5-.8,2.4-1.1,4.9-.9,7.4-.1,2.5.2,4.9.9,7.4.7,1.7,1.5,2.4,2.7,2.4s2-.8,2.7-2.4c.7-2.4,1.1-4.9.9-7.4.1-2.5-.2-5.1-.9-7.4-.7-1.7-1.5-2.5-2.7-2.5ZM465.9,296.6c2.6-.1,5.1.8,7,2.6,1.7,1.6,2.5,4.4,2.5,8s-.8,6.4-2.5,8c-4,3.4-9.9,3.4-14,0-1.7-1.6-2.6-4.4-2.6-8s.8-6.4,2.6-8c1.9-1.9,4.5-2.7,7.1-2.6ZM465.9,297.3c-1.1,0-2,.8-2.7,2.5-.8,2.4-1.1,4.9-.9,7.4-.1,2.5.2,4.9.9,7.4.7,1.7,1.5,2.4,2.7,2.4s2-.8,2.7-2.4c.7-2.4,1.1-4.9.9-7.4.1-2.5-.2-5.1-.9-7.4-.7-1.7-1.6-2.5-2.7-2.5ZM496.9,312.9c-.1.9.1,1.8.6,2.6.5.6,1.2.9,1.9.8v.8c-.8-.1-1.6-.1-2.4-.1-1.9,0-3.8.1-5.7.6v-3.3c-.7,2.2-2.7,3.7-5.1,3.5-2.2.1-4.4-.9-5.8-2.7-1.4-1.8-2.1-4.5-2.1-8-.1-2,.4-4,1.1-5.8.6-1.4,1.8-2.7,3.1-3.5,1.4-.8,2.9-1.2,4.5-1.2,1.5-.1,3.2.5,4.4,1.5v-6.6c.1-.9-.1-1.8-.6-2.6-.5-.6-1.2-.9-1.9-.8v-.8c.8.1,1.6.1,2.4.1,1.9,0,3.8-.1,5.7-.6v26ZM487.9,316c.8,0,1.6-.4,2.2-.9.7-.7,1.1-1.5,1.2-2.5v-13.7c-.7-.9-1.8-1.4-2.8-1.3-1.4,0-2.7.9-3.2,2.4-.8,2.2-1.3,4.7-1.1,7.1-.1,2.4.1,4.6.9,6.8.4,1.3,1.5,2.1,2.7,2.1Z"/>
  <path class="st1" d="M109.2,184.9c.2,0,.5.1.6.2l1.5,1.8c-1.2,1.4-2.7,2.5-4.4,3.3-2,.8-4.1,1.2-6.2,1.2s-3.9-.4-5.8-1.1c-1.6-.7-3.2-1.8-4.5-3.1-1.3-1.4-2.2-3.1-2.8-4.8-.7-2-1.1-4-1.1-6.1s.4-4.1,1.1-6.1c.7-1.8,1.6-3.4,2.9-4.8,1.3-1.3,2.8-2.4,4.6-3.1,1.9-.7,3.9-1.2,5.9-1.1,1.9,0,3.8.4,5.5,1.1,1.5.7,3.1,1.5,4.2,2.7l-1.3,1.9c-.1.1-.2.2-.4.4-.1.1-.4.1-.5.1-.4,0-.7-.2-.9-.4-.5-.4-.9-.6-1.4-.9-1.6-.9-3.5-1.3-5.4-1.3s-2.8.2-4.2.8c-1.3.5-2.4,1.3-3.3,2.4-.9,1.1-1.6,2.4-2.1,3.7-.5,1.5-.8,3.2-.7,4.8,0,1.6.2,3.3.8,4.9.5,1.3,1.2,2.6,2.1,3.7.9.9,2,1.8,3.2,2.2,1.3.5,2.6.8,4,.8s1.6,0,2.4-.1c.7-.1,1.3-.2,2-.5.6-.2,1.2-.5,1.6-.8.6-.4,1.1-.7,1.5-1.2.5-.5.7-.6.9-.6ZM141.6,176.3c0,2-.4,4.1-1.1,6-.7,1.8-1.6,3.3-2.9,4.7-1.3,1.3-2.8,2.4-4.6,2.9-1.9.7-3.9,1.1-5.9,1.1h-11.1v-29.6h11.1c2,0,4,.4,5.9,1.1,1.8.7,3.3,1.6,4.6,3.1,1.3,1.3,2.4,2.9,2.9,4.7.7,1.9,1.2,3.9,1.1,6ZM137.5,176.3c0-1.7-.2-3.3-.7-4.8-.5-1.3-1.2-2.6-2.1-3.7-.9-.9-2-1.8-3.3-2.2-1.4-.6-2.8-.8-4.4-.8h-7.1v23.1h7.1c1.5,0,2.9-.2,4.4-.8,1.3-.5,2.4-1.3,3.3-2.2.9-1.1,1.6-2.2,2.1-3.7.6-1.5.8-3.2.7-4.8ZM168.1,184.9c.2,0,.5.1.6.2l1.5,1.8c-1.2,1.4-2.7,2.5-4.4,3.3-2,.8-4.1,1.2-6.2,1.2s-3.9-.4-5.8-1.1c-1.6-.7-3.2-1.8-4.5-3.1-1.3-1.4-2.2-3.1-2.8-4.8-.7-2-1.1-4-1.1-6.1s.4-4.1,1.1-6.1c.7-1.8,1.6-3.4,2.9-4.8,1.3-1.3,2.8-2.4,4.6-3.1,1.9-.7,3.9-1.2,5.9-1.1,1.9,0,3.8.4,5.5,1.1,1.5.7,3.1,1.5,4.2,2.7l-1.3,1.9c-.1.1-.2.2-.4.4-.1.1-.4.1-.5.1-.4,0-.7-.2-.9-.4-.5-.4-.9-.6-1.4-.9-1.6-.9-3.5-1.3-5.4-1.3s-2.8.2-4.2.8c-1.3.5-2.4,1.3-3.3,2.4-.9,1.1-1.6,2.4-2.1,3.7-.5,1.5-.8,3.2-.7,4.8,0,1.6.2,3.3.8,4.9.5,1.3,1.2,2.6,2.1,3.7.9.9,2,1.8,3.2,2.2,1.3.5,2.6.8,4,.8s1.6,0,2.4-.1c.7-.1,1.3-.2,2-.5.6-.2,1.2-.5,1.6-.8.6-.4,1.1-.7,1.5-1.2.5-.5.7-.6.9-.6Z"/>
  <path class="st3" d="M749,304l8.3,22.6h2.6l8.3-22.3c1.2-3.2,1.6-3.7,4-4v-1.2h-8.3v1.2c2.9.4,3.4.9,2.4,3.9l-6.4,18.4-6.6-18.5c-.9-2.7-.6-3.4,2.2-3.8v-1.2h-10.5v1.2c2.2.2,2.8.7,4,3.7ZM780.4,323.2v-9.9h13.9v9.9c0,1.6-.4,2-2.9,2.2v1.2h10.1v-1.2c-2.7-.4-3.1-.7-3.1-2.4v-20.5c0-1.7.4-2,3.1-2.4v-1.1h-10v1.2c2.6.4,2.9.6,2.9,2.2v9.3h-13.9v-9.3c0-1.7.4-2,2.9-2.2v-1.2h-10.1v1.2c2.7.4,3.1.7,3.1,2.4v20.5c0,1.6-.4,2-3.1,2.4v1.1h10.1v-1.2c-2.7-.2-3.1-.6-3.1-2.2ZM825.8,321.8l-8.4-22.6h-2.6l-8.3,22.3c-1.2,3.2-1.6,3.7-4,4v1.2h8.3v-1.2c-2.9-.4-3.3-.9-2.4-3.9l1.6-4.6h9.7l1.6,4.7c.9,2.7.6,3.4-2.4,3.8v1.2h10.5v-1.2c-2.1-.2-2.7-.7-3.8-3.7ZM810.6,315.5l4.2-12.3,4.4,12.3h-8.6ZM698.9,364.4v-9.9h13.9v9.9c0,1.6-.4,2-2.9,2.2v1.2h10.1v-1.2c-2.7-.4-3.1-.7-3.1-2.4v-20.5c0-1.6.4-2,3.1-2.4v-1.2h-10.1v1.2c2.6.4,2.9.6,2.9,2.2v9.3h-13.9v-9.3c0-1.6.4-2,2.9-2.2v-1.2h-10.1v1.2c2.7.4,3.1.7,3.1,2.4v20.5c0,1.7-.4,2-3.1,2.4v1.1h10.1v-1.2c-2.6-.1-2.9-.5-2.9-2.1ZM723,358.6c0,5.9,4,9.7,9.3,9.7,2.6.1,5.2-.9,7-2.8v-1.2c-1.4,1.2-3.2,1.9-4.9,1.9-4.4,0-7.3-3.3-7.4-8.3h12.7c0-.4.1-.8,0-1.2,0-4.8-2.8-8-7.8-8-5.2.1-8.8,4.1-8.8,9.9ZM731.8,350.3c2.7,0,4.2,2.2,4.2,5.9v.4h-9.2c.2-4.2,2.1-6.2,4.9-6.2ZM748.7,368.2c2.4.1,4.6-.9,6.1-2.8.4,1.6,1.9,2.8,3.7,2.7,1.1,0,2.1-.2,2.9-.8v-1.1c-.4.1-.7.2-.9.1-1.2,0-2.1-.6-2.1-2.4v-9.5c0-4-2.7-5.8-7-5.8s-7.5,1.8-7.5,4.4.9,2,2,2h.1c1.1,0,2-.8,2.1-1.9h0c0-.9-.5-1.8-1.3-2,1.1-.6,2.2-.8,3.4-.8,2.8,0,4.6,1.2,4.6,4.7v1.6l-4.2.9c-5.1,1.2-7.2,2.8-7.2,5.9-.2,2.8,2.1,4.7,5.3,4.7ZM747,362.9c0-2.1,1.3-3.4,5.2-4.2l2.6-.6v6.2c-.9,1.3-2.5,2-4,2-1.9.1-3.4-1.2-3.7-2.9-.1-.2-.1-.4-.1-.5ZM769.3,339.7l-6.4.7v.9l1.4.4c1.1.4,1.2.6,1.2,1.5v21.7c0,1.2-.4,1.5-2.6,1.8v1.1h9v-1.2c-2.2-.2-2.6-.6-2.6-1.8v-25.1ZM776.3,362.7c0,4.1,2.4,5.5,4.9,5.5s3.4-.6,4.7-1.7v-1.2c-.8.6-1.8.8-2.7.8-1.8,0-3.2-1.1-3.2-4.1v-11.4h5.7c0,.1,0-1.5,0-1.5h-5.7c0,.1,0-3.7,0-3.7h-.6l-5.7,4.5v.8h2.5v11.9ZM793.7,339.7l-6.4.7v.9l1.4.4c1.1.4,1.2.6,1.2,1.5v21.7c0,1.2-.4,1.5-2.6,1.8v1.1h8.7v-1.2c-2.1-.2-2.5-.6-2.5-1.6v-12c.9-1.4,2.7-2.2,4.5-2.2,2.7,0,4.5,1.6,4.5,4.8v9.4c0,1.2-.2,1.4-2.5,1.6v1.2h8.7v-1.2c-2.4-.2-2.6-.6-2.6-1.8v-10.3c0-3.9-2.7-6-6.5-6-2.5-.1-4.8,1.1-6.1,3.1v-11.9ZM820.7,368.2c2.6.1,5.2-.9,7-2.8v-1.2c-1.3,1.2-3.1,1.9-5,1.9-4.2,0-7.2-3.2-7.2-8.3s2.6-7.4,6.2-7.4c1.2-.1,2.2.2,3.2.8-.9.2-1.6,1.1-1.6,2s.8,2.1,2,2.1h.1c1.2,0,2.1-.9,2.1-2.1h0c0-2.5-2-4.5-6.4-4.5-5.2-.1-9.5,4-9.5,9.2v.6c0,5.9,4,9.7,9.1,9.7ZM836.1,368.2c2.4.1,4.6-.9,6.1-2.8.4,1.6,1.9,2.8,3.7,2.7,1.1,0,2.1-.2,2.9-.8v-1.1c-.4.1-.7.2-.9.1-1.2,0-2.1-.6-2.1-2.4v-9.5c0-4-2.7-5.8-7-5.8s-7.5,1.8-7.5,4.4.9,2,2,2h.1c1.1,0,2-.8,2.1-1.9h0c0-.9-.5-1.8-1.3-2,1.1-.6,2.2-.8,3.4-.8,2.8,0,4.6,1.2,4.6,4.7v1.6l-4.2.9c-5.1,1.2-7.2,2.8-7.2,5.9-.2,2.8,2.1,4.7,5.3,4.7ZM834.4,362.9c0-2.1,1.3-3.4,5.2-4.2l2.6-.6v6.2c-.9,1.3-2.5,2-4,2-1.9.2-3.4-1.2-3.7-2.9-.1-.2-.1-.4-.1-.5ZM856.6,348.9l-6.2.7v.9l1.4.4c1.1.4,1.2.6,1.2,1.5v12.5c0,1.2-.2,1.5-2.6,1.8v1.2h9.2v-1.2c-2.6-.2-2.8-.6-2.8-2v-11c1.5-1.3,3.4-1.9,5.3-1.8.6,0,1.3,0,1.9.2.2-.4.4-.8.4-1.3.1-1.1-.7-1.9-1.6-2h-.4c-1.6,0-3.4,1.4-5.7,4v-4ZM865.7,358.6c0,5.9,4,9.7,9.3,9.7,2.6.1,5.2-.9,7-2.8v-1.2c-1.4,1.2-3.2,1.9-4.9,1.9-4.4,0-7.3-3.3-7.4-8.3h12.8c0-.4.1-.8,0-1.2,0-4.8-2.8-8-7.8-8-5.4.1-9,4.1-9,9.9ZM874.6,350.3c2.7,0,4.2,2.2,4.2,5.9v.4h-9.2c.2-4.2,2.1-6.2,4.9-6.2Z"/>
  <path class="st2" d="M296.7,70.1h-1.1c-.9-4.1-2.4-5-7-5.2h-4.5c0-.1,0,11.3,0,11.3h4.7c1.6,0,2.1-.6,2.7-3.8h.9v9h-.8c-.5-3.1-1.1-3.8-2.7-3.8h-4.7v9.5c0,1.9.4,2.4,3.3,2.6v1.1h-10.5v-1.2c2.7-.4,3.1-.7,3.1-2.4v-20.3c0-1.7-.4-2-3.1-2.4v-1.1h19.3l.2,6.5Z"/>
  <path class="st2" d="M309.8,90.9h-11v-1.2c2.7-.4,3.1-.7,3.1-2.4v-20.3c0-1.7-.4-2-3.1-2.4v-1.1h11c6.4,0,10.1,2.4,10.1,6.6s-3.2,5.5-7.1,6c5.1.4,8.5,2.7,8.5,6.8s-5.3,7.8-11.6,7.8ZM308.6,65h-2.7c0-.1,0,10.8,0,10.8h3.4c4,0,6.1-2,6.1-5.3s-1.8-5.4-6.8-5.5ZM309.4,77.2h-3.4v12.4h2.7c5.1-.2,8.3-2.2,8.3-6.2s-2.7-6.1-7.5-6.1Z"/>
  <path class="st2" d="M334.4,89.7v1.2h-10.1v-1.2c2.7-.4,3.1-.7,3.1-2.4v-20.3c0-1.7-.4-2-3.1-2.4v-1.1h10.1v1.1c-2.7.4-3.1.7-3.1,2.4v20.3c0,1.8.4,2.1,3.1,2.4Z"/>
  <path class="st2" d="M356.2,96.1h-1.4c-4.4-3.2-8.3-9.8-8.3-17.6s3.9-14.4,8.3-17.6h1.4c-3.8,4.2-6.1,10.1-6.1,17.6-.1,7.5,2.4,13.3,6.1,17.6Z"/>
  <path class="st2" d="M377.9,70.1h-1.1c-.9-4.1-2.4-5-7-5.2h-4.5c0-.1,0,11.3,0,11.3h4.7c1.6,0,2.1-.6,2.7-3.8h.9v9h-.9c-.5-3.1-1.1-3.8-2.7-3.8h-4.7v9.5c0,1.9.4,2.4,3.3,2.6v1.1h-10.5v-1.2c2.7-.4,3.1-.7,3.1-2.4v-20.3c0-1.7-.4-2-3.1-2.4v-1.1h19.3l.4,6.5Z"/>
  <path class="st2" d="M387.3,71.8c5,0,7.8,3.1,7.8,7.9v1.2h-12.7c.1,5,3.1,8.3,7.4,8.3s3.8-.7,5-1.9v1.1c-1.3,1.7-3.8,2.8-7,2.8-5.3,0-9.2-3.7-9.2-9.5-.1-5.7,3.4-9.8,8.7-9.8ZM382.2,79.6h9.2v-.4c0-3.7-1.4-5.9-4.2-5.9s-4.7,2.1-5,6.2Z"/>
  <path class="st2" d="M407.5,71.8c2.1,0,3.9.8,4.9,2.1v-7.4c0-.9-.1-1.3-1.2-1.5l-1.4-.4v-.9l6.2-.7v24.4c0,1.1.1,1.3,1.3,1.5l1.3.4v.9l-6.2.7v-3.2c-1.1,2-3.5,3.3-6.2,3.3-4.1,0-7.7-3.5-7.7-9.5.1-5.7,4-9.7,9-9.7ZM408.2,89.1c2,0,3.5-.8,4.4-2.2v-11.3c-.6-1.2-2.2-2-4.1-2-3.4,0-5.9,3.1-5.9,7.9s2.2,7.7,5.7,7.7Z"/>
  <path class="st2" d="M430.3,71.8c4.9,0,7.8,3.1,7.8,7.9v1.2h-12.7c.1,5,3.1,8.3,7.4,8.3s3.8-.7,5-1.9v1.1c-1.3,1.7-3.8,2.8-7,2.8-5.3,0-9.2-3.7-9.2-9.5-.1-5.7,3.4-9.8,8.7-9.8ZM425.4,79.6h9.2v-.4c0-3.7-1.4-5.9-4.2-5.9s-4.8,2.1-5,6.2Z"/>
  <path class="st2" d="M447.2,75.9c2.2-2.7,3.9-4,5.7-4s2,.9,2,2-.1,1.1-.4,1.3c-.4-.1-1.1-.2-1.9-.2-2,0-4.4.7-5.3,1.8v11c0,1.4.2,1.7,2.8,2v1.2h-9.1v-1.2c2.4-.2,2.6-.6,2.6-1.8v-12.4c0-1.1-.1-1.3-1.2-1.5l-1.4-.4v-.9l6.2-.7v3.9h-.1Z"/>
  <path class="st2" d="M457.1,86.5c0-2.9,2.1-4.7,7.2-5.8l4.2-.9v-1.7c0-3.4-1.9-4.7-4.6-4.7s-2.5.2-3.4.8c.7.2,1.3,1.1,1.3,1.9s-.9,2-2.1,2-2.1-.8-2.1-2c0-2.5,3.4-4.2,7.5-4.2s7,1.8,7,5.8v9.5c0,1.7.9,2.4,2,2.4s.7,0,.9-.1v1.1c-.6.5-1.6.8-2.9.8-1.9,0-3.2-.9-3.7-2.7-.9,1.5-3.3,2.7-6,2.7-3.1-.1-5.3-2.1-5.3-4.8ZM464.4,89.2c1.8,0,3.2-.7,4-2v-6.1l-2.6.6c-3.8.8-5.1,2.1-5.1,4.2.1,2.1,1.7,3.3,3.7,3.3Z"/>
  <path class="st2" d="M482.9,87.9c0,1.2.4,1.5,2.6,1.8v1.2h-8.8v-1.2c2.2-.2,2.6-.6,2.6-1.8v-21.5c0-.9-.1-1.3-1.2-1.5l-1.4-.4v-.9l6.2-.7v25Z"/>
  <path class="st2" d="M507.8,90.9h-11v-1.2c2.7-.4,3.1-.7,3.1-2.4v-20.3c0-1.7-.4-2-3.1-2.4v-1.1h11c6.4,0,10.1,2.4,10.1,6.6s-3.2,5.5-7.1,6c5.1.4,8.5,2.7,8.5,6.8s-5.3,7.8-11.5,7.8ZM506.6,65h-2.7c0-.1,0,10.8,0,10.8h3.4c4,0,6.1-2,6.1-5.3s-1.8-5.4-6.8-5.5ZM507.4,77.2h-3.4v12.4h2.7c5.1-.2,8.3-2.2,8.3-6.2s-2.7-6.1-7.5-6.1Z"/>
  <path class="st2" d="M527.9,84.3c0,3.2,1.7,4.8,4.4,4.8s3.4-.9,4.1-2.1v-11.4c0-1.1-.1-1.3-1.2-1.5l-1.4-.4v-.9l6.2-.7v15.3c0,1.1.1,1.3,1.2,1.5l1.3.4v.9l-6.2.7v-2.9c-1.1,1.9-3.2,3.2-6,3.2s-6.4-2.1-6.4-6v-9.5c0-1.1-.1-1.3-1.2-1.5l-1.4-.4v-.9l6.2-.7v12.3h.4Z"/>
  <path class="st2" d="M551.1,75.9c2.2-2.7,3.9-4,5.7-4s2,.9,2,2-.1,1.1-.4,1.3c-.4-.1-1.1-.2-1.9-.2-2,0-4.4.7-5.3,1.8v11c0,1.4.2,1.7,2.8,2v1.2h-9.1v-1.2c2.4-.2,2.6-.6,2.6-1.8v-12.4c0-1.1-.1-1.3-1.2-1.5l-1.4-.4v-.9l6.2-.7v3.9h-.1Z"/>
  <path class="st2" d="M569.1,71.8c5,0,7.8,3.1,7.8,7.9v1.2h-12.8c.1,5,3.1,8.3,7.4,8.3s3.8-.7,4.9-1.9v1.1c-1.3,1.7-3.8,2.8-7,2.8-5.3,0-9.2-3.7-9.2-9.5s3.5-9.8,8.8-9.8ZM564,79.6h9.2v-.4c0-3.7-1.4-5.9-4.2-5.9s-4.7,2.1-4.9,6.2Z"/>
  <path class="st2" d="M580.3,86.5c0-2.9,2.1-4.7,7.2-5.8l4.2-.9v-1.7c0-3.4-1.9-4.7-4.6-4.7s-2.5.2-3.4.8c.7.2,1.3,1.1,1.3,1.9s-.9,2-2.1,2-2.1-.8-2.1-2c0-2.5,3.4-4.2,7.5-4.2s7,1.8,7,5.8v9.5c0,1.7.9,2.4,2,2.4s.7,0,.9-.1v1.1c-.6.5-1.6.8-2.9.8-1.9,0-3.2-.9-3.7-2.7-.9,1.5-3.3,2.7-6,2.7-3.1-.1-5.3-2.1-5.3-4.8ZM587.6,89.2c1.8,0,3.2-.7,4-2v-6.1l-2.6.6c-3.8.8-5.1,2.1-5.1,4.2.1,2.1,1.5,3.3,3.7,3.3Z"/>
  <path class="st2" d="M605.6,84.3c0,3.2,1.6,4.8,4.4,4.8s3.4-.9,4.1-2.1v-11.4c0-1.1-.1-1.3-1.2-1.5l-1.4-.4v-.9l6.2-.7v15.3c0,1.1.1,1.3,1.2,1.5l1.3.4v.9l-6.2.7v-2.9c-1.1,1.9-3.2,3.2-6,3.2s-6.4-2.1-6.4-6v-9.5c0-1.1-.1-1.3-1.2-1.5l-1.4-.4v-.9l6.2-.7v12.3h.4Z"/>
  <path class="st2" d="M308.8,120.8c0-5.8,4.1-9.8,9.7-9.8s9.4,3.9,9.4,9.7-4.2,9.8-9.7,9.8-9.4-3.9-9.4-9.7ZM323.8,121.1c0-5.1-2.4-8.4-5.5-8.4s-5.3,3.1-5.3,7.9,2.4,8.4,5.5,8.4,5.3-3.1,5.3-7.9Z"/>
  <path class="st2" d="M339.9,129v1.1h-9.2v-1.1c2.4-.2,2.6-.6,2.6-1.8v-14.1h-2.6v-.8l2.6-.9v-3.3c0-4.1,2.2-6.5,5.8-6.5s4,1.2,4,2.8-.7,1.8-1.8,1.8-1.8-.8-1.8-1.8.2-.9.6-1.3h-.5c-1.6,0-2.7,1.1-2.7,3.8v4.7h5.2c0-.1,0,1.5,0,1.5h-5.2c0-.1,0,13.9,0,13.9.1,1.5.4,1.8,2.9,2Z"/>
  <path class="st2" d="M363,129v1.1h-10.1v-1.1c2.7-.4,3.1-.7,3.1-2.4v-20.4c0-1.6-.4-2-3.1-2.4v-1.1h10.1v1.1c-2.7.4-3.1.7-3.1,2.4v20.4c.1,1.8.4,2.1,3.1,2.4Z"/>
  <path class="st2" d="M371.6,114.3c1.1-1.9,3.3-3.2,6.1-3.2s6.5,2.1,6.5,5.9v10.3c0,1.2.2,1.5,2.6,1.8v1.1h-8.7v-1.1c2.1-.2,2.4-.5,2.4-1.6v-9.4c0-3.2-1.6-4.7-4.4-4.7s-3.7.9-4.4,2.1v11.9c0,1.2.2,1.4,2.4,1.6v1.1h-8.7v-1.1c2.2-.2,2.6-.6,2.6-1.8v-12.4c0-1.1-.1-1.3-1.2-1.5l-1.4-.4v-.9l6.2-.7v3.1Z"/>
  <path class="st2" d="M386.7,112.6v-1.2h9.2v1.2c-2.5.2-2.8.7-2,2.9l3.9,10.4,3.9-10.4c.8-2.2.5-2.7-2-2.9v-1.2h6.8v1.2c-1.8.2-2.2.6-3.3,3.3l-5.8,14.3h-1.6l-5.9-14.5c-.9-2.2-1.4-2.7-3.2-3.1Z"/>
  <path class="st2" d="M416.1,111.2c5,0,7.8,3.1,7.8,7.9v1.2h-12.7c.1,4.9,3.1,8.3,7.4,8.3s3.8-.7,5-1.9v1.1c-1.3,1.6-3.8,2.8-7,2.8-5.3,0-9.2-3.7-9.2-9.5-.1-5.8,3.4-9.8,8.7-9.8ZM411,118.9h9.2v-.4c0-3.7-1.4-5.9-4.2-5.9s-4.7,2-5,6.2Z"/>
  <path class="st2" d="M434.7,111.2c2.8,0,5,.6,5.9,1.3v4.5c.1,0-.9,0-.9,0-.6-2.8-2.5-4.2-5-4.2s-3.9,1.1-3.9,2.8,1.4,2.6,3.8,3.3l1.5.5c3.4.9,5.4,2.7,5.4,5.8s-3.3,5.5-7.3,5.5-5.3-.7-6.7-1.7v-4.7c-.1,0,.9,0,.9,0,.7,3.3,3.1,4.8,5.8,4.8s4.1-1.3,4.1-3.1-1.1-2.7-3.7-3.4l-1.5-.5c-3.4-.9-5.5-2.6-5.5-5.5-.1-3.4,2.8-5.4,7.1-5.4Z"/>
  <path class="st2" d="M446.6,113.2h-2.5v-.8l5.7-4.5h.5v3.8h5.5c0-.1,0,1.5,0,1.5h-5.5c0-.1,0,11.3,0,11.3,0,3.1,1.3,4.1,3.2,4.1s2-.4,2.7-.8v1.1c-.8.8-2.8,1.6-4.6,1.6-2.6,0-4.9-1.4-4.9-5.4v-11.9Z"/>
  <path class="st2" d="M464,127.3c0,1.2.4,1.5,2.6,1.8v1.1h-8.8v-1.1c2.2-.2,2.6-.6,2.6-1.8v-12.4c0-1.1-.1-1.3-1.2-1.5l-1.4-.4v-.9l6.2-.7v15.9ZM459.6,105.3c0-1.2,1.1-2.2,2.2-2.2s2.2.9,2.2,2.2-1.1,2.2-2.2,2.2-2.2-1.1-2.2-2.2Z"/>
  <path class="st2" d="M477.5,111.2c1.5,0,2.8.2,3.9.7l6.6-.4v1.6l-5-.2c1.5.8,2.5,2.6,2.5,4.5,0,4-3.8,6.4-7.8,6.4s-1.3-.1-2.2-.2c-1.6.5-2.4,1.3-2.4,2.2s1.1,1.9,3.1,1.9h4.1c4.4,0,7,1.8,7,4.9s-4.1,6.7-9.5,6.7-8.8-1.9-8.8-4.8,1.9-3.4,5.3-4c-2.4-.1-4.1-1.3-4.1-3.3s1.6-3.3,4.2-4c-2.7-.7-4.6-2.7-4.6-5.7-.1-3.9,3.4-6.4,7.8-6.4ZM477.7,137.8c3.8,0,6.2-1.6,6.2-4s-1.3-2.9-4.4-2.9h-4.4c-2.1.4-3.2,1.5-3.2,3.3-.1,2.1,2,3.7,5.7,3.7ZM477.6,122.5c2.4,0,4-2,4-4.8s-1.6-5.1-4.2-5.1-4,2-4,4.8,1.8,5.1,4.2,5.1Z"/>
  <path class="st2" d="M489.9,125.8c0-2.9,2.1-4.7,7.2-5.8l4.2-.9v-1.6c0-3.4-1.9-4.7-4.6-4.7s-2.5.2-3.4.8c.7.2,1.3,1.1,1.3,1.9s-.9,2-2.1,2-2.1-.8-2.1-2c0-2.5,3.4-4.2,7.5-4.2s7,1.8,7,5.8v9.5c0,1.6.9,2.4,2,2.4s.7,0,.9-.1v1.1c-.6.5-1.6.8-2.9.8-1.9,0-3.2-.9-3.7-2.7-.9,1.5-3.3,2.7-6,2.7-2.9-.1-5.3-2-5.3-4.8ZM497.2,128.6c1.8,0,3.2-.7,4-2v-6.2l-2.6.6c-3.8.8-5.1,2.1-5.1,4.2.1,2.1,1.6,3.4,3.7,3.4Z"/>
  <path class="st2" d="M511.7,113.2h-2.5v-.8l5.7-4.5h.5v3.8h5.5c0-.1,0,1.5,0,1.5h-5.5c0-.1,0,11.3,0,11.3,0,3.1,1.3,4.1,3.2,4.1s2-.4,2.7-.8v1.1c-.8.8-2.8,1.6-4.6,1.6-2.6,0-5-1.4-5-5.4v-11.9Z"/>
  <path class="st2" d="M529.1,127.3c0,1.2.4,1.5,2.6,1.8v1.1h-8.8v-1.1c2.2-.2,2.6-.6,2.6-1.8v-12.4c0-1.1-.1-1.3-1.2-1.5l-1.4-.4v-.9l6.2-.7v15.9ZM524.6,105.3c0-1.2,1.1-2.2,2.2-2.2s2.2.9,2.2,2.2-1.1,2.2-2.2,2.2-2.2-1.1-2.2-2.2Z"/>
  <path class="st2" d="M534.4,120.8c0-5.8,4.1-9.8,9.7-9.8s9.4,3.9,9.4,9.7-4.2,9.8-9.7,9.8-9.4-3.9-9.4-9.7ZM549.4,121.1c0-5.1-2.4-8.4-5.5-8.4s-5.3,3.1-5.3,7.9,2.4,8.4,5.5,8.4,5.3-3.1,5.3-7.9Z"/>
  <path class="st2" d="M562.6,114.3c1.1-1.9,3.3-3.2,6.1-3.2s6.5,2.1,6.5,5.9v10.3c0,1.2.2,1.5,2.6,1.8v1.1h-8.7v-1.1c2.1-.2,2.4-.5,2.4-1.6v-9.4c0-3.2-1.6-4.7-4.4-4.7s-3.7.9-4.4,2.1v11.9c0,1.2.2,1.4,2.4,1.6v1.1h-8.7v-1.1c2.2-.2,2.6-.6,2.6-1.8v-12.4c0-1.1-.1-1.3-1.2-1.5l-1.4-.4v-.9l6.2-.7v3.1Z"/>
  <path class="st2" d="M579,100.3h1.4c4.4,3.2,8.3,9.8,8.3,17.6s-3.9,14.4-8.3,17.6h-1.4c3.8-4.2,6.1-10.1,6.1-17.6s-2.5-13.3-6.1-17.6Z"/>
</svg>