<?xml version="1.0" encoding="UTF-8"?>
<svg id="Layer_1" xmlns="http://www.w3.org/2000/svg" version="1.1" viewBox="0 0 885 430">
  <!-- Generator: Adobe Illustrator 29.7.1, SVG Export Plug-In . SVG Version: 2.1.1 Build 8)  -->
  <defs>
    <style>
      .st0 {
        fill: #c4c4c4;
      }

      .st1 {
        fill: #949494;
      }

      .st2 {
        fill: #7f7f7f;
      }
    </style>
  </defs>
  <path class="st1" d="M396.7,361.4c5.1,0,9.5-3.5,9.5-9.2v-15.8h-5.6v15.3c0,3.1-2,4.3-4,4.3s-4-1.2-4-4.3v-15.3h-5.6v15.8c0,5.7,4.5,9.2,9.6,9.2ZM411.6,336.4v24.5h5.6v-8.3h4.5c5.7,0,8.3-4,8.3-8.1.2-4.3-3.1-7.9-7.4-8.1-.3,0-.6,0-.9,0h-10.1ZM417.2,347.7v-6.4h4.3c2.1,0,2.8,1.7,2.8,3.2.2,1.6-.9,3-2.5,3.2-.1,0-.3,0-.4,0h-4.3ZM458.8,336.4h-4.8l-7,15.3-7.2-15.3h-4.7l-3,24.5h5.7l1.6-13.9,5.3,11.1h4.3l5.3-11.1,1.6,14h5.7l-3-24.5ZM477,361.4c4.1,0,8-2,10.3-5.4l-4.3-3c-1.2,2-3.4,3.3-5.8,3.2-3.9,0-7.1-3.2-7.1-7.2,0,0,0-.2,0-.3-.1-3.9,2.9-7.2,6.8-7.4,0,0,.2,0,.3,0,2.3,0,4.5,1.2,5.7,3.2l4.3-3c-3.9-5.7-11.6-7.2-17.3-3.3-3.5,2.4-5.5,6.3-5.4,10.5,0,7,5.5,12.6,12.5,12.7Z"/>
  <path class="st0" d="M622.5,336.1c0,1.1-.2,2.3-.7,3.3-.4.8-1,1.6-1.7,2.2-.7.6-1.4,1-2.3,1.2-.8.2-1.6.4-2.5.4h-7.5v-25.2h6.7c.8,0,1.6,0,2.3.3.8.2,1.6.5,2.3,1,.7.5,1.3,1.2,1.7,1.9.5,1,.7,2.1.7,3.2,0,1.3-.3,2.6-1,3.7-.6.8-1.4,1.5-2.3,1.9h0c.5.2,1,.4,1.4.7.5.3,1,.7,1.3,1.2.4.6.8,1.2,1,1.9.3.8.4,1.7.4,2.5ZM617.8,325c0-.6,0-1.1-.3-1.6-.2-.4-.4-.8-.8-1.1-.3-.3-.7-.5-1.1-.6-.4-.1-.9-.2-1.3-.2h-2.3v7h2.4c.4,0,.9,0,1.3-.2.4-.1.8-.3,1.1-.6.3-.3.6-.7.8-1.1.2-.5.3-1.1.3-1.6ZM618.4,335.7c0-.6-.1-1.3-.4-1.9-.4-.9-1.2-1.6-2.2-1.9-.4-.1-.9-.2-1.4-.2h-2.6v7.9h2.7c.5,0,1,0,1.5-.2.4-.1.8-.4,1.2-.7.4-.3.6-.7.8-1.2.2-.5.3-1.1.3-1.7ZM626.3,343.1v-26.9h4.1v26.9h-4.1ZM644.3,343.1v-2.9h0c-.3,1-.9,1.8-1.7,2.5-1.7,1.6-4.4,1.5-5.9-.2-.3-.3-.5-.7-.7-1.1-.3-.7-.6-1.6-.7-2.4-.1-.9-.2-1.8-.2-2.7v-11.4h4v11.4c0,.5,0,.9,0,1.4,0,.4.1.8.3,1.2.1.4.4.7.7.9.3.2.7.4,1.2.3.9,0,1.7-.5,2.2-1.3.6-1,.8-2.2.8-3.4v-10.5h4v18.1h-4ZM656.1,335.1c0,.7,0,1.4.2,2,.1.6.3,1.1.6,1.6.2.4.6.8,1,1.1.4.3.9.4,1.4.4.7,0,1.3-.2,1.8-.7.4-.5.8-1,1-1.6l3,1.7c-.5,1.2-1.2,2.2-2.2,3-1.1.8-2.4,1.2-3.7,1.1-2,0-3.9-.9-5.1-2.5-1.4-2.1-2.1-4.6-1.9-7.2,0-1.3.2-2.7.5-4,.3-1.1.8-2.1,1.4-3.1.6-.8,1.3-1.5,2.2-2,1.8-.9,4-.9,5.8,0,.8.5,1.5,1.1,2,1.9.5.9.9,1.9,1.1,2.9.2,1.2.4,2.4.4,3.6v1.5h-9.4ZM661.6,332.2c0-1.1-.2-2.3-.6-3.3-.3-.8-1.1-1.3-2-1.3-.5,0-1,.2-1.3.5-.4.3-.7.7-.9,1.2-.4.9-.7,1.9-.7,2.9h5.6ZM690.8,340.4c-.7,1-1.5,1.8-2.5,2.4-1.2.7-2.5,1-3.9.9-1.4,0-2.7-.3-3.9-1-1.2-.7-2.2-1.6-2.9-2.8-.8-1.3-1.5-2.7-1.9-4.2-.5-1.7-.7-3.5-.7-5.3,0-1.8.2-3.6.7-5.3.4-1.5,1-2.9,1.9-4.2.8-1.1,1.8-2.1,2.9-2.7,1.2-.7,2.5-1,3.8-1,1.3,0,2.6.2,3.8.8,1.1.5,2,1.3,2.7,2.3l-2.5,3c-.8-1.3-2.2-2.1-3.8-2.1-.8,0-1.6.2-2.2.7-.7.5-1.2,1.2-1.6,2-.5.9-.8,1.9-1,2.9-.2,1.2-.3,2.4-.3,3.6,0,1.2.1,2.4.3,3.6.2,1,.5,2,1,2.9.4.8.9,1.5,1.6,2,.7.5,1.5.7,2.3.7.8,0,1.5-.2,2.2-.6.6-.4,1.1-1,1.5-1.6l2.5,2.9ZM697.8,328.5c.2-1.1.7-2.2,1.5-3.1.6-.7,1.5-1,2.3-1h.3c.1,0,.2,0,.3,0l-.2,4.1c-.3,0-.6-.1-.9-.1-.5,0-1,.2-1.4.5-.4.3-.8.8-1,1.3-.3.6-.5,1.2-.6,1.8-.1.7-.2,1.3-.2,2v9.1h-4.1v-18.1h4v3.5h0ZM717.3,334.1c0,1.3-.1,2.6-.5,3.9-.3,1.1-.7,2.1-1.4,3-.6.8-1.3,1.5-2.2,2-1.8.9-4,.9-5.8,0-.9-.5-1.6-1.2-2.2-2-.6-.9-1.1-2-1.4-3-.3-1.3-.5-2.6-.5-3.9,0-1.3.1-2.7.5-4,.3-1.1.7-2.1,1.4-3.1.6-.8,1.3-1.5,2.2-2,.9-.5,1.9-.7,2.9-.7,1,0,2,.2,2.9.7.9.5,1.6,1.2,2.2,2,.6.9,1.1,2,1.4,3.1.3,1.3.5,2.6.5,4ZM713.3,334.1c0-.8,0-1.6-.2-2.4,0-.7-.3-1.3-.6-2-.2-.5-.5-.9-.9-1.3-.8-.6-1.9-.6-2.7,0-.4.4-.7.8-.9,1.3-.3.6-.4,1.3-.5,2-.2,1.6-.2,3.2,0,4.9,0,.7.3,1.3.5,2,.2.5.5.9.9,1.3.4.3.8.5,1.3.5.5,0,1-.2,1.4-.5.4-.4.7-.8.9-1.3.3-.6.4-1.3.5-2,.1-.8.2-1.6.2-2.4ZM728.8,329.1c-.3-.5-.8-.8-1.2-1.1-.5-.3-1.1-.4-1.7-.4-.6,0-1.1.2-1.5.6-.4.4-.6,1-.6,1.7,0,.6.2,1.2.6,1.5.6.4,1.3.7,2,1,.5.2,1,.4,1.5.7.5.3,1,.6,1.4,1,.4.4.8,1,1,1.5.3.7.4,1.4.4,2.2,0,.9-.1,1.8-.5,2.6-.3.7-.7,1.3-1.3,1.9-.5.5-1.2.9-1.9,1.1-.7.2-1.4.4-2.2.4-2.2,0-4.2-.9-5.7-2.5l2.2-2.6c.4.5.9.9,1.5,1.3.6.4,1.3.6,2,.5.6,0,1.2-.2,1.6-.7.4-.5.6-1.1.6-1.8,0-.7-.3-1.4-.8-1.9-.7-.4-1.4-.8-2.2-1.1-.5-.2-.9-.4-1.4-.6-.5-.2-.9-.6-1.2-1-.4-.4-.7-.9-.9-1.5-.2-.7-.4-1.4-.3-2.1,0-.8.1-1.6.5-2.3.3-.7.7-1.3,1.3-1.8.5-.5,1.1-.9,1.8-1.1.7-.2,1.4-.4,2.1-.4,1,0,2,.2,3,.6.8.4,1.6.9,2.2,1.5l-2.1,2.6ZM741.8,329.1c-.3-.5-.8-.8-1.2-1.1-.5-.3-1.1-.4-1.7-.4-.6,0-1.1.2-1.5.6-.4.4-.6,1-.6,1.7,0,.6.2,1.2.6,1.5.6.4,1.3.7,2,1,.5.2,1,.4,1.5.7.5.3,1,.6,1.4,1,.4.4.8,1,1,1.5.3.7.4,1.4.4,2.2,0,.9-.1,1.8-.5,2.6-.3.7-.7,1.3-1.3,1.9-.5.5-1.2.9-1.9,1.1-.7.2-1.4.4-2.2.4-2.2,0-4.2-.9-5.7-2.5l2.2-2.6c.4.5.9.9,1.5,1.3.6.4,1.3.6,2,.5.6,0,1.2-.2,1.6-.7.4-.5.6-1.1.6-1.8,0-.7-.3-1.4-.8-1.9-.7-.4-1.4-.8-2.2-1.1-.5-.2-.9-.4-1.4-.6-.5-.2-.9-.6-1.2-1-.4-.4-.7-.9-.9-1.5-.2-.7-.4-1.4-.3-2.1,0-.8.1-1.6.5-2.3.3-.7.7-1.3,1.3-1.8.5-.5,1.1-.9,1.8-1.1.7-.2,1.4-.4,2.1-.4,1,0,2,.2,3,.6.8.4,1.6.9,2.2,1.5l-2.1,2.6ZM761.6,334.6h-1.2c-.5,0-1,0-1.4.1-.4,0-.9.2-1.2.5-.4.2-.7.6-.9,1-.2.5-.3,1-.3,1.6,0,.8.2,1.5.6,2.1.4.4.9.7,1.4.7.5,0,1-.1,1.4-.5.4-.3.7-.7.9-1.2.2-.5.4-1,.5-1.6.1-.6.2-1.1.2-1.7v-1ZM761.7,340.4c-.2.9-.7,1.7-1.4,2.3-.8.6-1.8.9-2.7.8-.5,0-1.1-.1-1.6-.3-.6-.2-1.1-.5-1.5-.9-.5-.5-.8-1.1-1.1-1.7-.3-.8-.4-1.7-.4-2.5,0-1.1.2-2.2.7-3.1.4-.8,1-1.4,1.8-1.9.7-.5,1.6-.8,2.4-1,.9-.2,1.7-.3,2.6-.3h1v-.6c0-.9-.2-1.9-.7-2.6-.5-.5-1.2-.8-1.9-.8-.7,0-1.3.2-1.9.5-.6.3-1,.8-1.4,1.3l-1.9-2.5c.7-.8,1.5-1.5,2.5-1.9.9-.4,2-.7,3-.7,1,0,1.9.2,2.8.5.7.3,1.4.9,1.9,1.5.5.8.9,1.6,1,2.5.2,1.1.3,2.2.3,3.4v10.8h-3.3v-2.7h0ZM773.7,325v2.9h0c.3-1,.9-1.8,1.7-2.5,1.7-1.6,4.4-1.5,5.9.2.3.3.5.7.7,1.1.3.7.6,1.5.7,2.4.1.9.2,1.8.2,2.7v11.4h-4v-11.4c0-.5,0-.9,0-1.4,0-.4-.1-.9-.3-1.3-.1-.4-.4-.7-.7-.9-.3-.2-.7-.4-1.2-.3-.9,0-1.7.5-2.2,1.4-.6,1-.8,2.2-.8,3.4v10.5h-4v-18.1h4ZM796.6,343.1v-2.6h0c-.2.9-.7,1.6-1.3,2.3-.7.7-1.7,1-2.7.9-.9,0-1.8-.2-2.5-.7-.8-.5-1.4-1.3-1.9-2.1-.5-1-.9-2-1.1-3.1-.3-1.3-.4-2.6-.4-3.9,0-1.3.1-2.6.4-3.8.2-1.1.6-2.1,1.1-3,.5-.8,1.1-1.5,1.8-2,.8-.5,1.6-.7,2.5-.7.9,0,1.8.3,2.5.8.7.5,1.2,1.3,1.4,2.1h.1v-11.1h4v26.9h-3.9ZM796.7,334.1c0-.8,0-1.6-.2-2.4-.1-.7-.3-1.3-.6-2-.2-.5-.5-1-1-1.3-.4-.3-.8-.5-1.3-.5-.5,0-1,.2-1.4.5-.4.4-.7.8-.9,1.3-.3.6-.4,1.3-.5,2-.1.8-.2,1.6-.2,2.4,0,.8,0,1.6.2,2.4,0,.7.3,1.3.5,2,.2.5.5,1,.9,1.3.8.6,1.9.6,2.7,0,.4-.4.7-.8.9-1.3.3-.6.5-1.3.6-2,.1-.8.2-1.6.2-2.4ZM827,336.1c0,1.1-.2,2.3-.7,3.3-.4.8-1,1.6-1.7,2.2-.7.6-1.4,1-2.3,1.2-.8.2-1.6.4-2.5.4h-7.5v-25.2h6.7c.8,0,1.6,0,2.3.3.8.2,1.6.5,2.3,1,.7.5,1.3,1.2,1.7,1.9.5,1,.7,2.1.7,3.2,0,1.3-.3,2.6-1,3.7-.6.8-1.4,1.5-2.3,1.9h0c.5.2,1,.4,1.4.7.5.3,1,.7,1.3,1.2.4.6.8,1.2,1,1.9.3.8.4,1.7.4,2.5ZM822.3,325c0-.6,0-1.1-.3-1.6-.2-.4-.4-.8-.8-1.1-.3-.3-.7-.5-1.1-.6-.4-.1-.9-.2-1.3-.2h-2.3v7h2.4c.4,0,.9,0,1.3-.2.4-.1.8-.3,1.1-.6.3-.3.6-.7.8-1.1.2-.5.3-1.1.3-1.6ZM822.9,335.7c0-.6-.1-1.3-.4-1.9-.4-.9-1.2-1.6-2.2-1.9-.4-.1-.9-.2-1.4-.2h-2.6v7.9h2.7c.5,0,1,0,1.5-.2.4-.1.8-.4,1.2-.7.4-.3.6-.7.8-1.2.2-.5.3-1.1.3-1.7ZM830.7,343.1v-26.9h4.1v26.9h-4.1ZM848.7,343.1v-2.9h0c-.3,1-.9,1.8-1.7,2.5-1.7,1.6-4.4,1.5-5.9-.2-.3-.3-.5-.7-.7-1.1-.3-.7-.6-1.6-.7-2.4-.1-.9-.2-1.8-.2-2.7v-11.4h4v11.4c0,.5,0,.9,0,1.4,0,.4.1.8.3,1.2.1.4.4.7.7.9.3.2.7.4,1.2.3.9,0,1.7-.5,2.2-1.3.6-1,.8-2.2.8-3.4v-10.5h4v18.1h-3.9ZM860.5,335.1c0,.7,0,1.4.2,2,.1.6.3,1.1.6,1.6.2.4.6.8,1,1.1.4.3.9.4,1.4.4.7,0,1.3-.2,1.8-.7.4-.5.8-1,1-1.6l3,1.7c-.5,1.2-1.2,2.2-2.2,3-1.1.8-2.4,1.2-3.7,1.1-2,0-3.9-.9-5.1-2.5-1.4-2.1-2.1-4.6-1.9-7.2,0-1.3.2-2.7.5-4,.3-1.1.8-2.1,1.4-3.1.6-.8,1.3-1.5,2.2-2,1.8-.9,4-.9,5.8,0,.8.5,1.5,1.1,2,1.9.5.9.9,1.9,1.1,2.9.2,1.2.4,2.4.4,3.6v1.5h-9.4ZM866.1,332.2c0-1.1-.2-2.3-.6-3.3-.3-.8-1.1-1.3-2-1.3-.5,0-1,.2-1.3.5-.4.3-.7.7-.9,1.2-.4.9-.7,1.9-.7,2.9h5.6ZM627.9,358.4c-.8-1.1-2.1-1.7-3.5-1.7-.4,0-.8,0-1.2.2-.4.1-.7.3-1,.6-.3.3-.6.7-.7,1.1-.2.5-.3,1.1-.3,1.6,0,.9.3,1.8,1,2.5.8.7,1.6,1.2,2.5,1.7.6.3,1.2.7,1.9,1.1.6.4,1.2.9,1.7,1.5,1.2,1.3,1.8,3,1.8,4.8,0,1.1-.2,2.2-.6,3.3-.4.9-.9,1.7-1.6,2.4-.6.6-1.4,1.1-2.3,1.5-.9.3-1.8.5-2.8.5-1.3,0-2.7-.3-3.9-.8-1.1-.5-2.1-1.2-2.8-2.1l2.3-3.1c.5.7,1.2,1.2,2,1.6.7.4,1.5.6,2.4.6.8,0,1.7-.3,2.2-.9.6-.7.9-1.6.9-2.6,0-1-.3-1.9-1.1-2.6-.8-.7-1.7-1.3-2.7-1.8-.7-.3-1.3-.7-1.9-1.1-.6-.4-1.1-.9-1.6-1.4-.5-.6-.9-1.2-1.1-2-.3-.9-.4-1.8-.4-2.7,0-1.2.2-2.3.6-3.4.4-.9.9-1.7,1.6-2.3.7-.6,1.4-1.1,2.3-1.4.8-.3,1.7-.4,2.6-.4,1.2,0,2.3.2,3.4.6,1,.4,1.9,1,2.5,1.8l-2.3,3.1ZM643,378.7v-11.4c0-.5,0-.9,0-1.4,0-.4-.1-.9-.3-1.3-.1-.4-.4-.7-.7-.9-.3-.2-.7-.4-1.2-.3-.9,0-1.7.5-2.2,1.4-.6,1-.8,2.2-.8,3.4v10.5h-4v-26.9h4v11.6h0c.3-.9.9-1.8,1.6-2.4.8-.7,1.8-1.1,2.8-1,.9,0,1.7.2,2.4.6.6.4,1.1,1,1.4,1.7.3.7.6,1.5.7,2.4.1.9.2,1.8.2,2.7v11.4h-4ZM656.1,355.3c0,.7-.2,1.3-.7,1.8-.9.9-2.4,1-3.3,0,0,0,0,0,0,0-.4-.5-.7-1.1-.7-1.8,0-.7.2-1.3.7-1.8.8-.9,2.3-1,3.2-.2,0,0,.1,0,.2.2.4.5.7,1.1.7,1.8ZM651.7,378.7v-18.1h4v18.1h-4ZM663.4,370.7c0,.7,0,1.4.2,2,.1.6.3,1.1.6,1.6.2.4.6.8,1,1.1.4.3.9.4,1.4.4.7,0,1.3-.2,1.8-.7.4-.5.8-1,1-1.6l3,1.7c-.5,1.2-1.2,2.2-2.2,3-1.1.8-2.4,1.2-3.7,1.1-2,0-3.9-.9-5.1-2.5-1.4-2.1-2.1-4.6-1.9-7.2,0-1.3.1-2.7.5-4,.3-1.1.8-2.1,1.4-3.1.6-.8,1.3-1.5,2.2-2,1.8-.9,4-.9,5.8,0,.8.5,1.5,1.1,2,1.9.5.9.9,1.9,1.1,2.9.2,1.2.4,2.4.4,3.6v1.5h-9.4ZM669,367.8c0-1.1-.2-2.3-.6-3.3-.3-.8-1.1-1.3-2-1.3-.5,0-1,.2-1.3.5-.4.3-.7.7-.9,1.2-.4.9-.7,1.9-.7,2.9h5.6ZM676.5,378.7v-26.9h4.1v26.9h-4.1ZM694.3,378.7v-2.6h0c-.2.9-.7,1.6-1.3,2.3-.7.7-1.7,1-2.7.9-.9,0-1.8-.2-2.5-.7-.8-.5-1.4-1.3-1.9-2.1-.5-1-.9-2-1.1-3.1-.5-2.5-.5-5.2,0-7.7.2-1.1.6-2.1,1.1-3,.4-.8,1.1-1.5,1.8-2,.8-.5,1.6-.7,2.5-.7.9,0,1.8.3,2.5.8.7.5,1.2,1.3,1.4,2.1h.1v-11.1h4v26.9h-3.9ZM694.4,369.7c0-.8,0-1.6-.2-2.4-.1-.7-.3-1.3-.6-2-.2-.5-.5-1-1-1.3-.4-.3-.8-.5-1.3-.5-.5,0-1,.2-1.4.5-.4.4-.7.8-.9,1.3-.3.6-.4,1.3-.5,2-.1.8-.2,1.6-.2,2.4,0,.8,0,1.6.2,2.4,0,.7.3,1.3.5,2,.2.5.5,1,.9,1.3.8.6,1.9.6,2.7,0,.4-.4.7-.8.9-1.3.3-.6.5-1.3.6-2,.1-.8.2-1.6.2-2.4ZM722.9,369.7c0,1.3-.1,2.6-.5,3.9-.3,1.1-.7,2.1-1.4,3-.6.8-1.3,1.5-2.2,2-1.8.9-4,.9-5.8,0-.9-.5-1.6-1.2-2.2-2-.6-.9-1.1-2-1.4-3-.3-1.3-.5-2.6-.5-3.9,0-1.3.1-2.7.5-4,.3-1.1.7-2.1,1.4-3.1.6-.8,1.3-1.5,2.2-2,.9-.5,1.9-.7,2.9-.7,1,0,2,.2,2.9.7.9.5,1.6,1.2,2.2,2,.6.9,1.1,2,1.4,3.1.3,1.3.5,2.6.5,4ZM718.9,369.7c0-.8,0-1.6-.2-2.4,0-.7-.3-1.3-.6-2-.2-.5-.5-1-.9-1.3-.8-.6-1.9-.6-2.7,0-.4.4-.7.8-.9,1.3-.3.6-.4,1.3-.5,2-.2,1.6-.2,3.3,0,4.9,0,.7.3,1.3.5,2,.2.5.5.9.9,1.3.4.3.8.5,1.3.5.5,0,1-.2,1.4-.5.4-.4.7-.8.9-1.3.3-.6.4-1.3.5-2,.1-.8.2-1.6.2-2.4ZM734.1,354.6c-.3-.1-.7-.2-1.1-.2-.4,0-.8,0-1.1.3-.3.2-.5.5-.7.8-.2.4-.3.7-.4,1.1,0,.4-.1.9-.1,1.3v2.6h2.9v3.2h-2.9v14.9h-3.9v-14.9h-2.3v-3.2h2.3v-2.6c0-.9,0-1.8.3-2.7.2-.8.5-1.5,1-2.2.4-.6,1-1.1,1.7-1.5.8-.4,1.7-.6,2.6-.5.3,0,.6,0,1,0,.3,0,.6.1.9.2l-.2,3.3ZM754.4,378.7l-1.2-5.3h-6.6l-1.3,5.3h-4.3l6.3-25.2h5.4l6.2,25.2h-4.4ZM750,357.6h-.1l-2.7,12.5h5.6l-2.7-12.5ZM765.5,364.1c.2-1.1.7-2.2,1.5-3.1.6-.7,1.5-1,2.3-1h.3c.1,0,.2,0,.3,0l-.2,4.1c-.3,0-.6-.1-.9-.1-.5,0-1,.2-1.4.5-.4.3-.8.8-1,1.3-.3.6-.5,1.2-.6,1.8-.1.7-.2,1.3-.2,2v9.1h-4.1v-18.1h4v3.5h0ZM781.2,378.7l-4.8-8.7h0v8.7h-4v-26.9h4v16.4h0l4.6-7.7h4.7l-5.7,8.4,5.9,9.8h-4.7ZM795.6,370.2h-1.2c-.5,0-1,0-1.4.1-.4,0-.9.2-1.2.5-.4.2-.7.6-.9,1-.2.5-.3,1-.3,1.6,0,.8.2,1.5.6,2.1.4.4.9.7,1.4.7.5,0,1-.2,1.4-.5.4-.3.7-.7.9-1.2.2-.5.4-1,.5-1.6.1-.6.2-1.1.2-1.7v-1ZM795.7,376c-.2.9-.7,1.7-1.4,2.3-.8.6-1.8.9-2.7.8-.5,0-1.1-.1-1.6-.3-.6-.2-1.1-.5-1.5-.9-.5-.5-.8-1.1-1.1-1.7-.3-.8-.4-1.7-.4-2.5,0-1.1.2-2.2.7-3.1.4-.8,1-1.4,1.8-1.9.7-.5,1.6-.8,2.4-1,.9-.2,1.7-.3,2.6-.3h1v-.6c0-.9-.2-1.9-.7-2.6-.5-.5-1.2-.8-1.9-.8-.7,0-1.3.2-1.9.5-.6.3-1,.8-1.4,1.3l-1.9-2.5c.7-.8,1.5-1.5,2.5-1.9.9-.4,2-.7,3-.7,1,0,1.9.2,2.8.5.8.3,1.4.9,1.9,1.5.5.8.9,1.6,1,2.5.2,1.1.3,2.2.3,3.4v10.8h-3.3v-2.7h0ZM807.7,360.6v2.9h0c.3-1,.9-1.8,1.7-2.5,1.7-1.6,4.4-1.5,5.9.2.3.3.5.7.7,1.1.3.7.6,1.5.7,2.4.1.9.2,1.8.2,2.7v11.4h-4v-11.4c0-.5,0-.9,0-1.4,0-.4-.1-.9-.3-1.3-.1-.4-.4-.7-.7-.9-.3-.2-.7-.4-1.2-.3-.9,0-1.7.5-2.2,1.4-.6,1-.8,2.2-.8,3.4v10.5h-4v-18.1h4ZM829.4,364.7c-.3-.5-.8-.8-1.2-1.1-.5-.3-1.1-.4-1.7-.4-.6,0-1.1.2-1.5.6-.4.4-.6,1-.6,1.7,0,.6.2,1.2.6,1.5.6.4,1.3.7,2,1,.5.2,1,.4,1.5.7.5.3,1,.6,1.4,1,.4.4.8,1,1,1.5.3.7.4,1.4.4,2.2,0,.9-.1,1.8-.5,2.6-.3.7-.7,1.3-1.3,1.9-.5.5-1.2.9-1.9,1.1-.7.2-1.4.4-2.2.4-2.2,0-4.2-.9-5.7-2.5l2.2-2.6c.4.5.9.9,1.5,1.3.6.4,1.3.5,2,.5.6,0,1.2-.2,1.6-.7.4-.5.6-1.1.6-1.8,0-.7-.3-1.4-.8-1.9-.7-.4-1.4-.8-2.2-1.1-.5-.2-.9-.4-1.4-.6-.5-.2-.9-.6-1.2-1-.4-.4-.7-.9-.9-1.5-.2-.7-.4-1.4-.3-2.1,0-.8.1-1.6.5-2.3.3-.7.7-1.3,1.3-1.8.5-.5,1.1-.9,1.8-1.1.7-.2,1.4-.4,2.1-.4,1,0,2,.2,3,.6.8.4,1.6.9,2.2,1.5l-2.1,2.6ZM842.2,370.2h-1.2c-.5,0-1,0-1.4.1-.4,0-.9.2-1.2.5-.4.2-.7.6-.9,1-.2.5-.3,1-.3,1.6,0,.8.2,1.5.6,2.1.4.4.9.7,1.4.7.5,0,1-.2,1.4-.5.4-.3.7-.7.9-1.2.2-.5.4-1,.5-1.6.1-.6.2-1.1.2-1.7v-1ZM842.4,376c-.2.9-.7,1.7-1.4,2.3-.8.6-1.8.9-2.7.8-.5,0-1.1-.1-1.6-.3-.6-.2-1.1-.5-1.5-.9-.5-.5-.8-1.1-1.1-1.7-.3-.8-.4-1.7-.4-2.5,0-1.1.2-2.2.7-3.1.4-.8,1-1.4,1.8-1.9.7-.5,1.6-.8,2.4-1,.9-.2,1.7-.3,2.6-.3h1v-.6c0-.9-.2-1.9-.7-2.6-.5-.5-1.2-.8-1.9-.8-.7,0-1.3.2-1.9.5-.6.3-1.1.8-1.4,1.3l-1.9-2.5c.7-.8,1.5-1.5,2.5-1.9.9-.4,2-.7,3-.7,1,0,1.9.2,2.8.5.8.3,1.4.9,1.9,1.5.5.8.9,1.6,1,2.5.2,1.1.3,2.2.3,3.4v10.8h-3.3v-2.7h0ZM858.1,364.7c-.3-.5-.8-.8-1.2-1.1-.5-.3-1.1-.4-1.7-.4-.6,0-1.1.2-1.5.6-.4.4-.6,1-.6,1.7,0,.6.2,1.2.6,1.5.6.4,1.3.7,2,1,.5.2,1,.4,1.5.7.5.3,1,.6,1.4,1,.4.4.8,1,1,1.5.3.7.4,1.4.4,2.1,0,.9-.1,1.8-.5,2.6-.3.7-.7,1.3-1.3,1.9-.5.5-1.2.9-1.9,1.1-.7.2-1.4.4-2.2.4-2.2,0-4.2-.9-5.7-2.5l2.2-2.6c.4.5.9.9,1.5,1.3.6.4,1.3.5,2,.5.6,0,1.2-.2,1.6-.7.4-.5.6-1.1.6-1.8,0-.7-.3-1.4-.8-1.9-.7-.4-1.4-.8-2.2-1.1-.5-.2-.9-.4-1.4-.6-.5-.2-.9-.6-1.2-1-.4-.4-.7-.9-.9-1.5-.2-.7-.4-1.4-.3-2.1,0-.8.1-1.6.5-2.3.3-.7.7-1.3,1.3-1.8.5-.5,1.1-.9,1.8-1.1.7-.2,1.4-.4,2.1-.4,1,0,2,.2,3,.6.8.4,1.6.9,2.2,1.5l-2.1,2.6Z"/>
  <path class="st1" d="M27.9,195.1c0,1.8-.8,3.5-2.2,4.5-.7.5-1.6.9-2.4,1.2-1,.3-1.9.4-2.9.4h-11.4v-23.6h12.6c.8,0,1.5.2,2.2.5.6.3,1.2.8,1.7,1.4.5.6.8,1.2,1.1,1.9.6,1.8.5,3.8-.5,5.4-.6,1-1.5,1.8-2.5,2.2,1.3.3,2.4,1.1,3.2,2.1.8,1.1,1.2,2.5,1.2,3.9ZM23.3,194.2c0-.4,0-.8-.2-1.2-.1-.4-.3-.7-.6-1-.2-.3-.5-.5-.9-.7-.3-.2-.7-.3-1.1-.2h-7v6.2h6.8c.4,0,.8,0,1.2-.2.4-.1.7-.4.9-.6.6-.6.9-1.4.9-2.2h0ZM13.5,181.5v5.9h6.1c.7,0,1.5-.3,2-.8.6-.6.9-1.4.8-2.2,0-.8-.2-1.6-.7-2.2-.5-.5-1.1-.8-1.8-.8h-6.3ZM31,176.9h4.5v18.7c0,.5.1,1.1.5,1.5.3.4.8.6,1.3.5.3,0,.6,0,.9-.1.3,0,.6-.2.9-.3l.6,3.4c-.7.3-1.4.5-2.1.7-.7.1-1.4.2-2.2.2-1.2,0-2.4-.3-3.2-1.1-.8-.9-1.2-2-1.1-3.2v-20.2ZM46.9,201.5c-1.6.1-3.1-.5-4.1-1.7-1-1.5-1.5-3.3-1.4-5.1v-10.9h4.5v9.9c0,2.7,1,4,2.9,4,.9,0,1.8-.3,2.5-.8.9-.6,1.6-1.4,2-2.4v-10.8h4.5v12.3c0,.4,0,.7.2,1,.2.2.5.3.8.3v3.8c-.4,0-.7.1-1.1.2-.3,0-.6,0-.8,0-.7,0-1.4-.2-1.9-.5-.5-.4-.8-.9-.9-1.5v-1.4c-.8,1.2-1.9,2.1-3.1,2.7-1.3.6-2.6.9-4,.9ZM70.2,201.5c-1.3,0-2.6-.2-3.8-.7-2.2-.9-3.9-2.6-4.7-4.8-.4-1.1-.7-2.2-.6-3.4,0-1.2.2-2.4.6-3.5.4-1.1,1-2.1,1.8-2.9.8-.8,1.8-1.5,2.9-2,1.2-.5,2.5-.7,3.8-.7,1.3,0,2.6.2,3.8.7,1.1.5,2,1.1,2.9,2,.8.8,1.4,1.8,1.8,2.9.4,1.1.6,2.2.6,3.4,0,.3,0,.6,0,.8,0,.2,0,.4,0,.7h-13.5c0,.6.2,1.3.5,1.8.5,1,1.4,1.8,2.5,2.2.5.2,1.1.3,1.7.3.9,0,1.7-.2,2.5-.6.7-.4,1.3-1,1.6-1.7l3.8,1.1c-.7,1.4-1.8,2.5-3.1,3.3-1.5.9-3.3,1.3-5,1.3ZM74.7,191c0-1.2-.6-2.3-1.4-3.1-1.7-1.6-4.4-1.6-6.2,0-.4.4-.7.9-1,1.4-.3.6-.4,1.1-.4,1.8h9ZM89,189.2c0-1.5.3-2.9.8-4.3,1-2.9,3.2-5.2,5.9-6.5,1.5-.7,3.2-1.1,4.9-1,2,0,3.9.4,5.6,1.4,1.5.9,2.7,2.2,3.5,3.7l-3.5,2.4c-.3-.6-.7-1.2-1.1-1.7-.4-.4-.9-.8-1.4-1.1-.5-.3-1-.5-1.6-.6-.5-.1-1.1-.2-1.6-.2-1,0-2.1.2-3,.7-.8.4-1.6,1.1-2.1,1.8-.6.8-1,1.6-1.3,2.5-.3.9-.4,1.9-.4,2.8,0,1,.2,2,.5,3,.3.9.8,1.8,1.4,2.5.6.7,1.4,1.3,2.2,1.8.9.4,1.8.7,2.8.7.6,0,1.1,0,1.7-.2.6-.1,1.1-.3,1.6-.6.5-.3,1-.7,1.4-1.1.5-.5.8-1,1.1-1.6l3.8,2.2c-.4.9-.9,1.7-1.6,2.3-.7.7-1.5,1.3-2.4,1.7-.9.5-1.8.8-2.8,1.1-1,.2-1.9.4-2.9.4-1.6,0-3.2-.3-4.6-1.1-1.4-.7-2.6-1.6-3.6-2.8-1-1.1-1.8-2.5-2.4-3.9-.6-1.4-.9-2.9-.9-4.4ZM123.1,187.6c-1.2,0-2.5.3-3.6.8-1,.4-1.8,1.2-2.3,2.2v10.5h-4.5v-17.4h4.1v3.7c.3-.6.7-1.1,1.1-1.6.4-.5.9-.9,1.4-1.2.5-.3,1-.6,1.5-.8.5-.2,1-.3,1.4-.3h.5c.1,0,.2,0,.3,0v4.1ZM132.8,201.5c-1.3,0-2.6-.2-3.8-.7-1.1-.5-2.1-1.1-2.9-2-.8-.8-1.4-1.8-1.8-2.9-.8-2.2-.8-4.7,0-6.9.4-1.1,1-2,1.8-2.9.8-.8,1.8-1.5,2.9-2,1.2-.5,2.5-.8,3.8-.7,1.3,0,2.6.2,3.8.7,1.1.5,2,1.1,2.9,2,.8.8,1.4,1.8,1.8,2.9.8,2.2.8,4.7,0,6.9-.4,1.1-1,2-1.8,2.9-.8.9-1.8,1.5-2.9,2-1.2.5-2.5.7-3.8.7h0ZM128.2,192.5c0,.7.1,1.4.3,2.1.2.6.5,1.2,1,1.6.4.5.9.8,1.4,1.1,1.1.5,2.4.5,3.6,0,.6-.3,1-.6,1.4-1.1.4-.5.7-1.1,1-1.7.2-.7.4-1.4.3-2.1,0-.7-.1-1.4-.3-2.1-.2-.6-.5-1.2-1-1.7-.4-.5-.9-.8-1.4-1.1-.6-.3-1.2-.4-1.8-.4-.6,0-1.2.1-1.8.4-.6.3-1,.6-1.4,1.1-.4.5-.7,1.1-1,1.7-.2.7-.4,1.4-.3,2.1h0ZM151.5,201.5c-1.5,0-2.9-.2-4.3-.7-1.3-.4-2.5-1.1-3.6-2l1.7-2.8c1,.7,2,1.3,3.1,1.7,1,.4,2,.6,3,.6.7,0,1.5-.1,2.1-.5.5-.3.8-.8.8-1.4,0-.6-.3-1.1-.9-1.4-.9-.4-1.9-.7-2.9-1-1.1-.3-2.1-.6-2.9-.9-.7-.2-1.3-.6-1.9-1-.5-.3-.8-.8-1.1-1.3-.2-.5-.3-1.1-.3-1.7,0-.8.2-1.6.5-2.4.3-.7.8-1.3,1.4-1.8.6-.5,1.4-.9,2.2-1.1.9-.3,1.8-.4,2.7-.4,1.2,0,2.5.2,3.7.6,1.2.4,2.2,1,3.1,1.8l-1.8,2.7c-.8-.6-1.7-1.1-2.6-1.5-.8-.3-1.6-.5-2.5-.5-.7,0-1.3.1-1.9.5-.5.3-.8.9-.8,1.5,0,.3,0,.5.2.8.1.2.3.4.6.5.3.2.7.3,1,.4.4.1,1,.3,1.6.4,1.2.3,2.2.6,3.1.9.7.3,1.4.6,2.1,1.1.5.4.9.8,1.2,1.4.3.6.4,1.2.4,1.9,0,1.6-.6,3.1-1.9,4-1.5,1.1-3.3,1.6-5.1,1.5h0ZM168,201.5c-1.5,0-2.9-.2-4.3-.7-1.3-.4-2.5-1.1-3.6-2l1.7-2.8c1,.7,2,1.3,3.1,1.7,1,.4,2,.6,3,.6.7,0,1.5-.1,2.1-.5.5-.3.8-.8.8-1.4,0-.6-.3-1.1-.9-1.4-.9-.4-1.9-.7-2.9-1-1.1-.3-2.1-.6-2.9-.9-.7-.2-1.3-.6-1.9-1-.5-.3-.8-.8-1.1-1.3-.2-.5-.3-1.1-.3-1.7,0-.8.2-1.6.5-2.4.3-.7.8-1.3,1.4-1.8.6-.5,1.4-.9,2.2-1.1.9-.3,1.8-.4,2.7-.4,1.2,0,2.5.2,3.7.6,1.2.4,2.2,1,3.1,1.8l-1.8,2.7c-.8-.6-1.7-1.1-2.6-1.5-.8-.3-1.6-.5-2.5-.5-.7,0-1.3.1-1.9.5-.5.3-.8.9-.8,1.5,0,.3,0,.5.2.8.1.2.3.4.6.5.3.2.7.3,1,.4.4.1,1,.3,1.6.4,1.2.3,2.2.6,3.1.9.7.3,1.4.6,2.1,1.1.5.4.9.8,1.2,1.4.3.6.4,1.2.4,1.9,0,1.6-.6,3.1-1.9,4-1.5,1.1-3.3,1.6-5.1,1.5h0ZM21.5,230.7c0,1.8-.8,3.5-2.2,4.5-.7.5-1.6.9-2.4,1.2-1,.3-1.9.4-2.9.4H2.5v-23.6h12.6c.8,0,1.5.2,2.2.5.6.3,1.2.8,1.7,1.4.5.6.8,1.2,1.1,1.9.6,1.8.5,3.8-.5,5.4-.6,1-1.5,1.8-2.5,2.2,1.3.3,2.4,1.1,3.2,2.1.8,1.1,1.2,2.5,1.2,3.9ZM16.9,229.8c0-.4,0-.8-.2-1.2-.1-.4-.3-.7-.6-1-.2-.3-.5-.5-.9-.7-.3-.2-.7-.3-1.1-.2h-7v6.2h6.8c.4,0,.8,0,1.2-.2.4-.1.7-.4.9-.6.6-.6.9-1.4.9-2.2h0ZM7.1,217.1v5.9h6.1c.7,0,1.5-.3,2-.8.6-.6.9-1.4.8-2.2,0-.8-.2-1.6-.7-2.2-.5-.5-1.1-.8-1.8-.8h-6.3ZM24.6,212.5h4.5v18.7c0,.5.1,1.1.5,1.5.3.4.8.6,1.3.5.3,0,.6,0,.9-.1.3,0,.6-.2.9-.3l.6,3.4c-.7.3-1.4.5-2.1.7-.7.1-1.4.2-2.2.2-1.2,0-2.4-.3-3.2-1.1-.8-.9-1.2-2-1.1-3.2v-20.2ZM40.5,237.1c-1.6.1-3.1-.5-4.1-1.7-1-1.5-1.5-3.3-1.4-5.1v-10.9h4.5v9.9c0,2.7,1,4,2.9,4,.9,0,1.8-.3,2.5-.8.9-.6,1.6-1.4,2-2.4v-10.8h4.5v12.3c0,.4,0,.7.2,1,.2.2.5.3.8.3v3.8c-.4,0-.7.1-1.1.2-.3,0-.6,0-.8,0-.7,0-1.4-.2-1.9-.5-.5-.4-.8-.9-.9-1.5v-1.4c-.8,1.2-1.9,2.1-3.1,2.7-1.3.6-2.6.9-4,.9ZM63.8,237.1c-1.3,0-2.6-.2-3.8-.7-2.2-.9-3.9-2.6-4.7-4.8-.4-1.1-.7-2.3-.6-3.4,0-1.2.2-2.4.6-3.5.4-1.1,1-2.1,1.8-2.9.8-.8,1.8-1.5,2.9-2,1.2-.5,2.5-.8,3.8-.7,1.3,0,2.6.2,3.8.7,1.1.5,2,1.1,2.9,2,.8.8,1.4,1.8,1.8,2.9.4,1.1.6,2.2.6,3.4,0,.3,0,.6,0,.8,0,.2,0,.4,0,.7h-13.5c0,.6.2,1.3.5,1.8.5,1,1.4,1.8,2.5,2.2.5.2,1.1.3,1.7.3.9,0,1.7-.2,2.5-.6.7-.4,1.3-1,1.6-1.7l3.8,1.1c-.7,1.4-1.7,2.5-3.1,3.3-1.5.9-3.3,1.3-5,1.3ZM68.3,226.6c0-1.2-.6-2.3-1.5-3.1-1.7-1.6-4.4-1.6-6.2,0-.4.4-.7.9-1,1.4-.3.6-.4,1.1-.4,1.8h9ZM98.1,219.3c-.3-.2-.5-.4-.8-.6-.5-.3-1-.6-1.5-.8-.6-.3-1.3-.5-1.9-.6-.7-.2-1.4-.3-2.1-.3-1,0-2,.2-2.8.7-.6.5-1,1.2-.9,2,0,.4.1.9.3,1.2.3.4.6.6,1,.8.5.3,1.1.5,1.7.7.7.2,1.5.4,2.3.6,1.2.3,2.2.6,3.1,1,.9.3,1.7.8,2.4,1.3.6.5,1.2,1.2,1.5,1.9.4.9.6,1.8.5,2.7,0,1.1-.2,2.2-.7,3.2-.5.9-1.1,1.6-1.9,2.2-.9.6-1.8,1-2.8,1.2-1.1.3-2.2.4-3.3.4-1.8,0-3.5-.3-5.2-.8-1.7-.5-3.2-1.3-4.7-2.3l2-4c.3.3.7.6,1.1.8.6.4,1.2.7,1.8,1,.8.3,1.6.6,2.4.8.9.2,1.8.3,2.7.3,2.5,0,3.8-.8,3.8-2.4,0-.5-.1-.9-.4-1.3-.3-.4-.8-.7-1.2-.9-.6-.3-1.3-.5-1.9-.7-.8-.2-1.6-.5-2.5-.7-1-.3-2-.6-2.9-1-.8-.3-1.5-.8-2.1-1.3-.5-.5-1-1.1-1.2-1.7-.3-.7-.4-1.5-.4-2.3,0-1.1.2-2.2.7-3.2.4-.9,1.1-1.7,1.8-2.3.8-.6,1.7-1.1,2.7-1.4,1.1-.3,2.2-.5,3.4-.5,1.6,0,3.1.2,4.6.8,1.3.5,2.5,1.1,3.7,1.8l-2,3.7ZM120.1,236.7h-4.4v-9.8c0-1.1-.2-2.1-.8-3-.5-.7-1.3-1-2.2-1-.4,0-.9,0-1.3.3-.5.2-.9.4-1.3.7-.4.3-.8.7-1.1,1.1-.3.4-.6.9-.7,1.5v10.2h-4.5v-24.2h4.5v10.1c.6-1.1,1.5-2,2.6-2.6,1.1-.6,2.4-.9,3.6-.9,1,0,1.9.2,2.8.6.7.4,1.3.9,1.7,1.5.4.7.7,1.4.8,2.2.2.8.2,1.7.2,2.5v10.9ZM124,236.7v-17.4h4.5v17.4h-4.5ZM124,216.9v-4.4h4.5v4.4h-4.5ZM140.5,237.1c-1.3,0-2.6-.2-3.8-.7-2.2-.9-3.9-2.6-4.7-4.8-.4-1.1-.7-2.3-.6-3.4,0-1.2.2-2.4.6-3.5.4-1.1,1-2.1,1.8-2.9.8-.8,1.8-1.5,2.9-2,1.2-.5,2.5-.8,3.8-.7,1.3,0,2.6.2,3.8.7,1.1.5,2,1.1,2.9,2,.8.8,1.4,1.8,1.8,2.9.4,1.1.6,2.2.6,3.4,0,.3,0,.6,0,.8,0,.2,0,.4,0,.7h-13.4c0,.6.2,1.3.5,1.8.5,1,1.4,1.8,2.5,2.2.5.2,1.1.3,1.7.3.9,0,1.7-.2,2.5-.6.7-.4,1.3-1,1.6-1.7l3.8,1.1c-.7,1.4-1.7,2.5-3.1,3.3-1.5.9-3.3,1.3-5,1.3h0ZM145.1,226.6c0-1.2-.6-2.3-1.4-3.1-1.7-1.6-4.4-1.6-6.2,0-.4.4-.7.9-1,1.4-.3.6-.4,1.1-.4,1.8h9ZM152.3,212.5h4.5v18.7c0,.5.1,1.1.5,1.5.3.4.8.6,1.3.5.3,0,.6,0,.9-.1.3,0,.6-.2.9-.3l.6,3.4c-.7.3-1.4.5-2.1.7-.7.1-1.4.2-2.2.2-1.2,0-2.3-.3-3.2-1.1-.8-.9-1.2-2-1.1-3.2v-20.2ZM170.1,237.1c-2.3,0-4.4-.9-5.9-2.6-.7-.8-1.3-1.8-1.7-2.9-.4-1.1-.6-2.3-.6-3.5,0-1.2.2-2.4.6-3.5.4-1,.9-2,1.6-2.9.7-.8,1.5-1.5,2.5-1.9,1-.5,2-.7,3.1-.7,1.2,0,2.4.3,3.5.9,1,.6,1.8,1.4,2.4,2.4v-9.9h4.5v19.1c0,.3,0,.7.2,1,.2.2.5.3.8.3v3.8c-.6.1-1.3.2-1.9.2-.7,0-1.4-.2-2-.6-.5-.4-.8-.9-.9-1.6v-1.1c-.7,1.1-1.6,1.9-2.7,2.5-1.1.6-2.2.8-3.4.8h0ZM171.3,233.3c.4,0,.9,0,1.3-.2.4-.1.9-.3,1.2-.6.4-.3.7-.6,1-.9.3-.3.5-.7.7-1.2v-4.2c-.2-.5-.4-.9-.7-1.3-.3-.4-.7-.8-1.1-1.1-.4-.3-.8-.5-1.3-.7-.4-.2-.9-.3-1.3-.3-.6,0-1.3.1-1.8.4-.6.3-1.1.7-1.4,1.2-.4.5-.7,1.1-.9,1.7-.2.6-.3,1.3-.3,2,0,.7.1,1.4.4,2,.2.6.6,1.1,1,1.6.4.5.9.8,1.5,1.1.6.3,1.3.4,1.9.4h0Z"/>
  <path class="st2" d="M25.9,362.2c0-1.5.1-3,.2-4.5,0-1.5,0-3.1,0-4.6v-6.1c0-1.6,0-3.1,0-4.6s-.1-3-.2-4.6c.3,0,.6,0,.9.1.6,0,1.1,0,1.7,0,.3,0,.6,0,.9-.1,0,1.6-.1,3.1-.2,4.6,0,1.5,0,3,0,4.6v2c0,.2,0,.3.2.3s.3-.1.5-.3c.8-.7,1.7-1.5,2.6-2.4s1.8-1.8,2.8-2.8c.9-1,1.8-2,2.7-3,.9-1,1.8-2,2.6-2.9.3,0,.5,0,.7.1.2,0,.5,0,.7,0s.6,0,.9,0c.3,0,.6,0,.9-.1-.8.7-1.8,1.6-2.8,2.5-1,1-2.1,2-3.1,3-1.1,1-2.1,2-3,3-1,1-1.8,1.8-2.4,2.6,1.9,2.2,3.9,4.4,5.8,6.6,2,2.2,3.9,4.5,6,6.7-.4,0-.7,0-1.1,0h-2.1c-.3,0-.7,0-1,0-.9-1-1.8-2.1-2.8-3.3-1-1.3-2-2.5-3-3.6-1-1.2-1.9-2.2-2.7-3.2-.8-.9-1.4-1.6-1.8-2-.2-.2-.3-.3-.4-.3s-.2,0-.2.2v3.1c0,1.6,0,3.1,0,4.6,0,1.5.1,3,.2,4.5-.5,0-1.1,0-1.7,0s-1.2,0-1.7,0ZM66.5,349.3c0-3.4,0-6,0-7.8,0-1.3,0-2.5-.2-3.8.3,0,.5,0,.7.1.2,0,.5,0,.7,0,.4,0,.7,0,1.1-.2,0,.8-.1,1.8-.2,3,0,1.1-.1,2.4-.2,3.7,0,1.3,0,2.7-.1,4.1,0,1.4,0,2.7-.1,4.1,0,1.5-.2,2.9-.7,4.3-.4,1.2-1.1,2.3-2,3.2-.9.9-2,1.6-3.1,2-1.4.5-2.8.7-4.3.7-3.6,0-6.1-.8-7.8-2.4-1.6-1.6-2.4-4.2-2.4-7.7s0-2.1,0-3c0-.9,0-1.7,0-2.7,0-2,0-3.8,0-5.3,0-1.5,0-2.8-.1-3.9.3,0,.6,0,.9.1.3,0,.6,0,.9,0,.3,0,.5,0,.8,0,.2,0,.5,0,.8-.1,0,.5,0,1.2-.1,2,0,.8,0,1.8-.1,2.9,0,1.1,0,2.2-.1,3.5,0,1.2,0,2.5,0,3.8s0,1.6,0,2.5c0,.8.1,1.7.2,2.5.1.8.4,1.6.7,2.3.3.7.8,1.4,1.4,2,.6.6,1.4,1,2.2,1.3,1.1.3,2.2.5,3.3.5,1.1,0,2.2-.2,3.3-.6.8-.3,1.6-.8,2.2-1.5.6-.6,1-1.3,1.3-2.1.3-.8.6-1.7.7-2.5.1-.9.2-1.8.2-2.6,0-.9,0-1.7,0-2.4ZM87.8,337.3c1.6,3.4,3.3,6.6,5,9.8,1.7,3.2,3.4,6.4,5.2,9.8.2-.5.6-1.1,1-1.9.5-.8,1-1.8,1.6-2.9.6-1.1,1.2-2.3,1.9-3.5.7-1.3,1.4-2.6,2.1-3.9.7-1.3,1.4-2.6,2.1-3.8.7-1.3,1.3-2.4,1.9-3.5h.5c.3,2.3.5,4.5.7,6.6.2,2.1.5,4.2.7,6.3.2,2.1.5,4.1.7,6.1.2,2,.5,4,.8,6-.3,0-.6,0-.8,0h-1.7c-.3,0-.6,0-.8,0-.3-3.2-.5-6.2-.8-9.2-.3-3-.6-6-1-9.1h0c-1.6,3-3.2,6-4.8,8.9-1.6,3-3.1,6-4.5,9.3h-.3c-1.4-3-2.9-6-4.5-9-1.6-3-3.1-6.1-4.7-9.2h0c-.2,1.5-.3,3.1-.6,4.8-.2,1.7-.4,3.4-.6,5.1-.2,1.7-.3,3.2-.4,4.7-.1,1.5-.2,2.7-.2,3.6-.8,0-1.7,0-2.5,0,.3-1.9.6-4,1-6.1s.7-4.3,1-6.4c.3-2.2.6-4.3.9-6.4.3-2.1.5-4.1.7-6h.6ZM123.1,346.1c-.8,0-1.6.2-2.2.6-.6.4-1.1.9-1.5,1.5-.4.6-.7,1.3-.9,2-.2.7-.3,1.4-.4,2h2.3c.8,0,1.6.1,2.3.1s1.6,0,2.4,0h2.3c0-.8,0-1.4-.2-2.1-.1-.7-.3-1.4-.6-2-.3-.6-.8-1.1-1.3-1.5-.7-.4-1.5-.6-2.2-.6ZM114.9,354.3c-.1-2.5.6-4.9,2.1-6.9,1.5-1.7,3.8-2.6,6.1-2.5,1.1,0,2.2.2,3.3.6.9.4,1.6.9,2.3,1.6.6.7,1.1,1.4,1.4,2.3.3.9.5,1.9.4,2.8,0,.2,0,.5,0,.7,0,.2,0,.5,0,.7h-3.8c-1.3,0-2.5-.1-3.8-.1s-1.6,0-2.3,0h-2.3c0,.2,0,.4,0,.6v.5c0,.9.1,1.8.4,2.6.2.8.7,1.5,1.2,2.1.5.6,1.2,1.1,1.9,1.4.8.4,1.7.5,2.6.5.5,0,1,0,1.5-.2.5-.1,1-.3,1.5-.5.5-.2.9-.5,1.3-.8.4-.3.8-.6,1.1-1h.2c0,.1-.2,1.9-.2,1.9-.8.6-1.7,1.1-2.7,1.5-1.1.4-2.2.6-3.3.6-1.2,0-2.4-.2-3.5-.6-1-.4-2-1-2.7-1.7-.8-.7-1.4-1.7-1.8-2.7-.4-1-.6-2.2-.6-3.3ZM136.1,354.1c0,1.2.1,2.4.4,3.5.2.8.6,1.6,1.1,2.2.4.5,1,.9,1.6,1.2.6.2,1.1.3,1.7.3.8,0,1.7-.2,2.4-.7.7-.5,1.2-1.1,1.7-1.8.5-.8.8-1.7,1-2.5.2-.9.3-1.9.3-2.8.1-1.8-.3-3.7-1.3-5.2-.9-1.2-2.4-1.9-3.9-1.8-.8,0-1.6.2-2.2.6-.6.4-1.2,1-1.6,1.6-.4.8-.8,1.6-.9,2.5-.2,1-.3,2-.3,3ZM146.2,358.8c-.2.4-.5.8-.8,1.2-.3.5-.8.9-1.2,1.2-.5.4-1.1.7-1.7.9-.7.2-1.5.4-2.3.4-.9,0-1.8-.2-2.7-.5-.9-.3-1.7-.8-2.3-1.5-.7-.8-1.3-1.7-1.6-2.7-.4-1.3-.7-2.6-.6-4,0-1.3.2-2.7.7-4,.4-1,1-2,1.8-2.8.7-.7,1.5-1.3,2.5-1.7.9-.4,1.8-.5,2.8-.6,2.4-.1,4.6,1.3,5.5,3.6h0v-3.5c0-.9,0-1.8,0-2.7,0-.9,0-1.8,0-2.6,0-.8,0-1.6,0-2.3,0-.7,0-1.4,0-2,.3,0,.6,0,.8.1.3,0,.5,0,.8,0s.5,0,.8,0c.2,0,.5,0,.8-.1,0,.8-.1,1.9-.2,3.3,0,1.4,0,3-.1,4.7,0,1.7,0,3.5,0,5.3,0,1.8,0,3.5,0,5s0,3.1,0,4.4c0,1.3,0,2.6,0,4-.5,0-.9,0-1.4,0s-.9,0-1.4,0v-3.4c.1,0,0,0,0,0ZM154.4,339.1c0-1,.8-1.8,1.8-1.8,1,0,1.8.8,1.8,1.8s-.8,1.8-1.8,1.8c-.5,0-1-.2-1.3-.5-.3-.3-.5-.8-.5-1.3ZM154.9,351.9c0-1.1,0-2.2,0-3.4,0-1.2-.1-2.3-.2-3.3,1.1.2,2.1.2,3.2,0-.1,1-.2,2.1-.2,3.3,0,1.2,0,2.3,0,3.4v3.7c0,1.1,0,2.2,0,3.4,0,1.2.1,2.2.2,3.2-.5,0-1.1,0-1.6,0s-1.1,0-1.6,0c.1-.9.2-2,.2-3.2s0-2.3,0-3.4v-3.7ZM162.6,353.8c0-1.4.2-2.7.8-4,.9-2.1,2.7-3.7,4.9-4.4,1.1-.3,2.2-.5,3.3-.5,1.2,0,2.4.1,3.5.5.8.2,1.6.6,2.2,1.1-.2.4-.3.7-.4,1.1-.1.4-.2.8-.3,1.2h-.3c-.2-.3-.4-.7-.7-.9-.3-.3-.6-.6-1-.9-.4-.3-.8-.5-1.3-.7-.5-.2-1-.3-1.6-.3-1,0-1.9.2-2.8.6-.8.4-1.4.9-1.9,1.6-.5.7-.9,1.6-1.1,2.4-.2,1-.3,2-.3,3-.1,2,.4,3.9,1.6,5.5,1.2,1.3,2.9,2,4.6,1.9.5,0,1,0,1.5-.2.5-.1,1-.3,1.5-.5.5-.2.9-.5,1.3-.8.4-.3.8-.6,1.1-1h.2c-.1.7-.2,1.3-.2,1.9-.8.6-1.7,1.1-2.7,1.5-1.1.4-2.2.6-3.3.6-1,0-2.1-.2-3.1-.4-1-.3-2-.8-2.8-1.5-.9-.7-1.6-1.7-2-2.7-.5-1.3-.8-2.7-.8-4.1ZM190.8,353.3c-.5.2-.9.3-1.4.4-.5,0-1.1.2-1.6.3-.5.1-1.1.2-1.6.4-.5.2-1,.4-1.4.7-.4.3-.7.6-1,1.1-.3.5-.4,1.1-.4,1.6,0,.9.3,1.9,1,2.5.6.5,1.3.8,2.1.9.9,0,1.7-.3,2.5-.7.7-.4,1.3-1,1.7-1.7v-5.3ZM182,347c.9-.7,1.9-1.3,3-1.6.9-.3,1.8-.4,2.8-.4.8,0,1.6.1,2.3.4.7.2,1.3.6,1.8,1.1.5.5.9,1,1.2,1.7.3.7.4,1.4.4,2.2,0,1.4,0,2.7,0,4,0,1.3,0,2.8,0,4.3s0,.6,0,.9c0,.3,0,.6.2.9,0,.2.2.4.4.6.2.2.5.3.8.2.1,0,.2,0,.4,0,.1,0,.3,0,.4-.1v.8c-.3.1-.6.2-1,.3-.4,0-.9.1-1.3.1-1.2.1-2.3-.8-2.4-2,0,0,0,0,0,0-.7.8-1.6,1.4-2.5,1.9-1,.4-2,.6-3.1.6-.6,0-1.2,0-1.7-.2-.6-.2-1.1-.4-1.5-.8-.4-.4-.8-.8-1.1-1.4-.3-.6-.4-1.2-.4-1.8,0-1.2.4-2.5,1.3-3.3,1.1-.9,2.3-1.4,3.7-1.6,1.3-.2,2.3-.4,3-.6.5,0,1.1-.3,1.6-.5.3-.1.5-.3.6-.6,0-.3.1-.6.1-.9,0-.6,0-1.2-.2-1.7-.1-.5-.4-1-.7-1.4-.3-.4-.7-.7-1.2-1-.6-.3-1.2-.4-1.8-.4-.9,0-1.8.2-2.7.6-.8.4-1.4,1-1.8,1.8h-.4v-1.9ZM200.4,345.6c0-.8,0-1.7,0-2.6,0-.9,0-1.9,0-2.8,0-.9,0-1.8,0-2.7,0-.8,0-1.6-.1-2.2.5.1,1.1.2,1.6.2.5,0,1.1,0,1.6-.2,0,.6,0,1.3-.1,2.2,0,.8,0,1.7,0,2.7,0,.9,0,1.9,0,2.8,0,.9,0,1.8,0,2.6v6.4c0,.8,0,1.7,0,2.6,0,.9,0,1.9,0,2.8,0,.9,0,1.8,0,2.6,0,.8,0,1.5.1,2.1-.5,0-1.1,0-1.6,0s-1.1,0-1.6,0c0-.5,0-1.2.1-2.1,0-.8,0-1.7,0-2.6,0-.9,0-1.9,0-2.8,0-.9,0-1.8,0-2.6v-6.4ZM238.4,360.7c-.3.3-.7.5-1,.6-.5.3-1.1.5-1.7.6-.7.2-1.4.3-2.2.5-.8.1-1.7.2-2.5.2-1.8,0-3.5-.3-5.2-.8-1.5-.5-2.9-1.3-4.1-2.4-1.2-1.1-2.1-2.5-2.7-4-.7-1.7-1-3.5-1-5.4,0-1.8.3-3.7,1-5.4.6-1.5,1.5-2.9,2.7-4,1.2-1.1,2.7-2,4.2-2.5,1.7-.6,3.6-.9,5.4-.9,1.4,0,2.9.1,4.3.5,1.2.3,2.3.7,3.4,1.2-.2.4-.4.9-.5,1.4-.1.6-.2,1-.3,1.4h-.2c-.3-.3-.6-.6-1-.9-.5-.4-1-.7-1.5-1-.6-.3-1.3-.6-1.9-.8-.8-.2-1.6-.3-2.3-.3-1.3,0-2.6.2-3.9.7-1.2.4-2.3,1.2-3.1,2.1-.9,1-1.7,2.2-2.1,3.6-.5,1.6-.8,3.4-.7,5.1,0,1.7.2,3.5.7,5.1.4,1.3,1.1,2.5,2.1,3.6.9.9,1.9,1.6,3.1,2.1,1.2.5,2.6.7,3.9.7.8,0,1.6-.1,2.4-.3.7-.2,1.4-.5,2-.8.6-.3,1.1-.6,1.6-1,.5-.3.9-.6,1.2-.9h.1c0,.1-.3,2.2-.3,2.2ZM249.7,346.1c-.8,0-1.6.2-2.2.6-.6.4-1.1.9-1.5,1.5-.4.6-.7,1.3-.9,2-.2.7-.3,1.4-.4,2h2.3c.8,0,1.6.1,2.3.1s1.6,0,2.4,0h2.3c0-.8,0-1.4-.2-2.1-.1-.7-.3-1.4-.6-2-.3-.6-.8-1.1-1.3-1.5-.7-.4-1.5-.6-2.2-.6ZM241.5,354.3c-.1-2.5.6-4.9,2.1-6.9,1.5-1.7,3.8-2.6,6.1-2.5,1.1,0,2.2.2,3.3.6.9.4,1.6.9,2.3,1.6.6.7,1.1,1.4,1.4,2.3.3.9.5,1.9.4,2.8,0,.2,0,.5,0,.7,0,.2,0,.5,0,.7h-3.8c-1.3,0-2.5-.1-3.8-.1s-1.6,0-2.3,0h-2.3c0,.2,0,.4,0,.6v.5c0,.9.1,1.8.4,2.6.2.8.7,1.5,1.2,2.1.5.6,1.2,1.1,1.9,1.4.8.4,1.7.5,2.6.5.5,0,1,0,1.5-.2.5-.1,1-.3,1.5-.5.5-.2.9-.5,1.3-.8.4-.3.8-.6,1.1-1h.2c0,.1-.2,1.9-.2,1.9-.8.6-1.7,1.1-2.7,1.5-1.1.4-2.2.6-3.3.6-1.2,0-2.4-.2-3.5-.6-1-.4-2-1-2.7-1.7-.8-.7-1.4-1.7-1.8-2.7-.4-1-.6-2.2-.6-3.3ZM272.4,352.2c0-1.4-.3-2.8-1-4-.7-.9-1.7-1.4-2.8-1.4-1.4-.1-2.8.5-3.6,1.5-.8,1.3-1.2,2.8-1.2,4.3v3c0,1.1,0,2.2,0,3.4s.1,2.2.2,3.2c-.5,0-1.1,0-1.6,0s-1.1,0-1.6,0c.1-.9.2-2,.2-3.2,0-1.2,0-2.3,0-3.4v-3.7c0-1.1,0-2.2,0-3.4,0-1.2-.1-2.3-.2-3.3.5.1,1.1.2,1.6.2.2,0,.4,0,.6,0h.8c0,.8-.1,1.8-.1,2.7h0c.6-1,1.4-1.8,2.4-2.4,1-.6,2.2-.9,3.3-.8.7,0,1.4,0,2,.3.7.2,1.3.5,1.8,1,.6.5,1,1.2,1.3,1.9.4,1,.6,2,.5,3,0,1,0,2.1,0,3.1,0,1.1,0,2.2,0,3.4v2.3c0,.4,0,.8,0,1.1,0,.4,0,.7,0,1-.5,0-1,0-1.5,0s-1,0-1.5,0c0-1.2.1-2.5.2-3.8,0-1.3,0-2.6,0-4v-2.2ZM283.8,340.5c0,.9-.1,1.8-.2,2.7,0,.9,0,1.7-.1,2.6.3,0,.7,0,1.5,0,.7,0,1.5,0,2.3,0,0,.1,0,.3,0,.4v.7c0,.1,0,.2,0,.4-.3,0-.6,0-1,0-.3,0-.7,0-1.1,0h-1.7c0,0,0,.5,0,1.1,0,.7,0,1.5,0,2.4,0,.9,0,1.9,0,2.9,0,1,0,1.9,0,2.7s0,1.3,0,2c0,.6.1,1.2.3,1.7.2.5.5.9.9,1.2.5.3,1.1.5,1.6.5.3,0,.5,0,.8,0,.3,0,.6,0,.8-.2v.8c-.4,0-.8.2-1.3.3-.5.1-.9.2-1.4.2-1.2.1-2.4-.3-3.3-1.1-.8-.9-1.2-2.1-1.1-3.2,0-.6,0-1.3,0-2.1,0-.7,0-1.6,0-2.5,0-.9,0-1.9,0-3,0-1.1,0-2.3,0-3.6h-1.1c-.2,0-.4,0-.6,0-.2,0-.4,0-.7,0,0-.1,0-.3,0-.4,0-.1,0-.3,0-.4s0-.2,0-.4,0-.2,0-.4c1.1,0,1.9.1,2.3.1,0-.5,0-1.1,0-1.8,0-.7,0-1.4,0-2.2l3-1.2h.2ZM297.2,346.1c-.8,0-1.6.2-2.2.6-.6.4-1.1.9-1.5,1.5-.4.6-.7,1.3-.9,2-.2.7-.3,1.4-.4,2h2.3c.8,0,1.6.1,2.3.1s1.6,0,2.4,0h2.3c0-.8,0-1.4-.2-2.1-.1-.7-.3-1.4-.6-2-.3-.6-.8-1.1-1.3-1.5-.7-.4-1.4-.6-2.2-.6ZM289,354.3c-.1-2.5.6-4.9,2.1-6.9,1.5-1.7,3.8-2.6,6.1-2.5,1.1,0,2.2.2,3.3.6.9.4,1.6.9,2.3,1.6.6.7,1.1,1.4,1.4,2.3.3.9.5,1.9.4,2.8,0,.2,0,.5,0,.7,0,.2,0,.5,0,.7h-3.8c-1.3,0-2.5-.1-3.8-.1s-1.6,0-2.3,0h-2.3c0,.2,0,.4,0,.6v.5c0,.9.1,1.8.4,2.6.2.8.7,1.5,1.2,2.1.5.6,1.2,1.1,1.9,1.4.8.4,1.7.5,2.6.5.5,0,1,0,1.5-.2.5-.1,1-.3,1.5-.5.5-.2.9-.5,1.3-.8.4-.3.8-.6,1.1-1h.2c0,.1-.2,1.9-.2,1.9-.8.6-1.7,1.1-2.7,1.5-1.1.4-2.2.6-3.3.6-1.2,0-2.4-.2-3.5-.6-1-.4-2-1-2.7-1.7-.8-.7-1.4-1.7-1.8-2.7-.4-1-.6-2.2-.6-3.3ZM316.4,348.2c-.2-.2-.4-.3-.7-.4-.3-.1-.7-.2-1-.2-.5,0-1.1.1-1.5.4-.5.3-.8.6-1.1,1-.3.5-.6,1-.7,1.6-.2.6-.3,1.3-.2,1.9v3.9c0,1.6,0,2.8,0,3.6,0,.7,0,1.4.1,2-.5,0-.9,0-1.4,0s-1,0-1.5,0c0-.8.1-1.9.1-3.3,0-1.4,0-3.1,0-5.1v-1.1c0-.9,0-2,0-3.2,0-1.2,0-2.6-.1-4.2.3,0,.5,0,.7.1.2,0,.5,0,.7,0,.2,0,.5,0,.7,0,.2,0,.5,0,.7-.1,0,.9-.1,1.5-.2,2,0,.5,0,1,0,1.4h0c1.4-2.5,3-3.8,4.7-3.8.2,0,.4,0,.6,0,.2,0,.4,0,.6.2-.1.4-.2.9-.2,1.3,0,.6,0,1.1,0,1.6l-.2.2Z"/>
  <path class="st1" d="M687.4,177.8c1.2,0,2.5.2,3.6.6,1,.4,2,1,2.9,1.7.2.2.4.3.7.3.5,0,.8-.7.9-2.1h.8c0,1.6-.1,4.5-.1,8.6h-.8c-.1-1.4-.4-2.7-.9-4-.4-1-1-1.8-1.8-2.4-.6-.6-1.3-1-2.1-1.3-.8-.3-1.6-.4-2.5-.4-2.3,0-4.5,1.3-5.3,3.5-1.2,2.7-1.8,5.7-1.7,8.7-.1,3,.5,6,1.8,8.7.9,2.1,3.1,3.5,5.4,3.5.8,0,1.6-.2,2.4-.4.8-.3,1.4-.7,2-1.3.8-.6,1.5-1.5,1.8-2.5.4-1.4.7-2.9.8-4.4h.8c0,4.3,0,7.3.1,9h-.8c0-.5-.1-1.1-.3-1.6-.1-.3-.3-.5-.6-.5-.3,0-.5.1-.7.3-.9.7-2,1.3-3.1,1.7-1.1.4-2.3.6-3.5.6-2.3,0-4.6-.5-6.6-1.5-1.9-1-3.4-2.6-4.4-4.4-1.1-2.1-1.6-4.5-1.6-6.9,0-2.4.5-4.8,1.6-6.9,1-2,2.6-3.6,4.5-4.7,2-1.1,4.2-1.7,6.5-1.7ZM703.9,203.8c-1.2,0-2.5-.3-3.4-1.2-.8-.8-1.2-2-1.1-3.1,0-1,.3-1.9.8-2.7.5-.7,1.2-1.2,2-1.6,1-.5,2-.9,3-1.2,1-.3,2-.7,2.9-1.2.6-.3.9-.9.9-1.5v-2.8c0-.8-.2-1.7-.7-2.3-.6-.6-1.3-.9-2.2-.8-.9,0-1.9.2-2.6.9.6.2,1.1.6,1.5,1.1.4.5.6,1.1.6,1.7,0,.7-.3,1.4-.8,1.9-.6.5-1.3.7-2,.7-.7,0-1.4-.2-1.9-.8-.8-1.1-.9-2.5-.2-3.6.4-.5.9-1,1.5-1.3.7-.4,1.5-.7,2.4-.9,1-.2,2-.3,3.1-.3,1,0,2,.1,3,.4.8.2,1.5.6,2.1,1.2.5.5.9,1.2,1,1.9.2,1,.3,2.1.3,3.1v9.7c0,.4,0,.8.2,1.2.1.2.4.4.6.4.5,0,.9-.3,1.3-.6l.4.6c-1.1.9-2.5,1.4-3.9,1.3-1,.1-2-.2-2.7-.8-.5-.6-.8-1.3-.8-2.1-1.1,1.9-3.1,3-5.2,2.9ZM706.6,201.5c1,0,1.9-.6,2.4-1.5v-7.3c-.5.6-1.1,1.2-1.8,1.6-.8.5-1.5,1.1-2.1,1.8-.5.7-.8,1.7-.7,2.6,0,.8.2,1.5.6,2.2.4.5,1,.7,1.6.7ZM729.9,184.6c.9,0,1.8.3,2.4,1,.5.6.8,1.5.8,2.3,0,.8-.2,1.6-.8,2.2-.5.6-1.3.9-2,.8-.7,0-1.4-.2-1.9-.6-.5-.4-.7-1-.7-1.7,0-1.1.6-2.2,1.6-2.8-.1,0-.3,0-.4,0-.2,0-.4,0-.6,0-1,.2-1.8.8-2.3,1.6-.6.9-.9,1.9-.9,2.9v9.4c0,.8.2,1.7.8,2.3.8.5,1.6.7,2.5.6v.8c-.3,0-.5,0-.8,0-2.4,0-4-.1-4.8-.1s-2.1,0-4.4.1c-.2,0-.5,0-.7,0v-.7c.6,0,1.3-.1,1.8-.6.4-.6.6-1.3.5-2v-11.2c0-.8-.1-1.7-.5-2.4-.4-.5-1.1-.8-1.8-.7v-.7c.8,0,1.5.1,2.2.1,1.7,0,3.5-.1,5.2-.5v3.3c.4-1,1.1-1.8,2-2.5.8-.6,1.8-1,2.9-.9ZM741.5,185.1h4.2v.7h-4.2v14.4c0,.5,0,1.1.4,1.5.3.3.7.5,1.2.4,1,0,1.8-.7,2.4-2.1l.6.3c-.6,2.2-2.6,3.7-4.9,3.7-1.3,0-2.6-.3-3.6-1.2-.5-.5-.9-1.2-1-1.9-.2-1-.3-2-.3-3.1v-12h-3v-.7h3v-4.7c1.8,0,3.5-.3,5.1-1.1v5.8ZM751.4,175.9c.9,0,1.7.2,2.4.7.6.5.9,1.2.9,2,0,.8-.3,1.5-.9,2-1.4,1-3.3,1-4.7,0-.6-.5-.9-1.2-.9-2,0-.8.3-1.5.9-2,.7-.5,1.5-.8,2.4-.7ZM754.2,200.2c0,.7.1,1.4.5,2,.5.4,1.1.6,1.8.6v.7c-2.4,0-4-.1-4.7-.1s-2.4,0-4.9.1v-.7c.6,0,1.3-.1,1.8-.6.4-.6.6-1.3.5-2v-11.2c0-.8-.1-1.7-.5-2.4-.4-.5-1.1-.8-1.8-.7v-.7c.8,0,1.5.1,2.2.1,1.7,0,3.5-.1,5.2-.5v15.5ZM779.5,177.8c1.2,0,2.5.2,3.6.6,1,.4,2,1,2.9,1.7.2.2.4.3.7.3.5,0,.8-.7.9-2.1h.8c0,1.6-.1,4.5-.1,8.6h-.8c-.1-1.4-.4-2.7-.9-4-.4-1-1-1.8-1.8-2.4-.6-.6-1.3-1-2.1-1.3-.8-.3-1.6-.4-2.5-.4-2.3,0-4.5,1.3-5.3,3.5-1.2,2.7-1.8,5.7-1.7,8.7-.1,3,.5,6,1.8,8.7.9,2.1,3.1,3.5,5.4,3.5.8,0,1.6-.2,2.4-.4.8-.3,1.4-.7,2-1.3.8-.6,1.5-1.5,1.8-2.5.4-1.4.7-2.9.8-4.4h.8c0,4.3,0,7.3.1,9h-.8c0-.5-.1-1.1-.3-1.6-.1-.3-.3-.5-.6-.5-.3,0-.5.1-.7.3-.9.7-2,1.3-3.1,1.7-1.1.4-2.3.6-3.5.6-2.3,0-4.6-.5-6.6-1.5-1.9-1-3.4-2.5-4.4-4.4-1.1-2.1-1.6-4.5-1.6-6.9,0-2.4.5-4.8,1.6-6.9,1-2,2.6-3.6,4.5-4.7,2-1.1,4.2-1.7,6.5-1.7ZM796.1,203.8c-1.2,0-2.5-.3-3.4-1.2-.8-.8-1.2-2-1.1-3.1,0-1,.3-1.9.8-2.7.5-.7,1.2-1.2,2-1.6,1-.5,2-.9,3-1.2,1-.3,2-.7,2.9-1.2.6-.3.9-.9.9-1.5v-2.8c0-.8-.2-1.7-.7-2.3-.6-.6-1.3-.9-2.2-.8-.9,0-1.9.2-2.6.9.6.2,1.1.6,1.5,1.1.4.5.6,1.1.6,1.7,0,.7-.3,1.4-.8,1.9-.6.5-1.3.7-2,.7-.7,0-1.4-.2-1.9-.8-.8-1.1-.9-2.5-.2-3.6.4-.5.9-1,1.5-1.3.7-.4,1.5-.7,2.4-.9,1-.2,2-.3,3.1-.3,1,0,2,.1,3,.4.8.2,1.5.6,2.1,1.2.5.5.9,1.2,1,1.9.2,1,.3,2.1.3,3.1v9.7c0,.4,0,.8.2,1.2.1.2.4.4.6.4.5,0,.9-.3,1.3-.6l.4.6c-1.1.9-2.5,1.4-3.9,1.3-1,.1-2-.2-2.7-.8-.5-.6-.8-1.3-.8-2.1-1.1,1.9-3.1,3-5.2,2.9ZM798.8,201.5c1,0,1.9-.6,2.4-1.5v-7.3c-.5.6-1.1,1.2-1.8,1.6-.8.5-1.5,1.1-2.1,1.8-.5.7-.8,1.7-.7,2.6,0,.8.2,1.5.6,2.2.4.5,1,.7,1.6.7ZM823,184.6c1.4-.1,2.9.4,3.9,1.4.4.5.7,1.1.9,1.7.2.9.3,1.9.2,2.9v9.6c0,.7.1,1.4.5,2,.5.4,1.1.6,1.8.6v.7c-2.4,0-3.9-.1-4.7-.1s-2.3,0-4.6.1v-.7c.6,0,1.1-.1,1.5-.6.3-.6.5-1.3.4-2v-11.1c0-.8-.1-1.5-.5-2.2-.4-.5-1.1-.8-1.7-.7-1,0-1.9.4-2.5,1.2-.7.8-1.1,1.9-1,2.9v9.9c0,.7,0,1.4.4,2,.4.4.9.6,1.5.6v.7c-2.2,0-3.7-.1-4.4-.1s-2.3,0-4.9.1v-.7c.6,0,1.3-.1,1.8-.6.4-.6.6-1.3.5-2v-11.2c0-.8-.1-1.7-.5-2.4-.4-.5-1.1-.8-1.8-.7v-.7c.8,0,1.5.1,2.2.1,1.7,0,3.5-.1,5.2-.5v3.2c1.1-2.2,3.4-3.5,5.8-3.3ZM840.9,184.6c.8,0,1.7,0,2.5.3.7.2,1.4.4,2,.8.6.4,1.1.8,1.4,1.4.3.6.5,1.2.5,1.9,0,.8-.3,1.5-.8,2-.5.5-1.3.8-2,.8-.7,0-1.4-.2-2-.7-.5-.5-.8-1.2-.7-1.9,0-.7.2-1.3.7-1.9.4-.5,1-.9,1.7-1.1-.2-.3-.5-.5-.9-.6-.4-.2-.8-.2-1.3-.2-1.5,0-2.8,1-3.3,2.3-.9,1.9-1.3,4-1.2,6.1,0,2.5.5,4.4,1.4,5.5.8,1.1,2.1,1.7,3.4,1.7.9,0,1.7-.2,2.4-.6.9-.5,1.7-1.3,2.2-2.2l.6.2c-.5,1.5-1.3,2.9-2.5,4-1.3,1.1-2.9,1.7-4.6,1.7-2.2,0-4.4-.8-6-2.4-1.5-1.6-2.3-4-2.3-7.2,0-1.8.3-3.7,1.1-5.3.7-1.4,1.8-2.6,3.1-3.3,1.4-.8,3-1.1,4.6-1.1ZM859.8,201.1c2,0,3.8-1.1,4.7-2.8l.6.2c-.5,1.5-1.3,2.9-2.5,3.9-1.3,1.1-2.9,1.7-4.6,1.6-2.3.1-4.4-.8-6-2.4-1.5-1.6-2.2-4-2.2-7.1-.2-2.7.7-5.3,2.4-7.3,1.6-1.7,4-2.6,6.3-2.5,4.5,0,6.7,2.6,6.7,7.9h-10c0,.4,0,.9,0,1.7,0,1.3.2,2.7.7,3.9.3.9.9,1.7,1.7,2.3.7.5,1.5.7,2.3.7ZM858.3,185.4c-1,0-1.8.7-2.1,1.6-.7,1.5-1,3.2-1,4.9h5.6c0-1.6-.1-3.1-.6-4.6-.4-1.2-1-1.8-1.9-1.8ZM879.3,184.6c.9,0,1.8.3,2.4,1,.5.6.8,1.5.8,2.3,0,.8-.2,1.6-.8,2.2-.5.6-1.3.9-2,.8-.7,0-1.4-.2-1.9-.6-.5-.4-.7-1-.7-1.7,0-1.1.6-2.2,1.6-2.8-.1,0-.3,0-.4,0-.2,0-.4,0-.6,0-1,.2-1.8.8-2.3,1.6-.6.9-.9,1.9-.9,2.9v9.4c0,.8.2,1.7.8,2.3.8.5,1.6.7,2.5.6v.8c-.3,0-.5,0-.8,0-2.4,0-4-.1-4.8-.1s-2.1,0-4.4.1c-.2,0-.5,0-.7,0v-.7c.6,0,1.3-.1,1.8-.6.4-.6.6-1.3.5-2v-11.2c0-.8-.1-1.7-.5-2.4-.4-.5-1.1-.8-1.8-.7v-.7c.8,0,1.5.1,2.2.1,1.7,0,3.5-.1,5.2-.5v3.3c.4-1,1.1-1.8,2-2.5.8-.6,1.8-1,2.9-.9ZM736.4,213.4c1.2,0,2.5.2,3.6.6,1,.4,2,1,2.9,1.7.2.2.4.3.7.3.5,0,.8-.7.9-2.1h.8c0,1.6-.1,4.5-.1,8.6h-.8c-.1-1.4-.4-2.7-.9-4-.4-1-1-1.8-1.8-2.4-.6-.6-1.3-1-2.1-1.3-.8-.3-1.6-.4-2.5-.4-2.3,0-4.5,1.3-5.3,3.5-1.2,2.7-1.8,5.7-1.7,8.7-.1,3,.5,6,1.8,8.7.9,2.1,3.1,3.5,5.4,3.5.8,0,1.6-.2,2.4-.4.8-.3,1.4-.7,2-1.3.8-.6,1.5-1.5,1.8-2.5.4-1.4.7-2.9.8-4.4h.8c0,4.3,0,7.3.1,9h-.8c0-.6-.1-1.1-.3-1.6-.1-.3-.3-.5-.6-.5-.3,0-.5.1-.7.3-.9.7-2,1.3-3.1,1.7-1.1.4-2.3.6-3.5.6-2.3,0-4.6-.5-6.6-1.5-1.9-1-3.4-2.6-4.4-4.4-1.1-2.1-1.6-4.5-1.6-6.9,0-2.4.5-4.8,1.6-6.9,1-2,2.6-3.6,4.5-4.7,2-1.1,4.2-1.7,6.5-1.7ZM758.7,236.7c2,0,3.8-1.1,4.7-2.8l.6.2c-.5,1.5-1.3,2.9-2.5,3.9-1.3,1.1-2.9,1.7-4.6,1.6-2.3.1-4.4-.8-6-2.4-1.5-1.6-2.2-4-2.2-7.1-.2-2.7.7-5.3,2.4-7.3,1.6-1.7,4-2.6,6.3-2.5,4.5,0,6.7,2.6,6.7,7.9h-10c0,.4,0,.9,0,1.7,0,1.3.2,2.7.7,3.9.3.9.9,1.7,1.7,2.3.7.5,1.5.7,2.3.7ZM757.2,221c-1,0-1.8.7-2.1,1.6-.7,1.5-1,3.2-1,4.9h5.6c0-1.6-.1-3.1-.6-4.6-.4-1.2-1-1.8-1.9-1.8ZM779.2,220.2c1.4-.1,2.9.4,3.9,1.4.4.5.7,1.1.9,1.7.2.9.3,1.9.2,2.9v9.6c0,.7.1,1.4.5,2,.5.4,1.1.6,1.8.6v.7c-2.4,0-3.9-.1-4.7-.1s-2.3,0-4.6.1v-.7c.6,0,1.1-.1,1.5-.6.3-.6.5-1.3.4-2v-11.1c0-.8-.1-1.5-.5-2.2-.4-.5-1.1-.8-1.7-.7-1,0-1.9.4-2.5,1.2-.7.8-1.1,1.9-1,2.9v9.9c0,.7,0,1.4.4,2,.4.4.9.6,1.5.6v.7c-2.2,0-3.7-.1-4.4-.1s-2.3,0-4.9.1v-.7c.6,0,1.3-.1,1.8-.6.4-.6.6-1.3.5-2v-11.2c0-.8-.1-1.7-.5-2.4-.4-.5-1.1-.8-1.8-.7v-.7c.8,0,1.5.1,2.2.1,1.7,0,3.5-.1,5.2-.5v3.2c1.1-2.2,3.4-3.5,5.8-3.3ZM795.1,220.7h4.2v.7h-4.2v14.4c0,.5,0,1.1.4,1.5.3.3.7.5,1.2.4,1,0,1.8-.7,2.4-2.1l.6.3c-.6,2.2-2.6,3.7-4.9,3.7-1.3,0-2.6-.3-3.6-1.2-.5-.5-.9-1.2-1-1.9-.2-1-.3-2-.3-3.1v-12h-3v-.7h3v-4.7c1.8,0,3.5-.3,5.1-1.1v5.8ZM810.7,236.7c2,0,3.8-1.1,4.7-2.8l.6.2c-.5,1.5-1.3,2.9-2.5,3.9-1.3,1.1-2.9,1.7-4.6,1.6-2.3.1-4.4-.8-6-2.4-1.5-1.6-2.2-4-2.2-7.1-.2-2.7.7-5.3,2.4-7.3,1.6-1.7,4-2.6,6.3-2.5,4.5,0,6.7,2.6,6.7,7.9h-10c0,.4,0,.9,0,1.7,0,1.3.2,2.7.7,3.9.3.9.9,1.7,1.7,2.3.7.5,1.5.7,2.3.7ZM809.2,221c-1,0-1.8.7-2.1,1.6-.7,1.5-1,3.2-1,4.9h5.6c0-1.6-.1-3.1-.6-4.6-.4-1.2-1-1.8-1.9-1.8ZM830.2,220.2c.9,0,1.8.3,2.4,1,.5.6.8,1.5.8,2.3,0,.8-.2,1.6-.8,2.2-.5.6-1.3.9-2,.8-.7,0-1.4-.2-1.9-.6-.5-.4-.7-1-.7-1.7,0-1.1.6-2.2,1.6-2.8-.1,0-.3,0-.4,0-.2,0-.4,0-.6,0-1,.2-1.8.8-2.3,1.6-.6.9-.9,1.9-.9,2.9v9.4c0,.8.2,1.7.8,2.3.8.5,1.6.7,2.5.6v.7c-.3,0-.5,0-.8,0-2.4,0-4-.1-4.8-.1s-2.1,0-4.4.1c-.2,0-.5,0-.7,0v-.7c.6,0,1.3-.1,1.8-.6.4-.6.6-1.3.5-2v-11.2c0-.8-.1-1.7-.5-2.4-.4-.5-1.1-.8-1.8-.7v-.7c.8,0,1.5.1,2.2.1,1.7,0,3.5-.1,5.2-.5v3.3c.4-1,1.1-1.8,2-2.5.8-.6,1.8-1,2.9-.9Z"/>
  <path class="st0" d="M259,196.4c.6,2,1.3,4.6,2.3,7.7,1,3.1,1.8,5.6,2.3,7.6.2,1,.5,2,1,2.9,0,0,.9-2.5,2.3-7.5s2.5-8.6,3-10.7h7c.1.3.2.7.2,1,0,.2,0,.4-.2.6-.2.1-.4.2-.6.2h-1.1c0,2.1,0,5.6.1,10.5.1,4.8.2,8.1.3,9.7h1.7c.1.3.2.7.2,1,0,.2,0,.4-.2.6-.2.1-.4.2-.6.2h-6.8c-.1-.3-.2-.7-.2-1.1,0-.2,0-.4.2-.5.2-.1.4-.2.6-.2h1c0-2,0-8.1-.1-18.4-.9,3.5-1.9,7-3.1,10.6-.6,2.2-1.4,4.3-2.3,6.4-.4.7-1.1,1-1.9,1-.7,0-1.4,0-2.1-.1-.9-2-1.7-4-2.3-6.1-1.4-4-2.6-7.9-3.7-11.9,0,10.3,0,16.5,0,18.5h1.6c.1.3.2.7.2,1,0,.3-.1.7-.5.8,0,0-.2,0-.3,0h-6.4c-.1-.3-.2-.7-.2-1.1,0-.2,0-.4.2-.5.2-.1.4-.2.6-.2h1.3c.1-1.6.2-4.8.4-9.7.1-4.8.2-8.3.1-10.5h-1.8c-.1-.4-.2-.7-.2-1.1,0-.2,0-.4.2-.5.2-.1.4-.2.6-.2h7.1ZM291.1,218.7c-.9.6-1.9,1-3,1.3-1,.3-2,.4-3,.4-1.3.1-2.5-.3-3.5-1.1-.8-.9-1.2-2.1-1.1-3.3,0-1.6.6-3.1,1.9-4.1,1.8-1.1,3.8-1.6,5.9-1.4h2.6c0-1.5-.2-2.9-.9-4.3-.6-.9-1.7-1.3-2.7-1.2-.7,0-1.3,0-2,.2-.2.4-.4.7-.6,1.1-.3.1-.7.2-1,.3-.6.2-1,.1-1.3,0-.3-.3-.6-.7-.7-1.2-.2-.4-.3-.9-.4-1.4,0-.2.1-.4.3-.5.8-.3,1.5-.4,2.3-.5,1.4-.2,2.9-.3,4.4-.3,1.6-.1,3.2.3,4.5,1.1,1,.7,1.5,2,1.5,3.9v5.4c0,1.5,0,3,.3,4.5.1.5.6.8,1.1.7,0,0,0,0,0,0,.1.2.2.5.2.7,0,.4-.2.7-.7.9-.6.2-1.3.3-2,.3-.3,0-.6,0-.9-.1-.4-.4-.8-.9-1-1.4ZM290.8,212.9c-1-.2-2.1-.3-3.1-.3-1,0-1.9.1-2.8.7-.6.5-.9,1.3-.8,2.1,0,.8.2,1.5.7,2.1.6.5,1.4.8,2.2.7.7,0,1.5-.1,2.1-.5.6-.2,1.1-.7,1.3-1.3.3-.8.4-1.7.3-2.5v-1ZM298.8,203.8c0-.3.1-.5.4-.6,1.5-.2,3.1-.3,4.6-.3,0,.7,0,1.4,0,2.1,1.1-.8,2.4-1.4,3.7-1.8,1.1-.3,2.1-.5,3.2-.5.2,0,.4,0,.7.1.1,0,.2.2.2.5,0,.5,0,1.1-.2,1.6,0,.4-.3.8-.6,1.1-.3.2-.7.3-1.1.3-.3,0-.6,0-.9,0-.3-.3-.6-.6-.8-1-.9,0-1.8.3-2.5,1-.6.7-1,2-1,4,0,3.6,0,6.2.1,7.9h2.4c.1.3.2.6.2,1,0,.2,0,.5-.2.6-.2.1-.5.2-.7.2h-7.4c-.1-.3-.2-.7-.2-1,0-.2,0-.4.2-.6.2-.1.4-.2.6-.2h1.2c0-1.7.1-4,.1-6.8s-.1-5.4-.4-5.9c-.3-.6-.9-.9-1.5-.8-.1-.3-.2-.7-.2-1ZM316.9,200c-.6,0-1.2-.1-1.7-.5-.4-.3-.6-.8-.5-1.4,0-.6.2-1.1.7-1.5.5-.4,1.2-.6,1.9-.6.6,0,1.2.1,1.7.5.4.3.5.8.5,1.3,0,.6-.2,1.1-.6,1.5-.6.4-1.3.6-2,.6ZM321.2,218.3c.2.3.2.6.2,1,0,.2,0,.5-.2.6-.2.1-.5.2-.7.2h-6.8c-.1-.3-.2-.7-.2-1,0-.2,0-.4.2-.6.2-.1.4-.2.6-.2h1.3c0-1.6.1-3.5.1-5.7s0-4.4,0-5.3c0-.6,0-1.2-.3-1.8-.1-.3-.3-.5-.6-.6-.3,0-.7-.1-1-.1-.2-.3-.2-.6-.2-.9,0-.4.3-.8.7-.9.9-.1,1.7-.2,2.6-.2.6,0,1.2,0,1.9.1.3,0,.5.2.6.5,0,.4,0,.8,0,1.2v7.9c0,2.2,0,4.1.1,5.7h1.8ZM329.2,205c1-.7,2.2-1.3,3.4-1.7,1-.3,2-.5,3-.5,1.3,0,2.5.3,3.5,1.1.8.7,1.2,2.1,1.2,4.1,0,6.2,0,9.5.3,9.9.2.4.6.5,1.2.5.1.3.2.7.2,1,0,.2,0,.5-.3.6-.3.1-.7.2-1.1.2-1.6,0-2.6,0-3,0-.3,0-.6-.1-.7-.4-.2-.3-.2-.7-.2-1v-7.5c.1-1.6-.1-3.3-.8-4.8-.5-.8-1.5-1.3-2.4-1.2-.9,0-1.8.3-2.5.8-.8.8-1.2,1.8-1.1,2.9v3.7c0,2.1,0,3.9.1,5.7h1.9c.1.3.2.6.2,1,0,.2,0,.5-.2.6-.2.1-.5.2-.7.2h-6.8c-.1-.3-.2-.7-.2-1,0-.2,0-.4.2-.6.2-.1.4-.2.6-.2h1.2c0-1.8.1-4.1.1-6.8s-.1-5.4-.4-5.9c-.3-.6-.9-.9-1.5-.8-.1-.3-.2-.7-.2-1,0-.3.1-.5.4-.6,1.5-.2,3.1-.3,4.6-.3,0,.7,0,1.4,0,2.1h0ZM352.6,205c-1,0-2,.4-2.6,1.2-.7,1.2-1,2.5-1,3.9h1.8c1.9,0,3.2,0,3.9-.1.7,0,1.1-.2,1.2-.4.1-.3.2-.6.2-1,0-1-.3-1.9-.9-2.7-.7-.7-1.6-1-2.5-1h0ZM353.3,202.7c1.7-.1,3.5.4,4.8,1.5,1,1,1.6,2.7,1.6,5,0,.8-.1,1.5-.6,2.2-.7.5-1.6.7-2.4.6h-7.7c0,1.6.3,3.1,1.1,4.4.9,1.2,2.4,1.8,3.9,1.6,1.7,0,3.4-.5,4.8-1.4.5.4.7,1,.7,1.6,0,.8-.6,1.3-1.9,1.6-1.4.3-2.9.5-4.3.5-3,0-5.1-.6-6.4-1.9-1.3-1.3-1.9-3.4-1.9-6.4-.1-2.5.6-5,2.2-6.9,1.5-1.7,3.8-2.7,6.1-2.5h0ZM380.3,196.4c.6,2,1.3,4.6,2.3,7.7,1,3.1,1.8,5.6,2.3,7.6.2,1,.5,2,1,2.9,0,0,.9-2.5,2.3-7.5s2.5-8.6,3-10.7h7c.1.3.2.7.2,1,0,.2,0,.4-.2.6-.2.1-.4.2-.6.2h-1.1c0,2.1,0,5.6.1,10.5.1,4.8.2,8.1.3,9.7h1.7c.1.3.2.7.2,1,0,.2,0,.4-.2.6-.2.1-.4.2-.6.2h-6.8c-.1-.3-.2-.7-.2-1.1,0-.2,0-.4.2-.5.2-.1.4-.2.6-.2h1c0-2,0-8.1-.1-18.4-.9,3.5-1.9,7-3.1,10.6-.6,2.2-1.4,4.3-2.3,6.4-.4.7-1.1,1-1.9,1-.7,0-1.4,0-2.1-.1-.9-2-1.7-4-2.3-6.1-1.4-4-2.6-7.9-3.7-11.9,0,10.3,0,16.5,0,18.5h1.6c.1.3.2.7.2,1,0,.3-.1.7-.5.8,0,0-.2,0-.3,0h-6.4c-.1-.3-.2-.7-.2-1.1,0-.2,0-.4.2-.5.2-.1.4-.2.6-.2h1.3c.1-1.6.2-4.8.4-9.7.1-4.8.2-8.3.1-10.5h-1.8c-.1-.4-.2-.7-.2-1.1,0-.2,0-.4.2-.5.2-.1.4-.2.6-.2h7.1ZM409.5,205c-1,0-2,.4-2.6,1.2-.7,1.2-1,2.5-1,3.9h1.8c1.9,0,3.2,0,3.9-.1.7,0,1.1-.2,1.2-.4.1-.3.2-.6.2-1,0-1-.3-1.9-.9-2.7-.7-.7-1.6-1-2.5-1h0ZM410.2,202.7c1.7-.1,3.5.4,4.8,1.5,1,1,1.6,2.7,1.6,5,0,.8-.1,1.5-.6,2.2-.7.5-1.6.7-2.4.6h-7.7c0,1.6.3,3.1,1.1,4.4.9,1.2,2.4,1.8,3.9,1.6,1.7,0,3.4-.5,4.8-1.4.5.4.7,1,.7,1.6,0,.8-.6,1.3-1.9,1.6-1.4.3-2.9.5-4.3.5-3,0-5.1-.6-6.4-1.9-1.3-1.3-1.9-3.4-1.9-6.4-.1-2.5.6-5,2.2-6.9,1.5-1.7,3.8-2.7,6.1-2.5h0ZM427.6,205c-1.2,0-2.3.5-3,1.5-.7,1.6-1.1,3.3-.9,5,0,1.7.2,3.4.9,4.9.5,1.2,1.7,1.9,3,1.8.7,0,1.4-.1,2-.4.5-.2,1-.6,1.3-1.2.3-1.2.4-2.4.3-3.6v-7.1c-.5-.3-1-.5-1.5-.6-.7-.2-1.4-.3-2-.3h0ZM431.7,218.7c-.9.6-1.9,1-3,1.3-.9.3-1.9.4-2.8.4-1.7.1-3.4-.5-4.5-1.8-1.1-1.2-1.6-3.2-1.6-6.2s.7-5.7,2.1-7.4c1.6-1.8,4-2.7,6.3-2.5.6,0,1.1,0,1.7.1.5,0,.9.2,1.3.3,0-.9,0-1.8,0-2.8,0-.7,0-1.4-.2-2.1,0-.3-.3-.6-.6-.8-.3-.1-.7-.2-1.1-.2-.1-.3-.2-.7-.2-1.1,0-.3.1-.6.4-.7.9-.1,1.9-.2,2.9-.1.6,0,1.2,0,1.9.1.3,0,.5.2.6.5,0,.4,0,.8,0,1.2v12.4c0,2.6,0,5.2.3,7.7.2.7.5,1,.9,1,.2.2.2.5.2.8,0,.3-.4.6-1.2.9-.6.3-1.2.4-1.9.4-.3,0-.5-.1-.7-.3-.3-.4-.6-.9-.8-1.4h0ZM442.8,199.9c-.6,0-1.2-.1-1.7-.5-.4-.3-.6-.8-.5-1.4,0-.6.2-1.2.7-1.5.5-.4,1.2-.6,1.9-.6.6,0,1.2.1,1.7.5.4.3.5.8.5,1.3,0,.6-.2,1.1-.6,1.5-.6.4-1.3.6-2,.6h0ZM447.1,218.3c.2.3.2.6.2,1,0,.2,0,.5-.2.6-.2.1-.5.2-.7.2h-6.8c-.1-.3-.2-.7-.2-1,0-.2,0-.4.2-.6.2-.1.4-.2.6-.2h1.3c0-1.6.1-3.5.1-5.7s0-4.4,0-5.3c0-.6,0-1.2-.3-1.8-.1-.3-.3-.5-.6-.6-.3,0-.7-.1-1-.1-.2-.3-.2-.6-.2-.9,0-.4.3-.8.7-.9.9-.1,1.7-.2,2.6-.2.6,0,1.2,0,1.9.1.3,0,.5.2.6.5,0,.4,0,.8,0,1.2v7.9c0,2.2,0,4.1.1,5.7h1.8ZM458,220.5c-2.8,0-4.9-.6-6.1-1.8-1.2-1.2-1.8-3.2-1.8-6.1,0-3.2.8-5.7,2.3-7.3,1.5-1.7,3.8-2.5,6.9-2.5,1.1,0,2.2,0,3.3.4.6.2,1,.7,1,1.3,0,.7-.3,1.4-.7,2-1.4-.8-2.9-1.3-4.4-1.4-1.3-.1-2.6.5-3.4,1.5-.8,1.5-1.1,3.2-1,4.8-.1,1.8.2,3.5,1,5.1.8,1.2,2.2,1.9,3.6,1.7,1.6,0,3.2-.5,4.6-1.3.4.5.6,1,.6,1.6,0,.7-.6,1.2-1.8,1.5-1.3.4-2.7.5-4.1.5h0ZM477.3,218.7c-.9.6-1.9,1-3,1.3-1,.3-2,.4-3,.4-1.3.1-2.5-.3-3.5-1.1-.8-.9-1.2-2.1-1.1-3.3,0-1.6.6-3.1,1.9-4.1,1.8-1.1,3.8-1.6,5.9-1.4h2.6c0-1.5-.2-2.9-.9-4.3-.6-.9-1.7-1.3-2.7-1.2-.7,0-1.3,0-2,.2-.2.4-.4.7-.6,1.1-.3.1-.7.2-1,.3-.6.2-1,.1-1.3,0-.3-.3-.6-.7-.7-1.2-.2-.4-.3-.9-.4-1.4,0-.2.1-.4.3-.5.8-.3,1.5-.4,2.3-.5,1.4-.2,2.9-.3,4.4-.3,1.6-.1,3.2.3,4.5,1.1,1,.7,1.5,2,1.5,3.9v5.4c0,1.5,0,3,.3,4.5.1.5.6.8,1.1.7,0,0,0,0,0,0,.1.2.2.5.2.7,0,.4-.2.7-.7.9-.6.2-1.3.3-2,.3-.3,0-.6,0-.9-.1-.4-.4-.8-.9-1-1.4h0ZM476.9,212.9c-1-.2-2.1-.3-3.1-.3-1,0-1.9.1-2.8.7-.6.5-.9,1.3-.8,2.1,0,.8.2,1.5.7,2.1.6.5,1.4.8,2.2.7.7,0,1.5-.1,2.1-.5.6-.2,1.1-.7,1.3-1.3.3-.8.4-1.7.3-2.5v-1ZM486.9,210.2c0-4.9,0-8,0-9.4,0-.9,0-1.8-.3-2.6,0-.3-.3-.6-.6-.8-.4-.1-.7-.2-1.1-.2-.1-.3-.2-.7-.2-1.1,0-.3.2-.6.4-.7.9-.1,1.9-.2,2.9-.1.6,0,1.2,0,1.9.1.3,0,.5.2.6.5,0,.4,0,.8,0,1.2v14.5c0,2.8,0,5,.1,6.6h1.9c.1.3.2.6.2,1,0,.2,0,.5-.2.6-.2.1-.5.2-.7.2h-6.9c-.1-.3-.2-.7-.2-1,0-.2,0-.4.2-.6.2-.1.4-.2.6-.2h1.3c0-1.6.1-4.3.1-8.2h0ZM516,217.9c2,0,3.9-.5,5.6-1.6.6.5.9,1.2.9,2,0,.6-.7,1.2-2.2,1.6-1.8.4-3.6.6-5.4.6-3.3,0-5.8-.8-7.4-2.4s-2.4-4.4-2.4-8.6.9-8,2.8-10.2c1.9-2.2,4.6-3.3,8.2-3.3,1.5,0,3.1.1,4.6.5,1,.3,1.5.9,1.5,1.7,0,.7-.4,1.4-1,1.9-1.9-.9-3.9-1.5-6-1.5-1.8-.1-3.4.7-4.4,2.1-1,1.4-1.5,3.8-1.5,7.2s.5,6.3,1.6,7.8c1.2,1.5,3.1,2.4,5.1,2.2ZM533.2,205c-1,0-2,.4-2.6,1.2-.7,1.2-1,2.5-1,3.9h1.8c1.9,0,3.2,0,3.9-.1s1.1-.2,1.2-.4c.1-.3.2-.6.2-1,0-1-.3-1.9-.9-2.7-.7-.7-1.6-1-2.5-1h0ZM533.9,202.7c1.7-.1,3.5.4,4.8,1.5,1,1,1.6,2.7,1.6,5,0,.8-.1,1.5-.6,2.2-.7.5-1.6.7-2.4.6h-7.7c0,1.6.3,3.1,1.1,4.4.9,1.2,2.4,1.8,3.9,1.6,1.7,0,3.4-.5,4.8-1.4.5.4.7,1,.7,1.6,0,.8-.6,1.3-1.9,1.6-1.4.3-2.9.5-4.3.5-3,0-5.1-.6-6.4-1.9-1.3-1.3-1.9-3.4-1.9-6.4-.1-2.5.6-5,2.2-6.9,1.5-1.7,3.8-2.7,6.1-2.6h0ZM548.5,205c1-.7,2.2-1.3,3.4-1.7,1-.3,2-.5,3-.5,1.3,0,2.5.3,3.5,1.1.8.7,1.2,2.1,1.2,4.1,0,6.2,0,9.5.3,9.9.2.4.6.5,1.2.5.1.3.2.7.2,1,0,.2,0,.5-.3.6-.3.1-.7.2-1.1.2-1.6,0-2.6,0-3,0-.3,0-.6-.1-.7-.4-.2-.3-.2-.7-.2-1v-7.5c.1-1.6-.1-3.3-.8-4.8-.5-.8-1.5-1.3-2.4-1.2-.9,0-1.8.3-2.5.8-.8.8-1.2,1.8-1.1,2.9v3.7c0,2.1,0,3.9.1,5.7h1.9c.1.3.2.6.2,1,0,.2,0,.5-.2.6-.2.1-.5.2-.7.2h-6.8c-.1-.3-.2-.7-.2-1,0-.2,0-.4.2-.6.2-.1.4-.2.6-.2h1.2c0-1.8.1-4.1.1-6.8s-.1-5.4-.4-5.9c-.3-.6-.9-.9-1.5-.8-.1-.3-.2-.7-.2-1,0-.3.1-.5.4-.6,1.5-.2,3.1-.3,4.6-.3,0,.7,0,1.4,0,2.1h0ZM566.2,203.1l1.4-4.9c.4.1.9.3,1.2.5.3.2.6.4.8.7.2,1,.3,2,.2,2.9v.7h5.7c.1.4.2.8.2,1.2,0,.2,0,.5-.2.7-.2.1-.5.2-.8.2h-5v8.2c-.1,1.3,0,2.6.5,3.9.3.6.9,1,1.6,1,.9,0,1.8-.3,2.7-.7.3.4.4.8.4,1.3,0,.6-.4,1.1-1,1.2-1,.2-2.1.4-3.2.3-1.2.1-2.5-.2-3.5-1-.8-1-1.2-2.3-1.1-3.6v-4.1c0-2.2,0-4.4-.2-6.5h-1.7c-.1-.4-.2-.8-.2-1.2,0-.2,0-.5.2-.6.2-.2.4-.2.6-.2h1.2ZM585.9,205c-1,0-2,.4-2.6,1.2-.7,1.2-1,2.5-1,3.9h1.8c1.9,0,3.2,0,3.9-.1s1.1-.2,1.2-.4c.1-.3.2-.6.2-1,0-1-.3-1.9-.9-2.7-.7-.7-1.6-1-2.5-1h0ZM586.5,202.7c1.7-.1,3.5.4,4.8,1.5,1,1,1.6,2.7,1.6,5,0,.8-.1,1.5-.6,2.2-.7.5-1.6.7-2.4.6h-7.7c0,1.6.3,3.1,1.1,4.4.9,1.2,2.4,1.8,3.9,1.6,1.7,0,3.4-.5,4.8-1.4.5.4.7,1,.7,1.6,0,.8-.6,1.3-1.9,1.6-1.4.3-2.9.5-4.3.5-3,0-5.1-.6-6.4-1.9-1.3-1.3-1.9-3.4-1.9-6.4-.1-2.5.6-5,2.2-6.9,1.5-1.7,3.8-2.7,6.1-2.6h0ZM596.1,203.8c0-.3.1-.5.4-.6,1.5-.2,3.1-.3,4.6-.3,0,.7,0,1.4,0,2.1,1.1-.8,2.4-1.4,3.7-1.8,1.1-.3,2.1-.5,3.2-.5.2,0,.4,0,.7.1.1,0,.2.2.2.5,0,.5,0,1.1-.2,1.6,0,.4-.3.8-.6,1.1-.3.2-.7.3-1.1.3-.3,0-.6,0-.9,0-.3-.3-.6-.6-.8-1-.9,0-1.8.3-2.5,1-.6.7-1,2-1,4,0,3.6,0,6.2.1,7.9h2.4c.1.3.2.6.2,1,0,.2,0,.5-.2.6-.2.1-.5.2-.7.2h-7.4c-.1-.3-.2-.7-.2-1,0-.2,0-.4.2-.6.2-.1.4-.2.6-.2h1.2c0-1.7.1-4,.1-6.8s-.1-5.4-.4-5.9c-.3-.6-.9-.9-1.5-.8-.1-.3-.2-.7-.2-1h0Z"/>
  <path class="st2" d="M664.4,54.8c1.2,0,2.5.2,3.6.6,1,.4,2,1,2.9,1.7.2.2.4.3.7.3.5,0,.8-.7.9-2.1h.8c0,1.6-.1,4.5-.1,8.6h-.8c-.1-1.4-.4-2.7-.9-4-.4-1-1-1.8-1.8-2.4-.6-.6-1.3-1-2.1-1.3-.8-.3-1.6-.4-2.5-.4-2.3,0-4.5,1.3-5.3,3.5-1.2,2.7-1.8,5.7-1.7,8.7-.1,3,.5,6,1.8,8.7.9,2.1,3.1,3.5,5.4,3.5.8,0,1.6-.2,2.4-.4.8-.3,1.4-.7,2-1.3.8-.6,1.5-1.5,1.8-2.5.4-1.4.7-2.9.8-4.4h.8c0,4.3,0,7.3.1,9h-.8c0-.6-.1-1.1-.3-1.6-.1-.3-.3-.5-.6-.5-.3,0-.5.1-.7.3-.9.7-2,1.3-3.1,1.7-1.1.4-2.3.6-3.5.6-2.3,0-4.6-.5-6.6-1.5-1.9-1-3.4-2.5-4.4-4.4-1.1-2.1-1.6-4.5-1.6-6.9,0-2.4.5-4.8,1.6-6.9,1-2,2.6-3.6,4.5-4.7,2-1.1,4.2-1.7,6.5-1.7ZM686.6,78.1c2,0,3.8-1.1,4.7-2.8l.6.2c-.5,1.5-1.3,2.9-2.5,3.9-1.3,1.1-2.9,1.7-4.6,1.6-2.3.1-4.4-.8-6-2.4-1.5-1.6-2.2-4-2.2-7.1-.2-2.7.7-5.3,2.4-7.3,1.6-1.7,4-2.6,6.3-2.5,4.5,0,6.7,2.6,6.7,7.9h-10c0,.4,0,.9,0,1.7,0,1.3.2,2.7.7,3.9.3.9.9,1.7,1.7,2.3.7.5,1.5.7,2.3.7ZM685.1,62.4c-1,0-1.8.7-2.1,1.6-.7,1.5-1,3.2-1,4.9h5.6c0-1.6-.1-3.1-.6-4.6-.4-1.2-1-1.8-1.9-1.8ZM707.1,61.6c1.4-.1,2.9.4,3.9,1.4.4.5.7,1.1.9,1.7.2.9.3,1.9.2,2.9v9.6c0,.7.1,1.4.5,2,.5.4,1.1.6,1.8.6v.7c-2.4,0-3.9-.1-4.7-.1s-2.3,0-4.6.1v-.7c.6,0,1.1-.1,1.5-.6.3-.6.5-1.3.4-2v-11.1c0-.8-.1-1.5-.5-2.2-.4-.5-1.1-.8-1.7-.7-1,0-1.9.4-2.5,1.2-.7.8-1.1,1.9-1,2.9v9.9c0,.7,0,1.4.4,2,.4.4.9.6,1.5.6v.7c-2.2,0-3.7-.1-4.4-.1s-2.3,0-4.9.1v-.7c.6,0,1.3-.1,1.8-.6.4-.6.6-1.3.5-2v-11.2c0-.8-.1-1.7-.5-2.4-.4-.5-1.1-.8-1.8-.7v-.7c.8,0,1.5.1,2.2.1,1.7,0,3.5-.1,5.2-.5v3.2c1.1-2.2,3.4-3.5,5.8-3.3ZM723,62.1h4.2v.7h-4.2v14.4c0,.5,0,1.1.4,1.5.3.3.7.5,1.2.4,1,0,1.8-.7,2.4-2.1l.6.3c-.6,2.2-2.6,3.7-4.9,3.7-1.3,0-2.6-.3-3.6-1.2-.5-.5-.9-1.2-1-1.9-.2-1-.3-2-.3-3.1v-12h-3v-.7h3v-4.7c1.8,0,3.5-.3,5.1-1.1v5.8ZM738.6,78.1c2,0,3.8-1.1,4.7-2.8l.6.2c-.5,1.5-1.3,2.9-2.5,3.9-1.3,1.1-2.9,1.7-4.6,1.6-2.3.1-4.4-.8-6-2.4-1.5-1.6-2.2-4-2.2-7.1-.2-2.7.7-5.3,2.4-7.3,1.6-1.7,4-2.6,6.3-2.5,4.5,0,6.7,2.6,6.7,7.9h-10c0,.4,0,.9,0,1.7,0,1.3.2,2.7.7,3.9.3.9.9,1.7,1.7,2.3.7.5,1.5.7,2.3.7ZM737.1,62.4c-1,0-1.8.7-2.1,1.6-.7,1.5-1,3.2-1,4.9h5.6c0-1.6-.1-3.1-.6-4.6-.4-1.2-1-1.8-1.9-1.8ZM759.1,61.6c1.4-.1,2.9.4,3.9,1.4.4.5.7,1.1.9,1.7.2.9.3,1.9.2,2.9v9.6c0,.7.1,1.4.5,2,.5.4,1.1.6,1.8.6v.7c-2.4,0-3.9-.1-4.7-.1s-2.3,0-4.6.1v-.7c.6,0,1.1-.1,1.5-.6.3-.6.5-1.3.4-2v-11.1c0-.8-.1-1.5-.5-2.2-.4-.5-1.1-.8-1.7-.7-1,0-1.9.4-2.5,1.2-.7.8-1.1,1.9-1,2.9v9.9c0,.7,0,1.4.4,2,.4.4.9.6,1.5.6v.7c-2.2,0-3.7-.1-4.4-.1s-2.3,0-4.9.1v-.7c.6,0,1.3-.1,1.8-.6.4-.6.6-1.3.5-2v-11.2c0-.8-.1-1.7-.5-2.4-.4-.5-1.1-.8-1.8-.7v-.7c.8,0,1.5.1,2.2.1,1.7,0,3.5-.1,5.2-.5v3.2c1.1-2.2,3.4-3.5,5.8-3.3ZM778.2,78.1c2,0,3.8-1.1,4.7-2.8l.6.2c-.5,1.5-1.3,2.9-2.5,3.9-1.3,1.1-2.9,1.7-4.6,1.6-2.3.1-4.4-.8-6-2.4-1.5-1.6-2.2-4-2.2-7.1-.2-2.7.7-5.3,2.4-7.3,1.6-1.7,4-2.6,6.3-2.5,4.5,0,6.7,2.6,6.7,7.9h-10c0,.4,0,.9,0,1.7,0,1.3.2,2.7.7,3.9.3.9.9,1.7,1.7,2.3.7.5,1.5.7,2.3.7ZM776.7,62.4c-1,0-1.8.7-2.1,1.6-.7,1.5-1,3.2-1,4.9h5.6c0-1.6-.1-3.1-.6-4.6-.4-1.2-1-1.8-1.9-1.8Z"/>
  <path class="st2" d="M127.8,53.7v28h-1.9c-.3,0-.5,0-.8-.2-.2-.1-.4-.3-.6-.5l-16.2-21.1c0,.3,0,.6,0,1,0,.3,0,.6,0,.9v20h-3.3v-28h2c.1,0,.3,0,.4,0,.1,0,.2,0,.3,0,.1,0,.2.1.3.2.1.1.2.2.3.3l16.2,21.1c0-.3,0-.7,0-1,0-.3,0-.6,0-.9v-19.9h3.3ZM138.7,81.7h-3.8v-28h3.8v28ZM168.6,53.7v28h-3.8v-12.8h-15.1v12.8h-3.8v-28h3.8v12.5h15.1v-12.5h3.8Z"/>
  <path class="st1" d="M401.4,74.7v-20c0-1.7.3-2,3-2.3v-1.1h-10v1.1c2.7.3,3,.6,3,2.3v20c0,1.7-.3,2-3,2.3v1.1h10v-1.1c-2.7-.3-3-.6-3-2.3ZM407.3,69.2c0,5.9,3.5,9.3,7.6,9.3,2.5.1,4.8-1.2,6.1-3.3v3.1l6.1-.7v-.9l-1.3-.4c-1.1-.3-1.2-.5-1.2-1.5v-24.1l-6.2.7v1l1.3.3c1,.3,1.2.5,1.2,1.5v7.3c-1.2-1.4-3-2.1-4.9-2-4.9,0-8.7,3.9-8.7,9.7ZM411.1,68.8c0-4.8,2.4-7.8,5.7-7.8,1.6-.1,3.2.7,4.1,2v11.1c-.9,1.5-2.5,2.4-4.3,2.2-3.3,0-5.6-2.9-5.6-7.6ZM429.8,69.1c0,5.8,3.9,9.4,9.1,9.4,2.6.1,5.1-.9,6.8-2.8v-1.1c-1.3,1.2-3.1,1.8-4.9,1.8-4.3,0-7.1-3.2-7.3-8.1h12.5c0-.4,0-.8,0-1.1,0-4.7-2.7-7.8-7.6-7.8-5.2,0-8.7,4-8.7,9.6h0ZM438.5,61c2.7,0,4.1,2.2,4.1,5.7v.4h-9c.2-4.1,2.1-6.1,4.9-6.1h0ZM463.7,74.8l-4.7-6.2,3.8-4.8c1.6-2,2.1-2.5,4-2.8v-1.1h-6.9v1.1c2.4.2,2.7.6,1.5,2.2l-3.2,4.3-3.2-4.3c-1.2-1.6-1-2.1,1.5-2.2v-1.1h-8.7v1.1c1.4.3,1.9.7,3.1,2.2l4.7,6.2-3.6,4.8c-1.6,2.1-2.2,2.6-4.3,3v1.1h7v-1.1c-2.3-.2-2.7-.6-1.3-2.4l3-4.2,3.3,4.3c1.4,1.7,1,2.2-1.4,2.4v1.1h8.8v-1.1c-1.4-.2-2.6-1.1-3.3-2.3h0ZM483.3,74.8l-4.7-6.2,3.8-4.8c1.6-2,2.1-2.5,4-2.8v-1.1h-6.9v1.1c2.4.2,2.7.6,1.5,2.2l-3.2,4.3-3.2-4.3c-1.2-1.6-1-2.1,1.5-2.2v-1.1h-8.7v1.1c1.4.3,1.9.7,3.1,2.2l4.7,6.2-3.6,4.8c-1.6,2.1-2.2,2.6-4.3,3v1.1h7v-1.1c-2.3-.2-2.7-.6-1.3-2.4l3-4.2,3.3,4.3c1.4,1.7,1,2.2-1.4,2.4v1.1h8.8v-1.1c-1.4-.2-2.6-1.1-3.3-2.3h0ZM361.6,113.7l.3-7.7h-1c-1.1,5.3-2.7,6.1-7.2,6.2h-4.2c0,.1,0-21.7,0-21.7,0-1.8.4-2.2,3.3-2.5v-1.1h-10.3v1.1c2.7.3,3,.6,3,2.3v20c0,1.7-.3,2-3,2.3v1.1h19.1ZM369.8,114.1c2.3.1,4.5-.9,6-2.7.4,1.6,1.9,2.8,3.5,2.6,1,0,2.1-.3,2.9-.8v-1c-.3.1-.6.2-1,.2-1.1,0-2-.6-2-2.3v-9.3c0-3.9-2.7-5.7-6.8-5.7s-7.4,1.7-7.4,4.2c0,1.1.9,2,2,2,0,0,0,0,0,0,1.1,0,2-.8,2-1.9,0,0,0,0,0,0,0-.8-.5-1.6-1.3-1.9,1-.6,2.2-.9,3.3-.8,2.7,0,4.5,1.2,4.5,4.6v1.7l-4.2.9c-5,1.1-7.1,2.8-7.1,5.7,0,2.7,2.3,4.6,5.4,4.6ZM368.2,108.9c0-2.1,1.3-3.3,5-4.1l2.5-.5v6.1c-.9,1.3-2.4,2-4,1.9-1.8.2-3.4-1.1-3.5-2.9,0-.1,0-.3,0-.4ZM403,104.4c0-5.9-3.5-9.3-7.5-9.3-2.5-.1-4.8,1.1-6.1,3.2v-12s-6.2.7-6.2.7v1l1.3.3c1,.3,1.2.5,1.2,1.5v23.9h1.2l1.9-2.2c1.3,1.7,3.3,2.6,5.4,2.6,4.9,0,8.8-3.9,8.8-9.7ZM399.2,104.8c0,4.7-2.4,7.7-5.8,7.7-1.6,0-3.1-.7-4-2v-11.1c.9-1.5,2.5-2.4,4.3-2.2,3.3,0,5.6,2.9,5.6,7.6h0ZM412,95.2l-6.1.7v1l1.3.3c1.1.3,1.2.5,1.2,1.5v12.2c0,1.2-.3,1.4-2.5,1.7v1.1h9v-1.1c-2.5-.3-2.8-.5-2.8-1.9v-10.7c1.5-1.2,3.3-1.8,5.2-1.8.6,0,1.2,0,1.8.2.2-.4.4-.9.4-1.3,0-1-.6-1.9-1.6-1.9-.1,0-.2,0-.3,0-1.6,0-3.3,1.3-5.5,4v-3.9ZM427,114.1c2.3.1,4.5-.9,5.9-2.7.4,1.6,1.9,2.8,3.5,2.6,1,0,2.1-.3,2.9-.8v-1c-.3.1-.6.2-1,.2-1.1,0-2-.6-2-2.3v-9.3c0-3.9-2.7-5.7-6.8-5.7s-7.4,1.7-7.4,4.2c0,1.1.9,2,2,2,0,0,0,0,0,0,1.1,0,2-.8,2-1.8,0,0,0,0,0,0,0-.8-.5-1.6-1.3-1.9,1-.6,2.2-.9,3.3-.8,2.7,0,4.5,1.2,4.5,4.6v1.7l-4.2.9c-5,1.1-7.1,2.8-7.1,5.7,0,2.7,2.3,4.6,5.4,4.6h0ZM425.4,108.9c0-2.1,1.3-3.3,5-4.1l2.5-.5v6.1c-.9,1.3-2.4,2-4,1.9-1.8.2-3.4-1.1-3.5-2.9,0-.1,0-.3,0-.4h0ZM443.2,108.7c0,4,2.3,5.4,4.9,5.4,1.7,0,3.3-.6,4.6-1.6v-1.1c-.8.5-1.7.8-2.7.8-1.8,0-3.1-1-3.1-4v-11.2h5.5c0,.1,0-1.5,0-1.5l-5.5.2v-3.7h-.5l-5.6,4.4v.8h2.4v11.6ZM464,114.1c5.1.1,9.3-3.9,9.5-9,0-.2,0-.4,0-.6.2-5-3.6-9.2-8.6-9.5-.2,0-.4,0-.6,0-5.1-.1-9.3,3.9-9.5,9,0,.2,0,.4,0,.6-.2,5,3.6,9.2,8.6,9.4.2,0,.4,0,.6,0h0ZM464.2,112.6c-3.2,0-5.5-3.3-5.5-8.3s1.9-7.8,5.2-7.8,5.5,3.2,5.5,8.2c0,4.8-1.9,7.8-5.2,7.8h0ZM482.4,95.2l-6.1.7v1l1.3.3c1.1.3,1.2.5,1.2,1.5v12.2c0,1.2-.3,1.4-2.5,1.7v1.1h9v-1.1c-2.5-.3-2.8-.5-2.8-1.9v-10.7c1.5-1.2,3.3-1.8,5.2-1.8.6,0,1.2,0,1.8.2.2-.4.4-.9.4-1.3,0-1-.6-1.9-1.6-1.9-.1,0-.2,0-.3,0-1.6,0-3.3,1.3-5.5,4v-3.9ZM495.7,91.5c1.2,0,2.1-1,2.1-2.2,0-1.2-1-2.1-2.2-2.1-1.2,0-2.1,1-2.1,2.2,0,1.2,1,2.2,2.2,2.2h0ZM497.9,95.2l-6.2.7v1l1.3.3c1.1.3,1.2.5,1.2,1.5v12.1c0,1.2-.3,1.5-2.5,1.7v1.1h8.7v-1.1c-2.2-.3-2.5-.6-2.5-1.7v-15.7ZM503.1,104.7c0,5.8,3.9,9.4,9.1,9.4,2.6.1,5.1-.9,6.8-2.8v-1.1c-1.3,1.2-3.1,1.8-4.9,1.8-4.3,0-7.1-3.2-7.3-8.1h12.5c0-.4,0-.8,0-1.1,0-4.7-2.7-7.8-7.6-7.8-5.2,0-8.7,4-8.7,9.6h0ZM511.8,96.6c2.7,0,4.1,2.2,4.1,5.7v.4h-9c.2-4.1,2.1-6.1,4.9-6.1h0ZM523.1,100.2c0,2.9,2.1,4.5,5.4,5.4l1.5.4c2.6.8,3.6,1.7,3.6,3.4s-1.5,3.1-4,3.1c-2.8,0-5.3-2-5.7-4.8h-1l.2,4.6c2,1.1,4.3,1.7,6.6,1.6,3.9,0,7.2-2.1,7.2-5.4s-2-4.7-5.3-5.6l-1.5-.4c-2.3-.7-3.7-1.5-3.7-3.2s1.5-2.8,3.8-2.8c2.5,0,4.6,1.8,4.9,4.2h1v-4.4c-1.9-1-3.9-1.4-5.9-1.3-4.2,0-7,2-7,5.2h0Z"/>
</svg>