<?xml version="1.0" encoding="UTF-8"?>
<svg id="Layer_1" xmlns="http://www.w3.org/2000/svg" version="1.1" viewBox="0 0 885 430">
  <!-- Generator: Adobe Illustrator 29.7.1, SVG Export Plug-In . SVG Version: 2.1.1 Build 8)  -->
  <defs>
    <style>
      .st0 {
        fill: #c2c2c2;
      }

      .st1 {
        fill: #c4c4c4;
      }

      .st2 {
        fill: #949494;
      }

      .st3 {
        fill: #7f7f7f;
      }
    </style>
  </defs>
  <path class="st2" d="M776.9,112.4h9.6v3.5h-3.3v20.8h3.4v3.5h-10.4v-3.5h3.3v-20.8l-9.5,24.6h-.8l-9.5-24.6v20.8h3.1v3.5h-9.9v-3.5h3.4v-20.8h-3.4v-3.5h9.5l7.3,19,7.3-19ZM795.7,114.3c0,.6-.2,1.2-.7,1.6-.4.4-1,.7-1.6.7-.6,0-1.2-.2-1.6-.7-.4-.4-.7-1-.7-1.6,0-.6.2-1.2.7-1.6.4-.4,1-.7,1.6-.7.6,0,1.2.2,1.6.7.4.4.7,1,.7,1.6ZM798.4,136.8v3.4h-9.8v-3.4h3v-12.6h-3v-3.4h6.8v16h2.9ZM815.6,122.2v-1.4h3.4v7.3h-3.4c0-1.3-.7-2.4-1.7-3.2-1-.7-2.2-1.1-3.4-1.1-1.1,0-2.1.3-3,.9-.9.6-1.6,1.4-2,2.4-.5,1-.7,2.2-.7,3.3,0,1.8.5,3.6,1.6,5,1,1.3,2.6,2,4.3,1.9,2.6.1,4.9-1.4,5.8-3.8l3.2,1.5c-1.5,3.7-5.2,6-9.1,5.8-1.8,0-3.6-.4-5.1-1.4-1.5-.9-2.7-2.2-3.5-3.7-.8-1.6-1.2-3.4-1.2-5.3,0-1.8.4-3.6,1.2-5.2.8-1.5,2-2.8,3.4-3.6,1.5-.9,3.1-1.3,4.8-1.3,2,0,3.9.6,5.4,1.9ZM829,132.4v4.4h4.2v3.4h-11.9v-3.4h3.9v-12.6h-3.9v-3.4h6.9v4.4c.6-1.5,1.6-2.7,2.9-3.6,1.5-.8,3.2-1.1,4.9-1h.9v3.8h-.8c-1.6,0-3.2.2-4.6.8-1,.5-1.7,1.4-2,2.4-.4,1.5-.5,3.1-.5,4.7h0ZM857.1,130.5c0,1.8-.4,3.6-1.3,5.2-1.8,3.2-5.2,5.1-8.8,5.1-1.8,0-3.7-.4-5.2-1.4-1.5-.9-2.8-2.2-3.6-3.7-.9-1.6-1.3-3.4-1.3-5.2,0-1.8.4-3.7,1.3-5.3.8-1.5,2.1-2.8,3.6-3.6,1.6-.9,3.4-1.3,5.3-1.3,1.8,0,3.6.5,5.2,1.4,3.1,1.9,5,5.2,5,8.8h0ZM847,137.1c1.1,0,2.2-.3,3.1-.9.9-.6,1.7-1.4,2.2-2.4.5-1,.8-2.1.8-3.3,0-1.1-.3-2.2-.8-3.2-.5-1-1.3-1.8-2.2-2.4-1.9-1.2-4.3-1.2-6.3,0-.9.6-1.7,1.4-2.2,2.4-1.1,2-1.1,4.5,0,6.5.5,1,1.3,1.8,2.2,2.4.9.6,2,.9,3.1.9ZM878.4,127.2v9.6h3.2v3.4h-7.1v-12.8c0-.9-.1-1.8-.5-2.6-.4-.6-1-.9-1.7-.8-2.1.2-4.1,1.1-5.7,2.5v10.3h3.3v3.4h-10.5v-3.4h3.4v-12.6h-3.4v-3.4h7.2v2.3c1.9-1.5,4.2-2.5,6.7-2.6,1.5-.1,2.9.5,3.8,1.6.9,1.5,1.4,3.2,1.2,5ZM756.2,160.9c-.5,2.4-.8,4.9-.7,7.3,0,2,.1,4,.5,5.9.3,1.5.7,2.9,1.4,4.2,1.1,2.2,2.9,4.1,5,5.3v3.1c-3.1-1.4-5.7-3.6-7.5-6.4-2.4-3.6-3.5-7.8-3.4-12.1,0-4,.9-8,2.9-11.5,1.8-3.1,4.6-5.6,7.9-7v3.1c-1.5.8-2.7,2-3.7,3.4-1.1,1.4-1.9,3.1-2.4,4.8ZM771.9,153.6v20.8h3v3.5h-10.2v-3.5h3v-20.8h-3v-3.5h10.2v3.5h-3ZM801.3,174.5v3.4h-7.3v-2.8c-1.7,2-4.3,3.2-6.9,3.2-1.7,0-3.5-.4-4.9-1.3-1.4-.9-2.6-2.1-3.3-3.6-.8-1.5-1.2-3.3-1.2-5,0-1.8.4-3.6,1.3-5.2.8-1.5,2-2.8,3.5-3.7,1.4-.9,3.1-1.4,4.8-1.4,1.2,0,2.4.3,3.6.8,1.2.6,2.3,1.4,3.3,2.4v-7.7h-3.7v-3.4h7.5v24.4h3.5ZM787.8,174.8c1.1,0,2.2-.3,3.2-.9.9-.6,1.7-1.5,2.2-2.5.5-1,.8-2.2.8-3.4,0-1.1-.3-2.3-.8-3.3-1.1-2-3.2-3.3-5.5-3.2-1.1,0-2.2.3-3.1.9-.9.6-1.7,1.5-2.2,2.5-1.1,2.1-1.1,4.6,0,6.7.5,1,1.3,1.8,2.2,2.4.9.6,2,.9,3.1.9h0ZM819.6,165.4v9.1h3.2v3.4h-6.6v-2.4c-1.6,1.7-3.8,2.7-6.2,2.7-2.3,0-4.4-1.1-5.6-3-1.2-1.9-1.2-4.4,0-6.3.7-1,1.6-1.7,2.7-2.2,1.1-.5,2.2-.8,3.4-.8,1.9,0,3.7.6,5.3,1.7v-2.1c.1-1.2-.2-2.3-1-3.2-.9-.7-2-1.1-3.1-1-.9,0-1.8.2-2.6.6-.7.4-1.3,1-1.7,1.7l-3.6-.9c.7-1.5,1.9-2.6,3.3-3.4,1.5-.8,3.3-1.2,5-1.1,2.1-.2,4.1.5,5.7,1.8,1.3,1.5,2,3.5,1.8,5.6h0ZM810.6,175.3c2,0,3.9-.9,5.2-2.3v-2.3c-1.4-1.2-3.1-1.9-5-1.9-1,0-1.9.3-2.6.9-1.3,1.2-1.5,3.2-.3,4.5,0,0,.1.1.2.2.7.6,1.6.9,2.5.9h0ZM837.9,158c3.6,0,5.4,1.9,5.4,5.8v10.6h3.3v3.4h-7.1v-12.7c0-1-.1-2-.6-2.9-.4-.6-1.1-.9-1.8-.8-1.4,0-3.2.8-5.5,2.5v10.6h3.4v3.4h-10.6v-3.4h3.5v-21h-3.5v-3.4h7.3v10.7c1.7-1.6,4-2.6,6.4-2.8h0ZM869,168.3c0,1.8-.4,3.6-1.3,5.2-1.8,3.2-5.2,5.1-8.8,5.1-1.8,0-3.7-.4-5.2-1.4-1.5-.9-2.8-2.2-3.6-3.7-.9-1.6-1.3-3.4-1.3-5.2,0-1.8.4-3.7,1.3-5.3.8-1.5,2.1-2.8,3.6-3.6,1.6-.9,3.4-1.3,5.3-1.3,1.8,0,3.6.5,5.2,1.4,3.1,1.9,5,5.2,5,8.8h0ZM858.9,174.8c1.1,0,2.2-.3,3.1-.9.9-.6,1.7-1.4,2.2-2.4.5-1,.8-2.1.8-3.3,0-1.1-.3-2.2-.8-3.2-.5-1-1.3-1.8-2.2-2.4-1.9-1.2-4.3-1.2-6.3,0-.9.6-1.7,1.4-2.2,2.4-1.1,2-1.1,4.5,0,6.5.5,1,1.3,1.8,2.2,2.4.9.6,2,.9,3.1.9h0ZM879.4,156.6c2.1,3.5,3.2,7.6,3.1,11.7.1,3.9-.8,7.8-2.8,11.2-1.9,3.2-4.8,5.7-8.1,7.3v-3.1c1.7-1,3.1-2.3,4.2-3.9,1-1.5,1.8-3.2,2.1-5,.2-1,.4-2.1.4-3.1,0-1,0-2.3,0-3.8,0-4.6-.7-8.1-2.2-10.3-1.1-2-2.7-3.6-4.7-4.8v-3.1c3.2,1.5,6,3.9,7.8,6.9h0Z"/>
  <path class="st3" d="M361.5,275.5l-10.5-26h-1l-10.5,26h2.7l2.9-7.2h10.8l2.9,7.2h2.7ZM355,266.1h-9l3.1-7.9c.4-1.2,1-2.6,1.4-3.9h0c.4,1.4.9,2.8,1.4,3.9l3.1,7.9ZM380.7,263.9c0-3.5-2.8-7-7.8-7-5,.2-9,4.4-8.8,9.5,0,0,0,0,0,0,0,5.2,4.1,9.4,9.3,9.5.1,0,.2,0,.3,0,1.8,0,3.7-.3,5.3-1.2l.3-2.5c-1.6,1-3.4,1.6-5.3,1.5-3.8.2-7.1-2.8-7.2-6.7,0-.1,0-.2,0-.3h12.3l1.5-1.5c0-.4,0-.8,0-1.2ZM378.1,264c0,.2,0,.4,0,.6h-11.1c.5-3,3-5.3,6.1-5.5,2.7-.1,5,2,5.1,4.7,0,0,0,.1,0,.2ZM394.4,257.3c-.6-.2-1.1-.2-1.7-.2-2.7-.1-5.1,1.7-5.6,4.4h0v-4.1h-2.5v18.2h2.5v-9.3c0-4.7,2.6-6.5,5.4-6.5.5,0,.9,0,1.4.2l.6-2.6ZM414.1,266.4c0-5.3-4.3-9.6-9.6-9.6-5.3,0-9.6,4.3-9.6,9.6,0,5.3,4.3,9.6,9.6,9.6,5.3,0,9.6-4.3,9.6-9.6ZM411.5,266.5c.1,3.9-2.9,7.1-6.8,7.2-3.9.1-7.1-2.9-7.2-6.8,0-.2,0-.3,0-.5-.1-3.9,2.9-7.1,6.8-7.3,3.9-.1,7.1,2.9,7.3,6.8,0,.2,0,.4,0,.5ZM429,257.3h-6.7v-5.3l-2.5,1.3v3.9h-3.6v2.1h3.6v11.5c-.1,2.5,1.8,4.7,4.3,4.8.2,0,.4,0,.6,0,.7,0,1.4,0,2-.4l.3-2.1c-.6.3-1.2.4-1.9.4-1.4.2-2.7-.8-2.9-2.2,0-.2,0-.5,0-.7v-11.3h6.2l.5-2.1ZM447.4,263.9c0-3.5-2.8-7-7.8-7-5,.2-9,4.4-8.8,9.4,0,0,0,0,0,0,0,5.2,4.1,9.4,9.3,9.5.1,0,.2,0,.3,0,1.8,0,3.7-.3,5.3-1.2l.3-2.5c-1.6,1-3.4,1.6-5.3,1.5-3.8.2-7.1-2.8-7.2-6.7,0-.1,0-.2,0-.3h12.3l1.5-1.5c0-.4,0-.8,0-1.2h0ZM444.8,264c0,.2,0,.4,0,.6h-11.1c.5-3,3-5.3,6.1-5.5,2.7-.1,5,2,5.1,4.7,0,0,0,.1,0,.2h0ZM465.6,258.5c-1.7-.9-3.7-1.4-5.6-1.4-5.1-.2-9.4,3.8-9.6,8.9,0,.2,0,.3,0,.5,0,5.1,4,9.3,9.1,9.3.2,0,.3,0,.5,0,1.7,0,3.3-.3,4.8-1l.3-2.5c-1.5.8-3.2,1.3-4.9,1.2-3.9.1-7.1-2.9-7.2-6.7,0-.1,0-.2,0-.4,0-3.8,2.9-7,6.8-7.1.1,0,.3,0,.4,0,1.8,0,3.5.5,5,1.5l.5-2.4ZM484.9,275.5v-12.3c0-4-2.9-6.4-7-6.4s-5.1,1.3-5.8,2.9h0v-12.9h-2.5v28.6h2.5v-12c0-2.5,2-4.4,5.2-4.4s5,1.8,5,4.4v12h2.5Z"/>
  <path class="st3" d="M34.7,392.2h-1.2c-1.5,4.4-2.1,5.8-7.1,5.8h-1.7c-2.2,0-2.9-.3-2.9-2v-16.4c0-2.9.6-3.7,3.7-3.7v-1.1h-10.6v1.1c3,0,3.4.8,3.4,3.7v15.3c0,2.9-.4,3.5-3.4,3.5v1.1h18.7l1.1-7.4ZM38.6,380.8c.9-1.9,2.8-3.1,4.9-3.1,2.3,0,3.8,1.3,3.8,3.5,0,2.8-2.4,5.1-5.2,5.1h-.7v1.4h.8c3.6,0,6.8,2.2,6.8,5.6s-2.3,4.8-4.7,4.8c-1.1,0-2.1-.4-3.1-1-1.3-.7-1.6-.9-2.2-.9-.8,0-1.5.7-1.5,1.6,0,0,0,0,0,0,0,1,.8,2.1,4.2,2.1,5.5,0,10.3-2.6,10.3-7.8s-2.5-5.4-5.5-6.3h0c2.4-1.6,4.1-3,4.1-5.6s-2.2-5.1-6.1-5.1-5.4,1.7-6.8,5l.9.5ZM63,379.7c0-2.9.1-3.8,3.7-3.8v-1.1h-10.8v1.1c3.5,0,3.7.9,3.7,3.8v14.9c0,3.4-.3,3.8-3.7,3.8v1.1h10.8v-1.1c-3.4,0-3.7-.5-3.7-3.8v-7.1h12.4v7.1c0,3.3-.3,3.8-3.7,3.8v1.1h10.8v-1.1c-3.4,0-3.7-.5-3.7-3.8v-14.9c0-3,.1-3.8,3.7-3.8v-1.1h-10.8v1.1c3.5,0,3.7.9,3.7,3.8v6.3h-12.4v-6.3ZM94.9,397.2c.2,1.7.6,2.5,2.3,2.5s2.8-.8,4.1-2.6l-.6-.6c-.4.6-1.1.9-1.8.9-.8,0-1.1-.3-1.1-1.8v-8.6c0-3.9-1.5-5.8-5.7-5.8s-6.6,2-6.6,4.1c0,.9.6,1.7,1.4,1.8,0,0,0,0,.1,0,.8,0,1.6-.5,1.7-1.3,0-.1,0-.3,0-.4,0-2.3.4-3.1,2.5-3.1s3.4,1.2,3.4,4.5v1.7c-3.2,1-9.9,2-9.9,7,0,2.2,1.7,4.1,3.9,4.2.2,0,.4,0,.6,0,2.4,0,3.8-1.1,5.5-2.6h.2ZM94.7,396.1c-1.1,1-2.4,1.6-3.9,1.7-1.5,0-2.7-1.2-2.7-2.7,0-.1,0-.2,0-.4,0-2.9,3.2-4,6.6-4.8v6.2ZM108.3,381.4h-.9l-4.7,1.1v1.1c.4,0,.8,0,1.2,0,1.4,0,1.4.7,1.4,2v10.4c0,2.1-.3,2.6-2.8,2.6v1.1h9.4v-1.1c-2.8,0-3.5-.4-3.5-2.8v-8.6c.9-1.5,2.1-3.1,3-3.1s1.2,1.3,2.5,1.3,1.7-.6,1.7-2c0-1.1-.7-2-1.8-2.1-.1,0-.3,0-.4,0-1.8,0-2.9,1.3-4.9,4.1h-.1v-3.9ZM122.6,381.4h-.9l-4.7,1.1v1.1c.4,0,.8,0,1.2,0,1.4,0,1.4.7,1.4,2v10.4c0,2.1-.3,2.6-2.8,2.6v1.1h9.4v-1.1c-2.8,0-3.5-.4-3.5-2.8v-8.6c.9-1.5,2.1-3.1,3-3.1s1.2,1.3,2.5,1.3,1.7-.6,1.7-2c0-1.1-.7-2-1.8-2.1-.1,0-.3,0-.4,0-1.8,0-2.9,1.3-4.9,4.1h-.1v-3.9ZM139.8,398.5c-2.5,0-2.7-.6-2.7-2.8v-14.4h-1l-4.8,1.1v1.1c.3,0,.6,0,.9,0,1.1,0,1.7.2,1.7,1.8v10.5c0,2.1-.1,2.8-2.6,2.8v1.1h8.5v-1.1ZM135.5,374.2c-1.1,0-2.1.8-2.1,2,0,0,0,0,0,.1,0,1.2.9,2.1,2.1,2.1,0,0,0,0,0,0,1.1,0,2.1-.9,2.1-2,0,0,0,0,0-.1,0-1.1-.9-2.1-2-2.1,0,0,0,0-.1,0ZM142.3,393.4v6.5h.9l.8-.9h0c1.3.7,2.8,1,4.3,1,3.4,0,6.3-1.4,6.3-4.9s-1.8-4.2-5.3-6c-3.2-1.6-4.4-2.6-4.4-4s1.3-2.5,3.1-2.5,3.7,1.1,4.5,4.7h1v-5.8h-.9l-.6.8h0c-1.2-.7-2.6-1-4-1-3.2,0-5.8,1.7-5.8,4.8s1.5,4.1,5,5.8c3.5,1.7,4.2,2.5,4.2,4.2s-1.4,2.5-3.2,2.5c-2.8,0-4.2-1.3-5-5.2h-1ZM186,381.6l-.3-6.8h-20.9l-.4,6.8h1.2c.8-4.1,1.3-5.1,5.5-5.1h2.4v18.1c0,3.4-.5,3.8-3.7,3.8v1.1h10.9v-1.1c-3.2,0-3.7-.4-3.7-3.8v-18.1h2.4c4.2,0,4.6,1,5.5,5.1h1.2ZM199.6,394.1c-1.1,1.9-3.2,3-5.4,2.9-3,0-5.9-2.4-5.9-7.6h11.9c-.2-5.3-2.9-8.3-7-8.3s-8,3-8,9.3,3.5,9.4,8,9.4,5.7-2.4,7.1-5.2l-.7-.5ZM188.2,388.1c.3-3.5,1.8-5.4,4.4-5.4s3.9,2.6,4,5.4h-8.4ZM216.8,394c-1.7,2.2-3,3.1-5.4,3.1-3.9,0-5.7-3.2-5.7-7.8s1.8-6.6,4.9-6.6,2,4.3,4.8,4.3,1.6-.6,1.6-1.7c0-2.2-2.2-4-5.7-4-5.4,0-8.5,3.8-8.5,9.8s2.8,8.9,7.5,8.9,5.9-2.4,7.3-5.4l-.7-.5ZM225.1,386c1.8-1.7,3.2-2.3,4.7-2.3,3.1,0,3.5,2.6,3.5,5.7v6.5c0,1.8-.2,2.6-2.8,2.6v1.1h8.7v-1.1c-2.4,0-2.8-.7-2.8-2.7v-7.5c0-3.1-.7-7-5.1-7s-3.7.9-6.1,3.1h-.1v-11.4h-1l-5.1,1.3v1.1c.4,0,.7,0,1.1,0,1,0,1.8.2,1.8,1.5v19.3c0,2.1-.7,2.4-2.6,2.4v1.1h8.6v-1.1c-2.6,0-2.8-.6-2.8-2.6v-9.9ZM258.1,388c0-4.3-1.6-6.7-5.1-6.7s-4,1.4-6.1,3.2h-.2v-3.1s-.8,0-.8,0l-4.8,1.1v1.1c.3,0,.7,0,1,0,1,0,1.6.3,1.6,1.7v10.6c0,2.1-.1,2.8-2.6,2.8v1.1h8.6v-1.1c-2.7,0-2.9-.6-2.9-2.8v-9.7c1.2-1.4,2.8-2.2,4.6-2.4,1.7,0,3.5.7,3.5,5.2v6.8c0,2.1-.1,2.8-2.8,2.8v1.1h8.7v-1.1c-2.5,0-2.8-.6-2.8-2.8v-7.8ZM271.4,381.3c-5.1,0-8.4,3.7-8.4,9.2s3.2,9.5,8.4,9.5,8.4-3.3,8.4-9.7-3.2-9-8.4-9ZM271.3,382.7c3.4,0,5.1,3.1,5.1,7.8s-1.7,8-4.8,8c-3.2,0-5.1-2.5-5.1-8.5s1.9-7.2,4.8-7.2ZM290.9,398.4c-2.7,0-2.9-.5-2.9-2.7v-22.8h-.9l-5,1.3v1c.4,0,.8,0,1.2,0,.9,0,1.6,0,1.6,1.6v18.9c0,2.1-.2,2.7-2.6,2.7v1.1h8.7v-1.1ZM301.5,381.3c-5.1,0-8.4,3.7-8.4,9.2s3.2,9.5,8.4,9.5,8.4-3.3,8.4-9.7-3.2-9-8.4-9ZM301.3,382.7c3.4,0,5.1,3.1,5.1,7.8s-1.7,8-4.8,8c-3.2,0-5.1-2.5-5.1-8.5s1.9-7.2,4.8-7.2ZM316,392.6c-1.8,1.4-3.1,2.9-3.1,4.3.1,1.2,1,2.3,2.1,2.7v.2c-2,2-3.1,3.2-3.1,4.5,0,2.1,1.5,4.1,6.4,4.1s10.3-1.7,10.3-6.8-3.6-4.5-8.4-4.5-4.5-.4-4.5-1.5c.1-.9.5-1.8,1-2.5,1,.4,2.1.6,3.2.6,4,0,6.7-2.2,6.7-5.7,0-1.4-.5-2.8-1.4-3.9v-.2h3.5c0,.1,0-1.9,0-1.9l-4.9.3c-1.3-.6-2.7-1-4.2-.9-4,0-6.8,2.4-6.8,6.1,0,2.1,1,4.1,2.9,5.1h0ZM315.9,399.9c.5,0,1.2,0,4.3,0h.3c2.5,0,6.2,0,6.2,2.7s-1.8,3.6-6.2,3.6-5.7-1.1-5.7-3.3c0-1.1.4-2.1,1.1-3.1ZM319.6,382.6c2.4,0,3.8,2,3.8,5.1s-1.4,4.6-3.3,4.6-3.7-1.8-3.7-5.1,1.3-4.6,3.2-4.6ZM339.1,398.5c-2.5,0-2.7-.6-2.7-2.8v-14.4h-1l-4.8,1.1v1.1c.3,0,.6,0,.9,0,1.1,0,1.7.2,1.7,1.8v10.5c0,2.1-.1,2.8-2.6,2.8v1.1h8.5v-1.1ZM334.9,374.2c-1.1,0-2.1.8-2.1,2,0,0,0,0,0,.1,0,1.2.9,2.1,2.1,2.1,0,0,0,0,0,0,1.1,0,2.1-.9,2.1-2,0,0,0,0,0-.1,0-1.1-.9-2.1-2-2.1,0,0,0,0-.1,0h0ZM355.8,394.1c-1.1,1.9-3.2,3-5.4,2.9-3,0-5.9-2.4-5.9-7.6h11.9c-.2-5.3-2.9-8.3-7-8.3s-8,3-8,9.3,3.5,9.4,8,9.4,5.7-2.4,7.1-5.2l-.7-.5ZM344.4,388.1c.3-3.5,1.8-5.4,4.4-5.4s3.9,2.6,4,5.4h-8.4ZM359.1,393.4v6.5h.9l.8-.9h0c1.3.7,2.8,1,4.3,1,3.4,0,6.3-1.4,6.3-4.9s-1.8-4.2-5.3-6c-3.2-1.6-4.4-2.6-4.4-4s1.3-2.5,3.1-2.5,3.7,1.1,4.5,4.7h1v-5.8h-.9l-.6.8h0c-1.2-.7-2.6-1-4-1-3.2,0-5.8,1.7-5.8,4.8s1.5,4.1,5,5.8c3.5,1.7,4.2,2.5,4.2,4.2s-1.4,2.5-3.2,2.5c-2.8,0-4.2-1.3-5-5.2h-1Z"/>
  <path class="st0" d="M501.5,398.8c7.4,0,13.2-4.7,13.2-15.2h-14.7v5.1h7.8c0,2.7-3.4,4.5-6.5,4.5-4.6-.2-8.2-4-8.1-8.7,0,0,0,0,0,0-.2-4.5,3.3-8.3,7.8-8.5,0,0,0,0,0,0,2.3,0,4.5,1,6,2.8l4.7-3.9c-2.7-3.1-6.5-4.8-10.6-4.7-7.9,0-14.3,6.5-14.2,14.5s6.5,14.3,14.5,14.2c0,0,0,0,.1,0ZM532.2,381.8c-1.4-1.8-3.6-2.8-5.9-2.7-5.3,0-9.1,4-9.1,9.9s3.7,9.9,9,9.9c2.3,0,4.5-1,6-2.9v2.4h6v-18.8h-6v2.3ZM527.7,393.3c-2.4,0-4.3-1.9-4.3-4.3,0,0,0,0,0,0,0-2.3,1.8-4.3,4.1-4.4,0,0,.1,0,.2,0,2.4,0,4.4,1.9,4.4,4.3s-1.9,4.4-4.3,4.4ZM554.6,379c-2.7,0-5,1.9-5.6,4.5v-4h-5.9v18.8h6v-6.2c0-5.6,1.9-7.5,4.3-7.5.9,0,1.9.2,2.7.7l1.4-5.7c-.9-.4-1.8-.6-2.8-.6ZM583.2,379c-2.5,0-4.9,1.4-6.2,3.6-1.1-2.3-3.4-3.7-6-3.6-2.2,0-4.3,1.4-5.1,3.5v-3h-6v18.8h6v-9.8c0-3.1,1.6-3.9,3.3-3.9s2.9,1,2.9,3.9v9.8h6v-9.2c0-3.3,1.4-4.6,3.2-4.6s3,.9,3,3.8v9.9h6v-10.1c0-5.8-2.4-9.2-7.1-9.2h0ZM598,376.7c2,0,3.6-1.5,3.6-3.5,0-1.9-1.6-3.5-3.5-3.5,0,0,0,0,0,0-2,0-3.6,1.5-3.7,3.4,0,0,0,0,0,0,0,2,1.7,3.5,3.7,3.5ZM601,398.3v-18.8h-6v18.8h6ZM617.3,379c-1.7,0-4.7,1.2-5.4,3.7v-3.3h-6v18.8h6v-9.8c0-3.1,2-4,3.6-4s3.3,1.1,3.3,4v9.7h6v-10.1c0-5.8-2.5-9.2-7.4-9.2Z"/>
  <path class="st0" d="M56.4,51.4c-.5,0-1-.4-1-.9,0,0,0,0,0,0v-26.1c0-.5.4-1,.9-1,0,0,0,0,0,0h3.7c.3,0,.6,0,.9.3.1.1.3.3.4.4l10.7,16.8v-16.5c0-.3,0-.5.3-.7.2-.2.4-.3.7-.3h4.1c.5,0,1,.4,1,.9,0,0,0,0,0,0v26.1c0,.3,0,.5-.3.7-.2.2-.5.3-.7.3h-3.7c-.3,0-.6,0-.9-.3-.2-.2-.3-.3-.4-.4l-10.7-16.2v16c0,.5-.4,1-.9,1,0,0,0,0,0,0h-4.1ZM92.9,51.8c-2.7.1-5.3-.8-7.3-2.6-1.9-2-3-4.7-2.9-7.5v-1.7c0-1.9.5-3.7,1.4-5.3.8-1.5,2-2.7,3.5-3.4,1.6-.8,3.4-1.2,5.3-1.2,2,0,3.9.4,5.7,1.4,1.5.9,2.7,2.2,3.4,3.8.8,1.7,1.2,3.6,1.1,5.5v.9c0,.3-.1.5-.3.7-.2.2-.4.3-.7.3h-13.2v.3c0,.8.2,1.6.5,2.4.3.7.7,1.3,1.3,1.7.6.4,1.3.7,2.1.6.6,0,1.1,0,1.6-.3.4-.2.8-.4,1.1-.7.2-.2.4-.4.6-.7.2-.2.4-.4.6-.5.2,0,.5-.1.7-.1h4.2c.2,0,.5,0,.7.2.2.2.3.4.2.6,0,.6-.3,1.1-.7,1.6-.5.7-1.1,1.3-1.8,1.8-.9.7-1.9,1.2-3,1.5-1.3.4-2.7.6-4.1.6ZM88.9,38.9h7.9c0-.9-.1-1.8-.5-2.6-.3-.7-.7-1.3-1.3-1.7-1.3-.8-3-.8-4.3,0-.6.4-1.1,1-1.3,1.7-.3.8-.5,1.7-.5,2.5h0ZM117.1,51.4c-1.5,0-2.9-.2-4.3-.8-1.2-.5-2.1-1.4-2.7-2.6-.6-1.4-1-2.8-.9-4.3v-8.4h-3.1c-.5,0-1-.4-1-.9,0,0,0,0,0,0v-2.7c0-.5.4-1,.9-1,0,0,0,0,0,0h3.1v-6.6c0-.3.1-.5.3-.7.2-.2.4-.3.7-.3h3.9c.5,0,1,.4,1,.9,0,0,0,0,0,0v6.6h5c.3,0,.5,0,.7.3.2.2.3.5.3.7v2.7c0,.3,0,.5-.3.7-.2.2-.4.3-.7.3h-5v8c0,.8.1,1.7.5,2.4.4.6,1.2.9,1.9.9h2.9c.5,0,1,.4,1,1h0v3c0,.3,0,.5-.3.7-.2.2-.4.3-.7.3h-3.5ZM128.4,51.4c-.5,0-1-.4-1-.9,0,0,0,0,0,0v-15.2h-3.1c-.5,0-1-.4-1-.9,0,0,0,0,0,0v-2.7c0-.5.4-1,.9-1,0,0,0,0,0,0h3.1v-1.4c0-1.5.3-2.9,1-4.2.6-1.1,1.6-1.9,2.8-2.4,1.5-.5,3-.8,4.5-.8h2.5c.3,0,.5,0,.7.3.2.2.3.5.3.7v2.7c0,.3,0,.5-.3.7-.2.2-.4.3-.7.3h-2.3c-.8,0-1.5.2-2.1.7-.4.6-.6,1.4-.6,2.1v1.2h8.1v-7.9c0-.3,0-.5.3-.7.2-.2.4-.3.7-.3h3.9c.5,0,1,.4,1,.9,0,0,0,0,0,0v27.8c0,.5-.4,1-.9,1,0,0,0,0,0,0h-3.9c-.3,0-.5,0-.7-.3-.2-.2-.3-.5-.3-.7v-15.2h-8.1v15.2c0,.3,0,.5-.3.7-.2.2-.4.3-.7.3h-3.9ZM154.5,51.4c-.3,0-.5,0-.7-.3-.2-.2-.3-.5-.3-.7v-18.9c0-.3,0-.5.3-.7.2-.2.4-.3.7-.3h4c.5,0,1,.4,1,.9,0,0,0,0,0,0v18.9c0,.5-.4,1-.9,1,0,0,0,0,0,0h-4ZM154.3,27.2c-.3,0-.5,0-.7-.3-.2-.2-.3-.5-.3-.7v-3.2c0-.3,0-.5.3-.7.2-.2.4-.3.7-.3h4.2c.6,0,1,.4,1,1h0v3.2c0,.3-.1.5-.3.7-.2.2-.5.3-.7.3h-4.2ZM163.6,51.4c-.5,0-.9-.4-.9-.9,0-.1,0-.2,0-.3,0-.1.1-.2.2-.3l6.8-9.2-6.2-8.6c0,0-.1-.2-.2-.3,0-.1,0-.2,0-.3,0-.5.4-.9.9-.9h4.2c.3,0,.5,0,.7.2.1.1.3.3.4.4l4.1,5.6,4.1-5.6c.1-.1.2-.3.4-.5.2-.2.5-.3.8-.3h4c.5,0,.9.4.9.9,0,.1,0,.2,0,.3,0,.1-.1.2-.2.3l-6.4,8.7,6.9,9.2c0,0,.1.2.2.3,0,.1,0,.2,0,.3,0,.5-.4.9-.9.9h-4.4c-.2,0-.5,0-.7-.2-.1-.1-.3-.3-.4-.4l-4.5-6-4.5,6c-.1.1-.2.3-.4.4-.2.2-.5.3-.7.2h-4.3Z"/>
  <path class="st1" d="M768.5,398.3l-4.4-12.1h-2.7v12.1h-4.7v-28.5h8.1c1.1,0,2.2.1,3.3.5,1,.3,1.8.8,2.6,1.5.7.7,1.3,1.6,1.7,2.5.4,1.2.6,2.4.6,3.7,0,1-.1,2-.4,2.9-.2.8-.6,1.5-1.1,2.2-.4.6-.9,1-1.4,1.4-.5.3-1,.6-1.5.7l5.1,13.1h-5.1ZM768.2,378.2c0-.7,0-1.5-.4-2.1-.2-.5-.5-1-.9-1.3-.4-.3-.8-.6-1.3-.7-.5-.1-1-.2-1.4-.2h-2.7v8.8h2.7c1.1,0,2.1-.4,2.9-1.1.8-.9,1.2-2.1,1.1-3.3ZM780.2,389.2c0,.8,0,1.5.2,2.3.1.6.4,1.3.7,1.8.3.5.7.9,1.1,1.2.5.3,1,.5,1.5.5.7,0,1.5-.3,2-.8.5-.5.9-1.2,1.2-1.8l3.3,1.9c-.5,1.3-1.4,2.5-2.5,3.4-1.2.9-2.7,1.3-4.2,1.3-2.3,0-4.4-1-5.8-2.8-1.6-2.4-2.4-5.2-2.2-8.1,0-1.5.2-3,.6-4.5.3-1.2.9-2.4,1.6-3.5.6-.9,1.5-1.7,2.5-2.2,2.1-1.1,4.5-1,6.6,0,.9.5,1.7,1.3,2.2,2.2.6,1,1,2.1,1.3,3.3.3,1.4.4,2.7.4,4.1v1.7h-10.7ZM786.5,385.9c0-1.3-.2-2.6-.7-3.7-.4-.9-1.3-1.5-2.3-1.4-.5,0-1.1.2-1.5.5-.4.4-.8.8-1,1.3-.5,1-.8,2.2-.8,3.3h6.3ZM803.7,398.3l-3.2-7.5-3.3,7.5h-5l5.3-10.7-4.8-9.8h4.9l2.9,6.7,2.8-6.7h4.9l-4.8,9.8,5.2,10.7h-5ZM816.2,377.8v3.3h0c.4-1.1,1-2,1.9-2.8,1.9-1.8,4.9-1.7,6.7.2.3.4.6.8.8,1.2.4.8.7,1.7.8,2.7.1,1,.2,2,.2,3.1v12.9h-4.5v-12.9c0-.5,0-1,0-1.5,0-.5-.2-1-.3-1.4-.2-.4-.4-.8-.8-1-.4-.3-.8-.4-1.3-.4-1,0-2,.6-2.4,1.5-.6,1.2-1,2.5-.9,3.9v11.9h-4.6v-20.5h4.5ZM846.5,388.1c0,1.5-.2,3-.5,4.4-.3,1.2-.8,2.4-1.6,3.4-.6.9-1.5,1.7-2.5,2.2-2.1,1.1-4.5,1.1-6.6,0-1-.6-1.8-1.3-2.5-2.2-.7-1-1.3-2.2-1.6-3.4-.4-1.4-.6-2.9-.5-4.4,0-1.5.2-3,.5-4.5.3-1.2.8-2.4,1.5-3.5.6-.9,1.5-1.7,2.5-2.2,1-.5,2.2-.8,3.3-.8,1.1,0,2.3.2,3.3.8,1,.5,1.8,1.3,2.5,2.2.7,1.1,1.3,2.2,1.6,3.5.4,1.5.6,3,.5,4.5ZM842,388c0-.9,0-1.8-.2-2.8-.1-.8-.3-1.5-.6-2.2-.2-.6-.6-1.1-1-1.5-.9-.7-2.1-.7-3,0-.5.4-.8.9-1,1.5-.3.7-.5,1.5-.6,2.2-.3,1.8-.3,3.7,0,5.5.1.8.3,1.5.6,2.2.2.6.6,1.1,1,1.5.4.4,1,.6,1.5.5.6,0,1.1-.2,1.5-.5.5-.4.8-.9,1-1.5.3-.7.5-1.5.6-2.2.1-.9.2-1.8.2-2.7ZM855.4,381.7c.2-1.3.8-2.5,1.6-3.5.7-.7,1.6-1.2,2.7-1.2h.3c.1,0,.2,0,.3,0l-.2,4.7c-.3,0-.6-.1-1-.1-.6,0-1.1.2-1.6.5-.5.4-.9.9-1.2,1.4-.3.6-.6,1.3-.7,2-.2.8-.2,1.5-.2,2.3v10.3h-4.6v-20.5h4.5v3.9h0ZM873,398.3v-2.9h0c-.3,1-.8,1.9-1.5,2.6-.8.7-2,1.1-3.1,1-1,0-2-.3-2.8-.8-.9-.6-1.6-1.4-2.1-2.4-.6-1.1-1-2.3-1.3-3.5-.3-1.4-.5-2.9-.4-4.4,0-1.4.1-2.9.4-4.3.2-1.2.7-2.3,1.3-3.4.5-.9,1.2-1.7,2.1-2.2.9-.5,1.9-.8,2.9-.8,1,0,2,.3,2.9.9.8.6,1.3,1.4,1.6,2.4h.1v-12.5h4.5v30.4h-4.4ZM873.1,388c0-.9,0-1.8-.2-2.8-.1-.8-.3-1.5-.6-2.2-.2-.6-.6-1.1-1.1-1.5-.4-.4-1-.5-1.5-.5-.6,0-1.1.2-1.5.5-.5.4-.8.9-1,1.5-.3.7-.5,1.5-.6,2.2-.1.9-.2,1.8-.2,2.8,0,.9,0,1.8.2,2.7.1.8.3,1.5.6,2.2.2.6.6,1.1,1,1.5.9.7,2.2.7,3.1,0,.5-.4.8-.9,1.1-1.5.3-.7.5-1.5.6-2.2.2-.9.2-1.8.2-2.7Z"/>
  <path class="st2" d="M539.6,177c.2.7.7,1.4,1.2,1.9.4.4.8.6,1.3.6v.8c-1.6,0-3.6-.1-6.1-.1s-4.8,0-6.1.1v-.8c.7,0,1.5-.1,2.2-.4.4-.2.7-.6.6-1.1,0-.7-.2-1.3-.5-1.9l-2.4-6.6h-8.8l-1,2.8c-.6,1.4-1,2.9-1.1,4.5,0,.8.3,1.6.9,2.1.8.4,1.7.7,2.7.7v.8c-1.8,0-3.5-.1-5-.1s-2.3,0-3.1.1v-.8c1.3-.2,2.5-1.6,3.5-4.2l9.2-23.5c.3,0,.8,0,1.4,0s1.1,0,1.4,0l9.8,25.2ZM529.6,168.8l-4-10.9-4.2,10.9h8.2ZM562.6,176c0,.9.1,1.9.6,2.7.5.6,1.2.9,2,.8v.8c-.8,0-1.7-.1-2.5-.1-2,0-3.9.1-5.9.6v-3.5c-.7,2.3-2.9,3.8-5.2,3.6-2.3,0-4.6-.9-6-2.8-1.5-1.8-2.2-4.6-2.2-8.3,0-2.1.3-4.1,1.1-6,.7-1.5,1.8-2.8,3.2-3.7,1.4-.8,3-1.3,4.7-1.2,1.6-.1,3.2.4,4.5,1.5v-6.8c0-.9-.1-1.9-.6-2.7-.5-.6-1.2-.9-2-.8v-.8c.9,0,1.7.1,2.5.1,2,0,3.9-.2,5.9-.6v27.1ZM553.2,179.2c.9,0,1.7-.3,2.4-1,.7-.7,1.1-1.6,1.2-2.6v-14.1c-.7-.9-1.8-1.4-2.9-1.4-1.5,0-2.8,1-3.3,2.5-.9,2.3-1.3,4.8-1.1,7.3-.2,2.4.2,4.8.9,7.1.4,1.3,1.5,2.1,2.8,2.2ZM577.2,159.1c2.7-.2,5.3.8,7.2,2.6,1.7,1.8,2.6,4.5,2.6,8.3s-.9,6.6-2.6,8.3c-4.2,3.5-10.3,3.5-14.5,0-1.8-1.7-2.6-4.5-2.6-8.3s.9-6.6,2.6-8.3c1.9-1.8,4.6-2.8,7.2-2.6h0ZM577.2,159.9c-1.2,0-2.1.8-2.8,2.5-.8,2.5-1.1,5.1-1,7.7-.1,2.6.2,5.2,1,7.6.7,1.7,1.6,2.5,2.8,2.5s2.1-.8,2.8-2.5c.8-2.5,1.1-5.1,1-7.7.1-2.6-.2-5.2-1-7.7-.7-1.7-1.6-2.5-2.7-2.5h0ZM603.4,159.1c2.1,0,4.1,1,5.3,2.7,1.5,2.3,2.2,5,2,7.7,0,3.9-.9,6.8-2.6,8.7-1.7,1.9-4.1,2.9-6.6,2.8-1.6,0-3.2-.4-4.5-1.4-1,0-2,0-2.9.3-.8.2-1.6.6-2.3,1.2l-.6-.4c.2-.7.3-1.5.3-2.3v-24.7c0-.9-.1-1.9-.6-2.7-.5-.6-1.2-.9-2-.8v-.8c.8,0,1.7.1,2.5.1,2,0,3.9-.2,5.9-.6v13.9c.5-1.2,1.4-2.2,2.5-2.8,1.1-.7,2.4-1,3.7-1h0ZM600.2,180.1c1.5,0,2.9-1,3.3-2.5.8-2.4,1.2-5,1.1-7.6.1-2.4-.2-4.8-.9-7.1-.6-1.4-1.5-2.2-2.7-2.2-.9,0-1.7.3-2.4.9-.7.7-1.2,1.6-1.4,2.6v14.8c.8.7,1.9,1.1,3,1.1h0ZM625,177.7c2.2,0,4.3-1.3,5.3-3.2l.7.2c-.5,1.7-1.5,3.3-2.9,4.4-1.4,1.2-3.3,1.9-5.2,1.8-2.5.1-5-.9-6.8-2.7-1.7-1.8-2.5-4.5-2.5-8s.9-6.4,2.7-8.3c1.9-1.9,4.5-3,7.2-2.9,5,0,7.6,3,7.6,8.9h-11.3c0,.4,0,1,0,1.9,0,1.5.2,3,.7,4.4.4,1,1.1,1.9,1.9,2.6.7.5,1.6.8,2.6.8h0ZM623.3,159.9c-1.1,0-2,.8-2.4,1.8-.8,1.7-1.2,3.6-1.2,5.5h6.3c0-1.8-.1-3.5-.6-5.2-.5-1.4-1.2-2.1-2.1-2.1Z"/>
  <path class="st2" d="M256.9,171.6h3.7l.4-23.7,5.5,23.7h2.6l5.5-23.7.4,23.7h3.7l-.6-32.6h-4.4l-5.8,26.4-5.8-26.4h-4.5l-.6,32.6ZM283.4,144.9h4.3v-4.5h-4.3v4.5ZM283.4,171.6h4.3v-23.3h-4.3v23.3ZM298.7,171.9c5,0,6.4-2.8,6.4-7.5v-1.6h-3.9v1.9c0,2.4-.2,4-2.4,4s-2.6-1-2.6-5v-7.3c0-3.9.4-5.2,2.5-5.2s2.4,1.1,2.4,4.1v1.4h3.9v-1.4c0-4.8-1.3-7.3-6.4-7.3s-6.8,3.5-6.8,9.3v5.4c0,5.6,1.1,9.2,6.8,9.2ZM309,171.6h4.3v-17c.6-1.4,2-2.3,3.5-2.3.8,0,1.6.2,2.4.5v-4.7c-.2,0-.5,0-.7,0-1.7,0-3.5.8-5.2,3.6v-3.3h-4.3v23.3ZM328.2,171.9c5.2,0,6.8-3.3,6.8-8.6v-6.8c0-5.2-1.6-8.6-6.8-8.6s-6.8,3.3-6.8,8.6v6.8c0,5.2,1.6,8.6,6.8,8.6ZM328.2,168.8c-2.5,0-2.5-2.5-2.5-5.1v-7.3c0-2.6,0-5.2,2.5-5.2s2.5,2.5,2.5,5.2v7.3c0,2.6,0,5.1-2.5,5.1ZM344.3,171.9c3.8,0,6.4-2,6.4-6s-1.6-4.7-3.3-6.3l-4.1-3.8c-.7-.6-1.1-1.4-1.2-2.3,0-1.2.9-2.3,2.1-2.4,0,0,0,0,.1,0,1.9,0,2.5,1.6,2.9,4l2.9-1.1c-.3-3.4-2.2-6.1-5.9-6.1s-6,2.1-6,5.7c0,2.2,1,4.4,2.9,5.7l4,3.4c1.1.8,1.9,2.1,1.9,3.5.1,1.2-.7,2.3-2,2.4-.1,0-.3,0-.4,0-2,0-2.9-1.4-3.3-4.4l-3.6,1.1c.3,3.9,2.7,6.5,6.6,6.5ZM360.4,171.9c5.2,0,6.8-3.3,6.8-8.6v-6.8c0-5.2-1.6-8.6-6.8-8.6s-6.8,3.3-6.8,8.6v6.8c0,5.2,1.6,8.6,6.8,8.6ZM360.4,168.8c-2.5,0-2.5-2.5-2.5-5.1v-7.3c0-2.6,0-5.2,2.5-5.2s2.5,2.5,2.5,5.2v7.3c0,2.6,0,5.1-2.5,5.1ZM372.4,171.6h4.3v-20.1h3.5v-3.2h-3.5v-1.9c0-1.8.2-3,1.9-3,.5,0,1.1,0,1.6.2v-3.1c-.9-.2-1.9-.3-2.8-.3-4.4,0-5,2.7-5,7v1.2h-2.8v3.2h2.8v20.1ZM388.8,171.9c1,0,2,0,3-.2v-3.2c-.5,0-1,.1-1.6.1-1.7,0-2.1-.7-2.1-2.5v-14.9h3.7v-2.9h-3.7v-6.8h-4.3v6.8h-2.5v2.9h2.5v15.2c0,3.4,1.4,5.6,5,5.6Z"/>
  <path class="st2" d="M67.2,289.5c-2,0-3.9-.4-5.7-1.2-1.7-.8-3.2-1.9-4.4-3.3-2.5-2.8-3.8-6.3-3.8-10,0-1.9.4-3.7,1.1-5.5.7-1.7,1.7-3.3,2.9-4.6,1.3-1.3,2.8-2.4,4.4-3.2,1.8-.8,3.7-1.2,5.6-1.2,2,0,3.9.4,5.7,1.3,1.7.8,3.1,1.9,4.4,3.3,1.2,1.4,2.2,3,2.8,4.7.7,1.7,1,3.5,1,5.3,0,1.9-.3,3.7-1,5.5-.7,1.7-1.7,3.2-2.9,4.6-1.3,1.3-2.8,2.4-4.4,3.2-1.8.8-3.7,1.2-5.6,1.2ZM59,275.1c0,1.2.2,2.4.6,3.6.4,1.1.9,2.1,1.6,3.1.7.9,1.6,1.6,2.6,2.1,2.2,1.1,4.8,1.1,7.1,0,1-.5,1.9-1.3,2.6-2.2.7-.9,1.3-2,1.6-3.1.4-1.1.5-2.3.5-3.5,0-1.2-.2-2.4-.6-3.6-.4-1.1-.9-2.1-1.7-3.1-.7-.9-1.6-1.6-2.6-2.1-2.2-1.1-4.8-1-7.1,0-1,.5-1.9,1.3-2.6,2.2-.7.9-1.2,2-1.6,3.1-.4,1.1-.5,2.3-.5,3.5ZM97.5,272.9c-1.5,0-3,.3-4.4,1-1.2.5-2.2,1.5-2.8,2.7v12.7h-5.4v-21.1h5v4.5c.4-.7.8-1.4,1.3-2,.5-.6,1-1.1,1.6-1.5.6-.4,1.2-.7,1.8-1,.6-.2,1.2-.3,1.8-.3h.7c.1,0,.3,0,.4,0v4.9ZM106,289.8c-1,0-1.9-.2-2.9-.5-.8-.3-1.6-.8-2.3-1.4-.6-.6-1.2-1.3-1.5-2.1-.4-.8-.6-1.7-.5-2.7,0-1,.2-1.9.7-2.8.4-.9,1.1-1.6,1.8-2.2.9-.6,1.8-1.1,2.8-1.4,1.2-.3,2.4-.5,3.6-.5.9,0,1.8,0,2.8.2.8.1,1.6.4,2.4.7v-1.2c0-1.2-.4-2.4-1.2-3.2-1-.8-2.2-1.2-3.5-1.1-1.1,0-2.2.2-3.3.6-1.2.5-2.3,1-3.3,1.8l-1.6-3.4c2.6-1.8,5.6-2.7,8.8-2.7,2.5-.2,5.1.6,7.1,2.2,1.8,1.7,2.7,4,2.5,6.5v6.6c0,.4,0,.8.3,1.2.3.3.6.4,1,.4v4.6c-.8.2-1.6.3-2.4.3-.8,0-1.7-.2-2.3-.7-.6-.5-.9-1.1-1-1.8v-1.2c-1,1.2-2.2,2.2-3.5,2.8-1.3.6-2.8,1-4.3,1ZM107.5,285.8c.9,0,1.8-.2,2.6-.5.7-.3,1.4-.7,1.9-1.3.5-.3.8-.9.9-1.5v-2.4c-.7-.3-1.4-.4-2.1-.6-.7-.1-1.4-.2-2.2-.2-1.2,0-2.4.3-3.4.9-.8.5-1.3,1.4-1.3,2.4,0,.9.4,1.7,1,2.3.7.6,1.6.9,2.6.9ZM122,278.8c0-1.4.3-2.8.8-4.2.5-1.3,1.2-2.5,2.2-3.5,1-1,2.2-1.8,3.5-2.4,1.5-.6,3-.9,4.6-.9,2.1,0,4.1.4,5.9,1.5,1.6.9,2.8,2.3,3.6,3.9l-5.3,1.6c-.4-.8-1.1-1.4-1.8-1.8-.8-.4-1.6-.6-2.5-.6-.7,0-1.5.2-2.2.5-.7.3-1.3.7-1.8,1.3-.5.6-.9,1.3-1.2,2-.3.8-.4,1.7-.4,2.6,0,.9.1,1.8.4,2.6.3.7.7,1.4,1.2,2,.5.6,1.1,1,1.8,1.3.7.3,1.4.5,2.1.5.9,0,1.9-.2,2.7-.7.7-.4,1.3-1,1.7-1.8l5.3,1.6c-.8,1.6-2,3-3.6,3.9-1.8,1.1-3.9,1.6-6,1.5-1.6,0-3.2-.3-4.6-.9-2.6-1.1-4.7-3.2-5.7-5.9-.5-1.3-.8-2.7-.8-4.2ZM146,260h5.4v22.6c0,.7.2,1.3.6,1.8.4.4,1,.7,1.6.6.4,0,.7,0,1.1-.2.4-.1.7-.2,1.1-.4l.7,4.1c-.8.4-1.7.6-2.5.8-.9.2-1.7.3-2.6.3-1.4,0-2.8-.4-3.9-1.3-1-1-1.5-2.4-1.4-3.8v-24.5ZM168.5,289.8c-1.6,0-3.1-.3-4.6-.9-2.6-1.1-4.7-3.2-5.7-5.8-.5-1.3-.8-2.7-.8-4.1,0-1.4.3-2.9.8-4.2.5-1.3,1.2-2.5,2.2-3.5,1-1,2.2-1.8,3.5-2.4,1.5-.6,3.1-.9,4.7-.9,1.6,0,3.1.3,4.6.9,1.3.6,2.5,1.4,3.5,2.4,1,1,1.7,2.2,2.2,3.5.5,1.3.7,2.7.7,4.1,0,.3,0,.7,0,1,0,.3,0,.5-.1.8h-16.3c0,.8.3,1.5.6,2.2.6,1.2,1.7,2.2,3,2.7.6.2,1.3.4,2,.4,1.1,0,2.1-.3,3-.8.9-.4,1.6-1.2,2-2.1l4.6,1.3c-.8,1.7-2.1,3-3.7,4-1.8,1.1-4,1.6-6.1,1.5ZM174,277c0-1.4-.7-2.8-1.7-3.8-2.1-1.9-5.4-1.9-7.5,0-.5.5-.9,1-1.2,1.6-.3.7-.5,1.4-.5,2.1h10.9Z"/>
  <path class="st2" d="M400.1,40v11.1c-1.4,1-3,1.8-4.6,2.3-1.8.5-3.6.8-5.4.8-2.1,0-4.3-.3-6.3-1.1-1.8-.7-3.4-1.7-4.8-3-1.3-1.3-2.4-2.9-3-4.7-.7-1.9-1.1-3.9-1.1-6,0-2.1.3-4.1,1-6,.6-1.7,1.7-3.3,2.9-4.7,1.3-1.3,2.9-2.3,4.7-3,2-.7,4-1.1,6.1-1.1,1.1,0,2.1,0,3.2.3.9.2,1.8.4,2.7.7.8.3,1.6.7,2.3,1.1.7.4,1.4,1,2,1.5l-1.1,1.8c-.2.3-.4.4-.7.5-.3,0-.6,0-.9-.2-.3-.2-.7-.4-1.1-.7-.5-.3-1-.6-1.5-.8-.7-.3-1.4-.5-2.1-.6-1-.2-1.9-.3-2.9-.3-1.5,0-3,.2-4.4.8-1.3.5-2.4,1.3-3.4,2.3-1,1-1.7,2.3-2.1,3.6-.5,1.5-.8,3.1-.7,4.7,0,1.7.2,3.3.8,4.9.5,1.4,1.2,2.6,2.2,3.6,1,1,2.2,1.8,3.5,2.3,2.6.9,5.5,1,8.2.3,1.1-.3,2.1-.7,3-1.3v-6.3h-4.5c-.2,0-.4,0-.6-.2-.2-.1-.2-.3-.2-.5v-2.2h8.9ZM413.5,33.2c1.4,0,2.7.2,4,.7,1.2.5,2.2,1.2,3.1,2.1.9,1,1.5,2.1,1.9,3.3.5,1.4.7,2.9.7,4.3,0,1.5-.2,2.9-.7,4.3-.4,1.2-1.1,2.3-1.9,3.3-.9.9-1.9,1.6-3.1,2.1-1.3.5-2.6.8-4,.7-1.4,0-2.8-.2-4.1-.7-1.2-.5-2.2-1.2-3.1-2.1-.9-1-1.5-2.1-1.9-3.3-.5-1.4-.7-2.9-.7-4.3,0-1.5.2-2.9.7-4.3.4-1.2,1.1-2.4,1.9-3.3.9-.9,1.9-1.6,3.1-2.1,1.3-.5,2.7-.8,4.1-.7ZM413.5,51.4c1.7.1,3.4-.6,4.5-2,1.1-1.7,1.6-3.7,1.5-5.6.1-2-.4-4-1.5-5.7-1.1-1.4-2.8-2.2-4.5-2-.9,0-1.8.2-2.7.5-.7.3-1.4.9-1.9,1.5-.5.7-.9,1.5-1.1,2.4-.3,1.1-.4,2.2-.4,3.2-.1,2,.4,4,1.5,5.6,1.1,1.4,2.8,2.2,4.6,2ZM436.3,33.2c1.4,0,2.7.2,4,.7,1.2.5,2.2,1.2,3.1,2.1.9,1,1.5,2.1,1.9,3.3.5,1.4.7,2.9.7,4.3,0,1.5-.2,2.9-.7,4.3-.4,1.2-1.1,2.3-1.9,3.3-.9.9-1.9,1.6-3.1,2.1-1.3.5-2.6.8-4,.7-1.4,0-2.8-.2-4.1-.7-1.2-.5-2.2-1.2-3.1-2.1-.9-1-1.5-2.1-1.9-3.3-.5-1.4-.7-2.9-.7-4.3,0-1.5.2-2.9.7-4.3.4-1.2,1.1-2.4,1.9-3.3.9-.9,1.9-1.6,3.1-2.1,1.3-.5,2.7-.8,4.1-.7ZM436.3,51.4c1.7.1,3.4-.6,4.5-2,1.1-1.7,1.6-3.7,1.5-5.6.1-2-.4-4-1.5-5.7-1.1-1.4-2.8-2.2-4.5-2-.9,0-1.8.2-2.7.5-.7.3-1.4.9-1.9,1.5-.5.7-.9,1.5-1.1,2.4-.3,1.1-.4,2.2-.4,3.2-.1,2,.4,4,1.5,5.6,1.1,1.4,2.8,2.1,4.6,2ZM457.6,43.9c.6,0,1.3,0,1.9-.3.5-.2,1-.5,1.4-.8.4-.4.7-.8.8-1.3.2-.5.3-1.1.3-1.7,0-1.1-.4-2.2-1.1-3-2-1.5-4.6-1.5-6.6,0-.8.8-1.2,1.9-1.1,3,0,.6,0,1.1.3,1.7.2.5.5.9.9,1.3.4.4.9.7,1.4.8.6.2,1.3.3,1.9.3ZM464,55c0-.4-.1-.9-.4-1.2-.3-.3-.7-.6-1.1-.7-.5-.2-1.1-.3-1.7-.4-.6,0-1.3-.1-2-.2h-2.1c-.7-.2-1.4-.2-2.1-.3-.7.3-1.3.8-1.8,1.3-.5.5-.7,1.2-.7,1.9,0,.4.1.9.4,1.3.3.4.6.8,1.1,1,.6.3,1.2.6,1.8.7,1.7.3,3.5.3,5.2,0,.7-.1,1.3-.4,1.9-.7.5-.3.9-.7,1.2-1.1.3-.4.4-.9.4-1.5ZM467.7,34.3v1.3c0,.4-.3.7-.8.8l-2.3.3c.9,1.8.9,3.8.1,5.6-.4.8-.9,1.5-1.6,2.1-.7.6-1.5,1-2.4,1.3-1,.3-2,.5-3.1.5-.9,0-1.8-.1-2.7-.3-.4.2-.7.5-1,.9-.2.3-.3.6-.3.9,0,.4.2.9.6,1.1.5.3,1,.5,1.6.5.7.1,1.5.2,2.2.2.8,0,1.7,0,2.5.1.8,0,1.7.2,2.5.3.8.1,1.5.4,2.2.7.6.3,1.2.8,1.6,1.4.4.7.6,1.5.6,2.3,0,.9-.2,1.8-.7,2.5-.5.9-1.1,1.6-1.9,2.2-.9.7-1.9,1.2-3,1.5-1.3.4-2.7.6-4,.6-1.3,0-2.6-.1-3.9-.4-1-.2-1.9-.6-2.8-1.2-.7-.4-1.2-1-1.7-1.7-.4-.6-.6-1.3-.6-2,0-.9.3-1.9.9-2.6.7-.8,1.6-1.3,2.6-1.7-.6-.2-1.1-.6-1.4-1.1-.5-.8-.7-1.8-.4-2.7.1-.3.3-.7.5-.9.2-.3.5-.6.8-.9.3-.3.7-.5,1.1-.7-1-.5-1.8-1.3-2.4-2.2-.6-1-.9-2.1-.8-3.2,0-.9.2-1.9.6-2.7.4-.8.9-1.5,1.6-2.1.7-.6,1.6-1,2.4-1.3,1.8-.6,3.7-.6,5.6-.2.7.2,1.4.5,2.1.9h5.5ZM475.1,24.3v29.6h-3.6v-29.6h3.6ZM494.5,41.5c0-.8-.1-1.5-.4-2.3-.2-.7-.6-1.3-1-1.8-.5-.5-1-.9-1.6-1.2-2.1-.8-4.5-.4-6.3,1.1-1.1,1.1-1.7,2.6-1.9,4.1h11.1ZM497.4,51c-.5.5-1,1-1.6,1.4-.6.4-1.3.7-2,1-.7.3-1.4.4-2.2.6-.7.1-1.5.2-2.2.2-1.3,0-2.7-.2-3.9-.7-1.2-.5-2.2-1.2-3.1-2.1-.9-1-1.6-2.1-2-3.4-.5-1.5-.8-3.1-.7-4.7,0-1.4.2-2.7.7-4,.4-1.2,1-2.3,1.9-3.2.8-.9,1.9-1.6,3-2.1,1.3-.5,2.6-.8,4-.8,1.2,0,2.3.2,3.4.6,1,.4,1.9,1,2.7,1.8.8.8,1.4,1.8,1.8,2.9.4,1.2.7,2.6.6,3.9,0,.4,0,.8-.2,1.1-.2.2-.4.3-.7.3h-13.6c0,1.1.2,2.3.5,3.4.3.9.7,1.7,1.3,2.4.5.6,1.2,1.1,2,1.4.8.3,1.7.5,2.6.5.8,0,1.6,0,2.3-.3.6-.2,1.1-.4,1.7-.7.4-.2.8-.4,1.2-.7.2-.2.5-.3.8-.3.3,0,.5.1.7.3l1,1.3Z"/>
  <path class="st0" d="M668.8,295.4c-.5,3-1.4,5.1-2.8,6.3-.7.5-1.4.9-2.2,1.1-1,.3-2,.4-3,.4-1.5,0-2.9-.2-4.3-.7-1.4-.5-3.1-1.1-5.2-2.1l-1.7-.7c-.6-.3-1.3-.5-2-.8l-1-.3c-1,.5-2.2.8-3.4.8-.5,0-.9,0-1.4-.3-.3-.1-.5-.4-.5-.8,0-.7.7-1.1,2.2-1.1,1,0,2.1.2,3.1.6,1-.3,2-.7,2.9-1.1.2,0,.5-.2.8-.3.4-.1.7-.3,1-.4-2.3-.2-4.6-.9-6.5-2.2-1.9-1.2-3.4-2.9-4.3-5-1-2.3-1.6-4.8-1.5-7.3,0-2.7.6-5.4,1.8-7.8,1.1-2.2,2.9-4.1,5.1-5.3,2.2-1.3,4.8-1.9,7.4-1.9,2.6,0,5.2.5,7.5,1.7,2.1,1.1,3.8,2.9,5,5,1.2,2.4,1.8,5.1,1.8,7.8,0,2.6-.5,5.3-1.7,7.6-1.1,2.2-2.7,4-4.7,5.3-2.1,1.3-4.5,2-7,2.1-.6,0-1.2.2-1.7.4-.5.2-1.1.4-1.8.7-.8.4-1.6.7-2.5.9l3.3.3c3.4.3,5.9.4,7.4.4,1,0,2,0,3-.2,1.4-.1,2.7-.5,3.9-1.1,1-.6,1.8-1.4,2.4-2.4l.7.2ZM645.7,281.5c0,2.5.3,5,1,7.4.5,1.8,1.5,3.5,2.8,4.9,1,1.1,2.4,1.7,3.9,1.7,1.5,0,2.9-.7,3.9-1.8,1.3-1.4,2.1-3.2,2.6-5,.6-2.4.9-4.9.9-7.4,0-2.5-.3-5-1-7.4-.5-1.8-1.5-3.5-2.8-4.9-1-1.1-2.4-1.7-3.9-1.7-1.5,0-2.9.7-3.9,1.8-1.3,1.4-2.1,3.2-2.6,5-.6,2.4-.9,4.9-.9,7.4ZM690.2,291.2c0,.9.1,1.9.6,2.7.5.6,1.2.9,2,.8v.8c-.8,0-1.7-.1-2.5-.1-2,0-3.9.2-5.9.6v-3.6c-1.2,2.5-3.7,4-6.5,3.7-1.6.1-3.2-.4-4.4-1.6-.5-.6-.8-1.3-.9-2-.2-1.1-.3-2.2-.3-3.2v-10.2c0-.9-.1-1.9-.6-2.7-.5-.6-1.2-.9-2-.8v-.8c.8,0,1.7.1,2.5.1,2,0,3.9-.2,5.9-.6v16.7c0,.9.1,1.7.5,2.5.4.6,1.2.9,1.9.8,1.1,0,2.1-.5,2.8-1.3.8-.9,1.2-2.1,1.1-3.3v-10.5c0-.9-.1-1.9-.6-2.7-.5-.6-1.2-.9-2-.8v-.8c.9,0,1.7.1,2.5.1,2,0,3.9-.2,5.9-.6v16.8ZM699.9,295.9c-1.4.1-2.8-.4-3.8-1.3-.9-1-1.3-2.2-1.3-3.5,0-1.1.3-2.1.9-3,.6-.8,1.4-1.4,2.3-1.8,1.1-.5,2.3-1,3.4-1.4,1.1-.4,2.2-.8,3.2-1.4.6-.3,1-1,1-1.7v-3.1c0-.9-.2-1.9-.8-2.6-.6-.7-1.5-1-2.4-.9-1.1,0-2.1.3-2.9,1,.7.2,1.3.6,1.8,1.2.4.5.6,1.2.6,1.9,0,.8-.3,1.6-.9,2.2-.6.5-1.4.8-2.3.8-.8,0-1.6-.3-2.2-.9-.9-1.2-1-2.8-.2-4.1.4-.6,1-1.1,1.7-1.5.8-.5,1.7-.8,2.7-1,1.1-.3,2.3-.4,3.5-.4,1.2,0,2.3.1,3.4.4.9.2,1.7.7,2.4,1.4.6.6,1,1.4,1.2,2.2.2,1.2.3,2.3.3,3.5v10.9c0,.5,0,.9.2,1.4.1.3.4.4.7.4.5,0,1.1-.3,1.4-.7l.4.7c-1.3,1-2.8,1.5-4.4,1.5-1.1.1-2.2-.2-3.1-.9-.6-.6-.9-1.5-.9-2.4-1.2,2.1-3.5,3.3-5.9,3.2ZM703,293.3c1.1,0,2.2-.7,2.7-1.6v-8.3c-.5.7-1.2,1.3-2.1,1.8-.9.5-1.7,1.2-2.4,2-.6.8-.9,1.9-.8,2.9,0,.9.2,1.7.7,2.4.5.5,1.1.8,1.8.8ZM723.6,291.9c0,.8.1,1.6.6,2.3.6.5,1.3.7,2,.6v.8c-2.8-.1-4.6-.2-5.4-.2s-2.8,0-5.6.2v-.8c.7,0,1.4-.2,2-.6.5-.7.7-1.5.6-2.3v-22.9c0-.9-.1-1.9-.6-2.7-.5-.6-1.2-.9-2-.8v-.8c.9,0,1.7.1,2.5.1,2,0,3.9-.2,5.9-.6v27.7ZM738,274.3c.9,0,1.9.1,2.8.3.8.2,1.5.5,2.2.9.7.4,1.2,1,1.6,1.6.4.7.6,1.4.6,2.2,0,.9-.3,1.7-.9,2.3-.6.6-1.4.9-2.3.9-.8,0-1.6-.2-2.3-.8-.6-.6-.9-1.4-.8-2.2,0-.8.3-1.5.8-2.1.5-.6,1.2-1,1.9-1.2-.3-.3-.6-.6-1-.7-.5-.2-.9-.3-1.4-.3-1.7,0-3.2,1.1-3.8,2.6-1,2.2-1.4,4.5-1.3,6.9,0,2.9.5,4.9,1.5,6.2.9,1.2,2.3,1.9,3.8,1.9,1,0,1.9-.3,2.8-.7,1-.6,1.9-1.5,2.5-2.5l.7.2c-.5,1.7-1.5,3.3-2.8,4.5-1.4,1.3-3.3,1.9-5.2,1.9-2.5,0-5-.9-6.8-2.7-1.8-1.8-2.6-4.5-2.6-8.1,0-2.1.4-4.2,1.3-6,.8-1.6,2-2.9,3.5-3.8,1.6-.9,3.4-1.3,5.2-1.3ZM757.8,274.3c2.7-.2,5.3.8,7.2,2.6,1.7,1.8,2.6,4.5,2.6,8.3s-.9,6.6-2.6,8.3c-4.2,3.5-10.3,3.5-14.5,0-1.8-1.7-2.6-4.5-2.6-8.3s.9-6.6,2.6-8.3c1.9-1.8,4.6-2.8,7.2-2.6ZM757.8,275.1c-1.2,0-2.1.8-2.8,2.5-.8,2.5-1.2,5.1-1,7.7-.1,2.6.2,5.2,1,7.6.7,1.7,1.6,2.5,2.8,2.5s2.1-.8,2.8-2.5c.8-2.5,1.1-5.1,1-7.7.1-2.6-.2-5.2-1-7.7-.7-1.7-1.6-2.5-2.8-2.5ZM802.5,291.9c0,.8.1,1.6.6,2.3.5.5,1.3.7,2,.6v.8c-2.7-.1-4.5-.2-5.3-.2s-2.4,0-5,.2v-.8c.6,0,1.1-.2,1.5-.6.3-.7.5-1.5.4-2.3v-12.5c0-.9-.1-1.7-.5-2.5-.4-.6-1.2-.9-1.9-.8-1,0-2,.5-2.6,1.2-.7.9-1.2,1.9-1.3,3.1v11.5c0,.8,0,1.6.5,2.3.5.5,1.2.7,1.8.6v.8c-2.6-.1-4.3-.2-5.1-.2s-2.4,0-5,.2v-.8c.6,0,1.1-.2,1.5-.6.3-.7.5-1.5.4-2.3v-12.5c0-.9-.1-1.7-.4-2.5-.4-.6-1-.9-1.7-.8-1.1,0-2.1.5-2.8,1.3-.8.9-1.2,2.1-1.1,3.3v11.2c0,.8,0,1.6.4,2.3.4.5.9.7,1.5.6v.8c-2.4-.1-3.9-.2-4.7-.2s-2.7,0-5.6.2v-.8c.7,0,1.5-.1,2-.6.4-.7.6-1.5.6-2.3v-12.7c0-.9-.1-1.9-.6-2.7-.5-.6-1.2-.9-2-.8v-.8c.9,0,1.7.1,2.5.1,2,0,3.9-.1,5.9-.6v3.6c1.1-2.4,3.6-3.9,6.2-3.7,1.6-.2,3.3.4,4.4,1.6.6.7.9,1.5,1,2.4.6-1.3,1.5-2.4,2.7-3.1,1.2-.6,2.6-.9,3.9-.9,1.6-.2,3.3.4,4.4,1.6.5.6.8,1.2.9,2,.2,1.1.3,2.2.3,3.3v10.8ZM838.9,291.9c0,.8.1,1.6.6,2.3.5.5,1.3.7,2,.6v.8c-2.7-.1-4.5-.2-5.3-.2s-2.4,0-5,.2v-.8c.6,0,1.1-.2,1.5-.6.3-.7.5-1.5.4-2.3v-12.5c0-.9-.1-1.7-.5-2.5-.4-.6-1.2-.9-1.9-.8-1,0-2,.5-2.6,1.2-.7.9-1.2,1.9-1.3,3.1v11.5c0,.8,0,1.6.5,2.3.5.5,1.2.7,1.8.6v.8c-2.6-.1-4.3-.2-5.1-.2s-2.4,0-5,.2v-.8c.6,0,1.1-.2,1.5-.6.3-.7.5-1.5.4-2.3v-12.5c0-.9,0-1.7-.4-2.5-.4-.6-1-.9-1.7-.8-1.1,0-2.1.5-2.8,1.3-.8.9-1.2,2.1-1.1,3.3v11.2c0,.8,0,1.6.4,2.3.4.5.9.7,1.5.6v.8c-2.4-.1-3.9-.2-4.7-.2s-2.7,0-5.6.2v-.8c.7,0,1.5-.1,2-.6.4-.7.6-1.5.6-2.3v-12.7c0-.9-.1-1.9-.6-2.7-.5-.6-1.2-.9-2-.8v-.8c.9,0,1.7.1,2.5.1,2,0,3.9-.1,5.9-.6v3.6c1.1-2.4,3.6-3.9,6.2-3.7,1.6-.2,3.3.4,4.4,1.6.6.7.9,1.5,1,2.4.6-1.3,1.5-2.4,2.7-3.1,1.2-.6,2.6-.9,3.9-.9,1.6-.2,3.3.4,4.4,1.6.5.6.8,1.2.9,2,.2,1.1.3,2.2.3,3.3v10.8Z"/>
  <path class="st1" d="M20.2,152.3c.5,0,1.1,0,1.5.3.3.3.5.8.4,1.3,0,.9-.3,1.7-.7,2.5-3.3-1.1-6.7-1.6-10.2-1.5h-1.7c0,1.5-.1,4.6-.1,9.4h9.7c.2.5.3,1.1.3,1.6,0,.3,0,.5-.2.7-.2.2-.5.2-.8.2h-9c0,5.4,0,8.8.1,10.3h3.2c.2.4.2.7.2,1.1,0,.4-.2.8-.6.9-.1,0-.2,0-.3,0H2.8c-.2-.4-.2-.8-.3-1.2,0-.2,0-.4.2-.6.2-.1.4-.2.7-.2h1.5c0-1.8.1-6.5.1-14s0-6.9-.1-8.8h-2.1c-.2-.4-.2-.8-.3-1.2,0-.2,0-.4.2-.6.2-.1.4-.2.7-.2h16.8ZM32.1,176.9c1.3,0,2.6-.6,3.2-1.7.8-1.6,1.1-3.4,1-5.2.1-2.1-.2-4.1-1-6-.7-1.3-2.1-2.1-3.5-2-1.3,0-2.6.6-3.2,1.7-.8,1.6-1.1,3.4-1,5.2-.1,2.1.2,4.1,1,6,.7,1.3,2.1,2.1,3.5,2ZM31.4,179.6c-2.8,0-4.9-.8-6.3-2.3-1.5-1.9-2.2-4.4-2-6.8-.2-2.9.7-5.8,2.4-8.2,1.8-2,4.3-3.1,7-2.9,2.8,0,4.9.8,6.3,2.3,1.3,1.5,2,3.8,2,6.8.2,2.9-.7,5.8-2.4,8.1-1.8,2-4.3,3.1-7,2.9ZM44.3,160.7c0-.3.1-.6.4-.7,1.7-.2,3.5-.3,5.2-.3,0,.8,0,1.6,0,2.4,1.3-.9,2.7-1.6,4.2-2,1.2-.4,2.4-.5,3.7-.6.3,0,.5,0,.7.1.1,0,.2.3.2.6,0,.6,0,1.2-.3,1.8,0,.5-.3.9-.6,1.2-.4.2-.8.3-1.2.4-.3,0-.7.1-1,0-.3-.3-.6-.7-.9-1.1-1.1,0-2.1.4-2.8,1.1-.7.7-1.1,2.2-1.1,4.5,0,4,0,7,.2,9h2.8c.2.3.2.7.2,1.1,0,.3,0,.5-.2.7-.2.2-.5.2-.8.2h-8.3c-.2-.4-.2-.8-.3-1.2,0-.2,0-.5.2-.6.2-.2.5-.2.7-.2h1.4c.1-2,.2-4.5.2-7.7s-.2-6.1-.5-6.7c-.3-.6-1-1-1.7-.9-.2-.4-.3-.7-.3-1.1h0ZM63.2,159.9l1.6-5.6c.5.1,1,.3,1.4.6.4.2.6.5.9.8.3,1.1.4,2.2.3,3.3v.8h6.5c.2.4.2.9.2,1.4,0,.3,0,.5-.2.8-.3.2-.6.2-.9.2h-5.6v9.3c-.1,1.5,0,3,.6,4.4.4.7,1.1,1.1,1.8,1.1,1.1,0,2.1-.3,3-.8.3.4.4.9.4,1.4,0,.7-.5,1.3-1.1,1.4-1.2.3-2.4.4-3.6.4-1.4.1-2.8-.3-3.9-1.1-.8-.7-1.2-2.1-1.2-4.1v-4.6c0-2.5,0-4.9-.2-7.3h-1.9c-.2-.4-.2-.9-.2-1.4,0-.3,0-.5.2-.7.2-.2.5-.3.7-.2h1.3ZM80.5,156.4c-.7,0-1.3-.1-1.9-.5-.4-.4-.6-1-.6-1.5,0-.7.3-1.3.8-1.7.6-.5,1.4-.7,2.2-.6.7,0,1.4.1,2,.6.4.4.6.9.6,1.5,0,.7-.2,1.3-.7,1.7-.7.5-1.5.7-2.3.7h0ZM85.4,177.1c.2.3.3.7.3,1.1,0,.3,0,.5-.2.7-.3.2-.6.2-.8.2h-7.7c-.1-.4-.2-.8-.2-1.2,0-.2,0-.5.2-.6.2-.2.5-.2.7-.2h1.5c0-1.8.1-4,.1-6.4s0-5,0-6c0-.7-.1-1.4-.3-2.1-.1-.3-.4-.6-.7-.7-.4,0-.8-.1-1.1-.1-.2-.3-.3-.6-.3-1,0-.5.3-.9.8-1,1-.2,2-.2,3-.2.7,0,1.4,0,2.1.1.4,0,.6.3.6.6,0,.5,0,.9,0,1.4v8.9c0,2.4,0,4.6.1,6.4h2.1ZM94.4,162c1.2-.8,2.5-1.5,3.8-1.9,1.1-.4,2.2-.6,3.4-.6,1.4-.1,2.8.3,3.9,1.2.9.8,1.3,2.3,1.3,4.6,0,7,.1,10.8.3,11.2.2.4.7.6,1.4.6.1.4.2.7.2,1.1,0,.3,0,.6-.3.7-.4.1-.8.2-1.2.2-1.8,0-2.9,0-3.3,0-.3,0-.6-.2-.8-.4-.2-.4-.2-.8-.2-1.1v-8.5c0-2.7-.3-4.5-.9-5.4-.6-.9-1.7-1.4-2.8-1.3-1,0-2,.3-2.8.9-.9.9-1.3,2.1-1.2,3.3v4.1c0,2.3,0,4.5.1,6.4h2.2c.2.3.2.7.2,1.1,0,.3,0,.5-.2.7-.2.2-.5.2-.8.2h-7.7c-.2-.4-.2-.8-.3-1.2,0-.2,0-.5.2-.6.2-.2.5-.2.7-.2h1.4c.1-2.1.2-4.6.2-7.7s-.2-6.1-.5-6.7c-.3-.6-1-1-1.7-.9-.2-.4-.3-.7-.3-1.1,0-.3.1-.6.4-.7,1.7-.2,3.5-.3,5.2-.3,0,.8,0,1.5,0,2.3h0ZM120.9,162.1c-1.2,0-2.3.5-3,1.4-.8,1.3-1.2,2.8-1.1,4.4h2c2.1,0,3.6,0,4.4-.1.8,0,1.2-.2,1.4-.4.2-.3.2-.7.2-1.1,0-1.1-.3-2.2-1-3-.7-.8-1.8-1.2-2.9-1.1h0ZM121.6,159.4c2-.2,3.9.5,5.4,1.7,1.2,1.2,1.8,3.1,1.8,5.7,0,.9-.1,1.7-.6,2.4-.8.6-1.8.8-2.7.7h-8.7c0,1.8.4,3.5,1.3,5,1.1,1.3,2.7,2,4.4,1.8,1.9,0,3.8-.5,5.5-1.5.5.5.8,1.1.8,1.8,0,.9-.7,1.5-2.2,1.8-1.6.4-3.3.5-4.9.5-3.4,0-5.8-.7-7.2-2.1-1.5-1.4-2.2-3.8-2.2-7.2-.2-2.8.7-5.6,2.5-7.8,1.7-2,4.3-3,6.9-2.9ZM134.6,159.9l1.6-5.6c.5.1,1,.3,1.4.6.4.2.6.5.9.8.3,1.1.4,2.2.3,3.3v.8h6.5c.2.4.2.9.2,1.4,0,.3,0,.5-.2.8-.3.2-.6.2-.9.2h-5.6v9.3c-.1,1.5,0,3,.6,4.4.4.7,1.1,1.1,1.8,1.1,1.1,0,2.1-.3,3-.8.3.4.4.9.4,1.4,0,.7-.5,1.3-1.1,1.4-1.2.3-2.4.4-3.6.4-1.4.1-2.8-.3-3.9-1.1-.8-.7-1.2-2.1-1.2-4.1v-4.6c0-2.5,0-4.9-.2-7.3h-1.9c-.2-.4-.2-.9-.2-1.4,0-.3,0-.5.2-.7.2-.2.5-.3.7-.2h1.3Z"/>
  <path class="st0" d="M726.9,30.8c0-4.9-3.8-7.8-11.2-7.8h-10.8v1.2c2.8.3,3.2.7,3.2,2.4v21.2c0,1.7-.4,2.1-3.2,2.4v1.2h10.4v-1.2c-2.7-.3-3-.7-3-2.3v-9h4.8l6.9,12.5h5.5v-1.1c-1.2-.3-2.1-1-4.6-5.5l-3.8-7c3.4-1,5.8-3.5,5.8-7.1ZM722.5,31.1c0,4.1-2.6,6.1-7.4,6.3h-2.8c0,0,0-13,0-13h2.3c5.5.3,7.9,2.7,7.9,6.7ZM741,51.8c5.4.1,9.9-4.1,10-9.5,0-.2,0-.4,0-.6.3-5.3-3.8-9.8-9.1-10-.2,0-.4,0-.7,0-5.4-.1-9.9,4.1-10,9.5,0,.2,0,.4,0,.7-.2,5.3,3.8,9.8,9.1,10,.2,0,.4,0,.6,0ZM741.3,50.2c-3.4,0-5.8-3.5-5.8-8.8s2.1-8.2,5.6-8.2,5.8,3.4,5.8,8.7c0,5.1-2.1,8.2-5.6,8.2h0ZM769.5,51.4h5.3v-1.1c-1.4-.3-2.4-1-3.9-3.5l-4.9-7.9,2.1-2c3.3-3.1,4.2-3.5,6.1-3.8v-1.2h-8v1.2c2.5.3,2.8.8,1,2.7l-3.9,4.2h-2.7s0-17.8,0-17.8l-6.6.8v1l1.4.4c1.1.3,1.3.6,1.3,1.6v22.4c0,1.2-.3,1.6-2.7,1.8v1.2h9.1v-1.2c-2.2-.3-2.5-.5-2.5-1.7v-7.1h2.7l6.1,10ZM781.9,31.8l-6.6.8v1l1.4.4c1.1.3,1.3.6,1.3,1.6v10c0,4.1,2.7,6.3,6.6,6.3,2.5.1,4.9-1.2,6.3-3.3v3.1l6.5-.8v-1l-1.4-.4c-1.1-.3-1.3-.5-1.3-1.6v-16l-6.6.8v1l1.4.4c1.1.3,1.3.6,1.3,1.6v11.8c-.9,1.5-2.6,2.3-4.3,2.3-2.9,0-4.6-1.7-4.6-5v-12.7Z"/>
</svg>