<svg width="356" height="23" viewBox="0 0 356 23" fill="none" xmlns="http://www.w3.org/2000/svg">
<g clip-path="url(#clip0_1_305)">
<path d="M20.053 22.6538V5.3564L12.5376 18.6205H10.9127L3.36622 5.3564V22.6538H0.5V0.283325H3.52559L11.7096 14.809L19.9247 0.283325H22.9179V22.6538H20.053Z" fill="black"/>
<path d="M42.2157 0.283325H44.6361L53.871 22.6538H50.8143L48.1399 16.1H38.6497L36.0064 22.6538H32.9497L42.2157 0.283325ZM47.5024 13.8949L43.4259 3.56025L39.2225 13.8949H47.5024Z" fill="black"/>
<path d="M62.2778 0.283325L69.1233 11.941L76.0335 0.283325H79.155L70.5564 14.4936V22.6538H67.6902V14.4308L59.1239 0.283325H62.2778Z" fill="black"/>
<path d="M102.498 15.3129V12.7924H116.955V15.3129H102.498Z" fill="black"/>
<path d="M142.174 19.3141C142.599 19.609 143.172 19.8705 143.894 20.1013C144.615 20.3333 145.433 20.4487 146.347 20.4487C147.429 20.4487 148.289 20.259 148.925 19.8808C149.563 19.5026 150.045 18.941 150.374 18.1949C150.703 17.45 150.921 16.5308 151.027 15.4385C151.133 14.3461 151.186 13.0859 151.186 11.6577V0.283325H154.052V11.6577C154.052 13.359 153.973 14.909 153.814 16.3051C153.655 17.7026 153.304 18.8936 152.763 19.8808C152.222 20.8692 151.447 21.6359 150.439 22.1808C149.429 22.7269 148.066 23 146.347 23C144.435 23 142.8 22.5385 141.442 21.6141L142.174 19.3141Z" fill="black"/>
<path d="M175.515 20.259C176.832 20.259 177.924 20.0077 178.795 19.5026C179.666 18.9987 180.362 18.3423 180.881 17.5333C181.401 16.7256 181.767 15.8013 181.98 14.7615C182.192 13.7218 182.299 12.6654 182.299 11.5949V0.283325H185.165V11.5949C185.165 13.1064 184.99 14.541 184.639 15.8949C184.289 17.25 183.732 18.4423 182.967 19.4718C182.203 20.5013 181.21 21.3154 179.99 21.9128C178.769 22.5115 177.288 22.8115 175.548 22.8115C173.743 22.8115 172.224 22.4961 170.993 21.8667C169.762 21.2359 168.77 20.4013 168.017 19.3615C167.263 18.3218 166.721 17.1244 166.392 15.7692C166.063 14.4141 165.898 13.0231 165.898 11.5949V0.283325H168.765V11.5949C168.765 12.7077 168.876 13.7846 169.099 14.8244C169.322 15.8641 169.694 16.7833 170.213 17.5808C170.734 18.3795 171.423 19.0256 172.284 19.5192C173.143 20.0128 174.221 20.259 175.515 20.259Z" fill="black"/>
<path d="M197.266 22.6538V0.283325H200.132V20.1333H212.743V22.6538H197.266Z" fill="black"/>
<path d="M220.258 0.283325L227.103 11.941L234.014 0.283325H237.135L228.536 14.4936V22.6538H225.67V14.4308L217.104 0.283325H220.258Z" fill="black"/>
<path d="M259.903 22.6538C259.903 21.1833 260.031 19.9128 260.285 18.841C260.54 17.7705 260.923 16.8359 261.432 16.0372C261.941 15.2397 262.573 14.5462 263.326 13.9577C264.08 13.3705 264.956 12.8346 265.954 12.3513C266.655 12.0154 267.387 11.6846 268.152 11.359C268.916 11.0333 269.605 10.6654 270.221 10.2551C270.836 9.84615 271.346 9.35256 271.75 8.77436C272.153 8.19744 272.355 7.46667 272.355 6.58462C272.355 6.03846 272.264 5.52436 272.084 5.04103C271.903 4.55769 271.633 4.13333 271.272 3.76538C270.91 3.39744 270.459 3.10897 269.919 2.89872C269.377 2.68846 268.735 2.58333 267.992 2.58333C267.248 2.58333 266.559 2.68333 265.922 2.88333C265.285 3.08205 264.711 3.33462 264.202 3.63846C263.693 3.94359 263.242 4.26923 262.849 4.61538C262.455 4.96282 262.133 5.29359 261.878 5.60769L260.062 3.81282C260.232 3.60256 260.535 3.28718 260.971 2.86667C261.405 2.44744 261.968 2.02179 262.658 1.59103C263.348 1.16026 264.159 0.78718 265.094 0.471795C266.028 0.157692 267.089 0 268.279 0C269.467 0 270.507 0.173077 271.399 0.519231C272.292 0.866667 273.039 1.33333 273.644 1.92179C274.249 2.51026 274.706 3.20385 275.014 4.00128C275.321 4.8 275.475 5.63974 275.475 6.5218C275.475 7.57308 275.285 8.47051 274.903 9.21538C274.52 9.96154 274.027 10.6077 273.421 11.1538C272.816 11.7 272.132 12.1769 271.368 12.5872C270.603 12.9962 269.828 13.3808 269.043 13.7372C267.96 14.241 267.063 14.7244 266.352 15.1859C265.64 15.6487 265.068 16.1269 264.632 16.6205C264.197 17.1141 263.895 17.6436 263.725 18.2115C263.554 18.7782 263.47 19.4192 263.47 20.1333H275.508V22.6538H259.903Z" fill="black"/>
<path d="M295.22 22.9692C293.648 22.9474 292.274 22.5808 291.096 21.8667C289.918 21.1526 288.931 20.2436 288.135 19.141C287.338 18.0385 286.738 16.8244 286.335 15.5013C285.932 14.1782 285.73 12.8859 285.73 11.6256C285.73 10.282 285.948 8.93204 286.383 7.57692C286.817 6.22307 287.449 5.00512 288.277 3.92307C289.105 2.84102 290.103 1.96409 291.271 1.29102C292.438 0.619223 293.755 0.283325 295.22 0.283325C296.791 0.283325 298.165 0.646146 299.343 1.3705C300.522 2.09486 301.508 3.01409 302.305 4.12691C303.101 5.24102 303.701 6.46409 304.104 7.79743C304.507 9.13204 304.709 10.4077 304.709 11.6256C304.709 12.9923 304.491 14.3461 304.057 15.691C303.622 17.0346 302.989 18.2423 302.161 19.3141C301.333 20.3859 300.336 21.2577 299.168 21.9295C298.001 22.6013 296.684 22.9474 295.22 22.9692ZM288.627 11.6256C288.649 12.6551 288.804 13.6897 289.09 14.7295C289.376 15.7692 289.795 16.7102 290.348 17.55C290.899 18.3897 291.579 19.0782 292.385 19.6128C293.192 20.1487 294.137 20.4167 295.22 20.4167C296.345 20.4167 297.322 20.1333 298.15 19.5667C298.978 18.9987 299.662 18.2846 300.204 17.4231C300.745 16.5628 301.148 15.6115 301.414 14.5718C301.678 13.532 301.812 12.5513 301.812 11.6256C301.812 10.5974 301.663 9.56281 301.366 8.52307C301.068 7.48333 300.644 6.54358 300.092 5.70256C299.54 4.86281 298.85 4.17435 298.022 3.63845C297.194 3.10384 296.259 2.83589 295.22 2.83589C294.094 2.83589 293.118 3.11922 292.29 3.68589C291.462 4.25384 290.777 4.97307 290.237 5.84486C289.695 6.71666 289.291 7.66666 289.026 8.69615C288.761 9.72563 288.627 10.7026 288.627 11.6256Z" fill="black"/>
<path d="M314.675 22.6538C314.675 21.1833 314.803 19.9128 315.057 18.841C315.312 17.7705 315.694 16.8359 316.204 16.0372C316.713 15.2397 317.345 14.5462 318.098 13.9577C318.852 13.3705 319.728 12.8346 320.726 12.3513C321.427 12.0154 322.159 11.6846 322.923 11.359C323.688 11.0333 324.377 10.6654 324.993 10.2551C325.608 9.84615 326.117 9.35256 326.522 8.77436C326.925 8.19744 327.127 7.46667 327.127 6.58462C327.127 6.03846 327.036 5.52436 326.856 5.04103C326.675 4.55769 326.405 4.13333 326.044 3.76538C325.682 3.39744 325.231 3.10897 324.691 2.89872C324.149 2.68846 323.506 2.58333 322.764 2.58333C322.02 2.58333 321.331 2.68333 320.693 2.88333C320.057 3.08205 319.483 3.33462 318.974 3.63846C318.465 3.94359 318.014 4.26923 317.621 4.61538C317.227 4.96282 316.905 5.29359 316.649 5.60769L314.834 3.81282C315.004 3.60256 315.307 3.28718 315.742 2.86667C316.176 2.44744 316.74 2.02179 317.429 1.59103C318.12 1.16026 318.931 0.78718 319.865 0.471795C320.8 0.157692 321.861 0 323.05 0C324.239 0 325.279 0.173077 326.171 0.519231C327.063 0.866667 327.811 1.33333 328.416 1.92179C329.021 2.51026 329.477 3.20385 329.786 4.00128C330.093 4.8 330.247 5.63974 330.247 6.5218C330.247 7.57308 330.056 8.47051 329.674 9.21538C329.292 9.96154 328.798 10.6077 328.193 11.1538C327.588 11.7 326.904 12.1769 326.139 12.5872C325.375 12.9962 324.6 13.3808 323.815 13.7372C322.732 14.241 321.835 14.7244 321.124 15.1859C320.412 15.6487 319.839 16.1269 319.404 16.6205C318.969 17.1141 318.667 17.6436 318.497 18.2115C318.326 18.7782 318.242 19.4192 318.242 20.1333H330.279V22.6538H314.675Z" fill="black"/>
<path d="M348.113 8.38076C349.152 8.38076 350.124 8.55384 351.026 8.90127C351.929 9.24743 352.709 9.73589 353.367 10.3654C354.024 10.9961 354.545 11.7474 354.927 12.6192C355.309 13.491 355.5 14.4513 355.5 15.5013C355.5 16.6154 355.294 17.6282 354.879 18.5423C354.466 19.4564 353.902 20.2436 353.192 20.9051C352.48 21.5667 351.636 22.0769 350.66 22.4333C349.683 22.7897 348.632 22.9692 347.508 22.9692C345.893 22.9692 344.445 22.591 343.16 21.8346C341.876 21.0782 340.894 20.0602 340.215 18.7782L341.967 17.2667C342.561 18.2538 343.352 19.0359 344.338 19.6128C345.326 20.191 346.393 20.4795 347.539 20.4795C348.261 20.4795 348.934 20.359 349.562 20.1179C350.187 19.8756 350.729 19.5397 351.185 19.109C351.641 18.6795 351.998 18.1641 352.253 17.5654C352.507 16.9667 352.635 16.3 352.635 15.5641C352.635 14.8718 352.507 14.2308 352.253 13.6423C351.998 13.0551 351.653 12.5449 351.217 12.1141C350.782 11.6846 350.266 11.3538 349.673 11.1218C349.078 10.891 348.442 10.7756 347.762 10.7756C346.87 10.7756 346.021 10.9756 345.214 11.3744C344.407 11.7731 343.76 12.341 343.272 13.0756H340.724C340.745 12.9705 340.798 12.7026 340.884 12.2718C340.968 11.8423 341.074 11.3167 341.203 10.6961C341.33 10.0769 341.467 9.38974 341.616 8.63333C341.765 7.87692 341.913 7.11025 342.062 6.33333C342.423 4.52692 342.826 2.51025 343.272 0.283325H354.259V2.83589H345.343L343.973 9.9564C344.928 8.9064 346.308 8.38076 348.113 8.38076Z" fill="black"/>
</g>
<defs>
<clipPath id="clip0_1_305">
<rect width="355" height="23" fill="white" transform="translate(0.5)"/>
</clipPath>
</defs>
</svg>
