<?xml version="1.0" encoding="UTF-8"?>
<svg id="Layer_1" xmlns="http://www.w3.org/2000/svg" version="1.1" xmlns:xlink="http://www.w3.org/1999/xlink" viewBox="0 0 553.4 101.2">
  <!-- Generator: Adobe Illustrator 29.3.1, SVG Export Plug-In . SVG Version: 2.1.0 Build 151)  -->
  <defs>
    <style>
      .st0 {
        fill: #fff;
      }

      .st1 {
        fill: none;
      }

      .st2 {
        fill: #0089ce;
      }

      .st3 {
        clip-path: url(#clippath);
      }
    </style>
    <clipPath id="clippath">
      <rect class="st1" width="553.4" height="101.2"/>
    </clipPath>
  </defs>
  <g class="st3">
    <path class="st2" d="M344.7,93.4c-.2,0-.5,0-.7-.2-22.6-17.8-26.6-50.6-8.7-73.3s50.6-26.6,73.3-8.7c2.9,2.3,5.6,4.9,8,7.8.4.5.3,1.1-.1,1.5-.5.4-1.1.3-1.5-.1,0,0,0,0,0,0-17.6-21.3-49.1-24.3-70.4-6.8-21.3,17.6-24.3,49.1-6.8,70.4,2.3,2.8,4.8,5.3,7.7,7.5.5.4.6,1.1.2,1.5-.2.3-.5.4-.9.4"/>
    <path class="st2" d="M346.4,83.7c-.3,0-.6-.1-.8-.3-17.2-16.9-17.5-44.7-.5-61.9,15.1-15.3,39.1-17.4,56.6-4.9.5.4.6,1,.2,1.5-.3.5-1,.6-1.5.2-18.7-13.3-44.7-9-58,9.7-11.9,16.7-9.9,39.5,4.7,53.8.4.4.4,1.1,0,1.5-.2.2-.5.3-.8.3"/>
    <path class="st2" d="M348.5,73.5c-.3,0-.7-.2-.9-.4-11-15.1-8.3-36.2,6.1-48.2.5-.4,1.1-.3,1.5.1s.3,1.1-.1,1.5c-13.6,11.2-16.1,31-5.7,45.2.4.5.2,1.2-.2,1.5-.2.1-.4.2-.6.2"/>
    <path class="st0" d="M379,24.1h2.3l23.6,55h-2.9l-8.1-19h-27.6l-8.1,19h-2.9l23.7-55ZM393.1,57.8l-12.9-30.3-13,30.3h25.9Z"/>
    <path class="st0" d="M378.3,23.1h3.6l24.5,57h-5l-8.1-19h-26.2l-8.1,19h-5.1l24.5-57ZM380.1,25.1h-.4l-22.8,53h.8l8.1-19h28.9l8.1,19h.7l-22.7-53h-.4l14.4,33.7h-29l14.5-33.7ZM391.6,56.8l-11.4-26.7-11.5,26.7h22.9Z"/>
    <path class="st0" d="M430.6,41.3c-3.5,0-6.9,1.3-9.7,3.5-2.8,2.3-4.8,5.4-5.7,8.9v25.3h-2.6v-40.2h2.6v10.2c1.3-2.7,3.2-5.1,5.6-7,2.1-1.7,4.7-2.8,7.4-3.2.5,0,1,0,1.4,0h1v2.5Z"/>
    <path class="st0" d="M411.6,37.8h4.6v7.6c1.1-1.6,2.4-3,4-4.1,2.3-1.8,5-3,7.9-3.4h0c.6,0,1.1,0,1.5,0h2v4.4h-1c-3.3.1-6.5,1.3-9.1,3.3-2.6,2.1-4.5,5-5.4,8.3v26.2h-4.6v-42.2ZM414.1,39.8h-.6v38.2h.6v-24.5h0c.4-1.5.9-2.9,1.6-4.2l-1.7-.4v-9.2ZM429.6,39.8h0c-.4,0-.8,0-1.3,0-2.5.3-4.9,1.4-6.9,3-1.4,1.1-2.6,2.3-3.6,3.7,2.9-3.6,7.2-5.8,11.8-6.2v-.5Z"/>
    <path class="st0" d="M456.2,41.3c-3.5,0-6.9,1.3-9.7,3.5-2.8,2.3-4.8,5.4-5.7,8.9v25.3h-2.6v-40.2h2.6v10.2c1.3-2.7,3.2-5.1,5.6-7,2.1-1.7,4.7-2.8,7.4-3.2.5,0,1,0,1.4,0h1v2.5Z"/>
    <path class="st0" d="M437.2,37.8h4.6v7.6c1.1-1.6,2.4-3,4-4.1,2.3-1.8,5-3,7.9-3.4h0c.6,0,1.1,0,1.5,0h2v4.4h-1c-3.3.1-6.5,1.3-9.1,3.3-2.6,2.1-4.5,5-5.4,8.3v26.2h-4.6v-42.2ZM439.8,39.8h-.6v38.2h.6v-24.5h0c.4-1.5.9-2.9,1.6-4.2l-1.7-.4v-9.2ZM455.2,39.8h0c-.4,0-.8,0-1.3,0-2.5.3-4.9,1.4-6.9,3-1.4,1.1-2.6,2.3-3.6,3.7,2.9-3.6,7.2-5.8,11.8-6.2v-.5Z"/>
    <path class="st0" d="M473,79.8c-1.8,0-3.5-.3-5.2-1-1.5-.6-3-1.5-4.2-2.6-1.2-1.1-2.1-2.4-2.8-3.9-.7-1.5-1-3.2-1-4.9,0-1.6.4-3.3,1.2-4.7.9-1.5,2-2.7,3.4-3.7,1.6-1.1,3.4-1.9,5.3-2.4,2.2-.6,4.4-.9,6.7-.9,2.3,0,4.6.2,6.9.5,2.1.3,4.2.9,6.2,1.6v-4.3c0-4-1.1-7.2-3.4-9.6-2.4-2.5-5.8-3.8-9.2-3.6-2.2,0-4.3.5-6.3,1.3-2.4.9-4.6,2.2-6.7,3.7l-1.2-1.9c5.2-3.5,9.9-5.3,14.3-5.3,4.7,0,8.4,1.4,11.1,4.2s4.1,6.6,4.1,11.5v21.1c0,1.1.5,1.7,1.4,1.7v2.5c-.1,0-.3,0-.4,0h-.3c-.8,0-1.6-.3-2.2-1-.6-.6-.9-1.5-.9-2.4v-3.6c-1.9,2.4-4.4,4.4-7.2,5.6-3,1.3-6.2,2-9.5,2M473.3,77.6c1.9,0,3.9-.3,5.8-.8,1.8-.5,3.6-1.2,5.2-2.1,1.4-.8,2.7-1.9,3.8-3.1.9-1,1.4-2.4,1.5-3.8v-7.6c-4.1-1.6-8.5-2.3-12.9-2.3-2,0-3.9.2-5.8.7-1.6.4-3.1,1.1-4.5,1.9-1.2.8-2.2,1.8-2.9,3-.7,1.2-1.1,2.5-1,3.9,0,1.4.3,2.8.9,4,.6,1.2,1.3,2.3,2.3,3.3,1,.9,2.2,1.7,3.4,2.2,1.4.5,2.8.8,4.3.8"/>
    <path class="st0" d="M473,80.8c-1.9,0-3.8-.3-5.6-1-1.7-.7-3.2-1.6-4.5-2.8-1.3-1.2-2.3-2.6-3-4.2-.7-1.7-1.1-3.5-1.1-5.3,0-1.8.5-3.6,1.4-5.2.9-1.6,2.2-2.9,3.7-4,1.7-1.2,3.6-2,5.6-2.5,2.3-.6,4.6-.9,7-.9,2.3,0,4.7.2,7,.6,1.7.3,3.4.7,5.1,1.2v-2.9c.2-3.3-1-6.5-3.2-8.9-2.2-2.3-5.3-3.5-8.5-3.3-2,0-4,.4-5.9,1.2-2.3.9-4.4,2.1-6.4,3.6l-.9.6-2.3-3.6.8-.5c2.4-1.7,5-3,7.7-4.1,2.3-.9,4.7-1.3,7.2-1.4,5,0,8.9,1.5,11.8,4.5s4.3,7.1,4.3,12.2v21.1c0,.2,0,.4.1.6,0,0,.2,0,.3,0h1v4.2l-.7.2c-.2,0-.5.1-.7.1h-.3c-1.1,0-2.2-.5-2.9-1.3-.8-.8-1.2-1.9-1.2-3v-.9c-1.7,1.6-3.6,2.9-5.8,3.9-3.1,1.4-6.5,2.1-9.9,2.1ZM476.5,56.8c-2.2,0-4.3.3-6.4.8-1.8.5-3.4,1.2-5,2.3-1.3.9-2.4,2-3.2,3.4-.7,1.3-1.1,2.7-1.1,4.2,0,1.5.3,3.1.9,4.5.6,1.4,1.5,2.6,2.6,3.6,1.1,1,2.4,1.9,3.9,2.4,1.5.6,3.2.9,4.8.9,3.1,0,6.2-.6,9.1-1.9.6-.2,1.1-.5,1.6-.8-1.4.7-2.9,1.2-4.4,1.6-2,.5-4,.8-6,.8-1.6,0-3.2-.3-4.7-.8-1.4-.5-2.7-1.3-3.8-2.4-1.1-1-1.9-2.2-2.5-3.6-.6-1.4-1-2.9-.9-4.4,0-1.6.4-3.1,1.2-4.4.8-1.3,1.9-2.5,3.3-3.3,1.5-.9,3.1-1.6,4.8-2.1,2-.5,4-.7,6.1-.7,4.5,0,9,.8,13.2,2.4l.6.2v8.3c0,.8-.1,1.6-.4,2.3l.6-.8v6.5c0,.6.2,1.2.6,1.7.3.4.8.6,1.2.6v-.7c-1-.5-1.5-1.5-1.4-2.5v-21.1c0-4.6-1.3-8.2-3.8-10.8s-6-3.9-10.4-3.9-8.3,1.5-12.9,4.6v.2c2-1.3,4-2.4,6.2-3.2,2.1-.8,4.4-1.3,6.6-1.3,3.7-.2,7.3,1.3,10,3.9,2.5,2.6,3.7,6.1,3.7,10.3v5.8l-1.4-.5c-1.9-.7-4-1.3-6-1.6-2.2-.4-4.5-.5-6.7-.5ZM476.7,58.9c-1.9,0-3.7.2-5.5.7-1.5.4-2.9,1-4.2,1.8-1.1.7-2,1.6-2.6,2.7-.6,1-.9,2.2-.9,3.4,0,1.2.2,2.5.8,3.6.5,1.1,1.2,2.1,2.1,2.9.9.8,2,1.5,3.1,2,1.3.5,2.6.7,3.9.7,1.9,0,3.7-.3,5.5-.7,1.7-.5,3.4-1.1,5-2,1.3-.8,2.5-1.7,3.5-2.9.8-.9,1.2-2,1.2-3.2v-6.9c-3.8-1.4-7.8-2-11.9-2h0Z"/>
    <path class="st0" d="M506.4,93.8c1.2,0,2.5,0,3.6-.5.3-.2.6-.5.8-.8.4-.7.8-1.4,1.1-2.1.5-1,1.1-2.4,1.9-4.2.8-1.8,1.8-4.1,3-7.1l-18.3-40.2h2.8l17,37.5,15.9-37.5h2.6l-23,53.9c-.7,1.8-2.4,3-4.3,3.3-.5.1-1,.2-1.5.2-.5,0-1.1,0-1.6,0v-2.5Z"/>
    <path class="st0" d="M506.4,97.2h-1v-4.5h1c1.1,0,2.1,0,3.1-.4.2-.1.4-.3.5-.5.4-.6.7-1.2,1-1.9.5-1,1.1-2.4,1.8-4.2.7-1.7,1.7-3.9,2.8-6.7l-18.8-41.3h5l16.3,36,15.3-36h4.8l-23.6,55.3c-.9,2.1-2.7,3.6-5,3.9h0c-.6.1-1.1.2-1.7.2-.5,0-1.1,0-1.7,0ZM507.4,94.7v.5c.2,0,.4,0,.6,0,.5,0,.9,0,1.4-.2,1.6-.2,2.9-1.3,3.5-2.7h0s22.4-52.5,22.4-52.5h-.5l-16.6,39-17.6-38.9h-.6l17.9,39.2-.2.4c-1.3,3-2.3,5.3-3,7.1s-1.4,3.2-1.9,4.2c-.3.8-.7,1.5-1.2,2.3-.3.4-.7.8-1.1,1.1h0c-1,.5-2,.7-3.1.7h0Z"/>
    <path class="st0" d="M303.3,75.1c-.2,0-.3,0-.5,0h-.2v.9h.3c.2,0,.3,0,.5-.1.1,0,.2-.2.2-.4,0-.2-.1-.3-.3-.4M301.8,77.7v-3.2c.2,0,.5,0,.9,0h.7c.2,0,.4,0,.6.2.3.2.4.5.4.8,0,.2,0,.4-.2.6-.2.1-.4.2-.6.2.2,0,.3,0,.5.2.2.2.3.5.3.7v.3s0,0,0,0c0,0,0,0,0,.1h0c0,0-.8,0-.8,0,0-.1,0-.3,0-.4,0-.1,0-.3,0-.4,0-.1-.1-.2-.2-.2,0,0-.2,0-.3,0h-.2s-.2,0-.2,0v1.1h-.8ZM301.4,74.4c-.9.9-.9,2.5,0,3.4.9.9,2.4.9,3.3,0,0,0,0,0,0,0,.5-.4.7-1.1.7-1.7,0-1.3-1.1-2.4-2.4-2.4-.6,0-1.3.3-1.7.7M305.1,78.1c-1.1,1.1-3,1.1-4.1,0-1.1-1.1-1.1-3,0-4.1.5-.5,1.3-.8,2-.8,1.6,0,2.9,1.3,2.9,2.9,0,.8-.3,1.5-.9,2"/>
    <path class="st0" d="M25.2,30.2l-1.9,10.9h15.9s-2.1,12.1-2.1,12.1h-15.9s-4.2,24.1-4.2,24.1H0S10.2,17.8,10.2,17.8h37.6c0,0-2.1,12.4-2.1,12.4h-20.6ZM51.9,59.8c-.9,5.7,1.7,8.8,7.7,8.8,3.1,0,6-1.3,8-3.7h13.5c-4.7,9.2-14.5,13.6-23,13.6-13.5,0-22.4-7.4-20.2-21,2.1-13.2,12.7-21.1,26-21.2,14.2,0,21.3,8.4,19.1,21.9l-.2,1.4h-30.8ZM70.3,52.2c-.2-4.4-3.3-6.8-7.2-6.8-4.4-.1-8.4,2.6-9.9,6.8h17.1ZM239.1,59.4c-.9,5.7,1.7,8.8,7.7,8.8,3.1.1,6-1.2,8-3.7h13.5c-4.7,9.2-14.5,13.6-23,13.6-13.5,0-22.4-7.4-20.2-21,2.1-13.2,12.7-21.1,26-21.2,14.2,0,21.3,8.4,19.1,21.9l-.2,1.4h-30.8ZM257.4,51.9c-.1-4.4-3.3-6.8-7.2-6.8-4.4-.1-8.4,2.6-9.9,6.8h17.1ZM82.2,77.2l9.5-60.9h13.4s-9.5,60.9-9.5,60.9h-13.4ZM99,86l9.5-61h13.4s-9.5,60.9-9.5,60.9h-13.4ZM165.7,57.3c-2.1,13.4-14.1,21.1-26.5,21.1-12.4,0-22.2-7.5-20.1-21,2.1-13.5,14.1-21.1,26.5-21.2s22.1,7.6,20.1,21.1M133.6,57.3c-1.1,5.8,1.3,9.9,6.9,9.9s9.5-3.3,10.7-9.9c1-5.5-1.3-10-6.8-10s-9.6,3.7-10.8,10M298.8,47.4c-2.2-1.2-4.7-1.9-7.2-1.9-1.6,0-4.5.7-4.8,2.7-.4,2.7,3.9,3.1,5.8,3.5,6.3,1.3,10.8,4.4,9.6,11.7-1.6,10.4-11.8,14.8-20.9,14.8-5.2.2-10.4-1.3-14.7-4.2l4.6-8.7c2.5,2,8.4,2.6,11.9,2.6,1.8,0,4.5-.9,4.9-3,.5-3.1-3.9-3.2-8.1-4.4s-8.3-3.3-7.2-10.4c1.5-9.7,11-14,19.6-14.1,4.3-.1,8.7.7,12.6,2.5l-6.1,8.9ZM183.9,59.1l8.5-21.6h11.5s2.9,21.6,2.9,21.6l9.5-21.7h15.1s-20.4,39.6-20.4,39.6h-12.7s-2.7-21.7-2.7-21.7h-.2l-8.5,21.7h-12.9s-9-39.5-9-39.5h15.1s3.9,21.6,3.9,21.6Z"/>
    <path class="st0" d="M543,27.5c-.2,0-.4,0-.6,0h-.3v1.2h.4c.2,0,.4,0,.6-.2.2-.1.2-.3.2-.5,0-.2-.1-.4-.3-.5M541.1,30.8v-4.1c.2,0,.6,0,1.1,0h.8c.3,0,.6,0,.8.2.4.2.6.6.5,1,0,.3,0,.6-.3.8-.2.2-.5.3-.7.3.2,0,.4.1.6.2.3.2.4.6.4.9v.4s0,0,0,.1c0,0,0,.1,0,.1h0c0,.1-1,.1-1,.1,0-.2,0-.4,0-.6,0-.2,0-.3,0-.5,0-.1-.2-.3-.3-.3-.1,0-.2,0-.4,0h-.3s-.2,0-.2,0v1.5h-1.1ZM540.5,26.6c-1.2,1.2-1.2,3.2,0,4.4,1.2,1.2,3.1,1.2,4.3,0,0,0,0,0,0,0,.6-.6.9-1.4.9-2.2,0-1.7-1.4-3.1-3.1-3.1-.8,0-1.6.3-2.2.9M545.3,31.4c-1.5,1.4-3.8,1.4-5.3,0-1.4-1.5-1.4-3.8,0-5.3.7-.7,1.6-1.1,2.6-1.1,2.1,0,3.7,1.7,3.7,3.8,0,1-.4,1.9-1.1,2.6"/>
  </g>
</svg>