<?xml version="1.0" encoding="UTF-8"?>
<svg id="Layer_1" data-name="Layer 1" xmlns="http://www.w3.org/2000/svg" viewBox="0 0 100 80">
  <defs>
    <style>
      .cls-1 {
        fill: #778495;
      }

      .cls-2 {
        fill: #aebed3;
      }
    </style>
  </defs>
  <path id="Path_2343" data-name="Path 2343" class="cls-2" d="M47.238151003866733,3.896241784095764v13.178840398788452h-2.470554351806641l5.233394622802734,9.06380558013916,5.234352111816406-9.063807487487793h-2.473426818847656V3.896241784095764h-5.523765563964844Z"/>
  <path id="Path_2344" data-name="Path 2344" class="cls-2" d="M70.264720370321811,3.896241784095764v13.178840398788452h-2.470554351806641l5.233394622802734,9.06380558013916,5.233394622802734-9.063807487487793h-2.469596862792969V3.896241784095764s-5.526641845703125,0-5.526638031005859,0Z"/>
  <path id="Path_2345" data-name="Path 2345" class="cls-2" d="M24.210644175558627,3.896241784095764v13.178840398788452h-2.473428726196289l5.229561805725098,9.06380558013916,5.229560852050781-9.063807487487793h-2.466720581054688V3.896241784095764s-5.518974304199219,0-5.518973350524902,0Z"/>
  <g>
    <path id="Path_2984" data-name="Path 2984" class="cls-1" d="M66.486052920370639,43.454813361167908c-5.643558502197266,0-11.242073059082031-1.575481414794922-16.736129760742188-3.121253967285156-9.597591400146484-2.701507568359375-18.664274215698242-5.251602172851562-27.847871780395508-.0833740234375-.442466735839844.248756408691406-1.002813339233398.091720581054688-1.251567840576172-.350746154785156-.24875545501709-.442466735839844-.091721534729004-1.002811431884766.350746154785156-1.251567840576172,9.848672866821289-5.541975021362305,19.709804534912109-2.766674041748047,29.247983932495117-.0833740234375,9.596633911132812,2.701507568359375,18.663314819335938,5.251602172851562,27.848831176757812.0833740234375.442466735839844-.248756408691406,1.002815246582031-.091720581054688,1.251571655273438.350746154785156s.091720581054688,1.002811431884766-.350746154785156,1.251567840576172h0c-3.816032409667969,2.151279449462891-8.132469177246094,3.256752014160156-12.512805938720703,3.204627990722656"/>
    <path class="cls-1" d="M66.782363345175327,43.935407996177673c-5.785961151123047.018718719482422-11.580814361572266-1.57037353515625-17.159950256347656-3.139812469482422-9.499927520751953-2.674224853515625-18.471090316772461-5.19964599609375-27.485305786132812-.128211975097656-.671480178833008.377620697021484-1.525921821594238.138507843017578-1.904009819030762-.532974243164062-.378087997436523-.671947479248047-.138507843017578-1.526390075683594.533440589904785-1.904476165771484,10.019796371459961-5.639030456542969,19.977827072143555-2.837062835693359,29.60783576965332-.128211975097656,9.504138946533203,2.676094055175781,18.474834442138672,5.200111389160156,27.488578796386719.128681182861328.673820495605469-.378555297851562,1.52685546875-.138038635253906,1.90447998046875.533439636230469.182960510253906.325210571289062.228347778320312.702831268310547.127273559570312,1.062671661376953-.100608825683594.359371185302734-.335502624511719.658378601074219-.660720825195312.841339111328125-3.796791076660156,2.140316009521484-8.095664978027344,3.267559051513672-12.451633453369141,3.267559051513672l.000011444091797-.000003814697266ZM33.512967516928256,36.777006506919861c5.371843338012695,0,10.77924919128418,1.522647857666016,16.366338729858398,3.095359802246094,5.424251556396484,1.525920867919922,11.030059814453125,3.102848052978516,16.606853485107422,3.102848052978516h.005615234375c4.318061828613281.077674865722656,8.534584045410156-1.035060882568359,12.271949768066406-3.142620086669922.102943420410156-.058021545410156.1768798828125-.151611328125.208229064941406-.264846801757812.031822204589844-.113239288330078.017784118652344-.231624603271484-.039772033691406-.334102630615234-.119789123535156-.211505889892578-.387443542480469-.287307739257812-.599884033203125-.167987823486328-9.359546661376953,5.267494201660156-18.517417907714844,2.689666748046875-28.212471008300781-.039775848388672-9.447986602783203-2.657844543457031-19.21088981628418-5.404129028320312-28.883481979370117.039306640625-.211504936218262.11932373046875-.287309646606445.387912750244141-.167986869812012.599418640136719.118854522705078.211036682128906.387446403503418.286842346191406.59895133972168.167518615722656,3.96571159362793-2.231559753417969,7.896327018737793-3.055118560791016,11.845658302307129-3.055118560791016Z"/>
  </g>
  <g>
    <path id="Path_2985" data-name="Path 2985" class="cls-1" d="M66.487010409384311,59.999269843101501c-5.644515991210938,0-11.243030548095703-1.575481414794922-16.737091064453125-3.121253967285156-9.598548889160156-2.701507568359375-18.665233612060547-5.251602172851562-27.848831176757812-.0833740234375-.442466735839844.248756408691406-1.002813339233398.091720581054688-1.251567840576172-.350746154785156-.24875545501709-.442466735839844-.091721534729004-1.002811431884766.350746154785156-1.251567840576172,9.849632263183594-5.542934417724609,19.710762023925781-2.768592834472656,29.247020721435547-.0833740234375,9.598552703857422,2.700550079345703,18.665233612060547,5.251602172851562,27.848834991455078.0833740234375.442466735839844-.248752593994141,1.002815246582031-.091720581054688,1.251571655273438.350746154785156s.091720581054688,1.002811431884766-.350746154785156,1.251567840576172c-3.815414428710938,2.151077270507812-8.131179809570312,3.256549835205078-12.510890960693359,3.204627990722656"/>
    <path class="cls-1" d="M66.777213503866733,60.480497717857361c-.0982666015625,0-.196063995361328-.000934600830078-.294326782226562-.001873016357422-5.703605651855469-.000934600830078-11.367904663085938-1.593772888183594-16.845500946044922-3.134197235107422-9.516304016113281-2.678436279296875-18.487468719482422-5.20526123046875-27.501214981079102-.1319580078125-.672883987426758.378086090087891-1.526389122009277.138507843017578-1.904477119445801-.533439636230469-.377619743347168-.671947479248047-.138507843017578-1.526390075683594.533440589904785-1.904476165771484,10.025411605834961-5.641368865966797,19.982038497924805-2.838466644287109,29.61204719543457-.127277374267578,9.499927520751953,2.671882629394531,18.472496032714844,5.197772979736328,27.483901977539062.127277374267578.672416687011719-.378086090087891,1.527328491210938-.1375732421875,1.90447998046875.533439636230469.377616882324219.671947479248047.138504028320312,1.526390075683594-.533905029296875,1.904476165771484-3.796791076660156,2.140316009521484-8.097068786621094,3.268028259277344-12.454444885253906,3.268028259277344ZM33.512031008749545,53.322096228599548c5.371843338012695,0,10.779716491699219,1.521709442138672,16.367275238037109,3.094894409179688,5.434078216552734,1.52825927734375,11.035205841064453,3.103317260742188,16.607791900634766,3.103317260742188v.399612426757812l.004680633544922-.399612426757812c4.280628204345703.031818389892578,8.533184051513672-1.035999298095703,12.269611358642578-3.142620086669922.212440490722656-.118854522705078.28778076171875-.388381958007812.16845703125-.599887847900391-.118850708007812-.211505889892578-.387916564941406-.288246154785156-.599884033203125-.167518615722656-9.355335235595703,5.265155792236328-18.514610290527344,2.687793731689453-28.212471008300781-.040241241455078-9.441434860229492-2.658782958984375-19.203401565551758-5.406471252441406-28.882545471191406.039306640625-.211504936218262.118854522705078-.28684139251709.388381958007812-.167519569396973.599887847900391.117918968200684.210567474365234.386510848999023.286373138427734.599886894226074.167518615722656,3.965243339538574-2.231094360351562,7.895391464233398-3.054649353027344,11.844717025756836-3.054656982421875Z"/>
  </g>
  <g>
    <path id="Path_2986" data-name="Path 2986" class="cls-1" d="M66.487010409384311,75.622808814048767c-5.644515991210938,0-11.243030548095703-1.576438903808594-16.737091064453125-3.121253967285156-9.597591400146484-2.702468872070312-18.664274215698242-5.254478454589844-27.848831176757812-.0833740234375-.442466735839844.248756408691406-1.002813339233398.091720581054688-1.251568794250488-.350746154785156s-.091720581054688-1.002815246582031.350746154785156-1.251571655273438c9.846756935119629-5.541015625,19.708844184875488-2.767631530761719,29.247021675109863-.084335327148438,9.598552703857422,2.701507568359375,18.665233612060547,5.2525634765625,27.848834991455078.084335327148438.442466735839844-.248756408691406,1.002815246582031-.091720581054688,1.251571655273438.350746154785156s.091720581054688,1.002815246582031-.350746154785156,1.251571655273438h0c-3.815414428710938,2.151077270507812-8.131179809570312,3.256546020507812-12.510890960693359,3.204627990722656"/>
    <path class="cls-1" d="M66.782363345175327,76.103758215904236c-.100135803222656,0-.199806213378906-.000938415527344-.299476623535156-.001869201660156-5.703605651855469-.000938415527344-11.367904663085938-1.593772888183594-16.845500946044922-3.134201049804688-9.517238616943359-2.681243896484375-18.488872528076172-5.207130432128906-27.501214981079102-.1319580078125-.671480178833008.378089904785156-1.526389122009277.1375732421875-1.904477119445801-.533439636230469-.377619743347168-.671951293945312-.138507843017578-1.52545166015625.533440589904785-1.903541564941406,10.022136688232422-5.641372680664062,19.981101989746094-2.837532043457031,29.611581802368164-.128211975097656,9.500392913818359,2.673751831054688,18.473899841308594,5.197769165039062,27.484367370605469.128211975097656.671478271484375-.378089904785156,1.52545166015625-.139442443847656,1.904006958007812.532501220703125.378089904785156.671951293945312.13897705078125,1.526390075683594-.533439636230469,1.90447998046875-3.796791076660156,2.140312194824219-8.095199584960938,3.268028259277344-12.449287414550781,3.268028259277344ZM33.512498309164584,68.943487524986267c5.371843338012695,0,10.77924919128418,1.523582458496094,16.367277145385742,3.096763610839844,5.433609008789062,1.52825927734375,11.034736633300781,3.103317260742188,16.607322692871094,3.103317260742188v.400550842285156l.004680633544922-.400550842285156c4.286243438720703.032752990722656,8.531307220458984-1.035064697265625,12.269611358642578-3.142623901367188.212440490722656-.118850708007812.28778076171875-.388381958007812.16845703125-.599884033203125s-.389785766601562-.288246154785156-.598953247070312-.167518615722656c-9.357208251953125,5.266090393066406-18.516014099121094,2.687789916992188-28.213405609130859-.040245056152344-9.441902160644531-2.655975341796875-19.205741882324219-5.405532836914062-28.882545471191406.040245056152344-.211036682128906.118850708007812-.286373138427734.387443542480469-.167519569396973.598953247070312.057555198669434.102943420410156.151609420776367.1768798828125.264848709106445.208694458007812.112771034240723.029014587402344.231157302856445.016845703125.334102630615234-.040245056152344,3.96571159362793-2.232963562011719,7.896327018737793-3.057456970214844,11.846123695373535-3.057456970214844Z"/>
  </g>
</svg>