<?xml version="1.0" encoding="UTF-8"?>
<svg id="Layer_1" xmlns="http://www.w3.org/2000/svg" version="1.1" viewBox="0 0 45 45">
  <!-- Generator: Adobe Illustrator 29.3.1, SVG Export Plug-In . SVG Version: 2.1.0 Build 151)  -->
  <defs>
    <style>
      .st0 {
        fill: #778495;
      }
    </style>
  </defs>
  <path class="st0" d="M24.7,43.6c6.6-3.1,11.4-11.4,11.4-21.1S31.4,4.5,24.8,1.4c4.6,4.6,7.6,12.3,7.6,21.1,0,8.8-3,16.5-7.6,21.1"/>
  <path class="st0" d="M24.8.5c.1,0,.3,0,.4,0,1.8.9,3.4,2,4.8,3.4,1.5,1.5,2.8,3.2,3.8,5,2.2,4.1,3.3,8.8,3.3,13.4,0,4.7-1.1,9.3-3.3,13.4-1,1.9-2.3,3.5-3.8,5-1.4,1.4-3,2.6-4.8,3.4-.4.2-.9,0-1.1-.3-.2-.4-.2-.8,0-1.1,4.6-4.6,7.3-12.3,7.3-20.5,0-8.2-2.7-15.9-7.3-20.5-.3-.3-.3-.9,0-1.3.2-.2.4-.3.6-.3h0ZM29,39.4c3.9-4,6.3-10.2,6.3-16.9s-2.4-12.9-6.3-16.9c.8,1.4,1.5,3,2.1,4.5,1.4,4,2.1,8.2,2.1,12.4,0,4.2-.7,8.4-2.1,12.4-.6,1.6-1.3,3.1-2.1,4.5Z"/>
  <path class="st0" d="M17,37.9c4.8-2.3,8.3-8.3,8.3-15.4s-3.4-13.1-8.3-15.4c3.3,3.4,5.5,9,5.5,15.4s-2.2,12-5.5,15.4"/>
  <path class="st0" d="M17,6.2c.1,0,.3,0,.4,0,2.7,1.4,5,3.6,6.4,6.3,1.6,3,2.5,6.5,2.4,9.9,0,3.5-.8,6.9-2.4,9.9-1.4,2.7-3.6,4.9-6.4,6.3-.4.2-.9,0-1.1-.3-.2-.4-.2-.8,0-1.1,3.3-3.3,5.3-8.8,5.3-14.8s-2-11.5-5.3-14.8c-.3-.3-.3-.9,0-1.3.2-.2.4-.3.6-.3h0ZM21.3,33c2.1-3.1,3.2-6.8,3.1-10.5,0-3.7-1-7.4-3.1-10.5.2.5.4.9.6,1.4,1,2.9,1.6,6,1.6,9.1,0,3.1-.5,6.2-1.6,9.1-.2.5-.4.9-.6,1.4Z"/>
  <path class="st0" d="M8.8,35c3.9-1.9,6.7-6.7,6.7-12.5s-2.8-10.6-6.7-12.5c2.7,2.7,4.5,7.3,4.5,12.5s-1.8,9.7-4.5,12.5"/>
  <path class="st0" d="M8.9,9.1c.1,0,.3,0,.4,0,2.2,1.1,4.1,2.9,5.2,5.2,1.3,2.5,2,5.3,2,8.1,0,2.8-.7,5.6-2,8.1-1.2,2.2-3,4-5.2,5.2-.4.2-.9,0-1.1-.3-.2-.4-.2-.8,0-1.1,2.6-2.7,4.2-7.1,4.2-11.8s-1.6-9.2-4.2-11.8c-.3-.3-.3-.9,0-1.3.2-.2.4-.3.6-.3h0ZM13.2,29.3c1-2.1,1.5-4.4,1.5-6.8,0-2.4-.5-4.7-1.5-6.8.7,2.2,1.1,4.5,1,6.8,0,2.3-.3,4.6-1,6.8Z"/>
</svg>