<?xml version="1.0" encoding="UTF-8"?>
<svg id="Layer_1" data-name="Layer 1" xmlns="http://www.w3.org/2000/svg" viewBox="0 0 100 80">
  <defs>
    <style>
      .cls-1 {
        fill: #778495;
      }

      .cls-2 {
        fill: #aebed3;
      }
    </style>
  </defs>
  <path class="cls-1" d="M8.370000953087583,50.212499550034408v-19.299999237059637h8.319000035524368c.903141975402832-.007736206054688,1.795914649963379.192787170410156,2.609000205993652.586000442504883.773520469665527.371345520019531,1.469772338867188.885730743408203,2.052000045776367,1.516000747680664.573091506958008.6302490234375,1.028622627258301,1.358081817626953,1.345000267028809,2.14900016784668.318634986877441.771797180175781.484696388244629,1.598026275634766.48900032043457,2.433000564575195-.005765914916992,1.706056594848633-.627991676330566,3.3525390625-1.751999855041504,4.63599967956452-.560552597045898.633279800415039-1.245869636535645,1.143947601318359-2.01300048828125,1.5-.814579963684082.37571907043457-1.703041076660156.564004898071289-2.600000381469727.551000595092773h-3.14900016784668v5.926998138427734l-5.299999982118607.001998901367188ZM13.67000093520619,39.664499214341959h2.800000190734863c.353748321533203-.012233734130859.685340881347656-.175300598144531.91100025177002-.447999954223633.328421592712402-.472248077392578.475747108459473-1.046995162963867.414999961853027-1.618999481201172.069036483764648-.588350296020508-.109127998352051-1.178972244262695-.492000579833984-1.631000518798828-.260310173034668-.259881973266602-.60765266418457-.41413688659668-.975000381469727-.433000564575195h-2.658999443054199v4.131000518798828Z"/>
  <path class="cls-1" d="M39.905001374194399,50.212499550034408v-10.165998458861395l-3.235000610351562,7.150999069212958h-2.826999664306641l-3.235000610351562-7.149999618529364v10.164999008177801h-5.300000190734863v-19.299999237059637h5.789000511169434l4.156000137329102,9.084999084472656,4.187999725341797-9.079999923706055h5.76300048828125v19.299997329711005l-5.298999786376953-.004997253417969Z"/>
  <path class="cls-1" d="M53.959000321337953,50.213495186020737c-.009868621826172-1.095142364501953.043216705322266-2.189949035644531.159000396728516-3.278999328613281.088638305664062-.857830047607422.308536529541016-1.696949005126953.652000427246094-2.487998962402344.335281372070312-.732570648193359.823963165283203-1.384601593017578,1.432998657226562-1.91200065612793.750473022460938-.634126663208008,1.585464477539062-1.160837173461914,2.480998992919922-1.565000534056708.562667846679688-.271333694458008,1.096000671386719-.538000106811523,1.599998474121094-.799999237060547.474620819091797-.242153167724609.925003051757812-.529125213623047,1.345001220703125-.857000350952148.368316650390625-.284814834594727.681465148925781-.634563446044922.923999786376953-1.031999588012695.230731964111328-.39564323425293.348346710205078-.847068786621094.340000152587891-1.305000305175781.0621337890625-.509529113769531-.138130187988281-1.015838623046875-.532001495361328-1.344999313354492-.365039825439453-.249347686767578-.799041748046875-.378044128417969-1.241001129150391-.368000030517578-.749813079833984.013315200805664-1.483486175537109.21998405456543-2.130001068115234.600000381469727-.676410675048828.370023727416992-1.30224609375.825786590576172-1.86199951171875,1.355998992919922l-3.180000305175781-3.445999145507812c.403659820556641-.434633255004883.855583190917969-.821802139282227,1.347000122070312-1.153999328613281.571083068847656-.393264770507812,1.18133544921875-.726373672485352,1.820999145507812-.993999481201172.714511871337891-.299922943115234,1.457199096679688-.527721405029297,2.216999053955078-.680000305175781.831878662109375-.166938781738281,1.678546905517578-.249027252197266,2.527000427246094-.245000839233398,1.847854614257812-.119903564453125,3.674453735351562.450239181518555,5.125999450683594,1.600000381469727,1.255970001220703,1.186519622802734,1.920158386230469,2.869527816772461,1.812999725341797,4.593999862670898.010951995849609.662141799926758-.075984954833984,1.322271347045898-.257999420166016,1.958999633789062-.162841796875.54142951965332-.41571044921875,1.051565170288086-.748001098632812,1.509000778198242-.3433837890625.461248397827148-.748886108398438.872812271117255-1.204990386962891,1.222999572752997-.514511108398438.394058227539062-1.055076599121094.752876281738281-1.618000030517578,1.073999404907227l-1.168998718261719.666000366210938c-.372196197509766.206747055053711-.730915069580078.436874389648438-1.074001312255859.688999176025391-.292236328125.211244583129883-.553150177001953.462732315063477-.775001525878906.746999740600586-.188991546630859.2347412109375-.294532775878906.52568244934082-.299999237060547.826999664306641h7.175998687744141v4.622001647949219l-14.868999481201172.003997802734375Z"/>
  <path class="cls-1" d="M85.470000000903383,37.54449837510856c.882087707519531-.010068893432617,1.758132934570312.146682739257812,2.582000732421875.461999893188477.7540283203125.292648315429688,1.442615509033203.731767654418945,2.0260009765625,1.291999816894531.577854156494141.562871932983398,1.03216552734375,1.239910125732422,1.333995819091797,1.988000869750067.657798767089844,1.688692092895508.633415222167969,3.56695556640625-.068000793457031,5.238000869750977-.353534698486328.801136016845703-.878143310546875,1.515178680419922-1.536998748779297,2.091999053955078-.694950103759766.598735809326172-1.497589111328125,1.059616088867188-2.365001678466797,1.358001708984375-2.24298095703125.744979858398438-4.681720733642578.638191223144531-6.850997924804688-.299999237060547-1.076175689697266-.477584838867188-1.987300872802734-1.262424468994141-2.618999481201172-2.256000518798828l2.826999664306641-3.26300048828125c.498893737792969.54258918762207,1.092620849609375.989580154418945,1.751998901367188,1.319000244140625.584613800048828.303073883056641,1.231582641601562.466354370117188,1.889999389648438.477001190185547.577510833740234.031856536865234,1.144142150878906-.166248321533203,1.576000213623047-.551000595092773.390548706054688-.385791778564453.598224639892578-.919710159301758.570999145507812-1.468000411987305.025337219238281-.529069900512695-.160232543945312-1.046585083007812-.515998840332031-1.438999176025391-.354145050048828-.369626998901367-.849456787109375-.570154190063477-1.361000061035156-.551000595092773-.365009307861328-.003948211669922-.725006103515625.085189819335938-1.046001434326172.259000778198242-.301372528076172.155860900878906-.551628112792969.395009994506836-.721000671386719.688999176025391h-4.431995391845703l2.284000396728516-12.017000198363348h9.678001403808594v4.69999885559082h-5.962001800537109l-.299999237060547,2.094999313354492c.071998596191406-.017999649047852.172000885009766-.035999298095703.299999237060547-.054000854492188.090999603271484-.017999649047852.217998504638672-.03700065612793.380001068115234-.054000854492188.189613342285156-.020706176757812.380264282226562-.030389785766602.570999145507812-.028999328613281"/>
  <path class="cls-2" d="M15.590000840136781,18.887497833421548c0,2.094816207885742-1.698184490203857,3.793000221252441-3.793000459671021,3.792999267578125-2.094815969467163,0-3.792999685625546-1.698184013366699-3.792999450583011-3.793000221252441.000000234926119-2.094425201416016,1.697574560064822-3.792447090148926,3.791999999899417-3.792999267578125h.006999969482422c2.092243909835815.003859996795654,3.786452054977417,1.700752735137939,3.786999940872192,3.793000221252441"/>
  <path class="cls-2" d="M29.735001774737611,18.887497833421548c0,2.094816207885742-1.698184967041016,3.793000221252441-3.793000221252441,3.792999267578125-2.094816207885742,0-3.793000221252441-1.698184013366699-3.792999267578125-3.793000221252441,0-2.094424724578857,1.697573661804199-3.792446613311768,3.791998863220215-3.792999267578125,2.094816207885742,0,3.792999267578125,1.698184490203857,3.792999267578125,3.793000221252441"/>
  <path class="cls-2" d="M22.806000443408266,10.975500753572305c0,2.094815969467163-1.698184013366699,3.792999982833862-3.793000221252441,3.792999982833862-2.094815731048584-.000000476837158-3.792999744415283-1.698184490203857-3.792999744415283-3.793000459671021,0-2.094425439834595,1.697575092315674-3.792447520652786,3.792000293731689-3.792999505996704,2.094816207885742,0,3.793000221252441,1.69818389415741,3.793000221252441,3.792999982833862,0,0,0-.000000238418579,0,0"/>
  <path class="cls-2" d="M84.410000534961,61.109506538559799c0-2.094814300537109,1.698184967041016-3.792999267578125,3.792999267578125-3.792999267578125s3.792999267578125,1.69818115234375,3.792999267578125,3.792999267578125c0,2.094814300537109-1.69818115234375,3.792999267578125-3.792999267578125,3.792999267578125h0c-2.094814300537109,0-3.792999267578125-1.698184967041016-3.792999267578125-3.792999267578125"/>
  <path class="cls-2" d="M70.271000595996156,61.109506538559799c0-2.094814300537109,1.698184967041016-3.792999267578125,3.792999267578125-3.792999267578125s3.792999267578125,1.69818115234375,3.792999267578125,3.792999267578125c0,2.094814300537109-1.69818115234375,3.792999267578125-3.792999267578125,3.792999267578125h0c-2.094814300537109,0-3.792999267578125-1.698184967041016-3.792999267578125-3.792999267578125"/>
  <path class="cls-2" d="M77.201000901171938,69.01749985521019c.003864288330078-2.094814300537109,1.705181121826172-3.789859771728516,3.799991607666016-3.785995483398438,2.094814300537109.003868103027344,3.789859771728516,1.705181121826172,3.785995483398438,3.799995422363281-.003860473632812,2.091686248779297-1.700298309326172,3.785446166992188-3.791988372802734,3.785999298095703-2.094814300537109.000556945800781-3.793449401855469-1.697177886962891-3.79400634765625-3.791996002197266,0-.002666473388672.000003814697266-.005336761474609.000007629394531-.008003234863281"/>
</svg>