<?xml version="1.0" encoding="UTF-8"?>
<svg id="Layer_1" data-name="Layer 1" xmlns="http://www.w3.org/2000/svg" viewBox="0 0 100 80">
  <defs>
    <style>
      .cls-1 {
        fill: #778495;
      }

      .cls-2 {
        fill: #aebed3;
      }
    </style>
  </defs>
  <path class="cls-2" d="M55.095645904541016,19.933511734008789h-5.090000152587891c-.992179870605469-.061962127685547-1.746269226074219-.916511535644531-1.684310913085938-1.90869140625.056564331054688-.905755996704102.778553009033203-1.627744674682617,1.684310913085938-1.684309005737305h5.090000152587891c.992179870605469.061962127685547,1.746273040771484.916511535644531,1.684307098388672,1.90869140625-.056564331054688.905754089355469-.778553009033203,1.627744674682617-1.684310913085938,1.684309005737305"/>
  <path class="cls-2" d="M55.095645904541016,29.079511642456055h-5.090000152587891c-.992179870605469-.061962127685547-1.746269226074219-.916511535644531-1.684310913085938-1.90869140625.056564331054688-.905754089355469.778553009033203-1.627744674682617,1.684310913085938-1.684309005737305h5.090000152587891c.992179870605469-.061962127685547,1.846729278564453.692129135131836,1.90869140625,1.684309005737305s-.692127227783203,1.846729278564453-1.684307098388672,1.90869140625c-.074722290039062.004665374755859-.149662017822266.004665374755859-.224380493164062,0"/>
  <path class="cls-2" d="M55.095645904541016,38.219509124755859h-5.090000152587891c-.992179870605469-.061962127685547-1.746269226074219-.916511535644531-1.684310913085938-1.90869140625.056564331054688-.905754089355469.778553009033203-1.627742767333984,1.684310913085938-1.684307098388672h5.090000152587891c.992179870605469.061962127685547,1.746273040771484.916511535644531,1.684307098388672,1.90869140625-.056564331054688.905754089355469-.778553009033203,1.62774658203125-1.684310913085938,1.684310913085938"/>
  <path class="cls-1" d="M50.021644592285156,79.965499877929688c-8.708423614501953.004875183105469-15.771949768066406-7.050743103027344-15.776824951171875-15.759170532226562-.000896453857422-1.601413726806641.242166519165039-3.193622589111328.720823287963867-4.721828460693359,1.126655578613281-3.626640319824219,3.534915924072266-6.719165802001953,6.774999618530273-8.700000762939453V8.29749870300293c.005508422851562-4.560854434967041,3.701145172119141-8.256937980651855,8.262001037597656-8.262999534606934h0c4.561016082763672.005507186055183,8.257389068603516,3.700983762741089,8.263999938964844,8.26200008392334v42.482995986938477c7.410579681396484,4.573833465576172,9.710216522216797,14.28912353515625,5.136383056640625,21.69970703125-2.865158081054688,4.642166137695312-7.926235198974609,7.473617553710938-13.381381988525391,7.486297607421875M50.003646850585938,3.627498865127563h0c-2.576171875.006054162979126-4.662601470947266,2.093825101852417-4.666999816894531,4.669999837875366v44.614999771118164l-.964000701904297.5c-5.955875396728516,3.110275268554688-8.262687683105469,10.459842681884766-5.152412414550781,16.415718078613281,3.110275268554688,5.95587158203125,10.459842681884766,8.262687683105469,16.415718078613281,5.152412414550781,2.861839294433594-1.4945068359375,5.012271881103516-4.065277099609375,5.977695465087891-7.146125793457031,1.757450103759766-5.619068145751953-.759441375732422-11.690433502197266-5.977001190185547-14.418003082275391l-.965000152587891-.5V8.29749870300293c-.002754211425781-2.578579425811768-2.092422485351562-4.668243885040283-4.670997619628906-4.671000003814697"/>
</svg>