<?xml version="1.0" encoding="UTF-8"?>
<svg id="Layer_1" data-name="Layer 1" xmlns="http://www.w3.org/2000/svg" viewBox="0 0 100 80">
  <defs>
    <style>
      .cls-1 {
        fill: #778495;
      }

      .cls-2 {
        fill: #aebed3;
      }
    </style>
  </defs>
  <path class="cls-1" d="M67.312709808349609,80h-34.627092361450195v-3.73974609375h34.627096176147461s0,3.73974609375-.000003814697266,3.73974609375Z"/>
  <path class="cls-2" d="M64.368152618408203,66.208221435546875h-28.736993789672852v-2.110992431640625c.011379241943359-6.384006500244141-2.08892822265625-12.592544555664062-5.973751068115234-17.658489227294922-2.458381652832031-3.119621276855469-4.324295997619629-6.663318634033203-5.505297660827637-10.455539703369141-1.209074974060059-3.842350006103516-1.739258766174316-7.866024017333984-1.566756248474121-11.890422821044922.010890007019043-1.8743896484375.242111206054688-3.741001129150391.688899993896484-5.561395645141602.930178642272949-4.081663131713867,2.929433822631836-7.8424072265625,5.792669296264648-10.89643669128418,2.277788162231445-2.350033760070801,5.033451080322266-4.18378734588623,8.080804824829102-5.377360820770264C41.167045593261719.734414398670197,45.433834075927734-.030717266723514,49.731967926025391.000943862251006h.539310455322266c4.299209594726562-.029500170028768,8.566665649414062.737966753193177,12.586212158203125,2.263530291267671,3.047458648681641,1.194287061691284,5.803112030029297,3.028703927993774,8.080802917480469,5.379328489303589,2.860992431640625,3.053763389587402,4.858489990234375,6.813383102416992,5.787750244140625,10.893484115600586.446693420410156,1.819744110107422.677909851074219,3.685691833496094.68890380859375,5.559427261352539.171661376953125,4.024503707885742-.359184265136719,8.048145294189453-1.5687255859375,11.890422821044922-1.1800537109375,3.790931701660156-3.044620513916016,7.333602905273438-5.501361846923828,10.452590942382812-3.885879516601562,5.065567016601562-5.987236022949219,11.274135589599609-5.976703643798828,17.658485412597656,0,0,0,2.110008239746094-.000003814697266,2.110008239746094ZM39.324649810791016,62.468475341796875h21.349029541015625c.313255310058594-6.657260894775391,2.662216186523438-13.0579833984375,6.729576110839844-18.337547302246094l.005905151367188-.00787353515625c4.413154602050781-5.675270080566406,6.638523101806641-12.748172760009766,6.269977569580078-19.927923202514648v-.139747619628906c-.015583038330078-1.613367080688477-.224063873291016-3.219083786010742-.620994567871094-4.782938003540039-.777542114257812-3.404626846313477-2.452877044677734-6.538825988769531-4.851829528808594-9.076755523681641-4.037940979003906-4.196393489837646-10.082553863525391-6.367413997650146-17.965541839599609-6.455002784729004h-.479278564453125c-7.902671813964844.086604595184326-13.957124710083008,2.263530254364014-17.995065689086914,6.481569290161133-3.436420440673828,3.794637680053711-5.371057510375977,8.712235450744629-5.441329956054688,13.831154823303223v.141717910766602c-.369369506835938,7.179538726806641,1.855319976806641,14.252506256103516,6.268011093139648,19.927921295166016l.006889343261719.00787353515625c4.065485000610352,5.280220031738281,6.412693023681641,11.680850982666016,6.724651336669922,18.337551116943359Z"/>
</svg>