<svg xmlns="http://www.w3.org/2000/svg" width="83.993" height="65.631" viewBox="0 0 83.993 65.631"><path d="M.266,36.515v-19.3H8.585a5.877,5.877,0,0,1,2.609.586,6.8,6.8,0,0,1,2.052,1.516,7.131,7.131,0,0,1,1.345,2.149,6.463,6.463,0,0,1,.489,2.433,7.073,7.073,0,0,1-1.752,4.636,6.141,6.141,0,0,1-2.013,1.5,6,6,0,0,1-2.6.551H5.566v5.927Zm5.3-10.548h2.8a1.238,1.238,0,0,0,.911-.448A2.393,2.393,0,0,0,9.692,23.9,2.138,2.138,0,0,0,9.2,22.269a1.488,1.488,0,0,0-.975-.433H5.566Z" transform="translate(0.101 6.515)" fill="#778495"/><path d="M27.152,36.515V26.349L23.917,33.5H21.09l-3.235-7.15V36.515h-5.3v-19.3h5.789L22.5,26.3l4.188-9.08h5.763v19.3Z" transform="translate(4.75 6.515)" fill="#778495"/><path d="M33.341,36.579A28.58,28.58,0,0,1,33.5,33.3a8.42,8.42,0,0,1,.652-2.488A5.627,5.627,0,0,1,35.585,28.9a10.6,10.6,0,0,1,2.481-1.565q.844-.407,1.6-.8a8.36,8.36,0,0,0,1.345-.857,3.82,3.82,0,0,0,.924-1.032,2.5,2.5,0,0,0,.34-1.305,1.514,1.514,0,0,0-.532-1.345,2.115,2.115,0,0,0-1.241-.368,4.356,4.356,0,0,0-2.13.6,8.962,8.962,0,0,0-1.862,1.356l-3.18-3.446a7.8,7.8,0,0,1,1.347-1.154,10.05,10.05,0,0,1,1.821-.994,11.636,11.636,0,0,1,2.217-.68,12.541,12.541,0,0,1,2.527-.245,7.476,7.476,0,0,1,5.126,1.6,5.823,5.823,0,0,1,1.813,4.594,6.723,6.723,0,0,1-.258,1.959,5.035,5.035,0,0,1-.748,1.509A6.239,6.239,0,0,1,45.97,27.95a14.377,14.377,0,0,1-1.618,1.074l-1.169.666a10.077,10.077,0,0,0-1.074.689,3.827,3.827,0,0,0-.775.747,1.358,1.358,0,0,0-.3.827H48.21v4.622Z" transform="translate(12.615 6.452)" fill="#778495"/><path d="M58.258,23.858a7,7,0,0,1,2.582.462,6.124,6.124,0,0,1,2.026,1.292A5.81,5.81,0,0,1,64.2,27.6a6.984,6.984,0,0,1-.068,5.238,6,6,0,0,1-1.537,2.092,7.223,7.223,0,0,1-2.365,1.358,9.62,9.62,0,0,1-6.851-.3,5.976,5.976,0,0,1-2.619-2.256l2.827-3.263a6.058,6.058,0,0,0,1.752,1.319,4.256,4.256,0,0,0,1.89.477,2.188,2.188,0,0,0,1.576-.551,1.929,1.929,0,0,0,.571-1.468,2,2,0,0,0-.516-1.439,1.792,1.792,0,0,0-1.361-.551,2.148,2.148,0,0,0-1.046.259,1.771,1.771,0,0,0-.721.689H51.3l2.284-12.017h9.678v4.7H57.3L57,23.982c.072-.018.172-.036.3-.054.091-.018.218-.037.38-.054a4.929,4.929,0,0,1,.571-.029" transform="translate(19.209 6.504)" fill="#778495"/><path d="M7.587,9.533A3.793,3.793,0,1,1,3.793,5.74H3.8A3.794,3.794,0,0,1,7.587,9.533" transform="translate(0 2.172)" fill="#aebed3"/><path d="M17.849,9.533A3.793,3.793,0,1,1,14.055,5.74a3.793,3.793,0,0,1,3.793,3.793" transform="translate(3.883 2.172)" fill="#aebed3"/><path d="M12.822,3.793A3.793,3.793,0,1,1,9.028,0a3.793,3.793,0,0,1,3.793,3.793" transform="translate(1.981 0)" fill="#aebed3"/><path d="M55.43,40.163a3.793,3.793,0,1,1,3.793,3.793,3.793,3.793,0,0,1-3.793-3.793" transform="translate(20.977 13.764)" fill="#aebed3"/><path d="M45.173,40.163a3.793,3.793,0,1,1,3.793,3.793,3.793,3.793,0,0,1-3.793-3.793" transform="translate(17.095 13.764)" fill="#aebed3"/><path d="M50.2,45.9A3.793,3.793,0,1,1,53.994,49.7,3.793,3.793,0,0,1,50.2,45.9" transform="translate(18.998 15.935)" fill="#aebed3"/></svg>