<?xml version="1.0" encoding="UTF-8"?>
<svg id="Layer_1" xmlns="http://www.w3.org/2000/svg" version="1.1" viewBox="0 0 45 45">
  <!-- Generator: Adobe Illustrator 29.3.1, SVG Export Plug-In . SVG Version: 2.1.0 Build 151)  -->
  <defs>
    <style>
      .st0 {
        fill: #778495;
      }
    </style>
  </defs>
  <path class="st0" d="M29.5,7.7c-.8-.3-1.7,0-2,.8-.3.8,0,1.7.8,2,0,0,0,0,0,0,8.2,3.2,12.3,12.5,9,20.7-3.2,8.2-12.5,12.3-20.7,9-8.2-3.2-12.3-12.5-9-20.7,1.6-4.1,4.9-7.4,9-9,.8-.3,1.2-1.2.9-2s-1.2-1.2-2-.9c0,0,0,0,0,0C5.7,11.5.9,22.6,4.7,32.4c3.8,9.8,14.9,14.7,24.7,10.8,9.8-3.8,14.7-14.9,10.8-24.7-1.9-5-5.9-8.9-10.8-10.8Z"/>
  <path class="st0" d="M22.5.5c-.9,0-1.5.7-1.6,1.5,0,0,0,0,0,0v13.2c0,.9.7,1.6,1.6,1.6.9,0,1.5-.7,1.6-1.6V2.1c0-.9-.7-1.5-1.5-1.6,0,0,0,0,0,0Z"/>
</svg>