<?xml version="1.0" encoding="UTF-8"?>
<svg id="Layer_1" data-name="Layer 1" xmlns="http://www.w3.org/2000/svg" viewBox="0 0 100 80">
  <defs>
    <style>
      .cls-1 {
        fill: #778495;
      }

      .cls-2 {
        fill: #aebed3;
      }
    </style>
  </defs>
  <path class="cls-2" d="M69.437602769003206,25.754005217340818c-6.656002044677734,0-13.259998321533203-1.857999801635742-19.739002227783203-3.680999755859375-11.319999694824219-3.186000823974609-22.013999938964844-6.194000244140625-32.846000671386719-.100000381469727-.533342361450195.271955490112305-1.186164855957031.06005859375-1.458120346069336-.473283767700195-.256375312805176-.502788543701172-.084067821502686-1.118167877197266.396122455596924-1.414716720581055,11.614999294281006-6.53700065612793,23.246999263763428-3.263999938964844,34.500001430511475-.100000381469727,11.318000793457031,3.186000823974609,22.012001037597656,6.194000244140625,32.845996856689453.100000381469727.530258178710938-.277914047241211,1.185417175292969-.073345184326172,1.463333129882812.456916809082031.26641845703125.508335113525391.0904541015625,1.136234283447266-.401336669921875,1.432083129882812-4.501594543457031,2.53791618347168-9.593643188476562,3.841886520385742-14.760997772216797,3.780000686645508"/>
  <path class="cls-2" d="M69.447146131493355,26.254005217340818c-6.726001739501953,0-13.409999847412109-1.881000518798828-19.875-3.700000762939453-6.584999084472656-1.849000930786133-12.805000305175781-3.604000091552734-19.007999420166016-3.604000091552734-4.712242126464844-.053075790405273-9.354761123657227,1.140584945678711-13.457000732421875,3.459999084472656-.761176109313965.430061340332031-1.726865291595459.161640167236328-2.156927108764648-.599536895751953-.001028060913086-.001819610595703-.002052307128906-.003641128540039-.003072738647461-.005464553833008-.429982662200928-.759952545166016-.162489414215088-1.724584579467773.59746265411377-2.154567718505859.000845432281494-.000478744506836.001691341400146-.000955581665039.002537727355957-.001432418823242,4.573928833007812-2.580696105957031,9.748631477355957-3.90679931640625,15-3.843999862670898,6.725000381469727,0,13.409997940063477,1.881000518798828,19.874998092651367,3.700000762939453,6.583999633789062,1.853000640869141,12.799999237060547,3.600000381469727,19.007999420166016,3.600000381469727,4.715221405029297.055730819702148,9.361309051513672-1.136581420898438,13.467006683349609-3.455999374389648.760704040527344-.429773330688477,1.725776672363281-.161497116088867,2.155548095703125.599206924438477.000152587890625.000263214111328.000297546386719.000528335571289.000450134277344.00079345703125.429985046386719.761220932006836.161460876464844,1.726882934570312-.599761962890625,2.156864166259766-.000076293945312.000045776367188-.000160217285156.000089645385742-.000236511230469.00013542175293-4.575309753417969,2.58311653137207-9.752243041992188,3.910640716552734-15.006004333496094,3.848001480102539ZM30.563147260643746,17.954004072931639c6.340999603271484,0,12.625999450683594,1.768999099731445,19.279998779296875,3.641000747680664,6.400001525878906,1.799999237060547,13.014999389648438,3.663000106811523,19.599998474121094,3.663000106811523,5.081920623779297.06175422668457,10.089824676513672-1.221269607543945,14.516002655029297-3.718999862670898.284736633300781-.151504516601562.392738342285156-.505149841308594.241233825683594-.789884567260742s-.505149841308594-.392740249633789-.789886474609375-.241235733032227c-.007881164550781.004194259643555-.015663146972656.008567810058594-.023345947265625.013118743896484-4.252250671386719,2.402959823608398-9.064064025878906,3.639377593994141-13.947998046875,3.583999633789062-6.341999053955078,0-12.625999450683594-1.769001007080078-19.278999328613281-3.640998840332031-6.399002075195312-1.797000885009766-13.013002395629883-3.659000396728516-19.604001998901367-3.659000396728516-5.079297065734863-.061574935913086-10.084644317626953,1.220378875732422-14.508999824523926,3.715999603271484-.286269664764404.148586273193359-.397883892059326.501106262207031-.249297142028809.787376403808594s.501107215881348.397884368896484.78737735748291.249298095703125c.011861801147461-.006156921386719.023508548736572-.012718200683594.034920215606689-.019674301147461,4.250473499298096-2.404205322265625,9.060987949371338-3.642023086547852,13.944000720977783-3.58799934387207,0,0-.000999450683594.003999710083008-.001003265380859.003999710083008Z"/>
  <path class="cls-1" d="M69.439997184241292,45.268001341608397c-6.657001495361328,0-13.260997772216797-1.858001708984375-19.740001678466797-3.680999755859375-11.319999694824219-3.186000823974609-22.013999938964844-6.194000244140625-32.846000671386719-.099998474121094-.532271385192871.2740478515625-1.185920238494873.064712524414062-1.459965705871582-.467559814453125-.260082244873047-.505149841308594-.085990428924561-1.125404357910156.398967266082764-1.421440124511719,11.61799955368042-6.538002014160156,23.247998714447021-3.264999389648438,34.500001430511475-.099998474121094,11.320999145507812,3.185001373291016,22.013999938964844,6.194000244140625,32.845996856689453.099998474121094.530265808105469-.277912139892578,1.185417175292969-.073341369628906,1.463333129882812.456920623779297.26641845703125.508335113525391.0904541015625,1.136226654052734-.401336669921875,1.432079315185547-4.501434326171875,2.538440704345703-9.593528747558594,3.8427734375-14.760997772216797,3.780998229980469"/>
  <path class="cls-1" d="M69.447146905500631,45.768001341608397c-6.727001190185547,0-13.411998748779297-1.881000518798828-19.875999450683594-3.700000762939453-6.58599853515625-1.853000640869141-12.805999755859375-3.600002288818359-19.009000778198242-3.600002288818359-4.71129322052002-.053634643554688-9.353059768676758,1.13897705078125-13.455000877380371,3.457000732421875-.761441230773926.429592132568359-1.726964950561523.160575866699219-2.156557083129883-.600868225097656-.001152038574219-.002040863037109-.002299785614014-.004085540771484-.003443241119385-.006134033203125-.429982662200928-.759952545166016-.162489891052246-1.724586486816406.597462177276611-2.154567718505859.000845432281494-.000476837158203.001691341400146-.000957489013672.002537727355957-.001430511474609,4.573832511901855-2.581047058105469,9.748539924621582-3.907493591308594,15-3.845001220703125,6.727001190185547,0,13.409999847412109,1.881000518798828,19.873001098632812,3.700000762939453,6.588001251220703,1.854000091552734,12.809001922607422,3.600002288818359,19.009998321533203,3.600002288818359,4.715183258056641.056465148925781,9.361370086669922-1.135532379150391,13.467006683349609-3.455001831054688.761085510253906-.429351806640625,1.726119995117188-.160789489746094,2.155998229980469.599998474121094.429985046386719.761222839355469.161460876464844,1.726882934570312-.599761962890625,2.156864166259766-.000076293945312.000045776367188-.000160217285156.000087738037109-.000236511230469.000133514404297-4.575210571289062,2.583465576171875-9.752151489257812,3.911334991455078-15.006004333496094,3.849006652832031ZM30.562148583967428,37.46800210454785c6.340999603271484,0,12.625999450683594,1.769001007080078,19.279998779296875,3.640998840332031,6.400001525878906,1.799999237060547,13.014999389648438,3.662998199462891,19.599998474121094,3.662998199462891,5.079975128173828.061927795410156,10.086063385009766-1.220035552978516,14.511005401611328-3.715999603271484.286270141601562-.148582458496094.39788818359375-.501102447509766.249305725097656-.787372589111328-.148574829101562-.286270141601562-.5010986328125-.397891998291016-.787368774414062-.249309539794922-.011863708496094.006160736083984-.023521423339844.012722015380859-.034934997558594.019683837890625-4.249198913574219,2.402652740478516-9.057861328125,3.639751434326172-13.939002990722656,3.586002349853516-6.339000701904297,0-12.624000549316406-1.767997741699219-19.278999328613281-3.639999389648438-6.400001525878906-1.799999237060547-13.015998840332031-3.66400146484375-19.600000381469727-3.66400146484375-5.08103084564209-.063358306884766-10.088518142700195,1.217578887939453-14.515000343322754,3.713001251220703-.281112670898438.158229827880859-.380729198455811.514385223388672-.222499847412109.795497894287109s.514387130737305.380729675292969.795499801635742.222499847412109c4.250473976135254-2.404205322265625,9.06098747253418-3.642021179199219,13.944001197814941-3.588001251220703,0,0-.001998901367188.003997802734375-.002002716064453.004001617431641Z"/>
  <path class="cls-1" d="M69.435389511951144,63.695010924127928c-6.657001495361328,0-13.260997772216797-1.859001159667969-19.740001678466797-3.680999755859375-11.319000244140625-3.187000274658203-22.01300048828125-6.199996948242188-32.846000671386719-.099998474121094-.534858703613281.268959045410156-1.186483383178711.05340576171875-1.4554443359375-.481452941894531-.251607418060303-.500350952148438-.080642223358154-1.109992980957031.394445896148682-1.406547546386719,11.613999843597412-6.535999298095703,23.245999813079834-3.263999938964844,34.500001430511475-.099998474121094,11.320999145507812,3.186000823974609,22.013999938964844,6.199996948242188,32.845996856689453.099998474121094.530265808105469-.277912139892578,1.185417175292969-.073341369628906,1.463333129882812.456920623779297.26641845703125.508335113525391.0904541015625,1.13623046875-.401336669921875,1.432079315185547-4.50152587890625,2.538093566894531-9.593620300292969,3.842079162597656-14.760997772216797,3.779998779296875"/>
  <path class="cls-1" d="M69.446932051709155,64.195010924127928c-6.720001220703125,0-13.399997711181641-1.877998352050781-19.856998443603516-3.694999694824219l-.019001007080078-.004997253417969c-6.583999633789062-1.85400390625-12.804000854492188-3.605003356933594-19.006999969482422-3.605003356933594-4.71204662322998-.053024291992188-9.354313850402832,1.141010284423828-13.456000328063965,3.46099853515625-.760317802429199.430458068847656-1.725632190704346.163055419921875-2.156089782714844-.597263336181641-.001646041870117-.002910614013672-.00328254699707-.005817413330078-.004909992218018-.008739471435547-.429563999176025-.760189056396484-.161540031433105-1.724674224853516.598648548126221-2.15423583984375.000450134277344-.000255584716797.000900745391846-.000511169433594.001351356506348-.000762939453125,4.573928833007812-2.580696105957031,9.748631477355957-3.90679931640625,15-3.844001770019531,6.724000930786133,0,13.407999038696289,1.879997253417969,19.871999740600586,3.700000762939453,6.589000701904297,1.854000091552734,12.810001373291016,3.604999542236328,19.01300048828125,3.604999542236328,4.715057373046875.054328918457031,9.360557556152344-1.139736175537109,13.465003967285156-3.46099853515625.761085510253906-.429351806640625,1.726119995117188-.160789489746094,2.155998229980469.599998474121094.429985046386719.761222839355469.161460876464844,1.726882934570312-.599761962890625,2.156864166259766-.000076293945312.000045776367188-.000160217285156.000087738037109-.000236511230469.000133514404297-4.575309753417969,2.583114624023438-9.752243041992188,3.91064453125-15.006004333496094,3.848007202148438ZM30.563932631543139,55.890010618952147c6.340999603271484,0,12.625999450683594,1.770000457763672,19.280002593994141,3.642997741699219l.018001556396484.004997253417969c6.393001556396484,1.799999237060547,13,3.656997680664062,19.586002349853516,3.656997680664062,5.079879760742188.062232971191406,10.085952758789062-1.219383239746094,14.510993957519531-3.714996337890625.286270141601562-.148582458496094.39788818359375-.5010986328125.249305725097656-.787372589111328-.148574829101562-.286273956298828-.5010986328125-.397891998291016-.787368774414062-.249309539794922-.011863708496094.006156921386719-.023521423339844.012725830078125-.034934997558594.019683837890625-4.249099731445312,2.402999877929688-9.057769775390625,3.64044189453125-13.938999176025391,3.586997985839844-6.340999603271484,0-12.626998901367188-1.768997192382812-19.282001495361328-3.641998291015625-6.400001525878906-1.799999237060547-13.017000198364258-3.660999298095703-19.600000381469727-3.660999298095703-5.082050323486328-.063938140869141-10.090651512145996,1.217021942138672-14.517998695373535,3.713001251220703-.28626823425293.148590087890625-.397878646850586.501113891601562-.249289512634277.787380218505859.148589611053467.286266326904297.501111507415771.397876739501953.787379741668701.249286651611328.011857986450195-.006156921386719.023501396179199-.012714385986328.034909725189209-.019668579101562,4.250571250915527-2.403854370117188,9.061078071594238-3.641326904296875,13.943997383117676-3.586997985839844Z"/>
</svg>