<?xml version="1.0" encoding="UTF-8"?>
<svg id="Layer_1" xmlns="http://www.w3.org/2000/svg" version="1.1" viewBox="0 0 45 45">
  <!-- Generator: Adobe Illustrator 29.3.1, SVG Export Plug-In . SVG Version: 2.1.0 Build 151)  -->
  <defs>
    <style>
      .st0 {
        fill: #778495;
      }
    </style>
  </defs>
  <path class="st0" d="M22.3.5c-.9,0-1.5.8-1.5,1.7v3.4c0,.9.8,1.7,1.7,1.7.9,0,1.7-.8,1.7-1.7h0v-3.4c0-.9-.7-1.7-1.7-1.7,0,0-.1,0-.2,0ZM8,6.4c-.9,0-1.6.9-1.5,1.8,0,.4.2.8.5,1.1l2.5,2.5c.7.7,1.7.7,2.4,0s.7-1.7,0-2.4h0l-2.5-2.5c-.4-.4-.9-.6-1.4-.5ZM36.7,6.4c-.4,0-.7.2-1,.5l-2.5,2.5c-.7.6-.7,1.7,0,2.4.6.7,1.7.7,2.4,0,0,0,0,0,0,0l2.5-2.5c.7-.6.7-1.7,0-2.4-.4-.4-.9-.6-1.5-.5h0ZM22.5,10.7c-6.5,0-11.8,5.3-11.8,11.8s5.3,11.8,11.8,11.8,11.8-5.3,11.8-11.8h0c0-6.5-5.3-11.8-11.8-11.8ZM22.5,14.1c4.7,0,8.5,3.8,8.5,8.5,0,4.7-3.8,8.5-8.5,8.5s-8.5-3.8-8.5-8.5h0c0-4.7,3.7-8.4,8.4-8.5,0,0,0,0,0,0M2.1,20.8c-.9,0-1.7.8-1.7,1.7,0,.9.8,1.7,1.7,1.7,0,0,0,0,0,0h3.4c.9,0,1.7-.7,1.7-1.7,0-.9-.7-1.7-1.7-1.7,0,0,0,0,0,0h-3.5ZM39.3,20.8c-.9,0-1.7.8-1.7,1.7,0,.9.8,1.7,1.7,1.7,0,0,0,0,0,0h3.4c.9,0,1.7-.7,1.7-1.7,0-.9-.7-1.7-1.7-1.7,0,0,0,0,0,0h-3.5,0ZM10.5,32.6c-.4,0-.7.2-1,.5l-2.5,2.5c-.7.7-.7,1.7,0,2.4.7.7,1.7.7,2.4,0l2.5-2.5c.7-.6.7-1.7,0-2.4-.4-.4-.9-.6-1.5-.5ZM34.2,32.6c-.9,0-1.6.9-1.5,1.8,0,.4.2.8.5,1.1l2.5,2.5c.7.7,1.7.7,2.4,0,.7-.7.7-1.7,0-2.4,0,0,0,0,0,0l-2.5-2.5c-.4-.4-.9-.6-1.4-.5ZM22.3,37.7c-.9,0-1.5.8-1.5,1.7v3.4c0,.9.8,1.7,1.7,1.7.9,0,1.7-.8,1.7-1.7h0v-3.4c0-.9-.7-1.7-1.7-1.7,0,0-.1,0-.2,0h0Z"/>
</svg>