<svg xmlns="http://www.w3.org/2000/svg" width="97.87" height="73.919" viewBox="0 0 97.87 73.919"><g transform="translate(-151.299 -2722.683)"><path d="M52.776,2.248a27.492,27.492,0,0,1,27.1,22.889,25.656,25.656,0,0,1-3.851,51.031h-46.5a25.658,25.658,0,0,1-3.851-51.024,27.494,27.494,0,0,1,27.1-22.9M76.025,72.409a21.9,21.9,0,0,0,2.021-43.7l-1.525-.134-.172-1.526a23.727,23.727,0,0,0-47.148,0l-.172,1.521-1.523.134a21.9,21.9,0,0,0,2.02,43.709Z" transform="translate(147.426 2720.435)" fill="#778495"/><path d="M21.422,36.416a10.359,10.359,0,0,1,2.809-7.056,10.692,10.692,0,0,1,3.338-2.37,10.575,10.575,0,0,1,4.477-.907,10.485,10.485,0,0,1,5.225,1.244,8.125,8.125,0,0,1,3.294,3.294l-4.361,3.1a3.718,3.718,0,0,0-.777-1.259,3.931,3.931,0,0,0-1.074-.789,4.524,4.524,0,0,0-1.208-.411,6.724,6.724,0,0,0-1.216-.117,4.4,4.4,0,0,0-2.123.483,4.347,4.347,0,0,0-1.463,1.259,5.419,5.419,0,0,0-.85,1.756,7.067,7.067,0,0,0-.278,1.946,6.716,6.716,0,0,0,.322,2.08,5.44,5.44,0,0,0,.939,1.756,4.614,4.614,0,0,0,1.507,1.216,4.368,4.368,0,0,0,2.006.454,5.831,5.831,0,0,0,1.2-.134,4.5,4.5,0,0,0,1.185-.44,4.015,4.015,0,0,0,1.023-.791,3.5,3.5,0,0,0,.718-1.185l4.652,2.774a5.924,5.924,0,0,1-1.42,2.051A9,9,0,0,1,37.18,45.9a11.479,11.479,0,0,1-2.606.939,12.1,12.1,0,0,1-2.707.322,9.641,9.641,0,0,1-4.23-.922,10.765,10.765,0,0,1-3.3-2.441,11.1,11.1,0,0,1-2.147-3.455,10.61,10.61,0,0,1-.761-3.922" transform="translate(153.43 2728.589)" fill="#778495"/><path d="M46.2,47.246a8.277,8.277,0,0,1-4.1-.98,9.547,9.547,0,0,1-2.942-2.519,11.018,11.018,0,0,1-1.785-3.409,11.873,11.873,0,0,1-.6-3.624,11.675,11.675,0,0,1,2.53-7.163,9.581,9.581,0,0,1,2.953-2.445,8.748,8.748,0,0,1,8.021.072,9.781,9.781,0,0,1,2.953,2.562,11.246,11.246,0,0,1,1.785,3.41,11.389,11.389,0,0,1-1.938,10.728,9.631,9.631,0,0,1-2.953,2.429,8.152,8.152,0,0,1-3.936.939M42.565,36.709a9.282,9.282,0,0,0,.205,1.934,6.318,6.318,0,0,0,.644,1.756,3.894,3.894,0,0,0,1.127,1.288,3,3,0,0,0,3.355-.028,3.875,3.875,0,0,0,1.127-1.342,6.634,6.634,0,0,0,.616-1.77,9.024,9.024,0,0,0-.015-3.758,6.31,6.31,0,0,0-.644-1.757,3.915,3.915,0,0,0-1.127-1.286,3.018,3.018,0,0,0-3.366.028,3.943,3.943,0,0,0-1.113,1.342,6.628,6.628,0,0,0-.613,1.77,9.3,9.3,0,0,0-.191,1.829" transform="translate(158.683 2728.619)" fill="#778495"/><path d="M52.092,50.738a9.422,9.422,0,0,1,.176-1.931,4.96,4.96,0,0,1,.572-1.5,4.659,4.659,0,0,1,1.02-1.2,9.537,9.537,0,0,1,1.546-1.031q1.186-.634,1.879-1.02c.46-.258.805-.464,1.041-.625a1.612,1.612,0,0,0,.45-.4.682.682,0,0,0,.1-.361.945.945,0,0,0-.35-.805,1.584,1.584,0,0,0-.966-.268,2.71,2.71,0,0,0-1.372.373,5.361,5.361,0,0,0-1.349,1.208L52.2,40.088a4.514,4.514,0,0,1,1.074-.844,7.972,7.972,0,0,1,1.46-.658,10.769,10.769,0,0,1,1.7-.429A11.174,11.174,0,0,1,58.282,38a6.051,6.051,0,0,1,3.824,1.025,3.514,3.514,0,0,1,1.306,2.908,3.64,3.64,0,0,1-.647,2.161,3.971,3.971,0,0,1-.714.778,9.524,9.524,0,0,1-.878.658q-.55.374-1.152.714t-1.194.757h4.832v3.73Z" transform="translate(163.923 2732.663)" fill="#778495"/></g></svg>