<?xml version="1.0" encoding="UTF-8"?>
<svg id="Layer_1" xmlns="http://www.w3.org/2000/svg" version="1.1" viewBox="0 0 45 45">
  <!-- Generator: Adobe Illustrator 29.3.1, SVG Export Plug-In . SVG Version: 2.1.0 Build 151)  -->
  <defs>
    <style>
      .st0 {
        fill: #778495;
      }
    </style>
  </defs>
  <path class="st0" d="M30.5,11.9c-2.2,0-4.3.3-6.4,1.1l1-10.2c0-.7-.5-1.4-1.2-1.5-.1,0-.2,0-.3,0-6.7.8-11.7,6.5-11.7,13.2,0,2.2.3,4.3,1.1,6.4l-10.2-1c-.7,0-1.4.5-1.5,1.2,0,.1,0,.2,0,.3.8,6.7,6.5,11.7,13.2,11.7,2.2,0,4.3-.3,6.4-1.1l-1,10.2c0,.7.5,1.4,1.2,1.5.1,0,.2,0,.3,0,6.7-.8,11.7-6.5,11.7-13.2,0-2.2-.3-4.3-1.1-6.4l10.2,1c.7,0,1.4-.5,1.5-1.2,0-.1,0-.2,0-.3-.8-6.7-6.5-11.7-13.2-11.7M22.5,25.1c-1.5,0-2.6-1.2-2.6-2.6s1.2-2.6,2.6-2.6,2.6,1.2,2.6,2.6h0c0,1.5-1.2,2.6-2.6,2.6h0"/>
</svg>