<?xml version="1.0" encoding="UTF-8"?>
<svg id="Layer_1" xmlns="http://www.w3.org/2000/svg" version="1.1" viewBox="0 0 45 45">
  <!-- Generator: Adobe Illustrator 29.3.1, SVG Export Plug-In . SVG Version: 2.1.0 Build 151)  -->
  <defs>
    <style>
      .st0 {
        fill: #778495;
      }
    </style>
  </defs>
  <path class="st0" d="M38.5,44.7H6.5c-3.4,0-6.1-2.8-6.1-6.1V6.5C.3,3.1,3.1.3,6.5.3h32.1c3.4,0,6.1,2.7,6.1,6.1v32.1c0,3.4-2.8,6.1-6.1,6.1M6.5,3c-1.9,0-3.5,1.6-3.5,3.5h0v32.1c0,1.9,1.6,3.5,3.5,3.5h32.1c1.9,0,3.5-1.6,3.5-3.5V6.5c0-1.9-1.6-3.5-3.5-3.5H6.5Z"/>
  <path class="st0" d="M8.5,39.1c-.7,0-1.3-.6-1.3-1.3V7.8c0-.7.6-1.3,1.3-1.3.7,0,1.3.6,1.3,1.3h0v30c0,.7-.6,1.3-1.3,1.3"/>
  <path class="st0" d="M15.5,39.1c-.7,0-1.3-.6-1.3-1.3V7.8c0-.7.6-1.3,1.3-1.3.7,0,1.3.6,1.3,1.3h0v30c0,.7-.6,1.3-1.3,1.3"/>
  <path class="st0" d="M22.5,39.1c-.7,0-1.3-.6-1.3-1.3V7.8c0-.7.6-1.3,1.3-1.3.7,0,1.3.6,1.3,1.3h0v30c0,.7-.6,1.3-1.3,1.3"/>
  <path class="st0" d="M29.5,39.1c-.7,0-1.3-.6-1.3-1.3V7.8c0-.7.6-1.3,1.3-1.3.7,0,1.3.6,1.3,1.3v30c0,.7-.6,1.3-1.3,1.3"/>
  <path class="st0" d="M36.5,39.1c-.7,0-1.3-.6-1.3-1.3V7.8c0-.7.6-1.3,1.3-1.3s1.3.6,1.3,1.3h0v30c0,.7-.6,1.3-1.3,1.3"/>
</svg>