<?xml version="1.0" encoding="UTF-8"?>
<svg id="Layer_1" data-name="Layer 1" xmlns="http://www.w3.org/2000/svg" viewBox="0 0 100 80">
  <defs>
    <style>
      .cls-1 {
        fill: #778495;
      }

      .cls-2 {
        fill: #aebed3;
      }

      .cls-3 {
        fill: #f7f7f7;
      }
    </style>
  </defs>
  <path class="cls-2" d="M77.385231379779725,25.780699995706527C74.817239595886349,10.658313962727334,60.476362702524057.480964325432069,45.353975726715362,3.048952838891637c-11.638181395514039,1.976322435499242-20.755425664142422,11.093567646957126-22.731747657691812,22.73174715681489C8.459986900475087,27.882154113928664-1.317211708019386,41.066484711105659.784242852153511,55.228725879653211c1.885213494631898,12.704934644010791,12.789281711256081,22.113950219374601,25.633324018547682,22.118747327951496h47.157493138192876c14.317302423463843.000641123002424,25.924291299292236-11.605299328153706,25.924939964916121-25.92260175161573.000573239391088-12.848150208641528-9.409732124600851-23.758342092759449-22.118728471392387-25.644169574626176M89.168672390907886,67.124080567684359c-4.160548862593714,4.144098400634903-9.802476532782748,6.457089167593949-15.674680499916576,6.426073899561743H26.424489113463096c-12.220102344921543-.00705989564085-22.120729859410858-9.919130748588941-22.113671142304156-22.139233093510484.006614645145419-11.451286497911497,8.749447087834596-21.005491919621818,20.155200653039174-22.025690209919048l1.545223344621263-.137417172778441.175975064359591-1.53731490383143c1.225962946363325-11.105641059651134,9.992873093368871-19.874195027176938,21.09828504583038-21.102237380569022.918966853993879-.105230676733299,1.843183373978718-.158042476872652,2.768154156317905-.158180365458975,12.170264459821738.02873857425493,22.38939174612733,9.168743652270678,23.77054417200543,21.260417746027997l.174000782644725,1.53731490383143,1.543243405940302.137419058433807c12.171848410769599,1.08488571550788,21.159616003562405,11.831595005518466,20.074730288051796,24.003443416286245-.463064287527231,5.195294988063324-2.746586024277349,10.059985472049448-6.44750249306162,13.735404101926179"/>
  <path class="cls-1" d="M38.5144048331058,49.782582088919298c-.298933027795101.320357849985157-.647832165288492.590131095139441-1.033115033124886.798809089550559-.376160064653959.203873343210944-.779211467915957.353647219017148-1.197227436297908.444882793462966-.398891646374977.087094674117907-.805755845840395.132486182634239-1.214034287220784.135442891065395-.702776406528756.010740695932327-1.397953619833061-.146530547681323-2.027674060324898-.458723507676041-.588697996666269-.297326448977401-1.107619182883354-.716168334638496-1.522486105934149-1.228863085116245-.422764049905709-.527787540198915-.74450974262345-1.1290515476976-.949080778512325-1.773595129117894-.218236384102966-.67915290957535-.32800418460738-1.388472542032105-.325258669636241-2.101819935465755.00152549561335-.665338594544664.096030797367348-1.327200039633681.280770390289945-1.96637704440036.1764370500523-.638226634198872.467186331296034-1.239154994947967.858128052450411-1.773597014773259.392487958981292-.530106896940197.899346604488528-.964991942888446,1.482940130667885-1.272363280778336.662936268944577-.339846103579475,1.400602966354199-.507775074268466,2.145320131126027-.488381103468782.41234202981741.001842285802013.823660148488671.041220437693482,1.228863085117155.117646070801129.424564851278774.080004607981209.835641605995988.219803364145264,1.220954644326412.41522331201395.405325504261782.202004658225633.773122685056478.471834473057243,1.087489806288431.797821005866354.344254767042912.367248454931541.611199528368161.799936711771807.784970260994669,1.272363280779246l4.406310165683863-3.134934968590642c-.760537817664954-1.410357464258595-1.917361305268969-2.567180951861701-3.327718769527564-3.32771688387129-1.620721235032761-.870441385392951-3.4401755153267-1.303838648846977-5.279267016030644-1.257532597225691-1.556746587747512-.027770054250141-3.100753684322626.285013116035771-4.523956236484082.916457046008873-1.267777365661459.573539208989132-2.412823046593985,1.386586886144869-3.372205163217586,2.394452986940451-1.818309687171677,1.930057426357052-2.836275360898981,4.478327135325344-2.848232304879275,7.129974156999197v.004944189735397c.003184872793099,1.357593041224391.264193589385286,2.702224083879628.769151493757818,3.962415455906012.502214275056758,1.287310874995455,1.23790103378451,2.470782451597188,2.170035422839646,3.490839317702921.942846800149709,1.03041288823988,2.075354755087574,1.869556157216721,3.335627210317398,2.471566884447384,1.335891027618345.630555786050536,2.797698612758722.949016666212628,4.274821495014294.931287729561518.921186270974431-.004993216789444,1.838855793717812-.114104809044875,2.735530423814453-.325256783980876.912998753111424-.208862788687838,1.797341193705506-.527546176244869,2.6337012345939-.949080778511416.803153640715209-.403258825410376,1.542104469784135-.923322719094358,2.19277266152676-1.543247177252852.620256333594625-.582245282219446,1.109289873999842-1.290007362915276,1.434497630926671-2.076114674409837l-4.696965164133871-2.803751568157168c-.15961322822659.443479865483823-.406336215816737.85054394447252-.725651298096636,1.197225550642543"/>
  <path class="cls-3" d="M34.826827494069221,56.773161020113548c-1.510466935309523-.002308042805453-3.001943430178471-.33678568407413-4.368742243443194-.979730229302731-1.318326143029481-.62687875706979-2.503017738989001-1.502728203548031-3.48886315033451-2.57932834708663-.974242970671185-1.064426349132191-1.742555347558664-2.300360643826934-2.265932338637867-3.645067112716788-.507590279990836-1.265026193721496-.779004045767579-2.612380123477124-.800787142577065-3.975268086433061l-.005932273420513-.007908440789834v-.164108631861382c.006316947221421-2.77602111268061,1.069236657299371-5.445519638636142,2.972800618441397-7.466109289793167,1.002995451639435-1.05640288333143,2.201665414690979-1.907895312714572,3.52939720928498-2.507156753660638,1.485898724755316-.662310231190531,3.099079221895408-.990346471948214,4.725636561898682-.960945325355169,1.921306097384331-.045101117509148,3.821534333262207.408242613919356,5.515547241318018,1.315861590784152,1.496464054690477.805329687609628,2.723648906068775,2.032171349615965,3.52939720928498,3.528409125599865l.207610713177928.384575746878909-5.289151624190708,3.763701267203032-.223431366071964-.607017143611301c-.150335801261463-.409419263191012-.381668065500889-.78432725233688-.680174935065224-1.102318604183893-.274091397137454-.282812555615237-.594379477855-.51684319342894-.947104611143004-.692039481908068-.343147887037958-.174583450314458-.709274376716166-.299732545890947-1.087489806287522-.37172311635095-.375532141244548-.070947802755654-.756728792773174-.10767849378135-1.138898442740356-.109737630010386h-.010874577501454c-.660765879018072-.01673142468735-1.315254409588306.131769633395379-1.904095716102347.432030162935916-.514723716211847.27362375447774-.961903238545347.658657715735899-1.308941233678524,1.127033895898421-.355602644171995.485392338885504-.619916915534304,1.031442456351215-.780026071259272,1.611462664624923v.005932273421422c-.17182285009585.59484523485844-.259671786567196,1.210787187783353-.260997402656358,1.829949840963309-.002762485874882.661680422123027.099000705388789,1.319642330838178.301531461607738,1.949572079132849.185725790951437.587238499010709.478694489175723,1.134961193247364.864060325870923,1.615414999365385.368130941887102.457716567430907.829505681738738.831804296265545,1.353431398681096,1.09737252879313.558610471330212.275381185763763,1.174588251716159.414297454972257,1.797324222801763.405336818197611.375364317870662-.002741743661318.749425647522003-.044490165002571,1.116159318396967-.124566427908576.372420809029791-.080936121988998.731543972743566-.214070970247121,1.066728734969729-.395452210035728.338484660028371-.182950105485361.644998024489723-.419679116874249.90755863587674-.700936006382108.27398957171954-.297665867039541.485447022908374-.647292867704891.621847827163037-1.028172729045764l.203658378439286-.563516947948301,5.581786561322588,3.32870685321177-.164112403173021.395452210035728c-.351678594271107.849725569818474-.881268821497542,1.614272291899397-1.553135556723646,2.242207016266548-.685330318261549.65256516156478-1.463597072577613,1.199952209053663-2.309430648643684,1.624315295151973-.871610492044056.438969376600653-1.793111667550875.770920238981489-2.744428833945676.98862675377859-.93170445951182.219226353445265-1.885167502306103.332648555058768-2.842301917113218.338109414507926l-.119624123826725-.002968022366986ZM24.886185183119778,45.259613936119422h0v.1621362358037c.001962967778127,1.295023207574559.250931771530304,2.577785880570445.733561624542745,3.779518148783609.479429894971872,1.232366633756101,1.183386722086652,2.365065039939509,2.076116560066112,3.340571400054614.899550255324357.982419174597453,1.980498721339245,1.781714763368655,3.183377468331855,2.353920813644436,1.267394577515915.595893659532521,2.652950009890446.898013445776087,4.053370067623291.88383331350451.884891166457237-.004868763500781,1.766403237564191-.10966974639814,2.627770846828753-.312407924764557.875272435777333-.20016614373526,1.723093493147644-.505566971223743,2.524953573924904-.909534803246061.760443534871229-.381381445806255,1.460097295250307-.873473520059633,2.076114674410746-1.460202891979861.465734376262844-.435198064826182.851829961787189-.94843588420008,1.140874610109677-1.516553832512727l-3.838837111683461-2.28669340995657c-.15979425119167.298201393310592-.356788721725025.57492139475471-.586254186636324.823526266920453-.335665604477072.360428037587553-.727653864648346.663935666565521-1.160647597743264.898662111401791-.417105196588636.226440872867897-.864092382021227.392853776224001-1.327726137626087.494313376888385-.432343181812939.094490216506529-.873326438901131.143856687633161-1.315861590784152.14730366659569h-.071181624085511c-.754467891363674-.001455726345739-1.498545818790262-.175976950014956-2.174979612575044-.51013025847169-.653066746031072-.327968357145437-1.228457669101772-.791786907026108-1.687586592792286-1.360349870130449-.461966835800922-.575340010360378-.813262641926485-1.231337065641128-1.036081169835597-1.934743281235569-.234160748070281-.727983854429112-.351938814783352-1.488367048312284-.348985877663836-2.253079708110818.000754262354349-.710009782513225.100578999366007-1.416436818839429.296587271871431-2.098855684411319.192153991871237-.694958477219188.509053548958946-1.349190558588816.93524006430016-1.930787175184378.436088094405022-.589414545904219.998509476283289-1.073807487170598,1.646062564500426-1.417690780003795h.005932273421422c.735111633682209-.375747106015297,1.552303982477497-.562291271622598,2.377648021673849-.542755876631418.440549556234146.002564492006968.879965833280039.044918208888703,1.312895454073441.126544480933262.470606911076175.088486288161221.926286970148794.243264694693607,1.353429513024821.459711591359337.453775546626275.226982056107772.865378399336805.529916445694653,1.217000423931495.89569597469108h0c.243536229140773.259347453755254.453458756437612.54832233281013.624812078217474.860106105476007l3.553126302968849-2.52791782497934c-.710352971883367-1.157656947505529-1.714551471978666-2.106596301827267-2.910517404488019-2.750359221710823-1.545577847929053-.827714308646136-3.279361124300522-1.240552265961924-5.032110327586452-1.198215519983023h-.020761071317793c-1.484789959093177-.028371578478982-2.957666344291283.269982552958936-4.314367470279649.873946819688172-1.209339004061803.546055774433626-2.301197875040089,1.321639240421973-3.215015002806467,2.283727273244949-1.691141054139734,1.79717337033162-2.65288589759075,4.159423126030561-2.697960615917509,6.626760484322403Z"/>
  <path class="cls-1" d="M61.836111048425664,38.707989296277447c-.810236164226808-1.055015040598846-1.825050906969409-1.935665366965623-2.983677081600035-2.589212955247604-2.531089498181245-1.335202763219058-5.551963027810416-1.362465576035902-8.106740135247492-.073157791454832-1.15094401254737.614382515504985-2.165826638898579,1.455073907966835-2.983677081599126,2.471566884446474-1.633011940105462,2.059541644817728-2.531413830994097,4.605475026143722-2.552631231036685,7.233781399244435.011230966464609,1.243344922329925.215681320376461,2.477386018514153.606027174269911,3.657919743243838.392755722117727,1.24722937345723,1.002165763048652,2.415513877544072,1.800292245168748,3.451293342437566.80655913524788,1.042801647416127,1.818315344138682,1.9092039579009,2.972800618442307,2.545714645242697,1.2720370623083.681321413843762,2.698728077864871,1.021901037564021,4.141356656973585.98862675377859h-.011864546839206c1.384448552365939.02298614526444,2.752348588670429-.303432202741533,3.977244253801473-.949080778513235,1.148639741051738-.610601775451869,2.163190491966816-1.445302439160514,2.983677081600035-2.454761919179873,2.451910807478271-3.045741559470116,3.189522820866841-7.128114900295259,1.958468603606889-10.839304422350324-.398631425861822-1.243546687512207-1.008648647988593-2.409068705722348-1.803256496223185-3.445364840329603M58.206860817288543,47.603650141603794c-.121926509662444.622613403453215-.331630300875986,1.224763669219101-.622835910846334,1.788423927015174-.271063033782411.533176744724187-.660658396631334.997176317570847-1.138898442739446,1.356397535391807-1.018608682385093.699382225931913-2.359709777218086.710722560437716-3.390001983480033.028669512108536-.471538425084873-.344128428099793-.860575633792905-.788886768274097-1.138898442739446-1.302022762229171-.303601911771693-.555665076833975-.522839579151878-1.153406679135514-.650517339273392-1.773595129117894-.137468085486944-.642435418139939-.207052559036129-1.29753867252839-.207610713178838-1.954516268870066l.006920357106537.006920357105628c.003009506795934-.62110110743015.067589449619845-1.240373128652209.192781915281557-1.848730973597412.120908255486029-.622481407541272.329616420389357-1.224637330275073.619867888482986-1.788425812672358.268788932782627-.53034260392451.652863095194334-.993800993532204,1.124069644840347-1.356395649734623,1.022587416307942-.699391654211468,2.366641448261362-.710722560437716,3.400874675327941-.028669512108536.470735135677387.343787124384107.859647891094937.787389557499409,1.138898442739446,1.299054739862186.304261891331407.557465878206131.523518415269791,1.157260959769701.650517339272483,1.779527402539316.271409994464193,1.250702751602148.276463552243513,2.544534224656672.014828797895461,3.797314969047875"/>
  <path class="cls-3" d="M54.858384747756645,56.892790800908188h-.14532749922364c-1.515720372612122.027100646411782-3.013172510985896-.333991142048035-4.349959225151906-1.048933800362647h-.004944189736307c-1.216504496433117-.667842745562666-2.282062239096376-1.579595080133004-3.129992664508791-2.678189513939287-.832535930750055-1.078504655986762-1.468397952466148-2.295344799165832-1.878392340704522-3.594648445605344-.406343758440926-1.229345813024338-.618808149873075-2.514465555879724-.62975626795378-3.8091795158889v-.010872691846089c.026727286544883-2.739280993373541.963679526391388-5.391891585204576,2.663360716043826-7.540255164932205.859025624652531-1.070058803266875,1.926608561739158-1.954329588937071,3.137901105299534-2.599099449064852l.009884608160974-.004942304080032c2.695277327588883-1.359495668013551,5.881636017879828-1.331504992024747,8.552614783705394.075132073168788l.01285263052705.006920357105628c1.217575548977038.684840047730177,2.2834236826493,1.609763688672501,3.132956915564137,2.718723572891577.828229092705442,1.080164033166511,1.463698897994618,2.295244859404193,1.878392340706341,3.591680423239268,1.284060004247294,3.871059199482261.514406926020456,8.129292579656976-2.043492827564478,11.305936370816198-.861013105957682,1.061726089899821-1.927230828179745,1.938974693046475-3.134936854243279,2.57932834708663-1.255435747880256.660681024502992-2.652491795510286,1.00672150767241-4.071161230920552,1.008399741411267ZM54.721953773008863,55.904164047129598l.005932273419603.086012307638157v-.085020452641402c1.301170445767639.02117591561364,2.586825714894076-.284771752081724,3.738987861146597-.889765586925932,1.091213976662402-.579665704966828,2.054237294807535-1.373560775275109,2.83142545395458-2.334151597324308.791432403722865-.972794786948725,1.405813033572485-2.077068816288374,1.815117271755298-3.262467533206291v-.006920357105628c.825053648190078-2.289174933102913.84527919323591-4.791183846193235.057339024217072-7.093396204099918v-.009886493817248c-.38074409411638-1.189928062358376-.964392304318608-2.305052155672456-1.72515262937668-3.296081235051133-.766941505058639-1.001162594116977-1.72878063130338-1.836553407879364-2.827473119217757-2.455748117209623-2.385860053062061-1.2553678642671-5.231220504025259-1.280777077347011-7.639120103096502-.0682154873748-1.091606193089319.581221371074207-2.053856392318266,1.377997723579028-2.828457431590323,2.342056266803411-1.559520387558223,1.972156579694456-2.420152591026635,4.406268681253096-2.44685347838913,6.920387276451038.010635099203682,1.191968342029213.206754625406575,2.375021303023459.581313768212567,3.506659970596957v.005932273421422c.376855871676526,1.191134882126789.961220631113974,2.306315545118196,1.726140713060886,3.294101296371082.763426642484774.989441357121905,1.722569280811513,1.81094242961808,2.817584739745143,2.413239776544287,1.196309121880404.639301458053524,2.537119825707123.959693249844349,3.893215656158645.930295874564763v.002968022365167ZM54.733814548537339,51.781588522790116c-.69276357376657.000629809066595-1.37029104796602-.203315189066416-1.947595911762619-.586254186635415l-.018784903950291-.01285263052705c-.531272232277843-.387555083181724-.970177496576071-.887906330221085-1.285214025647292-1.465143310404528-.327191466921249-.598337469562466-.563426436467125-1.242077761575274-.700936006383927-1.910026103867494-.143977369610184-.674989381375781-.216873054896496-1.363200981832051-.217499092651451-2.053377435722723v-1.198217405639298l.076123928165543.076123928165543c.032953722284219-.275498096429146.077112011850659-.549348129612554.132474868698409-.821550099552042.12993677587383-.667567439802951.353952695270891-1.313317840991658.665346137167035-1.917936430312693.302813707610767-.594496388519474.734048123762477-1.11420766455376,1.262476786963816-1.521496136593669l.022737238687114-.015818767237761c1.188811754072958-.813926392798749,2.752031798481767-.827214609836119,3.954507015114359-.033613701844843l.018784903950291.01285263052705c.530389745319553.386904531899745.969166785020207.88575856816442,1.285214025647292,1.461190975664977.327217866102728.598328041282002.563456606960244,1.24207210460736.700936006385746,1.91002798952286.287290988344466,1.316625281418965.292680192869739,2.679147427132193.015816881579667,3.998005325120175-.1306759529798.667639094728656-.355355623250944,1.313374410668985-.667322304536356,1.917934544659147-.307052662046772.599178472086351-.746580192790134,1.120524611775181-1.28521402565093,1.52446227330438l-.016804965267511.011864546841025c-.586216473519016.405751662492548-1.282106464746903.623345037936815-1.995046556508896.623823994532358ZM53.341827143933187,50.376748487658915c.858180850813369.562977650364701,1.970978044762887.553613483229128,2.819564678426104-.023725322373139.41423334267165-.313192357614753.752218303889094-.716070280534041.988626753776771-1.17844441800662.270455852587475-.523103570974854.465183764743415-1.081996890687151.578345745845581-1.659905164367956v-.005932273421422c.249042344334157-1.184440803726829.244324433304428-2.408205075325895-.013840714211256-3.590692339552334v-.004944189737216c-.119441215207189-.574996820989327-.324385610958416-1.128847896861771-.608003341640142-1.643092656477165-.24341931847448-.444098360614589-.580808412432816-.82973384610159-.988626753776771-1.130000032608223-.861450578122458-.56243458147037-1.97616359845415-.55347205903854-2.828461202901963.022739124342479-.407403497050836.316726076745908-.739908742260013.7194437189155-.973797955881309,1.179432501690826-.269528109889507.523222367295602-.463260395739781,1.082121343977633-.575381494792964,1.659905164367956v.004944189737216c-.118562499563268.576158385016242-.179827459334774,1.162635079046595-.182897307120584,1.75085789043078v.296587271870521c.018596338359202.519313402641274.082440875386965,1.036013286224261.190805747912236,1.544235260937057.117717725726834.573552408579417.320308822931111,1.12633997453122.601086755843426,1.640132176735278.24267637005687.446014186994944.580540649301838.833154425879911.989614837464615,1.1339504816915l.002964251056255.003952334740461Z"/>
  <path class="cls-1" d="M73.992265145243437,59.473095917745013c.40533681819943-.229359868180836.793208691567997-.469924303644802,1.16361562010934-.72169707770081.309130654834007-.204137335034829.606215739859181-.425962122290002.889765586925932-.664358053483738.274815488999593-.230212184642369.517540886106872-.496214118024.72169707770081-.790900648760726.443427067119046-.64009720483773.672243866403733-1.404425190836264.653481590328738-2.182888053364877.055076237153116-1.134074934981982-.435458285341156-2.226111057612798-1.319815811180888-2.938198832913258-1.135240270319628-.768819618320776-2.495959729003516-1.133720431673282-3.863554289051535-1.036081169835597-.624382148675068-.000211193459108-1.247708330054593.051372808989981-1.863559771496512.154224023701317-.583591640523082.09770714545084-1.158241500830627.24285739302104-1.718232272269233.434006330306147-.512728692283417.17138726358462-1.006894988015119.393962541884321-1.475031689878961.664358053483738-.40373023938082.227504382786719-.770433739759028.515198901495751-1.087487920631247.853183862713195l2.66039269367684,3.119116201352881c.381898115520016-.481366463569429.842918352063862-.894242134003434,1.363317892497435-1.220954644328231.419697973433358-.24630060067102.897447749008279-.376316574092925,1.384078963816137-.376667306087256.346334645484603-.017906188304551.68911671528258.077153496280516.976762206933927.270882010816422.243898275071842.197043497588311.376063896204869.500875459378221.353930067401961.813641658760389.001022025491693.128352824929607-.033172458366607.254529602963885-.098861166854476.364802759246231-.124551342658378.16322991621746-.278854563908681.301429636188914-.454767401621211.407312985566023-.238260163969244.163124319489725-.587246041635808.371723116351859-1.051898051417083.631732435324011-.464652009784913.260009318972152-1.099352467474091.603062923215475-1.898161557026469,1.030148896414175-.553315549597755.295346510298259-1.076475690249936.644008055149243-1.562032081201323,1.041025359572814-.409300466872082.34147719592147-.757633907596755.749985687320077-1.030148896414175,1.208102013799362-.273763293011143.471406429171111-.468777824862627.984319915731248-.577357662161376,1.518529999882958-.126293688699661.642661696845607-.185929441788176,1.29664110032536-.177953117385186,1.95154824650308h11.686556011645735v-3.766661746945829h-4.881849952558696c.39544843872136-.280770390289035.797824777175265-.53583551952579,1.207113930111518-.765195387706626"/>
  <path class="cls-3" d="M65.492052738642087,64.503230077962144l-.005932273419603-.488381103468782c-.008308199838211-.688728270170031.05430688954948-1.376483541900598.186849641861045-2.052389352038517.119275277487759-.588203954823257.334009998608963-1.152923951227422.635688541373383-1.671769711208981h0c.301052505012194-.506641795080213.686190177344542-.958312949736865,1.138898442739446-1.335636464073104.511650097116217-.418800401232147,1.062951766227343-.786665465639089,1.6460644501567-1.098364383789885.760254969281959-.406324901881817,1.396927823032456-.752346528492126,1.891241199919023-1.027184645359739.457735423991835-.256053212920961.790900648760726-.455755485309055,1.013343931150303-.608007112950872l.02372532237132-.015816881581486c.113056384372612-.067378256160737.213433618559066-.154039229424598.296587271870521-.256053212920961.012630123132112-.027251498881014.019048895774176-.056965664351083.018784903950291-.087000391322363v-.039545975267174c.010476704108441-.144920197551983-.047296020962676-.286423586638193-.156203962382278-.382599579508678-.19468642773063-.125720449310393-.424016125416529-.18694392465477-.65545775769715-.174985095018201h-.024717177369894c-.396715599479649.000294162318824-.786273249213991.105698555100389-1.129010063268652.30548379634638-.470139268414641.296142257082465-.886654254711175.669867939986943-1.231827336170682,1.105284740895513l-.37369928372209.470588054517066-3.336615294003423-3.911996788794568.301531461609557-.322292532924621c.350411433511908-.374253666552249.755785964829556-.692948368045109,1.202169740376121-.945128443772774.495825672911451-.286020056280904,1.019129123411403-.521508306095711,1.562032081201323-.702912173754157.584206364343117-.199238401039111,1.183641285631893-.350667882714333,1.792380033064546-.4527912342528.637121639851102-.106324592854435,1.281891499977064-.160220409421527,1.92782292413176-.161144380806945.150271688962675-.009884608160064.302519545293762-.015816881581486.4527912342528-.015816881581486,1.32123759571914-.001497210774687,2.612346181671455.394652691938973,3.705374159300845,1.136922275369216l.032625618161546.024717177369894c1.001377558884997.808271310792406,1.559448732634337,2.044024582522979,1.503701201985677,3.329694936897795.019410941702517.877406998240986-.240213703469635,1.738325821403123-.741470065335307,2.458714253918515-.229623860006541.331490762342582-.502602720167488.630736809014707-.811661720079428.889765586925932-.295682157044212.248148543441857-.605295539782674.47920550192066-.927331623508508.692039481908068-.296587271870521.197726105017864-.600094900848489.395452210035728-.919423182720493.582301851896773h3.647031966153008v4.75727221071611l-12.665294385951711-.002968022365167ZM67.161842511170107,60.78895939418544c-.246259116240253.424476225451144-.421576086697314.886307294029393-.51903055425646,1.367270227236077-.087626429078227.448095951094729-.141167742338439.902188287911486-.160156297122739,1.358373702762037h10.691008900757879v-2.782986725527735h-5.948565487935412l1.276317501171434-.898662111399972c.408301069252047-.287690747396482.828470456657669-.553632339788237,1.248636072752561-.790900648760726.395452210035728-.223431366071964.775083767177421-.458723507674222,1.128021979580808-.699947922697902h0c.29227666251245-.193977421115051.573179048715247-.404571241906524.841323087184719-.630744351639805.24177125523056-.201339021698004.455559377096506-.434077985228214.635688541373383-.692039481906249.384428665722226-.553262751234797.582196255167219-1.214799863511871.564505031634326-1.888276948866405v-.036577952898369c.047869260353764-.968838680899353-.365749358501489-1.903143459880084-1.115173120368127-2.519021300504392-.926000350453251-.623820223219809-2.017421749264031-.95641220860125-3.133944999248342-.955013051932838-.13247486869659,0-.267917759760167,0-.395452210035728.013840714211256h-.035589869214164c-.596248162837583.000328104124492-1.191447901004722.04992839658189-1.779527402537497.148295521592445-.557041605632548.093370136908561-1.105560046657047.231905503627786-1.640132176737097.41423334267165-.481113785677735.161408372630831-.944800339650101.370727490044374-1.384078963816137.624812078218383-.232241150373738.131271820240727-.451105457887024.284907519306216-.6534815903251.458723507674222l1.988129970715818,2.331183574957322c.328141837486328-.337604058728175.695565658414125-.634662744572779,1.094408277738694-.884821397188716l.01285263052705-.007908440791653c.492661542331916-.289112531934734,1.053093557249667-.442608692463182,1.624315295150154-.444882793462966.449129290522251-.020704501641376.892948574066395.104122146778536,1.265441038020072.355906234770373l.033613701842114.024717177369894c.364335116588336.294441395471949.564531430816714.746357685393377.537811686896021,1.214034287220784-.001670691115578.212042004513933-.059669694892364.419826198032752-.168064737910754.60207483952945l-.014828797899099.0257052610541-.017796820262447.023725322373139c-.159115415073757.208376289469015-.355559274088591.385379036286395-.579333829529787.521994805312715-.248144772129308.168064737912573-.601086755847064.379631557143512-1.077603312471183.647549316905497-.500245650309807.27780236792205-1.141862693795701.625800161902589-1.907061852813058,1.035093086149573-.525264532621804.280570510765756-1.021927436748229.611676599308339-1.482940130670613.98862675377859-.36866458250006.30310409861886-.682943077907112.66685843319101-.929311562191288,1.075623373790222Z"/>
</svg>