<svg xmlns="http://www.w3.org/2000/svg" width="82.151" height="82.095" viewBox="0 0 82.151 82.095"><g transform="translate(0 0)"><path d="M59.1,416.178c-2.46-9.885-10.432-15.807-19.269-18.222a18.222,18.222,0,1,0-20.5,0C10.5,400.462,2.547,406.384.064,416.178a2.353,2.353,0,1,0,4.578,1.093c2.824-11.252,14.623-16.308,25.055-16.308s22.253,5.057,25.055,16.308a2.278,2.278,0,0,0,4.35-1.093ZM29.7,396.408a13.666,13.666,0,1,1,9.664-4A13.667,13.667,0,0,1,29.7,396.408Z" transform="translate(0 -336.982)" fill="#778495"/><path d="M688.5,619.226a12.322,12.322,0,1,0-12.322,12.323c6.218,0,13.211,2.961,14.873,9.566a2.309,2.309,0,1,0,4.487-1.093,16.741,16.741,0,0,0-11.115-11.594,12.3,12.3,0,0,0,4.077-9.2Zm-20.089,0a7.767,7.767,0,1,1,2.275,5.492,7.765,7.765,0,0,1-2.275-5.492" transform="translate(-613.455 -560.826)" fill="#778495"/><path d="M690.769,27.34A25.055,25.055,0,0,1,665.714,2.285a2.278,2.278,0,0,0-4.555,0,29.611,29.611,0,0,0,29.61,29.61,2.278,2.278,0,0,0,0-4.555Z" transform="translate(-610.962 -0.007)" fill="#778495"/><path d="M801.656,18.227A15.944,15.944,0,0,1,785.712,2.283a2.278,2.278,0,0,0-4.555,0,20.5,20.5,0,0,0,20.5,20.5,2.278,2.278,0,0,0,0-4.555Z" transform="translate(-721.849 -0.006)" fill="#778495"/><path d="M912.544,9.114a6.833,6.833,0,0,1-6.833-6.833,2.278,2.278,0,0,0-4.555,0A11.389,11.389,0,0,0,912.544,13.67a2.278,2.278,0,0,0,0-4.555Z" transform="translate(-832.736 -0.004)" fill="#778495"/></g></svg>