<svg xmlns="http://www.w3.org/2000/svg" width="326.407" height="84.513" viewBox="0 0 326.407 84.513"><g transform="translate(-5397.286 1918.258)"><path d="M102.793,0V24.314H59.018V10.688H55.95V24.314H3.068V10.47H0V27.383H268.041V12.542h-3.068V24.314H237.121V12.324h-3.068v11.99H208.328V11.179H205.26V24.314H154.069V11.452H151V24.314H105.862V0Z" transform="translate(5433.727 -1884.59)" fill="#fff"/><path d="M336.938,20.5c1.414,0,6.69.544,6.853,8.159H329.976c-.054-4.569,2.556-8.159,6.962-8.159m-16.59,11.423a23.726,23.726,0,0,0,2.067,9.682c3.139,6.74,9.452,8.073,13.119,8.322h3.272c10.259-.714,12.908-8.263,13.633-10.335l-9.247-1.577c-.489,1.632-1.577,4.841-5.874,4.841-5.276,0-7.452-4.406-7.615-8.54h23.171c.218-10.28-3.427-20.887-16.59-20.887-10.933,0-15.937,9.029-15.937,18.493M290.324,19.355h-.109V14.242h-8.648V49.107h9.247V33.279c0-2.828.054-6.69,1.034-8.7a7.2,7.2,0,0,1,6.69-4.134c5.657,0,5.657,5.059,5.657,10.77V49.053h9.247V27.35c-.054-3.427.054-8.593-3.644-11.422a13.257,13.257,0,0,0-8-2.556,13.866,13.866,0,0,0-11.477,5.983M360.762,7.334V14.3h-4.243v7.343h4.243v15.23c0,5.33.163,7.4,1.305,9.572,1.1,2.119,3.712,3.163,6.168,3.482h3.628a18.679,18.679,0,0,0,5.271-1.283v-.5l-.761-6.651-.272.054a8.553,8.553,0,0,1-3.427.816c-2.556,0-2.556-1.632-2.556-6.581V21.694h6.255V14.351h-6.255V1.949Zm-210.28,20.94h7.887c6.8,0,12.782,0,12.782,6.582a5.651,5.651,0,0,1-3.971,5.6c-1.469.544-5.6.544-7.669.544h-9.029Zm.054-19.2h0Zm0,0h5.6c7.017,0,8.159,0,9.573.381a5.043,5.043,0,0,1,3.644,5.112c0,5.113-5,5.549-8.268,5.549H150.536ZM140.8.97V49.162h16.426c10.226,0,13.326-.218,16.154-1.414,5.167-2.285,7.832-7.832,7.832-12.565,0-2.719-.87-9.246-9.138-11.639a11.312,11.312,0,0,0,6.8-10.444,11.788,11.788,0,0,0-5.167-9.627c-3.1-2.23-6.962-2.5-13.6-2.5Zm65.434,11.2,6.69,17.9H199.707ZM201.175.915,182.41,49.162H192.8l3.971-10.933h19.255l4.188,10.933h10.661L211.564.915ZM252.389.1c-14.5.885-20.808,12.41-20.808,25.347,0,14.355,8.157,23.687,20.286,24.476h3.505c14.208-.868,17.208-11.9,18.2-15.5l-9.41-2.992c-1.2,5.276-4.188,10.171-10.661,10.171a10.754,10.754,0,0,1-9.3-4.732c-2.012-3.1-2.556-7.615-2.556-12.129,0-3.1,0-16.318,11.966-16.318a9.892,9.892,0,0,1,10.171,8.1l9.627-2.284a18.751,18.751,0,0,0-4.569-8.648A19.9,19.9,0,0,0,255.907.1Z" transform="translate(5333.071 -1918.358)" fill="#fff"/><path d="M91.1,5.5Z" transform="translate(5355.736 -1920.821)" fill="#fff"/><path d="M91.1,5.5" transform="translate(5355.736 -1920.821)" fill="#fff"/><path d="M91.1,75.4Z" transform="translate(5355.736 -1952.701)" fill="#fff"/><path d="M91.1,75.4" transform="translate(5355.736 -1952.701)" fill="#fff"/><path d="M111.3,40.4Z" transform="translate(5346.524 -1936.738)" fill="#fff"/><path d="M111.3,40.4" transform="translate(5346.524 -1936.738)" fill="#fff"/><path d="M43.266.1a2.816,2.816,0,0,0-2.5,1.469l-6.2,10.77h3.209l5.113-8.92a1.656,1.656,0,0,1,.435-.435,1.092,1.092,0,0,1,.6-.164H64.7a1.1,1.1,0,0,1,.6.164,1.113,1.113,0,0,1,.435.435l10.389,18a1.1,1.1,0,0,1,.163.6,1.242,1.242,0,0,1-.163.6l-10.389,18a1.113,1.113,0,0,1-.435.435,1.1,1.1,0,0,1-.6.163H43.864a1.24,1.24,0,0,1-.6-.163,1.114,1.114,0,0,1-.435-.435l-5.276-9.083H34.4l6.309,10.987a2.91,2.91,0,0,0,1.941,1.414h23.1a2.783,2.783,0,0,0,1.937-1.414L78.675,23.489a2.75,2.75,0,0,0,0-2.883L67.688,1.569A2.88,2.88,0,0,0,65.186.1Z" transform="translate(5381.595 -1918.358)" fill="#fff"/><path d="M4.46,30.453l.87,6.309H3.481ZM2.883,26.7,0,41.386H2.72L3.1,38.992H5.6l.381,2.394H8.7L5.983,26.7Z" transform="translate(5397.286 -1930.49)" fill="#fff"/><path d="M16.7,35.945h2.72v1.686c0,.87,0,1.686,1.305,1.686,1.36,0,1.36-.87,1.36-2.176a1.95,1.95,0,0,0-.925-1.958L18.6,33.443a3.647,3.647,0,0,1-1.741-3.427A3.7,3.7,0,0,1,17.9,26.97a4.7,4.7,0,0,1,2.937-.87c1.577,0,3.753.653,3.753,3.155v1.469H21.922V29.635c0-.707,0-1.523-1.2-1.523-.707,0-1.251.272-1.251,1.469,0,1.251.272,1.523.87,1.9l2.665,1.795a5,5,0,0,1,1.414,1.414,3.937,3.937,0,0,1,.381,2.284,5.011,5.011,0,0,1-.49,2.883c-.816,1.305-2.5,1.469-3.481,1.469-2.284,0-4.079-.87-4.079-3.372V35.945Z" transform="translate(5389.669 -1930.216)" fill="#fff"/><path d="M33.5,26.7h2.72v5.82h2.448V26.7h2.72V41.386h-2.72V34.7H36.22v6.69H33.5Z" transform="translate(5382.007 -1930.49)" fill="#fff"/><path d="M50.7,26.7h5.385c2.665,0,2.665,1.795,2.665,3.1v1.577c0,1.849-.6,2.23-1.9,2.5a2.349,2.349,0,0,1,2.013,2.556v2.992a2.239,2.239,0,0,0,.653,1.958H56.52a3.228,3.228,0,0,1-.381-1.632V36.6c0-.979,0-1.686-1.414-1.686H53.42v6.473H50.7Zm2.72,6.146h1.414c1.251,0,1.251-.653,1.251-1.414V30.018c0-1.2-.653-1.2-1.251-1.2H53.42Z" transform="translate(5374.162 -1930.49)" fill="#fff"/><path d="M69.183,26.7h3.1L75,41.386h-2.72L71.9,38.993H69.4l-.381,2.393H66.3Zm.544,10.063h1.849l-.87-6.309Z" transform="translate(5367.047 -1930.49)" fill="#fff"/><path d="M83.4,26.7h7.125v2.23H86.12v3.481h4.134v2.23H86.12v4.515h4.569v2.23H83.4Z" transform="translate(5359.248 -1930.49)" fill="#fff"/><path d="M585.585,17.77a5.385,5.385,0,1,1,5.439-5.33,5.361,5.361,0,0,1-5.439,5.33m0-10.334a4.923,4.923,0,1,0,4.95,4.95,4.921,4.921,0,0,0-4.95-4.95M585.53,8.9a4.228,4.228,0,0,1,1.578.163,1.666,1.666,0,0,1-.327,3.209,1.492,1.492,0,0,1,.979,1.414,7.8,7.8,0,0,0,.49,2.013h-1.36a4.573,4.573,0,0,1-.38-1.469c-.218-1.414-.327-1.577-2.013-1.577V15.7h-1.2V8.9Zm-.979,2.828h.979c.49,0,1.469,0,1.469-.925a.857.857,0,0,0-.489-.816,2.757,2.757,0,0,0-1.2-.109h-.761Z" transform="translate(5132.668 -1921.505)" fill="#fff"/><text transform="translate(5560.489 -1835.745)" fill="#fff" font-size="8" font-family="Raleway-Regular, Raleway"><tspan x="-65.069" y="0">BACnet</tspan><tspan y="0" font-size="4.666" baseline-shift="2.66639997471509">®</tspan><tspan y="0" xml:space="preserve"> is a trademark of ASHRAE.</tspan></text></g></svg>