<svg xmlns="http://www.w3.org/2000/svg" xmlns:xlink="http://www.w3.org/1999/xlink" width="244.414" height="88.226" viewBox="0 0 244.414 88.226"><defs><clipPath id="a"><path d="M287.668,15.373c1.059,0,5.01.408,5.132,6.11H282.455c-.041-3.421,1.914-6.11,5.213-6.11m-12.422,8.553a17.767,17.767,0,0,0,1.548,7.25c2.35,5.047,7.078,6.045,9.824,6.232h2.45c7.682-.535,9.665-6.187,10.209-7.739l-6.924-1.181c-.366,1.222-1.181,3.625-4.4,3.625-3.951,0-5.58-3.3-5.7-6.394H299.6c.163-7.7-2.566-15.64-12.422-15.64-8.186,0-11.934,6.761-11.934,13.848m-22.482-9.408h-.081V10.69h-6.476V36.8h6.924V24.945c0-2.118.041-5.01.774-6.517a5.387,5.387,0,0,1,5.01-3.1c4.236,0,4.236,3.788,4.236,8.065V36.756h6.924V20.5c-.041-2.566.041-6.435-2.729-8.553a9.927,9.927,0,0,0-5.987-1.914,10.383,10.383,0,0,0-8.594,4.48m52.744-9V10.73h-3.177v5.5h3.177v11.4c0,3.991.122,5.539.977,7.168.827,1.587,2.779,2.369,4.618,2.607h2.717a13.987,13.987,0,0,0,3.947-.96v-.373l-.57-4.98-.2.041a6.4,6.4,0,0,1-2.566.611c-1.914,0-1.914-1.222-1.914-4.928V16.269H317.2v-5.5h-4.684V1.485ZM148.05,21.2h5.906c5.091,0,9.571,0,9.571,4.929a4.231,4.231,0,0,1-2.973,4.2c-1.1.407-4.2.407-5.743.407H148.05ZM148.09,6.82h0Zm0,0h4.2c5.254,0,6.109,0,7.168.285a3.776,3.776,0,0,1,2.729,3.828c0,3.829-3.747,4.155-6.191,4.155h-7.9ZM140.8.752V36.837h12.3c7.657,0,9.979-.163,12.1-1.059a10.423,10.423,0,0,0,5.865-9.409c0-2.036-.652-6.923-6.842-8.716a8.47,8.47,0,0,0,5.091-7.82,8.827,8.827,0,0,0-3.869-7.209C163.119.955,160.228.752,155.259.752Zm49,8.39,5.01,13.4h-9.9ZM186.009.711,171.958,36.837h7.779l2.973-8.187h14.418l3.136,8.187h7.983L193.788.711ZM224.358.1c-10.86.663-15.581,9.292-15.581,18.98,0,10.749,6.108,17.737,15.19,18.328h2.625c10.639-.65,12.885-8.909,13.628-11.608l-7.046-2.24c-.9,3.951-3.136,7.616-7.983,7.616a8.053,8.053,0,0,1-6.965-3.543c-1.507-2.322-1.914-5.7-1.914-9.083,0-2.322,0-12.219,8.96-12.219a7.407,7.407,0,0,1,7.616,6.068l7.209-1.71a14.041,14.041,0,0,0-3.421-6.476A14.9,14.9,0,0,0,226.993.1Z" transform="translate(-140.8 -0.1)" fill="#fff"/></clipPath><clipPath id="b"><rect width="244.414" height="45.703" fill="#fff"/></clipPath><clipPath id="c"><path d="M91.1,5.5" transform="translate(-91.1 -5.5)" fill="#fff"/></clipPath><clipPath id="e"><path d="M91.1,75.4" transform="translate(-91.1 -75.4)" fill="#fff"/></clipPath><clipPath id="g"><path d="M111.3,40.4" transform="translate(-111.3 -40.4)" fill="#fff"/></clipPath><clipPath id="h"><path d="M41.039.1a2.109,2.109,0,0,0-1.874,1.1L34.522,9.264h2.4l3.829-6.68a1.24,1.24,0,0,1,.326-.326.818.818,0,0,1,.448-.123H57.086a.821.821,0,0,1,.448.123.834.834,0,0,1,.326.326l7.779,13.481a.823.823,0,0,1,.122.448.93.93,0,0,1-.122.448L57.86,30.443a.834.834,0,0,1-.326.326.821.821,0,0,1-.448.122h-15.6a.928.928,0,0,1-.448-.122.834.834,0,0,1-.326-.326l-3.951-6.8H34.4l4.725,8.227a2.179,2.179,0,0,0,1.454,1.059h17.3a2.084,2.084,0,0,0,1.45-1.059l8.227-14.255a2.059,2.059,0,0,0,0-2.159L59.326,1.2A2.156,2.156,0,0,0,57.453.1Z" transform="translate(-34.4 -0.1)" fill="#fff"/></clipPath></defs><g transform="translate(0 -6924.244)"><g transform="translate(0 6924.244)"><path d="M76.972,0V18.206H44.193V8H41.9v10.2H2.3V7.84H0V20.5h200.71V9.392h-2.3v8.815H177.556V9.229h-2.3v8.978H156V8.371h-2.3v9.835H115.367V8.575h-2.3v9.631h-33.8V0Z" transform="translate(27.288 25.252)" fill="#fff"/><g transform="translate(57.347 0.041)" clip-path="url(#a)"><rect width="176.967" height="37.308" transform="translate(0 0)" fill="#fff"/></g><g transform="translate(0 0)" clip-path="url(#b)"><g transform="translate(37.104 2.24)"><g clip-path="url(#c)"><path d="M91.1,5.5Z" transform="translate(-91.1 -5.5)" fill="#fff"/></g></g></g><g transform="translate(0 0)" clip-path="url(#b)"><g transform="translate(37.104 30.71)"><g clip-path="url(#e)"><path d="M91.1,75.4Z" transform="translate(-91.1 -75.4)" fill="#fff"/></g></g></g><g transform="translate(0 0)" clip-path="url(#b)"><g transform="translate(45.331 16.454)"><g clip-path="url(#g)"><path d="M111.3,40.4Z" transform="translate(-111.3 -40.4)" fill="#fff"/></g></g></g><g transform="translate(14.009 0.041)" clip-path="url(#h)"><rect width="33.561" height="32.827" transform="translate(0 0)" fill="#fff"/></g><path d="M3.34,29.51l.652,4.725H2.607ZM2.159,26.7,0,37.7H2.036L2.322,35.9H4.2L4.48,37.7H6.517L4.48,26.7Z" transform="translate(0 -15.825)" fill="#fff"/><g transform="translate(0 0)" clip-path="url(#b)"><path d="M16.7,33.472h2.036v1.263c0,.652,0,1.263.978,1.263,1.018,0,1.018-.652,1.018-1.629A1.46,1.46,0,0,0,20.04,32.9l-1.914-1.3a2.731,2.731,0,0,1-1.3-2.566,2.771,2.771,0,0,1,.774-2.281,3.517,3.517,0,0,1,2.2-.652c1.181,0,2.81.489,2.81,2.362v1.1h-2v-.815c0-.529,0-1.14-.9-1.14-.529,0-.937.2-.937,1.1,0,.937.2,1.14.652,1.425l2,1.344a3.745,3.745,0,0,1,1.059,1.059,2.948,2.948,0,0,1,.285,1.711A3.752,3.752,0,0,1,22.4,36.4,2.979,2.979,0,0,1,19.8,37.5c-1.711,0-3.055-.652-3.055-2.525V33.472Z" transform="translate(-9.898 -15.47)" fill="#fff"/><path d="M33.5,26.7h2.036v4.358h1.833V26.7h2.036v11H37.369v-5.01H35.536V37.7H33.5Z" transform="translate(-19.856 -15.825)" fill="#fff"/><path d="M50.7,26.7h4.032c2,0,2,1.344,2,2.322V30.2c0,1.385-.448,1.67-1.426,1.874a1.759,1.759,0,0,1,1.507,1.914v2.24A1.677,1.677,0,0,0,57.3,37.7h-2.24a2.417,2.417,0,0,1-.285-1.222V34.113c0-.733,0-1.263-1.059-1.263h-.977V37.7H50.7Zm2.036,4.6H53.8c.937,0,.937-.489.937-1.059V29.184c0-.9-.489-.9-.937-.9H52.736Z" transform="translate(-30.05 -15.825)" fill="#fff"/><path d="M68.459,26.7H70.78l2.036,11H70.78L70.5,35.9H68.622L68.336,37.7H66.3Zm.407,7.535h1.385L69.6,29.51Z" transform="translate(-39.297 -15.825)" fill="#fff"/><path d="M83.4,26.7h5.336v1.67h-3.3v2.607h3.1v1.67h-3.1v3.381h3.421V37.7H83.4Z" transform="translate(-49.432 -15.825)" fill="#fff"/><path d="M584.232,15.064a4.032,4.032,0,1,1,4.073-3.991,4.014,4.014,0,0,1-4.073,3.991m0-7.738a3.686,3.686,0,1,0,3.706,3.706,3.685,3.685,0,0,0-3.706-3.706m-.041,1.1a3.166,3.166,0,0,1,1.181.122,1.247,1.247,0,0,1-.245,2.4,1.118,1.118,0,0,1,.733,1.059,5.841,5.841,0,0,0,.367,1.507H585.21a3.424,3.424,0,0,1-.285-1.1c-.163-1.059-.245-1.181-1.507-1.181v2.281h-.9V8.426Zm-.733,2.118h.733c.367,0,1.1,0,1.1-.692a.641.641,0,0,0-.366-.611,2.064,2.064,0,0,0-.9-.081h-.57Z" transform="translate(-343.891 -4.149)" fill="#fff"/></g></g><text transform="translate(118.715 7010.47)" fill="#fff" font-size="8" font-family="Raleway-Regular, Raleway"><tspan x="-65.069" y="0">BACnet</tspan><tspan y="0" font-size="4.666" baseline-shift="2.66639997471509">®</tspan><tspan y="0" xml:space="preserve"> is a trademark of ASHRAE.</tspan></text></g></svg>