<?xml version="1.0" encoding="UTF-8"?>
<svg id="Layer_1" xmlns="http://www.w3.org/2000/svg" version="1.1" viewBox="0 0 111 99">
  <!-- Generator: Adobe Illustrator 30.8.1, SVG Export Plug-In . SVG Version: 2.1.4 Build 1)  -->
  <defs>
    <style>
      .st0 {
        fill: #25324c;
      }
    </style>
  </defs>
  <path class="st0" d="M81.05,73.74c-.91,0-1.65-.74-1.65-1.65V17c0-.91.74-1.65,1.65-1.65h10.11c.91,0,1.65.74,1.65,1.65v55.09c0,.91-.74,1.65-1.65,1.65h-10.11ZM82.7,70.44h6.81V18.65h-6.81v51.79ZM63.35,73.74c-.91,0-1.65-.74-1.65-1.65V25.7c0-.91.74-1.65,1.65-1.65h10.11c.91,0,1.65.74,1.65,1.65v46.39c0,.91-.74,1.65-1.65,1.65h-10.11ZM65,70.44h6.81V27.35h-6.81v43.09ZM45.64,73.74c-.91,0-1.65-.74-1.65-1.65v-37.68c0-.91.74-1.65,1.65-1.65h10.11c.91,0,1.65.74,1.65,1.65v37.68c0,.91-.74,1.65-1.65,1.65h-10.11ZM47.29,70.44h6.81v-34.38h-6.81v34.38ZM27.94,73.73c-.91,0-1.65-.74-1.65-1.65v-28.98c0-.91.74-1.65,1.65-1.65h10.11c.91,0,1.65.74,1.65,1.65v28.98c0,.91-.74,1.65-1.65,1.65h-10.11ZM29.59,70.44h6.81v-25.68h-6.81v25.68Z"/>
  <path class="st0" d="M17.46,83.65V15.35h3.3v65h72.78v3.3H17.46Z"/>
</svg>